<svg width="54" height="56" viewBox="0 0 54 56" fill="none" xmlns="http://www.w3.org/2000/svg">
<path d="M48.2143 0.875H5.78571C4.25125 0.875 2.77963 1.48739 1.6946 2.57744C0.609565 3.6675 0 5.14593 0 6.6875L0 49.3125C0 50.8541 0.609565 52.3325 1.6946 53.4226C2.77963 54.5126 4.25125 55.125 5.78571 55.125H22.3292V36.6812H14.7355V28H22.3292V21.3834C22.3292 13.8575 26.7891 9.70031 33.6198 9.70031C36.8912 9.70031 40.312 10.2864 40.312 10.2864V17.6731H36.5428C32.8291 17.6731 31.6708 19.9884 31.6708 22.3631V28H39.9612L38.6353 36.6812H31.6708V55.125H48.2143C49.7488 55.125 51.2204 54.5126 52.3054 53.4226C53.3904 52.3325 54 50.8541 54 49.3125V6.6875C54 5.14593 53.3904 3.6675 52.3054 2.57744C51.2204 1.48739 49.7488 0.875 48.2143 0.875Z" fill="white"/>
</svg>
