<svg width="137" height="85" viewBox="0 0 137 85" fill="none" xmlns="http://www.w3.org/2000/svg">
<path d="M77.1011 0C54.9713 0 37.8206 13.9332 29.926 21.7737L14.3251 9.34987C11.3475 6.97765 7.20756 6.77684 4.00304 8.85777C0.939811 10.8504 -0.558626 14.4606 0.190592 18.0532L5.27457 42.369L0.190592 66.6849C-0.558626 70.2774 0.939811 73.8876 4.00304 75.8803C7.20756 77.959 11.3475 77.756 14.3251 75.3904L29.926 62.9643C37.8206 70.8048 54.9713 84.738 77.1011 84.738C110.047 84.738 137 52.7516 137 42.369C137 31.9864 110.047 0 77.1011 0ZM77.1011 74.1458C59.7213 74.1458 43.5382 62.8717 34.1944 52.3191L31.0027 48.72L11.1549 64.5267L15.7915 42.369L11.1549 20.2113L31.0027 36.0181L34.1944 32.4189C43.5404 21.8664 59.7213 10.5923 77.1011 10.5923C103.906 10.5923 125.901 37.0464 126.731 42.1925C125.901 47.6938 103.906 74.1458 77.1011 74.1458ZM95.9 35.3075C92.1175 35.3075 89.05 38.4697 89.05 42.369C89.05 46.2683 92.1175 49.4305 95.9 49.4305C99.6825 49.4305 102.75 46.2683 102.75 42.369C102.75 38.4697 99.6825 35.3075 95.9 35.3075Z" fill="black"/>
</svg>
