<svg width="808" height="808" viewBox="0 0 808 808" fill="none" xmlns="http://www.w3.org/2000/svg">
<path d="M808 617.958H0V618.362H808V617.958Z" fill="#EBEBEB"/>
<path d="M126.791 633.343H84.7754V633.747H126.791V633.343Z" fill="#EBEBEB"/>
<path d="M323.895 628.963H236.469V629.367H323.895V628.963Z" fill="#EBEBEB"/>
<path d="M170.94 648.355H128.407V648.759H170.94V648.355Z" fill="#EBEBEB"/>
<path d="M727.038 645.64H695.963V646.044H727.038V645.64Z" fill="#EBEBEB"/>
<path d="M681.564 645.64H632.615V646.044H681.564V645.64Z" fill="#EBEBEB"/>
<path d="M505.469 638.821H417.3V639.225H505.469V638.821Z" fill="#EBEBEB"/>
<path d="M382.992 545.885H70.9747C68.5274 545.885 66.1804 544.913 64.4499 543.182C62.7195 541.452 61.7473 539.105 61.7473 536.657V98.0264C61.7686 95.5932 62.7502 93.2669 64.4783 91.5539C66.2065 89.8409 68.5414 88.8798 70.9747 88.8799H382.992C385.439 88.8799 387.786 89.852 389.517 91.5825C391.247 93.313 392.219 95.66 392.219 98.1072V536.657C392.219 539.105 391.247 541.452 389.517 543.182C387.786 544.913 385.439 545.885 382.992 545.885ZM70.9747 89.2031C68.6359 89.2074 66.3941 90.1383 64.7403 91.7921C63.0866 93.4459 62.1556 95.6877 62.1513 98.0264V536.657C62.1556 538.996 63.0866 541.238 64.7403 542.892C66.3941 544.545 68.6359 545.476 70.9747 545.481H382.992C385.331 545.476 387.573 544.545 389.226 542.892C390.88 541.238 391.811 538.996 391.815 536.657V98.0264C391.811 95.6877 390.88 93.4459 389.226 91.7921C387.573 90.1383 385.331 89.2074 382.992 89.2031H70.9747Z" fill="#EBEBEB"/>
<path d="M732.549 545.885H420.499C418.053 545.88 415.709 544.907 413.979 543.177C412.25 541.448 411.276 539.103 411.272 536.657V98.0264C411.297 95.5945 412.28 93.2707 414.008 91.5586C415.735 89.8464 418.067 88.884 420.499 88.8799H732.549C734.977 88.8883 737.303 89.8531 739.024 91.5652C740.746 93.2774 741.723 95.5988 741.744 98.0264V536.657C741.744 539.099 740.776 541.441 739.053 543.171C737.329 544.9 734.991 545.876 732.549 545.885ZM420.499 89.2031C418.161 89.2074 415.919 90.1383 414.265 91.7921C412.611 93.4459 411.68 95.6877 411.676 98.0264V536.657C411.68 538.996 412.611 541.238 414.265 542.892C415.919 544.545 418.161 545.476 420.499 545.481H732.549C734.888 545.476 737.129 544.545 738.783 542.892C740.437 541.238 741.368 538.996 741.372 536.657V98.0264C741.368 95.6877 740.437 93.4459 738.783 91.7921C737.129 90.1383 734.888 89.2074 732.549 89.2031H420.499Z" fill="#EBEBEB"/>
<path d="M472.244 203.309C475.356 200.519 479.376 198.956 483.556 198.913C484.632 198.878 485.69 199.202 486.562 199.834C493.153 196.664 500.369 195.008 507.683 194.986C510.338 194.946 512.961 195.574 515.31 196.813C522.615 191.965 531.939 188.636 538.694 188.636C542.54 188.636 541.699 186.809 542.54 188.636C550.054 185.404 560.995 186.373 567.216 186.373C577.122 186.373 580.338 191.383 576.282 198.429C577.898 199.754 585.719 201.661 585.412 203.826H471.872L472.244 203.309Z" fill="#FAFAFA"/>
<path d="M593.46 279.309C594.029 279.283 594.598 279.375 595.13 279.581C595.661 279.787 596.144 280.102 596.547 280.505C604.029 276.336 612.48 273.783 619.284 274.041C622.093 273.992 624.846 274.829 627.154 276.433C635.234 270.163 645.447 265.703 652.589 265.703C656.646 265.703 659.053 267.157 659.797 269.549C668.006 265.331 676.328 262.745 682.889 262.745C690.969 262.745 694.638 266.721 693.506 272.845C696.918 271.171 700.635 270.209 704.431 270.017C708.778 270.017 710.814 272.021 710.458 275.189C710.846 275.189 711.218 275.189 711.59 275.189C718.231 275.706 720.768 279.794 717.585 284.448H581.631C584.792 281.315 589.013 279.481 593.46 279.309Z" fill="#FAFAFA"/>
<path d="M127.535 164.282C128.045 164.254 128.555 164.335 129.031 164.519C129.507 164.702 129.939 164.985 130.298 165.349C136.972 161.632 144.503 159.354 150.563 159.612C153.067 159.567 155.521 160.313 157.576 161.745C164.816 156.154 173.865 152.195 180.2 152.195C183.836 152.195 185.985 153.471 186.664 155.621C193.985 151.855 201.386 149.544 207.252 149.544C214.508 149.544 217.708 153.083 216.706 158.546C219.734 157.058 223.032 156.201 226.402 156.025C230.28 156.025 232.09 157.818 231.783 160.63C232.122 160.63 232.462 160.63 232.785 160.63C238.699 161.099 240.978 164.735 238.118 168.888H116.918C119.743 166.06 123.539 164.414 127.535 164.282Z" fill="#FAFAFA"/>
<path d="M498.294 378.144C499.212 378.092 500.132 378.236 500.99 378.568C501.848 378.899 502.626 379.411 503.271 380.067C515.31 373.36 528.901 369.256 539.841 369.708C545.432 369.918 549.683 371.324 552.511 373.571C565.6 363.471 581.938 356.312 593.428 356.312C599.892 356.312 603.851 358.623 605.014 362.501C618.233 355.698 631.614 351.528 642.182 351.528C655.272 351.528 661.057 357.992 659.247 367.785C664.732 365.088 670.709 363.537 676.813 363.228C683.811 363.228 687.075 366.46 686.509 371.551C687.14 371.551 687.737 371.551 688.335 371.551C699.017 372.391 703.106 378.952 698.031 386.45H479.273C484.073 381.554 492.315 377.853 498.294 378.144Z" fill="#FAFAFA"/>
<path d="M465.408 278.34C468.64 278.614 471.872 279.067 475.104 279.568C478.336 280.069 481.406 280.748 484.444 281.572C486.72 282.175 488.959 282.909 491.151 283.769C494.804 281.589 498.631 279.714 502.592 278.162C505.032 277.209 507.44 276.32 510.042 275.576C512.574 274.795 515.148 274.153 517.75 273.653L511.157 277.128C509.008 278.291 506.874 279.422 504.79 280.602C502.705 281.782 500.701 282.961 498.714 284.141C496.726 285.321 494.9 286.597 493.122 287.842L491.022 289.345L488.791 288.359C486.239 287.291 483.627 286.368 480.97 285.596C478.207 284.739 475.346 283.98 472.47 283.139C466.749 281.523 460.883 279.907 455.211 277.887C458.615 277.863 462.019 278.014 465.408 278.34Z" fill="#EBEBEB"/>
<path d="M581.873 135.097C585.202 135.388 588.418 135.825 591.569 136.326C594.72 136.827 597.888 137.521 600.91 138.329C603.19 138.944 605.43 139.7 607.616 140.592C611.278 138.412 615.11 136.532 619.074 134.968C621.514 134.031 623.922 133.142 626.507 132.383C629.04 131.601 631.613 130.959 634.215 130.459L627.638 133.934C625.473 135.097 623.34 136.229 621.255 137.408C619.171 138.588 617.167 139.768 615.195 140.963C613.224 142.159 611.381 143.404 609.604 144.664L607.487 146.151L605.257 145.165C602.708 144.105 600.102 143.188 597.451 142.418C594.688 141.561 591.812 140.802 588.935 139.945C583.215 138.329 577.348 136.713 571.676 134.71C575.08 134.656 578.484 134.785 581.873 135.097Z" fill="#EBEBEB"/>
<path d="M132.948 215.203C134.968 215.38 136.924 215.655 138.879 215.962C140.789 216.271 142.682 216.676 144.551 217.174C145.935 217.536 147.295 217.984 148.624 218.515C150.846 217.186 153.176 216.046 155.588 215.106C157.075 214.524 158.578 213.991 160.113 213.49C161.654 213.02 163.218 212.632 164.8 212.326L160.792 214.443C159.483 215.138 158.19 215.833 156.93 216.544C155.669 217.255 154.441 217.982 153.229 218.709C152.017 219.437 150.918 220.196 149.836 220.956L148.559 221.861L147.201 221.263C145.649 220.637 144.063 220.097 142.45 219.647C140.834 219.113 139.024 218.629 137.279 218.144C133.805 217.126 130.233 216.172 126.791 214.912C128.848 214.893 130.903 214.991 132.948 215.203Z" fill="#EBEBEB"/>
<path d="M656.468 219.97C658.488 220.148 660.443 220.422 662.398 220.729C664.354 221.036 666.228 221.44 668.07 221.941C669.452 222.31 670.812 222.758 672.143 223.283C674.363 221.95 676.693 220.81 679.108 219.873C680.594 219.291 682.097 218.758 683.632 218.257C685.173 217.786 686.737 217.397 688.319 217.093L684.311 219.21C683.002 219.905 681.693 220.6 680.433 221.311C679.172 222.022 677.944 222.749 676.748 223.476C675.552 224.204 674.421 224.963 673.355 225.723L672.062 226.628L670.704 226.03C669.151 225.406 667.565 224.866 665.953 224.414C664.337 223.88 662.544 223.396 660.798 222.911C657.308 221.893 653.737 220.939 650.294 219.679C652.356 219.669 654.416 219.766 656.468 219.97Z" fill="#EBEBEB"/>
<path d="M355.714 204.569C357.12 204.699 358.493 204.876 359.851 205.103C361.208 205.329 362.55 205.603 363.842 205.943C364.809 206.202 365.759 206.521 366.687 206.896C368.23 205.96 369.852 205.159 371.535 204.505C372.569 204.101 373.635 203.713 374.767 203.39C375.827 203.058 376.906 202.788 377.999 202.582L375.203 204.052L372.488 205.539C371.583 206.024 370.743 206.541 369.902 207.042C369.062 207.543 368.286 208.092 367.511 208.658L366.622 209.288L365.669 208.868C364.583 208.414 363.471 208.025 362.34 207.704C361.16 207.333 359.948 206.993 358.72 206.654C356.28 205.943 353.775 205.28 351.367 204.424C352.817 204.398 354.268 204.446 355.714 204.569Z" fill="#EBEBEB"/>
<path d="M316.995 141.869C318.417 141.982 319.79 142.176 321.148 142.386C322.487 142.603 323.814 142.888 325.123 143.242C326.093 143.501 327.048 143.814 327.983 144.179C329.534 143.255 331.155 142.456 332.831 141.788C333.866 141.384 334.916 141.012 336.063 140.689C337.126 140.359 338.205 140.084 339.295 139.865L336.5 141.351C335.579 141.852 334.657 142.321 333.785 142.822C332.912 143.323 332.04 143.84 331.199 144.341C330.359 144.842 329.583 145.375 328.808 145.957L327.919 146.587L326.965 146.167C325.877 145.715 324.766 145.321 323.636 144.987L319.968 143.905C317.528 143.194 315.023 142.531 312.615 141.675C314.077 141.663 315.539 141.727 316.995 141.869Z" fill="#EBEBEB"/>
<path d="M149.706 616.148C152.195 606.323 163.394 598.728 174.738 599.197C178.583 599.293 182.315 600.518 185.468 602.719C200.246 589.955 219.279 583.207 238.796 583.812C247.969 584.067 256.953 586.475 265.024 590.842C277.467 572.387 298.604 559.298 318.756 559.298C330.197 559.298 339.457 563.532 345.565 570.61C361.725 558.215 380.762 550.604 399.281 550.604C428.806 550.604 448.198 569.996 449.862 597.128C457.296 602.235 484.202 609.41 487.596 617.974H149.318C149.431 617.312 149.545 616.762 149.706 616.148Z" fill="#F0F0F0"/>
<path d="M336.386 598.292C340.564 598.444 344.561 600.037 347.698 602.8C361.515 587.093 381.182 577.461 401.495 578.56C411.311 578.988 420.818 582.12 428.967 587.61C440.651 563.952 461.675 547.21 482.441 547.21C487.979 547.168 493.445 548.469 498.37 551.002C503.296 553.535 507.533 557.224 510.721 561.754C526.541 545.836 545.772 536.076 564.873 536.076C588.547 536.076 606.582 551.072 614.969 574.165C623.049 567.458 632.179 563.483 641.293 563.483C653.947 563.483 663.707 571.078 668.765 582.972C669.88 582.972 671.012 582.972 672.159 583.15C692.44 585.137 707.614 600.506 707.226 618.072H311.985C314.764 606.372 325.285 597.71 336.386 598.292Z" fill="#F0F0F0"/>
<path d="M301.933 537.401L304.39 485.657L299.606 483.491L297.667 385.885H277.855L278.34 440.004H271.973L277.677 480.405L273.363 468.478L274.478 467.897L260.176 418.108L254.956 417.607L221.748 325.802L203.002 332.153L220.843 383.251L214.815 385.287L236.76 428.773L248.557 462.548L246.198 462.661L266.866 514.955L277.984 546.741L279.6 579.514L279.94 617.958H302.273L300.673 537.579L301.933 537.401Z" fill="#F0F0F0"/>
<path d="M238.085 269.064C217.901 257.752 192.272 266.139 189.605 296.875C186.939 327.612 159.467 301.626 145.44 349.056C131.413 396.485 177.922 412.258 155.491 441.006C133.061 469.755 144.179 507.602 189.088 497.922C233.997 488.242 204.505 508.927 251.579 503.739C298.653 498.552 276.207 438.825 309.044 452.027C341.881 465.23 388.858 474.538 385.141 438.566C379.518 384.382 398.295 419.934 406.149 381.133C415.215 336.693 366.153 357.427 354.049 301.012C341.946 244.598 306.765 221.586 284.804 260.741C267.82 291.155 259.562 281.184 238.085 269.064Z" fill="#E6E6E6"/>
<path d="M404 690.937C577.045 690.937 717.326 682.747 717.326 672.644C717.326 662.541 577.045 654.351 404 654.351C230.955 654.351 90.6737 662.541 90.6737 672.644C90.6737 682.747 230.955 690.937 404 690.937Z" fill="#F5F5F5"/>
<path d="M403.661 657.55L414.197 576.039H327.757L338.293 657.55C337.836 657.667 337.43 657.932 337.138 658.303C336.846 658.674 336.684 659.131 336.677 659.603C336.682 660.18 336.913 660.732 337.321 661.141C337.729 661.549 338.282 661.78 338.859 661.784H403.063C403.64 661.78 404.192 661.549 404.601 661.141C405.009 660.732 405.24 660.18 405.244 659.603C405.237 659.136 405.079 658.683 404.793 658.313C404.508 657.944 404.111 657.676 403.661 657.55Z" fill="#26A5B8"/>
<path opacity="0.4" d="M403.661 657.55L414.197 576.039H327.757L338.293 657.55C337.836 657.667 337.43 657.932 337.138 658.303C336.846 658.674 336.684 659.131 336.677 659.603C336.682 660.18 336.913 660.732 337.321 661.141C337.729 661.549 338.282 661.78 338.859 661.784H403.063C403.64 661.78 404.192 661.549 404.601 661.141C405.009 660.732 405.24 660.18 405.244 659.603C405.237 659.136 405.079 658.683 404.793 658.313C404.508 657.944 404.111 657.676 403.661 657.55Z" fill="white"/>
<path opacity="0.2" d="M414.197 576.039H327.757L329.26 587.723L413.373 582.423L414.197 576.039Z" fill="black"/>
<path d="M413.066 573.147H407.329C406.607 563.999 402.463 555.459 395.724 549.231C388.985 543.003 380.145 539.544 370.969 539.544C361.793 539.544 352.953 543.003 346.214 549.231C339.475 555.459 335.331 563.999 334.609 573.147H328.872C328.105 573.147 327.369 573.451 326.827 573.994C326.284 574.536 325.979 575.272 325.979 576.039C325.979 576.807 326.284 577.542 326.827 578.085C327.369 578.627 328.105 578.932 328.872 578.932H413.05C413.817 578.932 414.553 578.627 415.095 578.085C415.637 577.542 415.942 576.807 415.942 576.039C415.942 575.272 415.637 574.536 415.095 573.994C414.553 573.451 413.817 573.147 413.05 573.147H413.066ZM370.969 541.182C379.694 541.216 388.09 544.516 394.503 550.432C400.916 556.349 404.881 564.453 405.616 573.147H336.273C337.006 564.443 340.976 556.33 347.4 550.412C353.824 544.494 362.234 541.2 370.969 541.182Z" fill="#26A5B8"/>
<path opacity="0.4" d="M413.066 573.147H407.329C406.607 563.999 402.463 555.459 395.724 549.231C388.985 543.003 380.145 539.544 370.969 539.544C361.793 539.544 352.953 543.003 346.214 549.231C339.475 555.459 335.331 563.999 334.609 573.147H328.872C328.105 573.147 327.369 573.451 326.827 573.994C326.284 574.536 325.979 575.272 325.979 576.039C325.979 576.807 326.284 577.542 326.827 578.085C327.369 578.627 328.105 578.932 328.872 578.932H413.05C413.817 578.932 414.553 578.627 415.095 578.085C415.637 577.542 415.942 576.807 415.942 576.039C415.942 575.272 415.637 574.536 415.095 573.994C414.553 573.451 413.817 573.147 413.05 573.147H413.066ZM370.969 541.182C379.694 541.216 388.09 544.516 394.503 550.432C400.916 556.349 404.881 564.453 405.616 573.147H336.273C337.006 564.443 340.976 556.33 347.4 550.412C353.824 544.494 362.234 541.2 370.969 541.182Z" fill="white"/>
<path d="M628.059 548.535H511.189V558.813H628.059V548.535Z" fill="#26A5B8"/>
<path opacity="0.2" d="M628.042 548.535H599.52V558.813H628.042V548.535Z" fill="black"/>
<path d="M531.066 665.566H520.11L608.166 558.829H619.122L531.066 665.566Z" fill="#263238"/>
<path d="M608.166 665.566H619.122L531.066 558.829H520.11L608.166 665.566Z" fill="#263238"/>
<path d="M563.515 389.456C572.016 383.121 582.455 375.106 604.416 375.72C633.197 376.528 622.532 404.291 618.863 404L563.515 389.456Z" fill="#26A5B8"/>
<path opacity="0.2" d="M574.375 385.707C575.102 382.362 591.278 376.237 605.354 377.789C620.059 379.405 611.705 387.889 609.361 387.711L574.375 385.707Z" fill="black"/>
<path d="M566.424 391.444C564.949 391.239 563.448 391.327 562.007 391.704C560.566 392.081 559.213 392.739 558.027 393.64C556.841 394.541 555.844 395.667 555.094 396.954C554.345 398.241 553.856 399.663 553.658 401.14V401.285C553.286 404 552.801 407.038 552.284 409.947C551.767 412.856 551.218 415.813 550.668 418.738C549.483 424.588 548.163 430.395 546.709 436.158C545.238 441.927 543.558 447.583 541.732 453.159C541.279 454.468 540.778 455.76 540.31 457.053C539.308 455.179 538.322 453.207 537.336 451.171L535.559 447.632L534.686 445.838L534.282 444.933C534.153 444.804 534.282 444.61 533.894 444.562C532.979 444.531 532.064 444.634 531.179 444.869L526.024 445.919C524.076 446.336 522.18 446.964 520.368 447.794C519.492 448.119 518.673 448.582 517.944 449.167C517.669 449.458 517.944 449.603 517.863 449.83L518.09 451.009L518.574 453.353C518.914 454.969 519.366 456.439 519.803 457.974C520.809 461.091 522.074 464.118 523.584 467.024C525.262 470.351 527.341 473.461 529.773 476.284C531.353 478.099 533.181 479.682 535.203 480.986C537.976 482.736 541.169 483.707 544.447 483.798C546.314 483.81 548.147 483.299 549.738 482.322C551.329 481.345 552.614 479.942 553.448 478.271V478.11C556.389 472.179 558.974 466.167 561.253 460.124C563.532 454.08 565.519 447.987 567.313 441.863C569.107 435.738 570.723 429.597 572.161 423.408C572.872 420.316 573.545 417.213 574.181 414.1C574.844 410.868 575.409 407.927 575.975 404.549C575.983 404.447 575.983 404.345 575.975 404.242C576.4 401.279 575.634 398.269 573.844 395.87C572.053 393.471 569.386 391.879 566.424 391.444ZM545.416 463.905C545.269 463.862 545.132 463.791 545.012 463.695C545.335 463.792 545.513 463.937 545.416 463.905Z" fill="#26A5B8"/>
<path d="M535.607 446.323L532.23 438.243L521.968 447.244C521.968 447.244 525.459 455.098 530.953 452.286L535.607 446.323Z" fill="#FFC3BD"/>
<path d="M521.92 434.106L515.94 441.523L521.984 447.244L532.23 438.259L521.92 434.106Z" fill="#FFC3BD"/>
<path d="M593.605 385.755C585.279 385.523 576.948 385.998 568.703 387.177C565.17 387.678 561.864 389.212 559.201 391.587C556.538 393.963 554.638 397.073 553.739 400.526C549.424 417.122 543.752 451.882 552.123 502.964H622.386C622.871 496.694 621.433 476.284 622.499 450.282C623.158 434.151 624.875 418.08 627.638 402.174C627.735 401.625 627.832 401.091 627.945 400.558C628.241 399.031 628.214 397.459 627.868 395.943C627.521 394.427 626.862 393 625.933 391.753C625.004 390.506 623.825 389.467 622.471 388.701C621.118 387.935 619.619 387.461 618.072 387.307C611.624 386.693 603.059 386.03 593.605 385.755Z" fill="#26A5B8"/>
<path opacity="0.2" d="M622.322 486.254C620.35 486.432 612.254 488.42 610.315 488.565L601.766 500.087C611.252 500.087 620.754 496.354 622.467 493.979C622.435 491.7 622.37 489.115 622.322 486.254Z" fill="black"/>
<path d="M597.468 392.155H594.688C593.525 394.126 591.456 410.012 593.605 411.983L597.468 411.175C597.468 411.175 595.399 399.782 597.468 392.155Z" fill="white"/>
<path d="M575.49 392.074L572.662 391.832C570.917 393.609 566.004 406.618 567.2 409.866L570.9 410.723C570.9 410.723 571.256 399.152 575.49 392.074Z" fill="white"/>
<path opacity="0.2" d="M616.375 418.544C614.985 425.008 616.375 441.459 622.548 450.46V450.363C622.806 444.125 623.243 437.839 623.792 431.747L616.375 418.544Z" fill="black"/>
<path opacity="0.2" d="M564.97 456.375L596.385 457.49C596.699 457.496 597.009 457.564 597.296 457.69C597.584 457.816 597.844 457.998 598.062 458.224C598.28 458.451 598.45 458.718 598.565 459.011C598.679 459.303 598.734 459.616 598.728 459.93C598.631 465.44 599.003 479.516 604.562 490.634C604.738 490.974 604.831 491.351 604.833 491.733C604.835 492.116 604.747 492.494 604.575 492.836C604.403 493.178 604.153 493.475 603.844 493.702C603.536 493.928 603.178 494.079 602.8 494.14C595.367 495.272 576.944 497.179 560.348 491.781C559.999 491.674 559.68 491.486 559.416 491.234C559.152 490.981 558.951 490.671 558.829 490.327C556.68 484.234 557.391 467.444 562.788 457.522C563.013 457.151 563.335 456.848 563.72 456.646C564.104 456.443 564.536 456.35 564.97 456.375Z" fill="white"/>
<path d="M387.178 662.124L379.049 651.797L400.089 629.4L408.234 639.726L387.178 662.124Z" fill="#FFC3BD"/>
<path d="M381.134 648.646L390.264 660.249C390.345 660.341 390.406 660.448 390.445 660.564C390.483 660.68 390.499 660.802 390.49 660.924C390.481 661.046 390.447 661.165 390.392 661.273C390.337 661.382 390.26 661.479 390.167 661.558L381.376 669.347C380.898 669.722 380.292 669.894 379.688 669.828C379.084 669.761 378.53 669.461 378.144 668.992C375.041 664.903 373.749 662.786 369.741 657.68C367.268 654.545 360.303 646.158 357.443 641.439C354.583 636.72 359.35 634.038 360.982 635.783C368.286 643.621 374.492 646.255 379.065 647.37C379.879 647.549 380.608 647.999 381.134 648.646Z" fill="#263238"/>
<path opacity="0.2" d="M408.234 639.742L400.089 629.4L389.246 640.954L397.375 651.28L408.234 639.742Z" fill="black"/>
<path d="M552.09 502.301C552.09 502.301 480.34 513.436 466.329 537.126C438.857 583.748 391.702 630.062 391.702 630.062L407.329 648.372C407.329 648.372 483.006 588.773 507.828 549.796C533.038 550.119 592.216 552.559 597.952 536.997C601.841 525.793 601.687 513.581 597.516 502.479L552.09 502.301Z" fill="#263238"/>
<path opacity="0.3" d="M552.09 502.301C552.09 502.301 480.34 513.436 466.329 537.126C438.857 583.748 391.702 630.062 391.702 630.062L407.329 648.372C407.329 648.372 483.006 588.773 507.828 549.796C533.038 550.119 592.216 552.559 597.952 536.997C601.841 525.793 601.687 513.581 597.516 502.479L552.09 502.301Z" fill="black"/>
<path d="M404 653.51L387.355 632.373L394.029 624.035L414.569 645.77L404 653.51Z" fill="#26A5B8"/>
<path d="M376.528 646.4C377.291 647.305 378.141 648.133 379.065 648.872C379.117 648.901 379.176 648.915 379.235 648.915C379.294 648.915 379.353 648.901 379.405 648.872C379.458 648.846 379.502 648.804 379.531 648.752C379.56 648.7 379.572 648.641 379.566 648.581C379.566 648.064 379.227 643.572 377.74 642.699C377.57 642.603 377.378 642.552 377.183 642.552C376.987 642.552 376.795 642.603 376.625 642.699C376.342 642.799 376.092 642.976 375.903 643.21C375.715 643.444 375.596 643.726 375.559 644.024C375.578 644.909 375.923 645.755 376.528 646.4ZM378.904 647.935C377.078 646.319 376.06 644.962 376.157 644.105C376.195 643.914 376.282 643.737 376.41 643.589C376.537 643.442 376.7 643.33 376.884 643.265C376.967 643.217 377.062 643.191 377.158 643.191C377.255 643.191 377.35 643.217 377.433 643.265C378.144 643.733 378.645 646.125 378.823 648.016L378.904 647.935Z" fill="#26A5B8"/>
<path d="M378.936 648.808C378.965 648.849 379.004 648.882 379.049 648.905C379.097 648.929 379.149 648.942 379.203 648.942C379.256 648.942 379.308 648.929 379.356 648.905C379.485 648.808 382.588 646.707 382.814 644.865C382.843 644.63 382.816 644.392 382.734 644.17C382.653 643.948 382.52 643.748 382.346 643.588C382.18 643.387 381.951 643.247 381.696 643.191C381.441 643.136 381.175 643.167 380.94 643.281C379.631 643.944 378.677 647.176 378.871 648.679C378.882 648.726 378.904 648.771 378.936 648.808ZM382.006 644.105C382.162 644.302 382.237 644.55 382.216 644.8C382.103 645.883 380.471 647.305 379.469 648.032C379.469 646.546 380.342 644.235 381.214 643.798C381.376 643.798 381.602 643.669 381.925 643.992L382.006 644.105Z" fill="#26A5B8"/>
<path d="M472.68 667.166L459.655 665.501L471.193 636.3L484.234 637.981L472.68 667.166Z" fill="#FFC3BD"/>
<path d="M459.3 661.914L473.844 664.063C474.09 664.091 474.315 664.216 474.469 664.41C474.624 664.604 474.695 664.851 474.668 665.097L473.682 676.749C473.64 677.05 473.539 677.341 473.385 677.603C473.231 677.866 473.026 678.095 472.783 678.279C472.54 678.462 472.263 678.595 471.968 678.671C471.673 678.747 471.366 678.763 471.064 678.72C466.006 677.896 463.614 677.233 457.183 676.296C453.24 675.714 439.778 674.163 434.316 673.355C428.854 672.547 429.808 667.182 432.199 667.036C442.881 666.374 452.787 664.742 456.876 662.382C457.607 661.957 458.462 661.792 459.3 661.914Z" fill="#263238"/>
<path opacity="0.2" d="M484.234 637.981L471.193 636.316L465.246 651.361L478.287 653.026L484.234 637.981Z" fill="black"/>
<path d="M584.814 502.301C584.814 502.301 487.628 481.115 489.761 518.736C492.088 559.928 461.934 644.38 461.934 644.38L483.831 648.436C483.831 648.436 530.307 584.636 525.039 542.685C544.899 549.23 611.996 559.895 620.124 537.837C624.088 526.635 624.888 514.558 622.435 502.931L584.814 502.301Z" fill="#263238"/>
<path d="M487.046 651.41L459.655 646.481L461.368 634.167L490.811 640.34L487.046 651.41Z" fill="#26A5B8"/>
<path d="M454.355 663.513C455.531 663.642 456.717 663.642 457.894 663.513C457.952 663.513 458.008 663.493 458.054 663.459C458.101 663.424 458.135 663.375 458.152 663.319C458.171 663.264 458.174 663.203 458.159 663.146C458.145 663.089 458.115 663.037 458.071 662.996C457.7 662.641 454.387 659.587 452.706 659.974C452.515 660.02 452.339 660.114 452.195 660.247C452.051 660.38 451.943 660.547 451.882 660.734C451.744 661.001 451.683 661.301 451.705 661.601C451.728 661.9 451.834 662.188 452.011 662.431C452.633 663.067 453.467 663.453 454.355 663.513ZM457.118 662.996C454.726 663.109 453.029 662.786 452.512 662.091C452.409 661.924 452.355 661.731 452.355 661.534C452.355 661.337 452.409 661.144 452.512 660.976C452.541 660.884 452.594 660.802 452.665 660.736C452.736 660.671 452.822 660.626 452.916 660.605C453.757 660.395 455.712 661.817 457.118 662.996Z" fill="#26A5B8"/>
<path d="M457.813 663.546C457.86 663.562 457.911 663.562 457.958 663.546C458.007 663.529 458.051 663.501 458.088 663.465C458.124 663.429 458.152 663.384 458.169 663.336C458.169 663.174 459.041 659.473 457.91 658.019C457.763 657.833 457.577 657.681 457.364 657.575C457.152 657.469 456.919 657.411 456.682 657.405C456.422 657.378 456.16 657.437 455.938 657.575C455.716 657.712 455.545 657.92 455.454 658.164C454.953 659.538 456.488 662.544 457.668 663.497C457.711 663.526 457.761 663.543 457.813 663.546ZM456.811 658.019C456.932 658.035 457.048 658.074 457.154 658.135C457.259 658.196 457.351 658.278 457.425 658.375C457.964 659.733 458.055 661.227 457.684 662.641C456.682 661.51 455.696 659.263 456.068 658.358C456.068 658.197 456.262 658.003 456.698 658.003L456.811 658.019Z" fill="#26A5B8"/>
<path d="M258.14 303.808C288.246 317.609 317.932 332.088 347.569 346.971C377.207 361.855 406.424 377.271 435.496 393.141C464.568 409.01 493.187 425.655 521.532 442.8C549.876 459.946 577.542 478.239 604.61 497.421L601.378 501.881C574.65 482.489 547.145 464.228 519.156 446.663C491.167 429.097 462.596 412.452 433.767 396.259C404.937 380.067 375.768 364.457 346.39 349.282C317.011 334.108 287.389 319.354 257.51 305.279L258.14 303.808Z" fill="#263238"/>
<path d="M528.529 455.793C506.697 442.154 484.735 428.693 462.435 415.829C440.134 402.966 417.72 390.28 395.064 378.031C372.407 365.782 349.654 353.791 326.723 342.01C303.792 330.23 280.748 318.821 257.477 307.783H257.752C251.153 313.976 244.874 320.503 238.942 327.337C232.946 334.124 227.323 341.218 221.861 348.458C211.01 362.961 200.991 378.068 191.852 393.706C173.583 425.007 158.175 457.891 145.812 491.959C133.446 526.022 123.906 561.046 117.289 596.676C114.057 614.506 111.488 632.427 109.581 650.44C107.771 668.394 106.656 686.477 106.187 704.576C106.185 704.629 106.173 704.681 106.151 704.73C106.128 704.778 106.097 704.821 106.058 704.857C106.019 704.893 105.973 704.921 105.923 704.939C105.873 704.958 105.82 704.966 105.767 704.964C105.663 704.96 105.564 704.915 105.492 704.84C105.42 704.765 105.379 704.664 105.379 704.56C105.913 686.445 106.995 668.345 108.805 650.295C110.615 632.244 113.314 614.322 116.578 596.482C123.216 560.821 132.789 525.769 145.198 491.684C157.599 457.588 173.046 424.677 191.351 393.351C200.518 377.712 210.564 362.605 221.441 348.103C226.903 340.863 232.542 333.769 238.554 326.965C244.5 320.117 250.8 313.585 257.429 307.396C257.464 307.364 257.51 307.346 257.558 307.346C257.606 307.346 257.652 307.364 257.687 307.396C280.958 318.465 304.002 330.02 326.933 341.687C349.864 353.355 372.617 365.475 395.241 377.772C417.865 390.07 440.312 402.707 462.58 415.635C484.849 428.563 506.826 441.992 528.658 455.647C528.672 455.658 528.683 455.672 528.69 455.687C528.698 455.702 528.701 455.719 528.701 455.736C528.701 455.753 528.698 455.77 528.69 455.786C528.683 455.801 528.672 455.815 528.658 455.825C528.636 455.832 528.612 455.833 528.589 455.827C528.566 455.821 528.546 455.809 528.529 455.793Z" fill="#263238"/>
<path d="M104.248 701.182C103.316 701.523 102.513 702.147 101.954 702.968C101.395 703.788 101.106 704.763 101.129 705.756V713.529H110.421V705.594C110.42 704.852 110.242 704.122 109.902 703.463C109.562 702.804 109.07 702.236 108.467 701.804C107.863 701.373 107.166 701.092 106.433 700.984C105.699 700.876 104.95 700.944 104.248 701.182Z" fill="#26A5B8"/>
<path opacity="0.8" d="M110.421 707.937H101.129V710.636H110.421V707.937Z" fill="white"/>
<path d="M280.053 316.736L279.439 317.867C279.322 318.085 279.163 318.279 278.971 318.435C278.779 318.592 278.558 318.709 278.321 318.779C278.083 318.85 277.834 318.873 277.588 318.847C277.341 318.82 277.103 318.746 276.886 318.627C276.667 318.51 276.474 318.351 276.318 318.159C276.161 317.967 276.044 317.746 275.973 317.508C275.903 317.271 275.88 317.022 275.906 316.776C275.932 316.529 276.007 316.291 276.126 316.073L276.74 314.942C276.857 314.724 277.016 314.531 277.208 314.374C277.4 314.218 277.621 314.101 277.858 314.03C278.096 313.959 278.345 313.936 278.591 313.963C278.837 313.989 279.076 314.064 279.293 314.183C279.512 314.3 279.705 314.459 279.861 314.65C280.018 314.842 280.135 315.063 280.206 315.301C280.276 315.538 280.299 315.787 280.273 316.034C280.247 316.28 280.172 316.519 280.053 316.736Z" fill="#263238"/>
<path d="M366.67 360.836L366.056 361.968C365.938 362.187 365.777 362.38 365.584 362.537C365.391 362.694 365.168 362.811 364.929 362.881C364.691 362.952 364.44 362.974 364.193 362.948C363.945 362.922 363.705 362.847 363.487 362.727C363.052 362.485 362.729 362.082 362.587 361.605C362.446 361.128 362.496 360.614 362.727 360.174L363.342 359.043C363.46 358.824 363.621 358.63 363.814 358.474C364.007 358.317 364.23 358.2 364.469 358.129C364.707 358.059 364.958 358.036 365.205 358.062C365.453 358.089 365.692 358.164 365.911 358.283C366.129 358.4 366.322 358.559 366.479 358.751C366.636 358.943 366.753 359.164 366.823 359.401C366.894 359.639 366.917 359.888 366.89 360.134C366.864 360.381 366.789 360.619 366.67 360.836Z" fill="#263238"/>
<path d="M457.49 410.157L456.876 411.288C456.757 411.507 456.597 411.701 456.403 411.857C456.21 412.014 455.987 412.131 455.749 412.202C455.51 412.272 455.26 412.295 455.012 412.269C454.764 412.242 454.525 412.167 454.306 412.048C454.089 411.929 453.898 411.769 453.743 411.577C453.588 411.384 453.472 411.163 453.403 410.926C453.334 410.688 453.313 410.44 453.34 410.194C453.368 409.949 453.443 409.711 453.563 409.494L454.177 408.363C454.294 408.145 454.453 407.952 454.645 407.795C454.837 407.639 455.058 407.522 455.295 407.451C455.533 407.38 455.782 407.358 456.028 407.384C456.274 407.41 456.513 407.485 456.73 407.604C456.949 407.721 457.142 407.88 457.298 408.072C457.455 408.264 457.572 408.485 457.642 408.722C457.713 408.959 457.736 409.209 457.71 409.455C457.683 409.701 457.609 409.94 457.49 410.157Z" fill="#263238"/>
<path d="M547.582 455.712L540.245 469.206C540.152 469.379 540.024 469.53 539.869 469.65C539.714 469.77 539.535 469.856 539.344 469.901C539.153 469.947 538.955 469.952 538.762 469.916C538.569 469.879 538.386 469.802 538.225 469.69L518.833 456.585C518.544 456.387 518.338 456.09 518.255 455.75C518.171 455.41 518.216 455.051 518.38 454.742L525.717 441.249C525.81 441.076 525.938 440.924 526.093 440.804C526.249 440.684 526.427 440.599 526.618 440.553C526.809 440.507 527.008 440.502 527.2 440.538C527.393 440.575 527.576 440.652 527.737 440.764L547.129 453.87C547.418 454.067 547.624 454.364 547.707 454.704C547.791 455.044 547.746 455.403 547.582 455.712Z" fill="#263238"/>
<path d="M533.474 471.096C533.216 471.101 532.962 471.028 532.747 470.886L520.352 462.532C520.079 462.355 519.884 462.082 519.806 461.766C519.728 461.451 519.773 461.118 519.932 460.835L524.602 452.238C524.689 452.079 524.81 451.941 524.954 451.832C525.099 451.723 525.266 451.647 525.442 451.607C525.617 451.56 525.801 451.551 525.979 451.582C526.158 451.613 526.328 451.682 526.477 451.785L538.823 460.14C539.096 460.316 539.291 460.59 539.369 460.905C539.447 461.22 539.402 461.554 539.243 461.837L534.573 470.418C534.489 470.578 534.372 470.718 534.23 470.829C534.088 470.941 533.924 471.021 533.749 471.064C533.659 471.087 533.567 471.098 533.474 471.096ZM525.782 452.367H525.653C525.522 452.404 525.412 452.491 525.345 452.609L520.675 461.206C520.618 461.315 520.603 461.441 520.633 461.56C520.663 461.68 520.735 461.784 520.837 461.853L533.28 470.256C533.341 470.284 533.407 470.298 533.474 470.298C533.541 470.298 533.607 470.284 533.668 470.256C533.798 470.219 533.908 470.132 533.975 470.014L538.645 461.417C538.706 461.309 538.723 461.181 538.693 461.061C538.663 460.941 538.588 460.837 538.484 460.77L526.057 452.48C525.977 452.418 525.882 452.379 525.782 452.367Z" fill="#263238"/>
<path d="M546.321 451.462L545.723 452.561C545.684 452.64 545.627 452.71 545.558 452.765C545.489 452.821 545.409 452.861 545.323 452.882C545.237 452.904 545.147 452.906 545.06 452.89C544.973 452.873 544.891 452.838 544.818 452.787L531.664 443.883C531.505 443.777 531.392 443.615 531.347 443.429C531.302 443.244 531.329 443.048 531.422 442.881L532.02 441.782C532.059 441.703 532.116 441.633 532.185 441.578C532.254 441.522 532.334 441.482 532.42 441.461C532.506 441.439 532.596 441.437 532.683 441.453C532.77 441.469 532.852 441.504 532.925 441.556L546.03 450.46C546.198 450.558 546.321 450.717 546.375 450.903C546.429 451.089 546.41 451.289 546.321 451.462Z" fill="#263238"/>
<path d="M601.152 486.028L592.442 486.416L597.29 499.134C597.29 499.134 605.871 498.585 605.127 492.46L601.152 486.028Z" fill="#FFC3BD"/>
<path d="M584.96 494.641L589.84 502.818L597.306 499.134L592.442 486.416L584.96 494.641Z" fill="#FFC3BD"/>
<path d="M606.453 352.288L598.453 358.914L587.578 367.963C587.896 369.413 588.123 370.881 588.256 372.359C588.854 378.257 587.158 384.091 578.56 386.143C578.56 386.143 571.757 388.535 588.838 388.777C605.919 389.02 608.359 386.531 608.359 386.531C601.766 380.083 604.239 361.887 606.453 352.288Z" fill="#FFC3BD"/>
<path opacity="0.2" d="M587.578 367.931C587.896 369.38 588.123 370.848 588.256 372.326C592.329 371.502 597.742 367.187 598.308 363.034C598.51 361.66 598.559 360.267 598.453 358.881L587.578 367.931Z" fill="black"/>
<path d="M580.144 345.226C573.923 343.804 570.933 333.914 573.163 326.222C576.12 316.106 586.091 316.785 593.67 322.683C603.091 329.955 589.84 347.44 580.144 345.226Z" fill="#263238"/>
<path d="M609.749 338.423C606.97 351.189 605.984 358.784 598.437 364.618C596.007 366.537 593.098 367.754 590.025 368.139C586.953 368.524 583.834 368.062 581.005 366.802C578.176 365.543 575.745 363.534 573.976 360.993C572.206 358.452 571.165 355.475 570.965 352.385C569.963 340.491 574.682 321.6 588.127 317.98C591.016 317.123 594.08 317.041 597.012 317.741C599.943 318.441 602.639 319.9 604.829 321.971C607.019 324.041 608.626 326.651 609.49 329.538C610.353 332.426 610.443 335.49 609.749 338.423Z" fill="#FFC3BD"/>
<path d="M603.156 347.941C597.565 344.87 599.229 330.262 601.669 327.741C604.109 325.22 616.698 322.214 622.37 329.971C629.351 339.538 611.818 352.676 603.156 347.941Z" fill="#263238"/>
<path d="M607.341 328.29C599.455 330.262 600.877 323.442 586.964 325.058C576.702 326.173 568.137 318.756 568.347 310.062C568.606 299.38 583.069 293.756 590.842 302.838C598.615 311.92 604.772 318.998 617.377 317.932C627.17 317.124 628.026 332.088 617.247 333.365C610.848 334.076 607.341 328.29 607.341 328.29Z" fill="#263238"/>
<path d="M582.649 325.608C579.246 325.625 575.911 324.654 573.05 322.812C571.302 321.718 569.81 320.261 568.672 318.542C567.535 316.822 566.78 314.878 566.457 312.841C566.443 312.737 566.47 312.63 566.534 312.546C566.597 312.461 566.691 312.405 566.796 312.389C566.903 312.375 567.011 312.402 567.098 312.465C567.185 312.528 567.245 312.622 567.265 312.728C567.56 314.653 568.269 316.49 569.343 318.114C570.417 319.737 571.831 321.109 573.486 322.133C575.562 323.447 577.894 324.303 580.326 324.646C582.759 324.989 585.236 324.81 587.594 324.121C587.644 324.106 587.696 324.102 587.748 324.108C587.799 324.114 587.849 324.13 587.895 324.156C587.94 324.181 587.979 324.216 588.011 324.257C588.043 324.298 588.066 324.346 588.079 324.396C588.109 324.499 588.097 324.609 588.045 324.703C587.994 324.797 587.907 324.867 587.804 324.897C586.127 325.372 584.392 325.611 582.649 325.608Z" fill="#263238"/>
<path d="M611.995 349.977C610.619 352.465 608.385 354.366 605.709 355.326C602.235 356.49 600.651 353.371 601.75 349.929C602.736 346.858 605.742 342.527 609.167 342.851C612.593 343.174 613.708 346.874 611.995 349.977Z" fill="#FFC3BD"/>
<path d="M587.868 339.586C587.707 340.637 587.012 341.412 586.252 341.332C585.493 341.251 585.137 340.346 585.299 339.295C585.461 338.245 586.156 337.469 586.915 337.55C587.675 337.631 588.03 338.536 587.868 339.586Z" fill="#263238"/>
<path d="M575.975 338.18C575.813 339.214 575.119 340.006 574.359 339.925C573.599 339.845 573.244 338.924 573.406 337.873C573.567 336.823 574.262 336.047 575.022 336.128C575.781 336.209 576.137 337.13 575.975 338.18Z" fill="#263238"/>
<path d="M579.595 338.6C578.273 341.298 576.6 343.809 574.617 346.066C575.204 346.538 575.888 346.876 576.619 347.054C577.351 347.233 578.113 347.249 578.851 347.1L579.595 338.6Z" fill="#ED847E"/>
<path d="M578.884 352.288C580.098 352.469 581.336 352.403 582.524 352.095C583.713 351.786 584.827 351.242 585.8 350.494C585.829 350.466 585.852 350.432 585.868 350.394C585.883 350.357 585.891 350.317 585.891 350.276C585.891 350.236 585.883 350.195 585.868 350.158C585.852 350.121 585.829 350.087 585.8 350.058C585.773 350.027 585.739 350.002 585.702 349.985C585.664 349.968 585.623 349.959 585.582 349.959C585.541 349.959 585.5 349.968 585.462 349.985C585.425 350.002 585.391 350.027 585.364 350.058C584.292 350.855 583.052 351.398 581.739 351.644C580.425 351.891 579.073 351.835 577.785 351.48C577.708 351.46 577.626 351.471 577.556 351.51C577.487 351.549 577.436 351.614 577.413 351.69C577.401 351.73 577.397 351.773 577.402 351.815C577.407 351.856 577.421 351.897 577.442 351.933C577.463 351.97 577.492 352.001 577.526 352.026C577.56 352.051 577.598 352.069 577.639 352.078C578.05 352.172 578.465 352.243 578.884 352.288Z" fill="#263238"/>
<path d="M594.688 333.09C594.789 333.07 594.883 333.026 594.963 332.961C595.08 332.842 595.146 332.683 595.146 332.516C595.146 332.35 595.08 332.19 594.963 332.072C594.323 331.329 593.512 330.753 592.6 330.396C591.687 330.038 590.701 329.909 589.727 330.019C589.646 330.031 589.569 330.059 589.499 330.101C589.43 330.144 589.37 330.2 589.323 330.267C589.276 330.333 589.243 330.409 589.227 330.489C589.21 330.568 589.21 330.651 589.226 330.73C589.254 330.892 589.344 331.037 589.476 331.133C589.609 331.23 589.774 331.271 589.937 331.248C590.698 331.168 591.467 331.273 592.179 331.554C592.891 331.836 593.524 332.285 594.025 332.864C594.1 332.964 594.203 333.04 594.321 333.08C594.44 333.121 594.568 333.124 594.688 333.09Z" fill="#263238"/>
<path d="M572.064 330.553C572.162 330.58 572.264 330.582 572.363 330.559C572.462 330.537 572.553 330.49 572.63 330.424C573.227 329.894 573.94 329.51 574.711 329.302C575.482 329.095 576.291 329.069 577.074 329.228C577.152 329.25 577.234 329.256 577.315 329.246C577.396 329.236 577.474 329.209 577.545 329.169C577.616 329.128 577.677 329.074 577.727 329.009C577.776 328.944 577.813 328.87 577.833 328.791C577.878 328.635 577.859 328.467 577.78 328.325C577.701 328.182 577.569 328.077 577.413 328.032C576.436 327.825 575.424 327.846 574.456 328.096C573.489 328.346 572.593 328.816 571.838 329.47C571.714 329.577 571.636 329.727 571.621 329.89C571.606 330.053 571.655 330.215 571.757 330.343C571.833 330.445 571.941 330.519 572.064 330.553Z" fill="#263238"/>
<path d="M648.162 446.743C647.154 441.336 645.611 436.041 643.556 430.939C641.663 426.115 639.505 421.4 637.092 416.815C635.88 414.553 634.652 412.322 633.343 410.125L631.371 406.893C630.66 405.778 630.046 404.776 629.19 403.499L628.931 403.127C628.055 401.927 626.95 400.912 625.681 400.138C624.412 399.365 623.004 398.849 621.535 398.62C620.067 398.391 618.568 398.454 617.124 398.805C615.68 399.155 614.319 399.787 613.119 400.663C611.919 401.539 610.903 402.644 610.13 403.913C609.356 405.182 608.84 406.591 608.612 408.059C608.383 409.527 608.445 411.026 608.796 412.47C609.146 413.915 609.778 415.276 610.654 416.476C611.155 417.17 611.85 418.172 612.448 419.061L614.258 421.841C615.47 423.715 616.617 425.622 617.732 427.561C619.951 431.339 621.963 435.233 623.76 439.229C625.454 442.932 626.786 446.791 627.735 450.751C628.402 453.351 628.594 456.05 628.301 458.718C626.749 460.923 625.008 462.988 623.097 464.891C620.634 467.328 617.981 469.565 615.163 471.581C612.303 473.666 609.329 475.637 606.259 477.528C604.756 478.514 603.188 479.403 601.637 480.34L599.31 481.681L598.146 482.295C597.985 482.457 597.726 482.295 597.662 482.78C597.624 483.091 597.624 483.406 597.662 483.717C597.7 483.99 597.753 484.259 597.823 484.525C597.887 484.853 597.968 485.176 598.066 485.495L600.667 493.801C600.929 494.615 601.334 495.376 601.863 496.047C602.073 496.322 602.267 496.613 602.461 496.888C602.604 497.131 602.772 497.358 602.962 497.566C603.163 497.823 603.403 498.047 603.673 498.229C604.077 498.455 604.287 498.229 604.562 498.229L606.178 497.712C607.212 497.356 608.246 497.001 609.248 496.613C611.284 495.854 613.24 494.997 615.211 494.06C619.124 492.173 622.875 489.968 626.426 487.466C630.068 484.919 633.519 482.111 636.753 479.063C640.118 475.917 643.19 472.471 645.931 468.769C646.406 468.123 646.782 467.409 647.047 466.652L647.176 466.297C648.331 462.976 648.931 459.487 648.953 455.971C648.987 452.877 648.722 449.786 648.162 446.743Z" fill="#26A5B8"/>
</svg>
