<svg width="781" height="676" viewBox="0 0 781 676" fill="none" xmlns="http://www.w3.org/2000/svg">
<path d="M377.209 622.307C564.032 622.307 715.483 532.666 715.483 422.088C715.483 311.51 564.032 221.869 377.209 221.869C190.385 221.869 38.9348 311.51 38.9348 422.088C38.9348 532.666 190.385 622.307 377.209 622.307Z" fill="#26A5B8"/>
<path opacity="0.6" d="M377.209 622.307C564.032 622.307 715.483 532.666 715.483 422.088C715.483 311.51 564.032 221.869 377.209 221.869C190.385 221.869 38.9348 311.51 38.9348 422.088C38.9348 532.666 190.385 622.307 377.209 622.307Z" fill="white"/>
<g opacity="0.1">
<path opacity="0.1" d="M311.45 472.722L479.673 379.289C483.225 377.316 483.225 374.114 479.673 372.141L240.015 239.038C203.012 248.759 168.342 262.568 138.011 280.494C106.462 299.164 82.462 320.621 65.9814 343.508L298.581 472.722C300.575 473.695 302.78 474.203 305.016 474.203C307.252 474.203 309.456 473.695 311.45 472.722V472.722Z" fill="black"/>
<path opacity="0.1" d="M283.2 454.882C291.166 459.299 291.166 466.461 283.2 470.893C275.235 475.324 262.395 475.31 254.385 470.893C246.375 466.475 246.42 459.299 254.385 454.882C262.351 450.465 275.235 450.465 283.2 454.882Z" fill="black"/>
<path opacity="0.1" d="M382.678 437.942C400.184 437.942 414.375 430.057 414.375 420.33C414.375 410.604 400.184 402.719 382.678 402.719C365.171 402.719 350.98 410.604 350.98 420.33C350.98 430.057 365.171 437.942 382.678 437.942Z" fill="black"/>
<path opacity="0.1" d="M424.05 416.513C441.556 416.513 455.748 408.628 455.748 398.901C455.748 389.175 441.556 381.29 424.05 381.29C406.544 381.29 392.352 389.175 392.352 398.901C392.352 408.628 406.544 416.513 424.05 416.513Z" fill="black"/>
<path opacity="0.1" d="M216.803 418C224.753 422.417 224.753 429.593 216.803 434.011C208.852 438.428 195.998 438.428 187.973 434.011C179.948 429.593 180.022 422.417 187.973 418C195.923 413.583 208.837 413.583 216.803 418Z" fill="black"/>
<path opacity="0.1" d="M470.326 350.956C478.291 355.373 478.291 362.535 470.326 366.952C462.361 371.369 449.521 371.383 441.511 366.952C433.501 362.52 433.561 355.373 441.511 350.956C449.462 346.538 462.375 346.538 470.326 350.956Z" fill="black"/>
<path opacity="0.1" d="M403.928 314.074C411.894 318.491 411.894 325.667 403.928 330.084C395.963 334.502 383.123 334.502 375.114 330.084C367.104 325.667 367.148 318.491 375.114 314.074C383.079 309.656 395.978 309.656 403.928 314.074Z" fill="black"/>
</g>
<path opacity="0.2" d="M266.913 379.589C285.149 379.589 299.933 371.377 299.933 361.248C299.933 351.119 285.149 342.907 266.913 342.907C248.676 342.907 233.892 351.119 233.892 361.248C233.892 371.377 248.676 379.589 266.913 379.589Z" fill="black"/>
<path opacity="0.3" d="M366.39 415.827C366.39 415.827 366.153 419.515 371.993 422.203C377.833 424.89 387.433 424.018 387.433 424.018C382.282 425.193 376.895 424.985 371.859 423.418C364.325 420.759 366.39 415.827 366.39 415.827Z" fill="black"/>
<path opacity="0.3" d="M366.138 408.68C366.138 408.68 359.896 413.569 363.418 420.287C362.337 419.456 361.563 418.312 361.21 417.025C360.857 415.738 360.943 414.376 361.457 413.14C361.799 412.085 362.404 411.127 363.22 410.349C364.036 409.572 365.038 408.999 366.138 408.68V408.68Z" fill="black"/>
<path opacity="0.3" d="M399.099 411.367C399.765 413.305 399.615 415.417 398.682 417.25C397.748 419.083 396.106 420.492 394.106 421.174C395.425 421.124 396.71 420.749 397.836 420.086C398.963 419.423 399.894 418.493 400.54 417.385C401.952 414.526 399.099 411.367 399.099 411.367Z" fill="black"/>
<path opacity="0.3" d="M409.486 393.57C409.486 393.57 409.234 397.258 415.074 399.946C420.914 402.633 430.514 401.761 430.514 401.761C425.364 402.936 419.977 402.728 414.94 401.161C407.406 398.487 409.486 393.57 409.486 393.57Z" fill="black"/>
<path opacity="0.3" d="M409.219 386.451C409.219 386.451 402.977 391.34 406.499 398.044C405.415 397.216 404.638 396.072 404.284 394.784C403.93 393.496 404.019 392.132 404.538 390.896C404.882 389.844 405.488 388.889 406.304 388.114C407.12 387.339 408.121 386.768 409.219 386.451Z" fill="black"/>
<path opacity="0.3" d="M442.18 389.095C442.851 391.031 442.705 393.143 441.774 394.977C440.843 396.811 439.201 398.22 437.202 398.902C438.521 398.849 439.803 398.472 440.927 397.807C442.051 397.141 442.979 396.209 443.621 395.099C445.033 392.254 442.18 389.095 442.18 389.095Z" fill="black"/>
<path opacity="0.15" d="M596.984 441.959C596.984 441.959 596.761 445.218 601.918 447.591C607.074 449.964 615.56 449.192 615.56 449.192C615.56 449.192 607.802 451.837 601.16 449.478C594.517 447.12 596.984 441.959 596.984 441.959Z" fill="black"/>
<path opacity="0.15" d="M594.502 434.411C594.502 434.411 588.989 438.7 592.095 444.647C592.095 444.647 587.949 442.045 589.509 438.056C589.92 437.071 590.602 436.211 591.481 435.569C592.36 434.927 593.405 434.527 594.502 434.411V434.411Z" fill="black"/>
<path opacity="0.15" d="M625.873 437.999C625.873 437.999 628.295 444.589 620.687 447.319C620.687 447.319 625.858 446.819 627.478 443.56C628.741 441.044 625.873 437.999 625.873 437.999Z" fill="black"/>
<path opacity="0.15" d="M593.209 425.148C593.209 425.148 614.237 420.073 627.805 428.536C641.373 436.999 636.29 445.69 636.29 445.69C636.29 445.69 644.687 434.125 629.856 426.377C609.838 415.956 593.209 425.148 593.209 425.148Z" fill="black"/>
<path opacity="0.15" d="M581.781 440.515C581.781 440.515 577.65 450.965 594.755 456.24C610.329 460.986 626.765 455.368 626.765 455.368C626.765 455.368 615.56 465.06 594.502 458.713C575.109 452.823 581.781 440.515 581.781 440.515Z" fill="black"/>
<path d="M157.003 39.205L144.387 46.2097C144.45 45.6733 144.485 45.1341 144.491 44.5943V41.092C144.491 34.8307 139.928 32.3004 134.296 35.3739C131.869 36.7982 129.794 38.7156 128.218 40.9919C127.297 33.1295 120.892 30.199 113.09 34.5162C104.679 39.205 97.8428 50.5697 97.8428 59.9331V65.1937C97.7815 67.3015 98.2238 69.3947 99.1357 71.3121L88.7332 77.1303C87.0878 78.1624 85.7188 79.5534 84.7376 81.1904C83.7563 82.8273 83.1905 84.6639 83.0862 86.5508C83.0862 90.0103 85.6125 91.4255 88.7332 89.6815L157.092 51.7419C158.737 50.7059 160.106 49.312 161.087 47.6729C162.068 46.0338 162.634 44.1957 162.739 42.3071C162.65 38.8762 160.124 37.461 157.003 39.205Z" fill="#EBEBEB"/>
<path d="M211.022 74.5428L201.511 79.832C201.558 79.4285 201.583 79.0229 201.586 78.6169V75.9723C201.586 71.2549 198.138 69.3393 193.888 71.6837C192.057 72.7771 190.495 74.2405 189.311 75.9723C188.612 70.0255 183.768 67.824 177.898 71.0833C174.546 73.1853 171.756 76.0178 169.755 79.351C167.754 82.6842 166.598 86.4242 166.381 90.2675V94.1844C166.34 95.7705 166.676 97.3445 167.361 98.7875L159.455 103.176C158.206 103.958 157.167 105.013 156.423 106.255C155.679 107.498 155.251 108.892 155.176 110.324C155.176 112.954 157.093 114.012 159.455 112.697L211.022 84.1063C212.269 83.3231 213.305 82.2672 214.046 81.0249C214.788 79.7827 215.213 78.3893 215.287 76.9587C215.228 74.2998 213.325 73.2419 211.022 74.5428Z" fill="#EBEBEB"/>
<path d="M73.3525 225.7C73.1593 225.829 74.3928 227.616 75.9086 231.132C79.0655 238.058 81.5962 245.232 83.4726 252.575C88.0578 271.604 88.9795 291.28 86.1922 310.628C86.5565 310.85 86.9666 310.992 87.394 311.046C87.8214 311.1 88.2559 311.064 88.6673 310.94C89.0787 310.816 89.4572 310.608 89.7765 310.33C90.0958 310.051 90.3484 309.709 90.5166 309.327C91.3785 294.818 91.7501 273.889 85.0776 252.061C83.0009 244.821 80.1627 237.804 76.607 231.118C75.6646 229.236 74.5767 227.425 73.3525 225.7V225.7Z" fill="#26A5B8"/>
<path opacity="0.3" d="M73.3525 225.7C73.1593 225.829 74.3928 227.616 75.9086 231.132C79.0655 238.058 81.5962 245.232 83.4726 252.575C88.0578 271.604 88.9795 291.28 86.1922 310.628C86.5565 310.85 86.9666 310.992 87.394 311.046C87.8214 311.1 88.2559 311.064 88.6673 310.94C89.0787 310.816 89.4572 310.608 89.7765 310.33C90.0958 310.051 90.3484 309.709 90.5166 309.327C91.3785 294.818 91.7501 273.889 85.0776 252.061C83.0009 244.821 80.1627 237.804 76.607 231.118C75.6646 229.236 74.5767 227.425 73.3525 225.7V225.7Z" fill="black"/>
<path d="M98.7791 221.883C98.5561 221.883 99.1803 223.999 99.5221 227.802C100.379 235.33 100.553 242.916 100.042 250.474C98.4911 269.935 93.2426 288.957 84.5574 306.597C84.8363 306.901 85.1793 307.145 85.5636 307.312C85.948 307.478 86.3648 307.565 86.7865 307.565C87.2081 307.565 87.625 307.478 88.0093 307.312C88.3937 307.145 88.7367 306.901 89.0156 306.597C94.3654 293.016 101.231 273.146 101.677 250.402C101.974 242.897 101.476 235.382 100.191 227.973C99.8808 225.912 99.4088 223.876 98.7791 221.883V221.883Z" fill="#26A5B8"/>
<path opacity="0.3" d="M98.7791 221.883C98.5561 221.883 99.1803 223.999 99.5221 227.802C100.379 235.33 100.553 242.916 100.042 250.474C98.4911 269.935 93.2426 288.957 84.5574 306.597C84.8363 306.901 85.1793 307.145 85.5636 307.312C85.948 307.478 86.3648 307.565 86.7865 307.565C87.2081 307.565 87.625 307.478 88.0093 307.312C88.3937 307.145 88.7367 306.901 89.0156 306.597C94.3654 293.016 101.231 273.146 101.677 250.402C101.974 242.897 101.476 235.382 100.191 227.973C99.8808 225.912 99.4088 223.876 98.7791 221.883V221.883Z" fill="black"/>
<path d="M32.9757 249.359C32.8717 249.573 34.9225 250.417 38.1918 252.575C44.7769 256.722 50.9726 261.414 56.7082 266.599C71.3238 280.13 83.2448 296.118 91.8835 313.773C92.3129 313.765 92.7354 313.668 93.1219 313.487C93.5084 313.307 93.8497 313.049 94.1223 312.729C94.3949 312.41 94.5923 312.038 94.7009 311.638C94.8096 311.238 94.8269 310.821 94.7516 310.414C87.3213 297.805 75.6705 280.065 57.7039 265.284C51.8621 260.304 45.5029 255.916 38.7268 252.189C36.8889 251.104 34.9661 250.158 32.9757 249.359V249.359Z" fill="#26A5B8"/>
<path opacity="0.3" d="M32.9757 249.359C32.8717 249.573 34.9225 250.417 38.1918 252.575C44.7769 256.722 50.9726 261.414 56.7082 266.599C71.3238 280.13 83.2448 296.118 91.8835 313.773C92.3129 313.765 92.7354 313.668 93.1219 313.487C93.5084 313.307 93.8497 313.049 94.1223 312.729C94.3949 312.41 94.5923 312.038 94.7009 311.638C94.8096 311.238 94.8269 310.821 94.7516 310.414C87.3213 297.805 75.6705 280.065 57.7039 265.284C51.8621 260.304 45.5029 255.916 38.7268 252.189C36.8889 251.104 34.9661 250.158 32.9757 249.359V249.359Z" fill="black"/>
<path d="M31.5789 216.737C31.3857 216.994 33.8674 218.653 37.5232 222.355C45.0697 229.588 51.9558 237.431 58.1052 245.799C73.6479 267.557 84.929 291.862 91.3932 317.518C91.9633 317.617 92.5488 317.597 93.1101 317.459C93.6713 317.321 94.1952 317.068 94.6461 316.718C95.0971 316.369 95.4647 315.93 95.7239 315.431C95.9831 314.933 96.128 314.387 96.1486 313.83C89.7734 295.161 79.4749 268.586 59.8439 244.284C53.5111 236.162 46.3306 228.684 38.4148 221.969C36.2154 220.211 31.7721 216.494 31.5789 216.737Z" fill="#26A5B8"/>
<path opacity="0.2" d="M31.5789 216.737C31.3857 216.994 33.8674 218.653 37.5232 222.355C45.0697 229.588 51.9558 237.431 58.1052 245.799C73.6479 267.557 84.929 291.862 91.3932 317.518C91.9633 317.617 92.5488 317.597 93.1101 317.459C93.6713 317.321 94.1952 317.068 94.6461 316.718C95.0971 316.369 95.4647 315.93 95.7239 315.431C95.9831 314.933 96.128 314.387 96.1486 313.83C89.7734 295.161 79.4749 268.586 59.8439 244.284C53.5111 236.162 46.3306 228.684 38.4148 221.969C36.2154 220.211 31.7721 216.494 31.5789 216.737Z" fill="black"/>
<path d="M39.2916 224.099C39.2916 224.099 38.1622 225.615 40.3467 228.388C42.5313 231.161 48.535 237.551 50.9276 239.824C52.4136 241.254 56.9907 238.709 55.044 236.122C51.9805 232.125 48.5648 228.39 44.8347 224.957C42.457 222.899 41.2087 222.441 39.9752 223.37L40.1536 223.513C40.3022 223.642 40.2576 223.928 40.0347 224.157C39.9684 224.239 39.8763 224.299 39.7719 224.327C39.6675 224.356 39.5565 224.351 39.4551 224.314L39.2916 224.099Z" fill="#B16668"/>
<path d="M78.2414 208.546C77.9888 208.675 79.2965 210.933 80.7529 215.293C83.8515 223.9 86.1685 232.748 87.678 241.74C91.2586 264.939 90.3923 288.573 85.1219 311.472C85.5385 311.765 86.0159 311.969 86.5218 312.07C87.0276 312.17 87.55 312.165 88.0534 312.053C88.5568 311.942 89.0294 311.728 89.439 311.425C89.8486 311.123 90.1857 310.739 90.4272 310.299C92.8941 293.017 95.4352 267.957 89.6247 241.196C87.8569 232.335 85.1531 223.67 81.5554 215.336C80.5448 213.063 78.4941 208.432 78.2414 208.546Z" fill="#26A5B8"/>
<path opacity="0.2" d="M78.2414 208.546C77.9888 208.675 79.2965 210.933 80.7529 215.293C83.8515 223.9 86.1685 232.748 87.678 241.74C91.2586 264.939 90.3923 288.573 85.1219 311.472C85.5385 311.765 86.0159 311.969 86.5218 312.07C87.0276 312.17 87.55 312.165 88.0534 312.053C88.5568 311.942 89.0294 311.728 89.439 311.425C89.8486 311.123 90.1857 310.739 90.4272 310.299C92.8941 293.017 95.4352 267.957 89.6247 241.196C87.8569 232.335 85.1531 223.67 81.5554 215.336C80.5448 213.063 78.4941 208.432 78.2414 208.546Z" fill="black"/>
<path d="M81.4215 217.338C81.4215 217.338 79.9354 218.124 80.515 221.14C81.0797 223.928 83.3534 231.533 84.3491 234.206C84.9732 235.893 89.6395 235.636 89.1342 232.777C88.3128 228.439 87.1046 224.178 85.5231 220.039C84.4531 217.495 83.6506 216.666 82.2834 216.952L82.3577 217.138C82.3577 217.295 82.2834 217.495 82.0011 217.595C81.9168 217.638 81.8199 217.653 81.7258 217.638C81.6316 217.622 81.5455 217.577 81.481 217.509L81.4215 217.338Z" fill="#B16668"/>
<path d="M42.9771 201.641C42.7542 201.87 45.013 203.8 48.2526 207.903C54.8741 215.927 60.7517 224.494 65.818 233.506C78.5981 256.862 86.8182 282.275 90.0706 308.484C90.0706 308.484 93.9492 309.699 95.2421 305.339C91.1852 286.098 84.2006 258.579 67.6755 232.233C62.3843 223.445 56.1644 215.205 49.1145 207.645C47.1529 205.601 43.2 201.398 42.9771 201.641Z" fill="#26A5B8"/>
<path opacity="0.2" d="M42.9771 201.641C42.7542 201.87 45.013 203.8 48.2526 207.903C54.8741 215.927 60.7517 224.494 65.818 233.506C78.5981 256.862 86.8182 282.275 90.0706 308.484C90.0706 308.484 93.9492 309.699 95.2421 305.339C91.1852 286.098 84.2006 258.579 67.6755 232.233C62.3843 223.445 56.1644 215.205 49.1145 207.645C47.1529 205.601 43.2 201.398 42.9771 201.641Z" fill="black"/>
<path d="M239.658 143.832C239.867 143.832 239.391 145.661 239.198 148.935C238.7 155.42 238.78 161.933 239.436 168.405C241.363 185.058 246.445 201.231 254.43 216.123C254.198 216.397 253.908 216.621 253.579 216.779C253.25 216.937 252.889 217.025 252.521 217.037C252.153 217.049 251.787 216.985 251.448 216.85C251.108 216.714 250.802 216.51 250.551 216.251C245.558 204.815 239.049 187.875 237.994 168.376C237.525 161.943 237.749 155.481 238.663 149.092C238.858 147.317 239.191 145.559 239.658 143.832V143.832Z" fill="#26A5B8"/>
<path opacity="0.3" d="M239.658 143.832C239.867 143.832 239.391 145.661 239.198 148.935C238.7 155.42 238.78 161.933 239.436 168.405C241.363 185.058 246.445 201.231 254.43 216.123C254.198 216.397 253.908 216.621 253.579 216.779C253.25 216.937 252.889 217.025 252.521 217.037C252.153 217.049 251.787 216.985 251.448 216.85C251.108 216.714 250.802 216.51 250.551 216.251C245.558 204.815 239.049 187.875 237.994 168.376C237.525 161.943 237.749 155.481 238.663 149.092C238.858 147.317 239.191 145.559 239.658 143.832V143.832Z" fill="black"/>
<path d="M217.932 147.691C218.14 147.691 218.244 149.521 219.091 152.695C220.626 159.029 222.729 165.223 225.377 171.207C232.403 186.536 242.285 200.498 254.534 212.406C254.397 212.735 254.189 213.032 253.923 213.278C253.657 213.523 253.34 213.711 252.992 213.829C252.644 213.946 252.275 213.991 251.908 213.961C251.541 213.93 251.185 213.824 250.863 213.65C242.527 204.1 231.069 189.891 223.98 171.593C221.547 165.588 219.749 159.362 218.616 153.009C218.247 151.256 218.018 149.478 217.932 147.691V147.691Z" fill="#26A5B8"/>
<path opacity="0.3" d="M217.932 147.691C218.14 147.691 218.244 149.521 219.091 152.695C220.626 159.029 222.729 165.223 225.377 171.207C232.403 186.536 242.285 200.498 254.534 212.406C254.397 212.735 254.189 213.032 253.923 213.278C253.657 213.523 253.34 213.711 252.992 213.829C252.644 213.946 252.275 213.991 251.908 213.961C251.541 213.93 251.185 213.824 250.863 213.65C242.527 204.1 231.069 189.891 223.98 171.593C221.547 165.588 219.749 159.362 218.616 153.009C218.247 151.256 218.018 149.478 217.932 147.691V147.691Z" fill="black"/>
<path d="M279.381 151.922C279.515 152.065 278.103 153.352 276.097 155.954C271.992 161.121 268.362 166.621 265.249 172.393C257.421 187.359 252.501 203.573 250.73 220.239C250.38 220.349 250.01 220.385 249.645 220.345C249.279 220.304 248.927 220.188 248.613 220.005C248.298 219.822 248.028 219.576 247.822 219.283C247.615 218.99 247.477 218.658 247.416 218.309C249.764 206.044 253.88 188.504 264.06 171.607C267.315 165.972 271.164 160.674 275.547 155.796C276.719 154.412 278.001 153.116 279.381 151.922Z" fill="#26A5B8"/>
<path opacity="0.3" d="M279.381 151.922C279.515 152.065 278.103 153.352 276.097 155.954C271.992 161.121 268.362 166.621 265.249 172.393C257.421 187.359 252.501 203.573 250.73 220.239C250.38 220.349 250.01 220.385 249.645 220.345C249.279 220.304 248.927 220.188 248.613 220.005C248.298 219.822 248.028 219.576 247.822 219.283C247.615 218.99 247.477 218.658 247.416 218.309C249.764 206.044 253.88 188.504 264.06 171.607C267.315 165.972 271.164 160.674 275.547 155.796C276.719 154.412 278.001 153.116 279.381 151.922Z" fill="black"/>
<path d="M270.836 125.119C271.074 125.276 269.558 127.292 267.641 131.323C263.669 139.244 260.417 147.48 257.922 155.94C251.783 177.814 249.854 200.585 252.231 223.127C251.795 223.362 251.313 223.505 250.816 223.544C250.318 223.584 249.818 223.52 249.349 223.358C248.879 223.195 248.452 222.937 248.095 222.601C247.738 222.265 247.461 221.86 247.282 221.412C246.925 204.558 247.416 180.242 256.124 155.182C258.848 146.869 262.448 138.846 266.868 131.237C268.035 129.108 269.361 127.063 270.836 125.119Z" fill="#26A5B8"/>
<path opacity="0.2" d="M270.836 125.119C271.074 125.276 269.558 127.292 267.641 131.323C263.669 139.244 260.417 147.48 257.922 155.94C251.783 177.814 249.854 200.585 252.231 223.127C251.795 223.362 251.313 223.505 250.816 223.544C250.318 223.584 249.818 223.52 249.349 223.358C248.879 223.195 248.452 222.937 248.095 222.601C247.738 222.265 247.461 221.86 247.282 221.412C246.925 204.558 247.416 180.242 256.124 155.182C258.848 146.869 262.448 138.846 266.868 131.237C268.035 129.108 269.361 127.063 270.836 125.119Z" fill="black"/>
<path d="M266.764 133.196C266.764 133.196 268.132 134.111 267.195 136.941C266.259 139.772 263.257 146.605 261.994 149.078C261.192 150.622 256.748 149.821 257.536 147.191C258.85 143.126 260.51 139.171 262.499 135.369C263.822 133.038 264.699 132.324 265.977 132.738L265.873 132.91C265.784 133.053 265.873 133.281 266.17 133.396C266.244 133.447 266.332 133.475 266.423 133.475C266.513 133.475 266.602 133.447 266.675 133.396L266.764 133.196Z" fill="#B16668"/>
<path d="M230.623 131.352C230.876 131.352 230.475 133.567 230.623 137.499C230.667 145.318 231.412 153.118 232.852 160.814C236.83 180.573 244.525 199.466 255.559 216.565C255.308 216.916 254.982 217.21 254.602 217.428C254.223 217.647 253.799 217.784 253.36 217.832C252.92 217.879 252.475 217.835 252.055 217.703C251.634 217.571 251.248 217.354 250.923 217.066C243.805 203.743 234.338 184.187 231.114 160.871C229.923 153.209 229.544 145.449 229.984 137.713C230.038 135.58 230.252 133.455 230.623 131.352Z" fill="#26A5B8"/>
<path opacity="0.2" d="M230.623 131.352C230.876 131.352 230.475 133.567 230.623 137.499C230.667 145.318 231.412 153.118 232.852 160.814C236.83 180.573 244.525 199.466 255.559 216.565C255.308 216.916 254.982 217.21 254.602 217.428C254.223 217.647 253.799 217.784 253.36 217.832C252.92 217.879 252.475 217.835 252.055 217.703C251.634 217.571 251.248 217.354 250.923 217.066C243.805 203.743 234.338 184.187 231.114 160.871C229.923 153.209 229.544 145.449 229.984 137.713C230.038 135.58 230.252 133.455 230.623 131.352Z" fill="black"/>
<path d="M230.653 139.257C230.653 139.257 232.139 139.472 232.51 142.116C232.882 144.761 233.283 151.308 233.283 153.753C233.283 155.296 229.39 156.326 228.974 153.924C228.367 150.184 228.084 146.402 228.127 142.617C228.245 140.258 228.662 139.372 229.85 139.214V139.386C229.85 139.529 230.029 139.672 230.281 139.672C230.363 139.68 230.445 139.662 230.515 139.621C230.585 139.579 230.639 139.517 230.668 139.443L230.653 139.257Z" fill="#B16668"/>
<path d="M257.09 116.013C257.343 116.142 256.079 118.315 254.683 122.532C251.697 130.845 249.47 139.392 248.025 148.077C244.602 170.497 245.468 193.33 250.581 215.451C250.18 215.734 249.72 215.931 249.232 216.028C248.745 216.125 248.241 216.12 247.756 216.013C247.271 215.905 246.815 215.699 246.421 215.407C246.026 215.115 245.701 214.745 245.469 214.321C243.047 197.624 240.565 173.423 246.153 147.563C247.838 138.996 250.432 130.618 253.895 122.56C254.935 120.373 256.897 115.884 257.09 116.013Z" fill="#26A5B8"/>
<path opacity="0.2" d="M257.09 116.013C257.343 116.142 256.079 118.315 254.683 122.532C251.697 130.845 249.47 139.392 248.025 148.077C244.602 170.497 245.468 193.33 250.581 215.451C250.18 215.734 249.72 215.931 249.232 216.028C248.745 216.125 248.241 216.12 247.756 216.013C247.271 215.905 246.815 215.699 246.421 215.407C246.026 215.115 245.701 214.745 245.469 214.321C243.047 197.624 240.565 173.423 246.153 147.563C247.838 138.996 250.432 130.618 253.895 122.56C254.935 120.373 256.897 115.884 257.09 116.013Z" fill="black"/>
<path d="M444.944 290.872V357.216C445.031 358.138 445.371 359.021 445.93 359.775C446.489 360.528 447.246 361.126 448.124 361.505C450.502 362.661 453.128 363.263 455.792 363.263C458.456 363.263 461.083 362.661 463.46 361.505C464.338 361.127 465.095 360.53 465.652 359.776C466.208 359.022 466.545 358.138 466.626 357.216V290.872H444.944Z" fill="#263238"/>
<path d="M448.793 295.132L449.447 300.078L450.324 295.661L448.793 295.132Z" fill="#455A64"/>
<path d="M451.78 296.09L452.226 299.564L452.85 296.462L451.78 296.09Z" fill="#455A64"/>
<path d="M448.124 295.132C450.5 296.295 453.127 296.901 455.792 296.901C458.458 296.901 461.085 296.295 463.461 295.132C467.681 292.788 467.681 288.971 463.461 286.626C461.084 285.467 458.457 284.863 455.792 284.863C453.128 284.863 450.501 285.467 448.124 286.626C443.889 288.971 443.889 292.788 448.124 295.132Z" fill="#37474F"/>
<path d="M378.547 254.147V320.434C378.627 321.358 378.965 322.244 379.525 322.998C380.085 323.753 380.845 324.349 381.727 324.723C384.1 325.885 386.725 326.491 389.388 326.491C392.05 326.491 394.675 325.885 397.048 324.723C397.93 324.349 398.69 323.753 399.25 322.998C399.81 322.244 400.148 321.358 400.228 320.434V254.147H378.547Z" fill="#263238"/>
<path d="M382.396 258.408L383.035 263.354L383.926 258.937L382.396 258.408Z" fill="#455A64"/>
<path d="M385.368 259.351L385.828 262.825L386.453 259.737L385.368 259.351Z" fill="#455A64"/>
<path d="M381.727 258.408C384.102 259.564 386.726 260.166 389.388 260.166C392.049 260.166 394.673 259.564 397.048 258.408C401.284 256.049 401.284 252.247 397.048 249.831C394.673 248.675 392.049 248.073 389.388 248.073C386.726 248.073 384.102 248.675 381.727 249.831C377.462 252.232 377.462 256.049 381.727 258.408Z" fill="#37474F"/>
<path d="M110.385 325.038L284.256 228.473C285.022 227.984 285.659 227.331 286.118 226.564C286.577 225.798 286.845 224.939 286.901 224.056V218.881C286.843 217.997 286.573 217.138 286.112 216.371C285.65 215.605 285.009 214.952 284.241 214.464L249.719 195.294C248.895 194.899 247.987 194.693 247.067 194.693C246.146 194.693 245.238 194.899 244.414 195.294L70.5439 291.859C69.7731 292.348 69.1315 293.003 68.6697 293.772C68.208 294.541 67.9389 295.403 67.8838 296.29V301.465C67.9342 302.351 68.2015 303.212 68.6637 303.98C69.126 304.748 69.7702 305.399 70.5439 305.882L105.05 325.052C105.877 325.456 106.792 325.666 107.72 325.663C108.647 325.661 109.561 325.446 110.385 325.038V325.038Z" fill="#263238"/>
<path d="M70.5736 294.818L105.08 313.973C105.902 314.375 106.811 314.584 107.733 314.584C108.655 314.584 109.564 314.375 110.385 313.973L284.256 217.409C284.574 217.303 284.85 217.104 285.045 216.84C285.24 216.576 285.345 216.261 285.345 215.937C285.345 215.613 285.24 215.297 285.045 215.033C284.85 214.769 284.574 214.57 284.256 214.464L249.734 195.294C248.91 194.899 248.002 194.693 247.082 194.693C246.161 194.693 245.253 194.899 244.429 195.294L70.5587 291.859C70.2357 291.963 69.9551 292.162 69.7568 292.429C69.5586 292.696 69.4527 293.015 69.4544 293.343C69.456 293.671 69.5651 293.99 69.766 294.255C69.967 294.519 70.2496 294.716 70.5736 294.818V294.818Z" fill="#455A64"/>
<path d="M107.74 314.588V325.638C106.811 325.654 105.892 325.447 105.065 325.038L70.5736 305.868C69.8068 305.382 69.1675 304.731 68.7059 303.967C68.2444 303.203 67.9732 302.347 67.9136 301.465V296.305C67.964 295.518 68.1827 294.751 68.5561 294.05C68.9295 293.349 69.4494 292.729 70.0832 292.23C69.1173 293.031 69.2956 294.103 70.5736 294.846L105.065 314.002C105.888 314.419 106.811 314.621 107.74 314.588V314.588Z" fill="#37474F"/>
<path d="M155.175 349.912L329.046 253.347C329.812 252.858 330.449 252.204 330.908 251.438C331.367 250.672 331.635 249.813 331.691 248.93V243.77C331.644 242.883 331.38 242.019 330.921 241.249C330.461 240.478 329.818 239.824 329.046 239.338L294.524 220.182C293.702 219.781 292.793 219.571 291.871 219.571C290.95 219.571 290.041 219.781 289.219 220.182L115.349 316.747C114.576 317.227 113.933 317.876 113.47 318.642C113.008 319.407 112.74 320.266 112.689 321.15V326.325C112.739 327.21 113.006 328.072 113.469 328.84C113.931 329.607 114.575 330.259 115.349 330.742L149.855 349.912C150.679 350.316 151.591 350.526 152.515 350.526C153.44 350.526 154.352 350.316 155.175 349.912V349.912Z" fill="#263238"/>
<path d="M115.364 319.692L149.87 338.861C150.694 339.257 151.602 339.462 152.523 339.462C153.444 339.462 154.352 339.257 155.176 338.861L329.046 242.297C329.369 242.194 329.651 241.996 329.851 241.73C330.05 241.465 330.158 241.145 330.158 240.818C330.158 240.49 330.05 240.17 329.851 239.905C329.651 239.639 329.369 239.441 329.046 239.338L294.524 220.182C293.703 219.781 292.794 219.571 291.872 219.571C290.95 219.571 290.041 219.781 289.219 220.182L115.349 316.747C115.031 316.854 114.756 317.054 114.562 317.319C114.368 317.584 114.265 317.9 114.267 318.224C114.268 318.548 114.375 318.864 114.571 319.127C114.768 319.39 115.045 319.587 115.364 319.692V319.692Z" fill="#455A64"/>
<path d="M152.53 339.462V350.526C151.6 350.536 150.681 350.325 149.855 349.911L115.349 330.741C114.581 330.251 113.942 329.595 113.483 328.826C113.024 328.057 112.757 327.195 112.704 326.31V321.149C112.752 320.364 112.969 319.597 113.339 318.896C113.71 318.195 114.227 317.575 114.858 317.075C113.907 317.876 114.086 318.962 115.349 319.691L149.855 338.847C150.676 339.274 151.598 339.486 152.53 339.462V339.462Z" fill="#37474F"/>
<path d="M199.966 374.785L373.836 278.221C374.608 277.738 375.251 277.086 375.711 276.318C376.171 275.551 376.435 274.689 376.481 273.804V268.586C376.433 267.7 376.167 266.837 375.704 266.069C375.242 265.301 374.596 264.65 373.821 264.169L339.3 244.999C338.478 244.597 337.569 244.388 336.647 244.388C335.725 244.388 334.816 244.597 333.994 244.999L160.124 341.563C159.35 342.046 158.706 342.698 158.244 343.465C157.782 344.233 157.515 345.095 157.464 345.98V351.141C157.515 352.027 157.782 352.888 158.244 353.656C158.706 354.424 159.35 355.075 160.124 355.558L194.675 374.785C195.495 375.185 196.401 375.393 197.32 375.393C198.24 375.393 199.146 375.185 199.966 374.785V374.785Z" fill="#263238"/>
<path d="M160.154 344.565L194.675 363.735C195.497 364.137 196.406 364.346 197.328 364.346C198.25 364.346 199.159 364.137 199.981 363.735L373.851 267.171C374.169 267.065 374.445 266.866 374.64 266.602C374.836 266.338 374.941 266.022 374.941 265.698C374.941 265.374 374.836 265.058 374.64 264.795C374.445 264.531 374.169 264.332 373.851 264.226L339.329 245.056C338.508 244.654 337.599 244.445 336.677 244.445C335.755 244.445 334.846 244.654 334.024 245.056L160.154 341.62C159.836 341.726 159.56 341.925 159.364 342.189C159.169 342.453 159.064 342.769 159.064 343.093C159.064 343.417 159.169 343.733 159.364 343.996C159.56 344.26 159.836 344.459 160.154 344.565Z" fill="#455A64"/>
<path d="M197.32 364.364V375.428C196.39 375.439 195.471 375.227 194.645 374.814L160.154 355.644C159.378 355.161 158.734 354.507 158.274 353.736C157.814 352.965 157.551 352.1 157.509 351.212V346.052C157.557 345.267 157.774 344.499 158.144 343.798C158.515 343.097 159.032 342.478 159.663 341.978C158.697 342.778 158.876 343.865 160.154 344.594L194.675 363.721C195.484 364.153 196.395 364.374 197.32 364.364V364.364Z" fill="#37474F"/>
<path d="M244.756 399.659L418.626 303.094C419.401 302.613 420.047 301.962 420.509 301.194C420.972 300.426 421.238 299.564 421.286 298.677V293.517C421.236 292.631 420.968 291.769 420.506 291.001C420.044 290.234 419.4 289.582 418.626 289.099L384.119 269.93C383.298 269.528 382.389 269.318 381.467 269.318C380.545 269.318 379.636 269.528 378.814 269.93L204.944 366.494C204.178 366.983 203.54 367.637 203.081 368.403C202.622 369.17 202.355 370.028 202.299 370.911V376.072C202.345 376.957 202.609 377.818 203.069 378.586C203.529 379.354 204.171 380.006 204.944 380.489L239.451 399.659C240.272 400.06 241.181 400.27 242.103 400.27C243.025 400.27 243.934 400.06 244.756 399.659V399.659Z" fill="#263238"/>
<path d="M204.944 369.439L239.45 388.666C240.272 389.068 241.181 389.277 242.103 389.277C243.025 389.277 243.934 389.068 244.756 388.666L418.626 292.102C418.944 291.996 419.22 291.797 419.415 291.533C419.611 291.269 419.716 290.953 419.716 290.629C419.716 290.305 419.611 289.99 419.415 289.726C419.22 289.462 418.944 289.263 418.626 289.157L384.119 269.987C383.297 269.585 382.388 269.376 381.467 269.376C380.545 269.376 379.636 269.585 378.814 269.987L204.944 366.551C204.645 366.668 204.389 366.868 204.209 367.125C204.029 367.382 203.933 367.685 203.933 367.995C203.933 368.305 204.029 368.608 204.209 368.866C204.389 369.123 204.645 369.322 204.944 369.439Z" fill="#455A64"/>
<path d="M242.111 389.223V400.274C241.184 400.286 240.27 400.074 239.451 399.659L204.944 380.489C204.169 380.006 203.524 379.352 203.064 378.581C202.604 377.81 202.342 376.945 202.299 376.057V370.897C202.347 370.112 202.564 369.345 202.935 368.644C203.305 367.943 203.822 367.323 204.454 366.823C203.503 367.623 203.666 368.71 204.944 369.439L239.451 388.666C240.273 389.068 241.189 389.26 242.111 389.223V389.223Z" fill="#37474F"/>
<path d="M289.561 424.532L463.431 327.982C464.202 327.493 464.843 326.838 465.305 326.069C465.767 325.3 466.036 324.437 466.091 323.551V318.39C466.035 317.507 465.767 316.649 465.308 315.882C464.849 315.116 464.212 314.462 463.446 313.973L428.924 294.803C428.103 294.401 427.194 294.192 426.272 294.192C425.35 294.192 424.441 294.401 423.619 294.803L249.749 391.367C248.983 391.857 248.345 392.51 247.886 393.277C247.427 394.043 247.159 394.902 247.104 395.785V400.945C247.157 401.831 247.424 402.692 247.883 403.461C248.342 404.23 248.981 404.886 249.749 405.377L284.27 424.532C285.09 424.932 285.996 425.14 286.916 425.14C287.835 425.14 288.741 424.932 289.561 424.532V424.532Z" fill="#263238"/>
<path d="M249.734 394.384L284.241 413.554C285.066 413.951 285.977 414.158 286.901 414.158C287.824 414.158 288.735 413.951 289.561 413.554L463.431 316.99C463.749 316.884 464.025 316.685 464.22 316.421C464.416 316.157 464.521 315.841 464.521 315.517C464.521 315.193 464.416 314.877 464.22 314.613C464.025 314.35 463.749 314.151 463.431 314.045L428.909 294.875C428.088 294.473 427.179 294.264 426.257 294.264C425.335 294.264 424.426 294.473 423.604 294.875L249.734 391.439C249.416 391.545 249.14 391.744 248.945 392.008C248.749 392.272 248.644 392.588 248.644 392.911C248.644 393.235 248.749 393.551 248.945 393.815C249.14 394.079 249.416 394.278 249.734 394.384V394.384Z" fill="#455A64"/>
<path d="M286.916 414.097V425.147C285.984 425.161 285.065 424.95 284.241 424.533L249.734 405.377C248.964 404.885 248.324 404.227 247.865 403.455C247.406 402.683 247.14 401.819 247.089 400.931V395.813C247.137 395.028 247.354 394.261 247.725 393.56C248.095 392.859 248.613 392.239 249.244 391.739C248.293 392.54 248.456 393.626 249.734 394.355L284.241 413.525C285.066 413.934 285.988 414.131 286.916 414.097Z" fill="#37474F"/>
<path d="M257.952 394.67V460.957C258.033 461.881 258.371 462.766 258.931 463.521C259.49 464.276 260.251 464.871 261.132 465.245C263.507 466.401 266.131 467.003 268.793 467.003C271.455 467.003 274.079 466.401 276.454 465.245C277.335 464.871 278.096 464.276 278.656 463.521C279.215 462.766 279.553 461.881 279.634 460.957V394.67H257.952Z" fill="#263238"/>
<path d="M261.801 398.916L262.44 403.862L263.317 399.459L261.801 398.916Z" fill="#455A64"/>
<path d="M264.773 399.874L265.234 403.347L265.858 400.245L264.773 399.874Z" fill="#455A64"/>
<path d="M261.132 398.916C263.505 400.078 266.13 400.684 268.793 400.684C271.456 400.684 274.081 400.078 276.454 398.916C280.689 396.571 280.689 392.754 276.454 390.41C274.081 389.248 271.456 388.642 268.793 388.642C266.13 388.642 263.505 389.248 261.132 390.41C256.897 392.754 256.897 396.571 261.132 398.916Z" fill="#37474F"/>
<path d="M191.554 357.931V424.232C191.635 425.154 191.972 426.038 192.528 426.792C193.085 427.547 193.842 428.144 194.72 428.521C197.095 429.683 199.723 430.289 202.388 430.289C205.053 430.289 207.681 429.683 210.056 428.521C210.936 428.144 211.695 427.548 212.254 426.794C212.813 426.04 213.152 425.155 213.236 424.232V357.931H191.554Z" fill="#263238"/>
<path d="M195.404 362.191L196.043 367.138L196.919 362.72L195.404 362.191Z" fill="#455A64"/>
<path d="M198.375 363.149L198.836 366.623L199.445 363.521L198.375 363.149Z" fill="#455A64"/>
<path d="M194.675 362.191C197.053 363.347 199.679 363.949 202.343 363.949C205.007 363.949 207.634 363.347 210.011 362.191C214.247 359.832 214.247 356.03 210.011 353.614C207.634 352.458 205.007 351.856 202.343 351.856C199.679 351.856 197.053 352.458 194.675 353.614C190.499 356.03 190.499 359.832 194.675 362.191Z" fill="#37474F"/>
<path d="M362.601 176.024C372.632 176.996 379.408 183.172 382.93 199.568C386.794 217.652 388.652 254.805 388.652 254.805L421.524 257.149C421.524 257.149 430.767 259.136 432.803 266.584C434.839 274.032 429.994 286.469 424.11 289.557C418.225 292.644 412.355 290.886 408.55 289.628C404.746 288.37 397.969 277.406 397.969 277.406C397.969 277.406 356.478 277.048 356.36 277.063C356.241 277.077 362.601 176.024 362.601 176.024Z" fill="#B16668"/>
<path d="M358.767 175.395C358.767 175.395 367.357 175.395 373.197 179.298C379.037 183.2 382.262 188.975 384.387 203.599C386.571 218.824 388.726 240.881 388.726 240.881C388.726 240.881 381.296 249.916 361.219 245.585L358.767 175.395Z" fill="#26A5B8"/>
<path opacity="0.5" d="M358.767 175.395C358.767 175.395 367.357 175.395 373.197 179.298C379.037 183.2 382.262 188.975 384.387 203.599C386.571 218.824 388.726 240.881 388.726 240.881C388.726 240.881 381.296 249.916 361.219 245.585L358.767 175.395Z" fill="black"/>
<path d="M398.876 337.203C406.5 342.135 426.294 330.384 430.648 323.522C435.002 316.66 435.523 312.672 429.965 308.87C424.407 305.067 388.637 321.821 398.876 337.203Z" fill="#26A5B8"/>
<path opacity="0.1" d="M398.876 337.203C406.5 342.135 426.294 330.384 430.648 323.522C435.002 316.66 435.523 312.672 429.965 308.87C424.407 305.067 388.637 321.821 398.876 337.203Z" fill="black"/>
<path d="M392.323 335.359C394.165 337.003 397.717 341.92 384.536 350.826C371.354 359.732 364.072 363.363 355.691 358.974C347.31 354.586 374.965 325.381 392.323 335.359Z" fill="#26A5B8"/>
<path opacity="0.1" d="M392.323 335.359C394.165 337.003 397.717 341.92 384.536 350.826C371.354 359.732 364.072 363.363 355.691 358.974C347.31 354.586 374.965 325.381 392.323 335.359Z" fill="black"/>
<path d="M437.514 389.452C437.514 391.367 436.221 393.254 433.62 394.698C430.699 396.127 427.468 396.872 424.191 396.872C420.914 396.872 417.683 396.127 414.762 394.698C413.809 394.268 412.969 393.637 412.303 392.853C411.637 392.068 411.162 391.151 410.913 390.167C409.576 382.919 408.535 368.824 407.48 360.147C406.852 353.644 406.902 347.098 407.629 340.605L367.683 316.589C368.575 317.375 392.768 335.687 397.94 342.32C400.377 345.423 401.402 349.997 401.016 355.186C400.124 367.48 397.375 392.354 395.577 410.566C395.577 411.223 395.473 411.881 395.428 412.524C394.772 414.238 393.458 415.644 391.758 416.456C388.85 417.868 385.638 418.604 382.381 418.604C379.123 418.604 375.911 417.868 373.003 416.456C371.371 415.672 370.088 414.347 369.392 412.724V412.724L369.169 411.667C367.906 405.377 366.836 392.096 366.435 387.479C365.565 378.675 365.203 369.832 365.35 360.99C365.35 360.99 323.919 338.404 311.168 329.369C284.181 310.228 286.47 303.995 285.385 279.85C285.385 279.85 357.4 264.755 362.839 269.186C372.364 276.934 436.459 308.326 440.739 320.12C442.165 324.151 439.252 365.493 437.514 389.452Z" fill="#B16668"/>
<path d="M381.757 326.967C385.47 329.551 389.014 332.354 392.367 335.359C392.367 335.359 383.837 331.899 370.567 339.962C363.582 344.25 356.419 353.085 355.706 358.974C355.706 358.974 312.61 336.96 299.577 324.794C286.544 312.629 284.479 299.392 285.34 279.865L363.775 269.858C363.775 269.858 387.196 282.323 404.389 292.73C424.496 304.853 429.935 309.013 429.935 309.013C429.935 309.013 424.407 307.583 414.079 314.016C399.218 323.322 397.494 334.344 398.846 337.346L381.757 326.967Z" fill="#26A5B8"/>
<path opacity="0.7" d="M381.757 326.967C385.47 329.551 389.014 332.354 392.367 335.359C392.367 335.359 383.837 331.899 370.567 339.962C363.582 344.25 356.419 353.085 355.706 358.974C355.706 358.974 312.61 336.96 299.577 324.794C286.544 312.629 284.479 299.392 285.34 279.865L363.775 269.858C363.775 269.858 387.196 282.323 404.389 292.73C424.496 304.853 429.935 309.013 429.935 309.013C429.935 309.013 424.407 307.583 414.079 314.016C399.218 323.322 397.494 334.344 398.846 337.346L381.757 326.967Z" fill="white"/>
<path opacity="0.1" d="M381.757 326.968L356.33 305.825C356.33 305.825 364.593 299.12 368.427 291.187C368.365 293.952 367.717 296.676 366.524 299.193C365.331 301.71 363.617 303.966 361.487 305.825L382.693 325.609L398.876 337.203L381.757 326.968Z" fill="black"/>
<path d="M334.886 174.366C325.235 174.332 315.613 175.392 306.22 177.525C300.469 179.197 298.641 185.158 294.911 192.363C291.389 199.153 288.788 213.42 287.153 238.623C285.756 260.065 285.37 279.864 285.37 279.864C296.337 291.301 356.33 289.256 369.823 273.046C369.763 270.516 369.419 267.999 368.798 265.541C367.291 258.579 367.587 251.367 369.66 244.541C373.657 231.118 377.194 214.092 377.61 206.773C378.621 188.947 374.311 176.753 358.767 175.395L334.886 174.366Z" fill="#26A5B8"/>
<path opacity="0.3" d="M334.886 174.366C325.235 174.332 315.613 175.392 306.22 177.525C300.469 179.197 298.641 185.158 294.911 192.363C291.389 199.153 288.788 213.42 287.153 238.623C285.756 260.065 285.37 279.864 285.37 279.864C296.337 291.301 356.33 289.256 369.823 273.046C369.763 270.516 369.419 267.999 368.798 265.541C367.291 258.579 367.587 251.367 369.66 244.541C373.657 231.118 377.194 214.092 377.61 206.773C378.621 188.947 374.311 176.753 358.767 175.395L334.886 174.366Z" fill="black"/>
<path d="M381.548 127.763C380.449 139.685 370.254 148.548 358.767 147.562C347.28 146.576 338.869 136.126 339.968 124.218C341.068 112.31 351.277 103.433 362.75 104.419C374.222 105.405 382.648 115.855 381.548 127.763Z" fill="#263238"/>
<path d="M318.153 135.797C317.127 124.604 317.172 119.586 320.233 117.071C321.2 116.282 322.341 115.716 323.569 115.414C324.797 115.111 326.08 115.082 327.322 115.326V135.34L328.808 149.821L327.931 162.329C326.741 162.182 325.619 161.714 324.696 160.977C323.772 160.241 323.085 159.267 322.715 158.169C321.407 154.967 319.237 142.53 318.42 137.699H318.286C318.286 137.041 318.167 136.412 318.108 135.797H318.153Z" fill="#263238"/>
<path d="M329.388 139.671C327.902 140.329 326.252 137.67 324.736 135.84C323.22 134.01 317.989 131.251 314.75 136.541C311.51 141.83 315.954 149.792 320.129 151.451C327.322 154.31 328.853 149.849 328.853 149.849L327.054 175.581C331.913 184.129 338.641 191.562 346.775 197.367C350.044 193.393 353.477 181.985 351.233 176.953L351.931 169.148C355.181 169.933 358.509 170.383 361.858 170.492C367.372 170.134 371.176 166.303 373.36 160.771C376.853 151.908 379.171 144.474 378.25 127.492C377.194 108.022 353.581 104.491 340.043 111.152C326.505 117.814 329.388 139.671 329.388 139.671Z" fill="#B16668"/>
<path d="M329.179 141.858C328.496 141.858 326.296 137.455 324.721 135.84C322.581 133.596 327.307 115.326 327.307 115.326C327.307 115.326 325.583 108.107 330.636 103.89C336.075 99.2872 344.961 101.117 351.441 101.632C359.852 102.289 368.01 103.061 375.901 99.4873C376.376 99.181 376.913 98.9754 377.477 98.8842C378.041 98.793 378.618 98.8183 379.171 98.9584C382.767 100.559 378.591 107.021 377.774 108.965C379.371 108.907 380.918 108.411 382.232 107.536C383.228 106.949 384.55 106.006 384.714 107.864C385.338 115.012 380.003 120.73 373.212 122.631C368.486 124.061 363.404 123.446 358.544 122.631C355.2 122.045 351.901 121.087 348.543 120.687C345.764 120.344 342.97 119.701 340.251 119.1C337.769 118.557 337.011 120.859 335.064 127.149C333.34 132.581 331.483 142.016 329.179 141.858Z" fill="#263238"/>
<path d="M327.203 116.77L319.401 111.838C319.705 111.324 320.116 110.877 320.609 110.523C321.102 110.169 321.665 109.917 322.264 109.783C322.863 109.649 323.484 109.635 324.088 109.743C324.693 109.85 325.267 110.077 325.776 110.409C326.815 111.092 327.542 112.133 327.807 113.316C328.072 114.5 327.856 115.736 327.203 116.77V116.77Z" fill="#263238"/>
<path d="M351.886 169.134C351.886 169.134 341.96 165.803 337.903 163.259C335.521 161.796 333.655 159.672 332.553 157.169C332.973 159.615 333.903 161.954 335.287 164.045C338.036 168.133 351.634 172.236 351.634 172.236L351.886 169.134Z" fill="#9A4A4D"/>
<path d="M351.99 139.657C351.9 140.111 351.673 140.53 351.337 140.862C351.001 141.193 350.571 141.422 350.101 141.52C349.63 141.618 349.14 141.581 348.692 141.413C348.244 141.245 347.857 140.953 347.579 140.575C347.301 140.197 347.146 139.749 347.131 139.286C347.116 138.823 347.244 138.367 347.497 137.973C347.75 137.58 348.118 137.266 348.555 137.073C348.992 136.879 349.479 136.813 349.955 136.883C350.278 136.935 350.588 137.048 350.866 137.216C351.144 137.384 351.385 137.603 351.574 137.861C351.764 138.119 351.898 138.411 351.969 138.719C352.041 139.027 352.048 139.346 351.99 139.657V139.657Z" fill="#263238"/>
<path d="M349.137 130.837L343.892 133.581C343.523 132.89 343.447 132.089 343.68 131.345C343.912 130.601 344.436 129.973 345.14 129.593C345.841 129.248 346.657 129.186 347.406 129.419C348.156 129.652 348.778 130.162 349.137 130.837V130.837Z" fill="#263238"/>
<path d="M351.649 155.11L357.771 158.398C357.564 158.798 357.276 159.153 356.923 159.442C356.57 159.732 356.16 159.95 355.717 160.083C355.274 160.217 354.808 160.263 354.347 160.219C353.885 160.175 353.438 160.042 353.031 159.828C352.207 159.369 351.603 158.62 351.345 157.739C351.087 156.858 351.196 155.915 351.649 155.11Z" fill="#9A4A4D"/>
<path d="M374.386 134.382L369.11 131.623C369.279 131.282 369.517 130.979 369.812 130.73C370.107 130.481 370.451 130.293 370.823 130.177C371.196 130.06 371.59 130.018 371.98 130.053C372.37 130.088 372.749 130.199 373.093 130.379C373.798 130.763 374.324 131.39 374.564 132.134C374.804 132.878 374.741 133.682 374.386 134.382V134.382Z" fill="#263238"/>
<path d="M372.335 140.629C372.293 140.94 372.187 141.241 372.023 141.512C371.86 141.784 371.642 142.022 371.382 142.212C371.122 142.402 370.825 142.541 370.509 142.62C370.193 142.699 369.864 142.717 369.541 142.673C369.037 142.618 368.561 142.42 368.175 142.102C367.789 141.785 367.511 141.364 367.376 140.894C367.241 140.423 367.255 139.924 367.418 139.462C367.58 138.999 367.883 138.594 368.287 138.298C368.691 138.003 369.178 137.83 369.684 137.803C370.191 137.776 370.695 137.896 371.13 138.146C371.566 138.397 371.913 138.768 372.128 139.21C372.343 139.652 372.415 140.147 372.335 140.629V140.629Z" fill="#263238"/>
<path d="M360.283 138.17L358.871 152.266L366.851 150.879L360.283 138.17Z" fill="#9A4A4D"/>
<path d="M410.839 249.101C405.608 246.242 400.912 246.013 397.553 248.043C396.855 248.458 396.067 248.83 395.116 249.344C394.87 249.478 394.632 249.626 394.403 249.787L394.284 249.859C393.963 250.073 393.659 250.312 393.378 250.574L393.184 250.745C392.927 250.994 392.684 251.256 392.456 251.531L392.204 251.846C392.01 252.103 391.817 252.375 391.639 252.661L391.371 253.132C391.223 253.404 391.074 253.661 390.94 253.947L390.673 254.619C390.569 254.891 390.465 255.148 390.376 255.42C390.287 255.691 390.227 256.006 390.153 256.306C390.073 256.555 390.008 256.808 389.96 257.064C389.885 257.435 389.841 257.836 389.781 258.222L389.692 258.879C389.633 259.508 389.603 260.166 389.603 260.852C389.603 272.159 397.866 285.911 408.045 291.572C408.684 291.915 409.308 292.23 409.932 292.516C410.304 292.673 410.661 292.802 411.032 292.93C411.274 293.038 411.523 293.133 411.775 293.216C412.028 293.302 412.266 293.345 412.518 293.416C412.771 293.488 413.231 293.631 413.573 293.702H413.975C414.42 293.774 414.866 293.845 415.297 293.888H415.386C417.477 294.049 419.565 293.547 421.331 292.459C422.237 291.958 423.025 291.587 424.035 291.029C427.275 289.156 429.266 285.225 429.266 279.679C429.281 268.586 421.018 254.762 410.839 249.101ZM405.578 283.181C402.413 280.808 397.984 273.646 396.246 269.629C397.281 270.323 398.358 270.957 399.47 271.53C404.27 273.918 404.137 270.687 406.098 272.96C408.06 275.233 407.674 280.694 406.098 283.538C405.91 283.44 405.736 283.32 405.578 283.181V283.181ZM414.926 262.167C414.655 262.265 414.392 262.379 414.138 262.51L411.314 264.068C410.717 264.373 410.226 264.841 409.903 265.412C407.525 263.096 404.776 255.663 404.984 252.16C409.13 253.59 415.981 259.036 417.051 261.166C417.128 261.333 417.192 261.505 417.244 261.681C416.456 261.767 415.679 261.929 414.926 262.167V262.167ZM400.942 259.837C402.428 265.198 404.82 266.012 404.969 267.756C401.343 267.199 395.443 263.811 395.057 260.437C394.946 257.159 396.088 253.955 398.267 251.431C399.753 252.089 399.664 255.448 400.942 259.837V259.837ZM411.344 287.941C409.427 286.254 411.552 284.611 412.533 281.123C413.014 279.458 413.014 277.698 412.533 276.033C416.308 278.892 421.97 286.426 420.513 288.656C420.513 288.742 420.379 288.799 420.32 288.885C417.125 289.685 412.697 289.142 411.359 287.941H411.344ZM420.35 276.291C416.337 271.13 414.747 272.917 413.781 270.158C413.597 269.489 413.622 268.783 413.852 268.127C414.082 267.471 414.507 266.895 415.074 266.47C416.116 266.067 417.273 266.034 418.338 266.377C419.403 266.721 420.305 267.417 420.885 268.343C422.846 271.688 423.857 277.777 424.02 281.566C423.084 280.193 421.88 278.235 420.365 276.291H420.35Z" fill="#E0E0E0"/>
<path opacity="0.2" d="M410.839 249.101C405.608 246.242 400.912 246.013 397.553 248.043C396.855 248.458 396.067 248.83 395.116 249.344C394.87 249.478 394.632 249.626 394.403 249.787L394.284 249.859C393.963 250.073 393.659 250.312 393.378 250.574L393.184 250.745C392.927 250.994 392.684 251.256 392.456 251.531L392.204 251.846C392.01 252.103 391.817 252.375 391.639 252.661L391.371 253.132C391.223 253.404 391.074 253.661 390.94 253.947L390.673 254.619C390.569 254.891 390.465 255.148 390.376 255.42C390.287 255.691 390.227 256.006 390.153 256.306C390.073 256.555 390.008 256.808 389.96 257.064C389.885 257.435 389.841 257.836 389.781 258.222L389.692 258.879C389.633 259.508 389.603 260.166 389.603 260.852C389.603 272.159 397.866 285.911 408.045 291.572C408.684 291.915 409.308 292.23 409.932 292.516C410.304 292.673 410.661 292.802 411.032 292.93C411.274 293.038 411.523 293.133 411.775 293.216C412.028 293.302 412.266 293.345 412.518 293.416C412.771 293.488 413.231 293.631 413.573 293.702H413.975C414.42 293.774 414.866 293.845 415.297 293.888H415.386C417.477 294.049 419.565 293.547 421.331 292.459C422.237 291.958 423.025 291.587 424.035 291.029C427.275 289.156 429.266 285.225 429.266 279.679C429.281 268.586 421.018 254.762 410.839 249.101ZM405.578 283.181C402.413 280.808 397.984 273.646 396.246 269.629C397.281 270.323 398.358 270.957 399.47 271.53C404.27 273.918 404.137 270.687 406.098 272.96C408.06 275.233 407.674 280.694 406.098 283.538C405.91 283.44 405.736 283.32 405.578 283.181V283.181ZM414.926 262.167C414.655 262.265 414.392 262.379 414.138 262.51L411.314 264.068C410.717 264.373 410.226 264.841 409.903 265.412C407.525 263.096 404.776 255.663 404.984 252.16C409.13 253.59 415.981 259.036 417.051 261.166C417.128 261.333 417.192 261.505 417.244 261.681C416.456 261.767 415.679 261.929 414.926 262.167V262.167ZM400.942 259.837C402.428 265.198 404.82 266.012 404.969 267.756C401.343 267.199 395.443 263.811 395.057 260.437C394.946 257.159 396.088 253.955 398.267 251.431C399.753 252.089 399.664 255.448 400.942 259.837V259.837ZM411.344 287.941C409.427 286.254 411.552 284.611 412.533 281.123C413.014 279.458 413.014 277.698 412.533 276.033C416.308 278.892 421.97 286.426 420.513 288.656C420.513 288.742 420.379 288.799 420.32 288.885C417.125 289.685 412.697 289.142 411.359 287.941H411.344ZM420.35 276.291C416.337 271.13 414.747 272.917 413.781 270.158C413.597 269.489 413.622 268.783 413.852 268.127C414.082 267.471 414.507 266.895 415.074 266.47C416.116 266.067 417.273 266.034 418.338 266.377C419.403 266.721 420.305 267.417 420.885 268.343C422.846 271.688 423.857 277.777 424.02 281.566C423.084 280.193 421.88 278.235 420.365 276.291H420.35Z" fill="black"/>
<path d="M408 250.645C397.821 244.998 389.558 249.587 389.558 260.895C389.558 272.202 397.821 285.954 408 291.615C418.18 297.276 426.428 292.673 426.428 281.365C426.428 270.058 418.18 256.306 408 250.645ZM403.438 251.86C407.079 251.86 415.832 258.736 417.051 261.166C418.269 263.596 415.044 262.71 412.117 263.711C408.372 264.983 410.155 268.457 407.956 267.585C404.746 266.298 399.753 251.803 403.438 251.86V251.86ZM397.94 251.317C399.812 251.617 399.589 255.162 400.912 259.894C402.621 265.812 405.296 266.184 404.909 268.471C404.36 271.716 392.753 266.87 392.189 262.095C391.624 257.321 396.067 251.002 397.94 251.317V251.317ZM402.725 284.71C398.742 281.737 392.694 271.044 392.649 268.814C392.605 266.584 395.622 269.658 399.441 271.53C404.241 273.918 404.107 270.687 406.069 272.96C408.966 276.205 406.737 287.712 402.725 284.71ZM420.558 288.599C418.656 291.458 410.527 291.115 408.669 289.428C406.812 287.741 408.892 286.097 409.873 282.595C411.121 278.149 408.387 275.762 409.962 274.933C412.147 273.789 422.386 285.74 420.558 288.599ZM417.586 277.763C413.588 272.617 411.998 274.389 411.032 271.63C409.546 267.613 418.136 263.496 420.944 268.285C423.753 273.074 424.778 283.524 423.649 284.71C422.519 285.897 420.706 281.866 417.586 277.82V277.763Z" fill="#E0E0E0"/>
<path d="M408.001 277.392C411.106 279.121 413.633 277.72 413.633 274.261C413.527 272.38 412.961 270.55 411.983 268.918C411.004 267.286 409.64 265.899 408.001 264.869C404.88 263.139 402.354 264.54 402.354 268C402.46 269.882 403.027 271.714 404.008 273.346C404.99 274.978 406.357 276.364 408.001 277.392V277.392Z" fill="#455A64"/>
<path d="M396.781 256.949L374.193 301.264C373.94 301.906 373.87 302.601 373.99 303.277C374.11 303.953 374.416 304.586 374.876 305.11C376.068 306.638 377.618 307.873 379.399 308.715C381.181 309.557 383.145 309.982 385.13 309.956C385.843 309.98 386.549 309.821 387.177 309.494C387.804 309.167 388.329 308.685 388.697 308.098L411.285 263.782L396.781 256.949Z" fill="#263238"/>
<path d="M397.494 260.795C398.687 262.32 400.238 263.552 402.019 264.392C403.801 265.232 405.764 265.655 407.748 265.627C411.374 265.398 412.667 262.768 410.646 259.909C409.451 258.385 407.9 257.154 406.119 256.315C404.337 255.475 402.375 255.051 400.392 255.077C396.781 255.334 395.458 257.893 397.494 260.795Z" fill="#37474F"/>
<path d="M308.107 177.096C295.223 177.94 284.895 187.303 283.349 201.398C281.863 214.264 285.875 254.748 289.115 270.959C293.113 290.972 296.709 294.36 305.328 295.518C311.837 296.39 364.429 300.207 372.112 299.635C379.795 299.063 390.614 302.651 395.889 299.635C401.165 296.619 402.978 290.386 406.663 285.225C410.349 280.065 406.841 272.36 406.841 272.36L404.211 277.334C402.963 278.678 396.706 279.679 393.17 276.019C392.152 275.052 391.404 273.853 390.996 272.533C390.588 271.214 390.534 269.817 390.837 268.471L393.125 263.968C389.261 263.039 387.448 263.725 383.733 267.256C380.018 270.787 380.88 274.261 371.845 276.763C363.924 278.964 318.168 269.186 318.168 269.186L313.561 217.58C313.561 217.58 311.049 180.97 308.107 177.096Z" fill="#B16668"/>
<path d="M309.593 176.825C309.593 176.825 292.994 177.968 287.436 187.26C279.827 200.026 282.68 221.726 283.661 235.578C284.642 249.43 285.326 254.376 285.326 254.376C285.326 254.376 290.898 258.25 302.088 256.949C313.279 255.649 317.544 250.002 317.544 250.002L313.561 201.798C313.561 201.798 315.374 182.729 309.593 176.825Z" fill="#26A5B8"/>
<path opacity="0.5" d="M309.593 176.825C309.593 176.825 292.994 177.968 287.436 187.26C279.827 200.026 282.68 221.726 283.661 235.578C284.642 249.43 285.326 254.376 285.326 254.376C285.326 254.376 290.898 258.25 302.088 256.949C313.279 255.649 317.544 250.002 317.544 250.002L313.561 201.798C313.561 201.798 315.374 182.729 309.593 176.825Z" fill="black"/>
<path d="M611.102 441.63C610.891 441.626 610.691 441.543 610.544 441.398C610.396 441.254 610.314 441.06 610.314 440.858V100.202C608.197 107.964 604.244 115.151 598.763 121.201C593.283 127.252 586.423 132.002 578.72 135.083C551.852 146.233 533.915 137.942 528.937 135.083C529.204 140.801 528.625 160.814 509.276 177.682C490.581 194.008 466.448 192.778 460.147 192.121C462.926 197.653 471.545 219.282 449.818 241.611C431.54 260.352 409.903 259.208 409.695 259.194C409.59 259.188 409.487 259.163 409.393 259.119C409.298 259.075 409.214 259.013 409.145 258.937C409.076 258.861 409.023 258.773 408.99 258.677C408.956 258.581 408.943 258.48 408.952 258.379C408.955 258.278 408.98 258.178 409.025 258.086C409.071 257.994 409.135 257.912 409.214 257.845C409.294 257.778 409.386 257.728 409.487 257.697C409.587 257.665 409.694 257.654 409.799 257.664C410.007 257.664 430.916 258.751 448.659 240.51C472.897 215.679 458.215 191.763 458.066 191.52C457.982 191.397 457.938 191.253 457.938 191.106C457.938 190.958 457.982 190.814 458.066 190.691C458.147 190.566 458.266 190.468 458.407 190.409C458.548 190.35 458.703 190.334 458.854 190.362C459.136 190.362 487.208 194.822 508.176 176.496C530.289 157.169 527.243 133.868 527.213 133.61C527.193 133.46 527.22 133.307 527.289 133.171C527.359 133.035 527.469 132.922 527.606 132.845C527.742 132.769 527.899 132.733 528.056 132.742C528.214 132.751 528.365 132.804 528.491 132.895C528.669 133.038 547.26 146.362 578.066 133.582C586.906 130.02 594.574 124.216 600.251 116.788C605.928 109.361 609.401 100.589 610.299 91.4107C610.294 91.3095 610.312 91.2085 610.352 91.1144C610.391 91.0203 610.45 90.9352 610.526 90.8649C610.602 90.7946 610.692 90.7407 610.792 90.7066C610.891 90.6726 610.997 90.6592 611.102 90.6674C611.31 90.6674 611.511 90.7472 611.658 90.8893C611.806 91.0314 611.889 91.2241 611.889 91.425V440.858C611.889 441.06 611.807 441.254 611.659 441.398C611.512 441.543 611.312 441.626 611.102 441.63V441.63Z" fill="#455A64"/>
<path d="M401.402 257.864C401.402 257.864 433.264 195.937 498.116 148.148C562.968 100.359 614.163 87.408 614.832 89.538C615.5 91.6679 562.477 106.006 501.385 152.337C471.381 175.081 440.872 205.772 407.57 262.153C407.57 262.153 406.083 263.668 403.245 261.781C399.872 259.422 401.402 257.864 401.402 257.864Z" fill="#26A5B8"/>
<path opacity="0.2" d="M564.261 112.596C524.88 130.951 461.603 165.989 406.648 256.106C406.648 256.106 403.869 260.752 401.165 259.394C401.572 260.366 402.304 261.181 403.245 261.71C406.054 263.597 407.57 262.081 407.57 262.081C440.873 205.701 471.382 175.009 501.385 152.265C521.106 137.311 542.144 124.037 564.261 112.596V112.596Z" fill="black"/>
<path d="M298.7 314.646H235.2L240.758 358.532C241.1 361.991 243.641 365.379 248.382 368.024C258.621 373.742 275.22 373.742 285.444 368.024C290.2 365.379 292.741 361.991 293.083 358.532L298.7 314.646Z" fill="#26A5B8"/>
<path opacity="0.1" d="M298.7 314.646H235.2L240.758 358.532C241.1 361.991 243.641 365.379 248.382 368.024C258.621 373.742 275.22 373.742 285.444 368.024C290.2 365.379 292.741 361.991 293.083 358.532L298.7 314.646Z" fill="black"/>
<path d="M266.913 331.313C284.461 331.313 298.685 323.416 298.685 313.673C298.685 303.931 284.461 296.033 266.913 296.033C249.366 296.033 235.141 303.931 235.141 313.673C235.141 323.416 249.366 331.313 266.913 331.313Z" fill="#26A5B8"/>
<path d="M266.913 328.797C259.55 328.956 252.269 327.292 245.766 323.966C240.61 321.107 237.771 317.447 237.771 313.673C237.771 309.899 240.61 306.24 245.766 303.366C252.329 300.19 259.574 298.535 266.921 298.535C274.267 298.535 281.512 300.19 288.075 303.366C293.231 306.225 296.07 309.885 296.07 313.673C296.07 317.461 293.231 321.107 288.075 323.966C281.568 327.294 274.281 328.958 266.913 328.797V328.797Z" fill="#26A5B8"/>
<path opacity="0.1" d="M266.913 328.797C259.55 328.956 252.269 327.292 245.766 323.966C240.61 321.107 237.771 317.447 237.771 313.673C237.771 309.899 240.61 306.24 245.766 303.366C252.329 300.19 259.574 298.535 266.921 298.535C274.267 298.535 281.512 300.19 288.075 303.366C293.231 306.225 296.07 309.885 296.07 313.673C296.07 317.461 293.231 321.107 288.075 323.966C281.568 327.294 274.281 328.958 266.913 328.797V328.797Z" fill="black"/>
<path d="M266.913 318.29C259.55 318.132 252.268 319.796 245.766 323.122L245.068 323.551C245.305 323.68 245.513 323.837 245.766 323.966C252.329 327.142 259.574 328.797 266.92 328.797C274.267 328.797 281.512 327.142 288.074 323.966C288.327 323.837 288.535 323.68 288.773 323.551L288.074 323.122C281.567 319.794 274.281 318.13 266.913 318.29V318.29Z" fill="#F28F8F"/>
<path d="M235.691 318.462L233.803 320.549C232.171 322.359 230.975 324.495 230.301 326.802C229.627 329.109 229.492 331.532 229.905 333.895C230.318 336.258 231.27 338.505 232.691 340.473C234.113 342.441 235.97 344.083 238.128 345.28C244.755 348.959 252.506 350.308 260.054 349.095C267.601 347.883 274.475 344.184 279.5 338.632L285.994 331.485C286.262 331.185 286.643 331 287.053 330.971C287.462 330.942 287.867 331.07 288.179 331.328C288.49 331.585 288.682 331.952 288.713 332.346C288.744 332.74 288.61 333.129 288.342 333.429L281.833 340.648C276.348 346.733 268.833 350.792 260.577 352.13C252.32 353.468 243.837 352.002 236.582 347.982C234.011 346.567 231.799 344.621 230.105 342.284C228.412 339.946 227.28 337.276 226.79 334.466C226.301 331.656 226.467 328.777 227.277 326.036C228.086 323.295 229.518 320.762 231.47 318.619L235.185 314.488L235.691 318.462Z" fill="#E0E0E0"/>
</svg>
