<svg width="729" height="547" viewBox="0 0 729 547" fill="none" xmlns="http://www.w3.org/2000/svg">
<g clip-path="url(#clip0_420:4801)">
<path opacity="0.1" d="M28.8212 127.351C14.2428 152.177 24.0758 183.164 26.4656 211.755C27.9165 229.229 26.3953 246.822 21.9668 263.788C15.6808 287.874 3.63601 310.468 0.554625 335.115C-2.52676 359.762 6.99129 388.805 30.6358 397.377C36.5041 399.506 42.8517 400.225 48.5625 402.745C64.0516 409.591 70.9197 427.912 71.4469 444.631C71.9742 461.35 67.8109 477.981 68.5641 494.693C68.9887 504.1 71.2278 513.925 77.6987 520.846C83.6492 527.207 92.3045 530.253 100.638 532.965C126.987 541.543 154.5 549.129 182.123 546.48C209.746 543.83 237.746 528.891 248.359 503.621C252.201 494.474 253.625 484.45 257.487 475.331C261.349 466.211 268.662 457.455 278.605 456.024C284.411 455.189 290.246 456.955 295.847 458.694L376.141 483.684C388.466 487.525 402.298 491.276 413.871 485.587C419.821 482.657 424.334 477.57 428.675 472.579C462.981 433.383 498.725 390.873 505.004 339.476C507.216 321.367 505.593 302.943 508.051 284.869C510.51 266.794 518.035 248.069 533.654 238.312C545.699 230.781 560.606 229.652 574.794 228.132C597.76 225.667 620.871 221.491 641.701 211.652C662.531 201.814 681.067 185.759 689.935 164.74C692.557 158.523 694.317 151.643 692.838 145.077C690.195 133.363 678.411 126.188 667.366 121.114C634.333 106.052 598.507 97.9868 562.825 90.887C546.459 87.6281 529.956 84.5403 513.235 84.7252C498.78 84.8758 484.475 87.4638 470.239 89.9217C348.326 110.879 216.594 124.113 94.2355 98.5619C68.5778 93.2011 42.7969 103.546 28.8212 127.351Z" fill="#6C63FF"/>
<path opacity="0.4" d="M203.22 79.2755C203.22 79.2755 350.606 32.3565 408.529 66.8149C448.368 90.5106 538.139 83.6983 590.324 77.1257C619.19 73.4863 648.507 76.6708 675.918 86.4232C702.329 95.8303 730.096 107.189 728.931 113.001C726.733 123.997 203.22 117.397 203.22 117.397V79.2755Z" fill="#6685B4"/>
<path d="M551.519 292.509L550.972 292.557L551.143 292.133L550.458 292.413L551.143 290.613C551.143 290.613 548.917 291.51 544.795 292.975C443.582 297.692 231.795 211.83 231.795 211.83L114.566 227.926C113.884 227.29 113.24 226.616 112.635 225.907L113.155 228.022C112.973 227.821 112.799 227.623 112.635 227.427L112.82 228.166H112.635L112.922 228.563L126.337 282.965C126.337 282.965 365.397 414.664 509.27 397.925L550.225 294.433L551.519 292.509Z" fill="url(#paint0_linear_420:4801)"/>
<path d="M235.486 215.302C235.486 215.302 448.861 301.786 543.453 292.989L480.394 386.833L252.372 315.719L140.895 265.13L192.936 229.939L235.486 215.302Z" fill="#6685B4"/>
<path opacity="0.1" d="M235.486 215.302C235.486 215.302 448.861 301.786 543.453 292.989L480.394 386.833L252.372 315.719L140.895 265.13L192.936 229.939L235.486 215.302Z" fill="black"/>
<path opacity="0.1" d="M227.05 241.304L283.877 254.135L168.024 274.661L140.895 250.465L227.05 241.304Z" fill="white"/>
<path opacity="0.1" d="M252.344 293.721L319.443 269.163L366.739 284.923L283.877 315.719L252.344 293.721Z" fill="white"/>
<path opacity="0.1" d="M344.738 321.579L418.431 301.423L484.058 319.382L414.398 342.845L344.738 321.579Z" fill="white"/>
<path d="M120.729 231.042L235.486 215.281V243.139L139.429 257.065L120.729 231.042Z" fill="#6685B4"/>
<path opacity="0.1" d="M121.461 234.507L235.486 217.281V245.139L139.429 259.065L121.461 234.507Z" fill="white"/>
<path d="M19.1731 139.394C19.1795 128.174 22.967 117.282 29.9242 108.478C36.8814 99.673 46.6026 93.469 57.5192 90.8665C105.267 79.4123 185.342 65.5345 224.509 88.8126C282.439 123.271 445.951 93.208 445.951 93.208C445.951 93.208 547.137 124.017 544.939 134.972C542.741 145.926 19.1936 139.367 19.1936 139.367L19.1731 139.394Z" fill="#6685B4"/>
<path d="M423.676 100.349C424.936 99.1781 426.121 97.7951 426.484 96.1109C426.846 94.4267 426.128 92.4069 424.518 91.7908C422.717 91.1061 420.786 92.3522 419.328 93.6119C417.869 94.8717 416.192 96.3163 414.281 96.0493C415.265 95.1572 416.001 94.0255 416.418 92.7644C416.834 91.5034 416.917 90.1561 416.657 88.8536C416.566 88.3143 416.329 87.8101 415.973 87.3953C414.973 86.3273 413.158 86.786 411.96 87.6281C408.146 90.3119 407.085 95.4879 407.064 100.15C406.681 98.4661 407.002 96.7271 406.996 94.9949C406.989 93.2628 406.516 91.3594 405.058 90.4352C404.151 89.9511 403.133 89.7149 402.106 89.7505C400.394 89.6889 398.484 89.86 397.313 91.1198C395.861 92.674 396.238 95.2893 397.498 97.0078C398.758 98.7263 400.689 99.7943 402.462 100.979C403.884 101.825 405.096 102.981 406.009 104.361C406.116 104.553 406.203 104.755 406.27 104.963H417.013C419.433 103.734 421.675 102.182 423.676 100.349Z" fill="#6C63FF"/>
<path d="M187.574 76.886C188.834 75.7153 190.019 74.3323 190.381 72.648C190.744 70.9638 190.025 68.9441 188.416 68.3279C186.615 67.6433 184.684 68.8893 183.226 70.1491C181.767 71.4088 180.09 72.8534 178.179 72.5864C179.168 71.6917 179.906 70.5554 180.323 69.2891C180.739 68.0228 180.819 66.67 180.555 65.3634C180.464 64.824 180.227 64.3198 179.871 63.9051C178.871 62.837 177.056 63.2957 175.858 64.1379C172.044 66.8217 170.982 71.9976 170.962 76.6601C170.578 74.9758 170.9 73.2368 170.893 71.5047C170.887 69.7725 170.414 67.8692 168.956 66.9449C168.049 66.4608 167.031 66.2246 166.004 66.2603C164.292 66.1986 162.382 66.3698 161.211 67.6296C159.759 69.1837 160.136 71.7991 161.396 73.5175C162.656 75.236 164.587 76.3041 166.36 77.4885C167.782 78.3349 168.994 79.491 169.907 80.8707C170.014 81.0625 170.101 81.2643 170.168 81.4732H180.911C183.33 80.2525 185.571 78.7093 187.574 76.886Z" fill="#6685B4"/>
<path d="M538.064 127.475C539.324 126.304 540.508 124.921 540.871 123.237C541.234 121.552 540.515 119.533 538.906 118.916C537.105 118.232 535.174 119.478 533.716 120.738C532.257 121.997 530.579 123.442 528.669 123.175C529.653 122.283 530.389 121.151 530.805 119.89C531.222 118.629 531.304 117.282 531.045 115.979C530.954 115.44 530.717 114.936 530.36 114.521C529.361 113.453 527.546 113.912 526.348 114.754C522.534 117.438 521.472 122.614 521.452 127.276C521.068 125.592 521.39 123.853 521.383 122.121C521.376 120.388 520.904 118.485 519.445 117.561C518.539 117.077 517.521 116.841 516.494 116.876C514.782 116.815 512.872 116.986 511.701 118.246C510.249 119.8 510.626 122.415 511.886 124.134C513.146 125.852 515.077 126.92 516.85 128.104C518.272 128.951 519.484 130.107 520.397 131.487C520.503 131.678 520.591 131.88 520.657 132.089H531.401C533.821 130.86 536.062 129.308 538.064 127.475Z" fill="#6685B4"/>
<path d="M403.312 347.439C396.464 340.681 391.048 332.657 388.186 323.51C385.988 316.465 384.022 309.584 384.022 307.359C384.022 303.464 378.606 288.805 371.916 281.74C371.683 281.493 371.443 281.254 371.231 281.055C370.067 276.454 367.746 264.849 371.772 257.647C372.757 255.888 373.579 254.043 374.23 252.135C376.644 244.749 380.354 237.852 385.186 231.767C386.155 230.597 387.013 229.339 387.747 228.008C389.425 228.296 390.411 227.83 390.206 226.18C390.206 226.119 390.206 226.057 390.206 225.996C390.979 225.818 391.383 225.256 391.246 224.154C390.226 216.034 394.314 190.654 394.314 190.654C398.196 179.204 399.909 167.13 399.368 155.052C398.347 135.766 377.894 131.706 377.894 131.706L376.202 133.383C374.833 132.541 373.299 131.596 371.745 130.597C372.055 130.462 372.336 130.268 372.571 130.025C372.806 129.781 372.991 129.494 373.114 129.179C374.888 125.503 374.977 120.464 375.23 116.479C375.379 115.193 375.319 113.892 375.052 112.625C374.725 111.542 374.195 110.532 373.491 109.646C371.909 107.564 369.889 105.855 367.573 104.639C365.257 103.424 362.703 102.733 360.09 102.615C358.392 102.547 356.666 102.725 355.003 102.725C351.88 102.725 348.758 102.122 345.649 102.382C342.54 102.643 339.253 104.012 337.877 106.798C337.014 108.544 337.007 110.646 335.987 112.276C334.809 114.186 332.515 115.158 331.194 116.972C330.472 117.968 330.081 119.166 330.078 120.395C330.059 120.795 330.141 121.193 330.317 121.552C330.631 121.986 331.018 122.362 331.461 122.662C332.216 123.348 332.715 124.272 332.874 125.28C333.034 126.289 332.844 127.321 332.337 128.207C333.393 128.404 334.367 128.907 335.139 129.654C335.91 130.4 336.446 131.356 336.679 132.404C336.701 132.756 336.83 133.093 337.048 133.37C337.244 133.53 337.482 133.629 337.733 133.657C339.726 133.999 341.739 133.061 343.245 131.713C343.369 131.939 343.485 132.158 343.622 132.397C345.418 135.344 348.215 137.547 351.501 138.603C354.788 139.659 358.344 139.497 361.521 138.148C361.804 138.504 362.083 138.872 362.357 139.251C363.493 140.823 364.427 142.532 365.137 144.338L363.562 145.899C362.178 148.069 360.932 150.323 359.83 152.649C357.278 157.519 355.407 162.716 354.27 168.095C350.558 171.765 344.82 178.365 344.136 184.472C344.136 184.472 317.547 197.672 310.391 190.565C303.235 183.458 294.032 195.638 296.073 197.672C298.113 199.705 304.256 203.765 311.411 199.726H340.054C344.411 199.145 348.605 197.684 352.38 195.433C351.873 196.802 351.243 198.219 350.545 199.664C349.47 201.718 348.313 203.772 347.231 205.614C346.635 206.1 346.046 206.572 345.457 207.024C341.794 208.537 337.185 210.447 332.399 212.501C329.759 213.063 327.256 214.138 325.031 215.664C313.979 220.457 303.975 225.126 304.269 226.098C303.53 226.584 303.146 226.947 303.249 227.139C303.352 227.331 303.441 227.563 303.585 227.919C302.797 230.816 302.646 236.738 304.269 248.459C308.378 277.899 299.154 282.972 299.154 282.972C299.154 282.972 291.999 292.105 283.816 291.092C275.633 290.079 282.795 298.199 289.979 297.185C294.806 296.501 305.228 295.816 311.487 295.439C312.052 295.405 312.603 295.246 313.099 294.974C313.596 294.701 314.026 294.323 314.359 293.865C314.692 293.407 314.92 292.881 315.026 292.324C315.132 291.768 315.113 291.195 314.972 290.647C313.788 286.159 313.634 281.462 314.52 276.906C316.061 269.265 319.916 254.723 321.292 246.693V246.604C323.346 244.55 327.174 241.722 331.892 242.393C334.35 242.742 338.74 240.449 343.451 237.299C340.986 251.328 339.103 266.397 341.095 271.833C345.204 282.999 349.278 288.073 349.278 288.073C349.278 288.073 351.243 288.162 354.003 288.127L355.324 290.181L373.813 318.553C373.813 318.553 390.171 341.9 374.833 344.946C374.833 344.946 362.562 347.993 367.677 352.053C367.677 352.053 403.469 353.066 404.49 349.999C404.736 349.212 404.216 348.329 403.312 347.439Z" fill="url(#paint1_linear_420:4801)"/>
<path d="M380.866 137.799C380.866 137.799 366.951 165.623 365.959 151.711C365.67 147.574 364.231 143.599 361.802 140.237C359.26 136.706 355.916 133.829 352.044 131.843C352.044 131.843 359.994 116.938 359.001 120.889C358.495 122.942 364.212 127.29 369.958 131.076C375.401 134.712 380.866 137.799 380.866 137.799Z" fill="#FFB9B9"/>
<path d="M315.273 274.934C314.411 279.395 314.561 283.992 315.712 288.388C315.856 288.924 315.879 289.485 315.78 290.032C315.68 290.578 315.461 291.096 315.137 291.547C314.814 291.998 314.394 292.372 313.908 292.641C313.423 292.911 312.883 293.069 312.329 293.105C306.241 293.468 296.114 294.139 291.423 294.81C284.466 295.802 277.509 287.854 285.459 288.846C293.409 289.839 300.366 280.898 300.366 280.898C300.366 280.898 309.309 275.927 305.338 247.11C303.756 235.642 303.906 229.836 304.653 227.009C304.798 226.291 305.115 225.619 305.577 225.051C305.785 224.812 306.063 224.644 306.372 224.571C306.721 224.537 307.073 224.581 307.404 224.7C307.734 224.818 308.034 225.008 308.282 225.256C308.282 225.256 321.203 237.183 322.196 240.161C322.443 240.894 322.265 242.797 321.82 245.371C320.519 253.224 316.773 267.451 315.273 274.934Z" fill="#FFB9B9"/>
<path opacity="0.05" d="M315.273 274.934C314.411 279.395 314.561 283.992 315.712 288.388C315.856 288.924 315.879 289.485 315.78 290.032C315.68 290.578 315.461 291.096 315.137 291.547C314.814 291.998 314.394 292.372 313.908 292.641C313.423 292.911 312.883 293.069 312.329 293.105C306.241 293.468 296.114 294.139 291.423 294.81C284.466 295.802 277.509 287.854 285.459 288.846C293.409 289.839 300.366 280.898 300.366 280.898C300.366 280.898 309.309 275.927 305.338 247.11C303.756 235.642 303.906 229.836 304.653 227.009C304.798 226.291 305.115 225.619 305.577 225.051C305.785 224.812 306.063 224.644 306.372 224.571C306.721 224.537 307.073 224.581 307.404 224.7C307.734 224.818 308.034 225.008 308.282 225.256C308.282 225.256 321.203 237.183 322.196 240.161C322.443 240.894 322.265 242.797 321.82 245.371C320.519 253.224 316.773 267.451 315.273 274.934Z" fill="black"/>
<path d="M402.736 346.487C401.743 349.465 366.958 348.472 366.958 348.472C361.987 344.495 373.915 341.516 373.915 341.516C388.822 338.538 372.922 315.678 372.922 315.678L354.913 287.874L351.031 281.863C351.031 281.863 356.002 274.907 364.945 275.9C366.999 276.126 369.101 277.536 371.067 279.638C377.565 286.553 382.837 300.903 382.837 304.717C382.837 306.894 384.748 313.617 386.884 320.525C389.664 329.48 394.958 337.326 401.586 343.947C402.483 344.871 402.983 345.741 402.736 346.487Z" fill="#FFB9B9"/>
<path opacity="0.1" d="M321.854 245.364C320.889 246.18 320.017 247.098 319.252 248.103C311.925 247.185 306.289 231.089 304.673 227.009C304.536 226.66 304.427 226.4 304.345 226.242C304.262 226.085 304.694 225.619 305.598 225.051L306.392 224.571C306.741 224.537 307.094 224.581 307.424 224.7C307.754 224.818 308.054 225.008 308.302 225.256C308.302 225.256 321.224 237.183 322.217 240.161C322.477 240.894 322.299 242.79 321.854 245.364Z" fill="black"/>
<path d="M353.037 203.389C353.037 203.389 304.338 223.243 305.331 225.249C306.324 227.256 312.288 246.118 320.238 247.11C320.238 247.11 325.209 240.154 332.166 241.147C339.123 242.14 361.98 221.292 361.98 221.292L377.88 209.366L353.037 203.389Z" fill="#4C4C78"/>
<path opacity="0.05" d="M353.037 203.389C353.037 203.389 304.338 223.243 305.331 225.249C306.324 227.256 312.288 246.118 320.238 247.11C320.238 247.11 325.209 240.154 332.166 241.147C339.123 242.14 361.98 221.292 361.98 221.292L377.88 209.366L353.037 203.389Z" fill="black"/>
<path opacity="0.1" d="M371.923 282.883C371.923 287.025 361.378 287.813 354.934 287.902L351.052 281.89C351.052 281.89 356.023 274.934 364.966 275.927C367.02 276.153 369.122 277.563 371.087 279.665C371.539 281.644 371.923 282.883 371.923 282.883Z" fill="black"/>
<path d="M349.066 208.359C349.066 208.359 337.137 259.023 341.116 269.978C345.094 280.932 349.066 285.875 349.066 285.875C349.066 285.875 370.93 286.868 370.93 280.905C370.93 280.905 365.959 265.007 370.93 256.059C371.887 254.336 372.687 252.53 373.32 250.664C375.653 243.44 379.248 236.688 383.94 230.72C386.357 227.735 388.206 224.359 387.823 221.278C386.83 213.323 349.066 208.359 349.066 208.359Z" fill="#4C4C78"/>
<path d="M357.016 165.623C357.016 165.623 345.087 175.592 344.094 184.492C344.094 184.492 318.252 197.412 311.295 190.456C304.338 183.499 295.395 195.447 297.394 197.425C299.394 199.404 305.344 203.389 312.301 199.411H340.123C340.123 199.411 359.008 197.425 359.981 182.52C360.953 167.616 357.016 165.623 357.016 165.623Z" fill="#FFB9B9"/>
<path opacity="0.05" d="M357.016 165.623C357.016 165.623 345.087 175.592 344.094 184.492C344.094 184.492 318.252 197.412 311.295 190.456C304.338 183.499 295.395 195.447 297.394 197.425C299.394 199.404 305.344 203.389 312.301 199.411H340.123C340.123 199.411 359.008 197.425 359.981 182.52C360.953 167.616 357.016 165.623 357.016 165.623Z" fill="black"/>
<path opacity="0.1" d="M367.451 130.35C367.273 130.994 367.718 129.755 367.451 130.35C366 133.637 365.137 138.867 361.809 140.237C359.267 136.706 355.923 133.829 352.051 131.843C352.051 131.843 360.001 116.938 359.008 120.889C358.495 122.936 361.761 126.564 367.451 130.35Z" fill="black"/>
<path d="M369.437 126.373C369.437 129.124 368.621 131.814 367.092 134.102C365.563 136.39 363.39 138.173 360.848 139.226C358.305 140.279 355.508 140.554 352.809 140.017C350.109 139.48 347.63 138.156 345.684 136.21C343.738 134.264 342.413 131.785 341.876 129.087C341.339 126.388 341.615 123.591 342.668 121.049C343.721 118.507 345.505 116.334 347.793 114.805C350.081 113.276 352.771 112.46 355.523 112.46C357.354 112.449 359.168 112.8 360.862 113.495C362.555 114.19 364.094 115.215 365.388 116.509C366.683 117.803 367.707 119.341 368.402 121.035C369.097 122.728 369.449 124.542 369.437 126.373Z" fill="#FFB9B9"/>
<path opacity="0.1" d="M361.987 148.733L375.901 134.821C375.901 134.821 395.759 138.799 396.772 157.675C397.272 169.475 395.587 181.266 391.801 192.455C391.801 192.455 387.823 217.301 388.823 225.249C389.822 233.198 362.98 213.323 362.98 213.323C362.98 213.323 341.116 217.301 342.109 214.316C343.102 211.33 355.03 194.461 353.065 188.477C352.209 185.91 352.455 180.22 353.017 174.565C353.948 165.367 357.028 156.516 362.008 148.726L361.987 148.733Z" fill="black"/>
<path d="M392.794 190.469C392.794 190.469 388.822 215.301 389.836 223.264C390.849 231.226 363.993 211.337 363.993 211.337C363.993 211.337 360.569 211.96 356.461 212.529C350.25 213.391 342.519 214.131 343.115 212.33C343.273 211.908 343.463 211.498 343.684 211.105C346.279 206.202 355.852 191.873 354.051 186.457C353.195 183.897 353.441 178.2 354.003 172.545C354.939 163.347 358.021 154.497 363 146.706L376.915 132.794C376.915 132.794 396.772 136.772 397.786 155.648C398.284 167.464 396.591 179.269 392.794 190.469Z" fill="#CBCDDA"/>
<path opacity="0.1" d="M369.437 126.372C369.441 128.298 369.042 130.203 368.266 131.966C367.081 130.992 366.057 129.836 365.233 128.543C364.045 126.707 362.751 124.942 361.357 123.257C361.057 122.83 360.638 122.502 360.152 122.312C359.234 122.052 358.303 122.888 358.043 123.812C357.883 124.757 357.883 125.722 358.043 126.667C358.121 127.142 358.094 127.627 357.965 128.091C357.836 128.554 357.608 128.984 357.296 129.351C356.112 130.453 354.194 129.686 352.845 128.782C351.496 127.879 349.805 126.872 348.374 127.632C347.842 127.968 347.392 128.419 347.059 128.954C346.033 130.573 344.872 132.103 343.588 133.527C342.483 131.689 341.819 129.62 341.647 127.482C341.474 125.345 341.799 123.197 342.594 121.205C343.389 119.214 344.634 117.433 346.232 116.002C347.829 114.571 349.736 113.529 351.803 112.957C353.87 112.385 356.041 112.298 358.147 112.703C360.253 113.109 362.237 113.996 363.944 115.295C365.65 116.593 367.033 118.269 367.985 120.191C368.937 122.112 369.431 124.228 369.43 126.372H369.437Z" fill="black"/>
<path d="M374.299 117.931C374.444 116.672 374.387 115.398 374.128 114.158C373.81 113.102 373.297 112.115 372.614 111.249C371.086 109.215 369.127 107.543 366.878 106.352C364.629 105.162 362.146 104.482 359.604 104.361C357.954 104.299 356.31 104.471 354.66 104.471C351.627 104.471 348.593 103.882 345.567 104.135C342.54 104.388 339.349 105.73 338.034 108.455C337.199 110.167 337.192 112.221 336.199 113.843C335.056 115.712 332.823 116.664 331.543 118.444C330.842 119.42 330.464 120.591 330.461 121.792C330.443 122.182 330.523 122.571 330.694 122.922C330.998 123.344 331.373 123.71 331.803 124.004C332.538 124.679 333.023 125.584 333.177 126.57C333.331 127.556 333.146 128.565 332.652 129.433C333.682 129.626 334.632 130.118 335.382 130.849C336.133 131.58 336.65 132.517 336.87 133.541C336.891 133.884 337.015 134.214 337.226 134.486C337.422 134.645 337.66 134.743 337.911 134.766C339.904 135.115 341.931 134.13 343.389 132.747C344.848 131.364 345.916 129.597 347.087 127.954C347.415 127.418 347.862 126.966 348.395 126.633C349.826 125.873 351.51 126.893 352.859 127.79C354.208 128.687 356.132 129.453 357.317 128.344C357.629 127.979 357.857 127.551 357.986 127.088C358.115 126.626 358.142 126.141 358.063 125.667C357.902 124.722 357.902 123.757 358.063 122.812C358.323 121.888 359.248 121.053 360.172 121.313C360.656 121.504 361.071 121.835 361.364 122.265C362.761 123.948 364.058 125.713 365.246 127.55C366.534 129.542 370.382 134.26 372.258 130.35C373.97 126.763 374.086 121.826 374.299 117.931Z" fill="#B96B6B"/>
<path opacity="0.1" d="M353.544 185.998C353.544 185.998 368.451 185.006 372.429 187.984C376.408 190.962 392.287 189.969 392.287 189.969" fill="black"/>
<path opacity="0.05" d="M386.83 180.535C386.83 180.535 381.858 190.469 381.858 193.454C381.858 196.439 377.88 200.41 377.88 200.41C377.88 200.41 366.65 206.572 356.44 212.535C350.23 213.398 342.499 214.138 343.095 212.337C343.253 211.915 343.443 211.505 343.663 211.111C354.256 204.662 368.937 186.464 368.937 186.464C368.937 177.523 373.909 161.618 373.909 161.618C373.909 161.618 385.837 155.655 389.808 161.618C393.78 167.581 386.83 180.535 386.83 180.535Z" fill="black"/>
<path opacity="0.1" d="M120.729 228.837L133.924 282.356C133.924 282.356 364.171 409.194 502.758 393.064L543.09 291.154C543.09 291.154 443.691 331.329 338.212 312.857C334.17 312.141 330.173 311.187 326.243 310.002C294.724 300.568 141.757 253.806 120.729 228.837Z" fill="black"/>
<path d="M120.729 230.302L133.924 283.821C133.924 283.821 364.165 410.652 502.751 394.529L543.083 292.619C543.083 292.619 443.685 332.794 338.206 314.322C334.163 313.606 330.167 312.653 326.236 311.467C294.724 302.033 141.757 255.271 120.729 230.302Z" fill="#6685B4"/>
<path d="M200.493 102.26L197.184 106.187L343.092 229.122L346.402 225.196L200.493 102.26Z" fill="#535461"/>
<path d="M371.923 159.667C371.923 159.667 366.951 175.592 366.951 184.492C366.951 184.492 346.08 210.331 336.138 211.324C326.195 212.317 320.238 218.28 324.209 220.265C328.181 222.251 333.152 225.236 339.116 220.265C345.08 215.295 375.887 198.404 375.887 198.404C375.887 198.404 379.866 194.427 379.866 191.448C379.866 188.47 384.837 178.529 384.837 178.529C384.837 178.529 391.794 165.61 387.816 159.647C383.837 153.683 371.923 159.667 371.923 159.667Z" fill="#FFB9B9"/>
<path opacity="0.1" d="M383.851 143.763C383.851 143.763 365.958 141.777 368.944 167.609C368.944 167.609 380.872 160.653 390.808 167.609C390.808 167.616 394.78 148.733 383.851 143.763Z" fill="black"/>
<path d="M383.851 141.777C383.851 141.777 365.958 139.791 368.944 165.623C368.944 165.623 380.872 158.667 390.808 165.623C390.808 165.623 394.78 146.747 383.851 141.777Z" fill="#CBCDDA"/>
<path d="M203.221 108.763L197.352 403.326" stroke="#535461" stroke-width="2" stroke-miterlimit="10"/>
<path opacity="0.15" d="M182.692 382.061C182.692 382.061 160.697 395.254 174.625 424.585" stroke="#6C63FF" stroke-miterlimit="10"/>
<path opacity="0.15" d="M192.956 387.196C192.956 387.196 170.962 400.389 184.89 429.72" stroke="#6C63FF" stroke-miterlimit="10"/>
<path opacity="0.15" d="M204.686 382.061C204.686 382.061 226.68 395.254 212.752 424.585" stroke="#6C63FF" stroke-miterlimit="10"/>
<path opacity="0.15" d="M196.62 389.394C196.62 389.394 218.614 402.587 204.686 431.917" stroke="#6C63FF" stroke-miterlimit="10"/>
<path opacity="0.1" d="M108.793 40.0314H103.747C104.684 40.0314 105.582 39.6592 106.245 38.9967C106.908 38.3341 107.28 37.4356 107.28 36.4986C107.28 35.5617 106.908 34.6631 106.245 34.0006C105.582 33.338 104.684 32.9658 103.747 32.9658H62.8807C62.4167 32.9658 61.9573 33.0572 61.5286 33.2347C61.0999 33.4123 60.7104 33.6725 60.3823 34.0006C60.0542 34.3286 59.7939 34.7181 59.6164 35.1467C59.4388 35.5753 59.3474 36.0347 59.3474 36.4986C59.3474 36.9625 59.4388 37.4219 59.6164 37.8505C59.7939 38.2792 60.0542 38.6686 60.3823 38.9967C60.7104 39.3247 61.0999 39.5849 61.5286 39.7625C61.9573 39.94 62.4167 40.0314 62.8807 40.0314H67.9273C66.9902 40.0314 66.0915 40.4036 65.4289 41.0661C64.7663 41.7287 64.394 42.6272 64.394 43.5642C64.394 44.5011 64.7663 45.3997 65.4289 46.0622C66.0915 46.7248 66.9902 47.097 67.9273 47.097H60.8607C59.9236 47.097 59.0249 47.4692 58.3623 48.1317C57.6996 48.7942 57.3274 49.6928 57.3274 50.6298C57.3274 51.5667 57.6996 52.4653 58.3623 53.1278C59.0249 53.7903 59.9236 54.1625 60.8607 54.1625H101.727C102.664 54.1625 103.562 53.7903 104.225 53.1278C104.888 52.4653 105.26 51.5667 105.26 50.6298C105.26 49.6928 104.888 48.7942 104.225 48.1317C103.562 47.4692 102.664 47.097 101.727 47.097H108.793C109.73 47.097 110.629 46.7248 111.292 46.0622C111.954 45.3997 112.327 44.5011 112.327 43.5642C112.327 42.6272 111.954 41.7287 111.292 41.0661C110.629 40.4036 109.73 40.0314 108.793 40.0314Z" fill="#6C63FF"/>
<path opacity="0.1" d="M388.158 7.05874H383.112C384.049 7.05874 384.947 6.68653 385.61 6.02401C386.273 5.36148 386.645 4.4629 386.645 3.52595C386.645 2.589 386.273 1.69042 385.61 1.02789C384.947 0.365368 384.049 -0.00683594 383.112 -0.00683594H342.246C341.309 -0.00683594 340.41 0.365368 339.747 1.02789C339.085 1.69042 338.712 2.589 338.712 3.52595C338.712 4.4629 339.085 5.36148 339.747 6.02401C340.41 6.68653 341.309 7.05874 342.246 7.05874H347.292C346.828 7.05874 346.369 7.15011 345.94 7.32765C345.511 7.50519 345.122 7.76542 344.794 8.09347C344.466 8.42152 344.206 8.81097 344.028 9.23958C343.85 9.6682 343.759 10.1276 343.759 10.5915C343.759 11.0555 343.85 11.5148 344.028 11.9435C344.206 12.3721 344.466 12.7615 344.794 13.0896C345.122 13.4176 345.511 13.6779 345.94 13.8554C346.369 14.0329 346.828 14.1243 347.292 14.1243H340.233C339.769 14.1243 339.309 14.2157 338.88 14.3932C338.452 14.5708 338.062 14.831 337.734 15.159C337.406 15.4871 337.146 15.8765 336.968 16.3052C336.791 16.7338 336.699 17.1932 336.699 17.6571C336.699 18.121 336.791 18.5804 336.968 19.009C337.146 19.4377 337.406 19.8271 337.734 20.1552C338.062 20.4832 338.452 20.7434 338.88 20.921C339.309 21.0985 339.769 21.1899 340.233 21.1899H381.098C382.036 21.1899 382.934 20.8177 383.597 20.1552C384.26 19.4926 384.632 18.594 384.632 17.6571C384.632 16.7201 384.26 15.8216 383.597 15.159C382.934 14.4965 382.036 14.1243 381.098 14.1243H388.165C389.102 14.1243 390.001 13.7521 390.664 13.0896C391.326 12.4271 391.698 11.5285 391.698 10.5915C391.698 9.65457 391.326 8.75599 390.664 8.09347C390.001 7.43094 389.102 7.05874 388.165 7.05874H388.158Z" fill="#6C63FF"/>
<path opacity="0.1" d="M534.811 61.3102H529.765C530.229 61.3102 530.688 61.2188 531.117 61.0413C531.546 60.8638 531.935 60.6035 532.263 60.2755C532.591 59.9474 532.851 59.558 533.029 59.1294C533.207 58.7007 533.298 58.2414 533.298 57.7774C533.298 57.3135 533.207 56.8541 533.029 56.4255C532.851 55.9969 532.591 55.6074 532.263 55.2794C531.935 54.9513 531.546 54.6911 531.117 54.5136C530.688 54.336 530.229 54.2446 529.765 54.2446H488.899C488.435 54.2446 487.975 54.336 487.547 54.5136C487.118 54.6911 486.728 54.9513 486.4 55.2794C486.072 55.6074 485.812 55.9969 485.634 56.4255C485.457 56.8541 485.365 57.3135 485.365 57.7774C485.365 58.2414 485.457 58.7007 485.634 59.1294C485.812 59.558 486.072 59.9474 486.4 60.2755C486.728 60.6035 487.118 60.8638 487.547 61.0413C487.975 61.2188 488.435 61.3102 488.899 61.3102H493.918C492.981 61.3102 492.082 61.6824 491.42 62.3449C490.757 63.0075 490.385 63.906 490.385 64.843C490.385 65.78 490.757 66.6785 491.42 67.3411C492.082 68.0036 492.981 68.3758 493.918 68.3758H486.879C485.942 68.3758 485.043 68.748 484.38 69.4105C483.718 70.073 483.345 70.9716 483.345 71.9086C483.345 72.8455 483.718 73.7441 484.38 74.4066C485.043 75.0691 485.942 75.4414 486.879 75.4414H527.745C528.682 75.4414 529.58 75.0691 530.243 74.4066C530.906 73.7441 531.278 72.8455 531.278 71.9086C531.278 70.9716 530.906 70.073 530.243 69.4105C529.58 68.748 528.682 68.3758 527.745 68.3758H534.811C535.748 68.3758 536.647 68.0036 537.31 67.3411C537.972 66.6785 538.345 65.78 538.345 64.843C538.345 63.906 537.972 63.0075 537.31 62.3449C536.647 61.6824 535.748 61.3102 534.811 61.3102Z" fill="#6C63FF"/>
</g>
<defs>
<linearGradient id="paint0_linear_420:4801" x1="332.091" y1="399.39" x2="332.091" y2="211.83" gradientUnits="userSpaceOnUse">
<stop stop-color="#808080" stop-opacity="0.25"/>
<stop offset="0.54" stop-color="#808080" stop-opacity="0.12"/>
<stop offset="1" stop-color="#808080" stop-opacity="0.1"/>
</linearGradient>
<linearGradient id="paint1_linear_420:4801" x1="70885" y1="141269" x2="70885" y2="50081.6" gradientUnits="userSpaceOnUse">
<stop stop-color="#808080" stop-opacity="0.25"/>
<stop offset="0.54" stop-color="#808080" stop-opacity="0.12"/>
<stop offset="1" stop-color="#808080" stop-opacity="0.1"/>
</linearGradient>
<clipPath id="clip0_420:4801">
<rect width="729" height="547" fill="white"/>
</clipPath>
</defs>
</svg>
