<svg width="1900" height="844" viewBox="0 0 1900 844" fill="none" xmlns="http://www.w3.org/2000/svg">
<rect width="1900" height="843.242" fill="#09D9F8" fill-opacity="0.34"/>
<path d="M327.589 499.21C295.972 491.469 267.295 477.964 237.541 467.503C233.942 466.237 230.34 464.96 226.68 463.894C199.242 455.899 205.989 454.215 190.287 476.049C180.96 489.019 166.843 499.416 152.494 502.184C158.325 491.742 163.162 481.974 169.024 472.866C176.281 461.592 176.818 450.357 171.743 438.235C164.298 420.448 157.178 402.526 149.817 384.408C154.596 382.978 155.409 386.327 156.885 388.232C169.845 404.964 182.946 421.597 195.471 438.651C199.941 444.738 205.044 446.724 212.288 446.269C233.587 444.932 253.943 439.434 274.174 433.182C310.762 421.875 347.988 413.784 386.457 414C420.839 414.194 455.091 416.309 487.512 429.669C499.818 434.74 511.144 441.273 520.511 450.946C525.791 456.398 526.153 460.751 520.314 466.679C496.026 491.338 465.83 502.876 432.433 507.789C397.122 512.983 362.638 507.864 327.589 499.21Z" fill="#26A5B8"/>
<path d="M1128.86 736.067C1080.88 745.718 1034.16 741.441 987.551 732.281C970.822 728.994 953.862 728.44 936.822 728.34C928.337 728.29 923.159 731.358 919.557 738.734C912.803 752.567 904.353 765.231 892.358 775.179C889.238 777.767 886.589 781.197 881.272 781.889C881.72 773.735 886.059 767.251 889.891 761.377C902.414 742.181 900.142 724.6 887.38 706.64C882.525 699.806 877.358 692.744 875.003 684.398C878.552 682.144 879.953 684.995 881.623 686.323C889.502 692.588 898.152 698.199 904.851 705.567C917.822 719.834 931.051 719.874 947.047 710.865C971.521 697.082 996.411 683.969 1021.61 671.554C1060.82 652.233 1102.35 642.25 1146.29 644.111C1167.03 644.989 1187.41 648.807 1204.2 661.68C1226.36 678.675 1223.7 682.101 1206.39 698.272C1184.8 718.442 1158.31 729.517 1128.86 736.067Z" fill="#26A5B8"/>
<path d="M568.687 264.538C571.473 257.754 573.424 251.345 576.611 245.626C589.02 223.357 587.728 201.584 576.378 179.263C570.96 168.607 567.482 156.965 563.072 145.632C567.977 143.902 568.578 147.555 570.098 149.41C580.652 162.294 591.574 174.92 601.384 188.354C607.643 196.925 613.859 196.823 622.787 193.185C647.964 182.927 670.501 167.664 695.017 156.175C747.521 131.571 801.774 125.227 858.113 139.805C868.973 142.615 878.781 147.935 887.323 155.286C896.52 163.201 896.734 165.987 888.239 174.556C863.435 199.577 832.83 213.484 798.709 220.118C757.892 228.055 717.207 225.604 676.835 216.892C659.181 213.082 641.439 210.267 623.519 208.173C615.356 207.219 610.409 209.888 607.032 217.295C599.391 234.053 591.408 250.676 577.662 263.574C574.968 266.102 573.238 269.886 569.135 270.642C566.231 269.054 568.017 267.064 568.687 264.538Z" fill="#26A5B8"/>
<path d="M302.973 678.736C263.905 682.984 227.681 673.997 191.752 662.881C156.783 652.062 124.902 634.063 91.4012 619.833C70.9806 611.16 72.4788 610.746 59.4317 626.802C51.1171 637.033 40.0622 643.094 25.8587 646.942C28.8989 636.224 35.1112 628.799 40.3666 621.141C46.7757 611.803 47.2863 602.698 43.1593 592.646C36.3581 576.079 29.7105 559.449 22.745 542.22C27.2835 541.598 28.3 544.447 29.7605 546.439C40.8393 561.549 52.3573 576.37 62.7329 591.95C68.6684 600.863 76.4588 603.902 86.325 604.321C104.399 605.09 122.289 603.339 140.236 601.383C207.794 594.018 273.875 599.746 337.365 625.524C350.813 630.984 363.313 638.304 372.334 651.677C351.826 668.793 328.849 676.17 302.973 678.736Z" fill="#26A5B8"/>
<path d="M1739.94 328.651C1710.02 318.368 1682.63 303.567 1652.31 296.692C1632.93 292.297 1632.86 292.063 1622.99 309.311C1616.32 320.968 1607.21 330.006 1594.37 338.294C1595.7 326.945 1600.54 318.888 1604.63 310.916C1610.83 298.815 1610.05 288.002 1603.21 276.6C1597.07 266.37 1591.86 255.583 1586.29 245.127C1589.91 242.892 1591.13 245.139 1592.5 246.471C1602.92 256.635 1613.59 266.577 1623.56 277.179C1629.32 283.311 1635.44 284.214 1643.24 282.763C1668.79 278.009 1693.17 267.848 1719.23 265.795C1784.8 260.628 1842.63 278.24 1889.84 325.577C1894.61 330.361 1901.74 336.22 1899.61 342.879C1897.29 350.156 1887.92 350.411 1880.84 351.607C1844.24 357.78 1809.19 349.33 1774.35 339.772C1763 336.659 1751.93 332.545 1739.94 328.651Z" fill="#26A5B8"/>
<path d="M1340.55 462.794C1360.66 462.224 1379.67 462.338 1398.07 468.851C1409.43 472.877 1419.13 479.098 1427.3 488.023C1432.66 493.882 1432.18 498.454 1426.59 503.926C1405.04 525.03 1378.29 534.505 1349.31 538.981C1313.09 544.576 1277.51 539.487 1241.98 532.452C1231.16 530.308 1220 529.737 1208.95 528.867C1200.19 528.176 1193.54 531.433 1190.04 540.195C1185.24 552.224 1178.21 562.927 1169.51 572.509C1166.78 575.51 1164.38 578.965 1159.63 580.903C1158 574.539 1161.36 570.095 1163.76 566.067C1176.53 544.595 1176.17 523.727 1162.53 502.807C1159.65 498.379 1157.9 493.213 1155.62 488.388C1156.5 487.784 1157.38 487.181 1158.26 486.577C1167.54 495.574 1177.16 504.249 1185.96 513.684C1191.48 519.593 1196.03 520.788 1203.87 517.242C1226.7 506.916 1247 492.086 1269.75 481.677C1292.02 471.492 1314.9 464.006 1340.55 462.794Z" fill="#26A5B8"/>
<path d="M412.513 279.904C379.784 296.905 346.422 295.544 312.534 287.649C295.925 283.779 280.041 277.853 264.324 271.365C256.315 268.059 248.273 264.796 240.099 261.935C216.105 253.539 216.287 253.765 202.079 274.649C196.496 282.857 189.777 290.312 177.503 295.463C182.267 284.656 185.719 275.863 189.96 267.469C194.367 258.75 194.361 250.299 190.842 241.409C185.559 228.065 180.528 214.622 175.324 201.047C179.783 200.036 180.644 202.755 181.985 204.559C188.397 213.187 194.736 221.869 201.079 230.547C213.309 247.277 213.349 247.436 233.563 241.549C254.524 235.444 274.031 225.243 295.372 220.023C329.238 211.74 362.711 212.523 395.832 223.082C410.901 227.886 424.274 235.751 434.401 248.439C438.81 253.963 439.193 258.535 433.69 263.711C427.346 269.68 421.053 275.582 412.513 279.904Z" fill="#26A5B8"/>
<path d="M1135.64 60.7937C1143.51 50.2503 1142.81 40.4833 1136.46 30.2036C1131.03 21.4273 1126.42 12.1492 1121.4 3.01782C1125.48 0.485014 1127.01 3.54618 1128.92 5.14391C1137.42 12.2701 1146.47 18.8899 1154.16 26.8161C1162.4 35.2991 1170.8 35.1639 1181.37 32.332C1211.15 24.3557 1239.97 12.9679 1270.39 7.30835C1322.83 -2.44579 1375.1 -3.5406 1426.94 10.8356C1436.49 13.4857 1446.05 16.9688 1452.76 26.0841C1447.93 32.9121 1440.61 35.4096 1433.81 38.2864C1401.03 52.1505 1366.36 56.4124 1331.19 57.4012C1290.12 58.5561 1249.66 52.4679 1209.21 46.4083C1200.31 45.0747 1191.27 44.6154 1182.37 43.2743C1171.54 41.6418 1163.76 45.3347 1157.87 54.6482C1149.22 68.3152 1137.44 78.8108 1121.1 85.3682C1125.82 77.4038 1130.55 69.4393 1135.64 60.7937Z" fill="#26A5B8"/>
<path d="M1286.32 330.332C1271.32 328.312 1257.28 326.587 1242.99 327.318C1234.3 327.762 1228.93 331.739 1225.48 339.492C1219.91 352.022 1211.52 362.601 1201.72 372.086C1200.33 373.433 1198.54 374.366 1195 376.842C1198.5 360.134 1210.28 348.386 1210.24 333.487C1210.21 318.118 1197.89 306.831 1192.88 291.358C1202.13 294.152 1207.87 300.489 1212.8 306.192C1225.17 320.494 1237.46 319.798 1252.89 311.202C1276.78 297.893 1300.7 284.387 1327.02 275.991C1358.37 265.993 1390.29 264.22 1422.61 269.029C1437.22 271.203 1450.79 276.588 1461.96 286.685C1469.69 293.671 1469.58 296.804 1461.46 303.089C1438.23 321.058 1411.12 328.817 1382.58 332.727C1350.67 337.097 1318.94 334.879 1286.32 330.332Z" fill="#26A5B8"/>
<path d="M920.877 425.829C933.146 434.684 933.452 436.641 923.011 446.662C894.488 474.04 859.046 485.573 820.921 491.153C792.509 495.311 764.204 492.156 735.854 490.878C734.469 490.815 733.07 490.869 731.698 490.699C714.329 488.556 701.078 492.313 693.786 510.93C689.62 521.568 680.761 530.197 669.083 538.155C672.026 521.638 684.816 510.202 683.473 494.985C682.192 480.459 670.923 469.311 668.837 453.937C676.95 461.049 685.791 467.503 692.975 475.453C700.573 483.861 707.406 483.158 716.564 478.456C730.779 471.157 744.411 462.929 758.115 454.793C792.879 434.154 830.042 420.715 870.54 417.498C887.668 416.137 904.466 417.716 920.877 425.829Z" fill="#26A5B8"/>
<path d="M551.211 612.912C549.784 609.424 547.182 607.172 547.533 602.838C554.672 604.749 558.555 610.673 563.677 614.654C589.779 634.942 579.265 635.327 611.568 621.748C638.683 610.35 664.303 595.413 692.668 586.876C724.823 577.198 757.433 571.84 791.055 577.368C799.321 578.727 807.249 581.271 814.242 586.052C823.749 592.551 824.103 595.983 815.538 603.636C794.262 622.643 768.752 632.818 741.294 639.01C702.78 647.695 664.19 645.122 625.597 640.067C614.861 638.661 604.151 639.284 593.426 639.026C585.721 638.841 582.73 644.597 579.4 649.788C572.029 661.277 562.918 670.835 550.014 678.616C549.239 671.336 552.999 667.182 555.822 663.533C567.059 649.009 566.287 635.017 555.72 620.746C554.082 618.534 552.937 615.956 551.211 612.912Z" fill="#26A5B8"/>
<path d="M1399.29 195.234C1392.87 200.888 1392.87 200.888 1385.57 203.211C1389.56 194.631 1392.77 186.745 1396.82 179.322C1400.99 171.672 1400.3 164.922 1395.47 157.971C1390.21 150.396 1385.29 142.584 1380.23 134.876C1380.85 134.139 1381.47 133.403 1382.09 132.666C1390.96 138.767 1400.32 144.264 1408.53 151.144C1416.19 157.559 1423.27 157.68 1432.26 154.508C1456.75 145.873 1480.2 134.384 1505.59 128.182C1545.91 118.337 1585.86 118.52 1625.51 131.298C1635.49 134.515 1644.59 139.415 1652.51 146.488C1658.63 151.961 1657.87 156.099 1651 160.11C1633.85 170.125 1614.92 173.959 1595.59 176.481C1550.57 182.356 1506.48 174.744 1462.39 167.207C1460.35 166.857 1458.3 166.506 1456.24 166.219C1435.19 163.282 1415.21 162.708 1405.87 187.648C1404.85 190.377 1401.89 192.379 1399.29 195.234Z" fill="#26A5B8"/>
<path d="M1153.38 189.35C1164.86 190.091 1174.74 192.87 1183.8 198.468C1190.84 202.819 1191.57 206.976 1184.85 212.834C1162.09 232.678 1134.88 241.957 1105.85 247.335C1076.94 252.691 1047.92 251.583 1018.86 249.279C1017.48 249.17 1016.07 249.355 1014.7 249.177C995.897 246.727 981.161 250.513 973.661 270.918C970.542 279.404 963.231 286.557 953.312 291.58C970.178 266.467 970.393 242.225 948.895 218.489C950.491 218.101 952.087 217.713 953.683 217.326C960.599 223.294 967.892 228.887 974.329 235.334C980.989 242.007 987.322 242.57 995.716 238.415C1019 226.89 1040.48 211.893 1064.98 202.711C1093.23 192.124 1122.22 186.709 1153.38 189.35Z" fill="#26A5B8"/>
<path d="M651.273 827.096C610.864 834.072 571.717 829.844 532.572 823.692C518.23 821.438 503.721 820.227 489.278 818.628C482.525 817.88 478.458 822.396 474.32 826.644C467.081 834.077 458.84 839.764 447.479 843.243C449.064 835.308 454.239 831.891 457.842 827.617C462.388 822.224 462.719 817.427 458.562 811.794C454.161 805.832 450.151 799.582 445.97 793.458C446.641 792.736 447.312 792.014 447.983 791.292C456.115 796.674 464.412 801.827 472.323 807.516C477.757 811.424 483.046 812.431 489.775 811.238C516.453 806.505 541.574 796.035 568.132 790.796C603.108 783.896 638.05 781.107 673.319 787.84C682.908 789.67 691.993 792.963 700.317 798.234C707.36 802.693 707.597 806.881 700.227 811.182C685.331 819.873 669.108 824.485 651.273 827.096Z" fill="#26A5B8"/>
<path d="M1430.25 608.961C1426.09 607.812 1422.76 606.862 1419.38 606.091C1410.25 604.004 1403.21 605.538 1399.63 615.723C1396.87 623.583 1391.52 629.944 1383.02 635.014C1395.14 613.776 1391.5 593.319 1379.59 573.19C1380.78 572.843 1381.97 572.496 1383.16 572.15C1387.03 576.822 1390.95 581.447 1394.74 586.178C1404.43 598.282 1404.44 598.374 1418.9 592.037C1430 587.172 1440.28 580.663 1451.68 576.322C1474.29 567.721 1497.07 566.807 1519.91 574.354C1531.46 578.17 1546.07 583.386 1545.88 596.436C1545.71 608.156 1531.22 612.545 1520.45 616.309C1497.25 624.422 1474 621.473 1450.92 615.34C1444.23 613.562 1437.67 611.289 1430.25 608.961Z" fill="#26A5B8"/>
<path d="M119.135 757.309C129.198 772.443 142.782 766.022 154.478 763.324C191.652 754.747 228.63 754.14 265.624 763.307C277.581 766.269 289.651 769.699 299.396 780.615C286.475 791.478 271.697 794.045 256.681 795.2C227.275 797.463 198.697 792.469 170.597 784.144C163.956 782.177 157.2 780.52 150.708 778.143C138.179 773.554 126.85 771.464 118.167 785.502C115.491 789.829 110.308 793.276 103.604 794.08C103.454 783.964 115.768 778.367 112.763 767.836C110.232 758.961 103.67 751.704 101.665 741.008C109.908 744.827 113.232 751.941 119.135 757.309Z" fill="#26A5B8"/>
<path d="M21.9632 316.519C16.5098 322.203 11.971 328.055 0.550338 328.314C18.3938 311.541 5.81556 296.451 0 279C9.35056 284.018 12.241 291.688 16.3198 297.792C21.7713 305.95 28.2561 309.494 37.9625 308.668C60.0601 306.79 82.1908 304.541 104.1 310.658C122.93 315.915 141.409 321.878 155.775 336.03C165.149 345.264 164.098 349.935 151.564 354.342C130.9 361.609 111.201 356.172 91.8246 348.863C71.5821 341.227 53.9479 328.602 34.8573 318.762C31.151 316.852 27.4602 312.935 21.9632 316.519Z" fill="#26A5B8"/>
<path d="M1064.35 468.752C1075.77 467.23 1086 468.081 1095.65 472.798C1106.17 477.94 1106.75 481.74 1098.11 489.399C1079.92 505.534 1058 512.638 1034.29 513.857C1016.67 514.763 998.951 514.117 981.291 513.651C973.033 513.433 967.674 515.967 964.243 523.955C961.163 531.126 956.498 537.603 947.752 541.517C956.596 525.26 959.699 509.462 945.66 493.935C953.506 494.627 957.043 499.518 961.085 503.174C965.934 507.56 970.336 508.193 976.008 504.915C990.409 496.591 1004.79 488.195 1019.57 480.578C1033.24 473.53 1048 469.672 1064.35 468.752Z" fill="#26A5B8"/>
<path d="M1129.12 114.213C1130.66 120.969 1125.33 122.453 1121.9 124.688C1097.53 140.548 1070.26 143.606 1042.08 141.873C1029.3 141.087 1016.55 139.803 1003.79 138.683C997.529 138.133 993.417 140.608 990.428 146.286C986.772 153.233 982.521 159.958 974.034 164.326C973.586 154.659 981.757 148.826 981.466 140.456C981.168 131.886 974.113 125.807 972.59 116.595C979.247 117.718 982.341 122.632 985.891 126.277C991.31 131.84 996.632 132.508 1003.64 129.479C1019.21 122.746 1033.91 114.065 1050.33 109.188C1069.29 103.56 1088.55 102.794 1107.96 104.808C1115.5 105.591 1122.93 107.923 1129.12 114.213Z" fill="#26A5B8"/>
<path d="M1601.16 459.524C1626.51 448.667 1651.38 446.72 1676.71 456.552C1683.59 459.222 1689.89 462.761 1695.15 467.934C1702.61 475.276 1702.13 478.746 1692.95 483.466C1679.68 490.292 1665.5 490.098 1651.3 487.997C1635.09 485.597 1619.9 479.627 1604.82 473.451C1594.72 469.315 1585.53 467.327 1580.23 480.713C1578.85 484.183 1575.6 487.573 1568.37 489.361C1578.1 473.638 1575.63 459.207 1568.36 444.688C1579.79 449.462 1582.88 469.8 1601.16 459.524Z" fill="#26A5B8"/>
<path d="M672.23 344.535C684.671 343.42 696.1 343.477 706.764 348.641C716.424 353.318 717.212 357.81 709.137 364.645C688.577 382.047 664.123 384.38 638.612 381.987C634.486 381.6 630.299 381.25 626.297 380.253C612.437 376.798 600.305 376.689 594.412 393.225C593.256 396.467 590.17 399.354 583.257 400.955C593.644 385.457 592.067 371.56 581.959 357.033C589.454 357.143 591.883 361.463 594.109 364.631C599.514 372.323 605.564 372.124 612.916 368.058C622.307 362.865 631.738 357.705 641.405 353.061C650.818 348.539 660.97 346.188 672.23 344.535Z" fill="#26A5B8"/>
<path d="M438.995 733.441C437.351 730.06 434.67 727.942 434.76 724.537C437.147 722.419 438.987 724.411 440.124 725.735C449.305 736.433 459.848 734.517 471.327 730.145C496.972 720.378 523.31 715.435 550.753 721.155C556.447 722.342 562.21 723.698 565.907 730.461C554.555 741.32 540.361 743.776 525.987 745.219C505.459 747.28 485.176 744.193 465.015 740.848C457.021 739.522 450.99 740.574 446.18 747.764C444.295 750.582 441.056 753.376 435.948 752.969C436.14 746.382 445.199 741.267 438.995 733.441Z" fill="#26A5B8"/>
</svg>
