<svg width="250" height="167" viewBox="0 0 250 167" fill="none" xmlns="http://www.w3.org/2000/svg">
<path d="M249.999 0.495641V166.333H1.24316V0.495641H249.999Z" fill="#FBF8F3"/>
<path d="M45.7051 108.194L46.9758 134.423L55.7353 133.176L54.4149 106.95L45.7051 108.194Z" fill="#DEDEDC"/>
<path d="M118.256 93.2405L144.79 86.5063L147.194 97.0548L120.246 103.965L118.256 93.2405" fill="#DEDEDC"/>
<path d="M6.70174 50.8842L5.92852 54.1033L6.38042 65.198L6.5612 69.6391L6.92355 78.5362L9.04254 80.0574L9.20174 88.3394L2.61177 83.4148L2.36342 68.2104L2.29172 63.8063L2.11426 52.9424L2.61716 49.6684L2.99817 47.1869L5.51393 30.8036L4.46335 23.0265L4.23779 21.3549L3.27512 14.229L4.08398 10.5378L4.7942 7.2984L6.28507 0.496012H17.6284L13.3373 8.99645L11.7859 12.069L10.2403 15.1314L11.1259 17.4532L11.7357 19.0525L13.339 23.2575L7.28382 48.4617L6.70174 50.8842" fill="#A7C5EB"/>
<path d="M76.8652 103.813L77.7362 116.831L90.4226 114.776L83.4125 102.435L76.8652 103.813Z" fill="#ACDC4D"/>
<path d="M139.868 70.3853L144.195 86.3525L179.731 77.3841L175.543 66.081L139.868 70.3853Z" fill="#ACDC4D"/>
<path d="M190.23 108.442L175.543 66.0813L213.607 61.8453L223.695 70.0026L195.008 73.4328L205.581 104.776L190.23 108.442" fill="#DEDEDC"/>
<path d="M214.575 39.7857L229.154 38.4613L228.24 52.4165L214.304 49.6254L214.575 39.7857Z" fill="#ACDC4D"/>
<path d="M31.1582 14.229L40.3838 26.3722L32.7938 39.9123L45.9559 47.3804L51.409 39.9123L56.9185 19.1747L31.1582 14.229" fill="#ACDC4D"/>
<path d="M19.6538 166.333H1.24414V151.591L11.4946 154.055L12.2487 155.19L19.6538 166.333Z" fill="#ACDC4D"/>
<path d="M250 75.089V89.6548L224.613 70.2559L223.949 69.7481L224.828 68.8551L238.653 54.8149L250 75.089" fill="#ACDC4D"/>
<path d="M184.583 11.2254L200.854 10.9719L199.531 33.7336L182.54 35.7505L184.583 11.2254Z" fill="#ACDC4D"/>
<path d="M211.733 133.092L199.53 127.237L181.282 132.577L185.752 140.438L189.312 151.365L186.649 166.333H234.972L211.733 133.092Z" fill="#ACDC4D"/>
<path d="M249.999 131.323V166.333H234.972L216.393 139.758L214.653 137.271L211.732 133.092L199.531 127.237L182.099 132.337L181.281 132.577L180.463 132.816L174.585 134.536L148.659 137.215L131.522 140.912L128.205 141.627L118.034 143.821L100.621 141.997L96.7589 142.228L94.2663 142.377L86.746 142.826L85.8617 145.811L80.661 146.31L76.532 146.705L72.5212 147.09L70.8692 147.249L68.7804 147.449L60.3691 140.504L27.0445 144.871L1.24316 140.249V133.05L26.8788 139.343L32.7937 139.454L42.8547 137.519H48.4375L67.6195 133.65L69.0159 133.908L70.7345 134.225L75.0723 135.025L79.3492 135.815L81.2182 136.16L94.4868 134.21L96.9852 133.843L107.089 132.358L123.009 135.197L128.205 136.317L131.522 137.031L134.434 137.658L156.342 132.358L177.233 127.134H177.234L178.904 126.716L194.06 122.926L220.895 112.892L220.304 128.962L249.999 131.323" fill="#A7C5EB"/>
<path d="M37.1001 136.16L28.8966 137.519L1.24316 131.038V125.735L11.785 114.854L11.125 80.5576L12.8195 82.4152L21.5168 91.9479L21.9314 101.795L34.9388 102.72L36.0358 102.798L37.1001 136.16" fill="#A7C5EB"/>
<path d="M179.25 4.08144L178.836 4.04868L176.35 35.7338L176.762 35.7666L179.25 4.08144" fill="#CCCCC9"/>
<path d="M169.513 4.08106L169.1 4.04803L166.502 36.6169L166.916 36.6499L169.513 4.08106Z" fill="#CCCCC9"/>
<path d="M243.262 6.80746L242.778 16.8534L250 16.6643V17.0792L242.759 17.2688L242.54 21.78L246.742 27.1009L247.876 28.5379L247.551 28.7944L246.253 27.1522L242.119 21.9152L242.124 21.8376L242.343 17.2795L234.226 17.4922L233.895 17.5009L232.231 17.5444L231.9 17.5531H231.899L216.325 17.9607L215.092 17.9931L215.081 17.5789L216.34 17.5458L231.919 17.1377L232.251 17.129L233.913 17.0855L234.246 17.0768L242.363 16.8641L242.847 6.81661L234.713 6.98296L234.38 6.99059L232.718 7.02415L232.386 7.03026L216.72 7.35227L215.487 7.37821L215.478 6.96311L216.737 6.93718L232.405 6.61516L232.738 6.60906L234.399 6.57549L234.731 6.56785L242.867 6.39998L243.152 0.495454H243.567L243.284 6.39235L250 6.255V6.66857L243.262 6.80746" fill="#CCCCC9"/>
<path d="M129.662 13.2991L129.342 13.5605L128.618 12.6713L118.713 0.496009H119.248L129.118 12.6296L129.662 13.2991Z" fill="#CCCCC9"/>
<path d="M78.8716 0.495945L74.7576 2.46463L61.1858 8.95977L59.6767 9.68213L59.498 9.30771L60.5022 8.82751L75.0408 1.86945L77.911 0.495945H78.8716Z" fill="#CCCCC9"/>
<path d="M24.3329 88.0581L15.5778 53.398L15.1758 53.4998L24.01 88.4724H28.7494L35.5052 100.726L35.8682 100.525L28.9942 88.0581H24.3329" fill="#CCCCC9"/>
<path d="M156.651 138.308L156.698 138.72L172.778 136.91L176.77 142.123L177.099 141.871L172.965 136.471L156.651 138.308" fill="#CCCCC9"/>
<path d="M206.5 149.653L195.814 153.834L189.436 151.562L189.206 151.96V151.96L180.856 166.333H180.376L189.225 151.1L189.251 151.056L195.808 153.392L206.349 149.266L206.5 149.653" fill="#CCCCC9"/>
<path d="M185.808 96.2598L185.697 95.8602L149.492 105.915L149.603 106.315L185.808 96.2598Z" fill="#CCCCC9"/>
<path d="M148.323 101.595L148.431 101.996L184.708 92.1482L184.6 91.7481L148.323 101.595Z" fill="#CCCCC9"/>
<path d="M187.711 101.996L203.276 97.8941L203.171 97.4931L187.605 101.595L187.711 101.996Z" fill="#CCCCC9"/>
<path d="M142.678 80.7423L117.101 87.0135L117.2 87.416L142.777 81.1448L142.678 80.7423Z" fill="#CCCCC9"/>
<path d="M75.9322 69.9765L69.5919 61.1135L69.2549 61.3549L75.5791 70.1954L67.7773 82.3492L68.1266 82.5732L75.9464 70.3916L87.48 69.8248L90.1589 81.8477L90.563 81.7573L87.8085 69.3936L75.9322 69.9765Z" fill="#CCCCC9"/>
<path d="M65.4167 67.0195L49.6315 60.8568L46.1572 47.3281L45.7559 47.4311L49.2828 61.1656L65.2657 67.4058L65.4167 67.0195" fill="#CCCCC9"/>
<path d="M58.4297 132.08L58.6975 132.396L72.8093 120.466L72.5419 120.149L58.4297 132.08" fill="#CCCCC9"/>
<path d="M209.398 71.8275L215.031 89.0261L210.016 103.602L210.409 103.737L215.447 89.095L215.469 89.0291L209.793 71.6986L209.398 71.8275Z" fill="#CCCCC9"/>
<path d="M250 99.589V100.501L237.562 100.192L236.475 94.9699L224.376 93.0852L223.274 92.9136L223.415 92.0126L224.448 92.1735L237.24 94.1657L238.308 99.2983L250 99.589" fill="#959595"/>
<path d="M214.327 47.5098L214.282 47.0976L144.35 54.6088L144.394 55.021L214.327 47.5098Z" fill="#CCCCC9"/>
<path d="M173.149 58.0568L173.106 57.6444L142.494 60.8684L142.537 61.2803L173.149 58.0568Z" fill="#CCCCC9"/>
<path d="M119.367 60.2174L125.434 73.6079L125.811 73.4367L119.745 60.0462L119.367 60.2174Z" fill="#CCCCC9"/>
<path d="M90.1614 37.6543L53.9315 29.9641L53.8457 30.3698L90.0761 38.0601L90.1614 37.6543Z" fill="#CCCCC9"/>
<path d="M120.717 14.1543L120.308 14.2113L122.383 29.0791L122.794 29.0222L120.717 14.1543Z" fill="#CCCCC9"/>
<path d="M150.994 111.44L125.571 117.711L125.671 118.113L151.094 111.842L150.994 111.44Z" fill="#CCCCC9"/>
<path d="M166.198 113.959L125.976 124.217L125.751 123.333L166.832 112.856L170.403 125.399L169.526 125.649L166.198 113.959" fill="#959595"/>
<path d="M235.013 0.495731L234.732 6.56798L234.714 6.98389L234.246 17.0775L234.227 17.492L233.72 28.4711L233.619 30.6543L231.299 30.5469L231.383 28.7165L231.9 17.5537H231.901L231.92 17.1378L232.387 7.03121L232.406 6.61675L232.689 0.495731H235.013" fill="#CCCCC9"/>
<path d="M234.681 0.496188L234.399 6.57556L234.38 6.99088L233.913 17.0859L233.894 17.5012L233.385 28.5063L233.302 30.3076L231.645 30.231L231.716 28.6816L232.232 17.5442L232.252 17.1289L232.719 7.02524L232.737 6.6085L233.021 0.496188H234.681" fill="white"/>
<path d="M106.477 151.333L106.441 152.584L106.037 166.333H104.378L104.783 152.521L104.82 151.285L106.477 151.333" fill="white"/>
<path d="M136.992 159.703L135.682 160.388L124.308 166.333H120.728L134.453 159.159L136.224 158.233L136.992 159.703" fill="white"/>
<path d="M186.707 140.439L186.099 141.5L186.01 141.654L173.272 163.865L180.004 166.333H175.187L172.435 165.324L171.855 166.333H169.944L170.855 164.746L156.699 159.556L156.226 147.935L156.125 145.414L155.885 139.516L131.523 144.338L130.026 144.635L129.704 143.008L131.523 142.647L157.464 137.513L157.493 138.214L157.51 138.629L157.77 145.067L157.873 147.588L158.31 158.38L171.692 163.286L183.835 142.113L184.798 140.436L184.255 139.482L180.465 132.816L177.234 127.134L176.259 125.418L175.523 124.123L176.964 123.303L177.709 124.614L178.904 126.716L182.1 132.337L185.959 139.123L186.707 140.439" fill="white"/>
<path d="M185.267 49.6663L185.401 50.0687L189.589 62.6575L190.008 63.9191L190.39 65.0692L192.83 72.4038L179.025 75.9746L175.903 66.7351L175.495 65.5343L175.088 64.3246L170.798 51.6371L170.662 51.235L168.606 45.152L183.226 43.5351L185.267 49.6663V49.6663ZM196.186 82.4932L182.445 86.0924L179.558 77.5502L193.355 73.9813L196.186 82.4932ZM166.306 38.3511L165.589 36.2284L165.319 35.4303V35.4286L165.218 35.1305L157.273 11.6297L167.221 11.5885L167.637 11.5869L172.11 11.5671L170.036 34.6239L169.9 36.1446L171.552 36.2931L171.718 34.4468L173.777 11.5595L176.972 11.5457L177.387 11.5442L182.447 11.5228L180.598 33.5129L180.47 35.0373L180.456 35.2073L180.988 36.8067L182.691 41.9262L168.061 43.544L166.306 38.3511V38.3511ZM174.413 4.47983H183.039L182.585 9.86395L177.517 9.88532L177.102 9.88684L173.926 9.90058L174.413 4.47983V4.47983ZM184.704 4.47983H199.131L198.823 9.79527L184.25 9.85632L184.704 4.47983ZM130.762 26.8673L129.184 13.7703L135.718 13.2229L137.199 26.2277L130.762 26.8673V26.8673ZM45.4871 89.8904L50.2214 89.2255L60.7648 87.7437L61.4681 95.4932L55.7334 96.3166L51.0095 96.9949L35.2342 99.2603L34.9205 91.3755L45.4871 89.8904V89.8904ZM43.7376 108.604L44.8051 133.424L36.648 134.775L35.6513 109.735L43.7376 108.604ZM52.3366 107.401L53.5161 131.981L46.4531 133.151L45.3871 108.373L52.3366 107.401ZM213.308 40.2085L214.238 40.1052L227.873 38.5974L248.756 36.2881V34.6198L214.301 38.4298L211.801 38.7065L184.377 41.7397L182.677 36.6293L182.21 35.2276L182.137 35.0066L182.277 33.3361L184.111 11.5152L198.727 11.4542L197.549 31.7301L197.459 33.2719L198.288 33.3201L199.115 33.3682L199.22 31.5543L200.389 11.4465L212.821 11.3946L214.361 11.387L214.353 9.72813L212.883 9.73576L200.485 9.78764L200.793 4.47983H214.354V2.82248H200.89L201.048 0.0815781H199.388L199.229 2.82248H184.843L185.073 0.0815781H183.408L183.178 2.82248H174.563L174.808 0.0815781H173.143L172.898 2.82248H150.075V4.47983H172.748L172.26 9.90821L167.77 9.92653L167.353 9.92805L157.588 9.97077L156.02 9.97688L156.01 9.85785L154.452 9.98909L127.874 12.2157L127.374 12.2584L115.279 13.2717L114.465 5.07196L112.815 5.23526L113.625 13.4096L95.609 14.9195L93.7325 15.0767L92.2396 14.7881L73.7429 11.213L69.5381 10.4011L59.942 8.5454L59.2583 8.41414L32.0157 3.14906L30.4021 2.83621L30.0551 2.76907L28.527 3.85107L19.7007 10.0944L15.9689 12.733L9.88225 17.039L4.27445 21.0058L2.99417 20.9411L0 20.7897V22.4502L3.21973 22.6128L4.76368 22.6906L10.4921 18.6388L18.2106 13.1787L21.942 10.54L28.1239 6.16618L30.4349 4.53173L31.7313 4.782L57.3059 9.72508L55.2566 17.1597L54.8586 18.6037L54.3727 20.3657L49.1974 39.1393L44.4667 45.8727L32.692 39.1923L40.3606 26.136L31.9552 15.9104L30.2915 13.8868L29.1426 12.4889L27.8616 13.5426L29.7981 15.8983L38.3441 26.2948L30.4091 39.8043L43.5091 47.2358L39.1073 53.5016L17.7638 41.3533L15.93 40.3092L15.1094 41.7508L16.7932 42.7089L38.1497 54.8648L32.9792 62.2246L32.1472 63.4092L32.196 64.6385L32.5738 74.1227L32.7503 78.5626L33.5294 98.1267L33.5663 99.0517V99.0521L33.6956 102.306L34.9992 135.048L27.68 136.26L0 129.855V131.558L27.4663 137.913L27.6269 137.95L27.7889 137.923L67.475 131.35L67.7727 133.494L69.626 146.835L70.0079 149.586L70.1335 150.49L68.9639 152.279L60.0497 165.919H62.0311L71.1848 151.912L71.6919 151.137L71.8615 150.876L71.6446 149.316L71.2781 146.676L69.4913 133.811L69.1119 131.079L73.3005 130.385H73.3009L77.3943 129.707L93.4257 127.051L94.834 126.818L94.563 125.182L93.4714 125.363L77.1882 128.06L73.0949 128.738L58.4166 131.169H58.4162L57.6172 131.302H57.6169L55.1632 131.708L53.9859 107.17L58.4349 106.548L63.1712 105.886L74.7309 104.269L75.6919 117.359L88.7702 115.288L89.7582 115.131L89.4988 113.493L88.7525 113.611L87.8203 113.759L77.2134 115.439L76.3768 104.039L81.3507 103.343L82.3346 103.206L82.1692 102.022V102.021L82.1687 102.021L82.1047 101.563L80.3938 101.802L61.997 104.376L57.2607 105.038L35.5849 108.07L35.3006 100.926L52.1811 98.5024L56.905 97.8241L76.2019 95.0534L77.1861 94.9121L76.9506 93.2706L75.2466 93.5153L63.1118 95.2573L62.2591 85.8589L49.0477 87.7156L44.3138 88.381L34.8541 89.7102L34.4329 79.135L34.2561 74.6956V74.6953L33.8934 65.5949L33.8262 63.9038L34.431 63.0426L44.8271 48.2446L45.1405 47.7985L50.3105 40.4394L54.7164 41.5294L58.8245 42.5461L66.9344 44.5526L59.2844 58.5087L66.8897 61.2383L63.4248 66.3134L63.1848 66.665L56.9833 75.7475L56.32 76.7192L57.6894 77.6541L58.4335 76.5641L68.5683 61.7206L68.8175 61.3557L69.4689 60.4017L61.6717 57.6036L68.5999 44.9648L84.6089 48.9254L86.1579 49.3084L86.201 49.3192L86.5994 47.7098L86.4888 47.6823L84.9709 47.3068L59.5522 41.0178L55.4441 40.0016L50.9841 38.8981L53.4026 30.126L53.5128 29.7255L56.0037 20.6899L56.8871 17.4838L58.939 10.041L68.8013 11.9471H68.8018L73.0065 12.7605L91.878 16.4071L93.5301 16.7264L93.6429 16.7484L95.2301 16.6153L119.177 14.6091L119.59 14.5746L127.53 13.9092L129.112 27.0315L121.436 27.7944L121.024 27.8354H121.023L111.531 28.779L110.034 28.9278L110.111 29.7073L110.198 30.5783L110.41 30.5572L112.098 30.3897L129.31 28.6783L130.527 38.7795L130.727 40.4382L132.374 40.24L132.177 38.6056L130.961 28.5141L137.386 27.8756L138.532 37.9374L138.72 39.592L140.368 39.4046L140.181 37.7637L139.037 27.7113L150.062 26.6153L151.735 26.449L151.571 24.7989L150.57 24.8984L138.849 26.0633L137.372 13.084L154.496 11.6495L154.664 11.6358V11.6419L155.526 11.6373L156.362 14.1099L163.527 35.3085L164.617 38.529L166.375 43.7305L146.948 45.8789L145.261 46.0654L145.122 46.0808L144.159 46.5376L118.387 58.7645L103.357 65.8946L102.049 66.5153L102.434 67.3254L102.76 68.0132L104.72 67.0833L118.466 60.5621L118.841 60.3843L143.526 48.6737L145.581 47.6985L146.437 47.604L166.918 45.3387L168.972 51.4163L169.108 51.8187L170.97 57.3242L171.106 57.7272L173.401 64.5185L173.81 65.7263L174.216 66.929L177.415 76.3912L143.994 85.0365L142.79 85.3481L141.586 85.6596L118.415 91.6529L115.699 92.3556L116.114 93.961L117.172 93.6873L118.857 93.2515L142.019 87.2599L143.712 86.822L144.428 86.6371L177.948 77.9663L180.838 86.5136L146.809 95.4261L145.737 95.7068L144.402 96.0564L121.305 102.106L119.712 102.523L119.557 102.563L118.908 103.044L118.257 103.526L106.962 111.886L104.641 99.9071L93.4924 81.6385L92.6686 80.2885L91.2532 81.1525L91.7934 82.0377L103.07 100.516L105.539 113.259L103.497 118.565L105.044 119.161L107.086 113.858L118.73 105.239L120.287 104.087L121.747 103.704L144.836 97.657L147.242 97.0268L181.369 88.0887L182.541 91.5551L182.674 91.9486L183.909 95.5973L184.041 95.9908L187.741 106.933L188.2 108.294L188.986 108.029L189.77 107.763L189.262 106.257L187.582 101.289L187.449 100.895L182.978 87.6675L196.711 84.0705L201.111 97.2947L201.242 97.689L203 102.976L203.527 104.555L203.548 104.624L204.332 104.363L204.336 104.362L205.121 104.1L204.619 102.589L201.138 92.1247L213.456 89.5745H213.457L213.929 89.4767L221.848 87.8371L220.999 98.6766L220.885 100.147L220.827 102.128L220.085 127.583L248.756 130.032V128.368L221.788 126.064L222.467 102.724L222.539 100.256L222.649 98.8444L223.133 92.6707L223.204 91.759L223.674 85.7652L213.952 87.7785L213.543 87.8632L200.612 90.5401L195.006 73.6932L208.404 72.1773L208.825 72.1302L222.318 70.6036L222.644 70.5667L223.369 69.8419L224.256 68.9548L237.564 55.6451L248.756 76.6066V73.0854L238.789 54.419L248.756 44.449V42.1036L237.498 53.3636L227.05 51.1661L213.929 48.4071L213.086 48.2301L212.833 48.1765L212.493 49.7997L213.866 50.0887L236.098 54.7641L222.927 67.9386L221.883 68.9838L221.724 69.0016L220.415 69.1495L194.472 72.0849L192.073 64.8755L191.693 63.7317L191.27 62.4639L187.087 49.8876L186.953 49.485L184.913 43.3486L211.739 40.3819L213.308 40.2085" fill="white"/>
<path d="M57.8204 153.497L56.1782 153.728L56.0078 152.516L54.9162 144.745L26.4664 148.287L26.3391 148.263L1.24414 143.522V141.835L26.5194 146.61L56.3316 142.897L57.6446 152.245L57.8204 153.497" fill="white"/>
<path d="M83.164 166.333H78.9858L77.1379 151.549L76.829 149.079L76.5322 146.705L75.0724 135.025L74.5442 130.799H74.5438L74.3382 129.152L73.8423 125.185L71.2192 121.81L70.9646 121.483L59.6781 106.962L58.5039 105.452L53.4244 98.9164L52.2528 97.409L46.7304 90.3044L45.557 88.7949L39.3398 80.7961L35.676 79.5491L33.9935 78.9765L20.9127 74.5242L20.4455 74.365L12.6134 71.6992L9.27384 70.5623L6.56075 69.639L2.36297 68.2104L1.24316 67.8289V63.4491L2.29128 63.8062L6.37998 65.1979L9.18928 66.1544L12.5284 67.2907L19.2349 69.5735L19.7025 69.7327L33.817 74.5366L35.4994 75.1092V75.1096L39.5173 76.4769L42.5209 70.1685L43.5927 67.9172L48.4153 57.7892L48.6931 57.2053L55.9596 41.9431L56.6872 40.416L60.7705 31.8392L60.9538 31.4546L65.1358 22.6713L66.6068 19.5825L70.0446 12.3609H70.045L70.7813 10.8145L74.7569 2.4646L75.0401 1.86942L75.6943 0.495919H80.2863L74.9861 11.6274L74.2498 13.1738L70.8016 20.4158L69.3307 23.5056L65.1242 32.3398L64.941 32.7244L60.7954 41.4313L60.0678 42.9595L51.246 61.4865L51.0674 61.8619L47.2133 69.957L46.1416 72.2083L43.0168 78.7708L50.2909 88.1295L51.4646 89.6394L56.9766 96.7307L58.1482 98.2381L63.2403 104.79L64.4145 106.3L77.8149 123.54L78.4314 128.474L78.6375 130.121L79.3493 135.815L80.6611 146.31L81.0144 149.135L81.3269 151.635L83.164 166.333Z" fill="#DEDEDC"/>
<path d="M191.252 64.3331L190.832 63.0715L176.331 64.7386L174.644 64.9326L141.541 68.7386L143.79 61.1483L143.918 60.718L145.646 54.8862L145.773 54.4559L147.68 48.0181L148.192 46.293L146.504 46.4795L146.365 46.4949L145.402 46.9517L144.769 49.0878L138.827 69.1438L125.304 72.3191L124.892 72.4157L114.424 74.8738L105.964 67.4974L105.332 66.9463L104.601 66.3087L88.5797 52.3407L93.9326 28.3946L110.108 31.6094L114.583 44.3361L120.854 43.6765L121.01 41.6901L115.51 41.9724L111.653 30.9713L111.441 30.9924L111.355 30.1214L111.041 29.2274L92.2186 26.038L89.8682 37.5923L89.7858 37.9986L88.4503 37.715L86.2141 47.7208L85.8521 49.3394L84.9122 53.5437L110.448 75.8074L90.2913 80.5409L89.8877 80.6358L73.1474 84.5669L68.5196 81.96L68.1578 81.756L59.6767 76.9782L58.2265 76.1616L47.2133 69.9572L43.5926 67.9174L35.6744 63.4567L35.0694 64.3179L35.1366 66.009L42.5209 70.1685L46.1415 72.2083L72.071 86.8158L76.4897 93.9293L77.4451 95.4675L81.637 102.216L81.9624 102.74L82.5939 103.757L89.0635 114.173L89.5284 114.921L90.0133 115.702L94.7795 123.375L94.7145 125.777L94.6689 127.465L94.4868 134.21L96.9852 133.843L97.2866 122.697L74.9297 86.7033L93.0366 82.4517L94.7356 82.0525L112.307 77.9264L119.5 103.94L120.151 103.458L120.8 102.977L120.955 102.937L122.549 102.52L120.1 93.6656L119.87 92.8311L119.658 92.067L118.298 87.147L118.187 86.7473L115.538 77.1677L138.928 71.6751L141.465 81.0401L141.573 81.4405L142.829 86.0737L144.033 85.7622L144.193 86.3531L145.399 86.0488L145.237 85.4506L141.393 71.2597L175.459 67.3431L175.958 67.2854L175.542 66.0815L176.738 65.9484L191.252 64.3331ZM144.955 87.2361L143.263 87.6739L145.646 96.4704L146.98 96.1208L144.955 87.2361ZM31.5346 14.3008L31.1581 14.2288L32.671 16.2201L33.1984 16.3245L31.5346 14.3008ZM166.832 36.6425L166.562 35.8443V35.8427L166.588 35.5313L166.461 35.5446L164.77 35.7225L165.86 38.9431L167.55 38.7652L166.832 36.6425ZM150.799 105.982L150.691 105.582L149.631 101.67L149.523 101.27L148.486 97.4409L148.052 95.8402L145.671 87.0511L144.955 87.2361L143.263 87.6739L145.646 96.4704L145.894 97.3882L146.079 98.071L149.782 111.738L149.89 112.139L151.167 116.851L153.577 116.236L150.799 105.982ZM150.799 105.982L150.691 105.582L149.631 101.67L149.523 101.27L148.486 97.4409L148.052 95.8402L145.671 87.0511L144.955 87.2361L143.263 87.6739L145.646 96.4704L145.894 97.3882L146.079 98.071L149.782 111.738L149.89 112.139L151.167 116.851L153.577 116.236L150.799 105.982ZM191.252 64.3331L190.832 63.0715L176.331 64.7386L174.644 64.9326L141.541 68.7386L143.79 61.1483L143.918 60.718L145.646 54.8862L145.773 54.4559L147.68 48.0181L148.192 46.293L146.504 46.4795L146.365 46.4949L145.402 46.9517L144.769 49.0878L138.827 69.1438L125.304 72.3191L124.892 72.4157L114.424 74.8738L105.964 67.4974L105.332 66.9463L104.601 66.3087L88.5797 52.3407L93.9326 28.3946L110.108 31.6094L114.583 44.3361L120.854 43.6765L121.01 41.6901L115.51 41.9724L111.653 30.9713L111.441 30.9924L111.355 30.1214L111.041 29.2274L92.2186 26.038L89.8682 37.5923L89.7858 37.9986L88.4503 37.715L86.2141 47.7208L85.8521 49.3394L84.9122 53.5437L110.448 75.8074L90.2913 80.5409L89.8877 80.6358L73.1474 84.5669L68.5196 81.96L68.1578 81.756L59.6767 76.9782L58.2265 76.1616L47.2133 69.9572L43.5926 67.9174L35.6744 63.4567L35.0694 64.3179L35.1366 66.009L42.5209 70.1685L46.1415 72.2083L72.071 86.8158L76.4897 93.9293L77.4451 95.4675L81.637 102.216L81.9624 102.74L82.5939 103.757L89.0635 114.173L89.5284 114.921L90.0133 115.702L94.7795 123.375L94.7145 125.777L94.6689 127.465L94.4868 134.21L96.9852 133.843L97.2866 122.697L74.9297 86.7033L93.0366 82.4517L94.7356 82.0525L112.307 77.9264L119.5 103.94L120.151 103.458L120.8 102.977L120.955 102.937L122.549 102.52L120.1 93.6656L119.87 92.8311L119.658 92.067L118.298 87.147L118.187 86.7473L115.538 77.1677L138.928 71.6751L141.465 81.0401L141.573 81.4405L142.829 86.0737L144.033 85.7622L144.193 86.3531L145.399 86.0488L145.237 85.4506L141.393 71.2597L175.459 67.3431L175.958 67.2854L175.542 66.0815L176.738 65.9484L191.252 64.3331ZM31.5346 14.3008L31.1581 14.2288L32.671 16.2201L33.1984 16.3245L31.5346 14.3008ZM166.832 36.6425L166.562 35.8443V35.8427L166.588 35.5313L166.461 35.5446L164.77 35.7225L165.86 38.9431L167.55 38.7652L166.832 36.6425ZM150.799 105.982L150.691 105.582L149.631 101.67L149.523 101.27L148.486 97.4409L148.052 95.8402L145.671 87.0511L144.955 87.2361L143.263 87.6739L145.646 96.4704L145.894 97.3882L146.079 98.071L149.782 111.738L149.89 112.139L151.167 116.851L153.577 116.236L150.799 105.982ZM191.252 64.3331L190.832 63.0715L176.331 64.7386L174.644 64.9326L141.541 68.7386L143.79 61.1483L143.918 60.718L145.646 54.8862L145.773 54.4559L147.68 48.0181L148.192 46.293L146.504 46.4795L146.365 46.4949L145.402 46.9517L144.769 49.0878L138.827 69.1438L125.304 72.3191L124.892 72.4157L114.424 74.8738L105.964 67.4974L105.332 66.9463L104.601 66.3087L88.5797 52.3407L93.9326 28.3946L110.108 31.6094L114.583 44.3361L120.854 43.6765L121.01 41.6901L115.51 41.9724L111.653 30.9713L111.441 30.9924L111.355 30.1214L111.041 29.2274L92.2186 26.038L89.8682 37.5923L89.7858 37.9986L88.4503 37.715L86.2141 47.7208L85.8521 49.3394L84.9122 53.5437L110.448 75.8074L90.2913 80.5409L89.8877 80.6358L73.1474 84.5669L68.5196 81.96L68.1578 81.756L59.6767 76.9782L58.2265 76.1616L47.2133 69.9572L43.5926 67.9174L35.6744 63.4567L35.0694 64.3179L35.1366 66.009L42.5209 70.1685L46.1415 72.2083L72.071 86.8158L76.4897 93.9293L77.4451 95.4675L81.637 102.216L81.9624 102.74L82.5939 103.757L89.0635 114.173L89.5284 114.921L90.0133 115.702L94.7795 123.375L94.7145 125.777L94.6689 127.465L94.4868 134.21L96.9852 133.843L97.2866 122.697L74.9297 86.7033L93.0366 82.4517L94.7356 82.0525L112.307 77.9264L119.5 103.94L120.151 103.458L120.8 102.977L120.955 102.937L122.549 102.52L120.1 93.6656L119.87 92.8311L119.658 92.067L118.298 87.147L118.187 86.7473L115.538 77.1677L138.928 71.6751L141.465 81.0401L141.573 81.4405L142.829 86.0737L144.033 85.7622L144.193 86.3531L145.399 86.0488L145.237 85.4506L141.393 71.2597L175.459 67.3431L175.958 67.2854L175.542 66.0815L176.738 65.9484L191.252 64.3331ZM31.5346 14.3008L31.1581 14.2288L32.671 16.2201L33.1984 16.3245L31.5346 14.3008ZM166.832 36.6425L166.562 35.8443V35.8427L166.588 35.5313L166.461 35.5446L164.77 35.7225L165.86 38.9431L167.55 38.7652L166.832 36.6425ZM149.782 111.738L149.89 112.139L151.167 116.851L151.406 117.731L154.053 127.5L131.032 133.2L128.379 123.604L128.136 122.724L126.785 117.839V117.838L126.674 117.438L122.991 104.118L122.769 103.318L122.549 102.52L120.1 93.6656L119.87 92.8311L119.658 92.067L118.298 87.147L118.187 86.7473L115.538 77.1677L138.928 71.6751L141.465 81.0401L141.573 81.4405L142.829 86.0737L143.065 86.9443L143.263 87.6739L145.646 96.4704L145.894 97.3882L146.079 98.071L149.782 111.738ZM128.205 150.916L96.5561 149.721L96.7589 142.228L96.9852 133.843L97.2866 122.697L74.9297 86.7033L93.0366 82.4517L94.7356 82.0525L112.307 77.9264L119.5 103.94L119.974 105.653L128.205 135.423V150.916ZM68.5196 81.96L68.1578 81.756L59.6767 76.9782L58.2265 76.1616L47.2133 69.9572L43.5926 67.9174L35.6744 63.4567L34.2224 62.6387L12.7324 50.5325L18.0363 43.123L19.0068 41.7673L29.0558 27.7288L31.0412 16.3124L31.1113 15.91L32.671 16.2201L33.1984 16.3245L55.6159 20.7798L56.4479 20.9452L57.2468 21.1039L65.1358 22.6719L69.3306 23.5057L90.6784 27.7482L88.5408 37.3108L88.4503 37.715L86.2141 47.7208L85.8521 49.3394L84.9122 53.5437L110.448 75.8074L90.2913 80.5409L89.8877 80.6358L73.1474 84.5669L68.5196 81.96ZM147.193 40.9061L145.402 46.9517L144.769 49.0878L138.827 69.1438L125.304 72.3191L124.892 72.4157L114.424 74.8738L105.964 67.4974L105.332 66.9463L104.601 66.3087L88.5797 52.3407L93.9326 28.3946L110.108 31.6094L114.583 44.3361L120.854 43.6765L147.193 40.9061ZM149.871 40.6247L165.86 38.9431L167.55 38.7652L182.231 37.2209L183.92 37.0434L213.238 33.9596L213.044 39.1204L212.982 40.7959L212.741 47.2631L212.725 47.6815L212.243 60.6097L192.514 62.878L190.832 63.0715L176.331 64.7386L174.644 64.9326L141.541 68.7386L143.79 61.1483L143.918 60.718L145.646 54.8862L145.773 54.4559L147.68 48.0181L148.192 46.293L149.871 40.6247ZM215.137 49.7925V49.7921L215.172 48.8212L215.482 40.5193L215.512 39.7005L215.544 38.8439L215.736 33.6968L249.999 30.0932V26.7586L246.741 27.1011L246.253 27.1524L233.719 28.4708L233.384 28.506L231.716 28.6815L231.382 28.7163L215.862 30.349L216.324 17.9609L216.339 17.546L216.719 7.35245L216.736 6.93736L216.976 0.495641H214.487L214.384 3.23654L214.322 4.89389L214.126 10.1498L214.064 11.8072L213.362 30.6118L200.463 31.9683L199.628 32.0562L198.792 32.1441L183.52 33.7502L182.699 33.8369L181.842 33.9269L176.865 34.4505L176.445 34.4945L172.961 34.8609L171.279 35.0379L167.008 35.4874L166.588 35.5313L166.461 35.5446L164.77 35.7225L150.891 37.1823L157.605 14.5239L158.831 10.3848L158.901 10.1468L153.843 4.89389L152.246 3.23654L149.608 0.495641H146.154L155.695 10.4032L156.105 10.8289L155.739 12.0636L151.814 25.3125L151.305 27.0294L148.213 37.4638L141.424 38.1778L139.775 38.3514L133.42 39.0197L131.77 39.1935L116.842 40.7636L113.341 30.8037L112.775 29.1931L112.61 28.725L94.6564 25.157L96.4732 17.0294L96.8522 15.3336L100.169 0.495641H96.7701L93.4828 15.2022L93.1211 16.8212L91.4023 24.5102L70.8016 20.4161L66.6066 19.5824L58.1303 17.8979L56.4998 17.5737L31.6798 12.642L32.9745 5.19606L33.2588 3.56312L33.7921 0.495641H30.4256L29.7701 4.26513L29.3671 6.58025L28.4256 11.9949L23.1851 10.9541L20.9439 10.5085L13.3369 8.99608L4.79375 7.29904L1.24316 6.59245V9.97432L4.08353 10.539L11.7854 12.0697L17.2121 13.1471L19.4538 13.5927L27.8572 15.2632L25.9181 26.4145L9.63496 49.1612L7.28337 48.4618L2.99772 47.1868L1.24316 46.6649V49.2602L2.61672 49.6686L6.70128 50.8837L8.90775 51.5401L9.18927 66.1544L9.27383 70.5624L10.1142 114.212L1.24316 123.661V128.506L13.4563 115.498L12.8194 82.4153L12.6134 71.6992L12.5284 67.2909L12.2556 53.1188L15.5466 54.9729H15.5471L16.045 55.2536L33.4392 65.0526L35.1366 66.009L42.5209 70.1685L46.1415 72.2083L72.071 86.8158L76.4897 93.9293L77.4451 95.4675L81.637 102.216L81.9624 102.74L82.5939 103.757L89.0635 114.173L89.5284 114.921L90.0133 115.702L94.7795 123.375L94.7145 125.777L94.6689 127.465L94.4868 134.21L94.2663 142.377L94.0702 149.627L81.0142 149.135L77.3355 148.996L76.829 149.079L72.8878 149.73L71.251 150L57.6436 152.246L56.0067 152.516L30.6167 156.706L1.24316 150.207V152.755L12.2477 155.19L30.314 159.187L30.5483 159.239L70.207 152.693L72.428 152.326L77.1379 151.549L77.4927 151.491L81.3269 151.635L94.0031 152.114L93.6186 166.333H96.1071L96.4889 152.208L104.783 152.521L106.44 152.584L128.72 153.425L134.452 159.159L135.681 160.388L141.627 166.333H146.317L132.85 152.865L156.226 147.935L157.872 147.588L183.835 142.113L186.009 141.654L186.139 141.627L195.001 139.758H249.999V137.271H194.742L194.615 137.297L185.957 139.123L185.106 139.303L184.254 139.482L176.518 141.114L176.07 141.208L157.77 145.067L156.124 145.414L131.522 150.603V136.495L176.258 125.418L177.184 125.188L177.709 124.614L191.11 109.937L222.07 102.542L222.63 102.408L223.71 103.138L249.999 120.896V116.894L223.892 99.2585L223.279 98.8431L222.242 99.0906L211.089 101.754L210.612 101.869L205.863 103.003L205.046 103.198L204.243 103.39L190.505 106.671L189.683 106.868L189.347 106.948L188.984 107.347L175.412 122.21L169.884 123.579L168.999 123.798L156.467 126.902L153.816 117.116L153.577 116.236L150.799 105.982L150.691 105.582L149.631 101.67L149.523 101.27L148.486 97.4409L148.052 95.8402L145.671 87.0511L145.399 86.0488L145.237 85.4506L141.393 71.2597L175.459 67.3431L175.958 67.2854L175.986 67.2822L177.146 67.1491L191.633 65.4832L193.316 65.2896L213.09 63.0164L221.658 69.5636L222.43 70.1536L223.561 71.0177L249.999 91.22V88.0894L225.499 69.3689L224.828 68.8552L224.17 68.3526L214.712 61.1263L215.109 50.5028L215.137 49.7925ZM166.832 36.6425L166.562 35.8443V35.8427L166.588 35.5313L166.461 35.5446L164.77 35.7225L165.86 38.9431L167.55 38.7652L166.832 36.6425ZM31.5346 14.3008L31.1581 14.2288L32.671 16.2201L33.1984 16.3245L31.5346 14.3008ZM191.252 64.3331L190.832 63.0715L176.331 64.7386L174.644 64.9326L141.541 68.7386L143.79 61.1483L143.918 60.718L145.646 54.8862L145.773 54.4559L147.68 48.0181L148.192 46.293L146.504 46.4795L146.365 46.4949L145.402 46.9517L144.769 49.0878L138.827 69.1438L125.304 72.3191L124.892 72.4157L114.424 74.8738L105.964 67.4974L105.332 66.9463L104.601 66.3087L88.5797 52.3407L93.9326 28.3946L110.108 31.6094L114.583 44.3361L120.854 43.6765L121.01 41.6901L115.51 41.9724L111.653 30.9713L111.441 30.9924L111.355 30.1214L111.041 29.2274L92.2186 26.038L89.8682 37.5923L89.7858 37.9986L88.4503 37.715L86.2141 47.7208L85.8521 49.3394L84.9122 53.5437L110.448 75.8074L90.2913 80.5409L89.8877 80.6358L73.1474 84.5669L68.5196 81.96L68.1578 81.756L59.6767 76.9782L58.2265 76.1616L47.2133 69.9572L43.5926 67.9174L35.6744 63.4567L35.0694 64.3179L35.1366 66.009L42.5209 70.1685L46.1415 72.2083L72.071 86.8158L76.4897 93.9293L77.4451 95.4675L81.637 102.216L81.9624 102.74L82.5939 103.757L89.0635 114.173L89.5284 114.921L90.0133 115.702L94.7795 123.375L94.7145 125.777L94.6689 127.465L94.4868 134.21L96.9852 133.843L97.2866 122.697L74.9297 86.7033L93.0366 82.4517L94.7356 82.0525L112.307 77.9264L119.5 103.94L120.151 103.458L120.8 102.977L120.955 102.937L122.549 102.52L120.1 93.6656L119.87 92.8311L119.658 92.067L118.298 87.147L118.187 86.7473L115.538 77.1677L138.928 71.6751L141.465 81.0401L141.573 81.4405L142.829 86.0737L144.033 85.7622L144.193 86.3531L145.399 86.0488L145.237 85.4506L141.393 71.2597L175.459 67.3431L175.958 67.2854L175.542 66.0815L176.738 65.9484L191.252 64.3331ZM150.799 105.982L150.691 105.582L149.631 101.67L149.523 101.27L148.486 97.4409L148.052 95.8402L145.671 87.0511L144.955 87.2361L143.263 87.6739L145.646 96.4704L145.894 97.3882L146.079 98.071L149.782 111.738L149.89 112.139L151.167 116.851L153.577 116.236L150.799 105.982ZM166.832 36.6425L166.562 35.8443V35.8427L166.588 35.5313L166.461 35.5446L164.77 35.7225L165.86 38.9431L167.55 38.7652L166.832 36.6425ZM31.5346 14.3008L31.1581 14.2288L32.671 16.2201L33.1984 16.3245L31.5346 14.3008ZM191.252 64.3331L190.832 63.0715L176.331 64.7386L174.644 64.9326L141.541 68.7386L143.79 61.1483L143.918 60.718L145.646 54.8862L145.773 54.4559L147.68 48.0181L148.192 46.293L146.504 46.4795L146.365 46.4949L145.402 46.9517L144.769 49.0878L138.827 69.1438L125.304 72.3191L124.892 72.4157L114.424 74.8738L105.964 67.4974L105.332 66.9463L104.601 66.3087L88.5797 52.3407L93.9326 28.3946L110.108 31.6094L114.583 44.3361L120.854 43.6765L121.01 41.6901L115.51 41.9724L111.653 30.9713L111.441 30.9924L111.355 30.1214L111.041 29.2274L92.2186 26.038L89.8682 37.5923L89.7858 37.9986L88.4503 37.715L86.2141 47.7208L85.8521 49.3394L84.9122 53.5437L110.448 75.8074L90.2913 80.5409L89.8877 80.6358L73.1474 84.5669L68.5196 81.96L68.1578 81.756L59.6767 76.9782L58.2265 76.1616L47.2133 69.9572L43.5926 67.9174L35.6744 63.4567L35.0694 64.3179L35.1366 66.009L42.5209 70.1685L46.1415 72.2083L72.071 86.8158L76.4897 93.9293L77.4451 95.4675L81.637 102.216L81.9624 102.74L82.5939 103.757L89.0635 114.173L89.5284 114.921L90.0133 115.702L94.7795 123.375L94.7145 125.777L94.6689 127.465L94.4868 134.21L96.9852 133.843L97.2866 122.697L74.9297 86.7033L93.0366 82.4517L94.7356 82.0525L112.307 77.9264L119.5 103.94L120.151 103.458L120.8 102.977L120.955 102.937L122.549 102.52L120.1 93.6656L119.87 92.8311L119.658 92.067L118.298 87.147L118.187 86.7473L115.538 77.1677L138.928 71.6751L141.465 81.0401L141.573 81.4405L142.829 86.0737L144.033 85.7622L144.193 86.3531L145.399 86.0488L145.237 85.4506L141.393 71.2597L175.459 67.3431L175.958 67.2854L175.542 66.0815L176.738 65.9484L191.252 64.3331ZM150.799 105.982L150.691 105.582L149.631 101.67L149.523 101.27L148.486 97.4409L148.052 95.8402L145.671 87.0511L144.955 87.2361L143.263 87.6739L145.646 96.4704L145.894 97.3882L146.079 98.071L149.782 111.738L149.89 112.139L151.167 116.851L153.577 116.236L150.799 105.982ZM166.832 36.6425L166.562 35.8443V35.8427L166.588 35.5313L166.461 35.5446L164.77 35.7225L165.86 38.9431L167.55 38.7652L166.832 36.6425ZM31.5346 14.3008L31.1581 14.2288L32.671 16.2201L33.1984 16.3245L31.5346 14.3008ZM191.252 64.3331L190.832 63.0715L176.331 64.7386L174.644 64.9326L141.541 68.7386L143.79 61.1483L143.918 60.718L145.646 54.8862L145.773 54.4559L147.68 48.0181L148.192 46.293L146.504 46.4795L146.365 46.4949L145.402 46.9517L144.769 49.0878L138.827 69.1438L125.304 72.3191L124.892 72.4157L114.424 74.8738L105.964 67.4974L105.332 66.9463L104.601 66.3087L88.5797 52.3407L93.9326 28.3946L110.108 31.6094L114.583 44.3361L120.854 43.6765L121.01 41.6901L115.51 41.9724L111.653 30.9713L111.441 30.9924L111.355 30.1214L111.041 29.2274L92.2186 26.038L89.8682 37.5923L89.7858 37.9986L88.4503 37.715L86.2141 47.7208L85.8521 49.3394L84.9122 53.5437L110.448 75.8074L90.2913 80.5409L89.8877 80.6358L73.1474 84.5669L68.5196 81.96L68.1578 81.756L59.6767 76.9782L58.2265 76.1616L47.2133 69.9572L43.5926 67.9174L35.6744 63.4567L35.0694 64.3179L35.1366 66.009L42.5209 70.1685L46.1415 72.2083L72.071 86.8158L76.4897 93.9293L77.4451 95.4675L81.637 102.216L81.9624 102.74L82.5939 103.757L89.0635 114.173L89.5284 114.921L90.0133 115.702L94.7795 123.375L94.7145 125.777L94.6689 127.465L94.4868 134.21L96.9852 133.843L97.2866 122.697L74.9297 86.7033L93.0366 82.4517L94.7356 82.0525L112.307 77.9264L119.5 103.94L120.151 103.458L120.8 102.977L120.955 102.937L122.549 102.52L120.1 93.6656L119.87 92.8311L119.658 92.067L118.298 87.147L118.187 86.7473L115.538 77.1677L138.928 71.6751L141.465 81.0401L141.573 81.4405L142.829 86.0737L144.033 85.7622L144.193 86.3531L145.399 86.0488L145.237 85.4506L141.393 71.2597L175.459 67.3431L175.958 67.2854L175.542 66.0815L176.738 65.9484L191.252 64.3331ZM150.799 105.982L150.691 105.582L149.631 101.67L149.523 101.27L148.486 97.4409L148.052 95.8402L145.671 87.0511L144.955 87.2361L143.263 87.6739L145.646 96.4704L145.894 97.3882L146.079 98.071L149.782 111.738L149.89 112.139L151.167 116.851L153.577 116.236L150.799 105.982" fill="#F9E030"/>
<path d="M124.643 118.532L112.785 75.9529L139.374 69.6125L146.138 46.6857L168.632 44.2664L168.765 45.5038L147.096 47.8337L140.363 70.6553L114.33 76.8634L125.842 118.199L124.643 118.532" fill="#ED1D24"/>
<path d="M168.698 48.8643C166.918 48.8643 165.408 47.7144 164.867 46.1175L166.06 45.986C166.508 46.9969 167.521 47.7028 168.698 47.7028C168.739 47.7028 168.779 47.7018 168.82 47.7007L169.203 48.8327C169.038 48.8527 168.87 48.8643 168.698 48.8643V48.8643ZM170.772 48.293L170.387 47.1569C170.966 46.7371 171.383 46.108 171.527 45.3811L172.72 45.2485C172.583 46.5435 171.835 47.6555 170.772 48.293V48.293ZM164.668 44.4711C164.783 43.1256 165.556 41.9684 166.665 41.3225L167.048 42.4544C166.426 42.8889 165.984 43.5611 165.854 44.3406L164.668 44.4711V44.4711ZM171.369 43.7305C170.939 42.6774 169.905 41.9358 168.698 41.9358C168.673 41.9358 168.648 41.9358 168.622 41.9368L168.238 40.8007C168.389 40.7838 168.542 40.7744 168.698 40.7744C170.507 40.7744 172.038 41.9621 172.556 43.599L171.369 43.7305" fill="#FAB9BD"/>
<path d="M169.204 48.832L168.821 47.6999C169.405 47.6757 169.943 47.4769 170.387 47.156L170.771 48.2912C170.302 48.5732 169.771 48.7615 169.204 48.832V48.832ZM164.867 46.1164C164.846 46.0554 164.826 45.9923 164.808 45.9281L165.987 45.8019C166.009 45.8639 166.034 45.925 166.06 45.9849L164.867 46.1164ZM171.528 45.3799C171.564 45.1979 171.583 45.0106 171.583 44.8181C171.583 44.433 171.507 44.0658 171.37 43.7291L172.556 43.5976C172.677 43.9838 172.743 44.393 172.743 44.8181C172.743 44.9633 172.736 45.1074 172.72 45.2484L171.528 45.3799ZM164.655 44.694C164.657 44.6193 164.663 44.5445 164.669 44.4709L165.855 44.3394C165.842 44.4141 165.832 44.4909 165.825 44.5687L164.655 44.694V44.694ZM167.048 42.4539L166.665 41.3218C167.137 41.0462 167.67 40.8641 168.239 40.8L168.623 41.9352C168.038 41.951 167.496 42.1404 167.048 42.4539" fill="#FAC1CC"/>
<path d="M164.808 45.9282C164.707 45.5765 164.653 45.2035 164.653 44.8185C164.653 44.777 164.654 44.7356 164.655 44.6942L165.825 44.5678C165.818 44.6507 165.814 44.7336 165.814 44.8185C165.814 45.1631 165.875 45.4946 165.986 45.8019L164.808 45.9282" fill="#ED1D24"/>
<path d="M168.698 47.7021C167.521 47.7021 166.507 46.997 166.06 45.9847L168.162 45.7528L168.82 47.7001C168.78 47.7011 168.739 47.7021 168.698 47.7021ZM170.387 47.1558L169.849 45.5658L171.527 45.3809C171.383 46.108 170.966 46.7369 170.387 47.1558V47.1558ZM165.854 44.3393C165.984 43.561 166.426 42.8882 167.048 42.4537L167.618 44.144L165.854 44.3393ZM169.306 43.958L168.622 41.9355C168.647 41.9355 168.673 41.9344 168.698 41.9344C169.905 41.9344 170.939 42.6762 171.369 43.7303L169.306 43.958" fill="#F68894"/>
<path d="M168.82 47.6992L168.162 45.7523L166.06 45.9843C166.034 45.9248 166.009 45.8642 165.987 45.8015L168.765 45.5026L168.632 44.2663L165.825 44.5683C165.831 44.491 165.842 44.4147 165.854 44.3395L167.618 44.1441L167.048 42.4532C167.495 42.1397 168.038 41.9506 168.623 41.9359L169.306 43.957L171.369 43.7292C171.506 44.0657 171.582 44.4325 171.582 44.8181C171.582 45.0104 171.563 45.1985 171.528 45.3803L169.85 45.5653L170.388 47.1558C169.944 47.4766 169.404 47.6752 168.82 47.6992" fill="#F78D9F"/>
<path d="M165.987 45.8027C165.876 45.4954 165.814 45.1635 165.814 44.8182C165.814 44.7339 165.819 44.6506 165.826 44.5684L168.632 44.2663L168.765 45.5037L165.987 45.8027" fill="#ED1D24"/>
<path d="M169.852 44.8183C169.852 45.4565 169.336 45.9727 168.697 45.9727C168.06 45.9727 167.543 45.4565 167.543 44.8183C167.543 44.1811 168.06 43.6639 168.697 43.6639C169.336 43.6639 169.852 44.1811 169.852 44.8183Z" fill="#ED1D24"/>
<path d="M168.533 42.6462C168.342 42.4239 168.087 42.1207 167.787 41.7512C167.114 40.921 166.216 39.759 165.32 38.4302C164.422 37.1 163.532 35.6118 162.867 34.1287C162.2 32.6391 161.777 31.1914 161.777 29.9321C161.777 26.1971 164.798 23.1768 168.533 23.1768C172.268 23.1768 175.288 26.1971 175.288 29.9321C175.288 31.1914 174.866 32.6391 174.198 34.1287C173.534 35.6118 172.643 37.1 171.746 38.4302C170.849 39.759 169.952 40.921 169.278 41.7512C168.978 42.1207 168.723 42.4239 168.533 42.6462ZM165.442 29.9321C165.442 31.6386 166.826 33.0234 168.533 33.0234C170.239 33.0234 171.624 31.6386 171.624 29.9321C171.624 28.2257 170.239 26.8409 168.533 26.8409C166.826 26.8409 165.442 28.2257 165.442 29.9321Z" fill="#407BFF" stroke="#373132"/>
</svg>
