<svg width="67" height="69" viewBox="0 0 67 69" fill="none" xmlns="http://www.w3.org/2000/svg">
<path d="M33.5149 17.205C24.0033 17.205 16.3312 24.9201 16.3312 34.4849C16.3312 44.0498 24.0033 51.7648 33.5149 51.7648C43.0266 51.7648 50.6987 44.0498 50.6987 34.4849C50.6987 24.9201 43.0266 17.205 33.5149 17.205ZM33.5149 45.7191C27.3683 45.7191 22.3433 40.681 22.3433 34.4849C22.3433 28.2888 27.3533 23.2507 33.5149 23.2507C39.6766 23.2507 44.6866 28.2888 44.6866 34.4849C44.6866 40.681 39.6616 45.7191 33.5149 45.7191ZM55.4096 16.4982C55.4096 18.739 53.6149 20.5287 51.4016 20.5287C49.1732 20.5287 47.3935 18.724 47.3935 16.4982C47.3935 14.2724 49.1882 12.4677 51.4016 12.4677C53.6149 12.4677 55.4096 14.2724 55.4096 16.4982ZM66.7906 20.5888C66.5364 15.1898 65.31 10.4074 61.3768 6.46714C57.4585 2.5269 52.7027 1.2937 47.3337 1.023C41.8002 0.707178 25.2147 0.707178 19.6812 1.023C14.3272 1.27866 9.57141 2.51187 5.63816 6.4521C1.7049 10.3923 0.493513 15.1748 0.224316 20.5738C-0.0897461 26.1382 -0.0897461 42.8165 0.224316 48.381C0.478557 53.78 1.7049 58.5625 5.63816 62.5027C9.57141 66.4429 14.3123 67.6761 19.6812 67.9468C25.2147 68.2626 41.8002 68.2626 47.3337 67.9468C52.7027 67.6912 57.4585 66.458 61.3768 62.5027C65.2951 58.5625 66.5214 53.78 66.7906 48.381C67.1047 42.8165 67.1047 26.1533 66.7906 20.5888ZM59.642 54.3515C58.4754 57.2992 56.2172 59.5701 53.271 60.7582C48.8591 62.5177 38.3904 62.1117 33.5149 62.1117C28.6395 62.1117 18.1558 62.5027 13.7589 60.7582C10.8277 59.5851 8.56941 57.3142 7.38793 54.3515C5.63816 49.915 6.04195 39.3876 6.04195 34.4849C6.04195 29.5822 5.65311 19.0398 7.38793 14.6183C8.55445 11.6707 10.8127 9.39976 13.7589 8.21167C18.1707 6.4521 28.6395 6.85815 33.5149 6.85815C38.3904 6.85815 48.8741 6.46714 53.271 8.21167C56.2022 9.38472 58.4605 11.6556 59.642 14.6183C61.3917 19.0548 60.9879 29.5822 60.9879 34.4849C60.9879 39.3876 61.3917 49.93 59.642 54.3515Z" fill="#3D3D4E"/>
</svg>
