<svg width="836" height="614" viewBox="0 0 836 614" fill="none" xmlns="http://www.w3.org/2000/svg">
<g clip-path="url(#clip0_421:4901)">
<path d="M789.434 613.098L790.385 611.339C777.632 604.442 761.759 595.858 753.469 581.772C745.297 567.886 745.113 549.029 752.991 532.561C759.694 518.545 772.008 505.989 788.602 496.248C791.875 494.327 795.31 492.506 798.633 490.745C806.665 486.488 814.97 482.086 821.817 475.842C831.249 467.241 838.385 452.807 833.067 439.951C831.317 435.847 828.452 432.316 824.797 429.759C821.142 427.202 816.844 425.72 812.389 425.483L812.276 427.48C816.357 427.697 820.296 429.053 823.645 431.395C826.994 433.736 829.62 436.97 831.224 440.729C836.167 452.676 829.385 466.233 820.47 474.364C813.809 480.438 805.618 484.779 797.697 488.978C794.355 490.749 790.9 492.58 787.589 494.523C770.65 504.467 758.063 517.321 751.186 531.698C743.026 548.758 743.24 568.334 751.745 582.787C760.318 597.353 776.462 606.083 789.434 613.098Z" fill="#F1F1F1"/>
<path d="M799.713 436.025C809.378 436.025 817.213 432.219 817.213 427.525C817.213 422.83 809.378 419.025 799.713 419.025C790.048 419.025 782.213 422.83 782.213 427.525C782.213 432.219 790.048 436.025 799.713 436.025Z" fill="#F1F1F1"/>
<path d="M785.713 492.025C795.378 492.025 803.213 488.219 803.213 483.525C803.213 478.83 795.378 475.025 785.713 475.025C776.048 475.025 768.213 478.83 768.213 483.525C768.213 488.219 776.048 492.025 785.713 492.025Z" fill="#F1F1F1"/>
<path d="M817.713 501.025C827.378 501.025 835.213 497.219 835.213 492.525C835.213 487.83 827.378 484.025 817.713 484.025C808.048 484.025 800.213 487.83 800.213 492.525C800.213 497.219 808.048 501.025 817.713 501.025Z" fill="#F1F1F1"/>
<path d="M767.713 548.025C777.378 548.025 785.213 544.219 785.213 539.525C785.213 534.83 777.378 531.025 767.713 531.025C758.048 531.025 750.213 534.83 750.213 539.525C750.213 544.219 758.048 548.025 767.713 548.025Z" fill="#F1F1F1"/>
<path d="M732.713 548.025C742.378 548.025 750.213 544.219 750.213 539.525C750.213 534.83 742.378 531.025 732.713 531.025C723.048 531.025 715.213 534.83 715.213 539.525C715.213 544.219 723.048 548.025 732.713 548.025Z" fill="#F1F1F1"/>
<path d="M137.286 439.484H75.1915C73.5101 439.482 71.898 438.813 70.709 437.624C69.52 436.435 68.8511 434.823 68.8491 433.142V228.544C68.8511 226.862 69.52 225.25 70.709 224.062C71.898 222.873 73.5101 222.204 75.1915 222.202H137.286C138.968 222.204 140.58 222.873 141.769 224.062C142.958 225.25 143.627 226.862 143.629 228.544V433.142C143.627 434.823 142.958 436.435 141.769 437.624C140.58 438.813 138.968 439.482 137.286 439.484Z" fill="#6685B4"/>
<path d="M250.524 439.484H188.429C186.748 439.482 185.136 438.813 183.947 437.624C182.758 436.435 182.089 434.823 182.087 433.142V147.355C182.089 145.673 182.758 144.061 183.947 142.872C185.136 141.683 186.748 141.015 188.429 141.013H250.524C252.205 141.015 253.817 141.683 255.006 142.872C256.195 144.061 256.864 145.673 256.866 147.355V433.142C256.864 434.823 256.195 436.435 255.006 437.624C253.817 438.813 252.205 439.482 250.524 439.484Z" fill="#6685B4"/>
<path d="M363.761 439.484H301.667C299.985 439.482 298.373 438.813 297.184 437.624C295.995 436.435 295.326 434.823 295.324 433.142V228.544C295.326 226.862 295.995 225.25 297.184 224.062C298.373 222.873 299.985 222.204 301.667 222.202H363.761C365.443 222.204 367.055 222.873 368.244 224.062C369.433 225.25 370.102 226.862 370.104 228.544V433.142C370.102 434.823 369.433 436.435 368.244 437.624C367.055 438.813 365.443 439.482 363.761 439.484Z" fill="#6685B4"/>
<path d="M476.999 439.484H414.904C413.261 439.519 411.671 438.902 410.482 437.767C409.293 436.632 408.603 435.072 408.562 433.429V115.019C408.603 113.376 409.293 111.816 410.482 110.681C411.671 109.546 413.261 108.929 414.904 108.964H476.999C478.642 108.929 480.232 109.546 481.421 110.681C482.61 111.816 483.3 113.376 483.341 115.019V433.429C483.3 435.072 482.61 436.632 481.421 437.767C480.232 438.902 478.642 439.519 476.999 439.484Z" fill="#6685B4"/>
<path d="M590.236 439.484H528.142C526.46 439.482 524.848 438.813 523.659 437.624C522.47 436.435 521.801 434.823 521.799 433.142V57.6192C521.801 55.9378 522.47 54.3258 523.659 53.1369C524.848 51.948 526.46 51.2792 528.142 51.2773H590.236C591.918 51.2792 593.53 51.948 594.719 53.1369C595.908 54.3258 596.577 55.9378 596.579 57.6192V433.142C596.577 434.823 595.908 436.435 594.719 437.624C593.53 438.813 591.918 439.482 590.236 439.484Z" fill="#6685B4"/>
<path d="M106.239 196.563C113.319 196.563 119.058 190.824 119.058 183.744C119.058 176.664 113.319 170.925 106.239 170.925C99.1589 170.925 93.4194 176.664 93.4194 183.744C93.4194 190.824 99.1589 196.563 106.239 196.563Z" fill="#3F3D56"/>
<path d="M219.476 113.238C226.556 113.238 232.296 107.498 232.296 100.418C232.296 93.3383 226.556 87.5989 219.476 87.5989C212.396 87.5989 206.657 93.3383 206.657 100.418C206.657 107.498 212.396 113.238 219.476 113.238Z" fill="#3F3D56"/>
<path d="M332.714 196.563C339.794 196.563 345.533 190.824 345.533 183.744C345.533 176.664 339.794 170.925 332.714 170.925C325.634 170.925 319.895 176.664 319.895 183.744C319.895 190.824 325.634 196.563 332.714 196.563Z" fill="#3F3D56"/>
<path d="M445.951 72.643C453.031 72.643 458.771 66.9036 458.771 59.8236C458.771 52.7437 453.031 47.0043 445.951 47.0043C438.871 47.0043 433.132 52.7437 433.132 59.8236C433.132 66.9036 438.871 72.643 445.951 72.643Z" fill="#3F3D56"/>
<path d="M559.189 25.6387C566.269 25.6387 572.008 19.8993 572.008 12.8194C572.008 5.73942 566.269 0 559.189 0C552.109 0 546.37 5.73942 546.37 12.8194C546.37 19.8993 552.109 25.6387 559.189 25.6387Z" fill="#3F3D56"/>
<path d="M663 441.865H1C0.734784 441.865 0.480429 441.759 0.292892 441.572C0.105356 441.384 0 441.13 0 440.865C0 440.599 0.105356 440.345 0.292892 440.157C0.480429 439.97 0.734784 439.865 1 439.865H663C663.265 439.865 663.52 439.97 663.707 440.157C663.895 440.345 664 440.599 664 440.865C664 441.13 663.895 441.384 663.707 441.572C663.52 441.759 663.265 441.865 663 441.865Z" fill="#CBCBCB"/>
<path d="M828 612.865H504C503.735 612.865 503.48 612.759 503.293 612.572C503.105 612.384 503 612.13 503 611.865C503 611.599 503.105 611.345 503.293 611.157C503.48 610.97 503.735 610.865 504 610.865H828C828.265 610.865 828.52 610.97 828.707 611.157C828.895 611.345 829 611.599 829 611.865C829 612.13 828.895 612.384 828.707 612.572C828.52 612.759 828.265 612.865 828 612.865Z" fill="#CBCBCB"/>
<path d="M619.935 425.611C620.758 424.793 621.391 423.806 621.79 422.717C622.189 421.629 622.345 420.466 622.247 419.311C622.148 418.156 621.797 417.037 621.219 416.032C620.641 415.027 619.85 414.161 618.901 413.495L622.833 395.805L612.665 390.794L607.464 415.853C606.451 417.522 606.085 419.504 606.435 421.424C606.786 423.344 607.829 425.069 609.366 426.271C610.903 427.474 612.828 428.071 614.776 427.949C616.724 427.828 618.56 426.995 619.935 425.611Z" fill="#FFB7B7"/>
<path d="M731.119 425.998C731.875 425.12 732.43 424.086 732.744 422.97C733.058 421.854 733.123 420.683 732.936 419.539C732.748 418.395 732.312 417.306 731.658 416.349C731.004 415.392 730.148 414.59 729.15 413.999L731.701 396.058L721.177 391.849L717.93 417.235C717.049 418.977 716.837 420.981 717.335 422.869C717.833 424.756 719.007 426.395 720.632 427.475C722.258 428.555 724.223 429.001 726.156 428.729C728.089 428.457 729.855 427.485 731.119 425.998L731.119 425.998Z" fill="#FFB7B7"/>
<path d="M651.862 602.078L641.494 602.077L636.562 562.087L651.864 562.088L651.862 602.078Z" fill="#FFB7B7"/>
<path d="M654.506 612.128L621.076 612.127V611.704C621.076 608.253 622.447 604.943 624.887 602.503C627.327 600.063 630.637 598.692 634.088 598.692H634.089L654.507 598.693L654.506 612.128Z" fill="#2F2E41"/>
<path d="M686.535 602.078L676.167 602.077L671.235 562.087L686.537 562.088L686.535 602.078Z" fill="#FFB7B7"/>
<path d="M689.179 612.128L655.749 612.127V611.704C655.749 608.253 657.12 604.943 659.56 602.503C662 600.063 665.31 598.692 668.761 598.692H668.762L689.18 598.693L689.179 612.128Z" fill="#2F2E41"/>
<path d="M707.41 265.63L718.59 261.596C718.59 261.596 723.335 262.603 723.335 275.472C723.335 288.34 735.937 408.354 735.937 408.354L713.883 414.161L701.417 300.298L707.41 265.63Z" fill="#2F2E41"/>
<path d="M632.704 265.63L621.524 261.596C621.524 261.596 616.779 262.603 616.779 275.472C616.779 288.34 604.177 408.354 604.177 408.354L626.232 414.161L638.697 300.298L632.704 265.63Z" fill="#2F2E41"/>
<path d="M632.847 402.507L629.791 492.659L636.557 592.383L653.989 592.785L656.526 499.76L670.903 453.248L669.452 590.34L689.191 590.104L701.417 495.786C701.417 495.786 717.562 417.729 708.609 402.507L667.377 388.796L632.847 402.507Z" fill="#2F2E41"/>
<path d="M633.183 391.644L632.188 413.331C632.188 413.331 646.1 420.254 670.552 416.037C695.005 411.819 711.259 414.6 711.259 414.6L709.381 386.954L633.183 391.644Z" fill="#E5E5E5"/>
<path d="M621.08 261.916L653.233 247.827L655.151 240.447L686.431 241.353L687.782 248.892L718.59 261.596L705.017 308.793L706.409 341.995L723.335 402.507C723.335 402.507 709.058 414.632 674.758 409.415L668.84 397.49L665.219 410.101C665.219 410.101 635.142 421.166 626.806 406.762L632.847 302.717L621.08 261.916Z" fill="#2F2E41"/>
<path d="M670.507 233.514C681.978 233.514 691.277 224.215 691.277 212.744C691.277 201.272 681.978 191.973 670.507 191.973C659.035 191.973 649.736 201.272 649.736 212.744C649.736 224.215 659.035 233.514 670.507 233.514Z" fill="#FFB7B7"/>
<path d="M695.186 204.695C694.815 203.005 694.101 201.409 693.088 200.005C692.684 196.125 691.389 192.39 689.305 189.092C688.488 187.547 687.329 186.208 685.916 185.18C684.297 184.248 682.45 183.788 680.584 183.851C680.245 183.845 679.636 183.948 679.088 183.973C678.738 183.864 678.384 183.767 678.029 183.676C677.822 183.216 677.411 181.873 677.297 181.964L675.749 183.193C675.095 183.079 674.438 182.991 673.778 182.921C673.537 182.235 673.297 181.55 673.057 180.865C672.667 181.478 672.325 182.12 672.035 182.786C671.378 182.754 670.72 182.742 670.062 182.752L668.747 181.489C668.67 181.841 668.492 182.163 668.234 182.415C667.976 182.668 667.651 182.84 667.297 182.91C666.692 182.972 666.089 183.053 665.488 183.149C665.439 183.149 665.39 183.149 665.342 183.148C662.103 183.067 658.619 182.922 655.911 184.7C654.643 185.57 653.612 186.741 652.908 188.108C652.577 188.333 652.244 188.557 651.922 188.796C650.836 189.537 649.895 190.47 649.144 191.55C648.599 192.481 648.185 193.483 647.915 194.528C646.882 197.673 646.403 200.973 646.5 204.282C646.611 207.613 647.868 210.804 650.059 213.316C651.448 214.808 653.213 215.91 654.604 217.401C657.468 220.47 658.004 224.75 660.454 227.998C663.045 231.432 667.773 233.693 671.926 234.34C674.423 234.717 676.969 234.596 679.419 233.985C681.869 233.374 684.174 232.285 686.201 230.78C687.174 230.103 688.001 229.236 688.632 228.232C690.073 225.739 689.462 222.605 689.997 219.776C691.001 214.472 696.062 210.021 695.186 204.695Z" fill="#2F2E41"/>
<path d="M105.555 184.546L104.361 182.942L219.477 97.239L332.348 181.429L446.764 57.205L446.969 57.121L558.009 11.292L558.772 13.141L447.936 58.885L332.597 184.11L219.476 99.733L105.555 184.546Z" fill="#3F3D56"/>
</g>
<defs>
<clipPath id="clip0_421:4901">
<rect width="835.213" height="613.098" fill="white"/>
</clipPath>
</defs>
</svg>
