<svg width="1178" height="1178" viewBox="0 0 1178 1178" fill="none" xmlns="http://www.w3.org/2000/svg">
<g clip-path="url(#clip0_1145_1542)">
<g filter="url(#filter0_f_1145_1542)">
<path d="M801.96 133.054C720.973 126.503 640.031 150.506 577.772 206.52C577.036 207.215 576.254 207.791 575.471 208.492C474.007 301.778 454.883 452.975 518.09 578.878L507.598 585.53C517.952 605.832 530.33 625.562 544.871 644.316L483.578 700.743C477.412 697.576 470.786 694.969 462.595 692.742L449.517 704.753C444.41 702.131 439.675 700.229 435.423 699.609L140.348 970.796C140.177 975.844 141.388 980.957 143.366 986.133L140.923 988.42L135.889 993.029C139.183 1010.51 145.142 1025.16 161.055 1042.37C176.967 1059.58 190.597 1066.06 208.363 1071.37L213.397 1066.71L216.706 1063.71C221.712 1066.23 226.507 1068.09 230.943 1068.73L526.005 797.494C524.9 792.942 523.152 788.383 521.265 783.767L535.07 771.078C533.919 763.025 531.941 756.1 529.042 749.424L590.15 693.257C607.728 709.22 626.457 723.113 645.967 735.045L653.422 725.156C774.213 798.151 926.939 791.361 1028.45 698.107C1029.23 697.388 1029.88 696.657 1030.61 695.981C1153.43 580.66 1152.78 379.505 1028.45 245.129C965.914 177.536 883.914 139.682 801.96 133.054ZM799.659 147.965C800.166 148.015 800.626 148.034 801.086 148.081C809.88 148.996 818.661 150.282 827.407 151.935C827.867 152.018 828.281 152.102 828.695 152.182L830.03 152.437C830.674 152.567 831.364 152.747 832.008 152.882C836.15 153.723 840.291 154.601 844.387 155.609C847.24 156.309 850.047 157.098 852.853 157.877C854.464 158.311 856.029 158.667 857.639 159.124C860.952 160.096 864.219 161.147 867.532 162.225C868.959 162.695 870.431 163.095 871.858 163.583C872.18 163.696 872.502 163.833 872.87 163.955C877.242 165.472 881.567 167.032 885.939 168.748C886.261 168.88 886.629 168.988 886.951 169.12C891.323 170.854 895.74 172.707 900.019 174.636C900.296 174.746 900.526 174.87 900.756 174.981C905.127 176.954 909.499 179.038 913.824 181.214C914.1 181.338 914.33 181.444 914.56 181.564C918.886 183.754 923.211 186.11 927.491 188.504L928.089 188.838C932.368 191.259 936.648 193.718 940.881 196.347C941.019 196.436 941.157 196.572 941.295 196.666C945.575 199.326 949.762 202.012 953.95 204.877C954.088 204.98 954.226 205.102 954.41 205.204C958.551 208.074 962.693 211.037 966.742 214.111C969.273 216.014 971.758 218.056 974.243 220.038C975.899 221.373 977.602 222.665 979.258 224.037C979.35 224.109 979.488 224.138 979.534 224.202C983.584 227.548 987.587 231.111 991.499 234.663C999.595 241.986 1007.37 249.669 1014.78 257.685C1022.24 265.743 1029.23 274.039 1035.77 282.533C1035.81 282.587 1035.9 282.636 1035.9 282.687C1039.17 286.885 1042.39 291.103 1045.43 295.394C1046.72 297.242 1047.91 299.152 1049.16 301.015C1050.86 303.531 1052.56 306.066 1054.17 308.612C1054.26 308.73 1054.4 308.806 1054.49 308.924C1057.21 313.239 1059.83 317.537 1062.36 321.929C1062.45 322.084 1062.59 322.229 1062.68 322.388C1065.17 326.756 1067.56 331.169 1069.86 335.623C1069.96 335.777 1070.05 335.914 1070.14 336.073C1072.44 340.497 1074.56 344.916 1076.63 349.395L1076.9 349.997C1078.97 354.439 1080.95 358.92 1082.79 363.413L1083.07 364.153C1084.91 368.609 1086.66 373.163 1088.27 377.66L1088.55 378.401C1090.16 382.898 1091.63 387.324 1093.01 391.848L1093.29 392.878C1094.67 397.32 1095.86 401.802 1097.06 406.266L1097.33 407.296C1097.7 408.752 1097.98 410.233 1098.35 411.694C1099.13 415.071 1099.96 418.414 1100.65 421.801C1100.97 423.401 1101.2 425.012 1101.48 426.612C1102.03 429.496 1102.63 432.342 1103.09 435.228C1103.78 439.393 1104.28 443.566 1104.79 447.735C1104.88 448.409 1105.02 449.092 1105.11 449.772L1105.25 451.076L1105.39 452.385C1105.85 456.803 1106.26 461.253 1106.54 465.693C1106.81 470.041 1107.04 474.477 1107.09 478.852C1107.14 479.316 1107.09 479.773 1107.09 480.279C1107.18 485.118 1107.14 489.946 1106.95 494.763C1106.81 499.077 1106.58 503.292 1106.26 507.545C1106.22 508.094 1106.17 508.688 1106.08 509.233C1105.76 513.44 1105.34 517.64 1104.79 521.783C1104.24 526.156 1103.55 530.564 1102.81 534.875C1102.72 535.236 1102.72 535.604 1102.63 536.011C1102.53 536.556 1102.49 537.15 1102.35 537.691C1101.61 541.819 1100.69 545.932 1099.77 549.999C1099.64 550.586 1099.5 551.219 1099.36 551.852C1098.37 555.853 1097.31 559.833 1096.18 563.79C1095.4 566.441 1094.57 569.043 1093.75 571.645C1092.92 574.201 1092.18 576.718 1091.31 579.224C1089.93 583.07 1088.5 586.866 1086.98 590.655C1086.7 591.368 1086.38 592.079 1086.11 592.747C1085.92 593.238 1085.74 593.775 1085.55 594.266C1083.9 598.182 1082.2 601.955 1080.35 605.81C1078.61 609.442 1076.81 613.024 1074.88 616.595C1074.51 617.255 1074.14 617.962 1073.73 618.619C1071.84 622.147 1069.91 625.672 1067.84 629.094C1067.42 629.843 1067.01 630.591 1066.55 631.29C1065.63 632.781 1064.62 634.171 1063.7 635.661C1061.99 638.238 1060.25 640.766 1058.5 643.293C1058.5 643.339 1058.54 643.389 1058.5 643.431C1056.24 646.7 1053.9 649.916 1051.46 653.078C1049.34 655.851 1047.09 658.476 1044.83 661.146C1043.96 662.272 1043.17 663.451 1042.25 664.573L1040.37 666.722C1039.63 667.582 1038.85 668.393 1038.07 669.25C1035.54 672.129 1032.87 674.904 1030.15 677.675C1027.39 680.535 1024.49 683.43 1021.55 686.182C1020.81 686.859 1020.12 687.632 1019.38 688.308C922.153 777.675 778.906 781.551 664.189 710.888L664.788 710.108C647.716 699.984 631.38 688.355 615.873 674.953C613.388 672.773 610.995 670.555 608.557 668.287C606.21 666.119 603.817 663.946 601.516 661.69C601.102 661.288 600.642 660.883 600.228 660.435C596.463 656.659 592.766 652.816 589.138 648.908C585.503 644.933 581.96 641.011 578.508 636.959C578.094 636.511 577.726 636.021 577.358 635.577C575.287 633.109 573.309 630.556 571.33 628.05C569.259 625.443 567.235 622.887 565.256 620.242C553.315 604.007 542.868 586.782 534.057 568.804L533.183 569.331C471.844 449.653 487.305 307.653 584.536 218.286C585.273 217.595 586.101 216.995 586.837 216.314C589.828 213.61 592.957 210.969 596.04 208.43C599.031 205.966 602.022 203.567 605.105 201.253C606.348 200.309 607.59 199.314 608.833 198.393C610.443 197.244 612.146 196.305 613.71 195.189C616.609 193.201 619.416 191.141 622.361 189.277C625.766 187.113 629.264 185.068 632.715 183.069C635.384 181.522 638.053 179.985 640.768 178.544C642.838 177.45 644.863 176.339 646.934 175.301C650.109 173.74 653.238 172.328 656.459 170.895C661.547 168.561 666.719 166.39 671.966 164.386C675.969 162.883 679.881 161.488 683.884 160.173C684.62 159.948 685.357 159.851 686.047 159.626C690.51 158.22 694.928 156.856 699.437 155.679C702.014 155.004 704.591 154.458 707.214 153.86C709.883 153.243 712.552 152.603 715.267 152.068C719.316 151.264 723.412 150.518 727.461 149.893C727.783 149.841 728.151 149.88 728.473 149.828C730.406 149.547 732.339 149.252 734.225 149C737.308 148.601 740.483 148.185 743.566 147.887C743.98 147.852 744.349 147.872 744.717 147.838C749.088 147.437 753.552 147.094 757.969 146.894C771.796 146.278 785.726 146.636 799.659 147.965V147.965Z" fill="#2D3335" fill-opacity="0.3"/>
</g>
<path d="M575.471 619.784C450.419 494.714 450.419 291.918 575.471 166.848C700.542 41.7773 903.333 41.7773 1028.4 166.848C1153.47 291.918 1153.47 494.714 1028.4 619.784C903.333 744.855 700.542 744.855 575.471 619.784ZM589.092 606.164C709.147 726.264 899.283 730.774 1019.34 610.719C1139.44 490.618 1134.88 300.5 1014.83 180.432C894.774 60.3676 704.637 55.8351 584.536 175.904C464.481 295.972 468.991 486.109 589.092 606.164Z" fill="#ABABAB"/>
<path d="M575.471 619.785C450.419 494.714 450.419 291.919 575.471 166.848C576.253 166.084 576.99 165.334 577.772 164.58C454.961 289.825 455.711 490.941 580.027 615.229C704.315 739.563 905.449 740.3 1030.66 617.484C1029.92 618.266 1029.19 619.002 1028.4 619.785C903.333 744.855 700.542 744.855 575.471 619.785ZM586.791 173.64C587.573 172.872 588.31 172.135 589.092 171.376C709.147 51.3075 899.283 55.8355 1019.34 175.904C1139.44 295.973 1143.95 486.109 1023.89 606.164L1021.59 608.465C1139.35 488.272 1134.15 299.741 1014.83 180.432C895.51 61.1273 706.984 55.8999 586.791 173.64V173.64Z" fill="#9EAAAC"/>
<path d="M584.537 610.718C704.637 730.773 899.284 730.773 1019.34 610.718C1139.44 490.618 1139.44 295.972 1019.34 175.903C899.284 55.8344 704.637 55.8344 584.537 175.903C464.482 295.972 464.482 490.618 584.537 610.718V610.718Z" fill="#D0E9F2" fill-opacity="0.476"/>
<path d="M584.537 610.718C704.637 730.773 899.284 730.773 1019.34 610.718C1139.44 490.618 1139.44 295.972 1019.34 175.903C899.284 55.8344 704.637 55.8344 584.537 175.903C464.482 295.972 464.482 490.618 584.537 610.718Z" fill="url(#paint0_radial_1145_1542)"/>
<path d="M534.011 530.469L507.552 549.289C522.737 577.865 542.34 604.738 566.452 628.804C590.518 652.916 617.392 672.519 645.967 687.704L664.788 661.245C637.546 647.256 611.916 628.988 589.092 606.164C566.268 583.341 548 557.71 534.011 530.469V530.469Z" fill="url(#paint1_linear_1145_1542)"/>
<path d="M574.367 620.888C582.328 628.849 588.54 637.776 593.326 647.209L472.719 767.816C462.999 762.931 454.117 756.532 446.407 748.858C438.728 741.147 432.327 732.262 427.444 722.537L548.046 601.93C557.479 606.715 566.406 612.927 574.367 620.888Z" fill="#26A5B8"/>
<path d="M535.024 732.707L230.994 1036.73C212.661 1026.65 204.158 1022.93 188.245 1007.01C172.333 991.085 168.611 982.618 158.524 964.258L462.549 660.232C485.833 677.488 518.32 708.089 535.024 732.707Z" fill="#9EAAAC"/>
<path d="M486.754 709.192C502.675 725.114 520.943 739.839 525.959 759.902L230.994 1054.86C201.006 1031.12 164.018 996.008 140.408 964.257L435.368 669.297C451.432 670.355 470.602 693.041 486.523 708.962L486.754 709.192V709.192Z" fill="url(#paint2_linear_1145_1542)"/>
<path opacity="0.596" d="M485.603 710.297C501.525 726.218 520.943 739.839 525.959 759.902L230.994 1054.86C194.748 1023.07 176.705 1005.95 140.408 964.257L435.368 669.297C451.432 670.355 469.498 694.375 485.419 710.297H485.603Z" fill="#00D8F9"/>
<path opacity="0.604" d="M603.587 170.487C790.686 22.4412 963.107 111.919 961.496 194.889C959.886 277.86 701.186 518.642 610.075 499.131C518.964 479.62 492.965 253.458 603.587 170.487Z" fill="url(#paint3_linear_1145_1542)"/>
<path opacity="0.765" d="M1009.86 594.016C886.583 695.158 817.467 690.695 834.677 654.48C851.841 618.266 1029.42 462.779 1071.43 453.162C1113.39 443.531 1081.87 536.174 1009.86 594.016V594.016Z" fill="url(#paint4_linear_1145_1542)"/>
<path d="M800.672 300.518C779.434 265.121 744.037 240.344 701.561 240.344C641.387 240.344 595.372 286.359 595.372 346.534C595.372 463.343 659.086 481.041 800.672 615.548C942.259 481.041 1005.97 463.343 1005.97 346.534C1005.97 286.359 959.957 240.344 899.783 240.344C857.307 240.344 821.91 265.121 800.672 300.518Z" fill="#26A5B8"/>
</g>
<defs>
<filter id="filter0_f_1145_1542" x="127.301" y="123.414" width="1003.5" height="956.539" filterUnits="userSpaceOnUse" color-interpolation-filters="sRGB">
<feFlood flood-opacity="0" result="BackgroundImageFix"/>
<feBlend mode="normal" in="SourceGraphic" in2="BackgroundImageFix" result="shape"/>
<feGaussianBlur stdDeviation="4.29399" result="effect1_foregroundBlur_1145_1542"/>
</filter>
<radialGradient id="paint0_radial_1145_1542" cx="0" cy="0" r="1" gradientUnits="userSpaceOnUse" gradientTransform="translate(801.956 393.308) rotate(45) scale(307.454)">
<stop stop-color="#D0E9F2" stop-opacity="0"/>
<stop offset="0.839" stop-color="#D0E9F2" stop-opacity="0"/>
<stop offset="0.943" stop-color="#D0E9F2" stop-opacity="0.282"/>
<stop offset="1" stop-color="#D0E9F2"/>
</radialGradient>
<linearGradient id="paint1_linear_1145_1542" x1="582.924" y1="612.344" x2="555.206" y2="666.15" gradientUnits="userSpaceOnUse">
<stop stop-color="#ABABAB"/>
<stop offset="0.5" stop-color="#4C464A"/>
<stop offset="1" stop-color="#384042"/>
</linearGradient>
<linearGradient id="paint2_linear_1145_1542" x1="423.751" y1="862.151" x2="333.169" y2="771.569" gradientUnits="userSpaceOnUse">
<stop stop-color="#2D3335"/>
<stop offset="0.5" stop-color="#4C464A"/>
<stop offset="1" stop-color="#384042"/>
</linearGradient>
<linearGradient id="paint3_linear_1145_1542" x1="582.742" y1="91.1794" x2="828.097" y2="585.318" gradientUnits="userSpaceOnUse">
<stop stop-color="white"/>
<stop offset="1" stop-color="white" stop-opacity="0"/>
</linearGradient>
<linearGradient id="paint4_linear_1145_1542" x1="1004.73" y1="624.198" x2="919.339" y2="500.012" gradientUnits="userSpaceOnUse">
<stop stop-color="white"/>
<stop offset="1" stop-color="white" stop-opacity="0"/>
</linearGradient>
<clipPath id="clip0_1145_1542">
<rect width="1178" height="1178" fill="white"/>
</clipPath>
</defs>
</svg>
