<svg width="123" height="123" viewBox="0 0 123 123" fill="none" xmlns="http://www.w3.org/2000/svg">
<g clip-path="url(#clip0_384:5931)">
<path d="M123 61.5007C123 59.1032 121.604 56.9507 119.452 56.021L95.4908 45.626L119.442 35.2335C121.604 34.299 123 32.1489 123 29.7538C123 27.3586 121.604 25.2085 119.452 24.2788L65.3293 0.79831C62.903 -0.26833 60.1138 -0.270733 57.6731 0.793506L3.55787 24.2764C1.39576 25.2109 0 27.361 0 29.7562C0 32.1513 1.39576 34.3014 3.54826 35.2311L27.5068 45.6284L3.55547 56.021C1.39576 56.9531 0 59.1032 0 61.5007C0 63.8959 1.39576 66.046 3.54826 66.9757L27.5044 77.3682L3.55547 87.7583C1.39576 88.6953 0 90.8454 0 93.2429C0 95.638 1.39576 97.7881 3.54826 98.7178L57.6779 122.203C58.8835 122.726 60.1834 122.997 61.4976 122.998C62.7997 122.998 64.1017 122.734 65.3173 122.203L119.44 98.7226C121.602 97.7881 122.998 95.638 122.998 93.2429C122.998 90.8454 121.602 88.6929 119.449 87.7632L95.4932 77.3706L119.442 66.9805C121.604 66.046 123 63.8959 123 61.5007ZM10.8658 29.7562L60.8418 8.07261L60.849 8.0678C61.267 7.89724 61.7258 7.88522 62.1582 8.07261L112.134 29.7562L62.1582 51.4421C61.7234 51.6271 61.2598 51.6271 60.8418 51.4421L10.8658 29.7562ZM112.134 93.2429L62.1582 114.926C61.7234 115.111 61.2598 115.111 60.8418 114.926L10.8658 93.2405L37.4742 81.6948L57.6803 90.461C58.8859 90.984 60.1858 91.2546 61.5 91.2562C62.8021 91.2562 64.1041 90.9919 65.3197 90.461L85.5258 81.6948L112.134 93.2429ZM62.1582 83.1843C61.7234 83.3693 61.2598 83.3693 60.8418 83.1843L10.8658 61.4983L37.4766 49.9527L57.6803 58.7212C58.8859 59.2443 60.1858 59.5149 61.5 59.5164C62.8021 59.5164 64.1041 59.2521 65.3197 58.7212L85.5234 49.9551L112.134 61.5031L62.1582 83.1843Z" fill="black"/>
</g>
<defs>
<clipPath id="clip0_384:5931">
<rect width="123" height="123" fill="white"/>
</clipPath>
</defs>
</svg>
