<svg width="1178" height="772" viewBox="0 0 1178 772" fill="none" xmlns="http://www.w3.org/2000/svg">
<path opacity="0.27" d="M25.3192 553.633C25.3192 553.633 2.51925 239.71 168.892 194.889C335.265 150.069 402.586 97.1868 427.032 65.6528C451.477 34.1187 585.957 -31.208 699.875 17.4217C813.795 66.0514 804.702 145.285 914.115 151.485C1023.53 157.686 1136.23 174.826 1136.23 252.133C1136.23 329.441 1178 498.271 1178 498.271C1178 498.271 237.427 698.968 25.3192 553.633V553.633Z" fill="#68E1FD"/>
<path d="M929.565 296.871V355.753L1110.97 326.367V282.078C1110.95 275.73 1109.2 269.467 1105.83 263.751C1102.47 258.034 1097.59 253.012 1091.54 249.053C1085.5 245.094 1078.45 242.301 1070.91 240.88C1063.36 239.46 1055.54 239.448 1048 240.844L969.742 255.482C958.309 257.603 948.097 262.858 940.794 270.382C933.489 277.907 929.529 287.25 929.565 296.871V296.871Z" fill="#01F30A"/>
<path d="M1087.82 330.178L1071.19 385.185C1071.19 385.185 1031.32 446.349 962.619 423.894C893.922 401.44 944.757 340.497 944.757 340.497L1087.82 330.178Z" fill="#18F805"/>
<path d="M1029.13 502.397L1021.07 423.894L1039.62 413.176L1043.98 517.057L1029.13 520.998V502.397Z" fill="#68E1FD"/>
<path d="M1029.13 502.397L1021.07 423.894L1039.62 413.176L1043.98 517.057L1029.13 520.998V502.397Z" fill="url(#paint0_linear_721_157)"/>
<path d="M929.393 296.999V355.882L1110.79 326.496V282.206C1110.78 275.858 1109.03 269.596 1105.66 263.88C1102.3 258.163 1097.41 253.14 1091.37 249.181C1085.32 245.223 1078.27 242.43 1070.74 241.01C1063.19 239.588 1055.37 239.576 1047.81 240.973L969.569 255.61C958.136 257.731 947.925 262.987 940.621 270.512C933.316 278.036 929.357 287.379 929.393 296.999V296.999Z" fill="url(#paint1_linear_721_157)"/>
<path d="M1087.82 330.178L1071.19 385.185C1071.19 385.185 1031.32 446.349 962.619 423.894C893.922 401.44 944.757 340.497 944.757 340.497L1087.82 330.178Z" fill="url(#paint2_linear_721_157)"/>
<path d="M497.769 333.166L473.62 362.109L438.434 343.928L420.033 355.953L471.731 388.195L514.471 374.753L497.769 333.166Z" fill="#68E1FD"/>
<path opacity="0.25" d="M497.769 333.166L473.62 362.109L438.434 343.928L420.033 355.953L471.731 388.195L514.471 374.753L497.769 333.166Z" fill="url(#paint3_linear_721_157)"/>
<path d="M386.656 321.717C386.656 321.717 402.845 320.831 407.027 323.932C411.637 327.935 415.979 332.142 420.033 336.532L435.17 346.696L421.247 353.118L399.337 340.784L386.656 321.717Z" fill="url(#paint4_linear_721_157)"/>
<path d="M1151.74 568.542C1149.09 581.972 1144.99 595.179 1139.47 608.005C1113.31 668.747 1047.05 735.403 886.663 756.218C599.761 793.399 173.82 772.827 34.0246 607.384C27.7927 600.002 22.1245 592.312 17.0528 584.353C10.1514 573.552 4.44428 562.265 0 550.627C0 550.627 61.6818 538.602 121.96 544.293C182.238 549.985 276.757 529.346 343.214 535.259C409.671 541.171 493.29 540.618 493.29 540.618C493.29 540.618 957.115 506.604 1043.91 517.078C1130.72 527.552 1152.63 495.265 1152.63 495.265C1157.05 519.576 1156.75 544.308 1151.74 568.542V568.542Z" fill="#68E1FD"/>
<path d="M240.331 378.939C240.331 378.939 515.173 472.301 1014.24 366.295C1014.24 366.295 987.928 493.737 849.482 525.736C711.037 557.736 493.803 560.149 405.408 525.736C254.47 466.92 240.331 378.939 240.331 378.939Z" fill="#D68E78"/>
<path opacity="0.25" d="M240.331 378.939C240.331 378.939 515.173 472.301 1014.24 366.295C1014.24 366.295 987.928 493.737 849.482 525.736C711.037 557.736 493.803 560.149 405.408 525.736C254.47 466.92 240.331 378.939 240.331 378.939Z" fill="url(#paint5_linear_721_157)"/>
<path d="M240.33 378.938L215.48 367.999V340.495C215.48 340.495 243.299 393.953 442.697 393.953C509.021 393.953 561.905 399.135 627.553 393.953C839.769 377.189 1039.62 333.166 1039.62 333.166L1035.29 358.92L1014.24 366.294C1014.24 366.294 452.978 487.004 240.33 378.938V378.938Z" fill="#8C6239"/>
<path opacity="0.25" d="M240.33 378.938L215.48 367.999V340.495C215.48 340.495 315.072 396.61 514.471 396.61C795.221 396.61 1039.62 333.166 1039.62 333.166L1035.29 358.92L1014.24 366.294C1014.24 366.294 452.978 487.004 240.33 378.938V378.938Z" fill="url(#paint6_linear_721_157)"/>
<path d="M472.352 255.284C472.352 255.284 476.102 276.521 472.352 279.643C468.6 282.766 481.067 285.423 482.416 291.025C483.764 296.628 492.83 300.57 505.81 297.536C509.444 296.675 513.324 296.823 516.846 297.956C520.368 299.09 523.337 301.145 525.291 303.803C525.291 303.803 537.189 299.64 543.153 294.015C543.153 294.015 534.68 269.147 534.222 260.266C533.763 251.387 494.558 234.135 472.352 255.284V255.284Z" fill="url(#paint7_linear_721_157)"/>
<path d="M467.857 252.916C469.88 252.916 556.71 270.964 556.71 270.964C556.71 270.964 546.725 239.961 549.991 225.567C553.255 211.173 498.724 205.925 493.328 207.851C487.931 209.778 484.018 225.124 474.171 228.911C464.322 232.698 445.974 249.195 445.974 249.195L467.857 252.916Z" fill="#FFBB00"/>
<path opacity="0.25" d="M555.673 270.963C555.673 270.963 468.844 252.915 466.82 252.915L444.856 249.128L445.369 248.664L453.275 250.036C455.299 250.036 542.127 268.084 542.127 268.084C542.127 268.084 532.144 237.081 535.409 222.687C536.758 216.753 528.258 212.39 517.439 209.401C533.628 212.014 550.843 217.262 548.954 225.567C545.689 239.939 555.673 270.963 555.673 270.963V270.963Z" fill="url(#paint8_linear_721_157)"/>
<path d="M482.59 221.858L534.972 234.536C535.196 236.662 535.409 238.799 535.699 240.872L477.678 226.959L482.365 222.128L482.59 221.858Z" fill="#D9D9D9"/>
<path d="M444.856 249.126C444.856 249.126 435.79 252.204 472.918 258.937C472.918 258.937 471.029 254.663 473.62 254.153L444.856 249.126Z" fill="#6F7677"/>
<path d="M555.672 270.962C555.672 270.962 559.531 273.73 550.437 274.417C546.033 274.904 541.568 274.904 537.163 274.417L535.247 266.71L555.672 270.962Z" fill="#565A5B"/>
<path d="M445.365 248.97C445.365 248.97 436.299 252.048 473.426 258.781C473.426 258.781 471.537 254.507 474.128 253.997L445.365 248.97Z" fill="url(#paint9_linear_721_157)"/>
<path d="M555.22 271.291C555.22 271.291 559.079 274.06 549.986 274.745C545.581 275.233 541.116 275.233 536.711 274.745L534.795 267.039L555.22 271.291Z" fill="url(#paint10_linear_721_157)"/>
<path d="M514.471 262.438L515.334 271.451C515.334 271.451 518.653 264.342 523.428 266.712C528.205 269.082 518.977 279.445 518.977 279.445L531.334 284.892L534.303 283.498L538.997 284.892L540.725 283.498L542.208 281.15C542.208 281.15 537.055 272.979 537.621 270.964C537.962 269.772 538.17 268.556 538.242 267.332L514.471 262.438Z" fill="#232E30"/>
<path d="M543.153 293.905C543.153 293.905 503.678 308.41 499.981 316.205C496.285 323.999 493.452 396.412 493.452 396.412L627.634 393.955C627.634 393.955 613.954 308.299 543.153 293.905Z" fill="#68E1FD"/>
<path d="M548.954 299.704L526.316 310.954C526.316 310.954 502.706 344.614 500.278 352.453C497.85 360.292 497.067 391.45 497.067 391.45L489.189 378.539C489.189 378.539 493.127 347.825 497.85 339.366C503.758 329.022 510.86 319.167 519.058 309.935C525.291 303.691 530.795 298.242 530.795 298.242L545.878 290.116L550.923 295.829L548.954 299.704Z" fill="#68E1FD"/>
<path opacity="0.25" d="M548.954 299.704L526.316 310.954C526.316 310.954 502.706 344.614 500.278 352.453C497.85 360.292 497.067 391.45 497.067 391.45L489.189 378.539C489.189 378.539 493.127 347.825 497.85 339.366C503.758 329.022 510.86 319.167 519.058 309.935C525.291 303.691 530.795 298.242 530.795 298.242L545.878 290.116L550.923 295.829L548.954 299.704Z" fill="url(#paint11_linear_721_157)"/>
<path d="M546.849 310.957C546.849 310.957 517.466 343.133 515.847 358.214C514.228 373.295 485.465 379.495 485.465 379.495L432.363 353.232L413.179 373.295L442.697 393.955H534.248C534.248 393.955 570.998 362.111 572.483 352.457C573.967 342.801 578.175 316.338 546.849 310.957V310.957Z" fill="#68E1FD"/>
<path opacity="0.25" d="M572.455 352.454C570.971 362.11 555.673 392.316 555.673 392.316L442.697 394.042L413.179 373.47L417.335 369.041L432.363 353.319L485.465 379.582C485.465 379.582 514.2 373.382 515.847 358.301C517.492 343.22 546.849 311.044 546.849 311.044C560.88 313.458 567.76 320.101 570.971 327.542C574.938 336.666 573.292 347.117 572.455 352.454V352.454Z" fill="url(#paint12_linear_721_157)"/>
<path d="M570.216 343.861C568.705 353.516 518.949 393.221 518.949 393.221L455.838 393.886L417.361 368.885L432.391 353.161L485.492 379.425C485.492 379.425 514.228 373.225 515.873 358.144C517.52 343.064 546.876 310.888 546.876 310.888C560.907 313.301 567.787 319.945 570.998 327.385C571.48 332.884 571.218 338.41 570.216 343.861Z" fill="#68E1FD"/>
<path d="M428.856 354.936C428.856 354.936 415.581 342.911 413.179 335.758C410.777 328.606 396.342 327.299 395.424 326.37C394.507 325.439 376.537 325.24 376.537 325.24C376.537 325.24 374.46 326.17 374.028 330.887C373.596 335.604 377.455 346.233 383.877 352.567C390.298 358.899 403.574 359.454 404.248 359.454C404.922 359.454 416.309 370.017 416.309 370.017C416.309 370.017 432.309 362.155 428.856 354.936V354.936Z" fill="url(#paint13_linear_721_157)"/>
<path d="M388.76 325.46C388.76 325.46 365.906 274.418 250.692 251.675C135.478 228.932 63.5432 254.11 63.5432 254.11C63.5432 254.11 166.076 235.354 268.986 259.979C359.187 281.548 380.666 325.328 380.666 325.328L388.76 325.46Z" fill="#EAB892"/>
<path d="M63.5432 254.022L67.9412 560.172H71.584L65.162 253.756C65.162 253.756 64.7578 252.804 63.5432 254.022V254.022Z" fill="#C3D2D6"/>
<path opacity="0.25" d="M582.736 392.227L586.567 392.493L498.605 393.955L498.416 393.623L582.736 392.227Z" fill="url(#paint14_linear_721_157)"/>
<path opacity="0.25" d="M627.634 393.955L607.64 392.581C606.183 384.299 596.362 339.789 552.381 305.111L533.196 296.717C537.244 294.269 541.49 292.05 545.905 290.074L550.95 295.787L572.051 305.111C620.753 343.509 627.634 393.955 627.634 393.955V393.955Z" fill="url(#paint15_linear_721_157)"/>
<path opacity="0.25" d="M607.802 393.955L586.567 392.493L602.487 392.227L607.559 392.582C607.748 393.401 607.802 393.955 607.802 393.955V393.955Z" fill="url(#paint16_linear_721_157)"/>
<path d="M997.048 406.798C997.048 406.798 995.051 412.157 991.652 419.687C984.259 435.852 970.066 462.05 954.416 467.076C954.416 467.076 608.692 557.338 342.189 495.222C342.189 495.222 293.621 467.032 272.899 441.676C269.368 437.575 266.636 433.048 264.804 428.256C264.804 428.256 504.028 486.142 863.432 437.579L997.048 406.798Z" fill="#8C6239"/>
<path opacity="0.25" d="M991.598 419.686C984.205 435.851 970.012 462.049 954.362 467.076C954.362 467.076 608.639 557.338 342.134 495.222C342.134 495.222 293.567 467.032 272.845 441.676C317.419 451.066 542.667 492.608 863.432 449.227L991.598 419.686Z" fill="url(#paint17_linear_721_157)"/>
<path d="M516.117 274.416C516.117 274.416 518.626 274.017 518.545 272.422C518.464 270.828 520.299 267.506 521.513 268.17C522.727 268.835 522.295 274.637 518.356 276.741C514.416 278.844 516.117 274.416 516.117 274.416Z" fill="url(#paint18_linear_721_157)"/>
<path opacity="0.25" d="M1151.74 568.541C1138.24 636.46 1083.13 730.729 886.61 756.217C586.918 795.082 135.478 770.877 16.9989 584.287C21.5556 583.616 26.1891 583.363 30.8138 583.534C44.6017 583.976 59.6035 585.947 71.2873 579.879C78.1135 576.314 82.7551 570.424 89.5547 566.814C102.856 559.75 120.206 563.116 135.829 565.242C218.691 576.581 305.817 546.175 386.467 565.485C398.042 568.276 409.32 572.129 421.274 573.413C434.576 574.941 448.068 573.413 461.37 571.929C536.758 563.603 614.763 557.801 687.751 575.273C730.193 585.416 777.601 602.91 815.673 584.508C824.362 580.3 831.728 574.476 839.957 569.76C856.929 560.082 877.22 555.254 897.079 550.604C939.388 540.838 986.714 527.485 1031.32 530.276C1065.2 532.49 1100.12 551.091 1131.55 561.278C1138.22 563.47 1145.05 565.862 1151.74 568.541V568.541Z" fill="url(#paint19_linear_721_157)"/>
<path opacity="0.25" d="M1139.47 608.006C1113.31 668.748 1047.05 735.404 886.663 756.219C599.761 793.401 173.82 772.828 34.0246 607.385C109.575 611.216 187.823 587.987 260.919 605.459C272.494 608.249 283.772 612.102 295.725 613.387C309.028 614.915 322.518 613.387 335.821 611.903C411.209 603.576 489.215 597.775 562.202 615.247C604.645 625.388 652.053 642.884 690.125 624.481C698.814 620.273 706.179 614.45 714.409 609.732C731.381 600.056 751.672 595.228 771.53 590.578C813.838 580.812 861.165 567.459 905.767 570.249C939.656 572.463 974.571 591.065 1006.01 601.251C1009.95 602.513 1081.23 605.348 1139.47 608.006V608.006Z" fill="url(#paint20_linear_721_157)"/>
<path d="M1134.68 486.695C1125.95 486.96 1117.93 490.614 1110.4 494.334C1102.88 498.055 1095.26 502.018 1086.57 502.993C1069.93 504.898 1054.2 495.442 1037.31 495.729C1021.52 496.017 1007.3 504.852 991.436 504.764C982.558 504.764 973.951 501.82 965.075 502.063C953.904 502.351 943.11 507.599 932.075 505.982C928.351 505.451 924.844 504.123 921.147 503.458C904.499 500.446 888.984 510.633 872.579 514.22C858.548 517.254 843.681 515.438 829.165 516.102C798.297 517.498 769.938 530.054 739.772 535.567C718.052 539.554 695.657 539.864 673.423 540.307C670.289 540.095 667.158 540.74 664.519 542.145C660.579 544.802 661.469 550.316 665.058 553.217C668.975 555.961 673.916 557.523 679.062 557.646C704.722 559.861 729.924 552.376 755.152 547.924C766.971 545.821 778.923 544.381 790.877 542.964L829.92 538.314C873.875 533.132 918.449 527.995 962.538 532.246C978.188 533.752 993.756 536.432 1009.51 536.298C1035.69 536.055 1061.22 528.017 1087.38 528.814C1097.16 529.123 1106.87 530.652 1116.63 530.563C1126.4 530.474 1136.71 528.348 1143.61 522.768C1156.89 511.873 1160.73 485.898 1134.68 486.695V486.695Z" fill="#68E1FD"/>
<path opacity="0.25" d="M1143.67 522.679C1136.73 528.348 1126.43 530.364 1116.68 530.474C1106.95 530.585 1097.21 529.035 1087.43 528.724C1067.77 528.127 1048.45 532.533 1028.95 534.837C1022.53 535.647 1016.06 536.106 1009.57 536.21C993.81 536.342 978.241 533.663 962.592 532.157C918.502 527.905 873.928 533.043 829.974 538.224L790.93 542.876L789.285 543.074C777.898 544.426 766.539 545.843 755.287 547.836C730.059 552.264 704.857 559.771 679.198 557.557C675.815 557.353 672.498 556.694 669.375 555.608C667.832 555.014 666.418 554.213 665.193 553.239C661.604 550.316 660.714 544.802 664.654 542.167C667.293 540.762 670.424 540.117 673.558 540.329C695.791 539.886 718.186 539.576 739.907 535.59C765.621 530.895 790.014 521.085 815.754 517.431C820.216 516.774 824.72 516.337 829.246 516.124C831.944 515.992 834.641 515.97 837.34 515.97C846.744 516.298 856.165 516.106 865.537 515.393C867.956 515.131 870.353 514.747 872.714 514.242C889.227 510.655 904.742 500.468 921.282 503.48C924.979 504.145 928.487 505.473 932.21 506.004C943.245 507.621 954.039 502.373 965.209 502.085C974.087 501.841 982.693 504.742 991.571 504.786C994.713 504.78 997.845 504.483 1000.91 503.901C1007.68 502.392 1014.35 500.603 1020.91 498.542C1026.18 496.93 1031.73 495.989 1037.36 495.751C1054.16 495.464 1069.98 504.92 1086.63 503.015C1095.32 502.04 1102.98 498.077 1110.45 494.357C1117.93 490.636 1125.95 486.982 1134.74 486.717C1160.73 485.897 1156.89 511.873 1143.67 522.679V522.679Z" fill="url(#paint21_linear_721_157)"/>
<path opacity="0.25" d="M1029.32 534.529L1028.91 534.839C1022.5 535.65 1016.02 536.109 1009.54 536.212C993.783 536.345 978.214 533.665 962.565 532.159C918.476 527.908 873.901 533.046 829.947 538.227L790.904 542.878L789.257 543.077C764.677 544.317 740.096 547.196 715.705 550.075C702.671 551.625 689.667 553.153 676.661 554.725L669.349 555.611C667.804 555.016 666.392 554.215 665.167 553.241C661.578 550.318 660.688 544.805 664.627 542.169C667.266 540.765 670.397 540.119 673.531 540.331C695.764 539.888 718.16 539.578 739.881 535.592C765.594 530.897 789.986 521.087 815.727 517.434C816.463 517.608 817.211 517.748 817.967 517.855C824.443 518.806 830.865 517.389 837.313 515.972C841.756 514.867 846.336 514.176 850.966 513.912C855.867 513.951 860.747 514.449 865.509 515.396C869.385 516.107 873.332 516.522 877.301 516.636C893.086 516.636 907.333 507.778 923.171 507.602C939.953 507.291 955.793 516.747 972.44 514.865C981.102 513.89 988.629 509.927 996.238 506.206C997.804 505.431 999.423 504.634 1001.04 503.992C1006.9 500.957 1013.56 499.12 1020.47 498.633H1021.03C1046.35 498.102 1042.45 523.789 1029.32 534.529V534.529Z" fill="white"/>
<path d="M435.17 388.154L624.828 382.174L627.527 393.911L580.766 395.948L525.101 396.524H487.326L442.563 394.021L435.17 388.154Z" fill="url(#paint22_linear_721_157)"/>
<defs>
<linearGradient id="paint0_linear_721_157" x1="1021.07" y1="467.076" x2="1043.98" y2="467.076" gradientUnits="userSpaceOnUse">
<stop stop-opacity="0"/>
<stop offset="0.91" stop-opacity="0.8"/>
<stop offset="1"/>
</linearGradient>
<linearGradient id="paint1_linear_721_157" x1="1133.28" y1="264.093" x2="866.414" y2="378.366" gradientUnits="userSpaceOnUse">
<stop stop-opacity="0"/>
<stop offset="0.91" stop-opacity="0.8"/>
<stop offset="1"/>
</linearGradient>
<linearGradient id="paint2_linear_721_157" x1="1096.93" y1="384.056" x2="1022.3" y2="375.446" gradientUnits="userSpaceOnUse">
<stop stop-opacity="0"/>
<stop offset="0.91" stop-opacity="0.8"/>
<stop offset="1"/>
</linearGradient>
<linearGradient id="paint3_linear_721_157" x1="470.058" y1="352.365" x2="466.606" y2="376.074" gradientUnits="userSpaceOnUse">
<stop stop-opacity="0"/>
<stop offset="0.91" stop-opacity="0.8"/>
<stop offset="1"/>
</linearGradient>
<linearGradient id="paint4_linear_721_157" x1="414.744" y1="328.295" x2="398.334" y2="365.921" gradientUnits="userSpaceOnUse">
<stop stop-color="#ECC4D7"/>
<stop offset="0.42" stop-color="#EFD4D1"/>
<stop offset="1" stop-color="#F2EAC9"/>
</linearGradient>
<linearGradient id="paint5_linear_721_157" x1="240.331" y1="458.461" x2="1014.24" y2="458.461" gradientUnits="userSpaceOnUse">
<stop stop-opacity="0"/>
<stop offset="0.91" stop-opacity="0.8"/>
<stop offset="1"/>
</linearGradient>
<linearGradient id="paint6_linear_721_157" x1="627.472" y1="344.681" x2="628.163" y2="425.313" gradientUnits="userSpaceOnUse">
<stop stop-opacity="0"/>
<stop offset="0.91" stop-opacity="0.8"/>
<stop offset="1"/>
</linearGradient>
<linearGradient id="paint7_linear_721_157" x1="519.786" y1="271.25" x2="493.873" y2="282.647" gradientUnits="userSpaceOnUse">
<stop stop-color="#ECC4D7"/>
<stop offset="0.42" stop-color="#EFD4D1"/>
<stop offset="1" stop-color="#F2EAC9"/>
</linearGradient>
<linearGradient id="paint8_linear_721_157" x1="444.856" y1="240.182" x2="555.673" y2="240.182" gradientUnits="userSpaceOnUse">
<stop stop-opacity="0"/>
<stop offset="0.91" stop-opacity="0.8"/>
<stop offset="1"/>
</linearGradient>
<linearGradient id="paint9_linear_721_157" x1="462.795" y1="246.49" x2="457.609" y2="261.96" gradientUnits="userSpaceOnUse">
<stop stop-opacity="0"/>
<stop offset="0.91" stop-opacity="0.8"/>
<stop offset="1"/>
</linearGradient>
<linearGradient id="paint10_linear_721_157" x1="520.883" y1="259.267" x2="520.883" y2="274.236" gradientUnits="userSpaceOnUse">
<stop stop-opacity="0"/>
<stop offset="0.91" stop-opacity="0.8"/>
<stop offset="1"/>
</linearGradient>
<linearGradient id="paint11_linear_721_157" x1="486.301" y1="295.785" x2="513.749" y2="347.531" gradientUnits="userSpaceOnUse">
<stop stop-opacity="0"/>
<stop offset="0.91" stop-opacity="0.8"/>
<stop offset="1"/>
</linearGradient>
<linearGradient id="paint12_linear_721_157" x1="461.477" y1="305.066" x2="527.861" y2="449.862" gradientUnits="userSpaceOnUse">
<stop stop-opacity="0"/>
<stop offset="0.91" stop-opacity="0.8"/>
<stop offset="1"/>
</linearGradient>
<linearGradient id="paint13_linear_721_157" x1="386.116" y1="350.152" x2="409.505" y2="341.676" gradientUnits="userSpaceOnUse">
<stop stop-color="#ECC4D7"/>
<stop offset="0.42" stop-color="#EFD4D1"/>
<stop offset="1" stop-color="#F2EAC9"/>
</linearGradient>
<linearGradient id="paint14_linear_721_157" x1="498.416" y1="393.092" x2="586.567" y2="393.092" gradientUnits="userSpaceOnUse">
<stop stop-opacity="0"/>
<stop offset="0.91" stop-opacity="0.8"/>
<stop offset="1"/>
</linearGradient>
<linearGradient id="paint15_linear_721_157" x1="533.17" y1="342.025" x2="627.553" y2="342.025" gradientUnits="userSpaceOnUse">
<stop stop-opacity="0"/>
<stop offset="0.91" stop-opacity="0.8"/>
<stop offset="1"/>
</linearGradient>
<linearGradient id="paint16_linear_721_157" x1="586.567" y1="393.092" x2="607.802" y2="393.092" gradientUnits="userSpaceOnUse">
<stop stop-opacity="0"/>
<stop offset="0.91" stop-opacity="0.8"/>
<stop offset="1"/>
</linearGradient>
<linearGradient id="paint17_linear_721_157" x1="627.202" y1="457.398" x2="615.867" y2="547.231" gradientUnits="userSpaceOnUse">
<stop stop-opacity="0"/>
<stop offset="0.91" stop-opacity="0.8"/>
<stop offset="1"/>
</linearGradient>
<linearGradient id="paint18_linear_721_157" x1="523.563" y1="272.622" x2="500.849" y2="273.213" gradientUnits="userSpaceOnUse">
<stop stop-opacity="0"/>
<stop offset="0.91" stop-opacity="0.8"/>
<stop offset="1"/>
</linearGradient>
<linearGradient id="paint19_linear_721_157" x1="16.9989" y1="650.942" x2="1151.74" y2="650.942" gradientUnits="userSpaceOnUse">
<stop stop-opacity="0"/>
<stop offset="0.91" stop-opacity="0.8"/>
<stop offset="1"/>
</linearGradient>
<linearGradient id="paint20_linear_721_157" x1="583.302" y1="462.98" x2="589.446" y2="850.226" gradientUnits="userSpaceOnUse">
<stop stop-opacity="0"/>
<stop offset="0.91" stop-opacity="0.8"/>
<stop offset="1"/>
</linearGradient>
<linearGradient id="paint21_linear_721_157" x1="901.693" y1="500.092" x2="911.048" y2="552.003" gradientUnits="userSpaceOnUse">
<stop stop-opacity="0"/>
<stop offset="0.91" stop-opacity="0.8"/>
<stop offset="1"/>
</linearGradient>
<linearGradient id="paint22_linear_721_157" x1="531.307" y1="386.847" x2="531.507" y2="410.011" gradientUnits="userSpaceOnUse">
<stop stop-opacity="0"/>
<stop offset="0.91" stop-opacity="0.8"/>
<stop offset="1"/>
</linearGradient>
</defs>
</svg>
