<svg width="1178" height="772" viewBox="0 0 1178 772" fill="none" xmlns="http://www.w3.org/2000/svg">
<path opacity="0.27" d="M25.3192 553.633C25.3192 553.633 2.51925 239.71 168.892 194.889C335.265 150.069 402.586 97.1868 427.032 65.6528C451.477 34.1187 585.957 -31.208 699.875 17.4217C813.795 66.0514 804.702 145.285 914.115 151.485C1023.53 157.686 1136.23 174.826 1136.23 252.133C1136.23 329.441 1178 498.271 1178 498.271C1178 498.271 237.427 698.968 25.3192 553.633V553.633Z" fill="#68E1FD"/>
<path d="M929.565 296.871V355.753L1110.97 326.367V282.078C1110.95 275.73 1109.2 269.467 1105.83 263.751C1102.47 258.034 1097.59 253.012 1091.54 249.053C1085.5 245.094 1078.45 242.301 1070.91 240.88C1063.36 239.46 1055.54 239.448 1048 240.844L969.742 255.482C958.309 257.603 948.097 262.858 940.794 270.382C933.489 277.907 929.529 287.25 929.565 296.871V296.871Z" fill="#01F30A"/>
<path d="M1087.82 330.178L1071.19 385.185C1071.19 385.185 1031.32 446.349 962.619 423.894C893.922 401.44 944.757 340.497 944.757 340.497L1087.82 330.178Z" fill="#18F805"/>
<path d="M1029.13 502.397L1021.07 423.894L1039.62 413.176L1043.98 517.057L1029.13 520.998V502.397Z" fill="#68E1FD"/>
<path d="M1029.13 502.397L1021.07 423.894L1039.62 413.176L1043.98 517.057L1029.13 520.998V502.397Z" fill="url(#paint0_linear_721_157)"/>
<path d="M929.393 296.999V355.882L1110.79 326.496V282.206C1110.78 275.858 1109.03 269.596 1105.66 263.88C1102.3 258.163 1097.41 253.14 1091.37 249.181C1085.32 245.223 1078.27 242.43 1070.74 241.01C1063.19 239.588 1055.37 239.576 1047.81 240.973L969.569 255.61C958.136 257.731 947.925 262.987 940.621 270.512C933.316 278.036 929.357 287.379 929.393 296.999V296.999Z" fill="url(#paint1_linear_721_157)"/>
<path d="M1087.82 330.178L1071.19 385.185C1071.19 385.185 1031.32 446.349 962.619 423.894C893.922 401.44 944.757 340.497 944.757 340.497L1087.82 330.178Z" fill="url(#paint2_linear_721_157)"/>
<path d="M497.769 333.166L473.62 362.109L438.434 343.928L420.033 355.953L471.731 388.195L514.471 374.753L497.769 333.166Z" fill="#68E1FD"/>
<path opacity="0.25" d="M497.769 333.166L473.62 362.109L438.434 343.928L420.033 355.953L471.731 388.195L514.471 374.753L497.769 333.166Z" fill="url(#paint3_linear_721_157)"/>
<path d="M386.656 321.717C386.656 321.717 402.845 320.831 407.027 323.932C411.637 327.935 415.979 332.142 420.033 336.532L435.17 346.696L421.247 353.118L399.337 340.784L386.656 321.717Z" fill="url(#paint4_linear_721_157)"/>
<path d="M1151.74 568.542C1149.09 581.972 1144.99 595.179 1139.47 608.005C1113.31 668.747 1047.05 735.403 886.663 756.218C599.761 793.399 173.82 772.827 34.0246 607.384C27.7927 600.002 22.1245 592.312 17.0528 584.353C10.1514 573.552 4.44428 562.265 0 550.627C0 550.627 61.6818 538.602 121.96 544.293C182.238 549.985 276.757 529.346 343.214 535.259C409.671 541.171 493.29 540.618 493.29 540.618C493.29 540.618 957.115 506.604 1043.91 517.078C1130.72 527.552 1152.63 495.265 1152.63 495.265C1157.05 519.576 1156.75 544.308 1151.74 568.542V568.542Z" fill="#68E1FD"/>
<path d="M240.331 378.939C240.331 378.939 515.173 472.301 1014.24 366.295C1014.24 366.295 987.928 493.737 849.482 525.736C711.037 557.736 493.803 560.149 405.408 525.736C254.47 466.92 240.331 378.939 240.331 378.939Z" fill="#D68E78"/>
<path opacity="0.25" d="M240.331 378.939C240.331 378.939 515.173 472.301 1014.24 366.295C1014.24 366.295 987.928 493.737 849.482 525.736C711.037 557.736 493.803 560.149 405.408 525.736C254.47 466.92 240.331 378.939 240.331 378.939Z" fill="url(#paint5_linear_721_157)"/>
<path d="M240.33 378.938L215.48 367.999V340.495C215.48 340.495 243.299 393.953 442.697 393.953C509.021 393.953 561.905 399.135 627.553 393.953C839.769 377.189 1039.62 333.166 1039.62 333.166L1035.29 358.92L1014.24 366.294C1014.24 366.294 452.978 487.004 240.33 378.938V378.938Z" fill="#8C6239"/>
<path opacity="0.25" d="M240.33 378.938L215.48 367.999V340.495C215.48 340.495 315.072 396.61 514.471 396.61C795.221 396.61 1039.62 333.166 1039.62 333.166L1035.29 358.92L1014.24 366.294C1014.24 366.294 452.978 487.004 240.33 378.938V378.938Z" fill="url(#paint6_linear_721_157)"/>
<path d="M472.352 255.284C472.352 255.284 476.102 276.521 472.352 279.643C468.6 282.766 481.067 285.423 482.416 291.025C483.764 296.628 492.83 300.57 505.81 297.536C509.444 296.675 513.324 296.823 516.846 297.956C520.368 299.09 523.337 301.145 525.291 303.803C525.291 303.803 537.189 299.64 543.153 294.015C543.153 294.015 534.68 269.147 534.222 260.266C533.763 251.387 494.558 234.135 472.352 255.284V255.284Z" fill="url(#paint7_linear_721_157)"/>
<path d="M467.857 252.916C469.88 252.916 556.71 270.964 556.71 270.964C556.71 270.964 546.725 239.961 549.991 225.567C553.255 211.173 498.724 205.925 493.328 207.851C487.931 209.778 484.018 225.124 474.171 228.911C464.322 232.698 445.974 249.195 445.974 249.195L467.857 252.916Z" fill="#FFBB00"/>
<path opacity="0.25" d="M555.673 270.963C555.673 270.963 468.844 252.915 466.82 252.915L444.856 249.128L445.369 248.664L453.275 250.036C455.299 250.036 542.127 268.084 542.127 268.084C542.127 268.084 532.144 237.081 535.409 222.687C536.758 216.753 528.258 212.39 517.439 209.401C533.628 212.014 550.843 217.262 548.954 225.567C545.689 239.939 555.673 270.963 555.673 270.963V270.963Z" fill="url(#paint8_linear_721_157)"/>
<path d="M482.59 221.858L534.972 234.536C535.196 236.662 535.409 238.799 535.699 240.872L477.678 226.959L482.365 222.128L482.59 221.858Z" fill="#D9D9D9"/>
<path d="M444.856 249.126C444.856 249.126 435.79 252.204 472.918 258.937C472.918 258.937 471.029 254.663 473.62 254.153L444.856 249.126Z" fill="#6F7677"/>
<path d="M555.672 270.962C555.672 270.962 559.531 273.73 550.437 274.417C546.033 274.904 541.568 274.904 537.163 274.417L535.247 266.71L555.672 270.962Z" fill="#565A5B"/>
<path d="M445.365 248.97C445.365 248.97 436.299 252.048 473.426 258.781C473.426 258.781 471.537 254.507 474.128 253.997L445.365 248.97Z" fill="url(#paint9_linear_721_157)"/>
<path d="M555.22 271.291C555.22 271.291 559.079 274.06 549.986 274.745C545.581 275.233 541.116 275.233 536.711 274.745L534.795 267.039L555.22 271.291Z" fill="url(#paint10_linear_721_157)"/>
<path d="M514.471 262.438L515.334 271.451C515.334 271.451 518.653 264.342 523.428 266.712C528.205 269.082 518.977 279.445 518.977 279.445L531.334 284.892L534.303 283.498L538.997 284.892L540.725 283.498L542.208 281.15C542.208 281.15 537.055 272.979 537.621 270.964C537.962 269.772 538.17 268.556 538.242 267.332L514.471 262.438Z" fill="#232E30"/>
<path d="M543.153 293.905C543.153 293.905 503.678 308.41 499.981 316.205C496.285 323.999 493.452 396.412 493.452 396.412L627.634 393.955C627.634 393.955 613.954 308.299 543.153 293.905Z" fill="#68E1FD"/>
<path d="M548.954 299.704L526.316 310.954C526.316 310.954 502.706 344.614 500.278 352.453C497.85 360.292 497.067 391.45 497.067 391.45L489.189 378.539C489.189 378.539 493.127 347.825 497.85 339.366C503.758 329.022 510.86 319.167 519.058 309.935C525.291 303.691 530.795 298.242 530.795 298.242L545.878 290.116L550.923 295.829L548.954 299.704Z" fill="#68E1FD"/>
<path opacity="0.25" d="M548.954 299.704L526.316 310.954C526.316 310.954 502.706 344.614 500.278 352.453C497.85 360.292 497.067 391.45 497.067 391.45L489.189 378.539C489.189 378.539 493.127 347.825 497.85 339.366C503.758 329.022 510.86 319.167 519.058 309.935C525.291 303.691 530.795 298.242 530.795 298.242L545.878 290.116L550.923 295.829L548.954 299.704Z" fill="url(#paint11_linear_721_157)"/>
<path d="M546.849 310.957C546.849 310.957 517.466 343.133 515.847 358.214C514.228 373.295 485.465 379.495 485.465 379.495L432.363 353.232L413.179 373.295L442.697 393.955H534.248C534.248 393.955 570.998 362.111 572.483 352.457C573.967 342.801 578.175 316.338 546.849 310.957V310.957Z" fill="#68E1FD"/>
<path opacity="0.25" d="M572.455 352.454C570.971 362.11 555.673 392.316 555.673 392.316L442.697 394.042L413.179 373.47L417.335 369.041L432.363 353.319L485.465 379.582C485.465 379.582 514.2 373.382 515.847 358.301C517.492 343.22 546.849 311.044 546.849 311.044C560.88 313.458 567.76 320.101 570.971 327.542C574.938 336.666 573.292 347.117 572.455 352.454V352.454Z" fill="url(#paint12_linear_721_157)"/>
<path d="M570.216 343.861C568.705 353.516 518.949 393.221 518.949 393.221L455.838 393.886L417.361 368.885L432.391 353.161L485.492 379.425C485.492 379.425 514.228 373.225 515.873 358.144C517.52 343.064 546.876 310.888 546.876 310.888C560.907 313.301 567.787 319.945 570.998 327.385C571.48 332.884 571.218 338.41 570.216 343.861Z" fill="#68E1FD"/>
<path d="M428.856 354.936C428.856 354.936 415.581 342.911 413.179 335.758C410.777 328.606 396.342 327.299 395.424 326.37C394.507 325.439 376.537 325.24 376.537 325.24C376.537 325.24 374.46 326.17 374.028 330.887C373.596 335.604 377.455 346.233 383.877 352.567C390.298 358.899 403.574 359.454 404.248 359.454C404.922 359.454 416.309 370.017 416.309 370.017C416.309 370.017 432.309 362.155 428.856 354.936V354.936Z" fill="url(#paint13_linear_721_157)"/>
<path d="M388.76 325.46C388.76 325.46 365.906 274.418 250.692 251.675C135.478 228.932 63.5432 254.11 63.5432 254.11C63.5432 254.11 166.076 235.354 268.986 259.979C359.187 281.548 380.666 325.328 380.666 325.328L388.76 325.46Z" fill="#EAB892"/>
<path d="M63.5432 254.022L67.9412 560.172H71.584L65.162 253.756C65.162 253.756 64.7578 252.804 63.5432 254.022V254.022Z" fill="#C3D2D6"/>
<path opacity="0.25" d="M582.736 392.227L586.567 392.493L498.605 393.955L498.416 393.623L582.736 392.227Z" fill="url(#paint14_linear_721_157)"/>
<path opacity="0.25" d="M627.634 393.955L607.64 392.581C606.183 384.299 596.362 339.789 552.381 305.111L533.196 296.717C537.244 294.269 541.49 292.05 545.905 290.074L550.95 295.787L572.051 305.111C620.753 343.509 627.634 393.955 627.634 393.955V393.955Z" fill="url(#paint15_linear_721_157)"/>
<path opacity="0.25" d="M607.802 393.955L586.567 392.493L602.487 392.227L607.559 392.582C607.748 393.401 607.802 393.955 607.802 393.955V393.955Z" fill="url(#paint16_linear_721_157)"/>
<path d="M997.048 406.798C997.048 406.798 995.051 412.157 991.652 419.687C984.259 435.852 970.066 462.05 954.416 467.076C954.416 467.076 608.692 557.338 342.189 495.222C342.189 495.222 293.621 467.032 272.899 441.676C269.368 437.575 266.636 433.048 264.804 428.256C264.804 428.256 504.028 486.142 863.432 437.579L997.048 406.798Z" fill="#8C6239"/>
<path opacity="0.25" d="M991.598 419.686C984.205 435.851 970.012 462.049 954.362 467.076C954.362 467.076 608.639 557.338 342.134 495.222C342.134 495.222 293.567 467.032 272.845 441.676C317.419 451.066 542.667 492.608 863.432 449.227L991.598 419.686Z" fill="url(#paint17_linear_721_157)"/>
<path d="M516.117 274.416C516.117 274.416 518.626 274.017 518.545 272.422C518.464 270.828 520.299 267.506 521.513 268.17C522.727 268.835 522.295 274.637 518.356 276.741C514.416 278.844 516.117 274.416 516.117 274.416Z" fill="url(#paint18_linear_721_157)"/>
<path opacity="0.25" d="M1151.74 568.541C1138.24 636.46 1083.13 730.729 886.61 756.217C586.918 795.082 135.478 770.877 16.9989 584.287C21.5556 583.616 26.1891 583.363 30.8138 583.534C44.6017 583.976 59.6035 585.947 71.2873 579.879C78.1135 576.314 82.7551 570.424 89.5547 566.814C102.856 559.75 120.206 563.116 135.829 565.242C218.691 576.581 305.817 546.175 386.467 565.485C398.042 568.276 409.32 572.129 421.274 573.413C434.576 574.941 448.068 573.413 461.37 571.929C536.758 563.603 614.763 557.801 687.751 575.273C730.193 585.416 777.601 602.91 815.673 584.508C824.362 580.3 831.728 574.476 839.957 569.76C856.929 560.082 877.22 555.254 897.079 550.604C939.388 540.838 986.714 527.485 1031.32 530.276C1065.2 532.49 1100.12 551.091 1131.55 561.278C1138.22 563.47 1145.05 565.862 1151.74 568.541V568.541Z" fill="url(#paint19_linear_721_157)"/>
<path opacity="0.25" d="M1139.47 608.006C1113.31 668.748 1047.05 735.404 886.663 756.219C599.761 793.401 173.82 772.828 34.0246 607.385C109.575 611.216 187.823 587.987 260.919 605.459C272.494 608.249 283.772 612.102 295.725 613.387C309.028 614.915 322.518 613.387 335.821 611.903C411.209 603.576 489.215 597.775 562.202 615.247C604.645 625.388 652.053 642.884 690.125 624.481C698.814 620.273 706.179 614.45 714.409 609.732C731.381 600.056 751.672 595.228 771.53 590.578C813.838 580.812 861.165 567.459 905.767 570.249C939.656 572.463 974.571 591.065 1006.01 601.251C1009.95 602.513 1081.23 605.348 1139.47 608.006V608.006Z" fill="url(#paint20_linear_721_157)"/>
<path d="M1134.68 486.695C1125.95 486.96 1117.93 490.614 1110.4 494.334C1102.88 498.055 1095.26 502.018 1086.57 502.993C1069.93 504.898 1054.2 495.442 1037.31 495.729C1021.52 496.017 1007.3 504.852 991.436 504.764C982.558 504.764 973.951 501.82 965.075 502.063C953.904 502.351 943.11 507.599 932.075 505.982C928.351 505.451 924.844 504.123 921.147 503.458C904.499 500.446 888.984 510.633 872.579 514.22C858.548 517.254 843.681 515.438 829.165 516.102C798.297 517.498 769.938 530.054 739.772 535.567C718.052 539.554 695.657 539.864 673.423 540.307C670.289 540.095 667.158 540.74 664.519 542.145C660.579 544.802 661.469 550.316 665.058 553.217C668.975 555.961 673.916 557.523 679.062 557.646C704.722 559.861 729.924 552.376 755.152 547.924C766.971 545.821 778.923 544.381 790.877 542.964L829.92 538.314C873.875 533.132 918.449 527.995 962.538 532.246C978.188 533.752 993.756 536.432 1009.51 536.298C1035.69 536.055 1061.22 528.017 1087.38 528.814C1097.16 529.123 1106.87 530.652 1116.63 530.563C1126.4 530.474 1136.71 528.348 1143.61 522.768C1156.89 511.873 1160.73 485.898 1134.68 486.695V486.695Z" fill="#68E1FD"/>
<path opacity="0.25" d="M1143.67 522.679C1136.73 528.348 1126.43 530.364 1116.68 530.474C1106.95 530.585 1097.21 529.035 1087.43 528.724C1067.77 528.127 1048.45 532.533 1028.95 534.837C1022.53 535.647 1016.06 536.106 1009.57 536.21C993.81 536.342 978.241 533.663 962.592 532.157C918.502 527.905 873.928 533.043 829.974 538.224L790.93 542.876L789.285 543.074C777.898 544.426 766.539 545.843 755.287 547.836C730.059 552.264 704.857 559.771 679.198 557.557C675.815 557.353 672.498 556.694 669.375 555.608C667.832 555.014 666.418 554.213 665.193 553.239C661.604 550.316 660.714 544.802 664.654 542.167C667.293 540.762 670.424 540.117 673.558 540.329C695.791 539.886 718.186 539.576 739.907 535.59C765.621 530.895 790.014 521.085 815.754 517.431C820.216 516.774 824.72 516.337 829.246 516.124C831.944 515.992 834.641 515.97 837.34 515.97C846.744 516.298 856.165 516.106 865.537 515.393C867.956 515.131 870.353 514.747 872.714 514.242C889.227 510.655 904.742 500.468 921.282 503.48C924.979 504.145 928.487 505.473 932.21 506.004C943.245 507.621 954.039 502.373 965.209 502.085C974.087 501.841 982.693 504.742 991.571 504.786C994.713 504.78 997.845 504.483 1000.91 503.901C1007.68 502.392 1014.35 500.603 1020.91 498.542C1026.18 496.93 1031.73 495.989 1037.36 495.751C1054.16 495.464 1069.98 504.92 1086.63 503.015C1095.32 502.04 1102.98 498.077 1110.45 494.357C1117.93 490.636 1125.95 486.982 1134.74 486.717C1160.73 485.897 1156.89 511.873 1143.67 522.679V522.679Z" fill="url(#paint21_linear_721_157)"/>
<path opacity="0.25" d="M1029.32 534.529L1028.91 534.839C1022.5 535.65 1016.02 536.109 1009.54 536.212C993.783 536.345 978.214 533.665 962.565 532.159C918.476 527.908 873.901 533.046 829.947 538.227L790.904 542.878L789.257 543.077C764.677 544.317 740.096 547.196 715.705 550.075C702.671 551.625 689.667 553.153 676.661 554.725L669.349 555.611C667.804 555.016 666.392 554.215 665.167 553.241C661.578 550.318 660.688 544.805 664.627 542.169C667.266 540.765 670.397 540.119 673.531 540.331C695.764 539.888 718.16 539.578 739.881 535.592C765.594 530.897 789.986 521.087 815.727 517.434C816.463 517.608 817.211 517.748 817.967 517.855C824.443 518.806 830.865 517.389 837.313 515.972C841.756 514.867 846.336 514.176 850.966 513.912C855.867 513.951 860.747 514.449 865.509 515.396C869.385 516.107 873.332 516.522 877.301 516.636C893.086 516.636 907.333 507.778 923.171 507.602C939.953 507.291 955.793 516.747 972.44 514.865C981.102 513.89 988.629 509.927 996.238 506.206C997.804 505.431 999.423 504.634 1001.04 503.992C1006.9 500.957 1013.56 499.12 1020.47 498.633H1021.03C1046.35 498.102 1042.45 523.789 1029.32 534.529V534.529Z" fill="white"/>
<path d="M435.17 388.154L624.828 382.174L627.527 393.911L580.766 395.948L525.101 396.524H487.326L442.563 394.021L435.17 388.154Z" fill="url(#paint22_linear_721_157)"/>
<g clip-path="url(#clip0_721_157)">
<path d="M485.547 223.194C485.54 223.193 485.511 223.189 485.483 223.184C485.147 223.129 484.811 223.162 484.519 223.278C484.224 223.394 483.939 223.61 483.716 223.886C483.69 223.918 483.664 223.947 483.658 223.95C483.651 223.953 483.639 223.955 483.624 223.952C483.571 223.945 483.503 223.95 483.429 223.967C483.33 223.988 483.265 224.013 483.136 224.077C483.038 224.126 482.962 224.157 482.937 224.158C482.932 224.159 482.927 224.16 482.925 224.161C482.919 224.167 482.85 224.174 482.791 224.175C482.716 224.176 482.671 224.18 482.621 224.192C482.53 224.213 482.444 224.257 482.35 224.332C482.288 224.382 482.288 224.381 482.228 224.404C482.195 224.416 482.18 224.42 482.174 224.417C482.163 224.411 482.158 224.414 482.15 224.432C482.147 224.442 482.141 224.455 482.138 224.463C482.13 224.481 482.136 224.509 482.16 224.561C482.169 224.583 482.183 224.621 482.189 224.645C482.206 224.709 482.214 224.73 482.233 224.763C482.258 224.805 482.301 224.85 482.379 224.917C482.43 224.961 482.455 224.986 482.479 225.016C482.534 225.085 482.594 225.133 482.684 225.18C482.758 225.217 482.778 225.231 482.821 225.274L482.861 225.314L482.817 225.318C482.759 225.324 482.677 225.342 482.637 225.358C482.589 225.377 482.524 225.419 482.486 225.454C482.427 225.507 482.39 225.554 482.344 225.633C482.259 225.781 482.216 225.943 482.225 226.079C482.228 226.133 482.237 226.217 482.24 226.222C482.242 226.224 482.242 226.219 482.241 226.21C482.239 226.201 482.239 226.193 482.24 226.193C482.241 226.192 482.251 226.235 482.263 226.287C482.281 226.373 482.29 226.436 482.285 226.458C482.283 226.466 482.283 226.466 482.288 226.46C482.291 226.456 482.297 226.437 482.302 226.419C482.321 226.346 482.325 226.277 482.314 226.193C482.31 226.166 482.306 226.124 482.304 226.1C482.301 226.06 482.301 226.052 482.311 226.012C482.323 225.963 482.334 225.945 482.37 225.912C482.417 225.868 482.52 225.808 482.683 225.73C482.796 225.676 482.861 225.629 482.921 225.556C482.952 225.52 482.976 225.48 482.99 225.443C482.994 225.433 482.998 225.424 482.999 225.424C482.999 225.425 483.011 225.432 483.025 225.441C483.04 225.45 483.071 225.47 483.095 225.483C483.119 225.498 483.141 225.512 483.144 225.517C483.149 225.524 483.148 225.529 483.138 225.558C483.12 225.614 483.096 225.716 483.09 225.767C483.074 225.9 483.08 226.02 483.109 226.156C483.129 226.256 483.152 226.317 483.21 226.436C483.225 226.466 483.239 226.518 483.245 226.564C483.254 226.627 483.305 226.729 483.355 226.777C483.395 226.817 483.475 226.862 483.528 226.876C483.545 226.88 483.546 226.881 483.58 226.942C483.617 227.007 483.65 227.053 483.688 227.091C483.712 227.115 483.768 227.159 483.771 227.157C483.775 227.154 483.77 227.125 483.758 227.084C483.739 227.026 483.734 227.004 483.733 226.968C483.732 226.951 483.731 226.936 483.732 226.934C483.732 226.933 483.746 226.935 483.764 226.939L483.795 226.946L483.763 226.928L483.731 226.909L483.731 226.859C483.732 226.732 483.752 226.581 483.786 226.447C483.807 226.365 483.82 226.327 483.846 226.266L483.862 226.231L483.877 226.292C483.911 226.439 483.961 226.578 484.023 226.699C484.076 226.802 484.128 226.877 484.209 226.967C484.31 227.081 484.399 227.158 484.713 227.41C484.754 227.442 484.799 227.48 484.815 227.493C484.869 227.54 484.957 227.608 484.966 227.611C484.975 227.614 484.976 227.613 484.979 227.6C484.984 227.576 484.961 227.509 484.924 227.445C484.917 227.432 484.891 227.395 484.866 227.363C484.788 227.262 484.789 227.264 484.792 227.104C484.795 226.988 484.787 226.942 484.748 226.862C484.713 226.787 484.704 226.764 484.698 226.734C484.687 226.675 484.722 226.623 484.772 226.622C484.789 226.622 484.823 226.63 484.857 226.642L484.879 226.65L484.887 226.679C484.928 226.842 484.966 226.94 485.009 226.999C485.021 227.015 485.051 227.052 485.074 227.081C485.266 227.317 485.316 227.485 485.3 227.837C485.299 227.867 485.299 227.893 485.299 227.895C485.3 227.896 485.315 227.842 485.332 227.774C485.38 227.586 485.391 227.491 485.376 227.389C485.367 227.325 485.327 227.199 485.287 227.111C485.257 227.045 485.243 227.006 485.238 226.973C485.234 226.95 485.235 226.941 485.243 226.908C485.252 226.873 485.255 226.868 485.278 226.835C485.337 226.752 485.352 226.724 485.364 226.677C485.376 226.631 485.374 226.603 485.354 226.509C485.344 226.462 485.335 226.412 485.335 226.398C485.334 226.368 485.348 226.312 485.384 226.189C485.404 226.121 485.406 226.113 485.406 226.08C485.407 226.043 485.402 225.987 485.392 225.926C485.385 225.883 485.385 225.884 485.405 225.94C485.423 225.99 485.457 226.05 485.476 226.064C485.488 226.074 485.492 226.083 485.514 226.156C485.595 226.424 485.663 226.765 485.679 226.976C485.688 227.093 485.682 227.201 485.661 227.306L485.658 227.323L485.678 227.3C485.727 227.245 485.774 227.168 485.805 227.091C485.834 227.02 485.866 226.878 485.873 226.789C485.881 226.7 485.882 226.615 485.876 226.569C485.876 226.564 485.882 226.568 485.904 226.587C485.964 226.64 485.995 226.641 486.001 226.589C486.002 226.578 486.004 226.571 486.006 226.572C486.007 226.573 486.018 226.582 486.029 226.593C486.041 226.603 486.068 226.624 486.088 226.638C486.125 226.665 486.147 226.677 486.221 226.714C486.261 226.734 486.294 226.761 486.297 226.775C486.299 226.78 486.301 226.799 486.302 226.817C486.308 226.914 486.327 226.955 486.393 227.022C486.443 227.072 486.46 227.097 486.46 227.119C486.461 227.133 486.456 227.144 486.418 227.215C486.326 227.391 486.288 227.48 486.262 227.581C486.23 227.707 486.235 227.795 486.278 227.869C486.286 227.882 486.286 227.883 486.283 227.847C486.28 227.804 486.285 227.76 486.3 227.712C486.32 227.648 486.344 227.607 486.433 227.483C486.536 227.339 486.588 227.229 486.638 227.051C486.683 226.89 486.702 226.739 486.699 226.577C486.698 226.547 486.697 226.495 486.696 226.462C486.693 226.324 486.663 226.192 486.597 226.018C486.53 225.841 486.433 225.686 486.295 225.534C486.164 225.388 485.995 225.248 485.803 225.124C485.681 225.045 485.568 224.985 485.349 224.88C485.237 224.826 485.189 224.8 485.132 224.763C485.044 224.704 484.966 224.636 484.882 224.543C484.824 224.48 484.823 224.484 484.897 224.492C485.041 224.508 485.21 224.591 485.36 224.721C485.376 224.735 485.386 224.741 485.385 224.737C485.382 224.708 485.389 224.644 485.399 224.601C485.413 224.547 485.423 224.529 485.465 224.469C485.489 224.436 485.495 224.424 485.504 224.397C485.531 224.311 485.514 224.22 485.454 224.138C485.423 224.095 485.397 224.049 485.395 224.035C485.395 224.029 485.398 224.013 485.403 224C485.407 223.987 485.41 223.973 485.409 223.97C485.406 223.959 485.379 223.927 485.354 223.904C485.333 223.886 485.291 223.855 485.224 223.812C485.206 223.801 485.204 223.799 485.213 223.799C485.255 223.801 485.299 223.8 485.318 223.798L485.342 223.795L485.331 223.771C485.312 223.73 485.308 223.703 485.316 223.664C485.325 223.623 485.335 223.606 485.396 223.53C485.419 223.501 485.441 223.471 485.444 223.464C485.448 223.456 485.45 223.44 485.449 223.421C485.448 223.358 485.45 223.343 485.464 223.321C485.479 223.297 485.505 223.271 485.537 223.247C485.549 223.237 485.567 223.224 485.577 223.216L485.594 223.204L485.577 223.2C485.568 223.198 485.554 223.196 485.547 223.194ZM484.563 225.282C484.576 225.297 484.608 225.34 484.633 225.378C484.657 225.416 484.692 225.468 484.71 225.492C484.729 225.518 484.748 225.546 484.753 225.556C484.763 225.575 484.769 225.609 484.771 225.655C484.782 225.882 484.792 226.016 484.816 226.215C484.821 226.252 484.823 226.282 484.822 226.282C484.821 226.283 484.805 226.272 484.787 226.259C484.725 226.214 484.631 226.159 484.562 226.128C484.501 226.1 484.502 226.1 484.296 226.03C484.213 226.002 484.152 225.972 484.102 225.935C484.047 225.895 484.016 225.861 483.96 225.778C483.943 225.754 483.92 225.722 483.909 225.706L483.888 225.679L483.93 225.67C484.203 225.612 484.415 225.45 484.502 225.235L484.508 225.219L484.523 225.236C484.53 225.246 484.548 225.267 484.563 225.282ZM483.452 225.644C483.468 225.65 483.5 225.66 483.523 225.667C483.547 225.673 483.566 225.678 483.566 225.678C483.566 225.679 483.542 225.782 483.511 225.909C483.462 226.116 483.456 226.144 483.451 226.193C483.442 226.293 483.441 226.374 483.45 226.481C483.454 226.53 483.457 226.555 483.465 226.608L483.468 226.624L483.452 226.609C483.413 226.57 483.372 226.516 483.35 226.472C483.333 226.436 483.319 226.375 483.321 226.341C483.323 226.307 483.344 226.239 483.364 226.204C483.417 226.106 483.421 226.097 483.438 226.029C483.463 225.927 483.465 225.859 483.445 225.764C483.433 225.706 483.421 225.678 483.389 225.636C483.38 225.624 483.373 225.613 483.373 225.611C483.373 225.61 483.384 225.614 483.398 225.62C483.411 225.627 483.435 225.637 483.452 225.644ZM483.714 225.727C483.762 225.786 483.8 225.865 483.816 225.936L483.823 225.968L483.799 225.937C483.787 225.92 483.763 225.892 483.747 225.875C483.702 225.824 483.672 225.77 483.664 225.72C483.659 225.695 483.661 225.689 483.674 225.691C483.687 225.692 483.686 225.692 483.714 225.727ZM483.451 226.65C483.475 226.663 483.475 226.663 483.482 226.689C483.486 226.703 483.492 226.725 483.496 226.737L483.502 226.76L483.474 226.738C483.418 226.694 483.367 226.634 483.377 226.624C483.382 226.619 483.414 226.63 483.451 226.65Z" fill="black"/>
</g>
<g clip-path="url(#clip1_721_157)">
<path d="M492.037 224.736C492.03 224.735 492.001 224.731 491.974 224.726C491.638 224.672 491.301 224.705 491.009 224.82C490.714 224.937 490.43 225.152 490.206 225.428C490.18 225.46 490.154 225.489 490.148 225.492C490.141 225.496 490.13 225.497 490.115 225.495C490.061 225.488 489.993 225.492 489.919 225.509C489.821 225.53 489.755 225.555 489.627 225.619C489.529 225.668 489.453 225.699 489.428 225.7C489.423 225.701 489.417 225.702 489.415 225.703C489.41 225.709 489.34 225.716 489.281 225.717C489.206 225.718 489.162 225.722 489.111 225.734C489.02 225.755 488.934 225.799 488.84 225.874C488.778 225.924 488.779 225.923 488.718 225.946C488.686 225.958 488.67 225.962 488.665 225.959C488.654 225.953 488.648 225.956 488.641 225.975C488.637 225.984 488.631 225.997 488.628 226.005C488.62 226.023 488.627 226.051 488.65 226.103C488.66 226.125 488.673 226.163 488.68 226.187C488.696 226.251 488.704 226.272 488.724 226.305C488.749 226.347 488.792 226.392 488.87 226.46C488.92 226.503 488.945 226.528 488.97 226.559C489.025 226.628 489.085 226.676 489.175 226.722C489.249 226.76 489.268 226.773 489.311 226.817L489.352 226.857L489.307 226.86C489.25 226.866 489.167 226.884 489.128 226.9C489.08 226.92 489.015 226.961 488.976 226.996C488.917 227.049 488.881 227.096 488.835 227.176C488.75 227.323 488.706 227.485 488.715 227.621C488.719 227.675 488.728 227.759 488.731 227.764C488.732 227.767 488.733 227.761 488.731 227.753C488.73 227.743 488.729 227.736 488.73 227.735C488.731 227.734 488.742 227.777 488.753 227.829C488.772 227.916 488.78 227.978 488.775 228C488.773 228.008 488.774 228.008 488.779 228.002C488.782 227.998 488.788 227.98 488.793 227.961C488.812 227.889 488.815 227.82 488.804 227.735C488.8 227.708 488.796 227.666 488.794 227.642C488.791 227.602 488.792 227.594 488.801 227.554C488.814 227.505 488.824 227.487 488.86 227.454C488.907 227.41 489.01 227.35 489.173 227.272C489.287 227.218 489.351 227.171 489.412 227.098C489.442 227.062 489.466 227.023 489.481 226.986C489.485 226.975 489.489 226.967 489.489 226.967C489.489 226.967 489.502 226.974 489.516 226.984C489.53 226.993 489.561 227.012 489.585 227.026C489.61 227.04 489.632 227.055 489.635 227.059C489.64 227.066 489.639 227.071 489.629 227.1C489.61 227.156 489.586 227.258 489.58 227.309C489.565 227.442 489.57 227.562 489.599 227.698C489.62 227.798 489.642 227.859 489.7 227.978C489.716 228.008 489.73 228.061 489.736 228.106C489.744 228.169 489.796 228.271 489.845 228.319C489.885 228.359 489.965 228.405 490.019 228.418C490.035 228.422 490.036 228.423 490.07 228.484C490.108 228.55 490.141 228.595 490.179 228.633C490.203 228.657 490.258 228.701 490.262 228.699C490.266 228.696 490.26 228.667 490.248 228.627C490.229 228.568 490.225 228.546 490.223 228.51C490.222 228.493 490.222 228.478 490.222 228.476C490.222 228.475 490.237 228.477 490.254 228.481L490.285 228.489L490.253 228.47L490.221 228.451L490.221 228.401C490.223 228.274 490.243 228.123 490.276 227.99C490.297 227.907 490.31 227.869 490.337 227.808L490.353 227.773L490.367 227.834C490.402 227.981 490.452 228.12 490.514 228.241C490.567 228.344 490.618 228.419 490.699 228.509C490.801 228.623 490.89 228.701 491.204 228.952C491.244 228.984 491.29 229.022 491.306 229.035C491.36 229.082 491.447 229.151 491.457 229.153C491.466 229.156 491.467 229.155 491.469 229.142C491.475 229.118 491.451 229.052 491.415 228.987C491.408 228.975 491.381 228.938 491.356 228.905C491.278 228.805 491.279 228.807 491.283 228.646C491.285 228.531 491.277 228.485 491.239 228.404C491.203 228.329 491.194 228.306 491.188 228.276C491.177 228.218 491.212 228.166 491.263 228.164C491.28 228.164 491.314 228.172 491.347 228.184L491.37 228.193L491.377 228.221C491.419 228.384 491.457 228.482 491.5 228.541C491.512 228.557 491.541 228.594 491.565 228.623C491.756 228.859 491.807 229.027 491.791 229.379C491.79 229.41 491.789 229.436 491.79 229.437C491.791 229.438 491.806 229.384 491.823 229.316C491.87 229.129 491.881 229.033 491.867 228.931C491.858 228.867 491.817 228.741 491.777 228.653C491.747 228.588 491.733 228.548 491.728 228.515C491.725 228.492 491.726 228.483 491.734 228.451C491.743 228.415 491.745 228.41 491.769 228.377C491.828 228.295 491.843 228.266 491.855 228.219C491.866 228.173 491.864 228.146 491.844 228.051C491.834 228.005 491.825 227.954 491.825 227.94C491.825 227.91 491.838 227.854 491.875 227.731C491.895 227.663 491.897 227.655 491.897 227.623C491.897 227.585 491.892 227.529 491.882 227.469C491.875 227.425 491.875 227.426 491.896 227.482C491.914 227.532 491.948 227.592 491.967 227.607C491.979 227.616 491.983 227.625 492.005 227.698C492.085 227.966 492.154 228.307 492.17 228.518C492.178 228.635 492.172 228.743 492.152 228.848L492.148 228.866L492.169 228.843C492.218 228.787 492.264 228.71 492.296 228.633C492.324 228.562 492.356 228.42 492.364 228.331C492.371 228.242 492.372 228.158 492.367 228.112C492.366 228.106 492.372 228.11 492.395 228.13C492.455 228.183 492.485 228.183 492.491 228.131C492.492 228.121 492.495 228.113 492.496 228.114C492.497 228.115 492.508 228.125 492.52 228.135C492.531 228.145 492.558 228.166 492.579 228.181C492.615 228.207 492.637 228.219 492.712 228.257C492.751 228.276 492.784 228.303 492.788 228.317C492.789 228.322 492.791 228.342 492.792 228.36C492.799 228.456 492.817 228.497 492.884 228.564C492.933 228.614 492.95 228.639 492.951 228.661C492.951 228.675 492.946 228.687 492.909 228.758C492.817 228.933 492.779 229.022 492.753 229.123C492.72 229.25 492.725 229.337 492.769 229.411C492.776 229.424 492.776 229.425 492.774 229.389C492.77 229.346 492.776 229.302 492.791 229.254C492.81 229.19 492.834 229.149 492.923 229.025C493.026 228.881 493.078 228.771 493.128 228.593C493.174 228.432 493.193 228.281 493.189 228.119C493.188 228.089 493.187 228.037 493.186 228.004C493.183 227.866 493.153 227.734 493.087 227.561C493.02 227.383 492.923 227.228 492.786 227.076C492.654 226.93 492.486 226.79 492.293 226.667C492.171 226.588 492.058 226.527 491.839 226.422C491.727 226.368 491.68 226.343 491.623 226.305C491.534 226.246 491.456 226.178 491.373 226.086C491.315 226.022 491.314 226.026 491.387 226.034C491.532 226.05 491.7 226.134 491.851 226.263C491.867 226.277 491.877 226.283 491.876 226.279C491.872 226.25 491.879 226.186 491.89 226.143C491.904 226.089 491.913 226.071 491.956 226.011C491.98 225.978 491.986 225.966 491.995 225.939C492.022 225.853 492.004 225.762 491.945 225.68C491.914 225.637 491.887 225.591 491.886 225.577C491.885 225.571 491.888 225.555 491.893 225.542C491.897 225.529 491.901 225.516 491.899 225.512C491.897 225.501 491.869 225.469 491.844 225.446C491.824 225.428 491.781 225.398 491.714 225.354C491.697 225.343 491.695 225.341 491.703 225.341C491.745 225.343 491.789 225.342 491.809 225.34L491.832 225.337L491.821 225.313C491.802 225.272 491.798 225.245 491.807 225.207C491.815 225.165 491.826 225.148 491.886 225.072C491.91 225.043 491.932 225.013 491.935 225.006C491.938 224.998 491.94 224.982 491.94 224.963C491.939 224.9 491.941 224.886 491.955 224.863C491.969 224.84 491.995 224.814 492.027 224.789C492.04 224.779 492.058 224.766 492.067 224.758L492.084 224.746L492.068 224.742C492.059 224.74 492.045 224.738 492.037 224.736ZM491.053 226.824C491.067 226.839 491.099 226.883 491.123 226.92C491.148 226.958 491.183 227.01 491.201 227.035C491.219 227.06 491.238 227.088 491.243 227.098C491.253 227.117 491.259 227.151 491.262 227.197C491.272 227.424 491.283 227.558 491.307 227.758C491.311 227.794 491.314 227.824 491.313 227.824C491.312 227.825 491.295 227.814 491.277 227.801C491.215 227.756 491.121 227.701 491.052 227.67C490.991 227.642 490.992 227.642 490.787 227.572C490.703 227.544 490.642 227.514 490.593 227.477C490.538 227.437 490.507 227.403 490.45 227.321C490.433 227.296 490.41 227.264 490.399 227.249L490.379 227.221L490.42 227.212C490.693 227.154 490.906 226.992 490.992 226.778L490.999 226.761L491.013 226.779C491.021 226.789 491.039 226.809 491.053 226.824ZM489.942 227.186C489.958 227.192 489.991 227.203 490.014 227.209C490.037 227.215 490.056 227.22 490.056 227.22C490.057 227.221 490.032 227.324 490.002 227.451C489.952 227.659 489.946 227.686 489.941 227.736C489.932 227.835 489.932 227.916 489.94 228.023C489.944 228.073 489.947 228.097 489.956 228.15L489.958 228.166L489.943 228.151C489.903 228.112 489.862 228.058 489.841 228.014C489.823 227.979 489.81 227.918 489.811 227.883C489.813 227.85 489.835 227.781 489.854 227.746C489.908 227.648 489.912 227.639 489.928 227.571C489.953 227.469 489.955 227.401 489.935 227.307C489.923 227.248 489.911 227.22 489.88 227.178C489.871 227.166 489.863 227.155 489.863 227.154C489.864 227.152 489.875 227.156 489.888 227.163C489.902 227.169 489.926 227.179 489.942 227.186ZM490.205 227.269C490.253 227.328 490.291 227.407 490.307 227.479L490.314 227.51L490.29 227.479C490.277 227.462 490.254 227.434 490.238 227.417C490.192 227.366 490.163 227.313 490.154 227.262C490.149 227.238 490.152 227.232 490.165 227.233C490.178 227.235 490.177 227.234 490.205 227.269ZM489.941 228.192C489.966 228.205 489.966 228.205 489.973 228.231C489.977 228.245 489.983 228.268 489.986 228.28L489.992 228.302L489.965 228.28C489.908 228.236 489.857 228.176 489.867 228.167C489.873 228.161 489.905 228.172 489.941 228.192Z" fill="black"/>
</g>
<g clip-path="url(#clip2_721_157)">
<path d="M499.037 226.736C499.03 226.735 499.001 226.731 498.974 226.726C498.638 226.672 498.301 226.705 498.009 226.82C497.714 226.937 497.43 227.152 497.206 227.428C497.18 227.46 497.154 227.489 497.148 227.492C497.141 227.496 497.13 227.497 497.115 227.495C497.061 227.488 496.993 227.492 496.919 227.509C496.821 227.53 496.755 227.555 496.627 227.619C496.529 227.668 496.453 227.699 496.428 227.7C496.423 227.701 496.417 227.702 496.415 227.703C496.41 227.709 496.34 227.716 496.281 227.717C496.206 227.718 496.162 227.722 496.111 227.734C496.02 227.755 495.934 227.799 495.84 227.874C495.778 227.924 495.779 227.923 495.718 227.946C495.686 227.958 495.67 227.962 495.665 227.959C495.654 227.953 495.648 227.956 495.641 227.975C495.637 227.984 495.631 227.997 495.628 228.005C495.62 228.023 495.627 228.051 495.65 228.103C495.66 228.125 495.673 228.163 495.68 228.187C495.696 228.251 495.704 228.272 495.724 228.305C495.749 228.347 495.792 228.392 495.87 228.46C495.92 228.503 495.945 228.528 495.97 228.559C496.025 228.628 496.085 228.676 496.175 228.722C496.249 228.76 496.268 228.773 496.311 228.817L496.352 228.857L496.307 228.86C496.25 228.866 496.167 228.884 496.128 228.9C496.08 228.92 496.015 228.961 495.976 228.996C495.917 229.049 495.881 229.096 495.835 229.176C495.75 229.323 495.706 229.485 495.715 229.621C495.719 229.675 495.728 229.759 495.731 229.764C495.732 229.767 495.733 229.761 495.731 229.753C495.73 229.743 495.729 229.736 495.73 229.735C495.731 229.734 495.742 229.777 495.753 229.829C495.772 229.916 495.78 229.978 495.775 230C495.773 230.008 495.774 230.008 495.779 230.002C495.782 229.998 495.788 229.98 495.793 229.961C495.812 229.889 495.815 229.82 495.804 229.735C495.8 229.708 495.796 229.666 495.794 229.642C495.791 229.602 495.792 229.594 495.801 229.554C495.814 229.505 495.824 229.487 495.86 229.454C495.907 229.41 496.01 229.35 496.173 229.272C496.287 229.218 496.351 229.171 496.412 229.098C496.442 229.062 496.466 229.023 496.481 228.986C496.485 228.975 496.489 228.967 496.489 228.967C496.489 228.967 496.502 228.974 496.516 228.984C496.53 228.993 496.561 229.012 496.585 229.026C496.61 229.04 496.632 229.055 496.635 229.059C496.64 229.066 496.639 229.071 496.629 229.1C496.61 229.156 496.586 229.258 496.58 229.309C496.565 229.442 496.57 229.562 496.599 229.698C496.62 229.798 496.642 229.859 496.7 229.978C496.716 230.008 496.73 230.061 496.736 230.106C496.744 230.169 496.796 230.271 496.845 230.319C496.885 230.359 496.965 230.405 497.019 230.418C497.035 230.422 497.036 230.423 497.07 230.484C497.108 230.55 497.141 230.595 497.179 230.633C497.203 230.657 497.258 230.701 497.262 230.699C497.266 230.696 497.26 230.667 497.248 230.627C497.229 230.568 497.225 230.546 497.223 230.51C497.222 230.493 497.222 230.478 497.222 230.476C497.222 230.475 497.237 230.477 497.254 230.481L497.285 230.489L497.253 230.47L497.221 230.451L497.221 230.401C497.223 230.274 497.243 230.123 497.276 229.99C497.297 229.907 497.31 229.869 497.337 229.808L497.353 229.773L497.367 229.834C497.402 229.981 497.452 230.12 497.514 230.241C497.567 230.344 497.618 230.419 497.699 230.509C497.801 230.623 497.89 230.701 498.204 230.952C498.244 230.984 498.29 231.022 498.306 231.035C498.36 231.082 498.447 231.151 498.457 231.153C498.466 231.156 498.467 231.155 498.469 231.142C498.475 231.118 498.451 231.052 498.415 230.987C498.408 230.975 498.381 230.938 498.356 230.905C498.278 230.805 498.279 230.807 498.283 230.646C498.285 230.531 498.277 230.485 498.239 230.404C498.203 230.329 498.194 230.306 498.188 230.276C498.177 230.218 498.212 230.166 498.263 230.164C498.28 230.164 498.314 230.172 498.347 230.184L498.37 230.193L498.377 230.221C498.419 230.384 498.457 230.482 498.5 230.541C498.512 230.557 498.541 230.594 498.565 230.623C498.756 230.859 498.807 231.027 498.791 231.379C498.79 231.41 498.789 231.436 498.79 231.437C498.791 231.438 498.806 231.384 498.823 231.316C498.87 231.129 498.881 231.033 498.867 230.931C498.858 230.867 498.817 230.741 498.777 230.653C498.747 230.588 498.733 230.548 498.728 230.515C498.725 230.492 498.726 230.483 498.734 230.451C498.743 230.415 498.745 230.41 498.769 230.377C498.828 230.295 498.843 230.266 498.855 230.219C498.866 230.173 498.864 230.146 498.844 230.051C498.834 230.005 498.825 229.954 498.825 229.94C498.825 229.91 498.838 229.854 498.875 229.731C498.895 229.663 498.897 229.655 498.897 229.623C498.897 229.585 498.892 229.529 498.882 229.469C498.875 229.425 498.875 229.426 498.896 229.482C498.914 229.532 498.948 229.592 498.967 229.607C498.979 229.616 498.983 229.625 499.005 229.698C499.085 229.966 499.154 230.307 499.17 230.518C499.178 230.635 499.172 230.743 499.152 230.848L499.148 230.866L499.169 230.843C499.218 230.787 499.264 230.71 499.296 230.633C499.324 230.562 499.356 230.42 499.364 230.331C499.371 230.242 499.372 230.158 499.367 230.112C499.366 230.106 499.372 230.11 499.395 230.13C499.455 230.183 499.485 230.183 499.491 230.131C499.492 230.121 499.495 230.113 499.496 230.114C499.497 230.115 499.508 230.125 499.52 230.135C499.531 230.145 499.558 230.166 499.579 230.181C499.615 230.207 499.637 230.219 499.712 230.257C499.751 230.276 499.784 230.303 499.788 230.317C499.789 230.322 499.791 230.342 499.792 230.36C499.799 230.456 499.817 230.497 499.884 230.564C499.933 230.614 499.95 230.639 499.951 230.661C499.951 230.675 499.946 230.687 499.909 230.758C499.817 230.933 499.779 231.022 499.753 231.123C499.72 231.25 499.725 231.337 499.769 231.411C499.776 231.424 499.776 231.425 499.774 231.389C499.77 231.346 499.776 231.302 499.791 231.254C499.81 231.19 499.834 231.149 499.923 231.025C500.026 230.881 500.078 230.771 500.128 230.593C500.174 230.432 500.193 230.281 500.189 230.119C500.188 230.089 500.187 230.037 500.186 230.004C500.183 229.866 500.153 229.734 500.087 229.561C500.02 229.383 499.923 229.228 499.786 229.076C499.654 228.93 499.486 228.79 499.293 228.667C499.171 228.588 499.058 228.527 498.839 228.422C498.727 228.368 498.68 228.343 498.623 228.305C498.534 228.246 498.456 228.178 498.373 228.086C498.315 228.022 498.314 228.026 498.387 228.034C498.532 228.05 498.7 228.134 498.851 228.263C498.867 228.277 498.877 228.283 498.876 228.279C498.872 228.25 498.879 228.186 498.89 228.143C498.904 228.089 498.913 228.071 498.956 228.011C498.98 227.978 498.986 227.966 498.995 227.939C499.022 227.853 499.004 227.762 498.945 227.68C498.914 227.637 498.887 227.591 498.886 227.577C498.885 227.571 498.888 227.555 498.893 227.542C498.897 227.529 498.901 227.516 498.899 227.512C498.897 227.501 498.869 227.469 498.844 227.446C498.824 227.428 498.781 227.398 498.714 227.354C498.697 227.343 498.695 227.341 498.703 227.341C498.745 227.343 498.789 227.342 498.809 227.34L498.832 227.337L498.821 227.313C498.802 227.272 498.798 227.245 498.807 227.207C498.815 227.165 498.826 227.148 498.886 227.072C498.91 227.043 498.932 227.013 498.935 227.006C498.938 226.998 498.94 226.982 498.94 226.963C498.939 226.9 498.941 226.886 498.955 226.863C498.969 226.84 498.995 226.814 499.027 226.789C499.04 226.779 499.058 226.766 499.067 226.758L499.084 226.746L499.068 226.742C499.059 226.74 499.045 226.738 499.037 226.736ZM498.053 228.824C498.067 228.839 498.099 228.883 498.123 228.92C498.148 228.958 498.183 229.01 498.201 229.035C498.219 229.06 498.238 229.088 498.243 229.098C498.253 229.117 498.259 229.151 498.262 229.197C498.272 229.424 498.283 229.558 498.307 229.758C498.311 229.794 498.314 229.824 498.313 229.824C498.312 229.825 498.295 229.814 498.277 229.801C498.215 229.756 498.121 229.701 498.052 229.67C497.991 229.642 497.992 229.642 497.787 229.572C497.703 229.544 497.642 229.514 497.593 229.477C497.538 229.437 497.507 229.403 497.45 229.321C497.433 229.296 497.41 229.264 497.399 229.249L497.379 229.221L497.42 229.212C497.693 229.154 497.906 228.992 497.992 228.778L497.999 228.761L498.013 228.779C498.021 228.789 498.039 228.809 498.053 228.824ZM496.942 229.186C496.958 229.192 496.991 229.203 497.014 229.209C497.037 229.215 497.056 229.22 497.056 229.22C497.057 229.221 497.032 229.324 497.002 229.451C496.952 229.659 496.946 229.686 496.941 229.736C496.932 229.835 496.932 229.916 496.94 230.023C496.944 230.073 496.947 230.097 496.956 230.15L496.958 230.166L496.943 230.151C496.903 230.112 496.862 230.058 496.841 230.014C496.823 229.979 496.81 229.918 496.811 229.883C496.813 229.85 496.835 229.781 496.854 229.746C496.908 229.648 496.912 229.639 496.928 229.571C496.953 229.469 496.955 229.401 496.935 229.307C496.923 229.248 496.911 229.22 496.88 229.178C496.871 229.166 496.863 229.155 496.863 229.154C496.864 229.152 496.875 229.156 496.888 229.163C496.902 229.169 496.926 229.179 496.942 229.186ZM497.205 229.269C497.253 229.328 497.291 229.407 497.307 229.479L497.314 229.51L497.29 229.479C497.277 229.462 497.254 229.434 497.238 229.417C497.192 229.366 497.163 229.313 497.154 229.262C497.149 229.238 497.152 229.232 497.165 229.233C497.178 229.235 497.177 229.234 497.205 229.269ZM496.941 230.192C496.966 230.205 496.966 230.205 496.973 230.231C496.977 230.245 496.983 230.268 496.986 230.28L496.992 230.302L496.965 230.28C496.908 230.236 496.857 230.176 496.867 230.167C496.873 230.161 496.905 230.172 496.941 230.192Z" fill="black"/>
</g>
<g clip-path="url(#clip3_721_157)">
<path d="M506.037 228.736C506.03 228.735 506.001 228.731 505.974 228.726C505.638 228.672 505.301 228.705 505.009 228.82C504.714 228.937 504.43 229.152 504.206 229.428C504.18 229.46 504.154 229.489 504.148 229.492C504.141 229.496 504.13 229.497 504.115 229.495C504.061 229.488 503.993 229.492 503.919 229.509C503.821 229.53 503.755 229.555 503.627 229.619C503.529 229.668 503.453 229.699 503.428 229.7C503.423 229.701 503.417 229.702 503.415 229.703C503.41 229.709 503.34 229.716 503.281 229.717C503.206 229.718 503.162 229.722 503.111 229.734C503.02 229.755 502.934 229.799 502.84 229.874C502.778 229.924 502.779 229.923 502.718 229.946C502.686 229.958 502.67 229.962 502.665 229.959C502.654 229.953 502.648 229.956 502.641 229.975C502.637 229.984 502.631 229.997 502.628 230.005C502.62 230.023 502.627 230.051 502.65 230.103C502.66 230.125 502.673 230.163 502.68 230.187C502.696 230.251 502.704 230.272 502.724 230.305C502.749 230.347 502.792 230.392 502.87 230.46C502.92 230.503 502.945 230.528 502.97 230.559C503.025 230.628 503.085 230.676 503.175 230.722C503.249 230.76 503.268 230.773 503.311 230.817L503.352 230.857L503.307 230.86C503.25 230.866 503.167 230.884 503.128 230.9C503.08 230.92 503.015 230.961 502.976 230.996C502.917 231.049 502.881 231.096 502.835 231.176C502.75 231.323 502.706 231.485 502.715 231.621C502.719 231.675 502.728 231.759 502.731 231.764C502.732 231.767 502.733 231.761 502.731 231.753C502.73 231.743 502.729 231.736 502.73 231.735C502.731 231.734 502.742 231.777 502.753 231.829C502.772 231.916 502.78 231.978 502.775 232C502.773 232.008 502.774 232.008 502.779 232.002C502.782 231.998 502.788 231.98 502.793 231.961C502.812 231.889 502.815 231.82 502.804 231.735C502.8 231.708 502.796 231.666 502.794 231.642C502.791 231.602 502.792 231.594 502.801 231.554C502.814 231.505 502.824 231.487 502.86 231.454C502.907 231.41 503.01 231.35 503.173 231.272C503.287 231.218 503.351 231.171 503.412 231.098C503.442 231.062 503.466 231.023 503.481 230.986C503.485 230.975 503.489 230.967 503.489 230.967C503.489 230.967 503.502 230.974 503.516 230.984C503.53 230.993 503.561 231.012 503.585 231.026C503.61 231.04 503.632 231.055 503.635 231.059C503.64 231.066 503.639 231.071 503.629 231.1C503.61 231.156 503.586 231.258 503.58 231.309C503.565 231.442 503.57 231.562 503.599 231.698C503.62 231.798 503.642 231.859 503.7 231.978C503.716 232.008 503.73 232.061 503.736 232.106C503.744 232.169 503.796 232.271 503.845 232.319C503.885 232.359 503.965 232.405 504.019 232.418C504.035 232.422 504.036 232.423 504.07 232.484C504.108 232.55 504.141 232.595 504.179 232.633C504.203 232.657 504.258 232.701 504.262 232.699C504.266 232.696 504.26 232.667 504.248 232.627C504.229 232.568 504.225 232.546 504.223 232.51C504.222 232.493 504.222 232.478 504.222 232.476C504.222 232.475 504.237 232.477 504.254 232.481L504.285 232.489L504.253 232.47L504.221 232.451L504.221 232.401C504.223 232.274 504.243 232.123 504.276 231.99C504.297 231.907 504.31 231.869 504.337 231.808L504.353 231.773L504.367 231.834C504.402 231.981 504.452 232.12 504.514 232.241C504.567 232.344 504.618 232.419 504.699 232.509C504.801 232.623 504.89 232.701 505.204 232.952C505.244 232.984 505.29 233.022 505.306 233.035C505.36 233.082 505.447 233.151 505.457 233.153C505.466 233.156 505.467 233.155 505.469 233.142C505.475 233.118 505.451 233.052 505.415 232.987C505.408 232.975 505.381 232.938 505.356 232.905C505.278 232.805 505.279 232.807 505.283 232.646C505.285 232.531 505.277 232.485 505.239 232.404C505.203 232.329 505.194 232.306 505.188 232.276C505.177 232.218 505.212 232.166 505.263 232.164C505.28 232.164 505.314 232.172 505.347 232.184L505.37 232.193L505.377 232.221C505.419 232.384 505.457 232.482 505.5 232.541C505.512 232.557 505.541 232.594 505.565 232.623C505.756 232.859 505.807 233.027 505.791 233.379C505.79 233.41 505.789 233.436 505.79 233.437C505.791 233.438 505.806 233.384 505.823 233.316C505.87 233.129 505.881 233.033 505.867 232.931C505.858 232.867 505.817 232.741 505.777 232.653C505.747 232.588 505.733 232.548 505.728 232.515C505.725 232.492 505.726 232.483 505.734 232.451C505.743 232.415 505.745 232.41 505.769 232.377C505.828 232.295 505.843 232.266 505.855 232.219C505.866 232.173 505.864 232.146 505.844 232.051C505.834 232.005 505.825 231.954 505.825 231.94C505.825 231.91 505.838 231.854 505.875 231.731C505.895 231.663 505.897 231.655 505.897 231.623C505.897 231.585 505.892 231.529 505.882 231.469C505.875 231.425 505.875 231.426 505.896 231.482C505.914 231.532 505.948 231.592 505.967 231.607C505.979 231.616 505.983 231.625 506.005 231.698C506.085 231.966 506.154 232.307 506.17 232.518C506.178 232.635 506.172 232.743 506.152 232.848L506.148 232.866L506.169 232.843C506.218 232.787 506.264 232.71 506.296 232.633C506.324 232.562 506.356 232.42 506.364 232.331C506.371 232.242 506.372 232.158 506.367 232.112C506.366 232.106 506.372 232.11 506.395 232.13C506.455 232.183 506.485 232.183 506.491 232.131C506.492 232.121 506.495 232.113 506.496 232.114C506.497 232.115 506.508 232.125 506.52 232.135C506.531 232.145 506.558 232.166 506.579 232.181C506.615 232.207 506.637 232.219 506.712 232.257C506.751 232.276 506.784 232.303 506.788 232.317C506.789 232.322 506.791 232.342 506.792 232.36C506.799 232.456 506.817 232.497 506.884 232.564C506.933 232.614 506.95 232.639 506.951 232.661C506.951 232.675 506.946 232.687 506.909 232.758C506.817 232.933 506.779 233.022 506.753 233.123C506.72 233.25 506.725 233.337 506.769 233.411C506.776 233.424 506.776 233.425 506.774 233.389C506.77 233.346 506.776 233.302 506.791 233.254C506.81 233.19 506.834 233.149 506.923 233.025C507.026 232.881 507.078 232.771 507.128 232.593C507.174 232.432 507.193 232.281 507.189 232.119C507.188 232.089 507.187 232.037 507.186 232.004C507.183 231.866 507.153 231.734 507.087 231.561C507.02 231.383 506.923 231.228 506.786 231.076C506.654 230.93 506.486 230.79 506.293 230.667C506.171 230.588 506.058 230.527 505.839 230.422C505.727 230.368 505.68 230.343 505.623 230.305C505.534 230.246 505.456 230.178 505.373 230.086C505.315 230.022 505.314 230.026 505.387 230.034C505.532 230.05 505.7 230.134 505.851 230.263C505.867 230.277 505.877 230.283 505.876 230.279C505.872 230.25 505.879 230.186 505.89 230.143C505.904 230.089 505.913 230.071 505.956 230.011C505.98 229.978 505.986 229.966 505.995 229.939C506.022 229.853 506.004 229.762 505.945 229.68C505.914 229.637 505.887 229.591 505.886 229.577C505.885 229.571 505.888 229.555 505.893 229.542C505.897 229.529 505.901 229.516 505.899 229.512C505.897 229.501 505.869 229.469 505.844 229.446C505.824 229.428 505.781 229.398 505.714 229.354C505.697 229.343 505.695 229.341 505.703 229.341C505.745 229.343 505.789 229.342 505.809 229.34L505.832 229.337L505.821 229.313C505.802 229.272 505.798 229.245 505.807 229.207C505.815 229.165 505.826 229.148 505.886 229.072C505.91 229.043 505.932 229.013 505.935 229.006C505.938 228.998 505.94 228.982 505.94 228.963C505.939 228.9 505.941 228.886 505.955 228.863C505.969 228.84 505.995 228.814 506.027 228.789C506.04 228.779 506.058 228.766 506.067 228.758L506.084 228.746L506.068 228.742C506.059 228.74 506.045 228.738 506.037 228.736ZM505.053 230.824C505.067 230.839 505.099 230.883 505.123 230.92C505.148 230.958 505.183 231.01 505.201 231.035C505.219 231.06 505.238 231.088 505.243 231.098C505.253 231.117 505.259 231.151 505.262 231.197C505.272 231.424 505.283 231.558 505.307 231.758C505.311 231.794 505.314 231.824 505.313 231.824C505.312 231.825 505.295 231.814 505.277 231.801C505.215 231.756 505.121 231.701 505.052 231.67C504.991 231.642 504.992 231.642 504.787 231.572C504.703 231.544 504.642 231.514 504.593 231.477C504.538 231.437 504.507 231.403 504.45 231.321C504.433 231.296 504.41 231.264 504.399 231.249L504.379 231.221L504.42 231.212C504.693 231.154 504.906 230.992 504.992 230.778L504.999 230.761L505.013 230.779C505.021 230.789 505.039 230.809 505.053 230.824ZM503.942 231.186C503.958 231.192 503.991 231.203 504.014 231.209C504.037 231.215 504.056 231.22 504.056 231.22C504.057 231.221 504.032 231.324 504.002 231.451C503.952 231.659 503.946 231.686 503.941 231.736C503.932 231.835 503.932 231.916 503.94 232.023C503.944 232.073 503.947 232.097 503.956 232.15L503.958 232.166L503.943 232.151C503.903 232.112 503.862 232.058 503.841 232.014C503.823 231.979 503.81 231.918 503.811 231.883C503.813 231.85 503.835 231.781 503.854 231.746C503.908 231.648 503.912 231.639 503.928 231.571C503.953 231.469 503.955 231.401 503.935 231.307C503.923 231.248 503.911 231.22 503.88 231.178C503.871 231.166 503.863 231.155 503.863 231.154C503.864 231.152 503.875 231.156 503.888 231.163C503.902 231.169 503.926 231.179 503.942 231.186ZM504.205 231.269C504.253 231.328 504.291 231.407 504.307 231.479L504.314 231.51L504.29 231.479C504.277 231.462 504.254 231.434 504.238 231.417C504.192 231.366 504.163 231.313 504.154 231.262C504.149 231.238 504.152 231.232 504.165 231.233C504.178 231.235 504.177 231.234 504.205 231.269ZM503.941 232.192C503.966 232.205 503.966 232.205 503.973 232.231C503.977 232.245 503.983 232.268 503.986 232.28L503.992 232.302L503.965 232.28C503.908 232.236 503.857 232.176 503.867 232.167C503.873 232.161 503.905 232.172 503.941 232.192Z" fill="black"/>
</g>
<g clip-path="url(#clip4_721_157)">
<path d="M512.037 229.736C512.03 229.735 512.001 229.731 511.974 229.726C511.638 229.672 511.301 229.705 511.009 229.82C510.714 229.937 510.43 230.152 510.206 230.428C510.18 230.46 510.154 230.489 510.148 230.492C510.141 230.496 510.13 230.497 510.115 230.495C510.061 230.488 509.993 230.492 509.919 230.509C509.821 230.53 509.755 230.555 509.627 230.619C509.529 230.668 509.453 230.699 509.428 230.7C509.423 230.701 509.417 230.702 509.416 230.703C509.41 230.709 509.34 230.716 509.282 230.717C509.206 230.718 509.162 230.722 509.111 230.734C509.02 230.755 508.934 230.799 508.84 230.874C508.778 230.924 508.779 230.923 508.718 230.946C508.686 230.958 508.67 230.962 508.665 230.959C508.654 230.953 508.648 230.956 508.641 230.975C508.637 230.984 508.631 230.997 508.628 231.005C508.62 231.023 508.627 231.051 508.65 231.103C508.66 231.125 508.673 231.163 508.68 231.187C508.696 231.251 508.704 231.272 508.724 231.305C508.749 231.347 508.792 231.392 508.87 231.46C508.92 231.503 508.945 231.528 508.97 231.559C509.025 231.628 509.085 231.676 509.175 231.722C509.249 231.76 509.268 231.773 509.311 231.817L509.352 231.857L509.307 231.86C509.25 231.866 509.167 231.884 509.128 231.9C509.08 231.92 509.015 231.961 508.976 231.996C508.917 232.049 508.881 232.096 508.835 232.176C508.75 232.323 508.706 232.485 508.715 232.621C508.719 232.675 508.728 232.759 508.731 232.764C508.732 232.767 508.733 232.761 508.731 232.753C508.73 232.743 508.729 232.736 508.73 232.735C508.731 232.734 508.742 232.777 508.753 232.829C508.772 232.916 508.78 232.978 508.775 233C508.773 233.008 508.774 233.008 508.779 233.002C508.782 232.998 508.788 232.98 508.793 232.961C508.812 232.889 508.815 232.82 508.804 232.735C508.8 232.708 508.796 232.666 508.794 232.642C508.791 232.602 508.792 232.594 508.801 232.554C508.814 232.505 508.824 232.487 508.86 232.454C508.907 232.41 509.01 232.35 509.173 232.272C509.287 232.218 509.351 232.171 509.412 232.098C509.442 232.062 509.466 232.023 509.481 231.986C509.485 231.975 509.489 231.967 509.489 231.967C509.489 231.967 509.502 231.974 509.516 231.984C509.53 231.993 509.561 232.012 509.585 232.026C509.61 232.04 509.632 232.055 509.635 232.059C509.64 232.066 509.639 232.071 509.629 232.1C509.61 232.156 509.586 232.258 509.58 232.309C509.565 232.442 509.57 232.562 509.599 232.698C509.62 232.798 509.642 232.859 509.7 232.978C509.716 233.008 509.73 233.061 509.736 233.106C509.744 233.169 509.796 233.271 509.845 233.319C509.885 233.359 509.965 233.405 510.019 233.418C510.035 233.422 510.036 233.423 510.07 233.484C510.108 233.55 510.141 233.595 510.179 233.633C510.203 233.657 510.258 233.701 510.262 233.699C510.266 233.696 510.26 233.667 510.248 233.627C510.229 233.568 510.225 233.546 510.223 233.51C510.222 233.493 510.222 233.478 510.222 233.476C510.222 233.475 510.237 233.477 510.254 233.481L510.285 233.489L510.253 233.47L510.221 233.451L510.221 233.401C510.223 233.274 510.243 233.123 510.276 232.99C510.297 232.907 510.31 232.869 510.337 232.808L510.353 232.773L510.367 232.834C510.402 232.981 510.452 233.12 510.514 233.241C510.567 233.344 510.618 233.419 510.699 233.509C510.801 233.623 510.89 233.701 511.204 233.952C511.244 233.984 511.29 234.022 511.306 234.035C511.36 234.082 511.447 234.151 511.457 234.153C511.466 234.156 511.467 234.155 511.469 234.142C511.475 234.118 511.451 234.052 511.415 233.987C511.408 233.975 511.381 233.938 511.356 233.905C511.278 233.805 511.279 233.807 511.283 233.646C511.285 233.531 511.277 233.485 511.239 233.404C511.203 233.329 511.194 233.306 511.188 233.276C511.177 233.218 511.212 233.166 511.263 233.164C511.28 233.164 511.314 233.172 511.347 233.184L511.37 233.193L511.377 233.221C511.419 233.384 511.457 233.482 511.5 233.541C511.512 233.557 511.541 233.594 511.565 233.623C511.756 233.859 511.807 234.027 511.791 234.379C511.79 234.41 511.789 234.436 511.79 234.437C511.791 234.438 511.806 234.384 511.823 234.316C511.87 234.129 511.881 234.033 511.867 233.931C511.858 233.867 511.817 233.741 511.777 233.653C511.747 233.588 511.733 233.548 511.728 233.515C511.725 233.492 511.726 233.483 511.734 233.451C511.743 233.415 511.745 233.41 511.769 233.377C511.828 233.295 511.843 233.266 511.855 233.219C511.866 233.173 511.864 233.146 511.844 233.051C511.834 233.005 511.825 232.954 511.825 232.94C511.825 232.91 511.838 232.854 511.875 232.731C511.895 232.663 511.897 232.655 511.897 232.623C511.897 232.585 511.892 232.529 511.882 232.469C511.875 232.425 511.875 232.426 511.896 232.482C511.914 232.532 511.948 232.592 511.967 232.607C511.979 232.616 511.983 232.625 512.005 232.698C512.085 232.966 512.154 233.307 512.17 233.518C512.178 233.635 512.172 233.743 512.152 233.848L512.148 233.866L512.169 233.843C512.218 233.787 512.264 233.71 512.296 233.633C512.324 233.562 512.356 233.42 512.364 233.331C512.371 233.242 512.372 233.158 512.367 233.112C512.366 233.106 512.373 233.11 512.395 233.13C512.455 233.183 512.485 233.183 512.491 233.131C512.492 233.121 512.495 233.113 512.496 233.114C512.497 233.115 512.508 233.125 512.52 233.135C512.531 233.145 512.558 233.166 512.579 233.181C512.615 233.207 512.638 233.219 512.712 233.257C512.751 233.276 512.784 233.303 512.788 233.317C512.789 233.322 512.791 233.342 512.792 233.36C512.799 233.456 512.817 233.497 512.884 233.564C512.933 233.614 512.95 233.639 512.951 233.661C512.951 233.675 512.946 233.687 512.909 233.758C512.817 233.933 512.779 234.022 512.753 234.123C512.72 234.25 512.725 234.337 512.769 234.411C512.777 234.424 512.776 234.425 512.774 234.389C512.77 234.346 512.776 234.302 512.791 234.254C512.81 234.19 512.834 234.149 512.923 234.025C513.026 233.881 513.078 233.771 513.128 233.593C513.174 233.432 513.193 233.281 513.189 233.119C513.188 233.089 513.187 233.037 513.186 233.004C513.183 232.866 513.153 232.734 513.087 232.561C513.02 232.383 512.923 232.228 512.786 232.076C512.654 231.93 512.486 231.79 512.293 231.667C512.171 231.588 512.058 231.527 511.839 231.422C511.727 231.368 511.68 231.343 511.623 231.305C511.534 231.246 511.456 231.178 511.373 231.086C511.315 231.022 511.314 231.026 511.387 231.034C511.532 231.05 511.7 231.134 511.851 231.263C511.867 231.277 511.877 231.283 511.876 231.279C511.872 231.25 511.879 231.186 511.89 231.143C511.904 231.089 511.913 231.071 511.956 231.011C511.98 230.978 511.986 230.966 511.995 230.939C512.022 230.853 512.004 230.762 511.945 230.68C511.914 230.637 511.887 230.591 511.886 230.577C511.885 230.571 511.888 230.555 511.893 230.542C511.897 230.529 511.901 230.516 511.899 230.512C511.897 230.501 511.869 230.469 511.844 230.446C511.824 230.428 511.781 230.398 511.714 230.354C511.697 230.343 511.695 230.341 511.703 230.341C511.745 230.343 511.789 230.342 511.809 230.34L511.832 230.337L511.821 230.313C511.802 230.272 511.798 230.245 511.807 230.207C511.815 230.165 511.826 230.148 511.886 230.072C511.91 230.043 511.932 230.013 511.935 230.006C511.938 229.998 511.94 229.982 511.94 229.963C511.939 229.9 511.941 229.886 511.955 229.863C511.969 229.84 511.995 229.814 512.027 229.789C512.04 229.779 512.058 229.766 512.067 229.758L512.084 229.746L512.068 229.742C512.059 229.74 512.045 229.738 512.037 229.736ZM511.053 231.824C511.067 231.839 511.099 231.883 511.123 231.92C511.148 231.958 511.183 232.01 511.201 232.035C511.219 232.06 511.238 232.088 511.243 232.098C511.253 232.117 511.26 232.151 511.262 232.197C511.272 232.424 511.283 232.558 511.307 232.758C511.311 232.794 511.314 232.824 511.313 232.824C511.312 232.825 511.295 232.814 511.277 232.801C511.215 232.756 511.121 232.701 511.052 232.67C510.991 232.642 510.992 232.642 510.787 232.572C510.703 232.544 510.642 232.514 510.593 232.477C510.538 232.437 510.507 232.403 510.45 232.321C510.433 232.296 510.41 232.264 510.399 232.249L510.379 232.221L510.42 232.212C510.693 232.154 510.906 231.992 510.992 231.778L510.999 231.761L511.013 231.779C511.021 231.789 511.039 231.809 511.053 231.824ZM509.942 232.186C509.958 232.192 509.991 232.203 510.014 232.209C510.037 232.215 510.056 232.22 510.056 232.22C510.057 232.221 510.032 232.324 510.002 232.451C509.952 232.659 509.946 232.686 509.941 232.736C509.932 232.835 509.932 232.916 509.94 233.023C509.944 233.073 509.947 233.097 509.956 233.15L509.958 233.166L509.943 233.151C509.903 233.112 509.862 233.058 509.841 233.014C509.823 232.979 509.81 232.918 509.811 232.883C509.813 232.85 509.835 232.781 509.854 232.746C509.908 232.648 509.912 232.639 509.928 232.571C509.953 232.469 509.955 232.401 509.935 232.307C509.923 232.248 509.911 232.22 509.88 232.178C509.871 232.166 509.863 232.155 509.863 232.154C509.864 232.152 509.875 232.156 509.888 232.163C509.902 232.169 509.926 232.179 509.942 232.186ZM510.205 232.269C510.253 232.328 510.291 232.407 510.307 232.479L510.314 232.51L510.29 232.479C510.277 232.462 510.254 232.434 510.238 232.417C510.192 232.366 510.163 232.313 510.154 232.262C510.149 232.238 510.152 232.232 510.165 232.233C510.178 232.235 510.177 232.234 510.205 232.269ZM509.941 233.192C509.966 233.205 509.966 233.205 509.973 233.231C509.977 233.245 509.983 233.268 509.986 233.28L509.992 233.302L509.965 233.28C509.908 233.236 509.857 233.176 509.867 233.167C509.873 233.161 509.905 233.172 509.941 233.192Z" fill="black"/>
</g>
<g clip-path="url(#clip5_721_157)">
<path d="M518.037 231.736C518.03 231.735 518.001 231.731 517.974 231.726C517.638 231.672 517.301 231.705 517.009 231.82C516.714 231.937 516.43 232.152 516.206 232.428C516.18 232.46 516.154 232.489 516.148 232.492C516.141 232.496 516.13 232.497 516.115 232.495C516.061 232.488 515.993 232.492 515.919 232.509C515.821 232.53 515.755 232.555 515.627 232.619C515.529 232.668 515.453 232.699 515.428 232.7C515.423 232.701 515.417 232.702 515.416 232.703C515.41 232.709 515.34 232.716 515.282 232.717C515.206 232.718 515.162 232.722 515.111 232.734C515.02 232.755 514.934 232.799 514.84 232.874C514.778 232.924 514.779 232.923 514.718 232.946C514.686 232.958 514.67 232.962 514.665 232.959C514.654 232.953 514.648 232.956 514.641 232.975C514.637 232.984 514.631 232.997 514.628 233.005C514.62 233.023 514.627 233.051 514.65 233.103C514.66 233.125 514.673 233.163 514.68 233.187C514.696 233.251 514.704 233.272 514.724 233.305C514.749 233.347 514.792 233.392 514.87 233.46C514.92 233.503 514.945 233.528 514.97 233.559C515.025 233.628 515.085 233.676 515.175 233.722C515.249 233.76 515.268 233.773 515.311 233.817L515.352 233.857L515.307 233.86C515.25 233.866 515.167 233.884 515.128 233.9C515.08 233.92 515.015 233.961 514.976 233.996C514.917 234.049 514.881 234.096 514.835 234.176C514.75 234.323 514.706 234.485 514.715 234.621C514.719 234.675 514.728 234.759 514.731 234.764C514.732 234.767 514.733 234.761 514.731 234.753C514.73 234.743 514.729 234.736 514.73 234.735C514.731 234.734 514.742 234.777 514.753 234.829C514.772 234.916 514.78 234.978 514.775 235C514.773 235.008 514.774 235.008 514.779 235.002C514.782 234.998 514.788 234.98 514.793 234.961C514.812 234.889 514.815 234.82 514.804 234.735C514.8 234.708 514.796 234.666 514.794 234.642C514.791 234.602 514.792 234.594 514.801 234.554C514.814 234.505 514.824 234.487 514.86 234.454C514.907 234.41 515.01 234.35 515.173 234.272C515.287 234.218 515.351 234.171 515.412 234.098C515.442 234.062 515.466 234.023 515.481 233.986C515.485 233.975 515.489 233.967 515.489 233.967C515.489 233.967 515.502 233.974 515.516 233.984C515.53 233.993 515.561 234.012 515.585 234.026C515.61 234.04 515.632 234.055 515.635 234.059C515.64 234.066 515.639 234.071 515.629 234.1C515.61 234.156 515.586 234.258 515.58 234.309C515.565 234.442 515.57 234.562 515.599 234.698C515.62 234.798 515.642 234.859 515.7 234.978C515.716 235.008 515.73 235.061 515.736 235.106C515.744 235.169 515.796 235.271 515.845 235.319C515.885 235.359 515.965 235.405 516.019 235.418C516.035 235.422 516.036 235.423 516.07 235.484C516.108 235.55 516.141 235.595 516.179 235.633C516.203 235.657 516.258 235.701 516.262 235.699C516.266 235.696 516.26 235.667 516.248 235.627C516.229 235.568 516.225 235.546 516.223 235.51C516.222 235.493 516.222 235.478 516.222 235.476C516.222 235.475 516.237 235.477 516.254 235.481L516.285 235.489L516.253 235.47L516.221 235.451L516.221 235.401C516.223 235.274 516.243 235.123 516.276 234.99C516.297 234.907 516.31 234.869 516.337 234.808L516.353 234.773L516.367 234.834C516.402 234.981 516.452 235.12 516.514 235.241C516.567 235.344 516.618 235.419 516.699 235.509C516.801 235.623 516.89 235.701 517.204 235.952C517.244 235.984 517.29 236.022 517.306 236.035C517.36 236.082 517.447 236.151 517.457 236.153C517.466 236.156 517.467 236.155 517.469 236.142C517.475 236.118 517.451 236.052 517.415 235.987C517.408 235.975 517.381 235.938 517.356 235.905C517.278 235.805 517.279 235.807 517.283 235.646C517.285 235.531 517.277 235.485 517.239 235.404C517.203 235.329 517.194 235.306 517.188 235.276C517.177 235.218 517.212 235.166 517.263 235.164C517.28 235.164 517.314 235.172 517.347 235.184L517.37 235.193L517.377 235.221C517.419 235.384 517.457 235.482 517.5 235.541C517.512 235.557 517.541 235.594 517.565 235.623C517.756 235.859 517.807 236.027 517.791 236.379C517.79 236.41 517.789 236.436 517.79 236.437C517.791 236.438 517.806 236.384 517.823 236.316C517.87 236.129 517.881 236.033 517.867 235.931C517.858 235.867 517.817 235.741 517.777 235.653C517.747 235.588 517.733 235.548 517.728 235.515C517.725 235.492 517.726 235.483 517.734 235.451C517.743 235.415 517.745 235.41 517.769 235.377C517.828 235.295 517.843 235.266 517.855 235.219C517.866 235.173 517.864 235.146 517.844 235.051C517.834 235.005 517.825 234.954 517.825 234.94C517.825 234.91 517.838 234.854 517.875 234.731C517.895 234.663 517.897 234.655 517.897 234.623C517.897 234.585 517.892 234.529 517.882 234.469C517.875 234.425 517.875 234.426 517.896 234.482C517.914 234.532 517.948 234.592 517.967 234.607C517.979 234.616 517.983 234.625 518.005 234.698C518.085 234.966 518.154 235.307 518.17 235.518C518.178 235.635 518.172 235.743 518.152 235.848L518.148 235.866L518.169 235.843C518.218 235.787 518.264 235.71 518.296 235.633C518.324 235.562 518.356 235.42 518.364 235.331C518.371 235.242 518.372 235.158 518.367 235.112C518.366 235.106 518.373 235.11 518.395 235.13C518.455 235.183 518.485 235.183 518.491 235.131C518.492 235.121 518.495 235.113 518.496 235.114C518.497 235.115 518.508 235.125 518.52 235.135C518.531 235.145 518.558 235.166 518.579 235.181C518.615 235.207 518.638 235.219 518.712 235.257C518.751 235.276 518.784 235.303 518.788 235.317C518.789 235.322 518.791 235.342 518.792 235.36C518.799 235.456 518.817 235.497 518.884 235.564C518.933 235.614 518.95 235.639 518.951 235.661C518.951 235.675 518.946 235.687 518.909 235.758C518.817 235.933 518.779 236.022 518.753 236.123C518.72 236.25 518.725 236.337 518.769 236.411C518.777 236.424 518.776 236.425 518.774 236.389C518.77 236.346 518.776 236.302 518.791 236.254C518.81 236.19 518.834 236.149 518.923 236.025C519.026 235.881 519.078 235.771 519.128 235.593C519.174 235.432 519.193 235.281 519.189 235.119C519.188 235.089 519.187 235.037 519.186 235.004C519.183 234.866 519.153 234.734 519.087 234.561C519.02 234.383 518.923 234.228 518.786 234.076C518.654 233.93 518.486 233.79 518.293 233.667C518.171 233.588 518.058 233.527 517.839 233.422C517.727 233.368 517.68 233.343 517.623 233.305C517.534 233.246 517.456 233.178 517.373 233.086C517.315 233.022 517.314 233.026 517.387 233.034C517.532 233.05 517.7 233.134 517.851 233.263C517.867 233.277 517.877 233.283 517.876 233.279C517.872 233.25 517.879 233.186 517.89 233.143C517.904 233.089 517.913 233.071 517.956 233.011C517.98 232.978 517.986 232.966 517.995 232.939C518.022 232.853 518.004 232.762 517.945 232.68C517.914 232.637 517.887 232.591 517.886 232.577C517.885 232.571 517.888 232.555 517.893 232.542C517.897 232.529 517.901 232.516 517.899 232.512C517.897 232.501 517.869 232.469 517.844 232.446C517.824 232.428 517.781 232.398 517.714 232.354C517.697 232.343 517.695 232.341 517.703 232.341C517.745 232.343 517.789 232.342 517.809 232.34L517.832 232.337L517.821 232.313C517.802 232.272 517.798 232.245 517.807 232.207C517.815 232.165 517.826 232.148 517.886 232.072C517.91 232.043 517.932 232.013 517.935 232.006C517.938 231.998 517.94 231.982 517.94 231.963C517.939 231.9 517.941 231.886 517.955 231.863C517.969 231.84 517.995 231.814 518.027 231.789C518.04 231.779 518.058 231.766 518.067 231.758L518.084 231.746L518.068 231.742C518.059 231.74 518.045 231.738 518.037 231.736ZM517.053 233.824C517.067 233.839 517.099 233.883 517.123 233.92C517.148 233.958 517.183 234.01 517.201 234.035C517.219 234.06 517.238 234.088 517.243 234.098C517.253 234.117 517.26 234.151 517.262 234.197C517.272 234.424 517.283 234.558 517.307 234.758C517.311 234.794 517.314 234.824 517.313 234.824C517.312 234.825 517.295 234.814 517.277 234.801C517.215 234.756 517.121 234.701 517.052 234.67C516.991 234.642 516.992 234.642 516.787 234.572C516.703 234.544 516.642 234.514 516.593 234.477C516.538 234.437 516.507 234.403 516.45 234.321C516.433 234.296 516.41 234.264 516.399 234.249L516.379 234.221L516.42 234.212C516.693 234.154 516.906 233.992 516.992 233.778L516.999 233.761L517.013 233.779C517.021 233.789 517.039 233.809 517.053 233.824ZM515.942 234.186C515.958 234.192 515.991 234.203 516.014 234.209C516.037 234.215 516.056 234.22 516.056 234.22C516.057 234.221 516.032 234.324 516.002 234.451C515.952 234.659 515.946 234.686 515.941 234.736C515.932 234.835 515.932 234.916 515.94 235.023C515.944 235.073 515.947 235.097 515.956 235.15L515.958 235.166L515.943 235.151C515.903 235.112 515.862 235.058 515.841 235.014C515.823 234.979 515.81 234.918 515.811 234.883C515.813 234.85 515.835 234.781 515.854 234.746C515.908 234.648 515.912 234.639 515.928 234.571C515.953 234.469 515.955 234.401 515.935 234.307C515.923 234.248 515.911 234.22 515.88 234.178C515.871 234.166 515.863 234.155 515.863 234.154C515.864 234.152 515.875 234.156 515.888 234.163C515.902 234.169 515.926 234.179 515.942 234.186ZM516.205 234.269C516.253 234.328 516.291 234.407 516.307 234.479L516.314 234.51L516.29 234.479C516.277 234.462 516.254 234.434 516.238 234.417C516.192 234.366 516.163 234.313 516.154 234.262C516.149 234.238 516.152 234.232 516.165 234.233C516.178 234.235 516.177 234.234 516.205 234.269ZM515.941 235.192C515.966 235.205 515.966 235.205 515.973 235.231C515.977 235.245 515.983 235.268 515.986 235.28L515.992 235.302L515.965 235.28C515.908 235.236 515.857 235.176 515.867 235.167C515.873 235.161 515.905 235.172 515.941 235.192Z" fill="black"/>
</g>
<g clip-path="url(#clip6_721_157)">
<path d="M524.037 232.736C524.03 232.735 524.001 232.731 523.974 232.726C523.638 232.672 523.301 232.705 523.009 232.82C522.714 232.937 522.43 233.152 522.206 233.428C522.18 233.46 522.154 233.489 522.148 233.492C522.141 233.496 522.13 233.497 522.115 233.495C522.061 233.488 521.993 233.492 521.919 233.509C521.821 233.53 521.755 233.555 521.627 233.619C521.529 233.668 521.453 233.699 521.428 233.7C521.423 233.701 521.417 233.702 521.416 233.703C521.41 233.709 521.34 233.716 521.282 233.717C521.206 233.718 521.162 233.722 521.111 233.734C521.02 233.755 520.934 233.799 520.84 233.874C520.778 233.924 520.779 233.923 520.718 233.946C520.686 233.958 520.67 233.962 520.665 233.959C520.654 233.953 520.648 233.956 520.641 233.975C520.637 233.984 520.631 233.997 520.628 234.005C520.62 234.023 520.627 234.051 520.65 234.103C520.66 234.125 520.673 234.163 520.68 234.187C520.696 234.251 520.704 234.272 520.724 234.305C520.749 234.347 520.792 234.392 520.87 234.46C520.92 234.503 520.945 234.528 520.97 234.559C521.025 234.628 521.085 234.676 521.175 234.722C521.249 234.76 521.268 234.773 521.311 234.817L521.352 234.857L521.307 234.86C521.25 234.866 521.167 234.884 521.128 234.9C521.08 234.92 521.015 234.961 520.976 234.996C520.917 235.049 520.881 235.096 520.835 235.176C520.75 235.323 520.706 235.485 520.715 235.621C520.719 235.675 520.728 235.759 520.731 235.764C520.732 235.767 520.733 235.761 520.731 235.753C520.73 235.743 520.729 235.736 520.73 235.735C520.731 235.734 520.742 235.777 520.753 235.829C520.772 235.916 520.78 235.978 520.775 236C520.773 236.008 520.774 236.008 520.779 236.002C520.782 235.998 520.788 235.98 520.793 235.961C520.812 235.889 520.815 235.82 520.804 235.735C520.8 235.708 520.796 235.666 520.794 235.642C520.791 235.602 520.792 235.594 520.801 235.554C520.814 235.505 520.824 235.487 520.86 235.454C520.907 235.41 521.01 235.35 521.173 235.272C521.287 235.218 521.351 235.171 521.412 235.098C521.442 235.062 521.466 235.023 521.481 234.986C521.485 234.975 521.489 234.967 521.489 234.967C521.489 234.967 521.502 234.974 521.516 234.984C521.53 234.993 521.561 235.012 521.585 235.026C521.61 235.04 521.632 235.055 521.635 235.059C521.64 235.066 521.639 235.071 521.629 235.1C521.61 235.156 521.586 235.258 521.58 235.309C521.565 235.442 521.57 235.562 521.599 235.698C521.62 235.798 521.642 235.859 521.7 235.978C521.716 236.008 521.73 236.061 521.736 236.106C521.744 236.169 521.796 236.271 521.845 236.319C521.885 236.359 521.965 236.405 522.019 236.418C522.035 236.422 522.036 236.423 522.07 236.484C522.108 236.55 522.141 236.595 522.179 236.633C522.203 236.657 522.258 236.701 522.262 236.699C522.266 236.696 522.26 236.667 522.248 236.627C522.229 236.568 522.225 236.546 522.223 236.51C522.222 236.493 522.222 236.478 522.222 236.476C522.222 236.475 522.237 236.477 522.254 236.481L522.285 236.489L522.253 236.47L522.221 236.451L522.221 236.401C522.223 236.274 522.243 236.123 522.276 235.99C522.297 235.907 522.31 235.869 522.337 235.808L522.353 235.773L522.367 235.834C522.402 235.981 522.452 236.12 522.514 236.241C522.567 236.344 522.618 236.419 522.699 236.509C522.801 236.623 522.89 236.701 523.204 236.952C523.244 236.984 523.29 237.022 523.306 237.035C523.36 237.082 523.447 237.151 523.457 237.153C523.466 237.156 523.467 237.155 523.469 237.142C523.475 237.118 523.451 237.052 523.415 236.987C523.408 236.975 523.381 236.938 523.356 236.905C523.278 236.805 523.279 236.807 523.283 236.646C523.285 236.531 523.277 236.485 523.239 236.404C523.203 236.329 523.194 236.306 523.188 236.276C523.177 236.218 523.212 236.166 523.263 236.164C523.28 236.164 523.314 236.172 523.347 236.184L523.37 236.193L523.377 236.221C523.419 236.384 523.457 236.482 523.5 236.541C523.512 236.557 523.541 236.594 523.565 236.623C523.756 236.859 523.807 237.027 523.791 237.379C523.79 237.41 523.789 237.436 523.79 237.437C523.791 237.438 523.806 237.384 523.823 237.316C523.87 237.129 523.881 237.033 523.867 236.931C523.858 236.867 523.817 236.741 523.777 236.653C523.747 236.588 523.733 236.548 523.728 236.515C523.725 236.492 523.726 236.483 523.734 236.451C523.743 236.415 523.745 236.41 523.769 236.377C523.828 236.295 523.843 236.266 523.855 236.219C523.866 236.173 523.864 236.146 523.844 236.051C523.834 236.005 523.825 235.954 523.825 235.94C523.825 235.91 523.838 235.854 523.875 235.731C523.895 235.663 523.897 235.655 523.897 235.623C523.897 235.585 523.892 235.529 523.882 235.469C523.875 235.425 523.875 235.426 523.896 235.482C523.914 235.532 523.948 235.592 523.967 235.607C523.979 235.616 523.983 235.625 524.005 235.698C524.085 235.966 524.154 236.307 524.17 236.518C524.178 236.635 524.172 236.743 524.152 236.848L524.148 236.866L524.169 236.843C524.218 236.787 524.264 236.71 524.296 236.633C524.324 236.562 524.356 236.42 524.364 236.331C524.371 236.242 524.372 236.158 524.367 236.112C524.366 236.106 524.373 236.11 524.395 236.13C524.455 236.183 524.485 236.183 524.491 236.131C524.492 236.121 524.495 236.113 524.496 236.114C524.497 236.115 524.508 236.125 524.52 236.135C524.531 236.145 524.558 236.166 524.579 236.181C524.615 236.207 524.638 236.219 524.712 236.257C524.751 236.276 524.784 236.303 524.788 236.317C524.789 236.322 524.791 236.342 524.792 236.36C524.799 236.456 524.817 236.497 524.884 236.564C524.933 236.614 524.95 236.639 524.951 236.661C524.951 236.675 524.946 236.687 524.909 236.758C524.817 236.933 524.779 237.022 524.753 237.123C524.72 237.25 524.725 237.337 524.769 237.411C524.777 237.424 524.776 237.425 524.774 237.389C524.77 237.346 524.776 237.302 524.791 237.254C524.81 237.19 524.834 237.149 524.923 237.025C525.026 236.881 525.078 236.771 525.128 236.593C525.174 236.432 525.193 236.281 525.189 236.119C525.188 236.089 525.187 236.037 525.186 236.004C525.183 235.866 525.153 235.734 525.087 235.561C525.02 235.383 524.923 235.228 524.786 235.076C524.654 234.93 524.486 234.79 524.293 234.667C524.171 234.588 524.058 234.527 523.839 234.422C523.727 234.368 523.68 234.343 523.623 234.305C523.534 234.246 523.456 234.178 523.373 234.086C523.315 234.022 523.314 234.026 523.387 234.034C523.532 234.05 523.7 234.134 523.851 234.263C523.867 234.277 523.877 234.283 523.876 234.279C523.872 234.25 523.879 234.186 523.89 234.143C523.904 234.089 523.913 234.071 523.956 234.011C523.98 233.978 523.986 233.966 523.995 233.939C524.022 233.853 524.004 233.762 523.945 233.68C523.914 233.637 523.887 233.591 523.886 233.577C523.885 233.571 523.888 233.555 523.893 233.542C523.897 233.529 523.901 233.516 523.899 233.512C523.897 233.501 523.869 233.469 523.844 233.446C523.824 233.428 523.781 233.398 523.714 233.354C523.697 233.343 523.695 233.341 523.703 233.341C523.745 233.343 523.789 233.342 523.809 233.34L523.832 233.337L523.821 233.313C523.802 233.272 523.798 233.245 523.807 233.207C523.815 233.165 523.826 233.148 523.886 233.072C523.91 233.043 523.932 233.013 523.935 233.006C523.938 232.998 523.94 232.982 523.94 232.963C523.939 232.9 523.941 232.886 523.955 232.863C523.969 232.84 523.995 232.814 524.027 232.789C524.04 232.779 524.058 232.766 524.067 232.758L524.084 232.746L524.068 232.742C524.059 232.74 524.045 232.738 524.037 232.736ZM523.053 234.824C523.067 234.839 523.099 234.883 523.123 234.92C523.148 234.958 523.183 235.01 523.201 235.035C523.219 235.06 523.238 235.088 523.243 235.098C523.253 235.117 523.26 235.151 523.262 235.197C523.272 235.424 523.283 235.558 523.307 235.758C523.311 235.794 523.314 235.824 523.313 235.824C523.312 235.825 523.295 235.814 523.277 235.801C523.215 235.756 523.121 235.701 523.052 235.67C522.991 235.642 522.992 235.642 522.787 235.572C522.703 235.544 522.642 235.514 522.593 235.477C522.538 235.437 522.507 235.403 522.45 235.321C522.433 235.296 522.41 235.264 522.399 235.249L522.379 235.221L522.42 235.212C522.693 235.154 522.906 234.992 522.992 234.778L522.999 234.761L523.013 234.779C523.021 234.789 523.039 234.809 523.053 234.824ZM521.942 235.186C521.958 235.192 521.991 235.203 522.014 235.209C522.037 235.215 522.056 235.22 522.056 235.22C522.057 235.221 522.032 235.324 522.002 235.451C521.952 235.659 521.946 235.686 521.941 235.736C521.932 235.835 521.932 235.916 521.94 236.023C521.944 236.073 521.947 236.097 521.956 236.15L521.958 236.166L521.943 236.151C521.903 236.112 521.862 236.058 521.841 236.014C521.823 235.979 521.81 235.918 521.811 235.883C521.813 235.85 521.835 235.781 521.854 235.746C521.908 235.648 521.912 235.639 521.928 235.571C521.953 235.469 521.955 235.401 521.935 235.307C521.923 235.248 521.911 235.22 521.88 235.178C521.871 235.166 521.863 235.155 521.863 235.154C521.864 235.152 521.875 235.156 521.888 235.163C521.902 235.169 521.926 235.179 521.942 235.186ZM522.205 235.269C522.253 235.328 522.291 235.407 522.307 235.479L522.314 235.51L522.29 235.479C522.277 235.462 522.254 235.434 522.238 235.417C522.192 235.366 522.163 235.313 522.154 235.262C522.149 235.238 522.152 235.232 522.165 235.233C522.178 235.235 522.177 235.234 522.205 235.269ZM521.941 236.192C521.966 236.205 521.966 236.205 521.973 236.231C521.977 236.245 521.983 236.268 521.986 236.28L521.992 236.302L521.965 236.28C521.908 236.236 521.857 236.176 521.867 236.167C521.873 236.161 521.905 236.172 521.941 236.192Z" fill="black"/>
</g>
<g clip-path="url(#clip7_721_157)">
<path d="M532.037 234.736C532.03 234.735 532.001 234.731 531.974 234.726C531.638 234.672 531.301 234.705 531.009 234.82C530.714 234.937 530.43 235.152 530.206 235.428C530.18 235.46 530.154 235.489 530.148 235.492C530.141 235.496 530.13 235.497 530.115 235.495C530.061 235.488 529.993 235.492 529.919 235.509C529.821 235.53 529.755 235.555 529.627 235.619C529.529 235.668 529.453 235.699 529.428 235.7C529.423 235.701 529.417 235.702 529.416 235.703C529.41 235.709 529.34 235.716 529.282 235.717C529.206 235.718 529.162 235.722 529.111 235.734C529.02 235.755 528.934 235.799 528.84 235.874C528.778 235.924 528.779 235.923 528.718 235.946C528.686 235.958 528.67 235.962 528.665 235.959C528.654 235.953 528.648 235.956 528.641 235.975C528.637 235.984 528.631 235.997 528.628 236.005C528.62 236.023 528.627 236.051 528.65 236.103C528.66 236.125 528.673 236.163 528.68 236.187C528.696 236.251 528.704 236.272 528.724 236.305C528.749 236.347 528.792 236.392 528.87 236.46C528.92 236.503 528.945 236.528 528.97 236.559C529.025 236.628 529.085 236.676 529.175 236.722C529.249 236.76 529.268 236.773 529.311 236.817L529.352 236.857L529.307 236.86C529.25 236.866 529.167 236.884 529.128 236.9C529.08 236.92 529.015 236.961 528.976 236.996C528.917 237.049 528.881 237.096 528.835 237.176C528.75 237.323 528.706 237.485 528.715 237.621C528.719 237.675 528.728 237.759 528.731 237.764C528.732 237.767 528.733 237.761 528.731 237.753C528.73 237.743 528.729 237.736 528.73 237.735C528.731 237.734 528.742 237.777 528.753 237.829C528.772 237.916 528.78 237.978 528.775 238C528.773 238.008 528.774 238.008 528.779 238.002C528.782 237.998 528.788 237.98 528.793 237.961C528.812 237.889 528.815 237.82 528.804 237.735C528.8 237.708 528.796 237.666 528.794 237.642C528.791 237.602 528.792 237.594 528.801 237.554C528.814 237.505 528.824 237.487 528.86 237.454C528.907 237.41 529.01 237.35 529.173 237.272C529.287 237.218 529.351 237.171 529.412 237.098C529.442 237.062 529.466 237.023 529.481 236.986C529.485 236.975 529.489 236.967 529.489 236.967C529.489 236.967 529.502 236.974 529.516 236.984C529.53 236.993 529.561 237.012 529.585 237.026C529.61 237.04 529.632 237.055 529.635 237.059C529.64 237.066 529.639 237.071 529.629 237.1C529.61 237.156 529.586 237.258 529.58 237.309C529.565 237.442 529.57 237.562 529.599 237.698C529.62 237.798 529.642 237.859 529.7 237.978C529.716 238.008 529.73 238.061 529.736 238.106C529.744 238.169 529.796 238.271 529.845 238.319C529.885 238.359 529.965 238.405 530.019 238.418C530.035 238.422 530.036 238.423 530.07 238.484C530.108 238.55 530.141 238.595 530.179 238.633C530.203 238.657 530.258 238.701 530.262 238.699C530.266 238.696 530.26 238.667 530.248 238.627C530.229 238.568 530.225 238.546 530.223 238.51C530.222 238.493 530.222 238.478 530.222 238.476C530.222 238.475 530.237 238.477 530.254 238.481L530.285 238.489L530.253 238.47L530.221 238.451L530.221 238.401C530.223 238.274 530.243 238.123 530.276 237.99C530.297 237.907 530.31 237.869 530.337 237.808L530.353 237.773L530.367 237.834C530.402 237.981 530.452 238.12 530.514 238.241C530.567 238.344 530.618 238.419 530.699 238.509C530.801 238.623 530.89 238.701 531.204 238.952C531.244 238.984 531.29 239.022 531.306 239.035C531.36 239.082 531.447 239.151 531.457 239.153C531.466 239.156 531.467 239.155 531.469 239.142C531.475 239.118 531.451 239.052 531.415 238.987C531.408 238.975 531.381 238.938 531.356 238.905C531.278 238.805 531.279 238.807 531.283 238.646C531.285 238.531 531.277 238.485 531.239 238.404C531.203 238.329 531.194 238.306 531.188 238.276C531.177 238.218 531.212 238.166 531.263 238.164C531.28 238.164 531.314 238.172 531.347 238.184L531.37 238.193L531.377 238.221C531.419 238.384 531.457 238.482 531.5 238.541C531.512 238.557 531.541 238.594 531.565 238.623C531.756 238.859 531.807 239.027 531.791 239.379C531.79 239.41 531.789 239.436 531.79 239.437C531.791 239.438 531.806 239.384 531.823 239.316C531.87 239.129 531.881 239.033 531.867 238.931C531.858 238.867 531.817 238.741 531.777 238.653C531.747 238.588 531.733 238.548 531.728 238.515C531.725 238.492 531.726 238.483 531.734 238.451C531.743 238.415 531.745 238.41 531.769 238.377C531.828 238.295 531.843 238.266 531.855 238.219C531.866 238.173 531.864 238.146 531.844 238.051C531.834 238.005 531.825 237.954 531.825 237.94C531.825 237.91 531.838 237.854 531.875 237.731C531.895 237.663 531.897 237.655 531.897 237.623C531.897 237.585 531.892 237.529 531.882 237.469C531.875 237.425 531.875 237.426 531.896 237.482C531.914 237.532 531.948 237.592 531.967 237.607C531.979 237.616 531.983 237.625 532.005 237.698C532.085 237.966 532.154 238.307 532.17 238.518C532.178 238.635 532.172 238.743 532.152 238.848L532.148 238.866L532.169 238.843C532.218 238.787 532.264 238.71 532.296 238.633C532.324 238.562 532.356 238.42 532.364 238.331C532.371 238.242 532.372 238.158 532.367 238.112C532.366 238.106 532.373 238.11 532.395 238.13C532.455 238.183 532.485 238.183 532.491 238.131C532.492 238.121 532.495 238.113 532.496 238.114C532.497 238.115 532.508 238.125 532.52 238.135C532.531 238.145 532.558 238.166 532.579 238.181C532.615 238.207 532.638 238.219 532.712 238.257C532.751 238.276 532.784 238.303 532.788 238.317C532.789 238.322 532.791 238.342 532.792 238.36C532.799 238.456 532.817 238.497 532.884 238.564C532.933 238.614 532.95 238.639 532.951 238.661C532.951 238.675 532.946 238.687 532.909 238.758C532.817 238.933 532.779 239.022 532.753 239.123C532.72 239.25 532.725 239.337 532.769 239.411C532.777 239.424 532.776 239.425 532.774 239.389C532.77 239.346 532.776 239.302 532.791 239.254C532.81 239.19 532.834 239.149 532.923 239.025C533.026 238.881 533.078 238.771 533.128 238.593C533.174 238.432 533.193 238.281 533.189 238.119C533.188 238.089 533.187 238.037 533.186 238.004C533.183 237.866 533.153 237.734 533.087 237.561C533.02 237.383 532.923 237.228 532.786 237.076C532.654 236.93 532.486 236.79 532.293 236.667C532.171 236.588 532.058 236.527 531.839 236.422C531.727 236.368 531.68 236.343 531.623 236.305C531.534 236.246 531.456 236.178 531.373 236.086C531.315 236.022 531.314 236.026 531.387 236.034C531.532 236.05 531.7 236.134 531.851 236.263C531.867 236.277 531.877 236.283 531.876 236.279C531.872 236.25 531.879 236.186 531.89 236.143C531.904 236.089 531.913 236.071 531.956 236.011C531.98 235.978 531.986 235.966 531.995 235.939C532.022 235.853 532.004 235.762 531.945 235.68C531.914 235.637 531.887 235.591 531.886 235.577C531.885 235.571 531.888 235.555 531.893 235.542C531.897 235.529 531.901 235.516 531.899 235.512C531.897 235.501 531.869 235.469 531.844 235.446C531.824 235.428 531.781 235.398 531.714 235.354C531.697 235.343 531.695 235.341 531.703 235.341C531.745 235.343 531.789 235.342 531.809 235.34L531.832 235.337L531.821 235.313C531.802 235.272 531.798 235.245 531.807 235.207C531.815 235.165 531.826 235.148 531.886 235.072C531.91 235.043 531.932 235.013 531.935 235.006C531.938 234.998 531.94 234.982 531.94 234.963C531.939 234.9 531.941 234.886 531.955 234.863C531.969 234.84 531.995 234.814 532.027 234.789C532.04 234.779 532.058 234.766 532.067 234.758L532.084 234.746L532.068 234.742C532.059 234.74 532.045 234.738 532.037 234.736ZM531.053 236.824C531.067 236.839 531.099 236.883 531.123 236.92C531.148 236.958 531.183 237.01 531.201 237.035C531.219 237.06 531.238 237.088 531.243 237.098C531.253 237.117 531.26 237.151 531.262 237.197C531.272 237.424 531.283 237.558 531.307 237.758C531.311 237.794 531.314 237.824 531.313 237.824C531.312 237.825 531.295 237.814 531.277 237.801C531.215 237.756 531.121 237.701 531.052 237.67C530.991 237.642 530.992 237.642 530.787 237.572C530.703 237.544 530.642 237.514 530.593 237.477C530.538 237.437 530.507 237.403 530.45 237.321C530.433 237.296 530.41 237.264 530.399 237.249L530.379 237.221L530.42 237.212C530.693 237.154 530.906 236.992 530.992 236.778L530.999 236.761L531.013 236.779C531.021 236.789 531.039 236.809 531.053 236.824ZM529.942 237.186C529.958 237.192 529.991 237.203 530.014 237.209C530.037 237.215 530.056 237.22 530.056 237.22C530.057 237.221 530.032 237.324 530.002 237.451C529.952 237.659 529.946 237.686 529.941 237.736C529.932 237.835 529.932 237.916 529.94 238.023C529.944 238.073 529.947 238.097 529.956 238.15L529.958 238.166L529.943 238.151C529.903 238.112 529.862 238.058 529.841 238.014C529.823 237.979 529.81 237.918 529.811 237.883C529.813 237.85 529.835 237.781 529.854 237.746C529.908 237.648 529.912 237.639 529.928 237.571C529.953 237.469 529.955 237.401 529.935 237.307C529.923 237.248 529.911 237.22 529.88 237.178C529.871 237.166 529.863 237.155 529.863 237.154C529.864 237.152 529.875 237.156 529.888 237.163C529.902 237.169 529.926 237.179 529.942 237.186ZM530.205 237.269C530.253 237.328 530.291 237.407 530.307 237.479L530.314 237.51L530.29 237.479C530.277 237.462 530.254 237.434 530.238 237.417C530.192 237.366 530.163 237.313 530.154 237.262C530.149 237.238 530.152 237.232 530.165 237.233C530.178 237.235 530.177 237.234 530.205 237.269ZM529.941 238.192C529.966 238.205 529.966 238.205 529.973 238.231C529.977 238.245 529.983 238.268 529.986 238.28L529.992 238.302L529.965 238.28C529.908 238.236 529.857 238.176 529.867 238.167C529.873 238.161 529.905 238.172 529.941 238.192Z" fill="black"/>
</g>
<defs>
<linearGradient id="paint0_linear_721_157" x1="1021.07" y1="467.076" x2="1043.98" y2="467.076" gradientUnits="userSpaceOnUse">
<stop stop-opacity="0"/>
<stop offset="0.91" stop-opacity="0.8"/>
<stop offset="1"/>
</linearGradient>
<linearGradient id="paint1_linear_721_157" x1="1133.28" y1="264.093" x2="866.414" y2="378.366" gradientUnits="userSpaceOnUse">
<stop stop-opacity="0"/>
<stop offset="0.91" stop-opacity="0.8"/>
<stop offset="1"/>
</linearGradient>
<linearGradient id="paint2_linear_721_157" x1="1096.93" y1="384.056" x2="1022.3" y2="375.446" gradientUnits="userSpaceOnUse">
<stop stop-opacity="0"/>
<stop offset="0.91" stop-opacity="0.8"/>
<stop offset="1"/>
</linearGradient>
<linearGradient id="paint3_linear_721_157" x1="470.058" y1="352.365" x2="466.606" y2="376.074" gradientUnits="userSpaceOnUse">
<stop stop-opacity="0"/>
<stop offset="0.91" stop-opacity="0.8"/>
<stop offset="1"/>
</linearGradient>
<linearGradient id="paint4_linear_721_157" x1="414.744" y1="328.295" x2="398.334" y2="365.921" gradientUnits="userSpaceOnUse">
<stop stop-color="#ECC4D7"/>
<stop offset="0.42" stop-color="#EFD4D1"/>
<stop offset="1" stop-color="#F2EAC9"/>
</linearGradient>
<linearGradient id="paint5_linear_721_157" x1="240.331" y1="458.461" x2="1014.24" y2="458.461" gradientUnits="userSpaceOnUse">
<stop stop-opacity="0"/>
<stop offset="0.91" stop-opacity="0.8"/>
<stop offset="1"/>
</linearGradient>
<linearGradient id="paint6_linear_721_157" x1="627.472" y1="344.681" x2="628.163" y2="425.313" gradientUnits="userSpaceOnUse">
<stop stop-opacity="0"/>
<stop offset="0.91" stop-opacity="0.8"/>
<stop offset="1"/>
</linearGradient>
<linearGradient id="paint7_linear_721_157" x1="519.786" y1="271.25" x2="493.873" y2="282.647" gradientUnits="userSpaceOnUse">
<stop stop-color="#ECC4D7"/>
<stop offset="0.42" stop-color="#EFD4D1"/>
<stop offset="1" stop-color="#F2EAC9"/>
</linearGradient>
<linearGradient id="paint8_linear_721_157" x1="444.856" y1="240.182" x2="555.673" y2="240.182" gradientUnits="userSpaceOnUse">
<stop stop-opacity="0"/>
<stop offset="0.91" stop-opacity="0.8"/>
<stop offset="1"/>
</linearGradient>
<linearGradient id="paint9_linear_721_157" x1="462.795" y1="246.49" x2="457.609" y2="261.96" gradientUnits="userSpaceOnUse">
<stop stop-opacity="0"/>
<stop offset="0.91" stop-opacity="0.8"/>
<stop offset="1"/>
</linearGradient>
<linearGradient id="paint10_linear_721_157" x1="520.883" y1="259.267" x2="520.883" y2="274.236" gradientUnits="userSpaceOnUse">
<stop stop-opacity="0"/>
<stop offset="0.91" stop-opacity="0.8"/>
<stop offset="1"/>
</linearGradient>
<linearGradient id="paint11_linear_721_157" x1="486.301" y1="295.785" x2="513.749" y2="347.531" gradientUnits="userSpaceOnUse">
<stop stop-opacity="0"/>
<stop offset="0.91" stop-opacity="0.8"/>
<stop offset="1"/>
</linearGradient>
<linearGradient id="paint12_linear_721_157" x1="461.477" y1="305.066" x2="527.861" y2="449.862" gradientUnits="userSpaceOnUse">
<stop stop-opacity="0"/>
<stop offset="0.91" stop-opacity="0.8"/>
<stop offset="1"/>
</linearGradient>
<linearGradient id="paint13_linear_721_157" x1="386.116" y1="350.152" x2="409.505" y2="341.676" gradientUnits="userSpaceOnUse">
<stop stop-color="#ECC4D7"/>
<stop offset="0.42" stop-color="#EFD4D1"/>
<stop offset="1" stop-color="#F2EAC9"/>
</linearGradient>
<linearGradient id="paint14_linear_721_157" x1="498.416" y1="393.092" x2="586.567" y2="393.092" gradientUnits="userSpaceOnUse">
<stop stop-opacity="0"/>
<stop offset="0.91" stop-opacity="0.8"/>
<stop offset="1"/>
</linearGradient>
<linearGradient id="paint15_linear_721_157" x1="533.17" y1="342.025" x2="627.553" y2="342.025" gradientUnits="userSpaceOnUse">
<stop stop-opacity="0"/>
<stop offset="0.91" stop-opacity="0.8"/>
<stop offset="1"/>
</linearGradient>
<linearGradient id="paint16_linear_721_157" x1="586.567" y1="393.092" x2="607.802" y2="393.092" gradientUnits="userSpaceOnUse">
<stop stop-opacity="0"/>
<stop offset="0.91" stop-opacity="0.8"/>
<stop offset="1"/>
</linearGradient>
<linearGradient id="paint17_linear_721_157" x1="627.202" y1="457.398" x2="615.867" y2="547.231" gradientUnits="userSpaceOnUse">
<stop stop-opacity="0"/>
<stop offset="0.91" stop-opacity="0.8"/>
<stop offset="1"/>
</linearGradient>
<linearGradient id="paint18_linear_721_157" x1="523.563" y1="272.622" x2="500.849" y2="273.213" gradientUnits="userSpaceOnUse">
<stop stop-opacity="0"/>
<stop offset="0.91" stop-opacity="0.8"/>
<stop offset="1"/>
</linearGradient>
<linearGradient id="paint19_linear_721_157" x1="16.9989" y1="650.942" x2="1151.74" y2="650.942" gradientUnits="userSpaceOnUse">
<stop stop-opacity="0"/>
<stop offset="0.91" stop-opacity="0.8"/>
<stop offset="1"/>
</linearGradient>
<linearGradient id="paint20_linear_721_157" x1="583.302" y1="462.98" x2="589.446" y2="850.226" gradientUnits="userSpaceOnUse">
<stop stop-opacity="0"/>
<stop offset="0.91" stop-opacity="0.8"/>
<stop offset="1"/>
</linearGradient>
<linearGradient id="paint21_linear_721_157" x1="901.693" y1="500.092" x2="911.048" y2="552.003" gradientUnits="userSpaceOnUse">
<stop stop-opacity="0"/>
<stop offset="0.91" stop-opacity="0.8"/>
<stop offset="1"/>
</linearGradient>
<linearGradient id="paint22_linear_721_157" x1="531.307" y1="386.847" x2="531.507" y2="410.011" gradientUnits="userSpaceOnUse">
<stop stop-opacity="0"/>
<stop offset="0.91" stop-opacity="0.8"/>
<stop offset="1"/>
</linearGradient>
<clipPath id="clip0_721_157">
<rect width="5" height="4.625" fill="white" transform="translate(482.643 222.458) rotate(14.1839)"/>
</clipPath>
<clipPath id="clip1_721_157">
<rect width="5" height="4.625" fill="white" transform="translate(489.133 224) rotate(14.1839)"/>
</clipPath>
<clipPath id="clip2_721_157">
<rect width="5" height="4.625" fill="white" transform="translate(496.133 226) rotate(14.1839)"/>
</clipPath>
<clipPath id="clip3_721_157">
<rect width="5" height="4.625" fill="white" transform="translate(503.133 228) rotate(14.1839)"/>
</clipPath>
<clipPath id="clip4_721_157">
<rect width="5" height="4.625" fill="white" transform="translate(509.133 229) rotate(14.1839)"/>
</clipPath>
<clipPath id="clip5_721_157">
<rect width="5" height="4.625" fill="white" transform="translate(515.133 231) rotate(14.1839)"/>
</clipPath>
<clipPath id="clip6_721_157">
<rect width="5" height="4.625" fill="white" transform="translate(521.133 232) rotate(14.1839)"/>
</clipPath>
<clipPath id="clip7_721_157">
<rect width="5" height="4.625" fill="white" transform="translate(529.133 234) rotate(14.1839)"/>
</clipPath>
</defs>
</svg>
