<svg width="128" height="128" viewBox="0 0 128 128" fill="none" xmlns="http://www.w3.org/2000/svg">
<path d="M64 125.867C98.168 125.867 125.867 98.1685 125.867 64.0005C125.867 29.8324 98.168 2.13379 64 2.13379C29.8319 2.13379 2.1333 29.8324 2.1333 64.0005C2.1333 98.1685 29.8319 125.867 64 125.867Z" fill="#26A5B8"/>
<path d="M63.9999 8.5332C53.0296 8.5332 42.3057 11.7863 33.1843 17.881C24.0628 23.9758 16.9535 32.6385 12.7554 42.7737C8.55724 52.9089 7.45881 64.0614 9.599 74.8209C11.7392 85.5804 17.0219 95.4636 24.779 103.221C32.5362 110.978 42.4194 116.261 53.1789 118.401C63.9384 120.541 75.0909 119.443 85.2261 115.244C95.3613 111.046 104.024 103.937 110.119 94.8155C116.213 85.694 119.467 74.9701 119.467 63.9999C119.45 49.2944 113.6 35.1961 103.202 24.7977C92.8037 14.3994 78.7054 8.55014 63.9999 8.5332V8.5332ZM102.251 92.7999C97.2266 87.7119 85.1839 82.1332 63.9999 82.1332C42.8159 82.1332 30.7732 87.7332 25.7492 92.7999C20.3512 85.6795 17.0478 77.1937 16.2109 68.2977C15.374 59.4018 17.0368 50.4488 21.0121 42.4466C24.9874 34.4443 31.1174 27.7106 38.7121 23.0032C46.3068 18.2959 55.0646 15.8018 63.9999 15.8018C72.9351 15.8018 81.693 18.2959 89.2877 23.0032C96.8824 27.7106 103.012 34.4443 106.988 42.4466C110.963 50.4488 112.626 59.4018 111.789 68.2977C110.952 77.1937 107.649 85.6795 102.251 92.7999V92.7999Z" fill="white"/>
<path d="M64 74.7842C76.6834 74.7842 86.9653 64.5023 86.9653 51.8188C86.9653 39.1354 76.6834 28.8535 64 28.8535C51.3166 28.8535 41.0347 39.1354 41.0347 51.8188C41.0347 64.5023 51.3166 74.7842 64 74.7842Z" fill="white"/>
</svg>
