<svg width="893" height="1007" viewBox="0 0 893 1007" fill="none" xmlns="http://www.w3.org/2000/svg">
<path d="M629.72 323.566C609.786 318.992 586.234 339.131 584.937 352.716C723.45 474.982 727.683 608.307 714.507 688.861L697.441 686.131C720.651 561.953 675.595 464.537 608.831 400.503C569.987 358.246 512.575 322.884 474.55 304.315C434.682 288.477 399.115 278.374 355.971 280.831C386.691 307.728 386.008 365.55 353.923 401.8C374.881 339.677 349.417 298.376 326.207 277.486C297.262 280.285 233.842 296.328 210.426 314.077C210.495 317.081 211.655 327.389 213.908 334.284C230.429 348.211 241.624 355.174 267.088 370.943C252.547 369.988 244.765 367.53 229.131 364.458C340.679 538.606 597.362 432.11 683.31 570.692C617.91 521.54 504.792 498.192 467.314 500.991C476.53 510.958 490.32 522.905 501.789 531.507C432.225 521.335 402.802 521.813 372.15 505.019C351.124 495.462 341.703 475.869 308.662 460.782C263.333 440.234 205.033 396.339 196.5 308.821C266.132 269.567 402.802 222.736 629.72 323.566Z" fill="#C3C4BE" stroke="#001010" stroke-width="0.0022078" stroke-linecap="square"/>
<path d="M615.588 676.595C601.389 675.23 569.44 675.23 562.75 673.592C612.926 664.717 647.264 646.353 677.643 600C679.827 630.515 652.179 654.272 615.588 676.595Z" fill="#9CC0AC" stroke="#001010" stroke-width="0.0022078" stroke-linecap="square"/>
<path d="M675.816 814.076C661.89 846.093 641.069 877.905 628.849 898.181C627.529 898.044 625.413 897.543 622.5 896.679C625.367 841.929 624.002 806.294 622.841 789.5C635.402 794.415 656.428 803.699 675.816 814.076Z" fill="#9CC0AC" stroke="#001010" stroke-width="0.0022078" stroke-linecap="square"/>
<path d="M867.409 719.641C863.313 756.3 815.731 824.977 772.996 871.262C720.635 833.851 612.91 777.122 495.833 742.989C374.455 712.269 294.788 706.261 173 729.54C234.986 704.145 323.733 667.213 539.865 673.766C656.328 674.722 752.038 693.495 867.409 719.641Z" fill="#26A5B8" stroke="#001010" stroke-width="0.0022078" stroke-linecap="square"/>
<path d="M702.492 929.454C629.037 877.435 349.758 838.045 178.75 915.664C341.02 1037.86 533.737 1030.08 702.492 929.454Z" fill="#26A5B8" stroke="#001010" stroke-width="0.0022078" stroke-linecap="square"/>
<path d="M147.92 891.509C130.58 882.429 82.8619 833.55 66 796.481C177.343 771.018 353.607 748.012 496.831 836.349C317.29 815.733 230.864 832.526 147.92 891.509Z" fill="#26A5B8" stroke="#001010" stroke-width="0.0022078" stroke-linecap="square"/>
<path d="M41.8437 747.092C31.672 724.701 9.21227 680.191 3 607.487C38.7035 594.721 260.024 558.13 414.716 619.57C275.998 623.052 135.506 678.962 41.8437 747.092Z" fill="#C8BAA0" stroke="#001010" stroke-width="0.0022078" stroke-linecap="square"/>
<path d="M891.016 641.961C932.659 17.5941 95.5733 -63.4384 0 546.456L27.3067 548.709C129.092 -20.9083 890.266 54.5946 863.437 639.572L891.016 641.961Z" fill="#C8BAA0" stroke="#001010" stroke-width="0.0022078" stroke-linecap="square"/>
<path d="M315.405 120.333C379.302 117.125 358.822 -27.6688 282.5 44.7621L315.405 120.333ZM324.621 93.7776L306.735 53.6368C324.621 30.6992 344.486 71.7957 324.621 93.7776Z" fill="#C8BAA0" stroke="#001010" stroke-width="0.0022078" stroke-linecap="square" stroke-linejoin="round"/>
<path d="M388.037 0C404.558 0 418.006 20.8896 418.006 46.6944C418.006 72.4309 404.558 93.3205 388.037 93.3205C371.449 93.3205 358 72.4309 358 46.6944C358 20.8896 371.449 0 388.037 0ZM387.559 18.9099C381.962 18.9099 377.456 30.5152 377.456 44.7829C377.456 59.0507 381.962 70.656 387.559 70.656C393.157 70.656 397.663 59.0507 397.663 44.7829C397.663 30.5152 393.157 18.9099 387.559 18.9099Z" fill="#C8BAA0" stroke="#001010" stroke-width="0.0022078" stroke-linecap="square"/>
<path d="M480.303 83.105L462.827 91.57L450.471 60.9183L441.46 62.3519L437.227 85.426L419 83.5828L435.179 3.64255C495.322 -8.09932 502.354 31.154 470.2 54.9791L480.303 83.105ZM447.672 40.5066C478.46 35.6596 473.955 16.6132 449.857 23.3716L447.672 40.5066Z" fill="#C8BAA0" stroke="#001010" stroke-width="0.0022078" stroke-linecap="square" stroke-linejoin="round"/>
<path d="M529.453 18.2971L528.292 53.864L558.944 28.8784L572.938 40.6885L523.24 85.4715L510.952 106.771L494.5 98.3056L506.583 77.0064L511.976 17L529.453 18.2971Z" fill="#C8BAA0" stroke="#001010" stroke-width="0.0022078" stroke-linecap="square" stroke-linejoin="round"/>
<path d="M278.452 310.5C287.532 310.5 294.905 316.917 294.905 324.836C294.905 332.687 287.532 339.104 278.452 339.104C269.373 339.104 262 332.687 262 324.836C262 316.917 269.373 310.5 278.452 310.5Z" fill="#9AC1AB" stroke="#001010" stroke-width="0.0022078" stroke-linecap="square"/>
</svg>
