<svg width="1538" height="1538" viewBox="0 0 1538 1538" fill="none" xmlns="http://www.w3.org/2000/svg">
<path d="M1049.53 498.207C1019.59 491.338 984.217 521.585 982.269 541.989C1190.31 725.626 1196.67 925.874 1176.88 1046.87L1151.24 1042.76C1186.11 856.254 1118.43 709.939 1018.16 613.763C959.814 550.294 873.584 497.182 816.473 469.293C756.593 445.505 703.173 430.33 638.372 434.022C684.512 474.42 683.487 561.265 635.296 615.711C666.774 522.405 628.529 460.373 593.668 428.997C550.194 433.201 454.94 457.297 419.771 483.955C419.874 488.467 421.617 503.949 425 514.305C449.814 535.222 466.629 545.68 504.874 569.366C483.034 567.93 471.346 564.239 447.865 559.625C615.405 821.188 1000.93 661.236 1130.02 869.378C1031.79 795.554 861.895 760.488 805.604 764.692C819.446 779.662 840.158 797.605 857.384 810.524C752.902 795.247 708.71 795.964 662.673 770.741C631.092 756.386 616.943 726.959 567.317 704.299C499.235 673.437 411.671 607.508 398.854 476.06C503.438 417.104 708.71 346.766 1049.53 498.207Z" fill="#C3C4BE" stroke="#001010" stroke-width="0.0022078" stroke-linecap="square"/>
<path d="M1028.31 1028.51C1006.98 1026.46 958.995 1026.46 948.946 1024C1024.31 1010.67 1075.88 983.088 1121.51 913.468C1124.79 959.3 1083.26 994.982 1028.31 1028.51Z" fill="#9CC0AC" stroke="#001010" stroke-width="0.0022078" stroke-linecap="square"/>
<path d="M1118.64 1235.01C1097.72 1283.1 1066.45 1330.88 1048.1 1361.33C1046.12 1361.13 1042.94 1360.38 1038.56 1359.08C1042.87 1276.85 1040.82 1223.32 1039.07 1198.1C1057.94 1205.48 1089.52 1219.43 1118.64 1235.01Z" fill="#9CC0AC" stroke="#001010" stroke-width="0.0022078" stroke-linecap="square"/>
<path d="M1406.55 1092.9C1400.4 1147.96 1328.93 1251.11 1264.75 1320.63C1186.11 1264.44 1024.31 1179.24 848.463 1127.97C666.159 1081.83 546.502 1072.81 363.583 1107.77C456.683 1069.63 589.977 1014.16 914.597 1024C1089.52 1025.44 1233.27 1053.63 1406.55 1092.9Z" fill="#26A5B8" stroke="#001010" stroke-width="0.0022078" stroke-linecap="square"/>
<path d="M1158.73 1408.3C1048.4 1330.16 628.94 1271 372.094 1387.58C615.815 1571.12 905.267 1559.43 1158.73 1408.3Z" fill="#26A5B8" stroke="#001010" stroke-width="0.0022078" stroke-linecap="square"/>
<path d="M325.645 1350.88C299.602 1337.24 227.931 1263.83 202.605 1208.15C369.837 1169.9 634.578 1135.35 849.693 1268.03C580.031 1237.06 450.223 1262.29 325.645 1350.88Z" fill="#26A5B8" stroke="#001010" stroke-width="0.0022078" stroke-linecap="square"/>
<path d="M166.412 1133.92C151.134 1100.28 117.401 1033.43 108.07 924.237C161.695 905.063 494.108 850.106 726.449 942.386C518.101 947.615 307.088 1031.59 166.412 1133.92Z" fill="#C8BAA0" stroke="#001010" stroke-width="0.0022078" stroke-linecap="square"/>
<path d="M1441.82 976.116C1504.37 38.3459 247.105 -83.3612 103.559 832.672L144.572 836.056C297.449 -19.483 1440.7 93.9189 1400.4 972.528L1441.82 976.116Z" fill="#C8BAA0" stroke="#001010" stroke-width="0.0022078" stroke-linecap="square"/>
<path d="M521.895 478.317C535.532 478.317 546.606 487.955 546.606 499.849C546.606 511.64 535.532 521.278 521.895 521.278C508.258 521.278 497.185 511.64 497.185 499.849C497.185 487.955 508.258 478.317 521.895 478.317Z" fill="#C3C4BE" stroke="#001010" stroke-width="0.0022078" stroke-linecap="square"/>
</svg>
