<svg width="96" height="96" viewBox="0 0 96 96" fill="none" xmlns="http://www.w3.org/2000/svg">
<path d="M65.505 31.0843C63.6362 30.6555 61.4282 32.5435 61.3066 33.8171C74.2922 45.2795 74.689 57.7787 73.4538 65.3307L71.8538 65.0747C74.0298 53.4331 69.8058 44.3003 63.5466 38.2971C59.905 34.3355 54.5226 31.0203 50.9578 29.2795C47.2202 27.7947 43.8858 26.8475 39.841 27.0779C42.721 29.5995 42.657 35.0203 39.649 38.4187C41.6138 32.5947 39.2266 28.7227 37.0506 26.7643C34.337 27.0267 28.3914 28.5307 26.1962 30.1947C26.2026 30.4763 26.3114 31.4427 26.5226 32.0891C28.0714 33.3947 29.121 34.0475 31.5082 35.5259C30.145 35.4363 29.4154 35.2059 27.9498 34.9179C38.4074 51.2443 62.4714 41.2603 70.529 54.2523C64.3978 49.6443 53.793 47.4555 50.2794 47.7179C51.1434 48.6523 52.4362 49.7723 53.5114 50.5787C46.9898 49.6251 44.2314 49.6699 41.3578 48.0955C39.3866 47.1995 38.5034 45.3627 35.4058 43.9483C31.1562 42.0219 25.6906 37.9067 24.8906 29.7019C31.4186 26.0219 44.2314 21.6315 65.505 31.0843Z" fill="white" stroke="#001010" stroke-width="0.0022078" stroke-linecap="square"/>
<path d="M64.1802 64.1808C62.849 64.0528 59.8538 64.0528 59.2266 63.8992C63.9306 63.0672 67.1498 61.3456 69.9978 57C70.2026 59.8608 67.6106 62.088 64.1802 64.1808Z" fill="white" stroke="#001010" stroke-width="0.0022078" stroke-linecap="square"/>
<path d="M69.8265 77.0696C68.5209 80.0712 66.5689 83.0536 65.4233 84.9544C65.2996 84.9416 65.1012 84.8947 64.8281 84.8136C65.0969 79.6808 64.9689 76.34 64.8601 74.7656C66.0377 75.2264 68.0089 76.0968 69.8265 77.0696Z" fill="white" stroke="#001010" stroke-width="0.0022078" stroke-linecap="square"/>
<path d="M87.7883 68.2164C87.4043 71.6532 82.9435 78.0916 78.9371 82.4308C74.0283 78.9236 63.9291 73.6052 52.9531 70.4052C41.5739 67.5252 34.1051 66.962 22.6875 69.1444C28.4987 66.7636 36.8187 63.3012 57.0811 63.9156C67.9995 64.0052 76.9723 65.7652 87.7883 68.2164Z" fill="white" stroke="#001010" stroke-width="0.0022078" stroke-linecap="square"/>
<path d="M72.3274 87.8863C65.441 83.0095 39.2586 79.3167 23.2266 86.5935C38.4394 98.0495 56.5066 97.3199 72.3274 87.8863Z" fill="white" stroke="#001010" stroke-width="0.0022078" stroke-linecap="square"/>
<path d="M20.3363 84.3289C18.7107 83.4777 14.2371 78.8953 12.6562 75.4201C23.0947 73.0329 39.6195 70.8761 53.0467 79.1577C36.2147 77.2249 28.1123 78.7993 20.3363 84.3289Z" fill="white" stroke="#001010" stroke-width="0.0022078" stroke-linecap="square"/>
<path d="M10.3916 70.7899C9.438 68.6907 7.3324 64.5179 6.75 57.7019C10.0972 56.5051 30.846 53.0747 45.3484 58.8347C32.3436 59.1611 19.1724 64.4027 10.3916 70.7899Z" fill="white" stroke="#001010" stroke-width="0.0022078" stroke-linecap="square"/>
<path d="M90.0015 60.9338C93.9055 2.39944 15.4288 -5.19735 6.46875 51.9803L9.02875 52.1915C18.5712 -1.21015 89.9312 5.86824 87.416 60.7099L90.0015 60.9338Z" fill="white" stroke="white" stroke-width="0.0022078" stroke-linecap="square"/>
<path d="M36.0379 12.0312C42.0283 11.7305 40.1083 -1.84395 32.9531 4.94645L36.0379 12.0312ZM36.9019 9.54165L35.2251 5.77845C36.9019 3.62805 38.7643 7.48085 36.9019 9.54165Z" fill="white" stroke="#001010" stroke-width="0.0022078" stroke-linecap="square" stroke-linejoin="round"/>
<path d="M42.8473 0.75C44.3961 0.75 45.6569 2.7084 45.6569 5.1276C45.6569 7.5404 44.3961 9.4988 42.8473 9.4988C41.292 9.4988 40.0312 7.5404 40.0312 5.1276C40.0312 2.7084 41.292 0.75 42.8473 0.75ZM42.8025 2.5228C42.2777 2.5228 41.8553 3.6108 41.8553 4.9484C41.8553 6.286 42.2777 7.374 42.8025 7.374C43.3273 7.374 43.7497 6.286 43.7497 4.9484C43.7497 3.6108 43.3273 2.5228 42.8025 2.5228Z" fill="white" stroke="#001010" stroke-width="0.0022078" stroke-linecap="square"/>
<path d="M51.4972 8.54109L49.8588 9.33469L48.7004 6.46109L47.8556 6.59549L47.4588 8.75869L45.75 8.58589L47.2668 1.09149C52.9052 -0.009311 53.5644 3.67069 50.55 5.90429L51.4972 8.54109ZM48.438 4.54749C51.3244 4.09309 50.902 2.30749 48.6428 2.94109L48.438 4.54749Z" fill="white" stroke="#001010" stroke-width="0.0022078" stroke-linecap="square" stroke-linejoin="round"/>
<path d="M56.1049 2.46535L55.9961 5.79975L58.8697 3.45735L60.1817 4.56455L55.5225 8.76295L54.3705 10.7598L52.8281 9.96615L53.9609 7.96935L54.4665 2.34375L56.1049 2.46535Z" fill="white" stroke="#001010" stroke-width="0.0022078" stroke-linecap="square" stroke-linejoin="round"/>
<path d="M32.5737 29.8594C33.4249 29.8594 34.1161 30.461 34.1161 31.2034C34.1161 31.9394 33.4249 32.541 32.5737 32.541C31.7225 32.541 31.0312 31.9394 31.0312 31.2034C31.0312 30.461 31.7225 29.8594 32.5737 29.8594Z" fill="white" stroke="#001010" stroke-width="0.0022078" stroke-linecap="square"/>
</svg>
