<svg width="489" height="83" viewBox="0 0 489 83" fill="none" xmlns="http://www.w3.org/2000/svg">
<g clip-path="url(#clip0_601_2)">
<path d="M131 12.8996C123.1 14.5996 116.6 20.1996 112.8 28.4996C109.4 36.1996 109.6 47.5996 113.3 55.1996C116.7 62.0996 121.7 66.4996 128.4 68.4996C137.5 71.1996 144.1 70.1996 149.2 65.2996C152.1 62.4996 152 62.3996 153.6 67.6996C153.8 68.3996 155.5 68.9996 157.5 68.9996H161V53.9996V38.9996H149.5H138V43.4996V47.9996H144C150.6 47.9996 150.9 48.3996 148.4 53.4996C145.6 59.4996 135.3 61.4996 129.4 57.2996C124.9 54.0996 122.7 48.7996 122.7 40.9996C122.7 29.2996 127.8 22.9996 137.3 22.9996C142.2 22.9996 146.5 25.6996 148 29.5996C148.9 31.6996 149.6 31.9996 154.6 31.9996H160.3L159.7 28.2996C158.9 23.6996 154.5 18.1996 149.4 15.2996C145 12.7996 136.4 11.6996 131 12.8996Z" fill="#494949"/>
<path d="M401 12.9C396 13.9 393.1 15.7 388.2 20.4C377.1 31 377.8 53.6 389.5 63.9C395.5 69.1 406.7 71.3 415.4 68.9C420.8 67.4 427.5 60.9 429.4 55.3C432.1 47.4 431.9 46.9 425.3 47.2C419.9 47.5 419.6 47.6 418.8 50.6C416.1 61.1 401.7 62.7 395.4 53.3C391.4 47.3 391.5 34.7 395.7 28.4C399.5 22.6 409.5 21.1 414.9 25.5C416.5 26.9 418.2 29 418.5 30C419 31.7 420.1 32 425.1 32H431L430.4 29.2C428.9 23 424.6 17.8 418.3 14.6C414.5 12.7 405.8 11.8 401 12.9Z" fill="#494949"/>
<path d="M169 41.4995V68.9995H175H181V41.4995V13.9995H175H169V41.4995Z" fill="#494949"/>
<path d="M189 41.4996V69.0996L194.8 68.7996L200.5 68.4996L201 50.7996L201.5 33.0996L212.5 50.9996L223.5 68.8996L229.8 68.9996H236V41.4996V13.9996H230H224L223.8 31.6996L223.5 49.3996L212.5 31.6996L201.6 13.9996H195.3H189V41.4996Z" fill="#494949"/>
<path d="M244 41.4995V68.9995H265.1H286.1L285.8 63.6995L285.5 58.4995L270.8 58.1995L256 57.8995V51.4995V44.9995H269.5H283V40.4995V35.9995H269.5H256V29.9995V23.9995H270.5H285V18.9995V13.9995H264.5H244V41.4995Z" fill="#494949"/>
<path d="M292 41.4995V68.9995H311H330V63.4995V57.9995H317H304V35.9995V13.9995H298H292V41.4995Z" fill="#494949"/>
<path d="M335 41.4995V68.9995H356.1H377.1L376.8 63.6995L376.5 58.4995L361.8 58.1995L347 57.8995V51.4995V44.9995H360.5H374V40.4995V35.9995H360.5H347V29.9995V23.9995H361.5H376V18.9995V13.9995H355.5H335V41.4995Z" fill="#494949"/>
<path d="M433 18.9995V23.9995H441H449L449.2 46.1995L449.5 68.4995H455.5H461.5L461.8 46.1995L462 23.9995H470H478V18.9995V13.9995H455.5H433V18.9995Z" fill="#494949"/>
<circle cx="44.0001" cy="68" r="8" fill="#494949"/>
<circle cx="44.0001" cy="68" r="2.5" fill="white"/>
<circle cx="71.0001" cy="41" r="8" fill="#494949"/>
<circle cx="71.0001" cy="41" r="2.5" fill="white"/>
<circle cx="17" cy="41" r="8" fill="#494949"/>
<circle cx="17" cy="41" r="2.5" fill="white"/>
<circle cx="44.0001" cy="14" r="8" fill="#494949"/>
<circle cx="44.0001" cy="14" r="2.5" fill="white"/>
<mask id="mask0_601_2" style="mask-type:alpha" maskUnits="userSpaceOnUse" x="14" y="11" width="60" height="60">
<mask id="mask1_601_2" style="mask-type:alpha" maskUnits="userSpaceOnUse" x="10" y="7" width="68" height="68">
<circle cx="44" cy="41" r="29" stroke="#68E1FD" stroke-width="10"/>
</mask>
<g mask="url(#mask1_601_2)">
<circle cx="44" cy="41" r="29.95" fill="black" stroke="#68E1FD" stroke-width="0.1"/>
</g>
</mask>
<g mask="url(#mask0_601_2)">
<circle cx="21" cy="27" r="3" fill="#494949"/>
<circle cx="30" cy="18" r="3" fill="#494949"/>
<ellipse cx="23" cy="24" rx="5" ry="4" fill="#494949"/>
<ellipse cx="27" cy="19" rx="5" ry="4" fill="#494949"/>
<ellipse cx="25" cy="22" rx="5" ry="4" fill="#494949"/>
</g>
<mask id="mask2_601_2" style="mask-type:alpha" maskUnits="userSpaceOnUse" x="13" y="37" width="61" height="61">
<mask id="mask3_601_2" style="mask-type:alpha" maskUnits="userSpaceOnUse" x="9" y="33" width="69" height="69">
<circle cx="43.9412" cy="67.9406" r="29" transform="rotate(44.9743 43.9412 67.9406)" stroke="#68E1FD" stroke-width="10"/>
</mask>
<g mask="url(#mask3_601_2)">
<circle cx="43.9411" cy="67.941" r="29.95" transform="rotate(44.9743 43.9411 67.941)" fill="black" stroke="#68E1FD" stroke-width="0.1"/>
</g>
</mask>
<g mask="url(#mask2_601_2)">
<circle cx="37.5654" cy="41.7807" r="3" transform="rotate(44.9743 37.5654 41.7807)" fill="#494949"/>
<circle cx="50.2933" cy="41.7749" r="3" transform="rotate(44.9743 50.2933 41.7749)" fill="#494949"/>
<ellipse cx="41.1006" cy="41.0721" rx="5" ry="4" transform="rotate(44.9743 41.1006 41.0721)" fill="#494949"/>
<ellipse cx="47.4642" cy="40.3622" rx="5" ry="4" transform="rotate(44.9743 47.4642 40.3622)" fill="#494949"/>
<ellipse cx="43.929" cy="41.0707" rx="5" ry="4" transform="rotate(44.9743 43.929 41.0707)" fill="#494949"/>
</g>
<mask id="mask4_601_2" style="mask-type:alpha" maskUnits="userSpaceOnUse" x="14" y="11" width="60" height="60">
<mask id="mask5_601_2" style="mask-type:alpha" maskUnits="userSpaceOnUse" x="10" y="7" width="69" height="68">
<circle cx="44.0001" cy="40.9998" r="29" transform="rotate(-179.748 44.0001 40.9998)" stroke="#68E1FD" stroke-width="10"/>
</mask>
<g mask="url(#mask5_601_2)">
<circle cx="44.0001" cy="40.9999" r="29.95" transform="rotate(-179.748 44.0001 40.9999)" fill="black" stroke="#68E1FD" stroke-width="0.1"/>
</g>
</mask>
<g mask="url(#mask4_601_2)">
<circle cx="66.9384" cy="55.1006" r="3" transform="rotate(-179.748 66.9384 55.1006)" fill="#494949"/>
<circle cx="57.8989" cy="64.0611" r="3" transform="rotate(-179.748 57.8989 64.0611)" fill="#494949"/>
<ellipse cx="64.9253" cy="58.0919" rx="5" ry="4" transform="rotate(-179.748 64.9253 58.0919)" fill="#494949"/>
<ellipse cx="60.9033" cy="63.0743" rx="5" ry="4" transform="rotate(-179.748 60.9033 63.0743)" fill="#494949"/>
<ellipse cx="62.9165" cy="60.0831" rx="5" ry="4" transform="rotate(-179.748 62.9165 60.0831)" fill="#494949"/>
</g>
<mask id="mask6_601_2" style="mask-type:alpha" maskUnits="userSpaceOnUse" x="14" y="11" width="61" height="60">
<mask id="mask7_601_2" style="mask-type:alpha" maskUnits="userSpaceOnUse" x="10" y="7" width="69" height="68">
<circle cx="44.0001" cy="41.0001" r="29" transform="rotate(-89.1412 44.0001 41.0001)" stroke="#68E1FD" stroke-width="10"/>
</mask>
<g mask="url(#mask7_601_2)">
<circle cx="44.0001" cy="40.9999" r="29.95" transform="rotate(-89.1412 44.0001 40.9999)" fill="black" stroke="#68E1FD" stroke-width="0.1"/>
</g>
</mask>
<g mask="url(#mask6_601_2)">
<circle cx="29.6569" cy="63.7875" r="3" transform="rotate(-89.1412 29.6569 63.7875)" fill="#494949"/>
<circle cx="20.7929" cy="54.6537" r="3" transform="rotate(-89.1412 20.7929 54.6537)" fill="#494949"/>
<ellipse cx="26.6872" cy="61.7426" rx="5" ry="4" transform="rotate(-89.1412 26.6872 61.7426)" fill="#494949"/>
<ellipse cx="21.7478" cy="57.6679" rx="5" ry="4" transform="rotate(-89.1412 21.7478 57.6679)" fill="#494949"/>
<ellipse cx="24.7174" cy="59.7129" rx="5" ry="4" transform="rotate(-89.1412 24.7174 59.7129)" fill="#494949"/>
</g>
</g>
<defs>
<clipPath id="clip0_601_2">
<rect width="489" height="83" fill="white"/>
</clipPath>
</defs>
</svg>
