<svg width="904" height="393" viewBox="0 0 904 393" fill="none" xmlns="http://www.w3.org/2000/svg">
<path fill-rule="evenodd" clip-rule="evenodd" d="M270.582 375.452C178.012 342.835 69.4166 278.932 1.99973 204.402C60.4702 143.01 191.427 56.6599 263.275 37.3379C245.764 45.9332 94.3266 149.655 70.0301 202.581C91.9693 258.614 242.063 356.13 270.582 375.452Z" fill="rgb(73, 73, 73)" stroke="#D9D9D9" stroke-width="2" stroke-miterlimit="8"/>
<path fill-rule="evenodd" clip-rule="evenodd" d="M452.675 2C560.16 2 647.294 89.1339 647.294 196.619C647.294 304.103 560.16 391.237 452.675 391.237C417.525 391.237 383.031 381.717 352.855 363.689L377.81 321.921C447.013 363.268 536.631 340.686 577.978 271.484C619.325 202.281 596.743 112.663 527.54 71.316C504.908 57.7942 479.039 50.6543 452.675 50.6543V2Z" fill="rgb(73, 73, 73)" stroke="white" stroke-width="3" stroke-miterlimit="10" stroke-linejoin="round"/>
<path fill-rule="evenodd" clip-rule="evenodd" d="M352.857 363.689C269.254 313.739 235.443 209.68 273.719 120.129L318.459 139.251C289.751 206.415 315.109 284.459 377.812 321.921L352.857 363.689Z" fill="rgb(73, 73, 73)" stroke="white" stroke-width="3" stroke-miterlimit="10" stroke-linejoin="round"/>
<path fill-rule="evenodd" clip-rule="evenodd" d="M273.721 120.127C289.874 82.3349 317.576 50.6272 352.858 29.5469L377.813 71.3148C351.352 87.1244 330.576 110.906 318.461 139.25L273.721 120.127Z" fill="rgb(73, 73, 73)" stroke="white" stroke-width="3" stroke-miterlimit="10" stroke-linejoin="round"/>
<path fill-rule="evenodd" clip-rule="evenodd" d="M352.855 29.5481C383.029 11.519 417.524 2 452.675 2V50.6543C426.312 50.6543 400.441 57.7942 377.81 71.316L352.855 29.5481Z" fill="rgb(73, 73, 73)" stroke="white" stroke-width="3" stroke-miterlimit="10" stroke-linejoin="round"/>
<path fill-rule="evenodd" clip-rule="evenodd" d="M633.418 373.336C725.988 340.719 834.583 276.817 902 202.286C843.53 140.896 712.573 54.5442 640.724 35.2227C658.237 43.8187 810.659 149.517 834.956 202.443C813.016 258.477 661.937 354.015 633.418 373.336Z" fill="rgb(73, 73, 73)" stroke="#D9D9D9" stroke-width="2" stroke-miterlimit="8"/>
</svg>
