<svg width="123" height="96" viewBox="0 0 123 96" fill="none" xmlns="http://www.w3.org/2000/svg">
<g clip-path="url(#clip0_1149_2)">
<path fill-rule="evenodd" clip-rule="evenodd" d="M44.08 0.0500442H85.12L92.38 12.98L76.72 24.23C72.6 21.82 67.81 20.44 62.7 20.44C47.36 20.44 34.92 32.88 34.92 48.22C34.92 50.15 35.12 52.03 35.49 53.84L0 79.33V18.56C0 17.54 0.84 16.7 1.86 16.7C12.19 16.7 22.52 16.7 32.85 16.7C35.27 11.93 37.69 7.15004 40.11 2.38004C41.58 -0.529956 40.77 0.0500442 44.08 0.0500442ZM107.92 16.7H113.75C114.77 16.7 115.61 17.56 115.61 18.56V83.55C115.61 84.55 114.75 85.41 113.75 85.41H12.26L40.6 65.05C45.68 71.71 53.69 76 62.7 76C78.04 76 90.48 63.56 90.48 48.22C90.48 42.45 88.72 37.1 85.71 32.65L107.78 16.8C107.83 16.77 107.87 16.74 107.92 16.7ZM76.8 39.05C78.52 41.69 79.52 44.84 79.52 48.22C79.52 57.51 71.99 65.04 62.7 65.04C57.35 65.04 52.59 62.54 49.51 58.66L76.8 39.05Z" fill="#E4E6EB"/>
<path d="M10.0405 95.6404L2.98047 85.8304L115.82 6.15039L122.88 15.9604L10.0405 95.6404Z" fill="#E4E6EB"/>
</g>
<defs>
<clipPath id="clip0_1149_2">
<rect width="122.88" height="95.64" fill="white"/>
</clipPath>
</defs>
</svg>
