<svg width="1080" height="857" viewBox="0 0 1080 857" fill="none" xmlns="http://www.w3.org/2000/svg">
<mask id="mask0_1714_30" style="mask-type:luminance" maskUnits="userSpaceOnUse" x="0" y="0" width="1080" height="857">
<path d="M1080 0H0V856.152H1080V0Z" fill="white"/>
</mask>
<g mask="url(#mask0_1714_30)">
<path fill-rule="evenodd" clip-rule="evenodd" d="M387.422 0.447886H748.125L811.933 116.195L674.297 216.903C638.086 195.329 595.986 182.975 551.074 182.975C416.25 182.975 306.914 294.336 306.914 431.657C306.914 448.934 308.672 465.763 311.924 481.966L0 710.148V166.146C0 157.015 7.38281 149.495 16.3477 149.495C107.139 149.495 197.93 149.495 288.721 149.495C309.99 106.795 331.26 64.0058 352.529 21.3056C365.449 -4.74417 358.33 0.447886 387.422 0.447886ZM948.516 149.495H999.756C1008.72 149.495 1016.1 157.194 1016.1 166.146V747.925C1016.1 756.877 1008.54 764.575 999.756 764.575H107.754L356.836 582.316C401.484 641.935 471.885 680.338 551.074 680.338C685.898 680.338 795.234 568.978 795.234 431.657C795.234 380.005 779.766 332.113 753.31 292.277L947.285 150.391C947.724 150.122 948.076 149.853 948.516 149.495ZM675 349.569C690.117 373.201 698.906 401.4 698.906 431.657C698.906 514.819 632.725 582.226 551.074 582.226C504.053 582.226 462.217 559.847 435.146 525.114L675 349.569Z" fill="#E4E6EB"/>
<path d="M88.2464 856.156L26.1953 768.338L1017.95 55.0571L1080 142.875L88.2464 856.156Z" fill="#E4E6EB"/>
</g>
</svg>
