<svg width="5078" height="4014" viewBox="0 0 5078 4014" fill="none" xmlns="http://www.w3.org/2000/svg">
<path d="M987.626 2178C1260.34 2178 1481.43 1985.54 1481.43 1748.13C1481.43 1510.72 1260.34 1318.26 987.626 1318.26C714.909 1318.26 493.826 1510.72 493.826 1748.13C493.826 1985.54 714.909 2178 987.626 2178Z" fill="#26a5b8"/>
<path d="M1283.96 3066.41C1438.02 2970.69 1608.33 2896.56 1788.73 2846.69C1663.96 2733.51 1593.34 2583.23 1591.21 2426.37V2407.27C1527.11 2383.89 1461.08 2364.73 1393.69 2349.95C1261.82 2315.44 1125.32 2296.17 987.679 2292.64C849.716 2293.01 712.692 2312.35 581.666 2349.95C410.048 2395.3 247.274 2462.93 98.8397 2550.56C35.0842 2589.98 -1.94674 2654.45 0.0790192 2722.51V3152.38H1185.2C1212.4 3119.15 1245.78 3090.09 1283.96 3066.41V3066.41Z" fill="#26a5b8"/>
<path d="M3777.64 0H1705.33C1641.91 0.521983 1590.9 45.5699 1591.21 100.782V1330.69C1589.96 1386.08 1640.58 1431.84 1704.21 1432.89C1704.59 1432.9 1705.06 1432.9 1705.24 1432.91H2034.44V1836.03L2489.28 1432.91H3777.55C3841.06 1432.38 3892.22 1387.42 3892.22 1332.12V100.782C3892.23 45.4928 3841.06 0.523864 3777.56 0H3777.64ZM2731.88 1253.79C2664.61 1253.79 2610.09 1206.31 2610.09 1147.75C2610.1 1089.19 2664.64 1041.72 2731.91 1041.72C2798.53 1041.73 2852.79 1088.33 2853.69 1146.32C2854.94 1204.61 2801.61 1252.72 2734.65 1253.78C2733.8 1253.79 2732.79 1253.8 2731.89 1253.79H2731.88ZM2810.34 816.756V967.211H2653.97V685.883H2731.88C2867.95 685.883 2955.74 616.627 2955.74 510.114C2957.89 404.613 2861.38 317.574 2740.19 315.708C2737.43 315.664 2734.66 315.669 2731.88 315.716C2619.04 306.581 2519.06 378.822 2508.57 477.058C2507.33 488.052 2507.33 499.119 2508.57 510.114V522.047H2352.2V510.114C2340.34 337.641 2491.36 189.458 2689.48 179.141C2703.6 178.417 2717.76 178.417 2731.88 179.112C2939.43 177.001 3109.67 321.744 3112.1 502.428C3112.14 504.996 3112.14 507.554 3112.1 510.119C3117.43 664.792 2986.73 797.611 2810.34 816.759L2810.34 816.756Z" fill="#26a5b8"/>
<path d="M3574.31 2476.64C3474.23 2511.72 3379.12 2555.51 3290.63 2607.25C3232.62 2644.21 3198.09 2700.42 3196.55 2760.35V3143.08H3488.17C3553.44 2985.68 3559.02 2709.4 3574.31 2476.64Z" fill="#26a5b8"/>
<path d="M4106.12 3143.09H4194.31L4407.74 2401.54C4318.84 2385.98 4228.21 2377.96 4137.29 2377.62C4047.25 2378.14 3957.51 2386.14 3869.47 2401.54L4106.12 3143.09Z" fill="#26a5b8"/>
<path d="M4983.93 2607.25C4901.03 2553.5 4808.92 2509.9 4710.53 2477.84C4725.82 2710.35 4731.4 2985.92 4796.66 3143.08H5078V2760.34C5076.46 2700.41 5041.93 2644.21 4983.93 2607.25V2607.25Z" fill="#26a5b8"/>
<path d="M4917.77 1557.61C4873.77 1540.61 4821.17 1555.85 4800.27 1591.66C4800.24 1591.7 4800.22 1591.7 4800.22 1591.85C4770.82 1643.27 4650.29 1677.48 4581.5 1682.98L4485.37 1383.49C4470.38 1322.02 4391.59 1250.97 4313.69 1277.28C4268.12 1292.59 4196.1 1349.05 4137.31 1349.05C4078.51 1349.05 4007.08 1292.59 3960.92 1277.28C3883.02 1250.97 3804.23 1322.02 3789.24 1383.25L3693.11 1683.94C3624.32 1678.68 3503.79 1644.23 3474.1 1592.8C3451.9 1557.52 3398.76 1543.57 3355.41 1561.63C3314.45 1578.7 3296.5 1618.52 3314.18 1653.08C3375.62 1759.05 3843.33 1875.31 4137.31 1875.31C4460.68 1875.31 4898.99 1759.05 4960.43 1653.08C4981.07 1617.18 4962.03 1574.47 4917.91 1557.68C4917.88 1557.66 4917.86 1557.65 4917.86 1557.64L4917.77 1557.61Z" fill="#26a5b8"/>
<path d="M4137.27 1947.04C3977.91 1943.69 3819.77 1923.34 3666.91 1886.52C3666.91 1890.82 3666.91 1894.89 3666.91 1899.2C3666.91 2110.58 3877.5 2281.93 4137.27 2281.93C4397.04 2281.93 4607.63 2110.58 4607.63 1899.2C4607.63 1895.85 4607.63 1892.5 4607.63 1889.15C4454.56 1924.84 4296.47 1944.3 4137.27 1947.04Z" fill="#26a5b8"/>
<path d="M3392.06 3629.35C3390.49 3569.12 3355.07 3512.64 3295.6 3475.49C3162.96 3388.95 2994.15 3331.25 2825.34 3292.78C2696.37 3261.3 2562.3 3245.1 2427.42 3244.7C2292.7 3246.56 2158.88 3262.73 2029.51 3292.78C1860.92 3332.02 1701.9 3393.8 1559.25 3475.49C1499.77 3512.64 1464.35 3569.12 1462.78 3629.35V4014H3392.06V3629.35Z" fill="#26a5b8"/>
<path d="M2943.21 3042.76C2915.48 2956.22 3021.59 2739.85 3022.5 2587.44C3022.5 2465.55 2979.09 2410.98 2897.09 2373.96C2849.77 2352.56 2740.64 2372.28 2740.64 2372.28C2740.64 2372.28 2684.27 2287.17 2495.56 2240.29C2340.5 2206.63 2175.01 2223.49 2035.55 2287.17C1918.89 2347.27 1862.52 2413.39 1859.8 2640.81C1857.39 2849.24 1893.26 3034.35 1876.68 3121.62C1869.04 3169.92 1846 3215.86 1809.76 3255.04C1809.76 3255.04 1990.63 3273.56 2091.62 3231C2142.44 3203.81 2190.6 3173.6 2235.71 3140.61C2081 3083.07 1968.22 2971.84 1930.04 2839.14C1926.12 2827.6 1899.89 2752.12 1941.8 2709.81C1964.71 2685.77 2017.16 2679.03 2104.58 2666.77C2209.22 2655.78 2311.35 2632.87 2407.84 2598.74C2516.3 2555.24 2616.89 2500.25 2706.88 2435.26C2718.74 2425.95 2737.82 2426.06 2749.51 2435.55C2753.95 2439.14 2756.86 2443.76 2757.83 2448.75C2765.01 2488.29 2782.24 2526.25 2808.47 2560.3C2820.76 2572.85 2835.89 2583.45 2853.08 2591.55C2873.13 2601.13 2890.39 2613.99 2903.73 2629.29C2925.5 2663.17 2937.84 2700.4 2939.9 2738.44C2937.93 2913.87 2807.23 3072.1 2605.89 3142.8C2643.88 3169.48 2693.62 3202.42 2748.48 3234.15C2838.92 3286.32 3057.47 3214.2 3057.47 3214.2C3057.47 3214.2 2986.93 3180.54 2943.22 3042.79L2943.21 3042.76Z" fill="#26a5b8"/>
<path d="M2879.61 2739.85C2878 2710.79 2869.18 2682.28 2853.68 2655.95C2844.85 2646 2833.31 2637.78 2819.92 2631.91C2796.87 2620.83 2776.46 2606.59 2759.63 2589.84C2735.38 2561.99 2717.89 2530.76 2708.08 2497.76C2623.92 2554.12 2531.87 2602.52 2433.76 2642C2331.92 2678.13 2224.11 2702.42 2113.62 2714.13C2062.68 2721.34 1999.07 2730.23 1988.22 2739.37C1970.13 2758.12 1979.48 2805.96 1988.22 2826.15C2039.77 2999.49 2224.25 3124.5 2427.43 3124.5C2668.59 3124.5 2879.61 2944.67 2879.61 2739.85V2739.85Z" fill="#26a5b8"/>
</svg>
