<svg width="5078" height="4014" viewBox="0 0 5078 4014" fill="none" xmlns="http://www.w3.org/2000/svg">
<path d="M3193.05 3658.4L3116.28 3658.4L3079.77 3362.3L3193.07 3362.3L3193.05 3658.4Z" fill="#9E616A"/>
<path d="M3212.63 3732.82L2965.11 3732.81V3729.68C2965.11 3704.12 2975.26 3679.62 2993.33 3661.55C3011.4 3643.48 3035.9 3633.33 3061.45 3633.33H3061.46L3212.63 3633.34L3212.63 3732.82Z" fill="#2F2E41"/>
<path d="M2917.55 3658.4L2840.79 3658.4L2804.27 3362.3L2917.56 3362.3L2917.55 3658.4Z" fill="#9E616A"/>
<path d="M2937.13 3732.82L2689.61 3732.81V3729.68C2689.61 3704.12 2699.76 3679.62 2717.83 3661.55C2735.9 3643.48 2760.4 3633.33 2785.95 3633.33H2785.96L2937.13 3633.34L2937.13 3732.82Z" fill="#2F2E41"/>
<path d="M2023.52 1583.57C2029.65 1592 2037.56 1598.99 2046.69 1604.04C2055.82 1609.09 2065.94 1612.08 2076.35 1612.79C2086.76 1613.51 2097.19 1611.93 2106.93 1608.17C2116.66 1604.42 2125.45 1598.57 2132.68 1591.05L2284.57 1650.36L2343.13 1566.85L2127.45 1486.09C2114.01 1474.79 2096.89 1468.8 2079.33 1469.28C2061.77 1469.75 2045 1476.65 2032.19 1488.66C2019.38 1500.68 2011.42 1516.98 2009.82 1534.47C2008.22 1551.96 2013.1 1569.43 2023.52 1583.57V1583.57Z" fill="#9E616A"/>
<path d="M2916.58 2089.58L2716.6 2154.82L2783.4 3571.18L2937.75 3575L3016.73 2576.16L3034.67 3571.06L3225.51 3581.57L3295.86 2089.58H2916.58Z" fill="#2F2E41"/>
<path d="M2781.64 1254.66L3294.92 1143.13L3352 1585.11L3304.47 1796.29L3323.51 2117.23C3323.51 2117.23 2917.65 2319.24 2716.59 2154.82C2716.59 2154.82 2878.19 1730.34 2784.52 1531.64L2781.64 1254.66Z" fill="#E4E4E4"/>
<path d="M2870.54 1317.18L2781.64 1254.66C2781.64 1254.66 2776.39 1247.39 2702.32 1333.99C2628.24 1420.59 2477.97 1558.35 2477.97 1558.35L2227.51 1464.42L2181.88 1633.02L2472.96 1768.67L2885.06 1493.44L2870.54 1317.18Z" fill="#E4E4E4"/>
<path d="M3323.6 2282.9C3333.03 2278.45 3341.37 2271.98 3348.03 2263.95C3354.69 2255.92 3359.52 2246.53 3362.15 2236.43C3364.79 2226.34 3365.19 2215.79 3363.31 2205.53C3361.43 2195.27 3357.33 2185.54 3351.28 2177.04L3437.86 2038.85L3366.72 1965.76L3247.2 2162.62C3233.59 2173.72 3224.52 2189.43 3221.71 2206.77C3218.91 2224.11 3222.56 2241.87 3231.98 2256.7C3241.39 2271.52 3255.92 2282.38 3272.81 2287.21C3289.7 2292.04 3307.77 2290.51 3323.6 2282.9V2282.9Z" fill="#9E616A"/>
<path d="M3214.86 1230.2L3294.92 1143.13C3294.92 1143.13 3384.12 1112.07 3457 1272.59C3529.88 1433.12 3611.28 1758.72 3611.28 1758.72L3420.96 2125.32L3273.16 2059.28L3420.96 1756.13L3264.56 1531.64L3214.86 1230.2Z" fill="#E4E4E4"/>
<path d="M3079.11 1106.88C3159.85 1062.74 3189.52 961.507 3145.39 880.763C3101.25 800.02 3000.02 770.346 2919.28 814.484C2838.54 858.622 2808.87 959.859 2853 1040.6C2897.14 1121.35 2998.37 1151.02 3079.11 1106.88Z" fill="#9E616A"/>
<path d="M3139.69 811.689C3131.81 778.604 3104.23 752.49 3072.5 740.244C3040.77 727.998 3005.44 728.116 2971.91 733.813C2916.25 743.27 2864.28 767.272 2813.07 791.033L2852.54 809.917L2798.07 813.042L2840.16 834.809C2828.92 843.363 2820.37 854.962 2815.53 868.229C2810.68 881.496 2809.74 895.874 2812.82 909.659C2814.99 918.679 2820.78 928.621 2830.05 928.932C2841.26 929.309 2847.11 916.246 2854.95 908.234C2865.39 897.574 2881.88 895.208 2896.66 897.217C2911.44 899.225 2925.46 904.913 2940.05 908.058C2958.49 911.901 2977.54 911.689 2995.89 907.437C3014.24 903.185 3031.45 894.995 3046.32 883.434L3098.81 1009.82C3098.31 1005.05 3098.93 1000.24 3100.6 995.746C3102.27 991.256 3104.96 987.213 3108.46 983.934C3111.95 980.655 3116.15 978.228 3120.74 976.843C3125.33 975.458 3130.17 975.151 3134.9 975.948C3139.62 976.745 3144.1 978.623 3147.98 981.436C3151.86 984.249 3155.04 987.921 3157.26 992.164C3159.49 996.408 3160.7 1001.11 3160.81 1005.9C3160.92 1010.69 3159.92 1015.44 3157.89 1019.78C3180.61 985.511 3198.89 946.576 3199.52 905.462C3200.14 864.349 3179.75 821.037 3142.43 803.785" fill="#2F2E41"/>
<path d="M1208.82 3364.74L1137.85 3476.32L1179.19 3331.07C1091.91 3239.99 971.082 3173.36 971.082 3173.36C971.082 3173.36 822.299 3417.9 862.344 3568.32C902.389 3718.74 1005.79 3747.46 1116.1 3718.09C1226.4 3688.72 1301.84 3612.4 1261.79 3461.97C1252.88 3428.49 1233.52 3395.62 1208.82 3364.74Z" fill="#F2F2F2"/>
<path d="M1114.92 3487.45L1116.9 3494.86C1139.4 3581.16 1142.77 3652.28 1126.85 3707.22C1126.64 3708.03 1126.37 3708.8 1126.15 3709.61L1122.44 3708.51L1118.89 3707.42C1136.91 3647.86 1128.87 3572.61 1109.26 3497.33C1108.65 3494.89 1108.03 3492.42 1107.34 3489.97C1098.76 3458.18 1088.25 3426.51 1076.8 3396.06C1075.94 3393.7 1075.02 3391.31 1074.11 3388.92C1058.8 3348.81 1042.06 3311.05 1026.56 3278.51C1025.47 3276.2 1024.35 3273.91 1023.24 3271.65C996.773 3216.67 974.336 3177.71 969.294 3169.11C968.698 3168.05 968.348 3167.48 968.272 3167.34L971.495 3165.42L971.522 3165.37L974.782 3163.44C974.858 3163.58 976.039 3165.51 978.102 3169.12C985.899 3182.61 1006.61 3219.36 1030.48 3268.74C1031.55 3270.97 1032.67 3273.26 1033.76 3275.57C1046.37 3301.97 1059.73 3331.66 1072.45 3363.18C1075.66 3371.09 1078.72 3378.93 1081.65 3386.68C1082.6 3389.06 1083.51 3391.45 1084.38 3393.81C1096.75 3426.72 1106.94 3457.93 1114.92 3487.45Z" fill="white"/>
<path d="M1030.48 3268.74C1028.11 3269.72 1025.7 3270.72 1023.24 3271.65C1016.55 3274.19 1009.74 3276.38 1002.82 3278.23C973.367 3286.11 942.518 3287.28 912.549 3281.66C911.525 3284.02 910.501 3286.37 909.451 3288.78C941.056 3294.98 973.661 3293.89 1004.78 3285.57C1012.16 3283.6 1019.43 3281.24 1026.56 3278.51C1028.99 3277.59 1031.4 3276.59 1033.76 3275.57C1053.28 3267.25 1071.43 3256.02 1087.58 3242.26C1085.46 3240.66 1083.4 3239.09 1081.37 3237.54C1066.04 3250.39 1048.89 3260.9 1030.48 3268.74V3268.74Z" fill="white"/>
<path d="M1081.65 3386.68C1079.16 3387.5 1076.65 3388.25 1074.11 3388.92C1073.35 3389.16 1072.54 3389.38 1071.77 3389.58C1039.85 3398.08 1006.34 3398.74 974.1 3391.49C941.865 3384.24 911.861 3369.3 886.645 3347.95C885.754 3350.51 884.862 3353.06 884.017 3355.65C910.087 3377.1 940.893 3392.04 973.884 3399.22C1006.88 3406.39 1041.1 3405.61 1073.73 3396.92C1074.76 3396.65 1075.78 3396.38 1076.8 3396.07C1079.36 3395.34 1081.87 3394.6 1084.38 3393.81C1123.03 3381.37 1157.29 3358.06 1183.04 3326.66C1181.29 3324.81 1179.54 3322.96 1177.75 3321.12C1152.78 3351.85 1119.38 3374.64 1081.65 3386.68V3386.68Z" fill="white"/>
<path d="M1114.92 3487.45C1112.41 3488.35 1109.88 3489.18 1107.34 3489.98C1104.62 3490.82 1101.89 3491.63 1099.13 3492.36C1056.22 3503.73 1010.77 3500.9 969.603 3484.28C928.433 3467.66 893.753 3438.15 870.755 3400.18C869.895 3403.59 869.025 3406.97 868.238 3410.36C892.736 3447.84 928.419 3476.64 970.22 3492.68C1012.02 3508.71 1057.81 3511.17 1101.09 3499.7C1103.84 3498.97 1106.58 3498.2 1109.26 3497.33C1111.85 3496.56 1114.38 3495.73 1116.9 3494.86C1167.71 3476.98 1209.84 3440.46 1234.74 3392.7C1233.24 3390.18 1231.65 3387.74 1230.05 3385.26C1206.42 3433 1165.13 3469.65 1114.92 3487.45Z" fill="white"/>
<path d="M3977.12 3376.38L3907.18 3486.34L3947.92 3343.19C3861.91 3253.44 3742.83 3187.78 3742.83 3187.78C3742.83 3187.78 3596.21 3428.76 3635.67 3577C3675.14 3725.24 3777.04 3753.53 3885.74 3724.59C3994.44 3695.65 4068.78 3620.43 4029.32 3472.19C4020.54 3439.2 4001.46 3406.81 3977.12 3376.38Z" fill="#F2F2F2"/>
<path d="M3884.58 3497.3L3886.53 3504.61C3908.71 3589.65 3912.02 3659.74 3896.34 3713.88C3896.13 3714.67 3895.87 3715.44 3895.65 3716.23L3891.99 3715.15L3888.49 3714.07C3906.26 3655.38 3898.33 3581.22 3879 3507.04C3878.4 3504.64 3877.8 3502.21 3877.11 3499.79C3868.66 3468.46 3858.29 3437.25 3847.02 3407.25C3846.16 3404.92 3845.26 3402.56 3844.37 3400.2C3829.27 3360.68 3812.78 3323.47 3797.5 3291.4C3796.44 3289.12 3795.33 3286.86 3794.23 3284.64C3768.15 3230.45 3746.04 3192.07 3741.07 3183.59C3740.48 3182.54 3740.14 3181.98 3740.06 3181.84L3743.24 3179.95L3743.27 3179.91L3746.48 3178C3746.55 3178.14 3747.72 3180.04 3749.75 3183.6C3757.43 3196.9 3777.84 3233.1 3801.37 3281.77C3802.42 3283.97 3803.53 3286.23 3804.6 3288.5C3817.02 3314.52 3830.2 3343.78 3842.73 3374.84C3845.89 3382.64 3848.91 3390.36 3851.8 3397.99C3852.73 3400.34 3853.63 3402.7 3854.48 3405.03C3866.68 3437.45 3876.71 3468.21 3884.58 3497.3Z" fill="white"/>
<path d="M3801.37 3281.77C3799.03 3282.74 3796.66 3283.72 3794.23 3284.64C3787.64 3287.14 3780.93 3289.3 3774.11 3291.12C3745.08 3298.89 3714.68 3300.04 3685.15 3294.5C3684.14 3296.83 3683.13 3299.15 3682.1 3301.51C3713.24 3307.63 3745.37 3306.55 3776.04 3298.35C3783.31 3296.41 3790.48 3294.09 3797.51 3291.4C3799.9 3290.49 3802.27 3289.51 3804.6 3288.5C3823.84 3280.31 3841.72 3269.24 3857.64 3255.67C3855.55 3254.09 3853.51 3252.55 3851.52 3251.02C3836.41 3263.69 3819.51 3274.05 3801.37 3281.77Z" fill="white"/>
<path d="M3851.8 3397.99C3849.34 3398.8 3846.86 3399.54 3844.37 3400.2C3843.62 3400.44 3842.82 3400.65 3842.06 3400.86C3810.6 3409.23 3777.57 3409.88 3745.81 3402.73C3714.04 3395.59 3684.47 3380.87 3659.62 3359.83C3658.74 3362.35 3657.87 3364.87 3657.03 3367.42C3682.72 3388.56 3713.08 3403.28 3745.59 3410.35C3778.1 3417.42 3811.83 3416.65 3843.99 3408.09C3845 3407.82 3846.01 3407.55 3847.02 3407.25C3849.54 3406.54 3852.01 3405.8 3854.48 3405.03C3892.57 3392.77 3926.33 3369.79 3951.71 3338.85C3949.99 3337.03 3948.26 3335.2 3946.5 3333.38C3921.89 3363.68 3888.98 3386.13 3851.8 3397.99V3397.99Z" fill="white"/>
<path d="M3884.58 3497.3C3882.11 3498.19 3879.62 3499.01 3877.11 3499.79C3874.43 3500.62 3871.74 3501.42 3869.02 3502.14C3826.73 3513.35 3781.95 3510.55 3741.37 3494.18C3700.8 3477.8 3666.63 3448.72 3643.96 3411.3C3643.12 3414.66 3642.26 3417.99 3641.48 3421.33C3665.62 3458.26 3700.79 3486.65 3741.98 3502.45C3783.18 3518.26 3828.3 3520.68 3870.95 3509.37C3873.66 3508.65 3876.37 3507.89 3879 3507.04C3881.55 3506.28 3884.05 3505.46 3886.53 3504.6C3936.61 3486.99 3978.12 3451 4002.66 3403.92C4001.19 3401.45 3999.61 3399.04 3998.03 3396.59C3974.75 3443.64 3934.06 3479.76 3884.58 3497.3Z" fill="white"/>
<path d="M2529.64 644.504C2529.64 381.478 2346.27 168.253 2120.08 168.253C1893.88 168.253 1710.52 381.478 1710.52 644.504C1710.52 883.058 1861.35 1080.64 2058.17 1115.34V1160.23C2058.17 1168.7 2061.54 1176.83 2067.53 1182.83C2073.53 1188.83 2081.66 1192.19 2090.13 1192.19H2150.02C2158.5 1192.19 2166.63 1188.83 2172.63 1182.83C2178.62 1176.83 2181.99 1168.7 2181.99 1160.23V1115.34C2378.8 1080.64 2529.64 883.058 2529.64 644.504Z" fill="#A7CFCF"/>
<path d="M2048.32 1153.74C2061.14 1141.7 2076.4 1132.58 2093.08 1127.01C2109.75 1121.43 2127.43 1119.53 2144.9 1121.43C2162.52 1123.47 2179.42 1129.57 2194.27 1139.26C2209.12 1148.95 2221.52 1161.95 2230.49 1177.24C2239.46 1192.08 2245.1 1208.7 2247.01 1225.94C2248.92 1243.17 2247.05 1260.62 2241.55 1277.06C2230.78 1309.86 2207.9 1337.15 2184.44 1361.75C2159.83 1387.56 2133.06 1411.36 2109.92 1438.56C2071.77 1483.67 2045.13 1537.37 2032.28 1595.04C2019.44 1652.72 2020.77 1712.65 2036.17 1769.69C2056.47 1841.99 2098.39 1906.36 2156.31 1954.17C2163.66 1960.18 2171.23 1965.9 2179.02 1971.34C2188.04 1977.65 2196.58 1962.86 2187.64 1956.61C2124.76 1912.12 2078.29 1848.16 2055.42 1774.61C2038.08 1717.29 2035.86 1656.47 2048.98 1598.04C2062.1 1539.62 2090.11 1485.58 2130.3 1441.18C2154.7 1414.23 2182.03 1390.11 2206.43 1363.15C2229.81 1337.33 2251.11 1308.19 2260.24 1274.08C2264.87 1256.73 2266.01 1238.64 2263.61 1220.85C2261.22 1203.06 2255.33 1185.92 2246.28 1170.42C2237.27 1154.57 2225.09 1140.75 2210.49 1129.82C2195.9 1118.9 2179.2 1111.11 2161.46 1106.94C2125.76 1099.18 2088.44 1105.65 2057.42 1124.96C2049.82 1129.8 2042.73 1135.4 2036.26 1141.67C2028.33 1149.3 2040.41 1161.36 2048.32 1153.74V1153.74Z" fill="#3F3D56"/>
<path d="M951.409 445.072C826.094 156.979 523.666 10.8023 275.916 118.578C28.1659 226.354 -71.0861 547.27 54.2291 835.363C167.884 1096.65 427.228 1241.19 659.334 1185.43L680.717 1234.59C684.756 1243.87 692.319 1251.17 701.742 1254.88C711.164 1258.59 721.675 1258.41 730.961 1254.37L796.555 1225.84C805.841 1221.8 813.142 1214.23 816.852 1204.81C820.562 1195.39 820.377 1184.87 816.337 1175.59L794.954 1126.43C993.992 994.642 1065.06 706.361 951.409 445.072Z" fill="#6685B4"/>
<path d="M665.586 1230.71C673.729 1211.95 685.721 1195.11 700.786 1181.28C715.851 1167.45 733.653 1156.94 753.038 1150.44C772.073 1144.03 792.28 1141.85 812.243 1144.07C832.206 1146.29 851.442 1152.84 868.607 1163.28C886.29 1173.75 901.536 1187.88 913.329 1204.71C925.123 1221.54 933.193 1240.7 937.001 1260.9C945.747 1307.71 931.555 1355.38 915.429 1398.96C898.524 1444.65 877.458 1489.02 865.704 1536.46C849.346 1603.13 849.015 1672.74 864.739 1739.57C880.463 1806.4 911.794 1868.55 956.166 1920.94C1012.05 1985.7 1085.65 2032.71 1167.91 2056.17C1178 2059.02 1188.2 2061.44 1198.47 2063.52C1209.2 2065.7 1213.78 2049.25 1203.01 2047.07C1117.42 2029.45 1039.42 1985.67 979.804 1921.78C916.602 1853.45 878.422 1765.71 871.493 1672.89C867.783 1625.86 872.093 1578.54 884.24 1532.96C897.206 1484.86 919.155 1439.82 935.702 1392.95C951.492 1348.23 962.681 1300.2 952.761 1252.87C943.641 1211.2 918.355 1174.86 882.458 1151.81C865.254 1140.47 845.966 1132.66 825.717 1128.83C805.467 1125.01 784.66 1125.24 764.503 1129.53C723.338 1138.86 687.273 1163.51 663.644 1198.49C657.897 1207.21 653.035 1216.48 649.131 1226.17C644.935 1236.31 661.439 1240.73 665.587 1230.71L665.586 1230.71Z" fill="#3F3D56"/>
<path d="M4451.97 3924.83L4543.95 3924.83L4587.71 3570.02L4451.95 3570.02L4451.97 3924.83Z" fill="#FFB6B6"/>
<path d="M4428.5 3894.8L4609.65 3894.79H4609.66C4640.28 3894.79 4669.64 3906.96 4691.29 3928.61C4712.94 3950.26 4725.1 3979.62 4725.1 4010.24V4013.99L4428.51 4014L4428.5 3894.8Z" fill="#2F2E41"/>
<path d="M3907.53 3846.61L3995.23 3874.35L4143.96 3549.26L4014.53 3508.32L3907.53 3846.61Z" fill="#FFB6B6"/>
<path d="M3894.22 3810.9L4066.93 3865.53L4066.94 3865.53C4096.13 3874.77 4120.45 3895.22 4134.57 3922.4C4148.68 3949.57 4151.42 3981.23 4142.19 4010.42L4141.05 4014L3858.27 3924.55L3894.22 3810.9Z" fill="#2F2E41"/>
<path d="M4114.64 2304.37L4063.6 2448.34L4062.15 3225.58L3917.39 3757.72L4095.09 3807.31L4291.37 3305.55L4354.33 2864.83L4437.29 3308.11L4425.87 3834.99H4612.31L4626.38 3023.07C4630.34 2795.04 4590.44 2568.38 4508.86 2355.42V2355.42L4114.64 2304.37Z" fill="#2F2E41"/>
<path d="M4053.85 1721.19H4355.2L4481.11 1847.11L4518.73 2367.61L4063.6 2440.86L3917.39 1944.22L3997.01 1733.16L4053.85 1721.19Z" fill="#E4E4E4"/>
<path d="M3945.48 1949.19L3481.5 1774.61L3469.43 1702.45L3762.03 1454.84L3859.42 1527.9L3682.9 1721.19L3997.01 1733.16L3945.48 1949.19Z" fill="#E4E4E4"/>
<path d="M3818.31 1556.12C3859.74 1556.12 3893.34 1522.53 3893.34 1481.09C3893.34 1439.65 3859.74 1406.06 3818.31 1406.06C3776.87 1406.06 3743.28 1439.65 3743.28 1481.09C3743.28 1522.53 3776.87 1556.12 3818.31 1556.12Z" fill="#FFB6B6"/>
<path d="M3992.31 1575.61L4026.22 1422.73C4032.16 1395.8 4043.35 1370.31 4059.15 1347.71C4074.95 1325.11 4095.05 1305.85 4118.3 1291.03C4141.55 1276.2 4167.49 1266.1 4194.64 1261.31C4221.8 1256.52 4249.63 1257.12 4276.55 1263.09C4303.47 1269.06 4328.94 1280.28 4351.53 1296.1C4374.11 1311.93 4393.35 1332.05 4408.15 1355.31C4422.95 1378.57 4433.03 1404.53 4437.79 1431.69C4442.56 1458.85 4441.93 1486.68 4435.93 1513.59L4402.03 1666.48C4400.4 1673.77 4395.95 1680.12 4389.64 1684.14C4383.34 1688.15 4375.7 1689.5 4368.41 1687.89L4013.73 1609.23C4006.43 1607.61 4000.08 1603.16 3996.07 1596.85C3992.05 1590.55 3990.7 1582.91 3992.31 1575.61Z" fill="#2F2E41"/>
<path d="M4225.88 1633.24C4307.49 1609.59 4354.48 1524.26 4330.83 1442.65C4307.19 1361.04 4221.86 1314.05 4140.25 1337.7C4058.64 1361.34 4011.66 1446.67 4035.3 1528.29C4058.95 1609.9 4144.28 1656.89 4225.88 1633.24Z" fill="#FFB6B6"/>
<path d="M3975.04 1424.21C3984.62 1381.25 4010.84 1343.85 4047.96 1320.21C4085.07 1296.56 4130.05 1288.61 4173.03 1298.09L4203.6 1304.87C4246.56 1314.45 4283.96 1340.67 4307.6 1377.79C4331.24 1414.91 4339.2 1459.89 4329.72 1502.87L4329.04 1505.93L4264.42 1491.6L4256.07 1424.99L4237.98 1485.73L4204.58 1478.32L4200.37 1444.72L4191.24 1475.36L3974.36 1427.27L3975.04 1424.21Z" fill="#2F2E41"/>
<path d="M4130.38 1653.14C4128.26 1648.36 4127.53 1643.08 4128.27 1637.9C4129.02 1632.72 4131.22 1627.86 4134.61 1623.88C4180.68 1569.43 4251.3 1465.61 4206.65 1382.03L4203.44 1376.02L4378.26 1414.79L4320.06 1677.26L4155.03 1670.06C4153.36 1669.99 4151.7 1669.77 4150.07 1669.41C4145.73 1668.45 4141.69 1666.48 4138.27 1663.65C4134.84 1660.82 4132.14 1657.22 4130.38 1653.14Z" fill="#2F2E41"/>
<path d="M4343.21 1724.34L4834 1794.13L4861.45 1861.96L4629.5 2167.13L4518.58 2116.95L4648.98 1889.97L4339.75 1946.42L4343.21 1724.34Z" fill="#E4E4E4"/>
<path d="M5078 734.944C5078 420.774 4858.98 166.088 4588.81 166.088C4318.63 166.088 4099.61 420.774 4099.61 734.944C4099.61 1019.88 4279.77 1255.88 4514.86 1297.34V1350.94C4514.86 1361.07 4518.88 1370.78 4526.04 1377.94C4533.2 1385.1 4542.91 1389.13 4553.04 1389.13H4624.57C4634.7 1389.13 4644.41 1385.1 4651.57 1377.94C4658.73 1370.78 4662.75 1361.07 4662.75 1350.94V1297.34C4897.84 1255.88 5078 1019.88 5078 734.944Z" fill="#26A5B8"/>
<path d="M4501.92 1342.02C4517.45 1327.42 4535.97 1316.37 4556.2 1309.64C4576.42 1302.9 4597.86 1300.64 4619.05 1303.01C4639.86 1305.46 4659.84 1312.62 4677.47 1323.93C4695.11 1335.25 4709.94 1350.43 4720.83 1368.33C4731.93 1385.99 4739.06 1405.85 4741.75 1426.54C4744.43 1447.22 4742.6 1468.24 4736.39 1488.15C4724.32 1527.23 4697.83 1559.95 4670.21 1589.29C4640.76 1620.58 4608.48 1649.19 4580.32 1681.7C4534.41 1735.06 4502.14 1798.77 4486.29 1867.36C4470.45 1935.95 4471.5 2007.36 4489.35 2075.45C4513.23 2162.97 4563.7 2240.92 4633.78 2298.52C4642.29 2305.45 4651.05 2312.06 4660.05 2318.34C4669.07 2324.65 4677.61 2309.86 4668.66 2303.61C4593.62 2250.56 4538.03 2174.37 4510.43 2086.71C4489.47 2018.28 4486.5 1945.61 4501.81 1875.7C4517.11 1805.79 4550.18 1741.01 4597.82 1687.61C4626.77 1655.29 4659.38 1626.49 4688.66 1594.49C4716.7 1563.83 4742.44 1529.42 4753.96 1488.92C4759.76 1468.46 4761.45 1447.06 4758.92 1425.95C4756.39 1404.83 4749.7 1384.43 4739.24 1365.92C4728.82 1346.99 4714.61 1330.42 4697.48 1317.24C4680.36 1304.06 4660.7 1294.57 4639.73 1289.35C4597.13 1279.55 4552.37 1286.97 4515.21 1310C4506.1 1315.76 4497.6 1322.45 4489.86 1329.95C4481.94 1337.6 4494.02 1349.66 4501.92 1342.02V1342.02Z" fill="#3F3D56"/>
<path d="M4561.09 2253.92C4602.53 2253.92 4636.12 2220.32 4636.12 2178.88C4636.12 2137.44 4602.53 2103.85 4561.09 2103.85C4519.65 2103.85 4486.06 2137.44 4486.06 2178.88C4486.06 2220.32 4519.65 2253.92 4561.09 2253.92Z" fill="#FFB6B6"/>
<path d="M3779.24 1502.15C3775.31 1508.37 3765.77 1507.47 3760.42 1503.58C3752.98 1498.18 3755.39 1487.78 3760.51 1481.63C3776.78 1462.1 3803.69 1482.72 3807.32 1502.12C3808.67 1511.58 3807.22 1521.23 3803.13 1529.87C3799.05 1538.51 3792.52 1545.76 3784.36 1550.72C3765.79 1561.72 3741.68 1556.2 3725.72 1543.04C3692.42 1515.57 3701.48 1460.57 3738.47 1440.7C3762.07 1428.01 3791.91 1433.58 3815.17 1444.2C3841.34 1456.16 3863.85 1474.49 3888.05 1489.77C3941.16 1523.02 4001.24 1543.53 4063.59 1549.72C4074.51 1550.83 4074.43 1533.75 4063.59 1532.65C4029.04 1529.08 3995.12 1520.91 3962.73 1508.36C3930.68 1495.37 3900.26 1478.68 3872.09 1458.61C3843.59 1439.08 3813.82 1420.1 3778.55 1416.87C3764.32 1415.21 3749.9 1417.35 3736.76 1423.06C3723.62 1428.78 3712.23 1437.88 3703.74 1449.42C3696.19 1459.76 3691.14 1471.7 3688.98 1484.31C3686.82 1496.92 3687.61 1509.87 3691.29 1522.12C3695.72 1534.94 3703.47 1546.35 3713.74 1555.2C3724.02 1564.05 3736.46 1570.02 3749.79 1572.5C3762.62 1574.92 3775.9 1573.28 3787.75 1567.8C3799.61 1562.32 3809.46 1553.28 3815.94 1541.93C3828.92 1519.48 3828.5 1489.32 3808.89 1470.71C3803.27 1464.99 3796.23 1460.87 3788.5 1458.77C3780.76 1456.67 3772.61 1456.65 3764.87 1458.73C3757.74 1461.14 3751.47 1465.58 3746.82 1471.5C3742.17 1477.42 3739.34 1484.56 3738.69 1492.06C3736.8 1521.21 3778.17 1535.78 3793.98 1510.76C3799.86 1501.45 3785.1 1492.88 3779.24 1502.15V1502.15Z" fill="#3F3D56"/>
<path d="M365.167 2419.29L342.63 2447.57L262.914 2400.41L285.451 2372.13L365.167 2419.29Z" fill="#E4E4E4"/>
<path d="M448.347 2540.8L468.256 2570.51L384.513 2612.17L364.604 2582.46L448.347 2540.8Z" fill="#E4E4E4"/>
<path d="M535.037 2411.64L574.821 2413.04L570.862 2496.29L531.078 2494.88L535.037 2411.64Z" fill="#E4E4E4"/>
<path d="M1303.74 166.624L1281.2 194.902L1201.49 147.743L1224.02 119.46L1303.74 166.624Z" fill="#E4E4E4"/>
<path d="M1386.92 288.131L1406.83 317.842L1323.08 359.499L1303.18 329.788L1386.92 288.131Z" fill="#E4E4E4"/>
<path d="M1473.61 158.967L1513.39 160.372L1509.43 243.618L1469.65 242.213L1473.61 158.967Z" fill="#E4E4E4"/>
<path d="M3516.49 462.428L3493.95 490.706L3414.24 443.548L3436.78 415.265L3516.49 462.428Z" fill="#E4E4E4"/>
<path d="M3599.67 583.937L3619.58 613.648L3535.84 655.305L3515.93 625.594L3599.67 583.937Z" fill="#E4E4E4"/>
<path d="M3686.36 454.771L3726.15 456.177L3722.19 539.423L3682.4 538.018L3686.36 454.771Z" fill="#E4E4E4"/>
<path d="M2839.58 47.1639L2817.05 75.4417L2737.33 28.2835L2759.87 0L2839.58 47.1639Z" fill="#E4E4E4"/>
<path d="M2922.76 168.672L2942.67 198.383L2858.93 240.041L2839.02 210.329L2922.76 168.672Z" fill="#E4E4E4"/>
<path d="M3009.45 39.5068L3049.24 40.9119L3045.28 124.158L3005.49 122.753L3009.45 39.5068Z" fill="#E4E4E4"/>
<path d="M3527.79 2173.03L3505.25 2205.86L3584.97 2260.6L3607.51 2227.77L3527.79 2173.03Z" fill="#E4E4E4"/>
<path d="M3606.94 2417.16L3626.85 2451.64L3710.59 2403.29L3690.68 2368.81L3606.94 2417.16Z" fill="#E4E4E4"/>
<path d="M3773.41 2315.51L3813.2 2317.14L3817.16 2220.51L3777.37 2218.88L3773.41 2315.51Z" fill="#E4E4E4"/>
<path d="M1836.75 3662.7L1905.66 3652.04L1858.42 3101.39L1704.83 3129.83L1836.75 3662.7Z" fill="#FFB6B6"/>
<path d="M1815.69 3642.91L1951.41 3621.92L1951.42 3621.92C1974.36 3618.38 1997.77 3624.09 2016.5 3637.8C2035.22 3651.52 2047.74 3672.11 2051.29 3695.05L2051.72 3697.86L1829.5 3732.23L1815.69 3642.91Z" fill="#2F2E41"/>
<path d="M1112.42 3655.87L1182.09 3658.84L1266.83 3169.64L1113.25 3169.65L1112.42 3655.87Z" fill="#FFB6B6"/>
<path d="M1095.61 3632.37L1232.83 3638.21H1232.83C1256.02 3639.2 1277.87 3649.36 1293.57 3666.46C1309.27 3683.56 1317.53 3706.19 1316.55 3729.38L1316.43 3732.23L1091.77 3722.66L1095.61 3632.37Z" fill="#2F2E41"/>
<path d="M1249.59 2062.05C1246.3 2061.13 1242.94 2060.5 1239.54 2060.18L1282.97 1704.64L1430.35 1392.52C1439.62 1372.88 1441.11 1350.46 1434.5 1329.78C1427.89 1309.1 1413.69 1291.69 1394.75 1281.07C1375.81 1270.45 1353.55 1267.4 1332.46 1272.55C1311.36 1277.69 1293.01 1290.65 1281.09 1308.8V1308.8C1242.46 1367.61 1213.24 1432.09 1194.48 1499.91L1132.57 1723.79L1177.84 2107.73C1176.11 2118.55 1177.53 2129.64 1181.95 2139.67C1186.37 2149.7 1193.6 2158.24 1202.75 2164.26C1211.91 2170.28 1222.62 2173.53 1233.57 2173.61C1244.53 2173.69 1255.28 2170.6 1264.53 2164.71C1273.77 2158.83 1281.12 2150.39 1285.69 2140.43C1290.25 2130.47 1291.84 2119.4 1290.26 2108.55C1288.69 2097.71 1284.01 2087.55 1276.79 2079.3C1269.58 2071.05 1260.13 2065.06 1249.59 2062.05H1249.59Z" fill="#FFB6B6"/>
<path d="M1339.08 1734.73L1152.88 1521.72L1245.12 1304.74C1257.2 1276.33 1279.9 1253.76 1308.39 1241.86C1336.87 1229.95 1368.88 1229.65 1397.58 1241.02C1426.29 1252.39 1449.41 1274.53 1462.02 1302.71C1474.63 1330.89 1475.72 1362.88 1465.08 1391.86L1339.08 1734.73Z" fill="#2F2E41"/>
<path d="M1648.6 1055.65C1693.4 973.696 1663.28 870.942 1581.33 826.143C1499.38 781.343 1396.63 811.462 1351.83 893.415C1307.04 975.368 1337.15 1078.12 1419.1 1122.92C1501.05 1167.72 1603.8 1137.6 1648.6 1055.65Z" fill="#FFB6B6"/>
<path d="M1528.49 769.075H1419.25C1347.64 769.075 1289.58 834.391 1289.58 914.962L1294.64 1110.39C1372.02 1120.02 1447.71 1140.26 1519.56 1170.55L1529.76 1127.01L1549.87 1184.35C1567.76 1193.02 1585.49 1202.5 1603.08 1212.78C1582.55 1116.36 1574.11 1020.15 1588.2 945.421H1625.2V904.929L1637.75 945.421H1704.83V945.42C1704.83 922.262 1700.27 899.331 1691.41 877.936C1682.55 856.541 1669.56 837.1 1653.18 820.725C1636.81 804.35 1617.37 791.36 1595.98 782.498C1574.58 773.636 1551.65 769.075 1528.49 769.075V769.075Z" fill="#2F2E41"/>
<path d="M1884.68 3131.3L1868.85 3135.11L1855.57 2888.06L1758.87 2148.55L1647.95 1866.97L1701.99 1670.71C1701.99 1670.71 1764.56 1534.19 1608.13 1428.95L1482.99 1218.47C1396.54 1161.95 1325.42 1198.91 1287.51 1294.98C1254.47 1378.7 1228.83 1484.6 1244.08 1593.92C1278.24 1838.78 1306.65 1866.97 1306.65 1866.97C1306.65 1866.97 1093.34 2103.04 1138.84 2404.54L1113.48 3185.14L1090.28 3184.19L1087.74 3246.2L1290.45 3254.51L1292.99 3192.5L1276.18 3191.81L1349.31 2882.38L1457.39 2472.8L1645.1 2973.39L1708.24 3173.8L1687.44 3178.81L1701.97 3239.14L1899.21 3191.63L1884.68 3131.3Z" fill="#2F2E41"/>
<path d="M2023.98 1729.55C2021.69 1732.08 2019.62 1734.81 2017.81 1737.71L1719.16 1539.99L1505.79 1268.68C1492.37 1251.61 1472.97 1240.27 1451.52 1236.94C1430.06 1233.61 1408.14 1238.54 1390.18 1250.74C1372.21 1262.93 1359.54 1281.49 1354.72 1302.66C1349.9 1323.83 1353.29 1346.05 1364.2 1364.82V1364.82C1399.56 1425.65 1444.18 1480.61 1496.47 1527.69L1669.09 1683.12L2032.79 1814.16C2041.69 1820.54 2052.25 1824.22 2063.2 1824.75C2074.15 1825.28 2085.01 1822.63 2094.49 1817.13C2103.97 1811.62 2111.65 1803.5 2116.62 1793.73C2121.59 1783.96 2123.63 1772.96 2122.49 1762.06C2121.36 1751.16 2117.1 1740.82 2110.23 1732.28C2103.35 1723.75 2094.16 1717.38 2083.75 1713.94C2073.35 1710.51 2062.17 1710.15 2051.56 1712.92C2040.96 1715.69 2031.38 1721.47 2023.98 1729.55H2023.98Z" fill="#FFB6B6"/>
<path d="M1771.15 1503.25L1497.39 1574.66L1344.5 1395.19C1324.48 1371.69 1314.44 1341.29 1316.52 1310.49C1318.59 1279.68 1332.63 1250.91 1355.62 1230.31C1378.61 1209.71 1408.75 1198.91 1439.59 1200.22C1470.44 1201.53 1499.55 1214.85 1520.71 1237.32L1771.15 1503.25Z" fill="#2F2E41"/>
<path d="M3893.05 3738.02H211.038C209.241 3738.02 207.519 3737.31 206.248 3736.04C204.978 3734.77 204.265 3733.04 204.265 3731.25C204.265 3729.45 204.978 3727.73 206.248 3726.46C207.519 3725.19 209.241 3724.47 211.038 3724.47H3893.05C3894.84 3724.47 3896.57 3725.19 3897.84 3726.46C3899.11 3727.73 3899.82 3729.45 3899.82 3731.25C3899.82 3733.04 3899.11 3734.77 3897.84 3736.04C3896.57 3737.31 3894.84 3738.02 3893.05 3738.02Z" fill="#CACACA"/>
</svg>
