<svg width="3615" height="3857" viewBox="0 0 3615 3857" fill="none" xmlns="http://www.w3.org/2000/svg">
<g clip-path="url(#clip0_0_1)">
<path d="M3420.1 2851.34L3425.69 2725.69C3483.95 2694.55 3548.94 2678.1 3615 2677.77C3524.08 2752.1 3535.44 2895.38 3473.8 2995.33C3454.33 3026.36 3428.14 3052.61 3397.15 3072.14C3366.16 3091.66 3331.17 3103.97 3294.78 3108.14L3218.69 3154.72C3208.25 3096.52 3210.55 3036.75 3225.44 2979.53C3240.32 2922.31 3267.44 2868.99 3304.91 2823.25C3326.19 2797.8 3350.59 2775.14 3377.53 2755.78C3395.76 2803.83 3420.1 2851.34 3420.1 2851.34Z" fill="#F2F2F2"/>
<path d="M2968.29 3147.09C3136.7 3147.09 3273.21 3010.59 3273.21 2842.2C3273.21 2673.81 3136.7 2537.31 2968.29 2537.31C2799.89 2537.31 2663.38 2673.81 2663.38 2842.2C2663.38 3010.59 2799.89 3147.09 2968.29 3147.09Z" fill="#6685B4"/>
<path d="M2843.85 2722.94C2839.67 2745.43 2832.8 2767.33 2823.41 2788.18C2769.62 2901.96 2922.8 2864.87 2977.54 2864.87C3037.39 2864.87 3094.66 2896.34 3085.91 2756.51C3082.18 2696.78 3037.39 2648.15 2977.54 2648.15C2926.42 2648.15 2854.54 2670.87 2843.85 2722.94Z" fill="#2F2E41"/>
<path d="M2968.57 2864.84C3017.21 2864.84 3056.64 2825.42 3056.64 2776.79C3056.64 2728.16 3017.21 2688.73 2968.57 2688.73C2919.94 2688.73 2880.51 2728.16 2880.51 2776.79C2880.51 2825.42 2919.94 2864.84 2968.57 2864.84Z" fill="#FFB6B6"/>
<path d="M2908.77 2687.03C2924.2 2677.62 2941.88 2672.53 2959.95 2672.3C2978.02 2672.06 2995.82 2676.68 3011.5 2685.67C3027.17 2694.67 3040.14 2707.71 3049.05 2723.44C3057.96 2739.16 3062.47 2756.99 3062.13 2775.06C3017.26 2786.32 2970.12 2794.94 2922.27 2777.75L2910.97 2750.1L2904.3 2777.77C2889.73 2783.73 2875.12 2788.77 2860.51 2777.71C2859.91 2759.7 2864.06 2741.84 2872.52 2725.93C2880.99 2710.01 2893.49 2696.6 2908.77 2687.03V2687.03Z" fill="#2F2E41"/>
<path d="M3205.38 3044.93C3152.56 3105.04 3078.21 3141.96 2998.4 3147.72C2918.58 3153.49 2839.7 3127.64 2778.78 3075.76L2804.93 3002.79C2810.85 2989.83 2820.17 2978.72 2831.92 2970.66C2843.66 2962.6 2857.38 2957.88 2871.6 2957.02L2888.23 2956L2927.91 2921.78C2927.91 2921.78 3034.81 2917.97 3033.22 2916.14L3097.97 2955.09L3097.92 2954.82L3123.37 2956.38C3137.59 2957.23 3151.31 2961.95 3163.06 2970.01C3174.8 2978.07 3184.13 2989.18 3190.03 3002.15L3205.38 3044.93Z" fill="#3F3D56"/>
<path d="M609.837 693.126C609.73 753.428 591.742 812.344 558.148 862.423C524.555 912.503 476.864 951.497 421.106 974.475C365.349 997.452 304.029 1003.38 244.902 991.512C185.774 979.643 131.495 950.509 88.9267 907.794C46.3588 865.078 17.4145 810.701 5.75408 751.537C-5.90638 692.373 0.240666 631.081 23.418 575.41C46.5953 519.74 85.7618 472.192 135.965 438.779C186.168 405.366 245.152 387.589 305.459 387.696C345.531 387.663 385.214 395.548 422.229 410.899C459.243 426.25 492.858 448.764 521.143 477.147C549.428 505.529 571.824 539.221 587.045 576.286C602.266 613.351 610.012 653.059 609.837 693.126V693.126Z" fill="#F2F2F2"/>
<path d="M163.591 593.405C176.199 553.227 204.871 516.377 244.523 502.794C284.177 489.212 342.242 509.902 372.053 539.61C426.584 593.951 439.891 780.634 402.426 839.627C394.974 839.233 369.261 838.941 361.719 838.659L351.05 803.102V838.308C339.034 837.937 326.924 837.68 314.72 837.539C273.803 837.032 234.677 820.682 205.566 791.927C176.455 763.172 159.628 724.251 158.621 683.347C157.645 644.216 158.622 609.238 163.591 593.405Z" fill="#CCCCCC"/>
<path d="M300.396 726.565C348.39 726.565 387.296 687.662 387.296 639.673C387.296 591.684 348.39 552.781 300.396 552.781C252.403 552.781 213.497 591.684 213.497 639.673C213.497 687.662 252.403 726.565 300.396 726.565Z" fill="#CCCCCC"/>
<path d="M225.399 563.362L325.455 513.266C345.911 522.483 363.529 537.004 376.481 555.324C389.433 573.643 397.247 595.094 399.114 617.451L401.608 647.322L359.709 636.657L355.118 598.462L348.003 633.678L328.667 628.758L328.851 569.461L309.503 628.716L240.444 612.851L225.399 563.362Z" fill="#CCCCCC"/>
<path d="M531.188 894.35C478.362 954.453 404.017 991.373 324.203 997.141C244.388 1002.91 165.507 977.061 104.587 925.178L130.74 852.207C136.651 839.247 145.978 828.139 157.721 820.076C169.465 812.013 183.181 807.298 197.401 806.436L214.039 805.415L253.713 771.201C253.713 771.201 360.612 767.384 359.026 765.557L423.778 804.501L423.725 804.232L449.179 805.791C463.4 806.648 477.118 811.362 488.862 819.426C500.607 827.49 509.933 838.599 515.84 851.562L531.188 894.35Z" fill="#CCCCCC"/>
<path d="M307.089 2397.74C475.491 2397.74 612.008 2261.24 612.008 2092.85C612.008 1924.47 475.491 1787.96 307.089 1787.96C138.688 1787.96 2.1709 1924.47 2.1709 2092.85C2.1709 2261.24 138.688 2397.74 307.089 2397.74Z" fill="#F2F2F2"/>
<path d="M182.647 1973.6C178.462 1996.08 171.599 2017.98 162.206 2038.83C108.418 2152.61 261.596 2115.52 316.337 2115.52C376.188 2115.52 433.453 2146.99 424.707 2007.16C420.971 1947.43 376.188 1898.8 316.337 1898.8C265.214 1898.8 193.337 1921.52 182.647 1973.6Z" fill="#CCCCCC"/>
<path d="M307.37 2115.49C356.005 2115.49 395.432 2076.07 395.432 2027.44C395.432 1978.81 356.005 1939.38 307.37 1939.38C258.734 1939.38 219.307 1978.81 219.307 2027.44C219.307 2076.07 258.734 2115.49 307.37 2115.49Z" fill="#CCCCCC"/>
<path d="M247.566 1937.68C262.997 1928.27 280.673 1923.18 298.744 1922.95C316.815 1922.71 334.618 1927.33 350.292 1936.33C365.966 1945.32 378.935 1958.36 387.843 1974.09C396.751 1989.81 401.27 2007.64 400.928 2025.71C356.056 2036.97 308.914 2045.59 261.062 2028.4L249.76 2000.75L243.098 2028.42C228.525 2034.38 213.914 2039.42 199.303 2028.36C198.707 2010.35 202.85 1992.49 211.32 1976.58C219.789 1960.66 232.288 1947.25 247.566 1937.68Z" fill="#CCCCCC"/>
<path d="M544.178 2295.58C491.352 2355.69 417.007 2392.61 337.193 2398.37C257.379 2404.14 178.497 2378.3 117.577 2326.41L143.731 2253.44C149.641 2240.48 158.968 2229.37 170.711 2221.31C182.455 2213.25 196.172 2208.53 210.391 2207.67L227.029 2206.65L266.703 2172.44C266.703 2172.44 373.602 2168.62 372.016 2166.79L436.769 2205.74L436.715 2205.47L462.169 2207.03C476.39 2207.88 490.109 2212.6 501.853 2220.66C513.597 2228.72 522.923 2239.83 528.83 2252.8L544.178 2295.58Z" fill="#CCCCCC"/>
<path d="M1618.93 2119.09C1891.59 2119.09 2112.62 1898.08 2112.62 1625.45C2112.62 1352.81 1891.59 1131.8 1618.93 1131.8C1346.28 1131.8 1125.24 1352.81 1125.24 1625.45C1125.24 1898.08 1346.28 2119.09 1618.93 2119.09Z" fill="#F2F2F2"/>
<path d="M1639.05 1675.8C1727.96 1675.8 1800.04 1603.73 1800.04 1514.83C1800.04 1425.93 1727.96 1353.86 1639.05 1353.86C1550.14 1353.86 1478.07 1425.93 1478.07 1514.83C1478.07 1603.73 1550.14 1675.8 1639.05 1675.8Z" fill="#CCCCCC"/>
<path d="M1780.79 1408.49C1780.79 1408.49 1822.71 1328.37 1730.49 1321.09C1730.49 1321.09 1651.88 1249.79 1571.75 1308.05C1571.75 1308.05 1528.05 1308.05 1504.15 1357.51C1504.15 1357.51 1469.77 1344.47 1462.22 1379.36C1462.22 1379.36 1437.07 1452.2 1462.22 1517.75C1487.37 1583.3 1495.73 1590.59 1495.73 1590.59C1495.73 1590.59 1478.08 1509.24 1578.68 1501.95C1679.29 1494.67 1771.58 1431.65 1779.97 1511.77C1788.35 1591.89 1797.57 1555.7 1797.57 1555.7C1797.57 1555.7 1877.2 1441.27 1780.79 1408.49Z" fill="#CCCCCC"/>
<path d="M1987.48 1953.69C1901.95 2051 1781.58 2110.78 1652.35 2120.11C1523.13 2129.45 1395.41 2087.6 1296.78 2003.6L1339.12 1885.46C1348.69 1864.47 1363.79 1846.49 1382.81 1833.43C1401.82 1820.38 1424.03 1812.74 1447.05 1811.35L1473.99 1809.69L1538.22 1754.3C1538.22 1754.3 1711.3 1748.12 1708.73 1745.16L1813.57 1808.21L1813.49 1807.78L1854.7 1810.3C1877.72 1811.69 1899.94 1819.32 1918.95 1832.38C1937.96 1845.44 1953.06 1863.42 1962.63 1884.41L1987.48 1953.69Z" fill="#CCCCCC"/>
<path d="M805.821 1627.07C974.223 1627.07 1110.74 1490.57 1110.74 1322.18C1110.74 1153.8 974.223 1017.29 805.821 1017.29C637.419 1017.29 500.902 1153.8 500.902 1322.18C500.902 1490.57 637.419 1627.07 805.821 1627.07Z" fill="#F2F2F2"/>
<path d="M797.405 1359.95C851.161 1359.95 894.738 1316.38 894.738 1262.63C894.738 1208.88 851.161 1165.3 797.405 1165.3C743.649 1165.3 700.072 1208.88 700.072 1262.63C700.072 1316.38 743.649 1359.95 797.405 1359.95Z" fill="#CCCCCC"/>
<path d="M1034.58 1526.18C981.751 1586.28 907.406 1623.2 827.592 1628.97C747.778 1634.74 668.896 1608.89 607.976 1557.01L634.13 1484.04C640.04 1471.08 649.367 1459.97 661.11 1451.9C672.854 1443.84 686.571 1439.13 700.79 1438.26L717.428 1437.24L757.102 1403.03C757.102 1403.03 864.001 1399.21 862.415 1397.38L927.167 1436.33L927.114 1436.06L952.568 1437.62C966.789 1438.48 980.508 1443.19 992.252 1451.25C1004 1459.32 1013.32 1470.43 1019.23 1483.39L1034.58 1526.18Z" fill="#CCCCCC"/>
<path d="M900.06 1202.27C891.834 1172.83 873.147 1147.41 847.506 1130.77C827.071 1117.7 801.572 1111.03 778.422 1117.94C755.271 1124.85 736.104 1147.57 737.62 1172.12C733.331 1170.99 728.813 1171.09 724.576 1172.39C720.339 1173.7 716.553 1176.17 713.647 1179.52C707.838 1186.38 703.799 1194.55 701.885 1203.33C694.456 1230.85 694.948 1259.91 703.305 1287.16L702.845 1291.07C714.139 1289.2 722.706 1279.51 728.034 1269.19C733.361 1258.87 736.426 1247.41 742.2 1237.34C747.974 1227.27 757.562 1218.28 769 1217.97L767.992 1235.45L797.514 1220.24C795.173 1225.84 792.833 1231.44 790.492 1237.04C799.086 1233.45 807.68 1229.86 816.274 1226.27C815.313 1231.65 814.353 1237.03 813.392 1242.42C815.645 1237.74 818.824 1233.58 822.734 1230.17C826.645 1226.76 831.207 1224.17 836.144 1222.58C841.081 1220.98 846.29 1220.4 851.457 1220.88C856.624 1221.35 861.641 1222.87 866.204 1225.34C876.481 1232.26 883.889 1242.68 887.043 1254.65C890.163 1266.61 891.839 1278.89 892.033 1291.24C905.313 1263.51 908.162 1231.93 900.06 1202.27V1202.27Z" fill="#CCCCCC"/>
<path d="M1452.91 1567.75V1567.93C1452.63 1567.26 1452.45 1566.56 1452.36 1565.85L1452.91 1567.75Z" fill="#F2F2F2"/>
<path d="M1452.91 1567.93C1453.36 1569.84 1453.9 1571.74 1454.45 1573.55C1453.7 1573.76 1452.95 1573.91 1452.18 1574.01L1452.91 1567.93Z" fill="#F2F2F2"/>
<path d="M2112.61 1624.43C2112.6 1751.98 2063.2 1874.58 1974.77 1966.52C1886.34 2058.45 1765.75 2112.59 1638.28 2117.58V1131.28C1765.76 1136.24 1886.36 1190.37 1974.8 1282.32C2063.23 1374.26 2112.62 1496.87 2112.61 1624.43V1624.43Z" fill="#6685B4"/>
<path d="M1452.36 1565.85L1452.91 1567.75V1567.93C1452.63 1567.26 1452.45 1566.56 1452.36 1565.85V1565.85Z" fill="#FFB6B6"/>
<path d="M1762.9 1528.03C1762.93 1541.06 1761.31 1554.04 1758.09 1566.66V1566.75C1750.84 1595.23 1735.79 1621.11 1714.62 1641.49C1693.45 1661.87 1667.01 1675.94 1638.28 1682.1V1373.86C1673.55 1381.44 1705.16 1400.88 1727.83 1428.93C1750.51 1456.98 1762.88 1491.96 1762.9 1528.03Z" fill="#A0616A"/>
<path d="M1989.27 1954.71C1945.2 2004.97 1891.35 2045.72 1831.01 2074.47C1770.66 2103.22 1705.08 2119.37 1638.28 2121.93V1751.3C1676.83 1749.48 1711.75 1747.58 1710.57 1746.22L1815.41 1809.25L1815.32 1808.79L1856.49 1811.33C1879.52 1812.7 1901.74 1820.32 1920.76 1833.38C1939.77 1846.43 1954.87 1864.43 1964.42 1885.42L1988.27 1951.89L1989.27 1954.71Z" fill="#3F3D56"/>
<path d="M1452.91 1567.93C1453.36 1569.84 1453.9 1571.74 1454.45 1573.55C1453.7 1573.76 1452.95 1573.91 1452.18 1574.01L1452.91 1567.93Z" fill="#2F2E41"/>
<path d="M1758.54 1574.28C1758.36 1571.74 1758.27 1569.29 1758.09 1566.75V1566.66C1757.57 1549.22 1755.01 1531.91 1750.47 1515.06C1744.58 1496.02 1733.51 1477.79 1716.73 1467.63C1691.61 1452.4 1656.33 1460.65 1638.28 1483.5V1293.33C1655.37 1297.8 1671.62 1304.96 1686.44 1314.55C1727.95 1341.47 1758.21 1382.62 1771.51 1430.27C1784.62 1478.27 1780.01 1529.39 1758.54 1574.28Z" fill="#2F2E41"/>
<path d="M1631.5 3159C1629.93 3159.08 1628.4 3158.53 1627.23 3157.48C1626.07 3156.43 1625.37 3154.96 1625.28 3153.4V5.60089C1625.44 4.06413 1626.17 2.6412 1627.32 1.60684C1628.46 0.572469 1629.95 0 1631.5 0C1633.04 0 1634.53 0.572469 1635.68 1.60684C1636.83 2.6412 1637.55 4.06413 1637.71 5.60089V3153.4C1637.63 3154.96 1636.93 3156.43 1635.76 3157.48C1634.6 3158.53 1633.06 3159.08 1631.5 3159V3159Z" fill="#2F2E41"/>
<path d="M2250.83 1471.38L2079.1 1429.26L1850.13 1234.62L1888.26 1174.09L2095.68 1306.21C2095.68 1306.21 2232.9 1341.05 2279.84 1381.22L2250.83 1471.38Z" fill="#FFB6B6"/>
<path d="M1858.1 1238.3C1881.21 1238.3 1899.94 1219.57 1899.94 1196.46C1899.94 1173.36 1881.21 1154.63 1858.1 1154.63C1835 1154.63 1816.26 1173.36 1816.26 1196.46C1816.26 1219.57 1835 1238.3 1858.1 1238.3Z" fill="#FFB6B6"/>
<path d="M2258.9 1358.74L2099.64 1293.81L2023.1 1384.69L2079.96 1431.54L2234.97 1471.82L2235.08 1472.23C2245.97 1512.35 2315.98 1539.59 2372.79 1555.38C2391.53 1560.57 2411.53 1558.45 2428.77 1549.45C2446.01 1540.46 2459.18 1525.25 2465.64 1506.91V1506.91C2470.3 1493.35 2471.09 1478.76 2467.89 1464.78C2464.7 1450.79 2457.66 1437.98 2447.57 1427.79L2395.98 1376.07L2258.9 1358.74Z" fill="#E6E6E6"/>
<path d="M1818.55 2990.71L1762.73 2969.47L1818.09 2744.11L1900.46 2775.45L1818.55 2990.71Z" fill="#FFB6B6"/>
<path d="M1839.72 2977.9L1824.01 2971.92L1772.16 2923.65L1729.8 2936.08L1729.8 2936.08C1711.22 2929.01 1690.6 2929.61 1672.46 2937.75C1654.33 2945.89 1640.17 2960.9 1633.1 2979.47L1632.23 2981.75L1812.2 3050.22L1839.72 2977.9Z" fill="#2F2E41"/>
<path d="M2382.75 3084.26L2323.04 3084.26L2294.62 2853.95L2382.76 2853.95L2382.75 3084.26Z" fill="#FFB6B6"/>
<path d="M2397.98 3064.77L2381.18 3064.77L2315.55 3038.09L2280.38 3064.77H2280.38C2260.5 3064.77 2241.44 3072.66 2227.38 3086.72C2213.33 3100.77 2205.43 3119.83 2205.43 3139.7V3142.14L2397.98 3142.15L2397.98 3064.77Z" fill="#2F2E41"/>
<path d="M2473.81 2092.22C2473.81 2092.22 2480.78 2175.89 2463.35 2256.07C2452.42 2306.34 2448.34 2413.82 2446.82 2487.04C2445.92 2530.63 2426.31 2537.58 2426.31 2537.58L2439.31 2637.81L2407.56 3002.11L2292.51 2991.65L2261.13 2256.07L2054.34 2419.57L2060.08 2438.7C2062.86 2447.99 2042.29 2446.8 2034.06 2451.95L2013.77 2499.02C2014.17 2506.8 2012.17 2514.51 2008.05 2521.12C2003.93 2527.73 1997.88 2532.92 1990.72 2535.99L1882.96 2856.54L1798.93 2806.13L1826.94 2514.88L1866.15 2380.45L2024.05 2186.35L2027.54 2130.57L2043.23 2131.22L2051.22 2107.91L2065.89 2067.82L2473.81 2092.22Z" fill="#2F2E41"/>
<path d="M2479.83 2109.8L2480.45 2108.92C2513.64 2062.47 2463.73 1950.83 2456.2 1934.65C2465.14 1931.75 2472.8 1925.84 2477.87 1917.93C2482.94 1910.02 2485.11 1900.59 2484.01 1891.26L2480.77 1863.67L2477.39 1836.62L2501.62 1812.39L2501.69 1811.78L2515.63 1689.77L2535.91 1608.73C2543.55 1578.09 2542.9 1545.97 2534.02 1515.67C2525.15 1485.37 2508.37 1457.97 2485.41 1436.3L2438.54 1392.11L2381.57 1307.84H2289.72L2258.22 1367.32C2227.69 1374.38 2200.59 1391.92 2181.66 1416.9C2162.73 1441.88 2153.17 1472.7 2154.63 1504L2161.77 1660.02L2133.82 1854.27L2133.81 1889.42L2119.25 1905.6C2114.01 1911.42 2110.2 1918.39 2108.13 1925.95C2106.05 1933.51 2105.78 1941.45 2107.31 1949.13L2109.23 1958.7C2101.83 1961.87 2095.3 1966.77 2090.19 1972.98C2085.07 1979.2 2081.52 1986.55 2079.84 1994.42L2074.72 2018.27C2070.35 2024.04 2041.48 2062.53 2041.48 2073.05C2041.48 2074.63 2042.65 2076.15 2045.15 2077.85C2064.83 2091.17 2173.56 2118.32 2221.68 2099.07C2272.95 2078.57 2476.72 2109.32 2478.78 2109.63L2479.83 2109.8Z" fill="#E6E6E6"/>
<path d="M2323.78 1280.63C2390.97 1280.63 2445.43 1226.17 2445.43 1158.99C2445.43 1091.81 2390.97 1037.35 2323.78 1037.35C2256.59 1037.35 2202.13 1091.81 2202.13 1158.99C2202.13 1226.17 2256.59 1280.63 2323.78 1280.63Z" fill="#FFB6B6"/>
<path d="M2284.1 1693.34L2199.59 1848.65L1953.01 2020.42L1904.2 1968.13L2084.83 1801.26C2084.83 1801.26 2153.5 1677.46 2204.31 1642.32L2284.1 1693.34Z" fill="#FFB6B6"/>
<path d="M1918.14 2044.82C1941.25 2044.82 1959.98 2026.09 1959.98 2002.99C1959.98 1979.88 1941.25 1961.15 1918.14 1961.15C1895.03 1961.15 1876.3 1979.88 1876.3 2002.99C1876.3 2026.09 1895.03 2044.82 1918.14 2044.82Z" fill="#FFB6B6"/>
<path d="M2276.5 1714.04L2329.64 1586.51L2310.42 1516.03C2306.6 1502.21 2298.98 1489.73 2288.44 1480.01C2277.89 1470.28 2264.84 1463.7 2250.75 1461.01V1461.01C2231.63 1457.49 2211.89 1461.36 2195.51 1471.83C2179.13 1482.31 2167.34 1498.62 2162.53 1517.45C2147.97 1574.59 2136.79 1648.87 2166.19 1678.26L2166.49 1678.56L2079.01 1792.63L2207.85 1865.45L2276.5 1714.04Z" fill="#E6E6E6"/>
<path d="M2443.97 1075.16C2434.08 1061.83 2419.86 1052.35 2408.99 1039.81C2403.51 1032.54 2397.63 1025.58 2391.36 1018.98C2378.22 1008.05 2361.64 1002.13 2344.56 1002.26C2326.02 1001.78 2307.63 1005.67 2290.88 1013.62C2274.13 1021.57 2259.49 1033.35 2248.14 1048.01C2239.3 1042.83 2230.46 1037.64 2221.62 1032.46C2218.13 1041.65 2214.63 1050.84 2211.14 1060.03C2208.28 1057.54 2204.62 1056.15 2200.82 1056.09C2197.03 1056.04 2193.33 1057.33 2190.4 1059.74C2187.46 1062.15 2185.48 1065.52 2184.79 1069.26C2184.1 1072.99 2184.76 1076.85 2186.64 1080.15C2184.54 1073.65 2174.9 1072.27 2169.59 1076.56C2167.13 1078.94 2165.3 1081.9 2164.28 1085.17C2163.25 1088.44 2163.06 1091.91 2163.72 1095.27C2164.81 1102.71 2168.09 1109.65 2173.16 1115.2C2178.22 1120.75 2184.83 1124.66 2192.13 1126.43C2203.67 1129 2217.09 1126.3 2226.33 1133.67C2233.73 1139.59 2235.96 1150.36 2243.52 1156.08C2252.83 1163.12 2265.98 1159.86 2277.56 1161.42C2287.64 1163.15 2296.71 1168.6 2302.98 1176.69C2309.24 1184.78 2312.25 1194.93 2311.4 1205.13C2312.81 1198.61 2315.5 1192.43 2319.31 1186.95C2321.26 1184.24 2323.96 1182.16 2327.07 1180.95C2330.18 1179.74 2333.58 1179.46 2336.84 1180.15C2347.38 1183.31 2349.11 1197.67 2346.55 1208.37C2339.78 1236.75 2314.11 1282.62 2314.11 1282.62C2347.44 1295.77 2387.16 1283.34 2412.88 1258.39C2438.6 1233.44 2452 1198.11 2457.83 1162.75C2462.78 1132.77 2462.08 1099.57 2443.97 1075.16Z" fill="#2F2E41"/>
<path d="M3545.19 3146.73C3545.2 3147.61 3545.02 3148.48 3544.69 3149.29C3544.36 3150.1 3543.87 3150.83 3543.25 3151.45C3542.63 3152.07 3541.89 3152.56 3541.08 3152.9C3540.27 3153.23 3539.4 3153.4 3538.53 3153.4H1968.46C1966.69 3153.4 1965 3152.7 1963.75 3151.45C1962.5 3150.2 1961.79 3148.5 1961.79 3146.73C1961.79 3144.97 1962.5 3143.27 1963.75 3142.02C1965 3140.77 1966.69 3140.07 1968.46 3140.07H3538.53C3539.4 3140.07 3540.27 3140.24 3541.08 3140.57C3541.89 3140.9 3542.63 3141.4 3543.25 3142.01C3543.87 3142.63 3544.36 3143.37 3544.69 3144.18C3545.02 3144.99 3545.2 3145.86 3545.19 3146.73V3146.73Z" fill="#CCCCCC"/>
</g>
<defs>
<clipPath id="clip0_0_1">
<rect width="3615" height="3159" fill="white"/>
</clipPath>
</defs>
</svg>

