<svg width="439" height="442" viewBox="0 0 439 442" fill="none" xmlns="http://www.w3.org/2000/svg">
<path d="M243.37 23.73V52.25C236.9 58.6 213.52 82.18 213.52 82.18H243.37V104.63C243.372 108.447 244.881 112.109 247.567 114.82C250.254 117.532 253.903 119.073 257.72 119.11L423.2 120.67C425.112 120.689 427.01 120.328 428.782 119.608C430.555 118.889 432.167 117.825 433.526 116.478C434.884 115.132 435.962 113.529 436.698 111.763C437.433 109.997 437.811 108.103 437.81 106.19V23.73C437.81 19.8897 436.284 16.2066 433.568 13.4911C430.853 10.7756 427.17 9.25 423.33 9.25H257.85C255.948 9.25 254.065 9.62453 252.308 10.3522C250.551 11.0799 248.955 12.1465 247.611 13.4911C246.266 14.8357 245.199 16.4319 244.472 18.1887C243.744 19.9455 243.37 21.8285 243.37 23.73Z" fill="#FAFAFA"/>
<path d="M243.37 23.73C243.37 23.73 243.37 23.18 243.43 22.11C243.605 20.5239 244.037 18.977 244.71 17.53C245.199 16.4588 245.817 15.4513 246.55 14.53C247.454 13.432 248.503 12.463 249.67 11.65C251.043 10.7166 252.565 10.0234 254.17 9.6C256.004 9.17439 257.889 9.00611 259.77 9.1L327.01 9H373.44H399.31H423.22C423.81 9 424.41 9 425 9.1C425.596 9.16355 426.188 9.26712 426.77 9.41C429.138 9.97508 431.33 11.1172 433.15 12.7346C434.969 14.352 436.361 16.3945 437.2 18.68C437.628 19.8341 437.914 21.0364 438.05 22.26C438.13 23.5 438.13 24.71 438.12 25.93C438.12 28.3633 438.12 30.8067 438.12 33.26V63.27C438.12 73.4833 438.12 83.8667 438.12 94.42V106.39C438.098 107.744 437.896 109.089 437.52 110.39C436.738 113.037 435.227 115.411 433.16 117.24C432.142 118.172 430.989 118.944 429.74 119.53C428.493 120.135 427.166 120.559 425.8 120.79C424.506 120.981 423.197 121.048 421.89 120.99H418.04L410.36 120.91L395.16 120.77L365.41 120.48L309 119.93L257.7 119.42C255.675 119.396 253.677 118.955 251.829 118.126C249.981 117.297 248.324 116.097 246.96 114.6C244.316 111.676 242.929 107.829 243.1 103.89C243.1 96.3767 243.1 89.1533 243.1 82.22L243.34 82.46H213.49H213L213.35 82.11L243.25 52.22V52.32C243.25 43.06 243.3 35.93 243.31 31.11C243.31 28.71 243.31 26.89 243.31 25.65C243.31 24.41 243.31 23.8 243.31 23.8C243.31 23.8 243.31 24.42 243.31 25.65C243.31 26.88 243.31 28.71 243.31 31.11C243.31 35.93 243.31 43.06 243.38 52.32L213.58 82.32L213.43 81.97H243.28H243.62V82.21C243.62 89.1367 243.62 96.36 243.62 103.88C243.455 107.688 244.799 111.407 247.36 114.23C248.676 115.67 250.273 116.824 252.054 117.62C253.834 118.417 255.76 118.839 257.71 118.86L309.01 119.32L365.41 119.83L395.17 120.11L410.37 120.25L418.04 120.32H421.9C423.17 120.379 424.443 120.312 425.7 120.12C428.304 119.668 430.73 118.5 432.706 116.746C434.683 114.992 436.132 112.721 436.89 110.19C437.257 108.936 437.452 107.637 437.47 106.33C437.47 105 437.47 103.67 437.47 102.33V63.27C437.47 53.0633 437.47 43.0433 437.47 33.21C437.47 30.75 437.47 28.3067 437.47 25.88C437.47 24.66 437.47 23.45 437.39 22.28C437.26 21.1058 436.991 19.9512 436.59 18.84C435.784 16.6492 434.45 14.6913 432.705 13.1403C430.961 11.5894 428.86 10.4935 426.59 9.95C424.36 9.36 422.02 9.59 419.7 9.54H373.4H326.97L259.77 9.39C257.907 9.28478 256.039 9.44301 254.22 9.86C252.637 10.2703 251.136 10.9466 249.78 11.86C248.622 12.6527 247.578 13.6016 246.68 14.68C245.944 15.5797 245.323 16.5672 244.83 17.62C243.929 19.5347 243.432 21.6147 243.37 23.73V23.73Z" fill="#263238"/>
<path d="M319.86 93.23V94.77H308V78H319.54V79.53H309.81V85.53H318.48V87.04H309.81V93.26L319.86 93.23Z" fill="black"/>
<path d="M332.35 81V82.62H331.94C329.31 82.62 327.7 84.3 327.7 87.27V93.69H326V81.09H327.63V83.55C328.42 81.89 330.02 81 332.35 81Z" fill="black"/>
<path d="M344.35 81V82.62H343.94C341.31 82.62 339.7 84.3 339.7 87.27V93.69H338V81.09H339.63V83.55C340.47 81.89 342.03 81 344.35 81Z" fill="black"/>
<path d="M349.004 87.3999C349.006 86.1342 349.383 84.8975 350.087 83.8456C350.79 82.7937 351.79 81.9736 352.959 81.4889C354.128 81.0041 355.414 80.8762 356.656 81.1215C357.898 81.3667 359.039 81.974 359.936 82.8669C360.833 83.7598 361.446 84.8982 361.697 86.1387C361.948 87.3792 361.826 88.6662 361.347 89.8376C360.867 91.009 360.052 92.0122 359.003 92.7209C357.955 93.4296 356.72 93.812 355.454 93.8199C354.6 93.8549 353.748 93.713 352.952 93.4032C352.156 93.0933 351.432 92.6222 350.826 92.0194C350.221 91.4165 349.746 90.695 349.432 89.9C349.119 89.1051 348.973 88.2539 349.004 87.3999V87.3999ZM360.094 87.3999C360.051 86.482 359.739 85.5971 359.198 84.8549C358.656 84.1127 357.908 83.546 357.047 83.2251C356.186 82.9043 355.25 82.8434 354.354 83.0501C353.459 83.2568 352.644 83.7219 352.011 84.3877C351.378 85.0535 350.954 85.8906 350.792 86.7951C350.631 87.6997 350.738 88.6318 351.102 89.4756C351.466 90.3195 352.069 91.038 352.837 91.5418C353.606 92.0457 354.505 92.3128 355.424 92.3099C356.061 92.3226 356.694 92.2023 357.283 91.9568C357.871 91.7114 358.402 91.346 358.841 90.8841C359.281 90.4222 359.619 89.8738 359.835 89.2739C360.05 88.674 360.139 88.0358 360.094 87.3999V87.3999Z" fill="black"/>
<path d="M374.35 81V82.62H373.94C371.3 82.62 369.7 84.3 369.7 87.27V93.69H368V81.09H369.63V83.55C370.42 81.89 372.02 81 374.35 81Z" fill="black"/>
<path d="M282.53 48.8899C282.53 41.0199 288.66 35.1899 297.02 35.1899C305.38 35.1899 311.52 40.9799 311.52 48.8899C311.52 56.7999 305.35 62.5899 297.02 62.5899C288.69 62.5899 282.53 56.7599 282.53 48.8899ZM305.31 48.8899C305.268 47.2599 304.747 45.6783 303.812 44.3429C302.876 43.0075 301.567 41.9777 300.049 41.3823C298.531 40.787 296.872 40.6524 295.278 40.9956C293.684 41.3388 292.226 42.1445 291.088 43.3118C289.949 44.4791 289.18 45.9562 288.877 47.5583C288.574 49.1604 288.75 50.8164 289.383 52.319C290.016 53.8216 291.078 55.1041 292.437 56.0061C293.795 56.9081 295.389 57.3894 297.02 57.3899C298.134 57.419 299.243 57.2173 300.276 56.7976C301.309 56.3779 302.243 55.7493 303.022 54.9512C303.8 54.153 304.405 53.2026 304.799 52.1596C305.193 51.1165 305.367 50.0034 305.31 48.8899V48.8899Z" fill="black"/>
<path d="M314.2 51.9502C314.2 45.8202 318.93 41.4702 325.4 41.4702C331.87 41.4702 336.56 45.8202 336.56 51.9502C336.56 58.0802 331.87 62.3902 325.4 62.3902C318.93 62.3902 314.2 58.0802 314.2 51.9502ZM330.58 51.9502C330.58 48.4402 328.35 46.3202 325.4 46.3202C322.45 46.3202 320.17 48.4402 320.17 51.9502C320.17 55.4602 322.44 57.5902 325.4 57.5902C328.36 57.5902 330.62 55.4702 330.62 51.9502H330.58Z" fill="black"/>
<path d="M362.62 51.9501C362.62 58.3901 358.23 62.3901 352.52 62.3901C351.382 62.4466 350.246 62.257 349.188 61.8342C348.13 61.4114 347.176 60.7653 346.39 59.9401V69.4301H340.49V41.7801H346.13V44.1201C346.924 43.222 347.912 42.5166 349.019 42.0574C350.127 41.5983 351.324 41.3974 352.52 41.4701C358.23 41.4701 362.62 45.5601 362.62 51.9501ZM356.62 51.9501C356.62 48.4401 354.39 46.3201 351.44 46.3201C348.49 46.3201 346.26 48.4401 346.26 51.9501C346.26 55.4601 348.49 57.5901 351.44 57.5901C354.39 57.5901 356.68 55.4701 356.68 51.9501H356.62Z" fill="black"/>
<path d="M364.62 60.2398L366.62 55.9998C368.757 57.2911 371.203 57.9821 373.7 57.9998C376.42 57.9998 377.44 57.2798 377.44 56.1498C377.44 52.8198 365.15 56.2198 365.15 48.0898C365.15 44.2298 368.63 41.4998 374.57 41.4998C377.286 41.4511 379.973 42.0619 382.4 43.2798L380.4 47.4798C378.613 46.4721 376.592 45.9514 374.54 45.9698C371.89 45.9698 370.75 46.7998 370.75 47.8598C370.75 51.3398 383.05 47.9698 383.05 55.9898C383.05 59.7798 379.53 62.4598 373.44 62.4598C370.356 62.5096 367.313 61.7437 364.62 60.2398V60.2398Z" fill="black"/>
<path d="M385.81 58.9899C385.878 58.0737 386.29 57.2171 386.963 56.592C387.637 55.9669 388.521 55.6195 389.44 55.6195C390.359 55.6195 391.243 55.9669 391.917 56.592C392.59 57.2171 393.002 58.0737 393.07 58.9899C393.002 59.9061 392.59 60.7627 391.917 61.3878C391.243 62.0129 390.359 62.3603 389.44 62.3603C388.521 62.3603 387.637 62.0129 386.963 61.3878C386.29 60.7627 385.878 59.9061 385.81 58.9899V58.9899ZM385.92 35.6499H392.92L391.75 52.9399H387.06L385.92 35.6499Z" fill="black"/>
<path d="M104.959 20.3184L105.896 19.3884C108.521 16.7819 112.075 15.3252 115.775 15.3387C119.475 15.3523 123.017 16.835 125.624 19.4607L128.28 22.1363C130.886 24.762 132.343 28.3156 132.33 32.0153C132.316 35.7151 130.833 39.2579 128.208 41.8644L127.271 42.7944L104.959 20.3184Z" fill="#455A64"/>
<path d="M127.269 42.8079L104.939 20.3079L105.869 19.3779C107.164 18.0867 108.7 17.0634 110.39 16.3667C112.08 15.6701 113.891 15.3136 115.719 15.3179H115.769C117.605 15.3194 119.422 15.6843 121.116 16.3914C122.81 17.0985 124.348 18.1339 125.639 19.4379L128.299 22.1179C130.907 24.7515 132.364 28.3114 132.351 32.0174C132.337 35.7233 130.855 39.2729 128.229 41.8879L127.269 42.8079ZM104.989 20.2979L127.269 42.7379L128.189 41.8279C130.808 39.2252 132.286 35.6894 132.299 31.9974C132.313 28.3054 130.86 24.7591 128.259 22.1379L125.599 19.4579C124.315 18.156 122.784 17.1223 121.097 16.4167C119.409 15.7112 117.598 15.3479 115.769 15.3479H115.719C113.902 15.3372 112.1 15.685 110.416 16.3713C108.733 17.0577 107.201 18.0692 105.909 19.3479L104.989 20.2979Z" fill="#263238"/>
<path d="M59.8926 108.828L58.9225 109.723C56.2035 112.232 52.5991 113.558 48.9023 113.41C45.2055 113.262 41.7191 111.651 39.2101 108.932L36.6534 106.161C34.1354 103.432 32.8045 99.8149 32.9535 96.1049C33.1025 92.3948 34.7193 88.8959 37.448 86.3779L38.3814 85.5166L59.8926 108.828Z" fill="#455A64"/>
<path d="M49.4793 113.458H48.8993C47.0652 113.389 45.263 112.957 43.5965 112.188C41.93 111.419 40.4322 110.328 39.1893 108.978L36.6393 106.208C34.1309 103.481 32.8055 99.8716 32.9536 96.1696C33.1017 92.4677 34.7111 88.9754 37.4293 86.4579L38.4293 85.5479L59.9193 108.838L58.9193 109.738C56.3559 112.126 52.983 113.456 49.4793 113.458V113.458ZM37.4793 86.4579C36.1238 87.6981 35.027 89.1942 34.2521 90.86C33.4773 92.5259 33.0396 94.3286 32.9643 96.1643C32.889 98 33.1776 99.8325 33.8135 101.556C34.4493 103.28 35.4199 104.861 36.6693 106.208L39.2293 108.978C40.4674 110.326 41.9604 111.414 43.6219 112.182C45.2834 112.949 47.0804 113.379 48.9093 113.448H49.4793C52.976 113.454 56.3454 112.136 58.9093 109.758L59.9093 108.878L38.4693 85.6379L37.4793 86.4579Z" fill="#263238"/>
<path d="M25.2219 57.6166L23.6523 59.5625L39.7565 72.5522L41.326 70.6064L25.2219 57.6166Z" fill="#455A64"/>
<path d="M26.2686 53.5079C27.0541 54.1408 27.6343 54.9925 27.9357 55.9551C28.2372 56.9178 28.2464 57.9483 27.9621 58.9161C27.6779 59.884 27.113 60.7459 26.3389 61.3927C25.5648 62.0395 24.6163 62.4423 23.6133 62.55C22.6103 62.6577 21.5979 62.4656 20.7041 61.9979C19.8104 61.5301 19.0754 60.8079 18.5921 59.9224C18.1088 59.0369 17.899 58.0281 17.9892 57.0233C18.0793 56.0186 18.4654 55.0632 19.0986 54.2779C19.9505 53.2298 21.1821 52.5607 22.5251 52.4165C23.868 52.2723 25.2136 52.6646 26.2686 53.5079V53.5079Z" fill="#263238"/>
<path d="M87.2327 23.6876L40.2733 70.3203C33.8072 76.7414 33.7708 87.1886 40.1919 93.6547L69.6738 123.343C76.0949 129.809 86.5421 129.846 93.0082 123.425L139.968 76.7919C146.434 70.3708 146.47 59.9236 140.049 53.4575L110.567 23.7691C104.146 17.303 93.6988 17.2665 87.2327 23.6876Z" fill="#26A5B8"/>
<path d="M88.5487 22.3882L86.3387 13.9582L80.5887 14.9082L78.9287 8.81818L80.8087 8.38818L82.1187 12.8182L87.8587 12.0382L90.2587 20.6882L88.5487 22.3882Z" fill="#455A64"/>
<path d="M91.925 34.7735L51.3304 75.0857C45.8597 80.5183 45.8288 89.3573 51.2615 94.828L53.1288 96.7083C58.5614 102.179 67.4004 102.21 72.8711 96.7772L113.466 56.4651C118.936 51.0325 118.967 42.1935 113.535 36.7228L111.667 34.8425C106.235 29.3717 97.3957 29.3409 91.925 34.7735Z" fill="#263238"/>
<path d="M115.709 60.2078C115.709 60.2078 115.829 60.0478 116.079 59.7578C116.471 59.3361 116.838 58.892 117.179 58.4278C118.531 56.6821 119.527 54.6876 120.109 52.5578C120.529 51.0254 120.754 49.4463 120.779 47.8578C120.763 45.9694 120.46 44.0945 119.879 42.2978C119.204 40.2346 118.146 38.3176 116.759 36.6478L115.579 35.3478L114.299 34.0678C113.439 33.1639 112.517 32.3219 111.539 31.5478C109.417 29.9001 106.948 28.7578 104.319 28.2078C101.467 27.6777 98.5295 27.8493 95.759 28.7078C94.308 29.1659 92.923 29.8114 91.639 30.6278C90.3259 31.4919 89.1119 32.498 88.019 33.6278L80.969 40.6278L49.539 71.8578C46.7966 74.5796 45.0376 78.1363 44.539 81.9678C44.3083 83.8291 44.3691 85.7151 44.719 87.5578C45.2784 90.2601 46.4558 92.7963 48.159 94.9678C48.749 95.6578 49.329 96.3278 49.989 96.9678C51.193 98.2883 52.5114 99.4997 53.929 100.588C56.6673 102.567 59.9239 103.704 63.2991 103.858C66.6743 104.013 70.0212 103.179 72.929 101.458C73.6236 101.058 74.2916 100.614 74.929 100.128C75.529 99.6178 76.119 99.1278 76.669 98.5578L79.959 95.3078L91.959 83.4578L109.329 66.3278L114.049 61.7578L115.289 60.5578C115.569 60.2978 115.729 60.1678 115.729 60.1678C115.729 60.1678 115.599 60.3178 115.329 60.5978L114.119 61.8378L109.449 66.5378L92.189 83.7878L80.259 95.6878L76.989 98.9478C76.429 99.4978 75.819 100.028 75.219 100.548C74.5811 101.048 73.9132 101.509 73.219 101.928C70.2343 103.699 66.7979 104.56 63.3308 104.408C59.8637 104.255 56.5164 103.094 53.699 101.068C52.2653 99.9586 50.9272 98.7309 49.699 97.3978C49.049 96.7678 48.439 96.0578 47.829 95.3978C47.2566 94.6575 46.7353 93.879 46.269 93.0678C45.3213 91.4203 44.6459 89.6306 44.269 87.7678C43.9055 85.8694 43.8413 83.9259 44.079 82.0078C44.5784 78.0693 46.3765 74.4097 49.189 71.6078L80.649 40.3978L87.719 33.3978C88.8364 32.2423 90.0772 31.2129 91.419 30.3278C94.4957 28.3684 98.1022 27.4062 101.746 27.5727C105.39 27.7391 108.894 29.026 111.779 31.2578C112.769 32.0468 113.701 32.9057 114.569 33.8278L115.839 35.1178L117.049 36.3878C118.443 38.1143 119.499 40.089 120.159 42.2078C120.742 44.0339 121.032 45.9408 121.019 47.8578C120.982 49.4678 120.743 51.067 120.309 52.6178C119.707 54.7565 118.687 56.7549 117.309 58.4978C116.956 58.9538 116.572 59.3849 116.159 59.7878L115.709 60.2078Z" fill="#263238"/>
<path d="M63.8087 91.6382C63.5061 88.6482 63.3759 85.6432 63.4187 82.6382C63.2869 79.6381 63.3336 76.6328 63.5587 73.6382C63.8537 76.6287 63.9806 79.6334 63.9387 82.6382C64.0654 85.6382 64.022 88.643 63.8087 91.6382V91.6382Z" fill="white"/>
<path d="M72.5186 81.9281C69.5348 82.3322 66.5293 82.556 63.5186 82.5981C60.5236 82.8145 57.519 82.8645 54.5186 82.7481C57.5024 82.3447 60.5078 82.1209 63.5186 82.0781C66.5135 81.8613 69.5181 81.8112 72.5186 81.9281V81.9281Z" fill="white"/>
<path d="M99.4489 55.3179C99.1473 52.3278 99.0171 49.3229 99.0589 46.3179C98.9263 43.3178 98.973 40.3124 99.1989 37.3179C99.4939 40.3084 99.6208 43.3131 99.5789 46.3179C99.7056 49.3179 99.6622 52.3227 99.4489 55.3179Z" fill="white"/>
<path d="M108.159 45.608C105.174 46.0001 102.169 46.2238 99.1592 46.278C96.1645 46.5003 93.1593 46.5471 90.1592 46.418C93.1442 46.0271 96.1491 45.8068 99.1592 45.758C102.154 45.5352 105.159 45.4851 108.159 45.608V45.608Z" fill="white"/>
<path d="M78.7725 10.2778C81.5888 10.234 83.8364 7.91546 83.7926 5.09915C83.7489 2.28284 81.4304 0.0352352 78.614 0.0789857C75.7977 0.122736 73.5501 2.44127 73.5939 5.25759C73.6376 8.0739 75.9562 10.3215 78.7725 10.2778Z" fill="#263238"/>
<path d="M94.5591 121.888C94.2393 121.678 93.9441 121.433 93.6791 121.158C93.1291 120.668 92.3591 119.938 91.4091 119.038C89.5191 117.238 86.9191 114.708 84.0891 111.898C81.2591 109.088 78.7091 106.518 76.8891 104.628C75.8533 103.66 74.9124 102.595 74.0791 101.448C74.3722 101.69 74.6525 101.947 74.9191 102.218L77.1491 104.368C79.1491 106.278 81.6491 108.778 84.4491 111.528C87.2491 114.278 89.8391 116.908 91.6691 118.778L93.8191 121.018C94.1002 121.277 94.3486 121.569 94.5591 121.888V121.888Z" fill="#263238"/>
<path d="M137.869 78.2581C137.548 78.0508 137.253 77.8057 136.989 77.5281C136.449 77.0381 135.679 76.3181 134.729 75.4181C132.829 73.6081 130.239 71.0881 127.399 68.2781C124.559 65.4681 122.019 62.8881 120.209 60.9981C119.176 60.0318 118.235 58.9704 117.399 57.8281C117.697 58.0607 117.978 58.3147 118.239 58.5881L120.469 60.7381L127.769 67.9081C130.609 70.7181 133.159 73.2781 134.989 75.1481L137.139 77.3881C137.421 77.6441 137.666 77.9367 137.869 78.2581V78.2581Z" fill="#263238"/>
<path d="M117.173 64.0619L80.5947 101.232L84.6717 105.244L121.25 68.074L117.173 64.0619Z" fill="#263238"/>
<path d="M75.6487 108.028C75.6418 108.248 75.5689 108.461 75.4395 108.64C75.31 108.818 75.1301 108.953 74.9228 109.028C74.7156 109.103 74.4906 109.114 74.2772 109.059C74.0637 109.005 73.8715 108.888 73.7255 108.723C73.5794 108.558 73.4863 108.352 73.4582 108.134C73.4301 107.915 73.4682 107.694 73.5677 107.497C73.6672 107.3 73.8234 107.138 74.0162 107.031C74.2089 106.925 74.4292 106.878 74.6487 106.898C74.9289 106.921 75.1895 107.051 75.3758 107.262C75.5622 107.473 75.6599 107.747 75.6487 108.028Z" fill="#263238"/>
<path d="M83.9888 116.838C83.9539 117.111 83.8178 117.361 83.6074 117.539C83.397 117.717 83.1277 117.809 82.8525 117.798C82.5774 117.786 82.3165 117.672 82.1214 117.478C81.9263 117.284 81.8112 117.023 81.7988 116.748C81.8338 116.475 81.9699 116.225 82.1802 116.047C82.3906 115.87 82.66 115.777 82.9351 115.789C83.2102 115.8 83.4711 115.914 83.6662 116.108C83.8613 116.303 83.9764 116.563 83.9888 116.838Z" fill="#263238"/>
<path d="M124.669 58.1178C124.644 58.3989 124.511 58.6595 124.299 58.8457C124.087 59.0318 123.811 59.1292 123.529 59.1178C123.377 59.1247 123.225 59.0998 123.083 59.0448C122.941 58.9898 122.812 58.9059 122.704 58.7983C122.596 58.6907 122.511 58.5619 122.456 58.42C122.4 58.278 122.375 58.1261 122.381 57.9738C122.387 57.8215 122.425 57.6721 122.492 57.5352C122.559 57.3983 122.654 57.2769 122.77 57.1785C122.887 57.0802 123.022 57.0071 123.168 56.9639C123.315 56.9208 123.468 56.9085 123.619 56.9278C123.768 56.9312 123.915 56.9654 124.05 57.0282C124.186 57.0911 124.306 57.1812 124.405 57.293C124.504 57.4048 124.578 57.5358 124.623 57.6777C124.669 57.8197 124.685 57.9695 124.669 58.1178V58.1178Z" fill="#263238"/>
<path d="M133.049 66.9279C133.043 67.0711 133.009 67.2116 132.949 67.3416C132.889 67.4716 132.803 67.5885 132.698 67.6855C132.593 67.7825 132.469 67.8579 132.335 67.9072C132.2 67.9565 132.057 67.9788 131.914 67.9729C131.771 67.967 131.63 67.933 131.5 67.8727C131.37 67.8125 131.254 67.7272 131.157 67.6218C131.059 67.5165 130.984 67.393 130.935 67.2585C130.886 67.124 130.863 66.9811 130.869 66.8379C130.875 66.6948 130.909 66.5542 130.969 66.4242C131.03 66.2942 131.115 66.1774 131.22 66.0804C131.326 65.9833 131.449 65.908 131.584 65.8587C131.718 65.8094 131.861 65.787 132.004 65.7929C132.147 65.7988 132.288 65.8329 132.418 65.8931C132.548 65.9533 132.665 66.0386 132.762 66.144C132.859 66.2494 132.934 66.3729 132.983 66.5074C133.033 66.6419 133.055 66.7848 133.049 66.9279Z" fill="#263238"/>
<path d="M43.499 109.208C42.7685 108.481 41.9973 107.797 41.189 107.158C40.439 106.568 39.489 105.928 38.519 105.068C37.4536 104.139 36.5892 103.003 35.979 101.728C34.8692 99.3981 34.5904 96.7585 35.189 94.2481C35.368 93.4989 35.6437 92.7762 36.009 92.0981C36.289 91.6281 36.449 91.3781 36.479 91.3981C36.1038 92.3528 35.7931 93.3317 35.549 94.3281C35.0737 96.7528 35.3891 99.2661 36.449 101.498C37.649 104.158 39.979 105.618 41.449 106.868C42.2992 107.484 42.9998 108.284 43.499 109.208V109.208Z" fill="white"/>
<path d="M86.9691 28.738C87.0691 28.838 76.5591 39.218 63.4991 51.908C50.4391 64.598 39.7491 74.818 39.6491 74.718C39.5491 74.618 50.0491 64.208 63.1291 51.538C76.2091 38.868 86.8691 28.638 86.9691 28.738Z" fill="white"/>
<path d="M21.9691 61.0781C21.9691 61.1381 21.4491 61.0781 20.7791 60.6281C19.8879 60.0358 19.2635 59.1186 19.0393 58.0723C18.8151 57.026 19.0088 55.9335 19.5791 55.0281C20.0191 54.3381 20.4591 54.0781 20.4991 54.1281C20.5391 54.1781 20.2191 54.5381 19.9091 55.1981C19.4971 56.0559 19.3709 57.0232 19.5491 57.9581C19.7752 58.8942 20.3021 59.7303 21.0491 60.3381C21.5591 60.8181 22.0491 60.9981 21.9691 61.0781Z" fill="white"/>
<path d="M77.5091 8.89782C77.5091 8.95782 76.9391 8.89783 76.2291 8.38783C75.7704 8.05532 75.3845 7.63264 75.095 7.14569C74.8055 6.65874 74.6185 6.11779 74.5455 5.556C74.4724 4.99422 74.5149 4.42343 74.6703 3.87864C74.8257 3.33386 75.0907 2.82655 75.4491 2.38783C76.0091 1.71783 76.5291 1.50782 76.5591 1.55782C76.5891 1.60782 76.1891 1.93782 75.7491 2.55782C75.1606 3.40709 74.9075 4.44424 75.0386 5.46914C75.1697 6.49405 75.6758 7.43407 76.4591 8.10783C77.0491 8.62783 77.5391 8.81782 77.5091 8.89782Z" fill="white"/>
<path d="M115.369 16.9179C113.973 17.1024 112.597 17.4171 111.259 17.8579C109.987 18.456 108.772 19.169 107.629 19.9879C108.443 18.7556 109.647 17.8327 111.049 17.3679C112.399 16.7417 113.919 16.5833 115.369 16.9179Z" fill="white"/>
<path d="M73.8594 123.668C71.2466 121.346 68.7534 118.893 66.3894 116.318C62.3894 112.158 59.1994 108.708 59.3094 108.608C59.4194 108.508 62.7494 111.798 66.7694 115.958C70.7894 120.118 73.9594 123.568 73.8594 123.668Z" fill="white"/>
<path d="M189.279 363.828H146.489V424.478H189.279V363.828Z" fill="#26A5B8"/>
<path d="M146.819 423.438H188.959C190.471 423.438 191.921 424.039 192.99 425.107C194.059 426.176 194.659 427.626 194.659 429.138V429.678H141.109V429.138C141.109 428.389 141.257 427.647 141.544 426.954C141.831 426.262 142.252 425.633 142.782 425.104C143.313 424.575 143.942 424.155 144.635 423.869C145.328 423.583 146.07 423.437 146.819 423.438V423.438Z" fill="#263238"/>
<path d="M201.22 429.678H136.229V439.558H201.22V429.678Z" fill="#26A5B8"/>
<path d="M189.049 417.818C189.049 417.958 179.569 418.078 167.869 418.078C156.169 418.078 146.679 417.958 146.679 417.818C146.679 417.678 156.159 417.558 167.869 417.558C179.579 417.558 189.049 417.668 189.049 417.818Z" fill="#263238"/>
<path d="M189.049 410.598C189.049 410.748 179.569 410.858 167.869 410.858C156.169 410.858 146.679 410.748 146.679 410.598C146.679 410.448 156.159 410.338 167.869 410.338C179.579 410.338 189.049 410.458 189.049 410.598Z" fill="#263238"/>
<path d="M189.049 403.518C189.049 403.658 179.569 403.778 167.869 403.778C156.169 403.778 146.679 403.658 146.679 403.518C146.679 403.378 156.159 403.258 167.869 403.258C179.579 403.258 189.049 403.378 189.049 403.518Z" fill="#263238"/>
<path d="M189.049 396.308C189.049 396.448 179.569 396.568 167.869 396.568C156.169 396.568 146.679 396.448 146.679 396.308C146.679 396.168 156.159 396.048 167.869 396.048C179.579 396.048 189.049 396.208 189.049 396.308Z" fill="#263238"/>
<path d="M189.049 389.208C189.049 389.358 179.569 389.468 167.869 389.468C156.169 389.468 146.679 389.358 146.679 389.208C146.679 389.058 156.159 388.948 167.869 388.948C179.579 388.948 189.049 389.078 189.049 389.208Z" fill="#263238"/>
<path d="M189.049 382.008C189.049 382.158 179.569 382.268 167.869 382.268C156.169 382.268 146.679 382.158 146.679 382.008C146.679 381.858 156.159 381.748 167.869 381.748C179.579 381.748 189.049 381.868 189.049 382.008Z" fill="#263238"/>
<path d="M189.049 374.928C189.049 375.068 179.569 375.188 167.869 375.188C156.169 375.188 146.679 375.068 146.679 374.928C146.679 374.788 156.159 374.668 167.869 374.668C179.579 374.668 189.049 374.778 189.049 374.928Z" fill="#263238"/>
<path d="M189.049 367.718C189.049 367.858 179.569 367.978 167.869 367.978C156.169 367.978 146.679 367.858 146.679 367.718C146.679 367.578 156.159 367.458 167.869 367.458C179.579 367.458 189.049 367.568 189.049 367.718Z" fill="#263238"/>
<g opacity="0.3">
<path opacity="0.3" d="M146.489 372.278L189.069 371.098V364.918H146.109L146.489 372.278Z" fill="black"/>
</g>
<path d="M256.299 363.828H213.509V424.478H256.299V363.828Z" fill="#26A5B8"/>
<path d="M213.839 423.438H255.979C257.491 423.438 258.94 424.039 260.009 425.107C261.078 426.176 261.679 427.626 261.679 429.138V429.678H208.129V429.138C208.129 428.389 208.277 427.647 208.564 426.954C208.851 426.262 209.272 425.633 209.802 425.104C210.332 424.575 210.962 424.155 211.655 423.869C212.347 423.583 213.09 423.437 213.839 423.438V423.438Z" fill="#263238"/>
<path d="M268.239 429.678H203.249V439.558H268.239V429.678Z" fill="#26A5B8"/>
<path d="M256.049 417.818C256.049 417.958 246.569 418.078 234.869 418.078C223.169 418.078 213.679 417.958 213.679 417.818C213.679 417.678 223.159 417.558 234.869 417.558C246.579 417.558 256.049 417.668 256.049 417.818Z" fill="#263238"/>
<path d="M256.049 410.598C256.049 410.748 246.569 410.858 234.869 410.858C223.169 410.858 213.679 410.748 213.679 410.598C213.679 410.448 223.159 410.338 234.869 410.338C246.579 410.338 256.049 410.458 256.049 410.598Z" fill="#263238"/>
<path d="M256.049 403.518C256.049 403.658 246.569 403.778 234.869 403.778C223.169 403.778 213.679 403.658 213.679 403.518C213.679 403.378 223.159 403.258 234.869 403.258C246.579 403.258 256.049 403.378 256.049 403.518Z" fill="#263238"/>
<path d="M256.049 396.308C256.049 396.448 246.569 396.568 234.869 396.568C223.169 396.568 213.679 396.448 213.679 396.308C213.679 396.168 223.159 396.048 234.869 396.048C246.579 396.048 256.049 396.208 256.049 396.308Z" fill="#263238"/>
<path d="M256.049 389.208C256.049 389.358 246.569 389.468 234.869 389.468C223.169 389.468 213.679 389.358 213.679 389.208C213.679 389.058 223.159 388.948 234.869 388.948C246.579 388.948 256.049 389.078 256.049 389.208Z" fill="#263238"/>
<path d="M256.049 382.008C256.049 382.158 246.569 382.268 234.869 382.268C223.169 382.268 213.679 382.158 213.679 382.008C213.679 381.858 223.159 381.748 234.869 381.748C246.579 381.748 256.049 381.868 256.049 382.008Z" fill="#263238"/>
<path d="M256.049 374.928C256.049 375.068 246.569 375.188 234.869 375.188C223.169 375.188 213.679 375.068 213.679 374.928C213.679 374.788 223.159 374.668 234.869 374.668C246.579 374.668 256.049 374.778 256.049 374.928Z" fill="#263238"/>
<path d="M256.049 367.718C256.049 367.858 246.569 367.978 234.869 367.978C223.169 367.978 213.679 367.858 213.679 367.718C213.679 367.578 223.159 367.458 234.869 367.458C246.579 367.458 256.049 367.568 256.049 367.718Z" fill="#263238"/>
<g opacity="0.3">
<path opacity="0.3" d="M213.509 372.278L256.089 371.098V364.918H213.129L213.509 372.278Z" fill="black"/>
</g>
<path d="M258.39 198.322L259.447 194.134C259.566 193.663 259.867 193.259 260.284 193.011C260.701 192.762 261.199 192.689 261.67 192.808L278.812 197.136L276.853 204.892L259.721 200.567C259.25 200.448 258.846 200.147 258.598 199.73C258.349 199.313 258.276 198.815 258.395 198.344L258.39 198.322Z" fill="#26A5B8"/>
<g opacity="0.3">
<path opacity="0.3" d="M258.39 198.322L259.447 194.133C259.566 193.663 259.867 193.259 260.284 193.01C260.701 192.761 261.199 192.688 261.67 192.807L278.812 197.135L276.853 204.892L259.721 200.566C259.25 200.447 258.846 200.146 258.598 199.73C258.349 199.313 258.276 198.814 258.395 198.344L258.39 198.322Z" fill="black"/>
</g>
<path d="M254.658 213.15L256.112 207.39C256.307 206.619 256.8 205.957 257.483 205.549C258.167 205.141 258.984 205.021 259.755 205.216L275.724 209.248L272.786 220.883L256.856 216.861C256.465 216.768 256.096 216.596 255.772 216.358C255.448 216.119 255.175 215.818 254.97 215.471C254.765 215.125 254.632 214.741 254.578 214.342C254.524 213.943 254.552 213.538 254.658 213.15V213.15Z" fill="#26A5B8"/>
<path d="M271.357 195.249L266.366 215.019L273.831 216.904L278.823 197.134L271.357 195.249Z" fill="#26A5B8"/>
<path d="M283.729 275.628C283.729 275.628 315.679 274.328 313.039 243.708C311.039 220.258 276.129 220.048 276.129 220.048L285.049 200.558C285.049 200.558 325.809 204.108 333.859 233.788C342.949 267.328 321.929 294.678 283.729 294.038V275.628Z" fill="#26A5B8"/>
<path d="M287.665 197.805L275.518 195.121L269.545 222.149L281.692 224.833L287.665 197.805Z" fill="#263238"/>
<path d="M282.209 221.988C282.209 222.218 279.449 221.748 276.159 220.988C274.145 220.613 272.168 220.064 270.249 219.348C272.276 219.563 274.283 219.94 276.249 220.478C277.899 220.858 279.389 221.218 280.459 221.478L281.729 221.818C281.895 221.855 282.056 221.912 282.209 221.988V221.988Z" fill="#455A64"/>
<path d="M283.279 217.118C283.279 217.348 280.529 216.878 277.229 216.118C275.217 215.749 273.243 215.2 271.329 214.478C273.356 214.694 275.362 215.072 277.329 215.608C278.979 215.988 280.459 216.348 281.539 216.608L282.799 216.948C282.967 216.98 283.129 217.038 283.279 217.118V217.118Z" fill="#455A64"/>
<path d="M284.569 212.208C284.569 212.448 281.809 211.978 278.569 211.208C276.556 210.832 274.578 210.284 272.659 209.568C274.686 209.783 276.693 210.161 278.659 210.698C280.299 211.068 281.789 211.428 282.859 211.698L284.129 212.028L284.569 212.208Z" fill="#455A64"/>
<path d="M285.429 207.388C285.429 207.618 282.679 207.148 279.429 206.388C277.414 206.018 275.436 205.469 273.519 204.748C275.546 204.963 277.553 205.341 279.519 205.878C281.169 206.258 282.649 206.618 283.729 206.878L284.989 207.218C285.143 207.254 285.291 207.311 285.429 207.388V207.388Z" fill="#455A64"/>
<path d="M286.679 202.828C286.679 203.068 283.929 202.598 280.679 201.828C278.666 201.452 276.688 200.904 274.769 200.188C276.796 200.403 278.803 200.781 280.769 201.318C282.419 201.688 283.909 202.048 284.979 202.318L286.249 202.648C286.396 202.699 286.54 202.759 286.679 202.828Z" fill="#455A64"/>
<path d="M290.709 293.838C290.405 292.961 290.187 292.057 290.059 291.138C289.739 289.458 289.359 287.138 289.059 284.528C288.759 281.918 288.609 279.528 288.549 277.858C288.455 276.934 288.455 276.002 288.549 275.078C288.749 275.982 288.863 276.903 288.889 277.828C289.039 279.528 289.249 281.878 289.549 284.468C289.849 287.058 290.159 289.388 290.389 291.078C290.577 291.987 290.684 292.91 290.709 293.838V293.838Z" fill="#263238"/>
<path d="M300.639 292.288C299.499 289.162 298.528 285.978 297.729 282.748C296.756 279.563 295.952 276.328 295.319 273.058C296.454 276.189 297.425 279.376 298.229 282.608C299.196 285.792 300.001 289.022 300.639 292.288V292.288Z" fill="#263238"/>
<path d="M313.989 287.508C313.346 286.674 312.773 285.788 312.279 284.858C311.199 283.058 309.869 280.858 308.389 278.338L304.469 271.838C303.885 270.962 303.371 270.043 302.929 269.088C303.621 269.88 304.241 270.734 304.779 271.638C305.859 273.258 307.309 275.528 308.779 278.068C310.249 280.608 311.629 282.958 312.549 284.678C313.108 285.579 313.59 286.526 313.989 287.508V287.508Z" fill="#263238"/>
<path d="M325.219 278.508C325.119 278.618 321.149 275.508 316.339 271.508C311.529 267.508 307.699 264.188 307.789 264.078C307.879 263.968 311.859 267.078 316.669 271.078C321.479 275.078 325.309 278.388 325.219 278.508Z" fill="#263238"/>
<path d="M332.449 266.208C332.389 266.348 327.689 264.508 321.939 262.118C316.189 259.728 311.579 257.678 311.639 257.548C311.699 257.418 316.399 259.248 322.139 261.638C327.879 264.028 332.499 266.028 332.449 266.208Z" fill="#263238"/>
<path d="M335.989 252.838C334.859 252.81 333.733 252.703 332.619 252.518L324.539 251.518L316.449 250.518C315.324 250.439 314.207 250.268 313.109 250.008C314.237 249.963 315.368 250.01 316.489 250.148C318.569 250.308 321.439 250.588 324.599 250.978C327.759 251.368 330.599 251.778 332.679 252.128C333.8 252.271 334.908 252.508 335.989 252.838V252.838Z" fill="#263238"/>
<path d="M334.339 239.018C333.371 239.441 332.367 239.776 331.339 240.018C329.449 240.568 326.809 241.248 323.869 241.868C320.929 242.488 318.239 242.928 316.289 243.188C315.243 243.375 314.182 243.466 313.119 243.458C314.143 243.172 315.185 242.958 316.239 242.818C318.169 242.468 320.829 241.978 323.759 241.358C326.689 240.738 329.329 240.118 331.239 239.658C332.256 239.371 333.292 239.157 334.339 239.018V239.018Z" fill="#263238"/>
<path d="M330.319 225.758C330.379 225.888 326.099 228.178 320.749 230.878C315.399 233.578 311.009 235.658 310.939 235.528C310.869 235.398 315.159 233.108 320.509 230.408C325.859 227.708 330.249 225.638 330.319 225.758Z" fill="#263238"/>
<path d="M322.049 215.008C322.139 215.118 318.579 218.338 314.049 222.208C309.519 226.078 305.849 229.118 305.759 229.008C305.669 228.898 309.219 225.678 313.759 221.808C318.299 217.938 321.989 214.898 322.049 215.008Z" fill="#263238"/>
<path d="M308.179 207.028C308.299 207.098 306.049 211.028 303.179 215.858C301.503 218.808 299.674 221.669 297.699 224.428C297.579 224.358 299.829 220.428 302.699 215.588C304.379 212.643 306.208 209.786 308.179 207.028V207.028Z" fill="#263238"/>
<path d="M295.729 202.028C294.895 205.363 293.894 208.654 292.729 211.888C290.949 217.288 289.389 221.628 289.259 221.588C290.086 218.248 291.087 214.953 292.259 211.718C293.248 208.43 294.406 205.196 295.729 202.028V202.028Z" fill="#263238"/>
<g opacity="0.3">
<path opacity="0.3" d="M310.729 259.388C308.359 264.568 304.267 268.766 299.149 271.268C296.662 272.587 294.032 273.614 291.309 274.328C297.419 277.588 305.399 275.638 310.739 271.228C316.079 266.818 318.899 259.818 319.089 252.888C319.247 249.598 318.656 246.316 317.359 243.288C315.999 240.288 313.749 237.168 310.779 235.788C311.661 237.434 312.288 239.204 312.639 241.038C313.9 247.206 313.233 253.612 310.729 259.388V259.388Z" fill="black"/>
</g>
<path d="M75.8789 313.328C76.2438 313.668 76.5784 314.04 76.8789 314.438C77.4989 315.168 78.3389 316.258 79.3389 317.648C81.9023 321.284 84.1155 325.155 85.9489 329.208C87.7851 333.269 89.2218 337.499 90.2389 341.838C90.6289 343.498 90.8889 344.838 91.0289 345.838C91.1252 346.326 91.1821 346.821 91.1989 347.318C91.0281 346.852 90.9042 346.369 90.8289 345.878C90.6289 344.948 90.3089 343.608 89.8889 341.968C88.7591 337.686 87.2843 333.502 85.4789 329.458C83.6556 325.423 81.5051 321.543 79.0489 317.858C78.0989 316.448 77.3089 315.328 76.7389 314.558C76.4122 314.178 76.1241 313.766 75.8789 313.328Z" fill="#263238"/>
<path d="M71.6288 309.788C71.7288 309.678 72.1988 309.938 72.6888 310.378C73.1788 310.818 73.4888 311.248 73.3988 311.378C73.3088 311.508 72.8288 311.228 72.3388 310.788C71.8488 310.348 71.5388 309.888 71.6288 309.788Z" fill="#263238"/>
<path d="M72.6092 306.848C72.7292 306.778 73.2192 307.368 73.7092 308.188C74.1992 309.008 74.4892 309.718 74.3692 309.788C74.2492 309.858 73.7492 309.268 73.2592 308.448C72.7692 307.628 72.4792 306.918 72.6092 306.848Z" fill="#263238"/>
<path d="M91.1094 347.928C91.1386 347.658 91.1887 347.39 91.2594 347.128C91.3994 346.561 91.5794 345.801 91.7994 344.848C92.2694 342.848 92.9394 340.008 93.7094 336.458C95.2494 329.358 97.1194 319.458 98.4894 308.458C99.2294 302.978 99.4894 297.658 100.769 292.968C101.352 290.746 102.255 288.62 103.449 286.658C106.122 282.48 110.333 279.524 115.169 278.428C115.932 278.251 116.708 278.134 117.489 278.078C117.762 278.053 118.037 278.053 118.309 278.078C118.042 278.136 117.772 278.176 117.499 278.198C116.729 278.303 115.964 278.45 115.209 278.638C112.443 279.356 109.869 280.673 107.669 282.498C106.162 283.752 104.862 285.237 103.819 286.898C102.659 288.834 101.786 290.93 101.229 293.118C99.9894 297.738 99.7394 303.048 99.0094 308.548C97.6294 319.548 95.6994 329.438 94.0694 336.548C93.2494 340.098 92.5194 342.948 91.9994 344.908C91.7327 345.848 91.5227 346.598 91.3694 347.158C91.3043 347.421 91.2173 347.679 91.1094 347.928Z" fill="#455A64"/>
<path d="M92.2988 268.628C92.9689 269.982 93.8275 271.235 94.8488 272.348C97.4577 274.912 100.832 276.555 104.459 277.028C108.101 277.426 111.783 277.271 115.379 276.568L118.669 275.988C119.07 275.897 119.478 275.844 119.889 275.828C119.511 275.994 119.115 276.115 118.709 276.188C117.939 276.378 116.829 276.648 115.439 276.928C111.832 277.748 108.114 277.954 104.439 277.538C100.7 277.061 97.2377 275.318 94.6288 272.598C93.8584 271.766 93.2239 270.818 92.7488 269.788C92.5392 269.427 92.3874 269.036 92.2988 268.628Z" fill="#263238"/>
<path d="M88.4988 265.468C88.5988 265.368 89.0788 265.678 89.5588 266.168C90.0388 266.658 90.3588 267.168 90.2588 267.228C90.1588 267.288 89.6788 267.018 89.1988 266.538C88.7188 266.058 88.3988 265.568 88.4988 265.468Z" fill="#263238"/>
<path d="M89.6287 263.728C89.7587 263.648 90.2087 264.158 90.6287 264.858C91.0487 265.558 91.3187 266.198 91.1887 266.268C91.0587 266.338 90.6187 265.838 90.1887 265.138C89.7587 264.438 89.5087 263.798 89.6287 263.728Z" fill="#263238"/>
<path d="M92.7592 263.498C92.9092 263.498 92.9292 264.108 92.8192 264.818C92.7092 265.528 92.4992 266.068 92.3592 266.048C92.2192 266.028 92.1892 265.438 92.2992 264.728C92.4092 264.018 92.6192 263.478 92.7592 263.498Z" fill="#263238"/>
<path d="M102.179 302.548C102.204 303.142 102.177 303.738 102.099 304.328C102.009 305.478 101.839 307.128 101.599 309.158C101.129 313.238 100.299 318.838 99.0494 324.968C97.7994 331.098 96.3594 336.588 95.2094 340.528C94.6294 342.528 94.1294 344.078 93.7694 345.158C93.6022 345.728 93.3951 346.286 93.1494 346.828C93.2505 346.242 93.3908 345.664 93.5694 345.098C93.8994 343.918 94.3294 342.338 94.8494 340.428C95.9094 336.428 97.2894 330.988 98.5394 324.868C99.7894 318.748 100.669 313.168 101.239 309.118C101.509 307.118 101.729 305.528 101.889 304.308C101.951 303.716 102.047 303.128 102.179 302.548V302.548Z" fill="#455A64"/>
<path d="M119.909 279.398C119.909 279.498 118.479 279.508 116.269 280.088C113.385 280.834 110.731 282.281 108.543 284.302C106.355 286.322 104.701 288.853 103.729 291.668C102.969 293.818 102.849 295.258 102.729 295.238C102.669 294.907 102.669 294.568 102.729 294.238C102.84 293.329 103.034 292.432 103.309 291.558C104.212 288.635 105.872 286.003 108.12 283.927C110.367 281.851 113.123 280.406 116.109 279.738C117.003 279.534 117.913 279.41 118.829 279.368C119.188 279.322 119.553 279.332 119.909 279.398Z" fill="#455A64"/>
<path d="M95.8494 347.718C95.8315 347.468 95.8315 347.218 95.8494 346.968C95.8494 346.478 95.9694 345.748 96.0994 344.818C96.376 342.162 97.1819 339.588 98.4694 337.248C99.3094 335.778 100.469 334.338 101.409 332.638C101.883 331.768 102.22 330.831 102.409 329.858C102.582 328.814 102.609 327.75 102.489 326.698C102.329 324.528 101.699 322.188 102.189 319.698C102.465 318.464 103.012 317.306 103.789 316.308C104.519 315.308 105.369 314.308 106.039 313.308C106.732 312.303 107.121 311.119 107.159 309.898C107.145 308.693 106.984 307.494 106.679 306.328C106.096 304.044 105.9 301.677 106.099 299.328C106.386 296.009 107.501 292.815 109.342 290.039C111.184 287.262 113.693 284.993 116.639 283.438C117.287 283.103 117.955 282.81 118.639 282.558C118.872 282.46 119.113 282.383 119.359 282.328C119.144 282.457 118.916 282.564 118.679 282.648C118.229 282.858 117.569 283.158 116.759 283.648C114.468 284.943 112.448 286.668 110.809 288.728C108.379 291.789 106.914 295.503 106.599 299.398C106.422 301.689 106.625 303.993 107.199 306.218C107.516 307.423 107.684 308.662 107.699 309.908C107.657 311.225 107.237 312.503 106.489 313.588C105.789 314.698 104.939 315.638 104.229 316.638C103.486 317.572 102.966 318.663 102.709 319.828C102.239 322.138 102.829 324.448 102.989 326.668C103.104 327.765 103.067 328.872 102.879 329.958C102.659 330.976 102.285 331.954 101.769 332.858C100.769 334.598 99.6094 336.018 98.7694 337.448C97.4804 339.742 96.6388 342.26 96.2894 344.868C96.1394 345.748 96.0294 346.458 95.9394 346.988C95.9333 347.234 95.9032 347.478 95.8494 347.718V347.718Z" fill="#455A64"/>
<path d="M121.049 289.758C120.217 289.766 119.39 289.883 118.589 290.108C116.438 290.841 114.61 292.302 113.419 294.238C111.819 296.628 111.109 300.058 110.729 303.838C110.346 307.989 109.748 312.118 108.939 316.208C107.351 323.588 105.348 330.873 102.939 338.028C102.039 340.778 101.289 343.028 100.749 344.518C100.499 345.238 100.289 345.818 100.129 346.268C100.069 346.478 99.9818 346.68 99.8691 346.868C99.9113 346.643 99.9715 346.423 100.049 346.208C100.179 345.748 100.359 345.158 100.579 344.428L102.579 337.888C104.269 332.358 106.579 324.708 108.379 316.068C109.259 311.758 109.839 307.608 110.239 303.798C110.639 299.988 111.409 296.498 113.109 294.058C114.361 292.077 116.286 290.615 118.529 289.938C119.134 289.768 119.761 289.691 120.389 289.708C120.61 289.707 120.831 289.724 121.049 289.758V289.758Z" fill="#E0E0E0"/>
<path d="M84.3386 344.138H103.709C103.709 344.138 91.9586 437.428 27.0986 437.138L27.9286 418.948C27.9286 418.948 72.0486 416.208 84.3386 344.138Z" fill="#26A5B8"/>
<path d="M1.11641 419.51L1.1922 415.21C1.20076 414.725 1.40172 414.263 1.75091 413.926C2.1001 413.589 2.56889 413.404 3.05416 413.413L20.6814 413.724L20.5404 421.722L2.91315 421.412C2.66946 421.407 2.4291 421.355 2.20612 421.256C1.98315 421.158 1.78206 421.016 1.6147 420.839C1.44733 420.661 1.31705 420.453 1.23148 420.224C1.14591 419.996 1.10679 419.753 1.11641 419.51V419.51Z" fill="#26A5B8"/>
<g opacity="0.3">
<path opacity="0.3" d="M1.11641 419.509L1.1922 415.21C1.20076 414.725 1.40172 414.263 1.75091 413.926C2.1001 413.588 2.56889 413.404 3.05416 413.412L20.6814 413.723L20.5404 421.722L2.91315 421.411C2.66946 421.407 2.4291 421.354 2.20612 421.256C1.98315 421.157 1.78206 421.015 1.6147 420.838C1.44733 420.661 1.31705 420.452 1.23148 420.224C1.14591 419.996 1.10679 419.753 1.11641 419.509V419.509Z" fill="black"/>
</g>
<path d="M1.06182 435.878L1.18062 429.938C1.19654 429.142 1.52788 428.385 2.10174 427.834C2.6756 427.283 3.44498 426.982 4.24062 426.998L20.7106 427.327L20.4706 439.327L4.06062 438.999C3.65637 438.999 3.25627 438.918 2.88435 438.759C2.51242 438.601 2.17634 438.369 1.89627 438.077C1.61619 437.786 1.39788 437.441 1.25449 437.063C1.1111 436.685 1.04558 436.282 1.06182 435.878V435.878Z" fill="#26A5B8"/>
<path d="M13.0342 413.568L12.6748 433.955L20.3736 434.09L20.733 413.703L13.0342 413.568Z" fill="#26A5B8"/>
<path d="M29.4957 412.335L17.0566 412.487L17.3948 440.165L29.8339 440.013L29.4957 412.335Z" fill="#263238"/>
<path d="M29.6892 437.108C29.6892 437.338 26.9492 437.508 23.5792 437.528C21.5322 437.624 19.4807 437.537 17.4492 437.268C19.4789 437.016 21.5253 436.926 23.5692 436.998C25.2592 436.998 26.7892 436.998 27.8992 436.998H29.2092C29.3725 437.018 29.5333 437.055 29.6892 437.108V437.108Z" fill="#455A64"/>
<path d="M29.6287 432.128C29.6287 432.358 26.8887 432.518 23.5187 432.538C21.472 432.634 19.4207 432.551 17.3887 432.288C19.4183 432.036 21.4647 431.946 23.5087 432.018C25.1987 432.018 26.7287 432.018 27.8387 432.018H29.1487C29.3131 432.032 29.4747 432.069 29.6287 432.128V432.128Z" fill="#455A64"/>
<path d="M29.7691 427.098C29.7691 427.328 27.0391 427.488 23.6591 427.508C21.6157 427.604 19.5678 427.52 17.5391 427.258C19.5687 427.006 21.6151 426.916 23.6591 426.988C25.3491 426.988 26.8791 426.988 27.9791 426.988H29.2891C29.453 427.005 29.6142 427.042 29.7691 427.098V427.098Z" fill="#455A64"/>
<path d="M29.5086 422.208C29.5086 422.438 26.7685 422.608 23.3885 422.628C21.3449 422.724 19.2967 422.637 17.2686 422.368C19.2982 422.116 21.3446 422.026 23.3885 422.098C25.0785 422.098 26.6086 422.098 27.7186 422.098H29.0286C29.1917 422.119 29.3524 422.156 29.5086 422.208V422.208Z" fill="#455A64"/>
<path d="M29.6892 417.438C29.6892 417.668 26.9492 417.838 23.5792 417.858C21.5325 417.948 19.4818 417.865 17.4492 417.608C19.4778 417.344 21.5252 417.254 23.5692 417.338C25.2592 417.338 26.7892 417.338 27.8992 417.338H29.2092C29.3722 417.355 29.533 417.389 29.6892 417.438V417.438Z" fill="#455A64"/>
<path d="M36.489 436.208C36.489 436.208 36.489 436.368 36.549 436.708V437.288L36.379 436.728C35.571 433.713 34.9333 430.655 34.469 427.568C34.039 424.878 33.749 422.438 33.579 420.658C33.4405 419.701 33.397 418.733 33.449 417.768C33.6883 418.704 33.8555 419.657 33.949 420.618C34.199 422.378 34.549 424.808 34.949 427.488C35.639 431.828 36.349 435.488 36.499 436.688H36.339C36.429 436.348 36.459 436.208 36.489 436.208Z" fill="#263238"/>
<path d="M45.6893 434.418C44.4483 431.338 43.3734 428.193 42.4693 424.998C41.3888 421.859 40.4775 418.664 39.7393 415.428C40.9803 418.508 42.0551 421.652 42.9593 424.848C44.0397 427.987 44.951 431.181 45.6893 434.418V434.418Z" fill="#263238"/>
<path d="M56.5589 429.828C54.81 426.892 53.2145 423.868 51.7789 420.768C49.2789 415.688 47.3489 411.528 47.4789 411.468C49.2231 414.407 50.8152 417.435 52.2489 420.538C54.7589 425.608 56.6789 429.768 56.5589 429.828Z" fill="#263238"/>
<path d="M66.1893 422.628C63.9866 420.106 61.9236 417.465 60.0093 414.718C57.9472 412.074 56.0214 409.327 54.2393 406.488C56.439 409.018 58.5051 411.662 60.4293 414.408C63.7193 418.868 66.2993 422.548 66.1893 422.628Z" fill="#263238"/>
<path d="M74.5991 414.648C72.0796 412.494 69.6762 410.207 67.3991 407.798C65.003 405.511 62.7266 403.101 60.5791 400.578C63.0941 402.734 65.4941 405.02 67.7691 407.428C70.1667 409.717 72.4464 412.127 74.5991 414.648V414.648Z" fill="#263238"/>
<path d="M81.5293 405.068C80.6511 404.704 79.8105 404.255 79.0193 403.728L73.0993 400.268L67.1893 396.818C66.3407 396.383 65.5339 395.871 64.7793 395.288C65.6756 395.609 66.5395 396.014 67.3593 396.498C68.9193 397.308 71.0493 398.498 73.3593 399.818C75.6693 401.138 77.7293 402.458 79.1993 403.418C80.0244 403.896 80.8043 404.449 81.5293 405.068Z" fill="#263238"/>
<path d="M86.2186 395.368C85.3753 395.084 84.5616 394.719 83.7886 394.278C82.3186 393.558 80.2786 392.568 78.0186 391.518C75.7586 390.468 73.6786 389.568 72.1786 388.908C71.3439 388.598 70.5376 388.217 69.7686 387.768C70.6424 387.939 71.4944 388.207 72.3085 388.568C73.8485 389.138 75.9586 389.998 78.2386 391.048C80.5186 392.098 82.5286 393.148 83.9586 393.948C84.7577 394.344 85.5149 394.82 86.2186 395.368V395.368Z" fill="#263238"/>
<path d="M91.8195 385.988C90.883 385.928 89.9549 385.774 89.0495 385.528C87.3495 385.158 85.0494 384.588 82.4794 383.848C79.9094 383.108 77.6594 382.338 76.0294 381.738C75.1321 381.461 74.2645 381.096 73.4395 380.648C74.3625 380.816 75.2692 381.063 76.1495 381.388C77.7995 381.898 80.0895 382.608 82.6195 383.388C85.1495 384.168 87.4595 384.748 89.1295 385.208C90.0471 385.389 90.9472 385.65 91.8195 385.988V385.988Z" fill="#263238"/>
<path d="M94.8089 376.528C91.711 376.391 88.623 376.084 85.5589 375.608C82.475 375.3 79.4103 374.822 76.3789 374.178C79.4768 374.314 82.5649 374.621 85.6289 375.098C88.7143 375.394 91.7796 375.871 94.8089 376.528Z" fill="#263238"/>
<path d="M97.9888 367.278C97.0918 367.347 96.19 367.32 95.2988 367.198C93.6388 367.078 91.3488 366.878 88.8288 366.628C86.3088 366.378 84.0188 366.118 82.3788 365.898C81.4795 365.835 80.5886 365.684 79.7188 365.448C80.6196 365.392 81.5236 365.423 82.4187 365.538C84.0787 365.658 86.3588 365.858 88.8788 366.108C91.3988 366.358 93.6788 366.618 95.3288 366.828C96.2272 366.897 97.1176 367.047 97.9888 367.278Z" fill="#263238"/>
<path d="M100.439 358.318C97.2381 358.673 94.0203 358.86 90.7994 358.878C87.5853 359.058 84.3636 359.058 81.1494 358.878C84.3507 358.523 87.5685 358.336 90.7894 358.318C94.0037 358.144 97.2251 358.144 100.439 358.318Z" fill="#263238"/>
<path d="M101.449 350.998C100.585 351.224 99.7009 351.361 98.8093 351.408C97.1693 351.578 94.8993 351.718 92.3893 351.728C89.8793 351.738 87.5993 351.618 85.9593 351.468C85.0685 351.434 84.1837 351.306 83.3193 351.088C84.2043 351.009 85.0944 351.009 85.9793 351.088C87.6193 351.148 89.8793 351.218 92.3793 351.198C94.8793 351.178 97.1493 351.098 98.7793 351.028C99.6667 350.939 100.56 350.929 101.449 350.998Z" fill="#263238"/>
<path d="M85.1787 346.908C85.1933 346.991 85.1933 347.076 85.1787 347.158V347.898C85.1787 348.548 85.1787 349.508 85.1087 350.738C84.9444 354.226 84.5333 357.698 83.8787 361.128C82.925 366.223 81.4679 371.211 79.5287 376.018C74.8243 387.867 67.2674 398.371 57.5287 406.598C53.576 409.954 49.302 412.911 44.7687 415.428C41.7224 417.136 38.5576 418.623 35.2987 419.878C34.1587 420.338 33.2387 420.618 32.6287 420.878L31.9287 421.108C31.8492 421.142 31.7647 421.162 31.6787 421.168C31.748 421.118 31.826 421.08 31.9087 421.058L32.5887 420.778C33.1887 420.528 34.0987 420.218 35.2287 419.778C38.4425 418.451 41.5688 416.921 44.5887 415.198C54.5918 409.533 63.2545 401.776 69.9852 392.457C76.7158 383.137 81.356 372.475 83.5887 361.198C84.2718 357.788 84.7361 354.338 84.9787 350.868C85.0887 349.648 85.0887 348.688 85.1387 348.038C85.1387 347.738 85.1387 347.498 85.1387 347.298C85.1222 347.167 85.1359 347.033 85.1787 346.908V346.908Z" fill="white"/>
<path d="M174.969 238.208C174.969 238.208 164.249 223.698 139.439 225.848C139.439 225.848 164.689 206.448 149.829 186.518C149.829 186.518 181.719 195.938 182.079 156.078C182.079 156.078 187.879 193.078 217.959 182.538C217.959 182.538 220.099 211.898 240.909 206.468C230.839 216.368 221.049 225.098 223.049 237.758" fill="#26A5B8"/>
<g opacity="0.8">
<path opacity="0.8" d="M174.969 238.208C174.969 238.208 164.249 223.698 139.439 225.848C139.439 225.848 164.689 206.448 149.829 186.518C149.829 186.518 181.719 195.938 182.079 156.078C182.079 156.078 187.879 193.078 217.959 182.538C217.959 182.538 220.099 211.898 240.909 206.468C230.839 216.368 221.049 225.098 223.049 237.758" fill="white"/>
</g>
<path d="M174.969 238.208C174.969 238.208 174.719 221.288 154.789 223.018C154.789 223.018 173.319 212.328 161.389 196.318C161.389 196.318 187.009 203.888 187.299 171.868C187.299 171.868 191.949 201.558 216.119 193.118C216.119 193.118 213.229 214.658 229.959 210.288C221.869 218.288 218.589 227.288 220.189 237.488" fill="#26A5B8"/>
<g opacity="0.6">
<path opacity="0.6" d="M174.969 238.208C174.969 238.208 174.719 221.288 154.789 223.018C154.789 223.018 173.319 212.328 161.389 196.318C161.389 196.318 187.009 203.888 187.299 171.868C187.299 171.868 191.949 201.558 216.119 193.118C216.119 193.118 213.229 214.658 229.959 210.288C221.869 218.288 218.589 227.288 220.189 237.488" fill="white"/>
</g>
<path d="M207.699 125.968C207.633 126.183 207.552 126.393 207.459 126.598L206.669 128.358C206.319 129.118 205.899 130.048 205.449 131.158C204.999 132.268 204.449 133.488 203.939 134.898C203.429 136.308 202.809 137.828 202.259 139.498C201.709 141.168 201.139 142.958 200.559 144.848C199.469 148.648 198.429 152.848 197.609 157.368C196.789 161.888 196.309 166.188 196.009 170.128C195.889 172.128 195.759 173.978 195.739 175.738C195.719 177.498 195.689 179.138 195.739 180.628C195.789 182.118 195.819 183.478 195.859 184.628C195.899 185.778 195.959 186.838 196.029 187.628C196.099 188.418 196.119 189.058 196.149 189.548C196.174 189.774 196.174 190.002 196.149 190.228C196.098 190.007 196.061 189.783 196.039 189.558C195.992 189.064 195.922 188.424 195.829 187.638C195.729 186.808 195.629 185.788 195.569 184.638C195.509 183.488 195.389 182.088 195.379 180.638C195.369 179.188 195.299 177.498 195.379 175.728C195.459 173.958 195.499 172.078 195.599 170.098C196.149 161.488 197.683 152.969 200.169 144.708C200.759 142.818 201.309 141.008 201.919 139.358C202.529 137.708 203.099 136.158 203.659 134.768C204.219 133.378 204.779 132.128 205.259 131.038C205.739 129.948 206.179 129.038 206.559 128.268L207.429 126.548C207.498 126.345 207.588 126.151 207.699 125.968V125.968Z" fill="#26A5B8"/>
<path d="M136.119 119.098C134.296 117.379 132.283 115.872 130.119 114.608C127.868 113.505 125.499 112.659 123.059 112.088C123.809 112.038 124.563 112.112 125.289 112.308C127.063 112.67 128.774 113.29 130.369 114.148C131.961 115.005 133.423 116.086 134.709 117.358C135.275 117.853 135.752 118.442 136.119 119.098Z" fill="#26A5B8"/>
<path d="M143.799 162.628C143.955 162.743 144.096 162.878 144.219 163.028L145.329 164.218C146.329 165.218 147.639 166.808 149.239 168.778C150.839 170.748 152.669 173.148 154.599 175.888C156.529 178.628 158.519 181.748 160.459 185.088C162.399 188.428 164.079 191.728 165.519 194.758C166.959 197.788 168.119 200.578 169.019 202.948C169.919 205.318 170.609 207.258 171.019 208.608C171.205 209.235 171.365 209.755 171.499 210.168C171.566 210.348 171.61 210.536 171.629 210.728C171.53 210.562 171.453 210.384 171.399 210.198L170.819 208.678C170.349 207.348 169.619 205.428 168.669 203.088C167.719 200.748 166.509 197.988 165.079 194.968C163.649 191.948 161.929 188.698 159.999 185.348C158.069 181.998 156.079 178.928 154.199 176.168C152.319 173.408 150.509 170.988 148.939 169.008C147.369 167.028 146.089 165.428 145.169 164.348L144.169 163.098C144.027 162.957 143.902 162.799 143.799 162.628V162.628Z" fill="#26A5B8"/>
<path d="M212.559 167.738C212.512 167.901 212.441 168.056 212.349 168.198L211.679 169.448C211.369 169.988 211.009 170.648 210.619 171.448C210.229 172.248 209.749 173.108 209.299 174.118C208.299 176.118 207.299 178.538 206.299 181.278C204.168 187.243 202.771 193.445 202.139 199.748C201.869 202.648 201.749 205.278 201.759 207.488C201.759 208.588 201.759 209.588 201.809 210.488C201.859 211.388 201.869 212.118 201.909 212.738C201.949 213.358 201.959 213.738 201.979 214.158C202.009 214.323 202.009 214.493 201.979 214.658C201.93 214.498 201.9 214.334 201.889 214.168C201.839 213.788 201.789 213.318 201.719 212.748C201.649 212.178 201.569 211.378 201.529 210.498C201.489 209.618 201.399 208.618 201.399 207.498C201.349 204.898 201.443 202.297 201.679 199.708C202.252 193.358 203.657 187.111 205.859 181.128C206.755 178.686 207.787 176.296 208.949 173.968C209.419 172.968 209.949 172.098 210.349 171.318C210.749 170.538 211.149 169.888 211.479 169.318C211.809 168.748 212.039 168.438 212.239 168.108C212.33 167.972 212.437 167.848 212.559 167.738Z" fill="#26A5B8"/>
<path d="M232.199 171.618C232.249 171.678 231.369 172.328 230.039 173.488C226.556 176.492 223.666 180.121 221.519 184.188C221.115 185.055 220.664 185.9 220.169 186.718C220.387 185.78 220.723 184.872 221.169 184.018C222.17 181.919 223.404 179.94 224.849 178.118C226.297 176.296 227.951 174.649 229.779 173.208C230.513 172.574 231.326 172.04 232.199 171.618V171.618Z" fill="#26A5B8"/>
<path d="M148.699 197.118C149.571 197.528 150.391 198.042 151.139 198.648C153.012 200.031 154.741 201.599 156.299 203.328C157.862 205.052 159.242 206.932 160.419 208.938C160.948 209.746 161.375 210.616 161.689 211.528C161.121 210.756 160.594 209.955 160.109 209.128C158.851 207.204 157.447 205.378 155.909 203.668C154.364 201.968 152.693 200.387 150.909 198.938C150.135 198.379 149.397 197.771 148.699 197.118V197.118Z" fill="#26A5B8"/>
<path d="M143.629 187.818C143.549 187.958 141.509 186.818 138.749 186.118C135.989 185.418 133.659 185.408 133.659 185.248C137.195 184.849 140.754 185.763 143.659 187.818H143.629Z" fill="#26A5B8"/>
<path fill-rule="evenodd" clip-rule="evenodd" d="M123.049 156.518C123.196 155.938 123.417 155.38 123.709 154.858L122.799 153.478L124.699 151.478L126.109 152.328C126.624 152.025 127.175 151.786 127.749 151.618L128.089 150.008L130.819 149.958L131.209 151.568C131.788 151.713 132.346 151.931 132.869 152.218L134.249 151.318L136.249 153.218L135.389 154.628C135.702 155.138 135.941 155.69 136.099 156.268L137.719 156.598V159.338L136.119 159.728C135.972 160.305 135.75 160.859 135.459 161.378L136.369 162.768L134.469 164.768L133.049 163.908C132.542 164.221 131.993 164.46 131.419 164.618L131.049 166.208H128.319L127.929 164.608C127.349 164.461 126.791 164.24 126.269 163.948L124.889 164.848L122.889 162.948L123.749 161.538C123.436 161.031 123.197 160.482 123.039 159.908L121.419 159.568V156.838L123.019 156.448L123.049 156.518ZM126.649 158.068C126.663 158.646 126.848 159.208 127.18 159.681C127.513 160.155 127.978 160.519 128.517 160.729C129.057 160.938 129.646 160.983 130.211 160.858C130.776 160.734 131.291 160.444 131.692 160.027C132.092 159.609 132.361 159.083 132.462 158.513C132.564 157.944 132.495 157.357 132.264 156.826C132.032 156.296 131.649 155.846 131.163 155.533C130.676 155.22 130.107 155.058 129.529 155.068C129.143 155.076 128.763 155.16 128.41 155.315C128.057 155.47 127.738 155.693 127.471 155.972C127.204 156.251 126.995 156.579 126.856 156.939C126.717 157.299 126.65 157.682 126.659 158.068H126.649Z" fill="#26A5B8"/>
<path fill-rule="evenodd" clip-rule="evenodd" d="M237.619 230.408C237.726 229.983 237.888 229.573 238.099 229.188L237.429 228.188L238.839 226.738L239.839 227.368C240.215 227.144 240.618 226.97 241.039 226.848L241.289 225.658H243.289L243.579 226.848C244.006 226.951 244.416 227.113 244.799 227.328L245.799 226.658L247.249 228.068L246.619 229.068C246.844 229.444 247.019 229.847 247.139 230.268L248.329 230.518V232.518L247.139 232.808C247.031 233.234 246.87 233.644 246.659 234.028L247.319 235.028L245.919 236.478L244.919 235.848C244.54 236.074 244.133 236.249 243.709 236.368L243.469 237.558H241.469L241.179 236.378C240.753 236.271 240.343 236.109 239.959 235.898L238.959 236.558L237.549 235.208L238.179 234.208C237.953 233.83 237.778 233.423 237.659 232.998L236.469 232.748V230.748L237.659 230.458L237.619 230.408ZM240.279 231.548C240.283 231.832 240.344 232.112 240.457 232.372C240.569 232.632 240.732 232.868 240.936 233.065C241.14 233.263 241.381 233.418 241.644 233.522C241.908 233.626 242.19 233.678 242.474 233.673C242.757 233.669 243.037 233.608 243.298 233.495C243.558 233.383 243.794 233.22 243.991 233.016C244.188 232.812 244.343 232.571 244.448 232.307C244.552 232.044 244.603 231.762 244.599 231.478C244.589 230.905 244.353 230.36 243.941 229.961C243.53 229.563 242.977 229.344 242.404 229.353C241.831 229.362 241.285 229.599 240.887 230.011C240.488 230.422 240.269 230.975 240.279 231.548Z" fill="#455A64"/>
<path d="M217.547 143.939L213.071 153.36L217.335 155.385L221.81 145.964L217.547 143.939Z" fill="#E0E0E0"/>
<path d="M213.049 153.368C213.469 153.506 213.879 153.669 214.279 153.858C215.039 154.178 216.109 154.638 217.389 155.218L217.139 155.308C218.259 152.858 219.809 149.518 221.549 145.858C221.439 145.548 221.699 146.288 221.669 146.208H221.609H221.539L221.399 146.148L221.119 146.008L220.559 145.748L219.479 145.228L217.419 144.228L217.749 144.118C216.459 146.798 215.299 149.118 214.469 150.758C214.069 151.518 213.739 152.168 213.469 152.708C213.354 152.96 213.217 153.201 213.059 153.428C213.119 153.192 213.206 152.964 213.319 152.748C213.549 152.208 213.839 151.558 214.169 150.798C214.919 149.108 215.999 146.698 217.309 143.908L217.419 143.678L217.639 143.788L219.709 144.788L220.799 145.298L221.349 145.558L221.629 145.698L221.769 145.758H221.839H221.909C221.909 145.678 222.139 146.418 222.029 146.108C220.289 149.768 218.689 153.108 217.489 155.498L217.409 155.668L217.239 155.578C215.899 154.918 214.829 154.368 214.119 153.988C213.746 153.81 213.388 153.603 213.049 153.368V153.368Z" fill="#263238"/>
<path d="M221.399 140.958C220.884 140.712 220.325 140.571 219.755 140.541C219.185 140.512 218.615 140.595 218.077 140.787C217.539 140.978 217.044 141.274 216.621 141.657C216.197 142.039 215.854 142.502 215.609 143.018L223.469 146.758C223.715 146.241 223.856 145.681 223.885 145.11C223.914 144.539 223.83 143.967 223.637 143.429C223.445 142.89 223.148 142.394 222.764 141.97C222.38 141.547 221.917 141.202 221.399 140.958V140.958Z" fill="#E0E0E0"/>
<path d="M221.399 140.958C221.574 140.981 221.741 141.043 221.889 141.138C222.311 141.372 222.69 141.676 223.009 142.038C223.514 142.604 223.859 143.294 224.009 144.038C224.216 144.991 224.103 145.985 223.689 146.868L223.599 147.088L223.369 146.988L219.439 145.138L215.499 143.208L215.279 143.108L215.389 142.888C215.826 142.025 216.527 141.325 217.389 140.888C218.06 140.545 218.807 140.38 219.559 140.408C220.041 140.42 220.515 140.521 220.959 140.708C221.269 140.848 221.419 140.948 221.399 140.968C220.798 140.81 220.181 140.72 219.559 140.698C218.857 140.712 218.17 140.901 217.559 141.248C216.787 141.675 216.171 142.337 215.799 143.138L215.689 142.818L219.629 144.668L223.549 146.548L223.229 146.668C223.616 145.874 223.742 144.978 223.589 144.108C223.467 143.424 223.182 142.779 222.759 142.228C222.357 141.753 221.9 141.327 221.399 140.958V140.958Z" fill="#263238"/>
<path d="M221.499 143.448C221.635 142.948 221.626 142.419 221.474 141.923C221.322 141.428 221.032 140.985 220.639 140.648" fill="#E0E0E0"/>
<path d="M220.639 140.648C220.709 140.518 221.439 140.918 221.719 141.848C221.999 142.778 221.629 143.508 221.499 143.448C221.369 143.388 221.499 142.738 221.229 141.998C220.959 141.258 220.549 140.768 220.639 140.648Z" fill="#263238"/>
<path d="M216.699 145.278C217.499 145.485 218.266 145.801 218.979 146.218C219.769 146.478 220.519 146.845 221.209 147.308C220.355 147.328 219.511 147.113 218.769 146.688C217.489 146.118 216.619 145.388 216.699 145.278Z" fill="#263238"/>
<path d="M216.169 146.378C216.972 146.611 217.742 146.947 218.459 147.378C219.244 147.636 219.991 148 220.679 148.458C219.824 148.49 218.978 148.278 218.239 147.848C216.969 147.208 216.049 146.498 216.169 146.378Z" fill="#263238"/>
<path d="M215.649 147.488C216.448 147.695 217.215 148.011 217.929 148.428C218.717 148.691 219.467 149.058 220.159 149.518C219.305 149.539 218.462 149.328 217.719 148.908C216.439 148.328 215.569 147.598 215.649 147.488Z" fill="#263238"/>
<path d="M215.119 148.588C215.922 148.821 216.692 149.157 217.409 149.588C218.194 149.846 218.941 150.209 219.629 150.668C218.774 150.699 217.928 150.488 217.189 150.058C215.919 149.438 215.049 148.708 215.119 148.588Z" fill="#263238"/>
<path d="M214.589 149.698C215.391 149.907 216.161 150.223 216.879 150.638C217.665 150.906 218.414 151.272 219.109 151.728C217.412 151.62 215.81 150.911 214.589 149.728V149.698Z" fill="#263238"/>
<path d="M214.049 150.808C214.852 151.014 215.622 151.331 216.339 151.748C217.124 152.01 217.871 152.377 218.559 152.838C216.868 152.721 215.271 152.013 214.049 150.838V150.808Z" fill="#263238"/>
<path d="M213.539 151.908C214.343 152.14 215.113 152.476 215.829 152.908C216.615 153.166 217.361 153.53 218.049 153.988C217.198 154.02 216.355 153.809 215.619 153.378C214.339 152.758 213.459 152.028 213.539 151.908Z" fill="#263238"/>
<path d="M118.881 225.16L109.383 229.468L111.333 233.767L120.831 229.458L118.881 225.16Z" fill="#E0E0E0"/>
<path d="M120.819 229.458C120.59 229.081 120.383 228.69 120.199 228.288C119.829 227.558 119.309 226.518 118.699 225.288L118.949 225.378C116.509 226.528 113.169 228.078 109.489 229.748C109.369 230.058 109.639 229.328 109.619 229.408V229.478L109.679 229.618L109.809 229.898L110.059 230.458C110.229 230.828 110.389 231.188 110.559 231.548L111.489 233.638L111.159 233.518C113.889 232.298 116.249 231.288 117.959 230.518L119.959 229.678C120.211 229.56 120.472 229.463 120.739 229.388C120.545 229.533 120.333 229.654 120.109 229.748L118.199 230.688C116.539 231.488 114.199 232.638 111.349 233.928L111.119 234.028L111.019 233.798C110.709 233.138 110.399 232.438 110.019 231.728C109.849 231.368 109.689 230.998 109.519 230.628L109.269 230.078L109.139 229.788L109.069 229.648V229.578V229.528L109.199 229.188C112.889 227.508 116.249 226.018 118.729 224.948L118.899 224.868L118.979 225.038C119.569 226.418 120.029 227.528 120.329 228.278C120.535 228.653 120.699 229.048 120.819 229.458V229.458Z" fill="#263238"/>
<path d="M106.459 233.568C106.694 234.089 107.03 234.558 107.447 234.949C107.864 235.34 108.354 235.645 108.889 235.847C109.424 236.048 109.993 236.143 110.564 236.124C111.136 236.105 111.698 235.974 112.219 235.738L108.619 227.808C108.098 228.043 107.628 228.379 107.238 228.797C106.847 229.214 106.542 229.704 106.342 230.239C106.141 230.775 106.048 231.344 106.068 231.915C106.088 232.487 106.221 233.048 106.459 233.568V233.568Z" fill="#E0E0E0"/>
<path d="M106.459 233.568C106.459 233.568 106.339 233.428 106.199 233.128C106.025 232.674 105.934 232.193 105.929 231.708C105.912 230.955 106.091 230.21 106.449 229.548C106.907 228.676 107.632 227.975 108.519 227.548L108.739 227.448L108.839 227.668C109.409 228.898 110.019 230.228 110.659 231.668C111.299 233.108 111.879 234.398 112.439 235.668L112.539 235.888L112.319 235.988C111.425 236.379 110.429 236.47 109.479 236.248C108.735 236.098 108.045 235.752 107.479 235.248C107.118 234.929 106.82 234.546 106.599 234.118C106.449 233.808 106.399 233.638 106.429 233.628C106.782 234.141 107.195 234.611 107.659 235.028C108.274 235.52 109.014 235.832 109.796 235.929C110.578 236.027 111.372 235.905 112.089 235.578L111.969 235.898L110.149 231.898C109.529 230.498 108.929 229.168 108.369 227.898L108.689 228.018C107.971 228.34 107.356 228.856 106.915 229.508C106.473 230.159 106.222 230.921 106.189 231.708C106.21 232.336 106.3 232.96 106.459 233.568Z" fill="#263238"/>
<path d="M107.989 231.608C107.563 231.902 107.229 232.311 107.025 232.787C106.822 233.263 106.757 233.787 106.839 234.298" fill="#E0E0E0"/>
<path d="M106.839 234.298C106.709 234.358 106.399 233.568 106.779 232.688C107.159 231.808 107.939 231.478 107.989 231.608C108.039 231.738 107.559 232.168 107.259 232.888C106.959 233.608 106.989 234.268 106.839 234.298Z" fill="#263238"/>
<path d="M112.839 233.308C112.36 232.634 111.977 231.897 111.699 231.118C111.267 230.409 110.931 229.646 110.699 228.848C111.922 230.032 112.681 231.614 112.839 233.308V233.308Z" fill="#263238"/>
<path d="M113.949 232.808C113.475 232.127 113.092 231.387 112.809 230.608C112.381 229.9 112.045 229.14 111.809 228.348C111.919 228.258 112.669 229.118 113.269 230.348C113.728 231.085 113.964 231.939 113.949 232.808V232.808Z" fill="#263238"/>
<path d="M115.049 232.298C114.572 231.622 114.189 230.886 113.909 230.108C113.477 229.399 113.141 228.635 112.909 227.838C114.132 229.022 114.891 230.603 115.049 232.298V232.298Z" fill="#263238"/>
<path d="M116.179 231.798C115.708 231.116 115.325 230.377 115.039 229.598C114.609 228.888 114.273 228.125 114.039 227.328C114.697 227.851 115.201 228.542 115.499 229.328C115.959 230.069 116.195 230.927 116.179 231.798V231.798Z" fill="#263238"/>
<path d="M117.299 231.288C116.821 230.61 116.438 229.87 116.159 229.088C115.728 228.382 115.392 227.622 115.159 226.828C116.382 228.012 117.141 229.594 117.299 231.288V231.288Z" fill="#263238"/>
<path d="M118.409 230.778C117.934 230.101 117.55 229.365 117.269 228.588C116.838 227.878 116.502 227.115 116.269 226.318C116.926 226.841 117.431 227.532 117.729 228.318C118.187 229.056 118.423 229.91 118.409 230.778V230.778Z" fill="#263238"/>
<path d="M119.529 230.278C118.725 228.837 118.01 227.347 117.389 225.818C117.499 225.728 118.259 226.588 118.859 227.818C119.309 228.559 119.541 229.411 119.529 230.278Z" fill="#263238"/>
<path d="M139.569 107.588C139.569 107.588 151.679 119.588 154.699 127.018C157.569 134.128 159.469 140.748 159.469 140.748C159.469 140.748 162.589 135.288 166.099 140.748C169.609 146.208 186.199 212.518 188.929 237.478H199.499C199.499 237.478 194.579 195.748 192.239 191.068C189.899 186.388 187.939 184.828 187.939 184.828C187.939 184.828 185.209 167.268 183.259 164.538C182.137 162.935 180.671 161.603 178.969 160.638C178.969 160.638 175.459 141.528 170.389 137.638C165.319 133.748 161.389 135.688 161.389 135.688C161.389 135.688 158.189 115.208 139.569 107.588Z" fill="#26A5B8"/>
<path d="M238.719 196.208C236.335 196.846 233.997 197.641 231.719 198.588C229.505 199.691 227.364 200.933 225.309 202.308C225.765 201.73 226.312 201.231 226.929 200.828C229.772 198.677 233.058 197.185 236.549 196.458C237.255 196.265 237.987 196.181 238.719 196.208Z" fill="#455A64"/>
<path d="M238.309 194.068C235.902 194.989 233.545 196.037 231.249 197.208C227.519 199.268 224.969 201.658 224.859 201.528C225.313 200.912 225.852 200.363 226.459 199.898C227.866 198.704 229.386 197.652 230.999 196.758C232.61 195.859 234.309 195.129 236.069 194.578C236.787 194.299 237.542 194.128 238.309 194.068V194.068Z" fill="#455A64"/>
<path d="M236.259 199.208C236.259 199.368 234.059 199.398 231.469 200.148C228.879 200.898 226.979 201.998 226.899 201.868C229.57 199.828 232.915 198.877 236.259 199.208V199.208Z" fill="#455A64"/>
<path d="M212.929 237.378C211.159 223.378 215.759 206.958 226.929 199.098L229.589 201.268C229.589 201.268 215.679 209.548 216.699 237.478" fill="#263238"/>
<path d="M155.459 217.208C153.603 217.846 151.806 218.646 150.089 219.598C148.468 220.704 146.942 221.945 145.529 223.308C146.639 221.628 148.103 220.212 149.819 219.158C151.534 218.105 153.459 217.439 155.459 217.208V217.208Z" fill="#455A64"/>
<path d="M155.179 215.968C153.407 216.771 151.591 217.472 149.739 218.068C147.946 218.839 146.109 219.507 144.239 220.068C145.907 219.036 147.693 218.209 149.559 217.608C151.358 216.832 153.245 216.281 155.179 215.968Z" fill="#455A64"/>
<path d="M185.989 240.828L181.149 239.568C181.683 237.559 181.622 235.437 180.975 233.462C180.327 231.486 179.119 229.741 177.499 228.438C177.287 229.978 176.689 231.44 175.761 232.686C174.832 233.933 173.604 234.924 172.189 235.568C171.117 235.989 169.966 236.17 168.817 236.098C167.668 236.025 166.549 235.701 165.539 235.148C164.621 234.681 163.819 234.014 163.191 233.198C162.563 232.381 162.125 231.435 161.909 230.428C161.671 228.86 161.914 227.257 162.605 225.829C163.295 224.401 164.402 223.215 165.779 222.428C166.904 221.776 168.148 221.354 169.439 221.188C169.325 221.084 169.205 220.987 169.079 220.898C166.898 219.321 164.292 218.438 161.602 218.365C158.912 218.292 156.262 219.032 153.999 220.488L151.179 216.358C154.308 214.301 157.993 213.252 161.737 213.352C165.48 213.452 169.104 214.697 172.119 216.918C173.951 218.3 175.439 220.087 176.469 222.138C180.069 223.556 183.026 226.243 184.78 229.692C186.534 233.141 186.964 237.114 185.989 240.858V240.828ZM171.049 226.038C170.085 226.009 169.132 226.24 168.289 226.708C167.8 226.975 167.398 227.375 167.129 227.862C166.86 228.349 166.735 228.903 166.769 229.458C166.85 229.737 166.989 229.997 167.177 230.219C167.365 230.441 167.597 230.621 167.859 230.748C168.218 230.945 168.614 231.065 169.023 231.099C169.431 231.134 169.842 231.082 170.229 230.948C171.036 230.512 171.691 229.84 172.106 229.021C172.521 228.203 172.675 227.277 172.549 226.368V226.168C172.054 226.08 171.552 226.037 171.049 226.038V226.038Z" fill="#263238"/>
<path d="M145.389 147.968C145.857 148.161 146.306 148.398 146.729 148.678C147.579 149.158 148.729 149.918 150.209 150.908C151.888 152.086 153.507 153.347 155.059 154.688C158.854 157.979 162.236 161.72 165.129 165.828C166.309 167.499 167.4 169.232 168.399 171.018C169.249 172.548 169.889 173.808 170.279 174.708C170.514 175.155 170.705 175.624 170.849 176.108C170.558 175.696 170.307 175.257 170.099 174.798C169.649 173.928 168.969 172.698 168.099 171.208C167.229 169.718 166.099 167.968 164.759 166.098C161.842 162.073 158.489 158.383 154.759 155.098C153.049 153.538 151.399 152.208 150.049 151.208C148.699 150.208 147.489 149.378 146.669 148.848C146.216 148.594 145.788 148.299 145.389 147.968V147.968Z" fill="#26A5B8"/>
<path d="M128.469 259.388H129.319V309.898H128.469C126.082 309.898 123.793 308.949 122.105 307.262C120.417 305.574 119.469 303.285 119.469 300.898V268.348C119.479 265.968 120.432 263.689 122.119 262.01C123.806 260.33 126.089 259.388 128.469 259.388V259.388Z" fill="#263238"/>
<path d="M273.919 259.388H274.859C277.214 259.388 279.473 260.323 281.138 261.989C282.803 263.654 283.739 265.913 283.739 268.268V301.028C283.739 303.383 282.803 305.642 281.138 307.307C279.473 308.972 277.214 309.908 274.859 309.908H273.919V259.388Z" fill="#263238"/>
<path d="M262.009 249.528H140.859C133.061 249.528 126.739 255.85 126.739 263.648V345.398C126.739 353.196 133.061 359.518 140.859 359.518H262.009C269.808 359.518 276.129 353.196 276.129 345.398V263.648C276.129 255.85 269.808 249.528 262.009 249.528Z" fill="#26A5B8"/>
<path d="M220.439 261.208C211.361 261.208 202.654 264.814 196.235 271.234C189.815 277.653 186.209 286.36 186.209 295.438H254.679C254.679 290.942 253.793 286.49 252.072 282.336C250.352 278.183 247.829 274.409 244.65 271.23C241.47 268.052 237.695 265.53 233.541 263.811C229.387 262.091 224.935 261.207 220.439 261.208V261.208Z" fill="white"/>
<path d="M248.049 293.788C249.489 293.788 250.789 293.788 251.729 293.788C252.241 293.763 252.754 293.796 253.259 293.888C252.757 293.974 252.248 294.011 251.739 293.998C250.739 293.998 249.489 293.998 248.049 293.998H244.369H243.249C243.113 294.014 242.975 294.014 242.839 293.998C242.975 293.975 243.113 293.975 243.249 293.998L244.369 293.948L248.049 293.788Z" fill="#E0E0E0"/>
<path d="M245.629 283.438C248.229 282.198 250.389 281.328 250.459 281.438C250.529 281.548 248.459 282.678 245.839 283.848C244.281 284.635 242.667 285.303 241.009 285.848C242.487 284.931 244.031 284.126 245.629 283.438V283.438Z" fill="#E0E0E0"/>
<path d="M239.209 274.978C241.109 272.818 242.749 271.158 242.879 271.268C243.009 271.378 241.529 273.198 239.589 275.318C238.462 276.644 237.235 277.881 235.919 279.018C236.913 277.591 238.013 276.241 239.209 274.978V274.978Z" fill="#E0E0E0"/>
<path d="M230.049 269.568C230.548 267.899 231.236 266.292 232.099 264.778C232.259 264.838 231.559 267.058 230.529 269.778C229.96 271.423 229.271 273.024 228.469 274.568C228.867 272.863 229.395 271.192 230.049 269.568V269.568Z" fill="#E0E0E0"/>
<path d="M219.559 267.788C219.559 264.908 219.639 262.578 219.809 262.578C219.979 262.578 220.089 264.908 220.069 267.788C220.116 269.529 220.029 271.271 219.809 272.998C219.589 271.271 219.505 269.529 219.559 267.788Z" fill="#E0E0E0"/>
<path d="M209.099 269.748C208.099 267.058 207.359 264.838 207.519 264.748C207.679 264.658 208.599 266.828 209.519 269.538C210.18 271.159 210.708 272.831 211.099 274.538C210.314 272.993 209.646 271.392 209.099 269.748V269.748Z" fill="#E0E0E0"/>
<path d="M200.049 275.318C198.109 273.198 196.629 271.388 196.759 271.268C196.889 271.148 198.529 272.818 200.429 274.978C201.623 276.228 202.723 277.565 203.719 278.978C202.404 277.853 201.177 276.63 200.049 275.318V275.318Z" fill="#E0E0E0"/>
<path d="M193.779 283.908C191.149 282.728 189.079 281.648 189.149 281.488C189.219 281.328 191.389 282.208 193.989 283.488C195.587 284.176 197.131 284.981 198.609 285.898C196.952 285.356 195.337 284.691 193.779 283.908V283.908Z" fill="#E0E0E0"/>
<path d="M191.599 294.038C190.159 294.038 188.859 294.038 187.909 294.038C187.4 294.051 186.891 294.014 186.389 293.928C186.893 293.836 187.407 293.803 187.919 293.828C188.859 293.828 190.159 293.828 191.599 293.828L195.279 293.888L196.399 293.938C196.531 293.915 196.666 293.915 196.799 293.938C196.666 293.955 196.531 293.955 196.399 293.938H195.279L191.599 294.038Z" fill="#E0E0E0"/>
<path d="M163.359 267.208C163.361 268.108 163.096 268.989 162.597 269.739C162.098 270.488 161.388 271.073 160.557 271.419C159.726 271.765 158.811 271.856 157.927 271.682C157.044 271.507 156.232 271.075 155.595 270.439C154.958 269.803 154.523 268.992 154.347 268.109C154.171 267.226 154.26 266.311 154.604 265.479C154.948 264.647 155.531 263.936 156.28 263.435C157.028 262.935 157.908 262.668 158.809 262.668C160.014 262.668 161.17 263.146 162.023 263.997C162.876 264.848 163.356 266.003 163.359 267.208V267.208Z" fill="white"/>
<path d="M163.359 280.908C163.361 281.809 163.096 282.689 162.597 283.439C162.098 284.188 161.388 284.773 160.557 285.119C159.726 285.465 158.811 285.556 157.927 285.382C157.044 285.208 156.232 284.775 155.595 284.139C154.958 283.503 154.523 282.692 154.347 281.81C154.171 280.927 154.26 280.011 154.604 279.179C154.948 278.347 155.531 277.636 156.28 277.136C157.028 276.635 157.908 276.368 158.809 276.368C160.014 276.368 161.17 276.846 162.023 277.697C162.876 278.548 163.356 279.703 163.359 280.908V280.908Z" fill="#455A64"/>
<path d="M249.479 350.028C249.479 350.028 249.479 349.738 249.479 349.178C249.479 348.618 249.479 347.788 249.479 346.728C249.479 344.558 249.479 341.398 249.429 337.348C249.429 329.218 249.369 317.498 249.329 303.048L249.519 303.238L156.349 303.308L156.609 303.048C156.609 319.618 156.609 335.508 156.609 350.048L156.359 349.808L223.279 349.918L242.579 349.988H247.739H249.079H249.539H249.109H247.799H242.689L223.439 350.058L156.359 350.178H156.049V349.928C156.049 335.408 156.049 319.518 156.049 302.928V302.668H156.319L249.489 302.738H249.689V302.928C249.639 317.428 249.609 329.188 249.579 337.338C249.579 341.338 249.579 344.528 249.579 346.678C249.579 347.728 249.579 348.538 249.579 349.098C249.579 349.658 249.479 350.028 249.479 350.028Z" fill="#263238"/>
<path d="M142.149 359.298H260.719V359.888C260.719 360.706 260.558 361.516 260.245 362.272C259.932 363.028 259.473 363.715 258.895 364.293C258.316 364.872 257.629 365.331 256.874 365.644C256.118 365.957 255.308 366.118 254.489 366.118H148.389C146.737 366.118 145.152 365.461 143.984 364.293C142.816 363.125 142.159 361.54 142.159 359.888V359.298H142.149Z" fill="#263238"/>
<g opacity="0.3">
<path opacity="0.3" d="M239.519 309.638C239.444 310.284 239.595 310.936 239.947 311.484C240.299 312.031 240.83 312.439 241.449 312.638C242.073 312.81 242.735 312.782 243.342 312.56C243.95 312.338 244.473 311.932 244.839 311.398C245.18 310.847 245.36 310.211 245.36 309.563C245.36 308.915 245.18 308.279 244.839 307.728C244.876 308.58 244.598 309.417 244.059 310.078C243.784 310.4 243.434 310.649 243.04 310.803C242.645 310.956 242.219 311.01 241.799 310.958C241.38 310.899 240.991 310.708 240.687 310.413C240.383 310.118 240.181 309.735 240.109 309.318" fill="black"/>
</g>
<path d="M244.859 308.528C244.861 309.077 244.7 309.614 244.397 310.071C244.093 310.528 243.661 310.884 243.154 311.095C242.647 311.306 242.09 311.362 241.551 311.255C241.013 311.149 240.519 310.885 240.131 310.497C239.743 310.109 239.479 309.614 239.372 309.076C239.266 308.538 239.321 307.98 239.532 307.473C239.743 306.967 240.1 306.534 240.557 306.231C241.014 305.927 241.551 305.766 242.099 305.768C242.831 305.768 243.533 306.059 244.051 306.576C244.569 307.094 244.859 307.796 244.859 308.528V308.528Z" fill="#E0E0E0"/>
<path d="M244.859 308.528C244.785 308.315 244.725 308.098 244.679 307.878C244.502 307.317 244.152 306.827 243.679 306.478C243.332 306.231 242.93 306.073 242.508 306.018C242.087 305.962 241.658 306.01 241.259 306.158C240.776 306.338 240.359 306.662 240.066 307.086C239.772 307.509 239.614 308.012 239.614 308.528C239.614 309.044 239.772 309.547 240.066 309.97C240.359 310.394 240.776 310.718 241.259 310.898C241.658 311.046 242.087 311.094 242.508 311.038C242.93 310.983 243.332 310.824 243.679 310.578C244.152 310.229 244.502 309.739 244.679 309.178C244.727 308.958 244.787 308.741 244.859 308.528C244.859 308.528 244.949 308.778 244.859 309.228C244.738 309.879 244.382 310.462 243.859 310.868C243.47 311.181 243.008 311.39 242.516 311.474C242.024 311.558 241.519 311.515 241.049 311.348C240.47 311.138 239.969 310.754 239.616 310.25C239.262 309.745 239.072 309.144 239.072 308.528C239.072 307.912 239.262 307.311 239.616 306.806C239.969 306.302 240.47 305.918 241.049 305.708C241.519 305.541 242.024 305.498 242.516 305.582C243.008 305.666 243.47 305.874 243.859 306.188C244.382 306.594 244.738 307.177 244.859 307.828C244.949 308.278 244.889 308.528 244.859 308.528Z" fill="#263238"/>
<path d="M243.369 307.348C243.419 307.488 242.769 307.828 242.159 308.468C241.549 309.108 241.229 309.758 241.089 309.708C240.949 309.658 241.089 308.838 241.789 308.098C242.489 307.358 243.339 307.208 243.369 307.348Z" fill="#263238"/>
<path d="M243.369 309.388C243.249 309.468 242.789 308.968 242.109 308.518C241.429 308.068 240.789 307.818 240.819 307.668C240.849 307.518 241.629 307.558 242.399 308.088C243.169 308.618 243.489 309.328 243.369 309.388Z" fill="#263238"/>
<g opacity="0.3">
<path opacity="0.3" d="M240.809 343.838C240.738 344.485 240.892 345.136 241.246 345.683C241.599 346.229 242.13 346.637 242.749 346.838C243.373 347.01 244.034 346.982 244.642 346.76C245.25 346.538 245.773 346.132 246.139 345.598C246.485 345.052 246.673 344.421 246.682 343.775C246.691 343.129 246.52 342.493 246.189 341.938C246.225 342.789 245.944 343.623 245.399 344.278C245.126 344.599 244.777 344.848 244.385 345.001C243.992 345.155 243.567 345.209 243.149 345.158C242.729 345.101 242.339 344.913 242.033 344.62C241.728 344.327 241.523 343.945 241.449 343.528" fill="black"/>
</g>
<path d="M243.399 345.478C244.923 345.478 246.159 344.242 246.159 342.718C246.159 341.194 244.923 339.958 243.399 339.958C241.874 339.958 240.639 341.194 240.639 342.718C240.639 344.242 241.874 345.478 243.399 345.478Z" fill="#E0E0E0"/>
<path d="M246.159 342.718C246.109 342.718 246.099 342.478 245.969 342.068C245.794 341.506 245.444 341.015 244.969 340.668C244.621 340.422 244.22 340.265 243.798 340.209C243.376 340.153 242.948 340.201 242.549 340.348C242.213 340.48 241.909 340.682 241.657 340.94C241.405 341.198 241.212 341.507 241.089 341.847C240.966 342.186 240.916 342.547 240.944 342.907C240.972 343.266 241.075 343.616 241.249 343.932C241.422 344.249 241.66 344.525 241.949 344.742C242.237 344.959 242.568 345.112 242.92 345.191C243.272 345.27 243.636 345.273 243.99 345.2C244.343 345.127 244.677 344.98 244.969 344.768C245.446 344.423 245.797 343.931 245.969 343.368C246.099 342.968 246.109 342.718 246.159 342.718C246.209 342.718 246.249 342.968 246.159 343.418C246.036 344.071 245.681 344.658 245.159 345.068C244.769 345.379 244.306 345.585 243.815 345.668C243.323 345.75 242.818 345.705 242.349 345.538C241.769 345.328 241.269 344.945 240.915 344.44C240.562 343.935 240.372 343.334 240.372 342.718C240.372 342.102 240.562 341.501 240.915 340.996C241.269 340.492 241.769 340.108 242.349 339.898C242.82 339.739 243.324 339.699 243.814 339.783C244.305 339.867 244.767 340.071 245.159 340.378C245.682 340.784 246.038 341.367 246.159 342.018C246.249 342.478 246.189 342.728 246.159 342.718Z" fill="#263238"/>
<path d="M244.669 341.538C244.719 341.678 244.059 342.018 243.459 342.658C242.859 343.298 242.529 343.948 242.379 343.908C242.229 343.868 242.379 343.028 243.079 342.298C243.779 341.568 244.639 341.408 244.669 341.538Z" fill="#263238"/>
<path d="M244.669 343.578C244.539 343.668 244.079 343.158 243.399 342.708C242.719 342.258 242.089 342.008 242.119 341.858C242.149 341.708 242.919 341.748 243.699 342.278C244.479 342.808 244.789 343.518 244.669 343.578Z" fill="#263238"/>
<g opacity="0.3">
<path opacity="0.3" d="M160.429 309.598C160.358 310.245 160.512 310.896 160.866 311.443C161.219 311.989 161.75 312.397 162.369 312.598C162.994 312.767 163.656 312.738 164.263 312.514C164.871 312.29 165.393 311.882 165.759 311.348C166.098 310.798 166.277 310.164 166.277 309.518C166.277 308.872 166.098 308.238 165.759 307.688C165.796 308.542 165.514 309.38 164.969 310.038C164.696 310.359 164.347 310.608 163.955 310.761C163.562 310.915 163.137 310.969 162.719 310.918C162.298 310.861 161.907 310.671 161.601 310.376C161.295 310.081 161.091 309.696 161.019 309.278" fill="black"/>
</g>
<path d="M163.009 311.248C164.533 311.248 165.769 310.012 165.769 308.488C165.769 306.964 164.533 305.728 163.009 305.728C161.485 305.728 160.249 306.964 160.249 308.488C160.249 310.012 161.485 311.248 163.009 311.248Z" fill="#E0E0E0"/>
<path d="M165.779 308.488C165.779 308.488 165.719 308.238 165.589 307.838C165.42 307.274 165.068 306.782 164.589 306.438C164.245 306.192 163.844 306.034 163.424 305.978C163.004 305.922 162.577 305.97 162.179 306.118C161.696 306.299 161.28 306.622 160.986 307.046C160.692 307.469 160.535 307.973 160.535 308.488C160.535 309.004 160.692 309.507 160.986 309.93C161.28 310.354 161.696 310.678 162.179 310.858C162.578 311.005 163.007 311.053 163.429 310.997C163.851 310.941 164.252 310.784 164.599 310.538C165.076 310.193 165.428 309.701 165.599 309.138C165.729 308.738 165.739 308.488 165.789 308.488C165.858 308.716 165.858 308.96 165.789 309.188C165.664 309.837 165.309 310.419 164.789 310.828C164.401 311.141 163.938 311.349 163.447 311.433C162.955 311.517 162.45 311.474 161.979 311.308C161.4 311.098 160.9 310.714 160.546 310.21C160.193 309.705 160.003 309.104 160.003 308.488C160.003 307.872 160.193 307.271 160.546 306.766C160.9 306.262 161.4 305.878 161.979 305.668C162.45 305.502 162.955 305.459 163.447 305.543C163.938 305.627 164.401 305.835 164.789 306.148C165.309 306.557 165.664 307.139 165.789 307.788C165.855 308.017 165.852 308.261 165.779 308.488V308.488Z" fill="#263238"/>
<path d="M164.289 307.308C164.289 307.448 163.679 307.788 163.079 308.428C162.479 309.068 162.149 309.718 161.999 309.668C161.849 309.618 161.999 308.788 162.699 308.058C163.399 307.328 164.259 307.208 164.289 307.308Z" fill="#263238"/>
<path d="M164.289 309.348C164.159 309.428 163.699 308.928 163.019 308.478C162.339 308.028 161.709 307.778 161.739 307.628C161.769 307.478 162.539 307.518 163.319 308.038C164.099 308.558 164.409 309.278 164.289 309.348Z" fill="#263238"/>
<g opacity="0.3">
<path opacity="0.3" d="M159.849 343.498C159.772 344.145 159.922 344.798 160.274 345.345C160.627 345.893 161.159 346.3 161.779 346.498C162.403 346.67 163.065 346.643 163.672 346.42C164.28 346.198 164.803 345.792 165.169 345.258C165.51 344.709 165.691 344.075 165.691 343.428C165.691 342.781 165.51 342.148 165.169 341.598C165.204 342.447 164.927 343.28 164.389 343.938C164.115 344.261 163.765 344.512 163.371 344.667C162.976 344.822 162.55 344.878 162.129 344.828C161.71 344.769 161.321 344.578 161.017 344.283C160.713 343.989 160.511 343.605 160.439 343.188" fill="black"/>
</g>
<path d="M162.429 345.138C163.953 345.138 165.189 343.902 165.189 342.378C165.189 340.854 163.953 339.618 162.429 339.618C160.905 339.618 159.669 340.854 159.669 342.378C159.669 343.902 160.905 345.138 162.429 345.138Z" fill="#E0E0E0"/>
<path d="M165.189 342.378C165.189 342.378 165.189 342.138 165.009 341.728C164.827 341.17 164.478 340.681 164.009 340.328C163.662 340.081 163.261 339.923 162.839 339.867C162.417 339.812 161.988 339.86 161.589 340.008C161.253 340.14 160.949 340.341 160.698 340.6C160.446 340.858 160.252 341.167 160.129 341.506C160.006 341.845 159.957 342.207 159.984 342.566C160.012 342.926 160.116 343.276 160.289 343.592C160.462 343.908 160.701 344.184 160.989 344.401C161.277 344.618 161.608 344.771 161.96 344.85C162.312 344.93 162.677 344.933 163.03 344.86C163.383 344.787 163.717 344.64 164.009 344.428C164.482 344.079 164.832 343.588 165.009 343.028C165.057 342.808 165.117 342.591 165.189 342.378C165.189 342.378 165.279 342.628 165.189 343.078C165.069 343.732 164.713 344.318 164.189 344.728C163.797 345.035 163.335 345.239 162.845 345.323C162.354 345.407 161.85 345.367 161.379 345.208C160.796 345 160.293 344.616 159.936 344.111C159.58 343.605 159.389 343.001 159.389 342.383C159.389 341.764 159.58 341.161 159.936 340.655C160.293 340.149 160.796 339.766 161.379 339.558C161.85 339.398 162.354 339.359 162.845 339.443C163.335 339.527 163.797 339.731 164.189 340.038C164.713 340.447 165.069 341.034 165.189 341.688C165.279 342.138 165.219 342.388 165.189 342.378Z" fill="#263238"/>
<path d="M163.699 341.208C163.699 341.348 163.099 341.688 162.489 342.328C161.879 342.968 161.559 343.618 161.419 343.578C161.279 343.538 161.419 342.698 162.119 341.968C162.819 341.238 163.669 341.068 163.699 341.208Z" fill="#263238"/>
<path d="M163.699 343.208C163.579 343.288 163.119 342.778 162.439 342.328C161.759 341.878 161.119 341.628 161.149 341.478C161.179 341.328 161.959 341.368 162.729 341.898C163.499 342.428 163.819 343.208 163.699 343.208Z" fill="#263238"/>
<g opacity="0.3">
<path opacity="0.3" d="M156.299 350.288C167.119 352.638 179.759 352.728 191.449 352.158C197.069 351.878 203.239 351.528 207.739 354.918C208.739 355.658 209.879 356.628 211.039 356.198C212.719 355.568 212.779 352.488 214.579 352.428C215.479 352.428 216.169 353.258 216.459 354.108C216.643 354.987 216.918 355.845 217.279 356.668C217.739 357.448 218.829 357.968 219.549 357.418C220.689 356.548 219.369 354.678 219.799 353.308C220.229 351.938 222.269 351.778 223.649 352.308C225.029 352.838 226.369 353.848 227.839 353.628C228.868 353.334 229.829 352.842 230.669 352.178C233.299 350.568 236.549 350.478 239.669 350.418C242.919 350.368 246.269 350.058 249.519 349.998L156.299 350.288Z" fill="black"/>
</g>
<path d="M230.819 314.998C230.657 315.079 230.486 315.139 230.309 315.178C229.815 315.31 229.331 315.473 228.859 315.668C227.121 316.376 225.481 317.304 223.979 318.428C222.029 319.788 219.879 321.668 217.149 323.328C215.72 324.217 214.156 324.869 212.519 325.258C210.757 325.573 208.968 325.707 207.179 325.658C203.529 325.658 200.339 327.138 197.579 328.658C194.819 330.178 192.289 331.498 190.319 332.828C188.749 333.856 187.294 335.049 185.979 336.388C185.049 337.388 184.619 337.938 184.579 337.908C184.539 337.878 184.659 337.748 184.859 337.458C185.169 337.036 185.503 336.632 185.859 336.248C187.132 334.842 188.569 333.593 190.139 332.528C192.473 330.965 194.89 329.53 197.379 328.228C198.831 327.415 200.342 326.713 201.899 326.128C203.594 325.506 205.384 325.184 207.189 325.178C208.947 325.228 210.706 325.1 212.439 324.798C214.025 324.421 215.543 323.8 216.939 322.958C219.619 321.348 221.809 319.498 223.799 318.168C225.336 317.059 227.018 316.167 228.799 315.518C229.283 315.341 229.781 315.207 230.289 315.118C230.459 315.054 230.638 315.014 230.819 314.998Z" fill="#263238"/>
<path d="M207.109 322.918C206.129 322.878 205.156 322.727 204.209 322.468C201.9 321.953 199.635 321.251 197.439 320.368C195.242 319.492 193.122 318.435 191.099 317.208C190.232 316.743 189.423 316.175 188.689 315.518C189.578 315.925 190.443 316.382 191.279 316.888C195.393 319.135 199.756 320.89 204.279 322.118C205.24 322.318 206.186 322.586 207.109 322.918V322.918Z" fill="#263238"/>
<path d="M222.149 290.278C222.919 289.868 245.389 282.638 245.389 282.638L223.909 294.638L222.149 290.278Z" fill="#26A5B8"/>
<path d="M219.809 287.848C218.811 287.848 217.823 288.045 216.901 288.427C215.978 288.809 215.141 289.368 214.435 290.074C213.729 290.78 213.169 291.618 212.788 292.54C212.406 293.462 212.209 294.45 212.209 295.448H227.409C227.409 294.45 227.212 293.462 226.83 292.54C226.449 291.618 225.889 290.78 225.183 290.074C224.477 289.368 223.639 288.809 222.717 288.427C221.795 288.045 220.807 287.848 219.809 287.848V287.848Z" fill="#263238"/>
<path d="M143.399 359.298C143.249 359.298 143.139 334.878 143.139 304.758C143.139 274.638 143.249 250.208 143.399 250.208C143.549 250.208 143.659 274.628 143.659 304.758C143.659 334.888 143.539 359.298 143.399 359.298Z" fill="#263238"/>
<path d="M262.249 359.298C262.099 359.298 261.989 334.878 261.989 304.758C261.989 274.638 262.099 250.208 262.249 250.208C262.399 250.208 262.509 274.628 262.509 304.758C262.509 334.888 262.389 359.298 262.249 359.298Z" fill="#263238"/>
<path d="M138.409 265.008C139.055 265.008 139.579 264.484 139.579 263.838C139.579 263.192 139.055 262.668 138.409 262.668C137.763 262.668 137.239 263.192 137.239 263.838C137.239 264.484 137.763 265.008 138.409 265.008Z" fill="#263238"/>
<path d="M138.409 286.888C139.055 286.888 139.579 286.364 139.579 285.718C139.579 285.072 139.055 284.548 138.409 284.548C137.763 284.548 137.239 285.072 137.239 285.718C137.239 286.364 137.763 286.888 138.409 286.888Z" fill="#263238"/>
<path d="M138.409 308.778C139.055 308.778 139.579 308.254 139.579 307.608C139.579 306.962 139.055 306.438 138.409 306.438C137.763 306.438 137.239 306.962 137.239 307.608C137.239 308.254 137.763 308.778 138.409 308.778Z" fill="#263238"/>
<path d="M138.409 330.668C139.055 330.668 139.579 330.144 139.579 329.498C139.579 328.852 139.055 328.328 138.409 328.328C137.763 328.328 137.239 328.852 137.239 329.498C137.239 330.144 137.763 330.668 138.409 330.668Z" fill="#263238"/>
<path d="M138.409 352.548C139.055 352.548 139.579 352.024 139.579 351.378C139.579 350.732 139.055 350.208 138.409 350.208C137.763 350.208 137.239 350.732 137.239 351.378C137.239 352.024 137.763 352.548 138.409 352.548Z" fill="#263238"/>
<path d="M268.359 265.008C269.005 265.008 269.529 264.484 269.529 263.838C269.529 263.192 269.005 262.668 268.359 262.668C267.713 262.668 267.189 263.192 267.189 263.838C267.189 264.484 267.713 265.008 268.359 265.008Z" fill="#263238"/>
<path d="M268.359 286.888C269.005 286.888 269.529 286.364 269.529 285.718C269.529 285.072 269.005 284.548 268.359 284.548C267.713 284.548 267.189 285.072 267.189 285.718C267.189 286.364 267.713 286.888 268.359 286.888Z" fill="#263238"/>
<path d="M268.359 308.778C269.005 308.778 269.529 308.254 269.529 307.608C269.529 306.962 269.005 306.438 268.359 306.438C267.713 306.438 267.189 306.962 267.189 307.608C267.189 308.254 267.713 308.778 268.359 308.778Z" fill="#263238"/>
<path d="M268.359 330.668C269.005 330.668 269.529 330.144 269.529 329.498C269.529 328.852 269.005 328.328 268.359 328.328C267.713 328.328 267.189 328.852 267.189 329.498C267.189 330.144 267.713 330.668 268.359 330.668Z" fill="#263238"/>
<path d="M268.359 352.548C269.005 352.548 269.529 352.024 269.529 351.378C269.529 350.732 269.005 350.208 268.359 350.208C267.713 350.208 267.189 350.732 267.189 351.378C267.189 352.024 267.713 352.548 268.359 352.548Z" fill="#263238"/>
<path d="M223.449 237.478H172.349V249.518H223.449V237.478Z" fill="#455A64"/>
<path d="M176.049 249.528C175.786 247.6 175.699 245.652 175.789 243.708C175.699 241.767 175.786 239.823 176.049 237.898C176.306 239.823 176.393 241.767 176.309 243.708C176.393 245.652 176.306 247.599 176.049 249.528V249.528Z" fill="#263238"/>
<path d="M181.279 249.528C181.022 247.599 180.935 245.652 181.019 243.708C180.935 241.767 181.022 239.823 181.279 237.898C181.542 239.823 181.629 241.767 181.539 243.708C181.629 245.652 181.542 247.6 181.279 249.528V249.528Z" fill="#263238"/>
<path d="M186.529 249.528C186.272 247.599 186.185 245.652 186.269 243.708C186.185 241.767 186.272 239.823 186.529 237.898C186.786 239.823 186.873 241.767 186.789 243.708C186.873 245.652 186.786 247.599 186.529 249.528V249.528Z" fill="#263238"/>
<path d="M191.779 249.528C191.516 247.6 191.429 245.652 191.519 243.708C191.429 241.767 191.516 239.823 191.779 237.898C192.036 239.823 192.123 241.767 192.039 243.708C192.122 245.652 192.035 247.599 191.779 249.528V249.528Z" fill="#263238"/>
<path d="M197.049 249.528C196.792 247.599 196.705 245.652 196.789 243.708C196.705 241.767 196.792 239.823 197.049 237.898C197.312 239.823 197.399 241.767 197.309 243.708C197.399 245.652 197.312 247.6 197.049 249.528V249.528Z" fill="#263238"/>
<path d="M202.269 249.528C202.013 247.599 201.926 245.652 202.009 243.708C201.925 241.767 202.012 239.823 202.269 237.898C202.527 239.823 202.614 241.767 202.53 243.708C202.613 245.652 202.526 247.599 202.269 249.528Z" fill="#263238"/>
<path d="M207.519 249.528C207.256 247.6 207.169 245.652 207.259 243.708C207.169 241.767 207.256 239.823 207.519 237.898C207.776 239.823 207.863 241.767 207.779 243.708C207.863 245.652 207.776 247.599 207.519 249.528V249.528Z" fill="#263238"/>
<path d="M212.759 249.528C212.502 247.599 212.415 245.652 212.499 243.708C212.415 241.767 212.502 239.823 212.759 237.898C213.022 239.823 213.109 241.767 213.019 243.708C213.109 245.652 213.022 247.6 212.759 249.528V249.528Z" fill="#263238"/>
<path d="M218.049 249.528C217.792 247.599 217.705 245.652 217.789 243.708C217.705 241.767 217.792 239.823 218.049 237.898C218.306 239.823 218.393 241.767 218.309 243.708C218.393 245.652 218.306 247.599 218.049 249.528V249.528Z" fill="#263238"/>
<g opacity="0.3">
<path opacity="0.3" d="M283.729 275.628C284.969 281.888 286.119 287.788 287.349 294.048C286.144 294.13 284.934 294.13 283.729 294.048C283.729 288.048 283.729 281.638 283.729 275.638" fill="black"/>
</g>
<path d="M130.199 261.258C130.339 261.258 130.199 279.938 129.849 302.968C129.499 325.998 129.139 344.668 128.989 344.668C128.839 344.668 128.989 325.998 129.329 302.958C129.669 279.918 130.049 261.258 130.199 261.258Z" fill="white"/>
<path d="M151.939 347.208C151.789 347.208 151.679 337.908 151.679 326.438C151.679 314.968 151.789 305.668 151.939 305.668C152.089 305.668 152.199 314.968 152.199 326.438C152.199 337.908 152.049 347.208 151.939 347.208Z" fill="white"/>
<path d="M250.149 252.888C250.149 253.038 227.219 253.148 198.949 253.148C170.679 253.148 147.749 253.038 147.749 252.888C147.749 252.738 170.669 252.628 198.949 252.628C227.229 252.628 250.149 252.748 250.149 252.888Z" fill="white"/>
<path d="M425.621 441.26C425.621 441.4 330.421 441.52 213.011 441.52C95.6008 441.52 0.380859 441.4 0.380859 441.26C0.380859 441.12 95.5609 441 213.011 441C330.461 441 425.621 441.1 425.621 441.26Z" fill="#263238"/>
</svg>
