<svg width="481" height="391" viewBox="0 0 481 391" fill="none" xmlns="http://www.w3.org/2000/svg">
<path d="M403.151 289.894L368.581 266.849C362.627 261.014 345.373 245.208 337.669 246.581L322.262 225.37C335.919 208.209 343.972 186.243 343.972 162.904C343.972 106.274 296.699 59.9395 238.922 59.9395C181.143 59.9395 133.87 106.274 133.87 162.904C133.87 219.535 181.143 265.869 238.922 265.869C262.732 265.869 284.793 257.975 302.652 244.59L325.727 258.164C324.326 265.715 338.694 285.828 344.647 291.663L368.484 323.873C373.387 328.678 379.69 331.08 385.993 331.08C392.296 331.08 398.599 328.678 403.501 323.873C412.606 314.263 412.606 299.161 403.151 289.894H403.151ZM242.223 230.784C196 230.784 133.87 208.209 133.87 162.904C133.87 117.6 192.934 93.6874 239.156 93.6874C285.378 93.6874 322.612 117.256 322.612 162.561C322.612 207.866 288.445 230.784 242.223 230.784V230.784Z" fill="#B3B3B3"/>
<path d="M176.727 165.656V196.072C176.727 200.803 178.779 205.534 182.883 208.238C191.091 214.997 202.035 219.728 212.978 222.432C218.415 223.897 224.567 225.363 230.916 226.063C233.353 226.331 235.82 226.487 238.286 226.487C246.494 226.487 255.386 225.136 263.594 222.432C274.538 219.728 284.797 214.321 293.689 208.238C297.793 204.859 299.845 200.803 299.845 196.072V165.656H176.727Z" fill="#B3B3B3"/>
<path d="M238.286 157.546C255.285 157.546 269.066 143.928 269.066 127.13C269.066 110.332 255.285 96.7148 238.286 96.7148C221.287 96.7148 207.506 110.332 207.506 127.13C207.506 143.928 221.287 157.546 238.286 157.546Z" fill="#B3B3B3"/>
<path d="M43.5826 135.24V165.656C43.5826 170.387 45.6346 175.118 49.7385 177.822C57.9464 184.581 68.8903 189.312 79.8342 192.016C85.2712 193.481 91.4226 194.947 97.7721 195.647C100.209 195.915 102.676 196.071 105.142 196.071C113.35 196.071 122.242 194.72 130.45 192.016C141.393 189.312 151.653 183.905 160.545 177.822C164.649 174.443 166.701 170.387 166.701 165.656V135.24H43.5826Z" fill="#B3B3B3"/>
<path d="M105.142 127.13C122.141 127.13 135.921 113.512 135.921 96.7144C135.921 79.9163 122.141 66.2988 105.142 66.2988C88.1427 66.2988 74.3622 79.9163 74.3622 96.7144C74.3622 113.512 88.1427 127.13 105.142 127.13Z" fill="#B3B3B3"/>
<path d="M315.898 139.295V169.711C315.898 174.442 317.95 179.173 322.054 181.877C330.262 188.636 341.206 193.367 352.15 196.071C357.587 197.536 363.738 199.001 370.087 199.701C372.525 199.97 374.991 200.126 377.457 200.126C385.665 200.126 394.557 198.774 402.765 196.071C413.709 193.367 423.969 187.96 432.861 181.877C436.964 178.497 439.016 174.442 439.016 169.711V139.295H315.898Z" fill="#B3B3B3"/>
<path d="M377.457 131.185C394.456 131.185 408.237 117.567 408.237 100.769C408.237 83.971 394.456 70.3535 377.457 70.3535C360.458 70.3535 346.678 83.971 346.678 100.769C346.678 117.567 360.458 131.185 377.457 131.185Z" fill="#B3B3B3"/>
</svg>
