<svg width="1178" height="772" viewBox="0 0 1178 772" fill="none" xmlns="http://www.w3.org/2000/svg">
<path d="M404.384 299.937C403.026 303.025 401.529 306.36 400.218 309.618C398.906 312.876 397.548 316.227 396.36 319.562C393.922 326.063 391.967 332.736 390.512 339.526L390.064 341.996L389.91 342.922C389.91 343.185 389.91 343.525 389.817 343.833C389.759 345.337 389.79 346.842 389.91 348.342C390.203 351.6 390.728 355.089 391.453 358.579C392.749 365.573 394.4 372.783 396.082 379.886L388.166 382.974C384.476 376.243 381.334 369.226 378.769 361.991C377.418 358.225 376.325 354.372 375.497 350.457C375.034 348.291 374.745 346.092 374.633 343.88V342.011C374.633 341.347 374.633 340.606 374.741 340.174L375.05 337.086C375.511 333.109 376.217 329.164 377.164 325.274C378.028 321.414 379.139 317.663 380.25 313.957C381.361 310.251 382.75 306.607 384.216 303.025C384.941 301.234 385.759 299.459 386.469 297.683C387.179 295.908 388.012 294.209 389 292.31L404.384 299.937Z" fill="#E4897B"/>
<path d="M395.665 377.802L401.683 383.684L388.552 389.86C388.552 389.86 385.373 384.286 387.579 379.253L395.665 377.802Z" fill="#E4897B"/>
<path d="M406.544 392.439L395.45 396.978L388.567 389.798L401.684 383.684L406.544 392.439Z" fill="#E4897B"/>
<path opacity="0.4" d="M631.296 386.108C609.463 383.655 588.846 374.78 572.053 360.605C555.26 346.43 543.044 327.592 536.95 306.471C530.855 285.35 531.156 262.896 537.814 241.946C544.472 220.996 557.188 202.492 574.355 188.772C591.522 175.053 612.369 166.734 634.26 164.868C656.151 163.001 678.104 167.671 697.343 178.287C716.583 188.902 732.244 204.987 742.349 224.508C752.453 244.028 756.546 266.108 754.111 287.956C752.493 302.472 748.032 316.526 740.984 329.316C733.935 342.106 724.436 353.381 713.03 362.496C701.625 371.611 688.536 378.388 674.511 382.44C660.487 386.491 645.802 387.738 631.296 386.108Z" fill="#FAFAFA"/>
<path opacity="0.4" d="M712.124 188.044L543.154 323.128C542.445 321.584 541.75 320.04 541.102 318.496C536.866 308.415 534.156 297.757 533.062 286.875L679.009 170.195C690.991 174.194 702.194 180.233 712.124 188.044Z" fill="#FAFAFA"/>
<path opacity="0.4" d="M751.118 247.225L592.256 374.219C577.164 366.347 564.085 355.105 554.033 341.363L727.493 202.681C738.674 215.522 746.757 230.762 751.118 247.225Z" fill="#FAFAFA"/>
<path d="M518.619 233.144L517.153 232.65C519.692 225.154 522.883 217.895 526.69 210.957L528.032 211.698C524.276 218.558 521.126 225.735 518.619 233.144ZM537.352 197.107L536.103 196.196C548.784 179.039 565.381 165.164 584.51 155.728L585.204 157.118C566.292 166.456 549.886 180.183 537.352 197.153V197.107ZM706.461 159.233C701.418 156.527 696.201 154.159 690.844 152.146L691.4 150.694C696.809 152.755 702.077 155.169 707.17 157.92L706.461 159.233Z" fill="#6685B4"/>
<path opacity="0.3" d="M518.619 233.144L517.153 232.65C519.692 225.154 522.883 217.895 526.69 210.957L528.032 211.698C524.276 218.558 521.126 225.735 518.619 233.144ZM537.352 197.107L536.103 196.196C548.784 179.039 565.381 165.164 584.51 155.728L585.204 157.118C566.292 166.456 549.886 180.183 537.352 197.153V197.107ZM706.461 159.233C701.418 156.527 696.201 154.159 690.844 152.146L691.4 150.694C696.809 152.755 702.077 155.169 707.17 157.92L706.461 159.233Z" fill="black"/>
<path d="M758.54 218.847C744.252 189.195 719.107 166.181 688.319 154.578C657.531 142.974 623.462 143.67 593.173 156.521C562.884 169.373 538.699 193.394 525.632 223.604C512.565 253.815 511.617 287.899 522.986 318.79C512.679 322.403 502.494 326.278 492.371 330.277C477.774 336.072 463.31 342.125 448.98 348.435C434.66 354.78 420.401 361.25 406.282 368.012C399.199 371.332 392.209 374.837 385.157 378.234C381.488 379.811 378.165 382.093 375.374 384.95C373.864 386.532 372.533 388.278 371.408 390.153C370.035 392.372 368.995 394.781 368.322 397.302C367.161 401.846 367.663 406.655 369.737 410.86C371.812 415.066 375.322 418.39 379.633 420.231C382.027 421.235 384.552 421.89 387.132 422.176C389.311 422.423 391.511 422.423 393.69 422.176C397.65 421.695 401.477 420.441 404.955 418.486C411.945 414.95 418.982 411.538 425.926 407.909C439.814 400.822 453.701 393.427 467.42 385.923C481.138 378.419 494.871 370.56 508.265 362.5C517.524 356.896 526.875 351.167 536.041 345.177C553.642 372.979 581.258 392.94 613.167 400.924C645.076 408.908 678.832 404.302 707.44 388.061C736.048 371.821 757.315 345.19 766.834 313.688C776.353 282.185 773.394 248.226 758.571 218.847H758.54ZM688.391 366.345C670.458 375.202 650.303 378.539 630.475 375.935C610.647 373.331 592.035 364.903 576.994 351.715C561.953 338.528 551.157 321.174 545.972 301.848C540.788 282.522 541.446 262.092 547.866 243.141C554.285 224.189 566.176 207.568 582.036 195.379C597.895 183.189 617.011 175.979 636.966 174.659C656.921 173.34 676.819 177.97 694.144 187.965C711.469 197.96 725.442 212.871 734.298 230.813C740.18 242.728 743.657 255.685 744.533 268.945C745.409 282.205 743.666 295.508 739.403 308.094C735.14 320.679 728.44 332.302 719.688 342.296C710.935 352.291 700.3 360.463 688.391 366.345Z" fill="#6685B4"/>
<path opacity="0.3" d="M758.54 218.847C744.252 189.195 719.107 166.181 688.319 154.578C657.531 142.974 623.462 143.67 593.173 156.521C562.884 169.373 538.699 193.394 525.632 223.604C512.565 253.815 511.617 287.899 522.986 318.79C512.679 322.403 502.494 326.278 492.371 330.277C477.774 336.072 463.31 342.125 448.98 348.435C434.66 354.78 420.401 361.25 406.282 368.012C399.199 371.332 392.209 374.837 385.157 378.234C381.488 379.811 378.165 382.093 375.374 384.95C373.864 386.532 372.533 388.278 371.408 390.153C370.035 392.372 368.995 394.781 368.322 397.302C367.161 401.846 367.663 406.655 369.737 410.86C371.812 415.066 375.322 418.39 379.633 420.231C382.027 421.235 384.552 421.89 387.132 422.176C389.311 422.423 391.511 422.423 393.69 422.176C397.65 421.695 401.477 420.441 404.955 418.486C411.945 414.95 418.982 411.538 425.926 407.909C439.814 400.822 453.701 393.427 467.42 385.923C481.138 378.419 494.871 370.56 508.265 362.5C517.524 356.896 526.875 351.167 536.041 345.177C553.642 372.979 581.258 392.94 613.167 400.924C645.076 408.908 678.832 404.302 707.44 388.061C736.048 371.821 757.315 345.19 766.834 313.688C776.353 282.185 773.394 248.226 758.571 218.847H758.54ZM688.391 366.345C670.458 375.202 650.303 378.539 630.475 375.935C610.647 373.331 592.035 364.903 576.994 351.715C561.953 338.528 551.157 321.174 545.972 301.848C540.788 282.522 541.446 262.092 547.866 243.141C554.285 224.189 566.176 207.568 582.036 195.379C597.895 183.189 617.011 175.979 636.966 174.659C656.921 173.34 676.819 177.97 694.144 187.965C711.469 197.96 725.442 212.871 734.298 230.813C740.18 242.728 743.657 255.685 744.533 268.945C745.409 282.205 743.666 295.508 739.403 308.094C735.14 320.679 728.44 332.302 719.688 342.296C710.935 352.291 700.3 360.463 688.391 366.345Z" fill="black"/>
<path d="M447.035 244.801C447.035 245.712 447.514 246.453 448.115 246.453C448.717 246.453 449.195 245.712 449.195 244.801C449.195 243.89 448.717 243.149 448.115 243.149C447.514 243.149 447.035 243.952 447.035 244.801Z" fill="#263238"/>
<path d="M447.468 246.453C448.56 249.25 450.029 251.883 451.835 254.281C451.211 254.728 450.496 255.033 449.742 255.174C448.987 255.316 448.211 255.29 447.468 255.1V246.453Z" fill="#DE5753"/>
<path d="M443.841 239.722C443.755 239.722 443.67 239.702 443.593 239.665C443.515 239.627 443.447 239.573 443.394 239.505C443.313 239.388 443.281 239.243 443.304 239.102C443.327 238.962 443.403 238.835 443.517 238.749C444.197 238.233 444.991 237.889 445.832 237.747C446.673 237.604 447.536 237.667 448.347 237.931C448.42 237.95 448.488 237.985 448.546 238.033C448.605 238.081 448.653 238.14 448.687 238.208C448.721 238.275 448.741 238.349 448.744 238.424C448.748 238.5 448.736 238.575 448.709 238.646C448.682 238.716 448.64 238.78 448.587 238.834C448.534 238.887 448.47 238.929 448.399 238.956C448.329 238.983 448.253 238.995 448.178 238.992C448.102 238.988 448.029 238.968 447.961 238.934C447.317 238.736 446.634 238.696 445.971 238.817C445.308 238.938 444.683 239.216 444.15 239.629C444.058 239.69 443.951 239.722 443.841 239.722Z" fill="#263238"/>
<path d="M415.864 251.672C417.407 259.963 419.105 275.172 413.303 280.715C413.303 280.715 415.571 289.13 430.987 289.13C447.961 289.13 439.072 280.715 439.072 280.715C429.814 278.491 430.076 271.636 431.681 265.182L415.864 251.672Z" fill="#E4897B"/>
<path d="M406.375 285.084C408.211 282.228 405.125 275.295 405.125 275.295C405.125 275.295 432.407 268.424 443.564 278.97C445.878 281.147 443.317 284.359 443.317 284.359L406.375 285.084Z" fill="black"/>
<path opacity="0.1" d="M406.375 285.084C408.211 282.228 405.125 275.295 405.125 275.295C405.125 275.295 432.407 268.424 443.564 278.97C445.878 281.147 443.317 284.359 443.317 284.359L406.375 285.084Z" fill="black"/>
<path d="M361.239 600.107C359.804 600.107 357.505 597.713 356.826 596.818C356.796 596.775 356.781 596.723 356.781 596.671C356.781 596.619 356.796 596.568 356.826 596.525C356.85 596.481 356.887 596.446 356.93 596.421C356.973 596.397 357.023 596.384 357.072 596.386C357.242 596.386 361.023 596.725 362.057 598.069C362.169 598.21 362.249 598.375 362.292 598.551C362.335 598.727 362.339 598.91 362.304 599.088C362.29 599.317 362.206 599.537 362.062 599.717C361.918 599.897 361.722 600.028 361.501 600.091L361.239 600.107ZM357.659 597.019C358.785 598.316 360.591 599.782 361.362 599.597C361.362 599.597 361.671 599.52 361.763 599.026C361.784 598.923 361.78 598.816 361.754 598.715C361.727 598.613 361.678 598.519 361.609 598.439C360.466 597.573 359.091 597.067 357.659 596.988V597.019Z" fill="#C3C4BE"/>
<path d="M357.829 596.988C357.552 597.016 357.273 597.016 356.996 596.988C356.947 596.984 356.9 596.966 356.862 596.935C356.823 596.905 356.795 596.864 356.78 596.818C356.758 596.775 356.747 596.727 356.747 596.679C356.747 596.631 356.758 596.583 356.78 596.54C356.888 596.447 359.156 594.085 360.869 594.085C361.074 594.08 361.277 594.119 361.466 594.199C361.655 594.279 361.825 594.398 361.964 594.548C362.118 594.677 362.223 594.854 362.262 595.05C362.302 595.247 362.273 595.451 362.18 595.629C361.733 596.493 359.372 596.988 357.829 596.988ZM357.628 596.447C359.171 596.447 361.409 595.969 361.779 595.289C361.779 595.289 361.887 595.088 361.64 594.841C361.551 594.744 361.44 594.667 361.318 594.616C361.195 594.566 361.063 594.542 360.931 594.548C359.666 594.839 358.516 595.5 357.628 596.447Z" fill="#407BFF"/>
<path d="M463.068 635.155C461.898 635.147 460.731 635.039 459.58 634.831C459.523 634.82 459.471 634.789 459.435 634.744C459.398 634.699 459.379 634.642 459.38 634.584C459.371 634.531 459.378 634.476 459.4 634.427C459.422 634.377 459.458 634.336 459.503 634.306C459.673 634.214 463.623 631.944 465.521 632.469C465.697 632.509 465.863 632.584 466.009 632.69C466.155 632.796 466.278 632.931 466.37 633.086C466.491 633.258 466.556 633.463 466.556 633.673C466.556 633.883 466.491 634.088 466.37 634.26C465.922 634.955 464.518 635.155 463.068 635.155ZM460.46 634.43C462.558 634.739 465.428 634.723 465.953 633.982C466.03 633.889 466.092 633.719 465.953 633.395C465.835 633.203 465.647 633.065 465.428 633.009C464.225 632.7 461.833 633.719 460.46 634.43Z" fill="#407BFF"/>
<path d="M459.642 634.847C459.592 634.861 459.538 634.861 459.488 634.847C459.445 634.819 459.412 634.779 459.393 634.732C459.373 634.685 459.369 634.634 459.38 634.584C459.485 632.977 460.101 631.445 461.139 630.215C461.349 630.033 461.596 629.899 461.862 629.822C462.128 629.745 462.408 629.726 462.682 629.767C463.423 629.767 463.639 630.214 463.685 630.508C463.886 631.789 461.185 634.244 459.812 634.862L459.642 634.847ZM462.405 630.215C462.065 630.212 461.736 630.333 461.479 630.554C460.606 631.529 460.066 632.757 459.936 634.059C461.324 633.21 463.176 631.295 463.022 630.523C463.022 630.523 463.022 630.261 462.497 630.215H462.405Z" fill="#407BFF"/>
<path d="M447.174 634.569H458.516L459.642 608.305H448.3L447.174 634.569Z" fill="#E4897B"/>
<path d="M346.178 589.484L355.653 595.691L376.577 578.012L367.087 571.79L346.178 589.484Z" fill="#E4897B"/>
<path d="M357.212 595.104L347.367 587.029C347.193 586.886 346.974 586.808 346.749 586.808C346.524 586.808 346.306 586.886 346.132 587.029L338.015 593.406C337.819 593.562 337.661 593.76 337.552 593.986C337.443 594.212 337.387 594.459 337.387 594.71C337.387 594.961 337.443 595.209 337.552 595.434C337.661 595.66 337.819 595.859 338.015 596.015C341.503 598.779 343.339 599.952 347.675 603.503C350.345 605.68 356.934 612.35 360.653 615.361C364.371 618.372 367.782 615.13 366.547 613.57C361.008 606.545 358.832 600.539 358.199 596.818C358.09 596.145 357.739 595.536 357.212 595.104Z" fill="#263238"/>
<path d="M458.438 633.256H446.094C445.868 633.257 445.65 633.334 445.474 633.474C445.297 633.614 445.173 633.809 445.121 634.028L442.884 644.111C442.828 644.355 442.828 644.609 442.884 644.853C442.941 645.097 443.052 645.326 443.209 645.521C443.367 645.716 443.567 645.872 443.794 645.978C444.021 646.084 444.269 646.137 444.52 646.133C448.979 646.056 455.429 645.794 461.046 645.794C467.604 645.794 473.283 646.149 480.968 646.149C485.597 646.149 486.924 641.44 484.964 641.023C476.107 639.077 468.854 638.876 461.2 634.136C460.379 633.592 459.423 633.288 458.438 633.256Z" fill="#263238"/>
<path d="M390.959 284.096C381.13 288.728 375.528 319.762 375.528 319.762L399.554 329.351C403.071 320.758 405.914 311.905 408.057 302.871C411.359 288.574 401.02 279.31 390.959 284.096Z" fill="#263238"/>
<path d="M403.705 301.59C397.764 307.611 395.049 319.407 393.86 327.081L399.616 329.382C403.033 321.033 405.818 312.44 407.949 303.674C407.44 300.401 406.174 299.088 403.705 301.59Z" fill="#203048"/>
<path d="M456.51 283.88C456.51 283.88 468.577 297.529 457.189 381.924H396.561C396.144 372.66 401.993 327.189 393.012 283.309C399.712 282.009 406.491 281.152 413.303 280.745C421.886 280.236 430.491 280.236 439.073 280.745C444.958 281.338 450.787 282.386 456.51 283.88Z" fill="#263238"/>
<path d="M462.049 316.644L451.834 299.027C449.862 307.246 449.057 315.703 449.442 324.148C449.72 330.2 455.26 352.619 460.244 355.892C461.567 342.852 462.169 329.75 462.049 316.644Z" fill="#203048"/>
<path d="M463.469 295.938C465.012 303.442 466.555 311.131 468.206 318.666C469.857 326.201 471.57 333.766 473.561 341.07C474.07 342.876 474.548 344.729 475.104 346.458L475.52 347.786L475.721 348.45V348.373C475.613 348.234 475.49 348.218 475.582 348.373C476.216 349.066 477.027 349.573 477.928 349.84C479.386 350.383 480.889 350.801 482.418 351.09C489.714 352.247 497.1 352.728 504.484 352.526L505.95 360.925C503.882 361.589 501.954 362.068 499.917 362.547C497.88 363.025 495.874 363.427 493.822 363.736C489.575 364.443 485.27 364.732 480.968 364.6C478.576 364.536 476.197 364.225 473.869 363.674C470.909 363.026 468.127 361.734 465.722 359.891C464.15 358.622 462.854 357.046 461.91 355.259C461.663 354.796 461.447 354.271 461.247 353.823L460.969 353.097L460.398 351.553C459.611 349.592 458.963 347.662 458.253 345.732C455.645 338.012 453.47 330.215 451.556 322.434C449.643 314.652 447.992 306.885 446.618 298.903L463.469 295.938Z" fill="#E4897B"/>
<path d="M441.372 292.156C438.178 302.516 451.124 333.411 451.124 333.411L476.91 326.927C476.91 326.927 475.922 310.869 470.043 298.131C461.186 278.924 445.199 279.726 441.372 292.156Z" fill="#263238"/>
<path d="M504.269 352.526L517.107 352.202L510.935 365.573C510.935 365.573 505.704 366.268 501.414 359.212L496.893 353.808L502.093 352.773C502.809 352.622 503.537 352.54 504.269 352.526Z" fill="#E4897B"/>
<path d="M525.208 354.688L517.863 365.774L510.935 365.573L517.107 352.202L525.208 354.688Z" fill="#E4897B"/>
<path d="M459.642 608.305L459.056 621.846H447.714L448.3 608.305H459.642Z" fill="#CE6F64"/>
<path d="M367.087 571.79L376.577 578.012L365.775 587.122L356.301 580.915L367.087 571.79Z" fill="#CE6F64"/>
<path d="M416.574 242.84C417.253 254.065 417.084 260.689 422.747 266.448C431.265 275.141 445.137 269.999 447.822 258.728C450.245 248.63 448.733 231.955 437.746 227.478C435.322 226.498 432.688 226.152 430.094 226.47C427.499 226.788 425.027 227.76 422.911 229.296C420.794 230.832 419.103 232.88 417.994 235.249C416.886 237.619 416.397 240.231 416.574 242.84Z" fill="#E4897B"/>
<path d="M403.365 240.864C406.158 251.101 412.732 262.897 421.235 263.654C431.789 264.58 436.558 253.664 437.946 242.393C444.273 238.054 440.955 233.283 447.297 232.681C455.445 231.909 452.837 216.994 442.113 214.601C442.113 214.601 445.708 221.317 438.162 217.92C430.986 214.508 423.014 213.125 415.108 213.921C415.108 213.921 424.737 218.739 415.324 220.885C405.912 223.031 403.103 228.836 407.439 232.341C407.439 232.357 401.529 234.132 403.365 240.864Z" fill="#263238"/>
<path d="M431.512 244.709C431.719 247.499 432.842 250.142 434.706 252.228C437.175 254.961 439.752 253.262 440.184 249.943C440.585 246.963 439.767 241.945 436.743 240.432C433.718 238.919 431.311 241.343 431.512 244.709Z" fill="#E4897B"/>
<path d="M435.678 381.924C435.678 381.924 446.727 461.98 438.023 494.065C424.228 544.862 371.485 587.739 371.485 587.739L353.601 576.005C353.601 576.005 398.52 539.798 404.014 497.261C408.951 459.078 396.56 412.897 396.56 381.908L435.678 381.924Z" fill="#C3C4BE"/>
<path opacity="0.1" d="M435.678 381.924C435.678 381.924 446.727 461.98 438.023 494.065C424.228 544.862 371.485 587.739 371.485 587.739L353.601 576.005C353.601 576.005 398.52 539.798 404.014 497.261C408.951 459.078 396.56 412.897 396.56 381.908L435.678 381.924Z" fill="black"/>
<path d="M440.245 427.688C437.304 424.316 434.066 421.216 430.57 418.424C432.453 444.41 433.996 482.902 432.283 510.246C434.586 505.004 436.505 499.601 438.023 494.08C442.267 478.408 441.819 451.342 440.245 427.688Z" fill="#C8BAA0"/>
<path opacity="0.3" d="M440.245 427.688C437.304 424.316 434.066 421.216 430.57 418.424C432.453 444.41 433.996 482.902 432.283 510.246C434.586 505.004 436.505 499.601 438.023 494.08C442.267 478.408 441.819 451.342 440.245 427.688Z" fill="black"/>
<path d="M378.692 583.74C378.769 583.74 371.763 588.372 371.763 588.372L352.228 575.557L358.4 570.446L378.692 583.74Z" fill="#C8BAA0"/>
<path opacity="0.3" d="M378.692 583.74C378.769 583.74 371.763 588.372 371.763 588.372L352.228 575.557L358.4 570.446L378.692 583.74Z" fill="black"/>
<path d="M457.188 381.924C457.188 381.924 474.255 454.337 475.459 488.939C476.816 527.724 463.284 619.221 463.284 619.221H444.072C444.072 619.221 441.711 527.014 440.862 491.687C439.921 453.164 417.33 381.924 417.33 381.924H457.188Z" fill="#C3C4BE"/>
<path opacity="0.1" d="M457.188 381.924C457.188 381.924 474.255 454.337 475.459 488.939C476.816 527.724 463.284 619.221 463.284 619.221H444.072C444.072 619.221 441.711 527.014 440.862 491.687C439.921 453.164 417.33 381.924 417.33 381.924H457.188Z" fill="black"/>
<path d="M466.972 611.579C467.064 611.579 465.892 619.546 465.892 619.546H442.529L441.896 612.428L466.972 611.579Z" fill="#C8BAA0"/>
<path opacity="0.3" d="M466.972 611.579C467.064 611.579 465.892 619.546 465.892 619.546H442.529L441.896 612.428L466.972 611.579Z" fill="black"/>
<path d="M752.568 312.336C753.88 313.571 754.914 314.621 755.994 315.794C757.074 316.968 758.092 318.11 759.08 319.299C761.086 321.661 762.969 324.147 764.79 326.649C768.426 331.666 771.661 336.963 774.465 342.49L775.036 343.617C775.314 344.163 775.547 344.731 775.73 345.316C776.103 346.445 776.331 347.618 776.409 348.805C776.509 350.898 776.222 352.992 775.56 354.981C774.433 358.284 772.759 361.374 770.607 364.121C766.729 369.104 762.156 373.503 757.028 377.184L753.185 372.768C754.991 370.653 756.873 368.383 758.555 366.113C760.267 363.914 761.814 361.592 763.185 359.165C764.465 357.048 765.412 354.746 765.993 352.341C766.193 351.48 766.229 350.59 766.101 349.716C766.046 349.422 765.953 349.136 765.823 348.867C765.766 348.748 765.699 348.635 765.623 348.527L765.129 347.693C762.153 342.838 758.923 338.143 755.454 333.627C753.741 331.358 751.905 329.181 750.053 327.035C749.143 325.954 748.201 324.904 747.26 323.854C746.319 322.804 745.3 321.754 744.482 320.936L752.568 312.336Z" fill="#E4897B"/>
<path d="M754.667 371.471L743.14 369.587L749.173 379.685C749.173 379.685 756.595 379.422 758.71 375.053L754.667 371.471Z" fill="#E4897B"/>
<path d="M734.622 374.25L740.115 382.449L749.173 379.685L743.14 369.587L734.622 374.25Z" fill="#E4897B"/>
<path d="M754.112 635.016C753.328 635.084 752.546 634.87 751.905 634.414C751.712 634.231 751.569 634.002 751.49 633.747C751.412 633.493 751.401 633.223 751.457 632.963C751.469 632.797 751.525 632.637 751.62 632.501C751.715 632.365 751.846 632.258 751.997 632.191C753.34 631.589 756.858 633.843 757.259 634.105C757.305 634.133 757.341 634.176 757.36 634.226C757.38 634.276 757.382 634.331 757.367 634.383C757.362 634.436 757.339 634.486 757.303 634.525C757.267 634.563 757.219 634.59 757.167 634.599C756.167 634.853 755.142 634.993 754.112 635.016ZM752.568 632.623C752.456 632.606 752.341 632.606 752.229 632.623C752.161 632.655 752.103 632.705 752.063 632.767C752.022 632.83 751.999 632.903 751.997 632.978C751.957 633.15 751.961 633.33 752.009 633.501C752.058 633.671 752.15 633.826 752.275 633.951C752.862 634.476 754.374 634.553 756.395 634.152C755.237 633.386 753.935 632.866 752.568 632.623Z" fill="#407BFF"/>
<path d="M757.197 634.584H757.058C755.963 633.951 753.849 631.496 754.111 630.153C754.161 629.941 754.278 629.751 754.445 629.612C754.612 629.473 754.82 629.392 755.037 629.381C755.245 629.351 755.458 629.368 755.658 629.433C755.859 629.497 756.042 629.606 756.194 629.751C757.46 630.863 757.475 634.198 757.475 634.383C757.472 634.43 757.458 634.476 757.434 634.516C757.41 634.556 757.376 634.59 757.336 634.615L757.197 634.584ZM755.222 629.952H755.099C754.759 629.952 754.682 630.137 754.651 630.276C754.497 631.064 755.809 632.947 756.904 633.827C756.931 632.532 756.559 631.26 755.839 630.184C755.747 630.097 755.637 630.032 755.517 629.992C755.398 629.952 755.271 629.938 755.145 629.952H755.222Z" fill="#407BFF"/>
<path d="M701.523 635.016C700.538 635.11 699.551 634.859 698.73 634.306C698.545 634.142 698.402 633.935 698.313 633.704C698.225 633.473 698.193 633.224 698.221 632.978C698.231 632.828 698.278 632.683 698.359 632.556C698.44 632.429 698.552 632.325 698.684 632.252C700.119 631.449 704.717 633.796 705.242 634.09C705.29 634.121 705.328 634.165 705.353 634.217C705.377 634.269 705.387 634.326 705.381 634.383C705.372 634.437 705.346 634.487 705.307 634.526C705.269 634.565 705.219 634.59 705.165 634.599C703.967 634.854 702.747 634.994 701.523 635.016ZM699.471 632.623C699.294 632.611 699.118 632.649 698.961 632.731C698.906 632.757 698.859 632.799 698.826 632.851C698.793 632.903 698.776 632.963 698.776 633.024C698.753 633.185 698.768 633.349 698.822 633.503C698.876 633.656 698.966 633.794 699.085 633.905C699.795 634.538 701.693 634.646 704.254 634.213C702.761 633.417 701.143 632.88 699.471 632.623Z" fill="#407BFF"/>
<path d="M705.118 634.584H704.994C703.621 633.967 700.89 631.496 701.106 630.153C701.106 629.844 701.384 629.458 702.14 629.381C702.416 629.351 702.695 629.378 702.961 629.461C703.226 629.543 703.472 629.679 703.683 629.859C705.133 631.064 705.411 634.183 705.411 634.322C705.417 634.369 705.41 634.417 705.391 634.46C705.372 634.504 705.342 634.541 705.303 634.569C705.245 634.594 705.18 634.599 705.118 634.584ZM702.356 629.952H702.186C701.692 629.952 701.661 630.199 701.646 630.261C701.522 631.048 703.374 633.009 704.732 633.858C704.598 632.539 704.059 631.293 703.189 630.292C702.955 630.092 702.663 629.973 702.356 629.952Z" fill="#407BFF"/>
<path d="M723.358 276.839C722.91 283.818 721.706 297.992 727.061 301.914C727.061 301.914 726.089 309.062 713.451 310.73C699.563 312.536 705.905 304.693 705.905 304.693C713.266 301.883 712.324 296.278 710.318 291.152L723.358 276.839Z" fill="#E4897B"/>
<path d="M694.609 264.503C694.533 264.503 694.458 264.486 694.388 264.454C694.319 264.422 694.258 264.376 694.208 264.317C693.767 263.794 693.209 263.381 692.579 263.113C691.949 262.845 691.265 262.728 690.582 262.773C690.51 262.787 690.436 262.785 690.364 262.768C690.293 262.752 690.225 262.721 690.166 262.678C690.107 262.635 690.057 262.58 690.02 262.516C689.983 262.453 689.959 262.383 689.949 262.31C689.932 262.165 689.972 262.019 690.062 261.903C690.151 261.787 690.283 261.712 690.428 261.693C691.299 261.619 692.175 261.757 692.981 262.096C693.787 262.435 694.5 262.964 695.057 263.638C695.124 263.719 695.167 263.816 695.18 263.92C695.194 264.024 695.178 264.129 695.135 264.225C695.091 264.32 695.022 264.401 694.934 264.458C694.847 264.515 694.745 264.547 694.64 264.549L694.609 264.503Z" fill="#263238"/>
<path d="M692.203 271.343C691.655 273.557 690.809 275.687 689.688 277.673C690.203 277.95 690.772 278.111 691.357 278.143C691.941 278.175 692.525 278.078 693.067 277.858L692.203 271.343Z" fill="#DE5753"/>
<path d="M692.819 269.644C692.943 270.571 692.557 271.373 691.955 271.466C691.353 271.559 690.752 270.849 690.644 269.922C690.536 268.996 690.906 268.193 691.508 268.116C692.11 268.038 692.711 268.656 692.819 269.644Z" fill="#263238"/>
<path d="M691.786 268.131L689.486 267.776C689.486 267.776 690.844 269.366 691.786 268.131Z" fill="#263238"/>
<path d="M717.833 634.337H706.26L705.488 607.549H717.062L717.833 634.337Z" fill="#E4897B"/>
<path d="M770.376 634.337H758.803L755.084 607.549H766.657L770.376 634.337Z" fill="#E4897B"/>
<path d="M758.092 633.04H771.085C771.307 633.038 771.521 633.117 771.689 633.262C771.857 633.407 771.966 633.608 771.996 633.828L773.539 644.126C773.567 644.386 773.54 644.648 773.46 644.897C773.379 645.145 773.248 645.374 773.073 645.568C772.898 645.762 772.684 645.917 772.445 646.022C772.206 646.127 771.948 646.181 771.687 646.179C767.166 646.102 764.974 645.84 759.265 645.84C755.747 645.84 750.608 646.195 745.763 646.195C740.918 646.195 740.655 641.393 742.677 640.961C751.735 639.015 753.17 636.329 756.21 633.75C756.74 633.31 757.403 633.06 758.092 633.04Z" fill="#263238"/>
<path d="M705.874 633.04H718.851C719.075 633.038 719.291 633.116 719.461 633.261C719.632 633.405 719.744 633.607 719.777 633.828L721.32 644.126C721.349 644.386 721.322 644.648 721.241 644.897C721.161 645.145 721.029 645.374 720.854 645.568C720.68 645.762 720.466 645.917 720.227 646.022C719.988 646.127 719.73 646.181 719.469 646.18C714.947 646.102 712.756 645.84 707.047 645.84C703.528 645.84 696.245 646.195 691.4 646.195C686.554 646.195 686.292 641.393 688.313 640.961C697.371 639.015 700.936 636.329 703.991 633.75C704.522 633.31 705.185 633.06 705.874 633.04Z" fill="#263238"/>
<path d="M705.488 607.549L705.89 621.367H717.463L717.061 607.549H705.488Z" fill="#CE6F64"/>
<path d="M766.657 607.549H755.084L757.013 621.367H768.571L766.657 607.549Z" fill="#CE6F64"/>
<path d="M723.512 262.387C724.299 273.844 724.87 278.677 719.901 285.27C712.417 295.167 698.189 293.638 693.992 282.645C690.212 272.748 689.564 255.687 700.087 249.696C702.403 248.368 705.018 247.654 707.687 247.622C710.355 247.59 712.987 248.24 715.333 249.512C717.68 250.783 719.663 252.633 721.094 254.887C722.525 257.14 723.358 259.722 723.512 262.387Z" fill="#E4897B"/>
<path d="M730.178 273.026C736.597 276.608 741.365 267.776 741.365 267.776C741.365 267.776 729.854 269.027 730.888 262.171C732.245 253.077 725.734 242.022 709.408 243.442C708.497 243.52 707.633 243.628 706.784 243.767C705.075 242.956 703.142 242.747 701.299 243.173C699.457 243.599 697.811 244.635 696.631 246.114C692.001 246.5 685.752 252.027 689.995 259.33C690.293 258.491 690.755 257.72 691.353 257.061C691.708 261.337 695.443 268.131 700.103 268.579C701.106 274.431 697.217 281.209 698.56 287.323C700.55 296.139 715.41 298.131 715.41 298.131C714.898 297.03 714.707 295.806 714.86 294.602C715.013 293.397 715.503 292.26 716.274 291.322C726.366 295.954 733.017 291.43 733.017 291.43C726.135 288.867 728.218 284.297 728.218 284.297C730.594 285.352 733.287 285.445 735.73 284.555C738.173 283.666 740.177 281.863 741.319 279.526C739.033 279.634 736.764 279.078 734.787 277.925C732.81 276.771 731.209 275.07 730.178 273.026Z" fill="#263238"/>
<path d="M704.131 270.339C704.158 271.438 703.967 272.532 703.57 273.558C703.173 274.583 702.577 275.52 701.816 276.314C699.779 278.429 697.279 276.947 696.6 274.245C695.998 271.806 696.338 267.776 698.992 266.664C699.576 266.434 700.208 266.354 700.831 266.432C701.454 266.509 702.048 266.74 702.558 267.105C703.069 267.471 703.48 267.958 703.755 268.522C704.029 269.087 704.159 269.711 704.131 270.339Z" fill="#E4897B"/>
<path d="M713.744 377.076C713.744 377.076 716.676 453.288 723.651 498.033C729.268 534.193 754.22 618.681 754.22 618.681H769.99C769.99 618.681 756.982 537.08 754.127 501.337C746.905 410.874 765.654 391.45 747.955 372.614L713.744 377.076Z" fill="#263238"/>
<path d="M726.922 401.177C726.922 401.177 719.793 399.942 715.627 413.529C717.17 439.268 719.809 473.421 723.651 498.033C724.5 503.514 725.796 510.122 727.385 517.363C724.376 473.884 726.922 401.177 726.922 401.177Z" fill="#161F33"/>
<path d="M701.445 378.682C701.445 378.682 688.452 462.999 689.209 498.28C689.996 534.981 703.436 618.712 703.436 618.712H719.067C719.067 618.712 716.598 537.158 717.972 501.121C719.515 461.826 735.548 374.25 735.548 374.25L701.445 378.682Z" fill="#263238"/>
<path d="M772.273 619.422H751.303L749.667 612.381L772.119 612.536L772.273 619.422Z" fill="black"/>
<path opacity="0.2" d="M772.273 619.422H751.303L749.667 612.381L772.119 612.536L772.273 619.422Z" fill="black"/>
<path d="M747.168 301.929C753.201 302.516 762.367 319.67 762.367 319.67L747.137 331.358C747.137 331.358 734.53 320.287 736.027 314.065C737.585 307.596 741.381 301.389 747.168 301.929Z" fill="#26A5B8"/>
<path opacity="0.1" d="M747.168 301.929C753.201 302.516 762.367 319.67 762.367 319.67L747.137 331.358C747.137 331.358 734.53 320.287 736.027 314.065C737.585 307.596 741.381 301.389 747.168 301.929Z" fill="black"/>
<path d="M742.615 309.309C741.077 308.895 739.485 308.718 737.893 308.784C737.083 310.473 736.457 312.243 736.026 314.065C734.483 320.241 747.136 331.358 747.136 331.358L748.263 330.493L742.615 309.309Z" fill="#26A5B8"/>
<path opacity="0.3" d="M742.615 309.309C741.077 308.895 739.485 308.718 737.893 308.784C737.083 310.473 736.457 312.243 736.026 314.065C734.483 320.241 747.136 331.358 747.136 331.358L748.263 330.493L742.615 309.309Z" fill="black"/>
<path d="M696.276 325.784C691.878 336.916 687.249 348.234 683.561 359.397C683.314 360.107 683.114 360.787 682.898 361.481L682.373 363.195C682.23 363.7 682.23 364.235 682.373 364.739C683.244 366.67 684.626 368.325 686.37 369.526C690.983 372.838 696.01 375.532 701.322 377.539L699.933 383.221C693.399 382.359 687.079 380.296 681.293 377.138C677.732 375.234 674.832 372.295 672.975 368.707C671.91 366.414 671.539 363.859 671.911 361.358C671.946 361.052 671.997 360.748 672.065 360.447L672.219 359.798L672.482 358.625C672.667 357.838 672.852 357.081 673.053 356.309C674.596 350.133 676.571 344.266 678.654 338.445C680.737 332.624 682.913 326.88 685.367 321.152L696.276 325.784Z" fill="#E4897B"/>
<path d="M686.91 310.159C686.91 310.159 681.694 312.799 701.446 378.681L748.017 372.598C744.745 353.73 743.202 342.042 747.168 301.929C740.49 301.451 733.786 301.451 727.108 301.929C719.998 302.343 712.928 303.272 705.952 304.708C697.017 306.7 686.91 310.159 686.91 310.159Z" fill="#26A5B8"/>
<path opacity="0.1" d="M686.91 310.159C686.91 310.159 681.694 312.799 701.446 378.681L748.017 372.598C744.745 353.73 743.202 342.042 747.168 301.929C740.49 301.451 733.786 301.451 727.108 301.929C719.998 302.343 712.928 303.272 705.952 304.708C697.017 306.7 686.91 310.159 686.91 310.159Z" fill="black"/>
<path d="M748.356 369.772L751.026 373.648C751.226 373.957 750.887 374.327 750.362 374.404L701.523 380.797C701.107 380.797 700.721 380.689 700.659 380.426L699.702 376.304C699.625 376.026 699.965 375.732 700.428 375.671L747.585 369.495C747.726 369.472 747.871 369.485 748.006 369.534C748.141 369.583 748.262 369.665 748.356 369.772Z" fill="#407BFF"/>
<path opacity="0.2" d="M748.356 369.772L751.026 373.648C751.226 373.957 750.887 374.327 750.362 374.404L701.523 380.797C701.107 380.797 700.721 380.689 700.659 380.426L699.702 376.304C699.625 376.026 699.965 375.732 700.428 375.671L747.585 369.495C747.726 369.472 747.871 369.485 748.006 369.534C748.141 369.583 748.262 369.665 748.356 369.772Z" fill="black"/>
<path d="M742.708 375.871L743.974 375.702C744.221 375.702 744.39 375.516 744.359 375.362L743.063 370.02C743.014 369.928 742.935 369.857 742.84 369.818C742.744 369.778 742.638 369.773 742.539 369.803L741.273 369.958C741.011 369.958 740.841 370.143 740.887 370.313L742.184 375.64C742.215 375.81 742.461 375.902 742.708 375.871Z" fill="#263238"/>
<path d="M712.093 379.824L713.358 379.654C713.605 379.654 713.79 379.469 713.744 379.314L712.448 373.972C712.397 373.882 712.318 373.811 712.224 373.769C712.129 373.727 712.024 373.717 711.923 373.741L710.658 373.91C710.411 373.91 710.225 374.096 710.272 374.25L711.568 379.592C711.599 379.824 711.846 379.917 712.093 379.824Z" fill="#263238"/>
<path d="M689.085 332.516C690.366 338.476 692.171 346.026 694.81 355.583L695.381 331.358L689.085 332.516Z" fill="#407BFF"/>
<path opacity="0.3" d="M689.085 332.516C690.366 338.476 692.171 346.026 694.81 355.583L695.381 331.358L689.085 332.516Z" fill="black"/>
<path d="M686.909 310.159C681.123 312.49 676.107 332.3 676.107 332.3L696.013 341.996C696.013 341.996 705.627 317.771 701.322 313.046C697.016 308.321 693.575 307.488 686.909 310.159Z" fill="#26A5B8"/>
<path opacity="0.1" d="M686.909 310.159C681.123 312.49 676.107 332.3 676.107 332.3L696.013 341.996C696.013 341.996 705.627 317.771 701.322 313.046C697.016 308.321 693.575 307.488 686.909 310.159Z" fill="black"/>
<path d="M721.737 619.422H700.767L699.131 612.381L722.478 612.536L721.737 619.422Z" fill="black"/>
<path opacity="0.2" d="M721.737 619.422H700.767L699.131 612.381L722.478 612.536L721.737 619.422Z" fill="black"/>
<path d="M701.646 375.624L699.964 374.929C699.551 374.761 699.1 374.705 698.658 374.768C698.216 374.83 697.799 375.008 697.448 375.284C697.097 375.56 696.825 375.924 696.66 376.339C696.495 376.754 696.442 377.205 696.508 377.647L697.727 385.691C697.785 386.094 697.933 386.478 698.158 386.817C698.383 387.156 698.681 387.44 699.029 387.65C699.377 387.86 699.768 387.99 700.173 388.03C700.577 388.07 700.986 388.02 701.369 387.884C701.981 387.661 702.553 387.343 703.066 386.942C703.624 386.479 704.066 385.891 704.355 385.226C704.645 384.561 704.774 383.837 704.733 383.113L704.563 379.778C704.534 378.876 704.242 378.003 703.724 377.266C703.206 376.528 702.484 375.957 701.646 375.624Z" fill="#E4897B"/>
</svg>
