<svg width="348" height="360" viewBox="0 0 348 360" fill="none" xmlns="http://www.w3.org/2000/svg">
<path d="M338.232 304.516L283.253 247.703C275.776 239.977 265.66 237.25 255.983 239.068L236.631 219.07C253.784 196.344 263.9 167.256 263.9 136.35C263.9 61.3577 204.523 0 131.95 0C59.3776 0 0 61.3577 0 136.35C0 211.343 59.3776 272.701 131.95 272.701C161.859 272.701 189.568 262.247 212 244.522L231.353 264.52C229.593 274.519 232.232 284.973 239.709 292.699L294.689 349.512C300.846 355.875 308.763 359.056 316.68 359.056C324.597 359.056 332.514 355.875 338.672 349.512C350.108 336.786 350.108 316.788 338.231 304.516H338.232ZM131.51 244.976C73.4524 244.976 25.9503 195.89 25.9503 135.896C25.9503 75.9016 73.4524 26.8155 131.51 26.8155C189.568 26.8155 237.07 75.9016 237.07 135.896C237.07 195.89 189.568 244.976 131.51 244.976Z" fill="#999999"/>
<path d="M165.467 168.487C160.63 168.487 156.708 164.009 156.708 158.486C156.708 152.963 160.63 148.485 165.467 148.485C170.305 148.485 174.227 152.963 174.227 158.486C174.227 164.009 170.305 168.487 165.467 168.487Z" fill="#808080"/>
<path d="M92.8891 168.487C88.0514 168.487 84.1298 164.009 84.1298 158.486C84.1298 152.963 88.0514 148.485 92.8891 148.485C97.7268 148.485 101.648 152.963 101.648 158.486C101.648 164.009 97.7268 168.487 92.8891 168.487Z" fill="#808080"/>
<path d="M115.413 98.4814H185.488V132.77H115.413V98.4814Z" fill="#808080"/>
<path d="M105.403 112.768H97.8952C95.6428 112.768 93.6407 114.483 93.1401 116.912L90.6374 126.77C90.6374 126.912 90.5122 126.912 90.5122 127.055H105.403V112.768ZM97.8952 107.054H110.409V127.055V135.628V158.487H105.403C105.403 150.629 99.7722 144.2 92.8899 144.2C86.0075 144.2 80.3764 150.629 80.3764 158.487C77.6235 158.487 75.3711 155.915 75.3711 152.772V138.485C75.3711 136.628 76.1219 135.056 77.3732 133.913L84.0053 128.198C84.8812 127.484 85.5069 126.341 85.7572 125.198L88.2598 115.34C89.5112 110.483 93.5155 107.054 97.8952 107.054V107.054Z" fill="#808080"/>
<path d="M115.414 158.486H152.954C152.954 150.629 158.585 144.2 165.468 144.2C172.35 144.2 177.981 150.629 177.981 158.486H185.489V138.485H115.414V158.486Z" fill="#808080"/>
</svg>
