<svg width="348" height="360" viewBox="0 0 348 360" fill="none" xmlns="http://www.w3.org/2000/svg">
<path d="M338.232 304.516L283.253 247.703C275.776 239.977 265.66 237.25 255.983 239.068L236.631 219.07C253.784 196.344 263.9 167.256 263.9 136.35C263.9 61.3577 204.523 0 131.95 0C59.3776 0 0 61.3577 0 136.35C0 211.343 59.3776 272.701 131.95 272.701C161.859 272.701 189.568 262.247 212 244.522L231.353 264.52C229.593 274.519 232.232 284.973 239.709 292.699L294.689 349.512C300.846 355.875 308.763 359.056 316.68 359.056C324.597 359.056 332.514 355.875 338.672 349.512C350.108 336.786 350.108 316.788 338.231 304.516H338.232ZM131.51 244.976C73.4524 244.976 25.9503 195.89 25.9503 135.896C25.9503 75.9016 73.4524 26.8155 131.51 26.8155C189.568 26.8155 237.07 75.9016 237.07 135.896C237.07 195.89 189.568 244.976 131.51 244.976Z" fill="#999999"/>
<path d="M182.009 198.433C178.353 201.519 174.169 203.373 169.814 204.863C160.728 207.971 151.611 210.989 142.523 214.094C136.199 216.254 129.799 216.415 123.331 214.971C113.961 212.879 104.6 210.753 95.2424 208.607C94.1445 208.355 93.392 208.413 92.8734 209.593C91.3133 213.144 88.3684 214.699 84.6583 214.791C80.13 214.902 75.5967 214.85 71.0661 214.811C69.0429 214.794 68.2183 213.964 68.0624 211.922C67.9836 210.89 68.003 209.849 68.0028 208.812C67.9996 192.326 68.0002 175.839 68.0012 159.352C68.0012 158.807 67.9921 158.26 68.0242 157.715C68.1519 155.552 68.8019 154.896 70.9531 154.887C75.7024 154.866 80.4521 154.854 85.2013 154.89C88.9372 154.919 91.8524 156.894 93.1099 160.406C93.5929 161.755 94.1325 162.263 95.6569 162.146C102.664 161.608 109.676 161.061 116.697 160.816C124.899 160.53 132.495 163.051 139.877 166.392C145.243 168.821 150.664 171.13 156.073 173.463C157.7 174.165 159.204 175.054 160.378 176.367C161.204 177.291 161.942 177.289 162.945 176.733C169.003 173.373 175.072 170.034 181.151 166.712C188.139 162.894 195.089 159.002 202.154 155.33C207.193 152.711 213.4 154.511 216.289 159.131C219.322 163.981 218.234 170.541 213.735 174.018C203.207 182.154 192.65 190.252 182.009 198.433Z" fill="#808080"/>
<path d="M121.737 153.238C119.226 153.237 116.879 153.253 114.532 153.231C111.25 153.2 109.336 151.355 109.308 148.057C109.26 142.381 109.293 136.704 109.292 131.027C109.292 124.75 109.298 118.472 109.29 112.195C109.286 109.904 109.191 109.817 106.94 109.646C104.701 109.475 103.844 108.427 104.524 106.262C106.062 101.369 107.74 96.5211 109.369 91.6575C109.721 90.604 110.491 90.0671 111.589 90.04C112.898 90.0077 114.208 90.0054 115.518 90.0053C136.643 90.0028 157.767 90.0017 178.892 90.003C182.375 90.0032 182.412 90.0392 183.512 93.3394C184.84 97.3255 186.197 101.302 187.499 105.297C188.518 108.422 187.897 109.403 184.649 109.65C183.06 109.77 183.01 110.759 183.01 111.921C183.01 120.49 183.001 129.06 182.998 137.63C182.997 141.615 183.02 145.599 183.002 149.584C182.988 152.674 182.43 153.233 179.38 153.234C160.22 153.24 141.061 153.238 121.737 153.238Z" fill="#808080"/>
<path d="M132.619 184.969C127.837 183.556 123.184 182.172 118.526 180.802C118.005 180.649 117.464 180.54 116.925 180.481C115.722 180.351 114.679 180.654 114.39 181.975C114.108 183.258 114.819 184.067 115.998 184.44C118.234 185.146 120.48 185.823 122.731 186.483C131.472 189.047 140.194 191.679 148.966 194.133C157.203 196.438 163.709 190.055 163.013 183.803C162.814 182.01 163.654 181.113 165.199 180.279C175.04 174.973 184.815 169.545 194.621 164.172C197.73 162.468 200.838 160.758 203.998 159.151C206.921 157.665 210.515 158.494 212.243 160.916C214.487 164.061 214.348 167.366 211.648 169.939C208.326 173.106 204.51 175.677 200.891 178.483C193.564 184.164 186.202 189.801 178.887 195.497C175.065 198.474 170.613 200.094 166.115 201.626C158.47 204.229 150.754 206.636 143.18 209.432C136.334 211.96 129.584 212.322 122.494 210.501C113.834 208.277 105.055 206.518 96.3266 204.558C94.0591 204.049 93.895 203.879 93.8918 201.652C93.8761 190.788 93.8667 179.925 93.8672 169.062C93.8673 166.518 93.9719 166.482 96.5374 166.321C103.007 165.916 109.469 165.374 115.943 165.06C122.608 164.736 128.92 166.291 134.994 169.005C141.668 171.986 148.438 174.756 155.07 177.824C159.223 179.745 160.218 184.215 157.483 187.844C155.968 189.854 153.774 190.923 151.305 190.31C146.652 189.155 142.071 187.705 137.461 186.375C135.888 185.921 134.318 185.46 132.619 184.969Z" fill="white"/>
<path d="M72.2591 188.297C72.2599 179.237 72.2565 170.34 72.2636 161.444C72.2656 158.963 72.4094 158.822 74.8413 158.812C77.6794 158.801 80.5178 158.786 83.3557 158.813C87.706 158.853 89.6053 160.696 89.6131 164.994C89.6372 178.257 89.636 191.52 89.6125 204.783C89.6058 208.556 87.579 210.551 83.8507 210.572C80.7397 210.589 77.6285 210.59 74.5176 210.569C72.5025 210.556 72.2723 210.328 72.2675 208.274C72.252 201.669 72.26 195.065 72.2591 188.297Z" fill="white"/>
<path d="M157.496 107.056C157.671 106.826 157.768 106.283 158.017 106.778C158.195 107.133 158.104 107.632 158.105 108.067C158.108 120.782 158.11 133.496 158.105 146.211C158.104 148.876 158.007 148.973 155.331 148.974C142.29 148.979 129.248 148.979 116.206 148.973C113.678 148.972 113.545 148.833 113.544 146.254C113.542 134.958 113.543 123.662 113.548 112.367C113.55 109.788 113.67 109.664 116.216 109.662C128.767 109.655 141.318 109.661 153.868 109.648C156.276 109.645 156.675 109.336 157.496 107.056Z" fill="white"/>
<path d="M178.75 115.232C178.75 125.596 178.751 135.796 178.748 145.997C178.747 148.955 178.726 148.974 175.699 148.976C171.881 148.978 168.062 148.953 164.244 148.978C162.938 148.986 162.366 148.43 162.367 147.114C162.382 133.805 162.376 120.495 162.381 107.185C162.381 106.982 162.442 106.78 162.489 106.484C164.745 110.51 164.473 109.519 168.634 109.645C171.305 109.726 173.981 109.711 176.652 109.647C178.214 109.61 178.842 110.268 178.757 111.796C178.697 112.883 178.748 113.977 178.75 115.232Z" fill="white"/>
<path d="M156.839 95.4215C155.917 98.2853 154.989 101.023 154.126 103.78C153.759 104.955 153.045 105.407 151.834 105.405C138.304 105.387 124.775 105.401 111.245 105.389C109.552 105.388 109.359 105.118 109.857 103.569C110.674 101.025 111.562 98.5041 112.368 95.9566C112.728 94.8174 113.364 94.2578 114.61 94.2598C128.195 94.281 141.779 94.27 155.363 94.2813C156.053 94.2819 156.874 94.2149 156.839 95.4215Z" fill="white"/>
<path d="M166.179 102.897C165.405 100.608 164.664 98.4435 163.951 96.2697C163.405 94.6061 163.602 94.2854 165.291 94.2747C169.377 94.2487 173.464 94.2964 177.551 94.2532C178.843 94.2395 179.556 94.7549 179.937 95.9829C180.713 98.4791 181.587 100.945 182.393 103.432C182.94 105.119 182.769 105.378 181.03 105.389C177.162 105.414 173.29 105.314 169.425 105.437C167.559 105.496 166.536 104.825 166.179 102.897Z" fill="white"/>
<path d="M83.069 166.442C83.0616 168.005 83.0906 169.417 83.0311 170.826C82.9769 172.107 82.266 172.837 80.9584 172.843C79.654 172.85 78.9205 172.136 78.8633 170.852C78.7982 169.389 78.8059 167.921 78.8302 166.456C78.863 164.476 79.5311 163.536 80.8733 163.482C82.2319 163.427 82.9104 164.296 83.069 166.442Z" fill="#808080"/>
<path d="M124.648 126.726C131.767 126.707 138.741 126.698 145.715 126.692C145.987 126.692 146.261 126.698 146.531 126.727C148.221 126.904 149.247 127.778 149.236 129.023C149.226 130.291 148.302 130.931 146.371 130.933C139.07 130.94 131.769 130.933 124.468 130.922C123.28 130.921 122.241 130.589 122.082 129.216C121.933 127.932 122.651 127.181 123.865 126.87C124.075 126.817 124.291 126.782 124.648 126.726Z" fill="#808080"/>
<path d="M149.212 121.136C148.969 122.771 147.941 123.372 146.546 123.376C139.231 123.398 131.916 123.407 124.601 123.366C123.018 123.358 121.93 122.37 122.071 121.161C122.238 119.721 123.239 119.163 124.612 119.163C131.982 119.164 139.352 119.164 146.721 119.165C148.008 119.166 148.963 119.611 149.212 121.136Z" fill="#808080"/>
<path d="M149.321 136.195C149.078 137.829 148.051 138.431 146.655 138.435C139.34 138.456 132.025 138.465 124.71 138.425C123.127 138.416 122.04 137.429 122.18 136.22C122.347 134.779 123.349 134.222 124.722 134.222C132.091 134.223 139.461 134.223 146.831 134.224C148.117 134.224 149.073 134.669 149.321 136.195Z" fill="#808080"/>
<path d="M157.281 79.6572C151.486 79.6572 145.772 79.6563 140.058 79.6587C139.494 79.659 138.937 79.6476 138.408 79.4069C136.92 78.7285 136.364 76.9849 137.148 75.4594C137.672 74.4375 138.173 73.4029 138.71 72.3879C138.915 72.0017 138.943 71.6804 138.74 71.2681C137.243 68.2296 135.763 65.1832 134.307 62.125C134.101 61.6928 133.859 61.5504 133.403 61.5778C132.789 61.6148 132.169 61.565 131.553 61.5948C131.15 61.6143 130.982 61.5159 131.006 61.0723C131.045 60.377 131.034 59.6773 131.009 58.9807C130.997 58.6202 131.126 58.5329 131.471 58.5376C132.839 58.5563 134.208 58.5765 135.575 58.5285C136.064 58.5114 136.154 58.8073 136.295 59.115C137.924 62.6808 139.57 66.239 141.159 69.8228C141.445 70.4671 141.778 70.6519 142.463 70.6448C146.138 70.6066 149.813 70.6131 153.488 70.6411C154.057 70.6454 154.323 70.4615 154.566 69.9537C155.774 67.4313 157.031 64.9321 158.271 62.4246C158.71 61.5362 159.238 61.3293 160.098 61.7092C160.899 62.0627 161.231 62.8848 160.839 63.7144C160.019 65.4521 159.162 67.173 158.318 68.8994C157.72 70.1208 157.061 71.3159 156.538 72.5682C156.185 73.4127 155.612 73.6505 154.785 73.6482C150.708 73.6368 146.63 73.6712 142.553 73.6188C141.753 73.6085 141.345 73.8501 141.065 74.5645C140.795 75.2553 140.422 75.9059 140.08 76.6019C140.311 76.7672 140.553 76.6949 140.772 76.6951C146.271 76.7 151.771 76.7172 157.27 76.6779C158.041 76.6724 158.232 76.914 158.151 77.6094C158.102 78.0329 158.097 78.4728 158.153 78.8946C158.24 79.5507 157.97 79.7607 157.281 79.6572Z" fill="#808080"/>
<rect x="146.223" y="57" width="2.89874" height="12.3196" rx="1.44937" fill="#808080"/>
<rect x="141.512" y="64.6094" width="2.89874" height="12.3196" rx="1.44937" transform="rotate(-90 141.512 64.6094)" fill="#808080"/>
<circle cx="140.153" cy="84.2662" r="2.98932" fill="#808080"/>
<circle cx="155.372" cy="84.2662" r="2.98932" fill="#808080"/>
</svg>
