<svg width="348" height="360" viewBox="0 0 348 360" fill="none" xmlns="http://www.w3.org/2000/svg">
<path d="M338.506 305.322L283.527 248.51C276.05 240.783 265.933 238.056 256.257 239.874L236.904 219.876C254.058 197.151 264.174 168.063 264.174 137.157C264.174 62.1644 204.796 0.806641 132.224 0.806641C59.6511 0.806641 0.273438 62.1644 0.273438 137.157C0.273438 212.15 59.6511 273.507 132.224 273.507C162.132 273.507 189.842 263.054 212.274 245.328L231.626 265.326C229.867 275.325 232.506 285.779 239.983 293.505L294.962 350.318C301.12 356.681 309.037 359.863 316.954 359.863C324.871 359.863 332.788 356.681 338.946 350.318C350.381 337.592 350.381 317.594 338.505 305.322H338.506ZM131.784 245.783C73.7258 245.783 26.2238 196.696 26.2238 136.702C26.2238 76.7083 73.7258 27.6221 131.784 27.6221C189.842 27.6221 237.344 76.7083 237.344 136.702C237.344 196.696 189.842 245.783 131.784 245.783Z" fill="#999999"/>
<path d="M107.023 88.5467C107.96 88.5467 108.726 87.7411 108.726 86.7563C108.726 85.7716 107.96 84.966 107.023 84.966C106.086 84.966 105.32 85.7716 105.32 86.7563C105.32 87.7411 106.086 88.5467 107.023 88.5467ZM121.499 77.8044C123.543 77.8044 125.757 77.9835 127.971 78.3415L140.233 71.5381C140.233 71.5381 140.148 76.7302 138.36 80.669C145.683 82.6385 152.581 84.966 157.264 84.966L169.186 77.8044C169.186 82.728 166.631 90.3371 166.631 90.3371C166.631 90.3371 169.186 97.9462 169.186 102.87L157.264 95.7082C152.581 95.7082 145.683 98.0358 138.36 100.005C140.148 103.944 140.233 109.136 140.233 109.136L127.971 102.333C125.757 102.691 123.543 102.87 121.499 102.87C110.685 102.87 94.25 94.3655 94.25 90.3371C94.25 86.3088 110.685 77.8044 121.499 77.8044Z" fill="#999999"/>
<path d="M150.711 129.612C151.647 129.612 152.414 128.806 152.414 127.822C152.414 126.837 151.647 126.031 150.711 126.031C149.774 126.031 149.008 126.837 149.008 127.822C149.008 128.806 149.774 129.612 150.711 129.612ZM165.187 118.87C167.23 118.87 169.444 119.049 171.658 119.407L183.921 112.604C183.921 112.604 183.836 117.796 182.047 121.734C189.371 123.704 196.268 126.031 200.951 126.031L212.873 118.87C212.873 123.793 210.318 131.403 210.318 131.403C210.318 131.403 212.873 139.012 212.873 143.935L200.951 136.774C196.268 136.774 189.371 139.101 182.047 141.071C183.836 145.009 183.921 150.202 183.921 150.202L171.658 143.398C169.444 143.756 167.23 143.935 165.187 143.935C154.372 143.935 137.938 135.431 137.938 131.403C137.938 127.374 154.372 118.87 165.187 118.87Z" fill="#999999"/>
<path d="M61.9528 129.979C62.8895 129.979 63.6559 129.173 63.6559 128.188C63.6559 127.204 62.8895 126.398 61.9528 126.398C61.0161 126.398 60.2497 127.204 60.2497 128.188C60.2497 129.173 61.0161 129.979 61.9528 129.979ZM76.429 119.237C78.4727 119.237 80.6867 119.416 82.9007 119.774L95.1629 112.97C95.1629 112.97 95.0778 118.162 93.2895 122.101C100.613 124.071 107.51 126.398 112.194 126.398L124.115 119.237C124.115 124.16 121.561 131.769 121.561 131.769C121.561 131.769 124.115 139.378 124.115 144.302L112.194 137.14C107.51 137.14 100.613 139.468 93.2895 141.437C95.0777 145.376 95.1629 150.568 95.1629 150.568L82.9007 143.765C80.6867 144.123 78.4727 144.302 76.429 144.302C65.6144 144.302 49.1797 135.798 49.1797 131.769C49.1797 127.741 65.6144 119.237 76.429 119.237Z" fill="#999999"/>
<path d="M94.1406 203.038C114.534 215.988 144.069 214.543 153.21 200.148C162.352 185.752 193.486 185.323 215.479 199.289" stroke="#A5A5A5" stroke-width="6" stroke-miterlimit="8"/>
<path d="M41.0703 183.928C61.4637 196.878 90.9985 195.433 100.14 181.038C109.281 166.642 140.416 166.213 162.409 180.179" stroke="#A5A5A5" stroke-width="6" stroke-miterlimit="8"/>
</svg>
