<svg width="397" height="273" viewBox="0 0 397 273" fill="none" xmlns="http://www.w3.org/2000/svg">
<path d="M360.151 230.894L325.581 207.849C319.627 202.014 302.373 186.208 294.669 187.581L279.262 166.37C292.919 149.209 300.972 127.243 300.972 103.904C300.972 47.2737 253.699 0.939453 195.922 0.939453C138.143 0.939453 90.8704 47.2737 90.8704 103.904C90.8704 160.535 138.143 206.869 195.922 206.869C219.732 206.869 241.793 198.975 259.652 185.59L282.727 199.164C281.326 206.715 295.694 226.828 301.647 232.663L325.484 264.873C330.387 269.678 336.69 272.08 342.993 272.08C349.296 272.08 355.599 269.678 360.501 264.873C369.606 255.263 369.606 240.161 360.151 230.894H360.151ZM199.223 171.784C153 171.784 90.8704 149.209 90.8704 103.904C90.8704 58.5998 149.934 34.6874 196.156 34.6874C242.378 34.6874 279.612 58.2565 279.612 103.561C279.612 148.866 245.445 171.784 199.223 171.784Z" fill="#B3B3B3"/>
<path d="M133.727 106.656V137.072C133.727 141.803 135.779 146.534 139.883 149.238C148.091 155.997 159.035 160.728 169.978 163.432C175.415 164.897 181.567 166.363 187.916 167.063C190.353 167.331 192.82 167.487 195.286 167.487C203.494 167.487 212.386 166.136 220.594 163.432C231.538 160.728 241.797 155.321 250.689 149.238C254.793 145.859 256.845 141.803 256.845 137.072V106.656H133.727Z" fill="#B3B3B3"/>
<path d="M195.286 98.546C212.285 98.546 226.066 84.9285 226.066 68.1304C226.066 51.3324 212.285 37.7148 195.286 37.7148C178.287 37.7148 164.506 51.3324 164.506 68.1304C164.506 84.9285 178.287 98.546 195.286 98.546Z" fill="#B3B3B3"/>
<path d="M0.582611 76.2402V106.656C0.582611 111.387 2.63459 116.118 6.73853 118.822C14.9464 125.581 25.8903 130.312 36.8342 133.016C42.2712 134.481 48.4226 135.947 54.7721 136.647C57.2092 136.915 59.6755 137.071 62.1419 137.071C70.3498 137.071 79.2417 135.72 87.4496 133.016C98.3934 130.312 108.653 124.905 117.545 118.822C121.649 115.443 123.701 111.387 123.701 106.656V76.2402H0.582611Z" fill="#B3B3B3"/>
<path d="M62.1418 68.13C79.141 68.13 92.9215 54.5125 92.9215 37.7144C92.9215 20.9163 79.141 7.29883 62.1418 7.29883C45.1427 7.29883 31.3622 20.9163 31.3622 37.7144C31.3622 54.5125 45.1427 68.13 62.1418 68.13Z" fill="#B3B3B3"/>
<path d="M272.898 80.2949V110.711C272.898 115.442 274.95 120.173 279.054 122.877C287.262 129.636 298.206 134.367 309.15 137.071C314.587 138.536 320.738 140.001 327.087 140.701C329.525 140.97 331.991 141.126 334.457 141.126C342.665 141.126 351.557 139.774 359.765 137.071C370.709 134.367 380.969 128.96 389.861 122.877C393.964 119.497 396.016 115.442 396.016 110.711V80.2949H272.898Z" fill="#B3B3B3"/>
<path d="M334.457 72.1847C351.456 72.1847 365.237 58.5672 365.237 41.7691C365.237 24.971 351.456 11.3535 334.457 11.3535C317.458 11.3535 303.678 24.971 303.678 41.7691C303.678 58.5672 317.458 72.1847 334.457 72.1847Z" fill="#B3B3B3"/>
</svg>
