<svg width="348" height="360" viewBox="0 0 348 360" fill="none" xmlns="http://www.w3.org/2000/svg">
<path d="M338.232 304.516L283.253 247.703C275.776 239.977 265.66 237.25 255.983 239.068L236.631 219.07C253.784 196.344 263.9 167.256 263.9 136.35C263.9 61.3577 204.523 0 131.95 0C59.3776 0 0 61.3577 0 136.35C0 211.343 59.3776 272.701 131.95 272.701C161.859 272.701 189.568 262.247 212 244.522L231.353 264.52C229.593 274.519 232.232 284.973 239.709 292.699L294.689 349.512C300.846 355.875 308.763 359.056 316.68 359.056C324.597 359.056 332.514 355.875 338.672 349.512C350.108 336.786 350.108 316.788 338.231 304.516H338.232ZM131.51 244.976C73.4524 244.976 25.9503 195.89 25.9503 135.896C25.9503 75.9016 73.4524 26.8155 131.51 26.8155C189.568 26.8155 237.07 75.9016 237.07 135.896C237.07 195.89 189.568 244.976 131.51 244.976Z" fill="#999999"/>
<g clip-path="url(#clip0_1719_2)">
<path d="M100.419 90.2813C101.064 89.5266 101.866 88.9208 102.767 88.5054C103.669 88.09 104.651 87.8749 105.644 87.875H164.356C165.349 87.8749 166.331 88.09 167.233 88.5054C168.134 88.9208 168.936 89.5266 169.581 90.2813L187.518 111.209C189.12 113.078 190 115.458 190 117.919V119.672C190 123.075 188.938 126.393 186.96 129.162C184.982 131.932 182.189 134.014 178.97 135.118C175.751 136.222 172.268 136.293 169.007 135.321C165.746 134.349 162.87 132.382 160.781 129.696C159.256 131.66 157.301 133.25 155.067 134.343C152.833 135.435 150.378 136.002 147.891 136C145.403 136.003 142.948 135.436 140.714 134.343C138.48 133.251 136.525 131.661 135 129.696C133.475 131.661 131.52 133.251 129.286 134.343C127.052 135.436 124.597 136.003 122.109 136C119.622 136.003 117.167 135.436 114.933 134.343C112.698 133.251 110.744 131.661 109.219 129.696C107.13 132.382 104.254 134.349 100.993 135.321C97.7319 136.293 94.2485 136.222 91.0297 135.118C87.8109 134.014 85.0175 131.932 83.04 129.162C81.0625 126.393 79.9996 123.075 80 119.672V117.919C80.0001 115.458 80.8804 113.078 82.4819 111.209L100.426 90.2744L100.419 90.2813ZM112.656 119.672C112.656 122.179 113.652 124.583 115.425 126.356C117.198 128.129 119.602 129.125 122.109 129.125C124.616 129.125 127.021 128.129 128.794 126.356C130.567 124.583 131.562 122.179 131.562 119.672C131.562 118.76 131.925 117.886 132.569 117.241C133.214 116.597 134.088 116.234 135 116.234C135.912 116.234 136.786 116.597 137.431 117.241C138.075 117.886 138.438 118.76 138.438 119.672C138.438 122.179 139.433 124.583 141.206 126.356C142.979 128.129 145.384 129.125 147.891 129.125C150.398 129.125 152.802 128.129 154.575 126.356C156.348 124.583 157.344 122.179 157.344 119.672C157.344 118.76 157.706 117.886 158.351 117.241C158.995 116.597 159.87 116.234 160.781 116.234C161.693 116.234 162.567 116.597 163.212 117.241C163.857 117.886 164.219 118.76 164.219 119.672C164.219 122.179 165.215 124.583 166.988 126.356C168.76 128.129 171.165 129.125 173.672 129.125C176.179 129.125 178.583 128.129 180.356 126.356C182.129 124.583 183.125 122.179 183.125 119.672V117.919C183.125 117.099 182.832 116.307 182.3 115.684L164.356 94.75H105.644L87.7 115.684C87.1675 116.307 86.8749 117.099 86.875 117.919V119.672C86.875 122.179 87.871 124.583 89.6438 126.356C91.4166 128.129 93.821 129.125 96.3281 129.125C98.8352 129.125 101.24 128.129 103.012 126.356C104.785 124.583 105.781 122.179 105.781 119.672C105.781 118.76 106.143 117.886 106.788 117.241C107.433 116.597 108.307 116.234 109.219 116.234C110.13 116.234 111.005 116.597 111.649 117.241C112.294 117.886 112.656 118.76 112.656 119.672ZM90.3125 139.438C91.2242 139.438 92.0985 139.8 92.7432 140.444C93.3878 141.089 93.75 141.963 93.75 142.875V184.125H100.625V149.75C100.625 147.927 101.349 146.178 102.639 144.889C103.928 143.599 105.677 142.875 107.5 142.875H128.125C129.948 142.875 131.697 143.599 132.986 144.889C134.276 146.178 135 147.927 135 149.75V184.125H176.25V142.875C176.25 141.963 176.612 141.089 177.257 140.444C177.901 139.8 178.776 139.438 179.688 139.438C180.599 139.438 181.474 139.8 182.118 140.444C182.763 141.089 183.125 141.963 183.125 142.875V184.125H186.562C187.474 184.125 188.349 184.487 188.993 185.132C189.638 185.776 190 186.651 190 187.562C190 188.474 189.638 189.349 188.993 189.993C188.349 190.638 187.474 191 186.562 191H83.4375C82.5258 191 81.6515 190.638 81.0068 189.993C80.3622 189.349 80 188.474 80 187.562C80 186.651 80.3622 185.776 81.0068 185.132C81.6515 184.487 82.5258 184.125 83.4375 184.125H86.875V142.875C86.875 141.963 87.2372 141.089 87.8818 140.444C88.5265 139.8 89.4008 139.438 90.3125 139.438ZM107.5 184.125H128.125V149.75H107.5V184.125ZM141.875 149.75C141.875 147.927 142.599 146.178 143.889 144.889C145.178 143.599 146.927 142.875 148.75 142.875H162.5C164.323 142.875 166.072 143.599 167.361 144.889C168.651 146.178 169.375 147.927 169.375 149.75V170.375C169.375 172.198 168.651 173.947 167.361 175.236C166.072 176.526 164.323 177.25 162.5 177.25H148.75C146.927 177.25 145.178 176.526 143.889 175.236C142.599 173.947 141.875 172.198 141.875 170.375V149.75ZM162.5 149.75H148.75V170.375H162.5V149.75Z" fill="#999999"/>
</g>
<defs>
<clipPath id="clip0_1719_2">
<rect width="110" height="110" fill="white" transform="translate(80 81)"/>
</clipPath>
</defs>
</svg>
