<svg width="500" height="400" viewBox="0 0 500 400" fill="none" xmlns="http://www.w3.org/2000/svg">
<path d="M43.7074 338.727V362H39.4574L29.3324 347.352H29.1619V362H24.2415V338.727H28.5597L38.6051 353.364H38.8097V338.727H43.7074ZM55.5682 362.341C53.803 362.341 52.2765 361.966 50.9886 361.216C49.7083 360.458 48.7197 359.405 48.0227 358.057C47.3258 356.701 46.9773 355.129 46.9773 353.341C46.9773 351.538 47.3258 349.962 48.0227 348.614C48.7197 347.258 49.7083 346.205 50.9886 345.455C52.2765 344.697 53.803 344.318 55.5682 344.318C57.3333 344.318 58.8561 344.697 60.1364 345.455C61.4242 346.205 62.4167 347.258 63.1136 348.614C63.8106 349.962 64.1591 351.538 64.1591 353.341C64.1591 355.129 63.8106 356.701 63.1136 358.057C62.4167 359.405 61.4242 360.458 60.1364 361.216C58.8561 361.966 57.3333 362.341 55.5682 362.341ZM55.5909 358.591C56.3939 358.591 57.0644 358.364 57.6023 357.909C58.1402 357.447 58.5455 356.818 58.8182 356.023C59.0985 355.227 59.2386 354.322 59.2386 353.307C59.2386 352.292 59.0985 351.386 58.8182 350.591C58.5455 349.795 58.1402 349.167 57.6023 348.705C57.0644 348.242 56.3939 348.011 55.5909 348.011C54.7803 348.011 54.0985 348.242 53.5455 348.705C53 349.167 52.5871 349.795 52.3068 350.591C52.0341 351.386 51.8977 352.292 51.8977 353.307C51.8977 354.322 52.0341 355.227 52.3068 356.023C52.5871 356.818 53 357.447 53.5455 357.909C54.0985 358.364 54.7803 358.591 55.5909 358.591ZM79.554 351.909V362H74.7131V338.727H79.4176V347.625H79.6222C80.0161 346.595 80.6525 345.788 81.5312 345.205C82.41 344.614 83.5123 344.318 84.8381 344.318C86.0502 344.318 87.107 344.583 88.0085 345.114C88.9176 345.636 89.6222 346.39 90.1222 347.375C90.6297 348.352 90.8797 349.523 90.8722 350.886V362H86.0312V351.75C86.0388 350.674 85.7661 349.837 85.2131 349.239C84.6676 348.64 83.9025 348.341 82.9176 348.341C82.2585 348.341 81.6752 348.481 81.1676 348.761C80.6676 349.042 80.2737 349.451 79.9858 349.989C79.7055 350.519 79.5616 351.159 79.554 351.909ZM99.6591 362.33C98.5455 362.33 97.553 362.136 96.6818 361.75C95.8106 361.356 95.1212 360.777 94.6136 360.011C94.1136 359.239 93.8636 358.277 93.8636 357.125C93.8636 356.155 94.0417 355.341 94.3977 354.682C94.7538 354.023 95.2386 353.492 95.8523 353.091C96.4659 352.689 97.1629 352.386 97.9432 352.182C98.7311 351.977 99.5568 351.833 100.42 351.75C101.436 351.644 102.254 351.545 102.875 351.455C103.496 351.356 103.947 351.212 104.227 351.023C104.508 350.833 104.648 350.553 104.648 350.182V350.114C104.648 349.394 104.42 348.837 103.966 348.443C103.519 348.049 102.883 347.852 102.057 347.852C101.186 347.852 100.492 348.045 99.9773 348.432C99.4621 348.811 99.1212 349.288 98.9545 349.864L94.4773 349.5C94.7045 348.439 95.1515 347.523 95.8182 346.75C96.4848 345.97 97.3447 345.371 98.3977 344.955C99.4583 344.53 100.686 344.318 102.08 344.318C103.049 344.318 103.977 344.432 104.864 344.659C105.758 344.886 106.549 345.239 107.239 345.716C107.936 346.193 108.485 346.807 108.886 347.557C109.288 348.299 109.489 349.189 109.489 350.227V362H104.898V359.58H104.761C104.481 360.125 104.106 360.606 103.636 361.023C103.167 361.432 102.602 361.754 101.943 361.989C101.284 362.216 100.523 362.33 99.6591 362.33ZM101.045 358.989C101.758 358.989 102.386 358.848 102.932 358.568C103.477 358.28 103.905 357.894 104.216 357.409C104.527 356.924 104.682 356.375 104.682 355.761V353.909C104.53 354.008 104.322 354.098 104.057 354.182C103.799 354.258 103.508 354.33 103.182 354.398C102.856 354.458 102.53 354.515 102.205 354.568C101.879 354.614 101.583 354.655 101.318 354.693C100.75 354.777 100.254 354.909 99.8295 355.091C99.4053 355.273 99.0758 355.519 98.8409 355.83C98.6061 356.133 98.4886 356.511 98.4886 356.966C98.4886 357.625 98.7273 358.129 99.2045 358.477C99.6894 358.818 100.303 358.989 101.045 358.989ZM115.608 368.545C114.994 368.545 114.419 368.496 113.881 368.398C113.35 368.307 112.911 368.189 112.562 368.045L113.653 364.432C114.222 364.606 114.733 364.701 115.188 364.716C115.65 364.731 116.047 364.625 116.381 364.398C116.722 364.17 116.998 363.784 117.21 363.239L117.494 362.5L111.233 344.545H116.324L119.938 357.364H120.119L123.767 344.545H128.892L122.108 363.886C121.782 364.826 121.339 365.644 120.778 366.341C120.225 367.045 119.525 367.587 118.676 367.966C117.828 368.352 116.805 368.545 115.608 368.545ZM138.776 362V344.545H143.616V362H138.776ZM141.207 342.295C140.488 342.295 139.87 342.057 139.355 341.58C138.848 341.095 138.594 340.515 138.594 339.841C138.594 339.174 138.848 338.602 139.355 338.125C139.87 337.64 140.488 337.398 141.207 337.398C141.927 337.398 142.541 337.64 143.048 338.125C143.563 338.602 143.821 339.174 143.821 339.841C143.821 340.515 143.563 341.095 143.048 341.58C142.541 342.057 141.927 342.295 141.207 342.295ZM147.494 362V344.545H152.108V347.625H152.312C152.676 346.602 153.282 345.795 154.131 345.205C154.979 344.614 155.994 344.318 157.176 344.318C158.373 344.318 159.392 344.617 160.233 345.216C161.074 345.807 161.634 346.61 161.915 347.625H162.097C162.453 346.625 163.097 345.826 164.028 345.227C164.968 344.621 166.078 344.318 167.358 344.318C168.987 344.318 170.309 344.837 171.324 345.875C172.347 346.905 172.858 348.367 172.858 350.261V362H168.028V351.216C168.028 350.246 167.771 349.519 167.256 349.034C166.741 348.549 166.097 348.307 165.324 348.307C164.445 348.307 163.759 348.587 163.267 349.148C162.775 349.701 162.528 350.432 162.528 351.341V362H157.835V351.114C157.835 350.258 157.589 349.576 157.097 349.068C156.612 348.561 155.972 348.307 155.176 348.307C154.638 348.307 154.153 348.443 153.722 348.716C153.297 348.981 152.96 349.356 152.71 349.841C152.46 350.318 152.335 350.879 152.335 351.523V362H147.494ZM181.659 362.33C180.545 362.33 179.553 362.136 178.682 361.75C177.811 361.356 177.121 360.777 176.614 360.011C176.114 359.239 175.864 358.277 175.864 357.125C175.864 356.155 176.042 355.341 176.398 354.682C176.754 354.023 177.239 353.492 177.852 353.091C178.466 352.689 179.163 352.386 179.943 352.182C180.731 351.977 181.557 351.833 182.42 351.75C183.436 351.644 184.254 351.545 184.875 351.455C185.496 351.356 185.947 351.212 186.227 351.023C186.508 350.833 186.648 350.553 186.648 350.182V350.114C186.648 349.394 186.42 348.837 185.966 348.443C185.519 348.049 184.883 347.852 184.057 347.852C183.186 347.852 182.492 348.045 181.977 348.432C181.462 348.811 181.121 349.288 180.955 349.864L176.477 349.5C176.705 348.439 177.152 347.523 177.818 346.75C178.485 345.97 179.345 345.371 180.398 344.955C181.458 344.53 182.686 344.318 184.08 344.318C185.049 344.318 185.977 344.432 186.864 344.659C187.758 344.886 188.549 345.239 189.239 345.716C189.936 346.193 190.485 346.807 190.886 347.557C191.288 348.299 191.489 349.189 191.489 350.227V362H186.898V359.58H186.761C186.481 360.125 186.106 360.606 185.636 361.023C185.167 361.432 184.602 361.754 183.943 361.989C183.284 362.216 182.523 362.33 181.659 362.33ZM183.045 358.989C183.758 358.989 184.386 358.848 184.932 358.568C185.477 358.28 185.905 357.894 186.216 357.409C186.527 356.924 186.682 356.375 186.682 355.761V353.909C186.53 354.008 186.322 354.098 186.057 354.182C185.799 354.258 185.508 354.33 185.182 354.398C184.856 354.458 184.53 354.515 184.205 354.568C183.879 354.614 183.583 354.655 183.318 354.693C182.75 354.777 182.254 354.909 181.83 355.091C181.405 355.273 181.076 355.519 180.841 355.83C180.606 356.133 180.489 356.511 180.489 356.966C180.489 357.625 180.727 358.129 181.205 358.477C181.689 358.818 182.303 358.989 183.045 358.989ZM182.523 342.295L184.932 337.125H189.409L185.943 342.295H182.523ZM203.108 368.909C201.54 368.909 200.195 368.693 199.074 368.261C197.96 367.837 197.074 367.258 196.415 366.523C195.756 365.788 195.328 364.962 195.131 364.045L199.608 363.443C199.744 363.792 199.96 364.117 200.256 364.42C200.551 364.723 200.941 364.966 201.426 365.148C201.919 365.337 202.517 365.432 203.222 365.432C204.275 365.432 205.142 365.174 205.824 364.659C206.513 364.152 206.858 363.299 206.858 362.102V358.909H206.653C206.441 359.394 206.123 359.852 205.699 360.284C205.275 360.716 204.729 361.068 204.062 361.341C203.396 361.614 202.6 361.75 201.676 361.75C200.366 361.75 199.172 361.447 198.097 360.841C197.028 360.227 196.176 359.292 195.54 358.034C194.911 356.769 194.597 355.17 194.597 353.239C194.597 351.261 194.919 349.61 195.562 348.284C196.206 346.958 197.063 345.966 198.131 345.307C199.206 344.648 200.384 344.318 201.665 344.318C202.642 344.318 203.46 344.485 204.119 344.818C204.778 345.144 205.309 345.553 205.71 346.045C206.119 346.53 206.434 347.008 206.653 347.477H206.835V344.545H211.642V362.17C211.642 363.655 211.278 364.898 210.551 365.898C209.824 366.898 208.816 367.648 207.528 368.148C206.248 368.655 204.775 368.909 203.108 368.909ZM203.21 358.114C203.991 358.114 204.65 357.92 205.188 357.534C205.733 357.14 206.15 356.58 206.438 355.852C206.733 355.117 206.881 354.239 206.881 353.216C206.881 352.193 206.737 351.307 206.449 350.557C206.161 349.799 205.744 349.212 205.199 348.795C204.653 348.379 203.991 348.17 203.21 348.17C202.415 348.17 201.744 348.386 201.199 348.818C200.653 349.242 200.241 349.833 199.96 350.591C199.68 351.348 199.54 352.223 199.54 353.216C199.54 354.223 199.68 355.095 199.96 355.83C200.248 356.557 200.661 357.121 201.199 357.523C201.744 357.917 202.415 358.114 203.21 358.114ZM223.449 362.341C221.653 362.341 220.108 361.977 218.812 361.25C217.525 360.515 216.532 359.477 215.835 358.136C215.138 356.788 214.79 355.193 214.79 353.352C214.79 351.557 215.138 349.981 215.835 348.625C216.532 347.269 217.513 346.212 218.778 345.455C220.051 344.697 221.544 344.318 223.256 344.318C224.407 344.318 225.479 344.504 226.472 344.875C227.472 345.239 228.343 345.788 229.085 346.523C229.835 347.258 230.419 348.182 230.835 349.295C231.252 350.402 231.46 351.697 231.46 353.182V354.511H216.722V351.511H226.903C226.903 350.814 226.752 350.197 226.449 349.659C226.146 349.121 225.725 348.701 225.188 348.398C224.657 348.087 224.04 347.932 223.335 347.932C222.6 347.932 221.949 348.102 221.381 348.443C220.82 348.777 220.381 349.227 220.062 349.795C219.744 350.356 219.581 350.981 219.574 351.67V354.523C219.574 355.386 219.733 356.133 220.051 356.761C220.377 357.39 220.835 357.875 221.426 358.216C222.017 358.557 222.718 358.727 223.528 358.727C224.066 358.727 224.559 358.652 225.006 358.5C225.453 358.348 225.835 358.121 226.153 357.818C226.472 357.515 226.714 357.144 226.881 356.705L231.358 357C231.131 358.076 230.665 359.015 229.96 359.818C229.263 360.614 228.362 361.235 227.256 361.682C226.157 362.121 224.888 362.341 223.449 362.341ZM239.46 351.909V362H234.619V344.545H239.233V347.625H239.438C239.824 346.61 240.472 345.807 241.381 345.216C242.29 344.617 243.392 344.318 244.688 344.318C245.9 344.318 246.956 344.583 247.858 345.114C248.759 345.644 249.46 346.402 249.96 347.386C250.46 348.364 250.71 349.53 250.71 350.886V362H245.869V351.75C245.877 350.682 245.604 349.848 245.051 349.25C244.498 348.644 243.737 348.341 242.767 348.341C242.116 348.341 241.54 348.481 241.04 348.761C240.547 349.042 240.161 349.451 239.881 349.989C239.608 350.519 239.468 351.159 239.46 351.909ZM262.48 362.341C260.685 362.341 259.139 361.977 257.844 361.25C256.556 360.515 255.563 359.477 254.866 358.136C254.17 356.788 253.821 355.193 253.821 353.352C253.821 351.557 254.17 349.981 254.866 348.625C255.563 347.269 256.545 346.212 257.81 345.455C259.082 344.697 260.575 344.318 262.287 344.318C263.438 344.318 264.51 344.504 265.503 344.875C266.503 345.239 267.374 345.788 268.116 346.523C268.866 347.258 269.45 348.182 269.866 349.295C270.283 350.402 270.491 351.697 270.491 353.182V354.511H255.753V351.511H265.935C265.935 350.814 265.783 350.197 265.48 349.659C265.177 349.121 264.757 348.701 264.219 348.398C263.688 348.087 263.071 347.932 262.366 347.932C261.632 347.932 260.98 348.102 260.412 348.443C259.851 348.777 259.412 349.227 259.094 349.795C258.776 350.356 258.613 350.981 258.605 351.67V354.523C258.605 355.386 258.764 356.133 259.082 356.761C259.408 357.39 259.866 357.875 260.457 358.216C261.048 358.557 261.749 358.727 262.56 358.727C263.098 358.727 263.59 358.652 264.037 358.5C264.484 358.348 264.866 358.121 265.185 357.818C265.503 357.515 265.745 357.144 265.912 356.705L270.389 357C270.162 358.076 269.696 359.015 268.991 359.818C268.295 360.614 267.393 361.235 266.287 361.682C265.188 362.121 263.92 362.341 262.48 362.341ZM288.173 349.523L283.741 349.795C283.666 349.417 283.503 349.076 283.253 348.773C283.003 348.462 282.673 348.216 282.264 348.034C281.863 347.845 281.382 347.75 280.821 347.75C280.071 347.75 279.438 347.909 278.923 348.227C278.408 348.538 278.151 348.955 278.151 349.477C278.151 349.894 278.317 350.246 278.651 350.534C278.984 350.822 279.556 351.053 280.366 351.227L283.526 351.864C285.223 352.212 286.488 352.773 287.321 353.545C288.154 354.318 288.571 355.333 288.571 356.591C288.571 357.735 288.234 358.739 287.56 359.602C286.893 360.466 285.976 361.14 284.81 361.625C283.651 362.102 282.313 362.341 280.798 362.341C278.488 362.341 276.647 361.86 275.276 360.898C273.912 359.928 273.113 358.61 272.878 356.943L277.639 356.693C277.783 357.398 278.132 357.936 278.685 358.307C279.238 358.67 279.946 358.852 280.81 358.852C281.658 358.852 282.34 358.689 282.855 358.364C283.378 358.03 283.643 357.602 283.651 357.08C283.643 356.64 283.457 356.28 283.094 356C282.73 355.712 282.17 355.492 281.412 355.341L278.389 354.739C276.685 354.398 275.416 353.807 274.582 352.966C273.757 352.125 273.344 351.053 273.344 349.75C273.344 348.629 273.647 347.663 274.253 346.852C274.866 346.042 275.726 345.417 276.832 344.977C277.946 344.538 279.249 344.318 280.741 344.318C282.946 344.318 284.681 344.784 285.946 345.716C287.219 346.648 287.961 347.917 288.173 349.523ZM305.457 362.284C304.132 362.284 302.931 361.943 301.855 361.261C300.787 360.572 299.938 359.561 299.31 358.227C298.688 356.886 298.378 355.242 298.378 353.295C298.378 351.295 298.7 349.633 299.344 348.307C299.988 346.973 300.844 345.977 301.912 345.318C302.988 344.652 304.166 344.318 305.446 344.318C306.423 344.318 307.238 344.485 307.889 344.818C308.548 345.144 309.079 345.553 309.48 346.045C309.889 346.53 310.2 347.008 310.412 347.477H310.56V338.727H315.389V362H310.616V359.205H310.412C310.185 359.689 309.863 360.17 309.446 360.648C309.037 361.117 308.503 361.508 307.844 361.818C307.192 362.129 306.397 362.284 305.457 362.284ZM306.991 358.432C307.772 358.432 308.431 358.22 308.969 357.795C309.514 357.364 309.931 356.761 310.219 355.989C310.514 355.216 310.662 354.311 310.662 353.273C310.662 352.235 310.518 351.333 310.23 350.568C309.942 349.803 309.526 349.212 308.98 348.795C308.435 348.379 307.772 348.17 306.991 348.17C306.196 348.17 305.526 348.386 304.98 348.818C304.435 349.25 304.022 349.848 303.741 350.614C303.461 351.379 303.321 352.265 303.321 353.273C303.321 354.288 303.461 355.186 303.741 355.966C304.029 356.739 304.442 357.345 304.98 357.784C305.526 358.216 306.196 358.432 306.991 358.432ZM319.369 362V344.545H324.21V362H319.369ZM321.801 342.295C321.081 342.295 320.464 342.057 319.949 341.58C319.441 341.095 319.188 340.515 319.188 339.841C319.188 339.174 319.441 338.602 319.949 338.125C320.464 337.64 321.081 337.398 321.801 337.398C322.521 337.398 323.134 337.64 323.642 338.125C324.157 338.602 324.415 339.174 324.415 339.841C324.415 340.515 324.157 341.095 323.642 341.58C323.134 342.057 322.521 342.295 321.801 342.295ZM342.611 349.523L338.179 349.795C338.103 349.417 337.94 349.076 337.69 348.773C337.44 348.462 337.111 348.216 336.702 348.034C336.3 347.845 335.819 347.75 335.259 347.75C334.509 347.75 333.876 347.909 333.361 348.227C332.846 348.538 332.588 348.955 332.588 349.477C332.588 349.894 332.755 350.246 333.088 350.534C333.421 350.822 333.993 351.053 334.804 351.227L337.963 351.864C339.66 352.212 340.925 352.773 341.759 353.545C342.592 354.318 343.009 355.333 343.009 356.591C343.009 357.735 342.671 358.739 341.997 359.602C341.33 360.466 340.414 361.14 339.247 361.625C338.088 362.102 336.751 362.341 335.236 362.341C332.925 362.341 331.084 361.86 329.713 360.898C328.349 359.928 327.55 358.61 327.315 356.943L332.077 356.693C332.221 357.398 332.569 357.936 333.122 358.307C333.675 358.67 334.384 358.852 335.247 358.852C336.096 358.852 336.777 358.689 337.293 358.364C337.815 358.03 338.08 357.602 338.088 357.08C338.08 356.64 337.895 356.28 337.531 356C337.168 355.712 336.607 355.492 335.849 355.341L332.827 354.739C331.122 354.398 329.853 353.807 329.02 352.966C328.194 352.125 327.781 351.053 327.781 349.75C327.781 348.629 328.084 347.663 328.69 346.852C329.304 346.042 330.164 345.417 331.27 344.977C332.384 344.538 333.687 344.318 335.179 344.318C337.384 344.318 339.118 344.784 340.384 345.716C341.656 346.648 342.399 347.917 342.611 349.523ZM346.057 368.545V344.545H350.83V347.477H351.045C351.258 347.008 351.564 346.53 351.966 346.045C352.375 345.553 352.905 345.144 353.557 344.818C354.216 344.485 355.034 344.318 356.011 344.318C357.284 344.318 358.458 344.652 359.534 345.318C360.61 345.977 361.47 346.973 362.114 348.307C362.758 349.633 363.08 351.295 363.08 353.295C363.08 355.242 362.765 356.886 362.136 358.227C361.515 359.561 360.667 360.572 359.591 361.261C358.523 361.943 357.326 362.284 356 362.284C355.061 362.284 354.261 362.129 353.602 361.818C352.951 361.508 352.417 361.117 352 360.648C351.583 360.17 351.265 359.689 351.045 359.205H350.898V368.545H346.057ZM350.795 353.273C350.795 354.311 350.939 355.216 351.227 355.989C351.515 356.761 351.932 357.364 352.477 357.795C353.023 358.22 353.686 358.432 354.466 358.432C355.254 358.432 355.92 358.216 356.466 357.784C357.011 357.345 357.424 356.739 357.705 355.966C357.992 355.186 358.136 354.288 358.136 353.273C358.136 352.265 357.996 351.379 357.716 350.614C357.436 349.848 357.023 349.25 356.477 348.818C355.932 348.386 355.261 348.17 354.466 348.17C353.678 348.17 353.011 348.379 352.466 348.795C351.928 349.212 351.515 349.803 351.227 350.568C350.939 351.333 350.795 352.235 350.795 353.273ZM374.193 362.341C372.428 362.341 370.902 361.966 369.614 361.216C368.333 360.458 367.345 359.405 366.648 358.057C365.951 356.701 365.602 355.129 365.602 353.341C365.602 351.538 365.951 349.962 366.648 348.614C367.345 347.258 368.333 346.205 369.614 345.455C370.902 344.697 372.428 344.318 374.193 344.318C375.958 344.318 377.481 344.697 378.761 345.455C380.049 346.205 381.042 347.258 381.739 348.614C382.436 349.962 382.784 351.538 382.784 353.341C382.784 355.129 382.436 356.701 381.739 358.057C381.042 359.405 380.049 360.458 378.761 361.216C377.481 361.966 375.958 362.341 374.193 362.341ZM374.216 358.591C375.019 358.591 375.689 358.364 376.227 357.909C376.765 357.447 377.17 356.818 377.443 356.023C377.723 355.227 377.864 354.322 377.864 353.307C377.864 352.292 377.723 351.386 377.443 350.591C377.17 349.795 376.765 349.167 376.227 348.705C375.689 348.242 375.019 348.011 374.216 348.011C373.405 348.011 372.723 348.242 372.17 348.705C371.625 349.167 371.212 349.795 370.932 350.591C370.659 351.386 370.523 352.292 370.523 353.307C370.523 354.322 370.659 355.227 370.932 356.023C371.212 356.818 371.625 357.447 372.17 357.909C372.723 358.364 373.405 358.591 374.216 358.591ZM390.773 351.909V362H385.932V344.545H390.545V347.625H390.75C391.136 346.61 391.784 345.807 392.693 345.216C393.602 344.617 394.705 344.318 396 344.318C397.212 344.318 398.269 344.583 399.17 345.114C400.072 345.644 400.773 346.402 401.273 347.386C401.773 348.364 402.023 349.53 402.023 350.886V362H397.182V351.75C397.189 350.682 396.917 349.848 396.364 349.25C395.811 348.644 395.049 348.341 394.08 348.341C393.428 348.341 392.852 348.481 392.352 348.761C391.86 349.042 391.473 349.451 391.193 349.989C390.92 350.519 390.78 351.159 390.773 351.909ZM405.838 362V344.545H410.679V362H405.838ZM408.27 342.295C407.55 342.295 406.933 342.057 406.418 341.58C405.91 341.095 405.656 340.515 405.656 339.841C405.656 339.174 405.91 338.602 406.418 338.125C406.933 337.64 407.55 337.398 408.27 337.398C408.99 337.398 409.603 337.64 410.111 338.125C410.626 338.602 410.884 339.174 410.884 339.841C410.884 340.515 410.626 341.095 410.111 341.58C409.603 342.057 408.99 342.295 408.27 342.295ZM414.648 362V338.727H419.489V347.477H419.636C419.848 347.008 420.155 346.53 420.557 346.045C420.966 345.553 421.496 345.144 422.148 344.818C422.807 344.485 423.625 344.318 424.602 344.318C425.875 344.318 427.049 344.652 428.125 345.318C429.201 345.977 430.061 346.973 430.705 348.307C431.348 349.633 431.67 351.295 431.67 353.295C431.67 355.242 431.356 356.886 430.727 358.227C430.106 359.561 429.258 360.572 428.182 361.261C427.114 361.943 425.917 362.284 424.591 362.284C423.652 362.284 422.852 362.129 422.193 361.818C421.542 361.508 421.008 361.117 420.591 360.648C420.174 360.17 419.856 359.689 419.636 359.205H419.42V362H414.648ZM419.386 353.273C419.386 354.311 419.53 355.216 419.818 355.989C420.106 356.761 420.523 357.364 421.068 357.795C421.614 358.22 422.277 358.432 423.057 358.432C423.845 358.432 424.511 358.216 425.057 357.784C425.602 357.345 426.015 356.739 426.295 355.966C426.583 355.186 426.727 354.288 426.727 353.273C426.727 352.265 426.587 351.379 426.307 350.614C426.027 349.848 425.614 349.25 425.068 348.818C424.523 348.386 423.852 348.17 423.057 348.17C422.269 348.17 421.602 348.379 421.057 348.795C420.519 349.212 420.106 349.803 419.818 350.568C419.53 351.333 419.386 352.235 419.386 353.273ZM439.741 338.727V362H434.901V338.727H439.741ZM451.574 362.341C449.778 362.341 448.233 361.977 446.938 361.25C445.65 360.515 444.657 359.477 443.96 358.136C443.263 356.788 442.915 355.193 442.915 353.352C442.915 351.557 443.263 349.981 443.96 348.625C444.657 347.269 445.638 346.212 446.903 345.455C448.176 344.697 449.669 344.318 451.381 344.318C452.532 344.318 453.604 344.504 454.597 344.875C455.597 345.239 456.468 345.788 457.21 346.523C457.96 347.258 458.544 348.182 458.96 349.295C459.377 350.402 459.585 351.697 459.585 353.182V354.511H444.847V351.511H455.028C455.028 350.814 454.877 350.197 454.574 349.659C454.271 349.121 453.85 348.701 453.312 348.398C452.782 348.087 452.165 347.932 451.46 347.932C450.725 347.932 450.074 348.102 449.506 348.443C448.945 348.777 448.506 349.227 448.188 349.795C447.869 350.356 447.706 350.981 447.699 351.67V354.523C447.699 355.386 447.858 356.133 448.176 356.761C448.502 357.39 448.96 357.875 449.551 358.216C450.142 358.557 450.843 358.727 451.653 358.727C452.191 358.727 452.684 358.652 453.131 358.5C453.578 358.348 453.96 358.121 454.278 357.818C454.597 357.515 454.839 357.144 455.006 356.705L459.483 357C459.256 358.076 458.79 359.015 458.085 359.818C457.388 360.614 456.487 361.235 455.381 361.682C454.282 362.121 453.013 362.341 451.574 362.341ZM477.267 349.523L472.835 349.795C472.759 349.417 472.597 349.076 472.347 348.773C472.097 348.462 471.767 348.216 471.358 348.034C470.956 347.845 470.475 347.75 469.915 347.75C469.165 347.75 468.532 347.909 468.017 348.227C467.502 348.538 467.244 348.955 467.244 349.477C467.244 349.894 467.411 350.246 467.744 350.534C468.078 350.822 468.65 351.053 469.46 351.227L472.619 351.864C474.316 352.212 475.581 352.773 476.415 353.545C477.248 354.318 477.665 355.333 477.665 356.591C477.665 357.735 477.328 358.739 476.653 359.602C475.987 360.466 475.07 361.14 473.903 361.625C472.744 362.102 471.407 362.341 469.892 362.341C467.581 362.341 465.741 361.86 464.369 360.898C463.006 359.928 462.206 358.61 461.972 356.943L466.733 356.693C466.877 357.398 467.225 357.936 467.778 358.307C468.331 358.67 469.04 358.852 469.903 358.852C470.752 358.852 471.434 358.689 471.949 358.364C472.472 358.03 472.737 357.602 472.744 357.08C472.737 356.64 472.551 356.28 472.188 356C471.824 355.712 471.263 355.492 470.506 355.341L467.483 354.739C465.778 354.398 464.509 353.807 463.676 352.966C462.85 352.125 462.438 351.053 462.438 349.75C462.438 348.629 462.741 347.663 463.347 346.852C463.96 346.042 464.82 345.417 465.926 344.977C467.04 344.538 468.343 344.318 469.835 344.318C472.04 344.318 473.775 344.784 475.04 345.716C476.313 346.648 477.055 347.917 477.267 349.523Z" fill="black"/>
<path d="M362.5 287.5V112.5C362.5 98.75 351.25 87.5 337.5 87.5H162.5C148.75 87.5 137.5 98.75 137.5 112.5V287.5C137.5 301.25 148.75 312.5 162.5 312.5H337.5C351.25 312.5 362.5 301.25 362.5 287.5ZM206.25 218.75L237.5 256.375L281.25 200L337.5 275H162.5L206.25 218.75Z" fill="black"/>
<circle cx="240.5" cy="192.5" r="12.5" fill="#D9D9D9"/>
</svg>
