<svg width="294" height="221" viewBox="0 0 294 221" fill="none" xmlns="http://www.w3.org/2000/svg">
<g clip-path="url(#clip0_837_34)">
<path d="M31.0271 31.7421L21.2434 36.0007L11.8704 59.6382C3.42548 80.9785 2.52285 83.3341 2.72178 83.7512C2.89975 84.1601 5.00007 85.0349 23.6322 92.3659L44.3812 100.53L44.8853 100.171C45.3309 99.8385 46.7252 96.4177 57.2881 69.4485C67.7228 42.7435 69.124 39.0593 68.9175 38.7844C68.7784 38.5844 63.1735 36.2823 54.7482 32.9673L40.8317 27.4917L31.0271 31.7421ZM55.1187 68.9338L43.6563 98.0662L24.3744 90.4796L5.09253 82.8929L13.8749 60.5721L22.6572 38.2512L29.1125 40.7911C33.8491 42.6547 35.6553 43.2928 35.9182 43.1784C36.181 43.064 36.9366 41.3282 38.792 36.6125C40.1857 33.0705 41.4113 30.1401 41.5198 30.1102C41.6157 30.0511 47.2993 32.2147 54.1527 34.9113L66.5811 39.8014L55.1187 68.9338ZM36.947 35.7655L34.9266 40.9004L29.8966 38.9213C27.13 37.8328 24.8913 36.8793 24.9242 36.7954C24.982 36.6487 38.7787 30.5565 38.9045 30.606C38.9464 30.6224 38.0602 32.9361 36.947 35.7655Z" fill="black"/>
<path d="M25.6762 54.3238C24.8794 54.688 24.8536 55.3071 25.5789 57.0931L26.266 58.7914L24.4598 59.6297C23.4586 60.0829 22.6079 60.5227 22.5749 60.6065C22.5501 60.6694 22.556 60.9621 22.5701 61.2339C22.6924 62.1533 23.6297 62.2317 25.4404 61.4435L27.105 60.7189L27.8925 62.4084C28.659 64.0895 29.1342 64.5427 29.8059 64.2503C30.536 63.9325 30.5439 63.1127 29.8822 61.4728L29.1995 59.8246L30.8223 59.0835C32.6787 58.2407 33.1515 57.5312 32.3695 56.8121C31.9198 56.4173 31.761 56.4517 30.1338 57.1426L28.3523 57.918L27.6449 56.3327C26.8358 54.5138 26.3479 54.0314 25.6762 54.3238Z" fill="black"/>
<path d="M41.1851 60.4261C40.3883 60.7903 40.3625 61.4094 41.0878 63.1954L41.775 64.8937L39.9186 65.7365C38.1707 66.5494 38.0876 66.6377 38.2078 67.1933C38.4312 68.2251 39.0256 68.3137 40.8991 67.5503L42.6267 66.8505L43.4014 68.5107C44.168 70.1918 44.6431 70.645 45.3148 70.3527C46.045 70.0348 46.0529 69.2151 45.3912 67.5751L44.7085 65.9269L46.3312 65.1858C48.1876 64.343 48.6604 63.6336 47.8784 62.9144C47.4287 62.5196 47.27 62.554 45.6427 63.2449L43.8612 64.0204L43.1538 62.435C42.3447 60.6161 41.8568 60.1337 41.1851 60.4261Z" fill="black"/>
<path d="M21.9893 69.5978C21.2667 69.7734 20.8867 70.6162 21.3162 71.124C21.5391 71.357 24.7967 72.7355 30.4764 74.9702C36.1562 77.205 39.4797 78.4158 39.8016 78.3973C40.462 78.3183 40.7582 77.4425 40.349 76.8216C40.0662 76.3715 38.8461 75.8431 31.3011 72.8744C23.756 69.9057 22.5029 69.4611 21.9893 69.5978Z" fill="black"/>
</g>
<g clip-path="url(#clip1_837_34)">
<path d="M80.4021 23.8701L75.013 33.0795L81.3851 57.6962C87.1518 79.9104 87.8122 82.345 88.2189 82.5645C88.6037 82.7898 90.8158 82.2574 110.186 77.1884L131.757 71.5435L131.953 70.9568C132.116 70.4251 131.225 66.8404 123.848 38.8314C116.524 11.1113 115.483 7.30969 115.154 7.2095C114.924 7.13009 109.04 8.57675 100.281 10.8689L85.813 14.655L80.4021 23.8701ZM121.793 39.6952L129.719 69.9816L109.673 75.2274L89.6272 80.4732L83.5546 57.2681L77.4821 34.063L84.193 32.3068C89.1173 31.0182 90.9522 30.4682 91.097 30.2208C91.2418 29.9733 90.8282 28.126 89.5453 23.2235C88.5816 19.5412 87.843 16.4519 87.9131 16.3637C87.9556 16.2594 93.8215 14.6545 100.946 12.79L113.867 9.40876L121.793 39.6952ZM87.5558 23.6277L88.9527 28.966L83.7234 30.3345C80.8473 31.0871 78.477 31.6376 78.4542 31.5504C78.4143 31.3979 85.9627 18.3408 86.0934 18.3066C86.137 18.2952 86.786 20.6862 87.5558 23.6277Z" fill="black"/>
<path d="M89.3991 45.2622C88.9704 46.0263 89.3148 46.5415 90.9538 47.556L92.5104 48.5222L91.5462 50.2645C91.005 51.221 90.5774 52.0779 90.6002 52.165C90.6173 52.2304 90.7946 52.4633 90.9663 52.6745C91.6073 53.3449 92.4105 52.8553 93.4079 51.1509L94.3248 49.5839L95.9572 50.4838C97.5677 51.3893 98.2187 51.475 98.5887 50.8427C98.9909 50.1555 98.5138 49.4888 97.0122 48.5547L95.4888 47.6264L96.3621 46.0708C97.3642 44.2953 97.3276 43.4435 96.2719 43.324C95.6759 43.2704 95.5679 43.3918 94.6614 44.9095L93.6801 46.5864L92.1738 45.7234C90.4476 44.7318 89.7691 44.6299 89.3991 45.2622Z" fill="black"/>
<path d="M105.523 41.0428C105.094 41.8068 105.438 42.322 107.077 43.3365L108.634 44.3027L107.632 46.0782C106.7 47.7656 106.685 47.8859 107.109 48.2636C107.898 48.9652 108.431 48.6862 109.493 46.9646L110.476 45.3806L112.081 46.2643C113.691 47.1699 114.342 47.2556 114.712 46.6233C115.114 45.936 114.637 45.2693 113.136 44.3353L111.612 43.4069L112.486 41.8514C113.488 40.0759 113.451 39.2241 112.395 39.1045C111.799 39.051 111.691 39.1724 110.785 40.6901L109.804 42.367L108.297 41.504C106.571 40.5123 105.893 40.4105 105.523 41.0428Z" fill="black"/>
<path d="M95.4311 59.7709C94.9511 60.3388 95.1413 61.2436 95.7877 61.4004C96.1051 61.457 99.5488 60.6489 105.454 59.1037C111.358 57.5585 114.756 56.5761 115.005 56.3712C115.492 55.918 115.215 55.036 114.518 54.776C114.024 54.5793 112.727 54.8721 104.883 56.9248C97.0394 58.9775 95.7653 59.3575 95.4311 59.7709Z" fill="black"/>
</g>
<g clip-path="url(#clip2_837_34)">
<path d="M90.0394 88.9527L79.4245 87.8669L59.6653 103.872C41.8413 118.33 39.8996 119.94 39.8684 120.401C39.823 120.845 41.2246 122.637 53.8685 138.162L67.9488 155.451L68.5638 155.386C69.1155 155.315 72.008 153.017 94.4379 134.692C116.627 116.534 119.654 114.01 119.609 113.669C119.586 113.427 115.83 108.672 110.112 101.652L100.669 90.0559L90.0394 88.9527ZM92.7996 133.18L68.525 152.949L55.4402 136.882L42.3554 120.816L60.9543 105.669L79.5532 90.5215L83.9337 95.9004C87.148 99.8472 88.4093 101.289 88.6945 101.318C88.9797 101.347 90.4893 100.205 94.4187 97.0049C97.37 94.6013 99.8751 92.6483 99.9844 92.6755C100.097 92.671 103.989 97.3435 108.64 103.054L117.074 113.41L92.7996 133.18ZM93.2259 95.362L88.9473 98.8466L85.5339 94.6553C83.6565 92.3501 82.1729 90.4213 82.2427 90.3644C82.365 90.2649 97.3766 91.7203 97.4619 91.8251C97.4903 91.86 95.5835 93.442 93.2259 95.362Z" fill="black"/>
<path d="M74.3033 106.009C73.4303 105.936 73.1042 106.463 72.8606 108.375L72.6267 110.192L70.6415 110.037C69.5467 109.941 68.5896 109.907 68.5197 109.964C68.4674 110.007 68.3289 110.265 68.2079 110.509C67.8637 111.37 68.6421 111.898 70.6067 112.099L72.4128 112.284L72.2707 114.142C72.1144 115.983 72.3063 116.611 73.0351 116.686C73.8273 116.767 74.2362 116.056 74.4636 114.302L74.6768 112.531L76.4544 112.681C78.4856 112.857 79.2455 112.47 78.9166 111.46C78.7182 110.895 78.5631 110.848 76.8061 110.652L74.8732 110.454L75.034 108.726C75.2207 106.744 75.0321 106.084 74.3033 106.009Z" fill="black"/>
<path d="M84.828 118.933C83.955 118.859 83.6289 119.386 83.3853 121.298L83.1514 123.116L81.1203 122.94C79.1984 122.791 79.0826 122.827 78.915 123.371C78.6037 124.379 79.0783 124.748 81.0855 125.001L82.9343 125.238L82.7954 127.065C82.6391 128.906 82.831 129.534 83.5598 129.609C84.352 129.69 84.7609 128.979 84.9883 127.226L85.2015 125.454L86.9791 125.604C89.0103 125.78 89.7702 125.393 89.4413 124.383C89.2429 123.819 89.0877 123.771 87.3308 123.575L85.3979 123.377L85.5587 121.649C85.7454 119.667 85.5568 119.007 84.828 118.933Z" fill="black"/>
<path d="M63.6007 117.514C62.8849 117.312 62.1404 117.861 62.2657 118.514C62.3458 118.826 64.5089 121.625 68.3632 126.358C72.2176 131.09 74.5204 133.775 74.81 133.917C75.4243 134.172 76.1119 133.554 76.0597 132.812C76.0339 132.281 75.2297 131.222 70.1096 124.935C64.9895 118.648 64.1154 117.646 63.6007 117.514Z" fill="black"/>
</g>
<g clip-path="url(#clip3_837_34)">
<path d="M138.059 53.3867L132.543 62.5206L138.574 87.2231C144.032 109.515 144.659 111.958 145.063 112.184C145.444 112.414 147.664 111.912 167.102 107.112L188.749 101.766L188.953 101.182C189.124 100.653 188.282 97.0559 181.294 68.9475C174.354 41.1288 173.365 37.3131 173.038 37.2084C172.809 37.1258 166.905 38.4909 158.115 40.6617L143.596 44.2473L138.059 53.3867ZM179.227 69.7828L186.733 100.176L166.616 105.144L146.5 110.112L140.749 86.8251L134.998 63.5382L141.733 61.875C146.674 60.6547 148.517 60.1301 148.665 59.8847C148.813 59.6393 148.425 57.7864 147.21 52.8666C146.297 49.1713 145.601 46.0721 145.673 45.9849C145.717 45.8812 151.604 44.3576 158.754 42.5918L171.721 39.3896L179.227 69.7828ZM145.215 53.2433L146.538 58.6003L141.29 59.8963C138.404 60.6091 136.026 61.1267 136.005 61.0393C135.967 60.8862 143.695 47.9348 143.826 47.9024C143.87 47.8916 144.486 50.2914 145.215 53.2433Z" fill="black"/>
<path d="M146.759 74.9012C146.319 75.6592 146.657 76.1791 148.281 77.2162L149.825 78.2039L148.836 79.9327C148.282 80.8816 147.842 81.7325 147.864 81.8199C147.88 81.8855 148.054 82.1209 148.223 82.3344C148.855 83.0136 149.665 82.5352 150.686 80.8447L151.624 79.2906L153.244 80.2129C154.842 81.1407 155.491 81.2354 155.87 80.6083C156.282 79.9266 155.814 79.2534 154.325 78.2987L152.815 77.3493L153.71 75.806C154.736 74.0445 154.711 73.1923 153.658 73.0582C153.062 72.9964 152.953 73.1163 152.025 74.6213L151.021 76.2845L149.527 75.4007C147.814 74.3853 147.137 74.2741 146.759 74.9012Z" fill="black"/>
<path d="M162.94 70.9052C162.5 71.6633 162.838 72.1832 164.463 73.2202L166.006 74.2079L164.979 75.9694C164.024 77.6436 164.007 77.7638 164.427 78.1473C165.206 78.8597 165.742 78.5881 166.828 76.8814L167.832 75.3111L169.425 76.217C171.023 77.1447 171.672 77.2394 172.051 76.6123C172.463 75.9307 171.995 75.2575 170.506 74.3027L168.996 73.3534L169.891 71.8101C170.917 70.0486 170.893 69.1964 169.839 69.0622C169.243 69.0005 169.134 69.1203 168.206 70.6253L167.202 72.2885L165.708 71.4048C163.995 70.3893 163.318 70.2781 162.94 70.9052Z" fill="black"/>
<path d="M152.59 89.4919C152.102 90.0531 152.28 90.9604 152.924 91.1262C153.241 91.1871 156.695 90.4268 162.621 88.9634C168.546 87.5 171.958 86.5648 172.209 86.3634C172.702 85.9169 172.437 85.0312 171.744 84.7615C171.253 84.558 169.952 84.8329 162.081 86.7769C154.209 88.7209 152.93 89.0832 152.59 89.4919Z" fill="black"/>
</g>
<g clip-path="url(#clip4_837_34)">
<path d="M236.995 149.633L227.296 154.08L218.382 177.894C210.352 199.394 209.495 201.767 209.702 202.18C209.888 202.585 212.005 203.419 230.775 210.388L251.678 218.149L252.175 217.781C252.615 217.439 253.942 213.992 263.981 186.823C273.897 159.921 275.226 156.211 275.015 155.94C274.872 155.743 269.223 153.55 260.735 150.398L246.715 145.193L236.995 149.633ZM261.802 186.351L250.906 215.7L231.481 208.488L212.056 201.276L220.404 178.789L228.753 156.302L235.256 158.717C240.028 160.488 241.846 161.091 242.107 160.972C242.367 160.853 243.089 159.102 244.853 154.352C246.178 150.783 247.346 147.83 247.454 147.798C247.549 147.737 253.273 149.79 260.178 152.353L272.698 157.002L261.802 186.351ZM242.992 153.541L241.071 158.714L236.004 156.832C233.217 155.798 230.96 154.888 230.991 154.803C231.046 154.655 244.722 148.297 244.849 148.344C244.891 148.36 244.05 150.69 242.992 153.541Z" fill="black"/>
<path d="M232.082 172.314C231.292 172.693 231.279 173.313 232.038 175.084L232.758 176.769L230.969 177.642C229.976 178.115 229.134 178.571 229.103 178.655C229.079 178.719 229.091 179.011 229.11 179.283C229.25 180.199 230.189 180.26 231.984 179.437L233.634 178.68L234.454 180.354C235.253 182.02 235.737 182.464 236.403 182.158C237.127 181.826 237.119 181.007 236.426 179.38L235.711 177.745L237.319 176.973C239.159 176.094 239.618 175.376 238.822 174.672C238.365 174.286 238.207 174.323 236.593 175.046L234.827 175.855L234.089 174.284C233.245 172.481 232.748 172.008 232.082 172.314Z" fill="black"/>
<path d="M247.706 178.115C246.916 178.494 246.903 179.114 247.662 180.885L248.382 182.57L246.543 183.448C244.811 184.295 244.729 184.385 244.86 184.938C245.104 185.965 245.7 186.043 247.558 185.243L249.272 184.51L250.079 186.155C250.877 187.821 251.361 188.265 252.027 187.959C252.751 187.627 252.743 186.808 252.05 185.181L251.335 183.546L252.943 182.774C254.783 181.895 255.242 181.177 254.446 180.473C253.989 180.087 253.831 180.124 252.217 180.847L250.451 181.656L249.713 180.085C248.869 178.282 248.372 177.809 247.706 178.115Z" fill="black"/>
<path d="M228.692 187.656C227.973 187.846 227.609 188.696 228.048 189.195C228.276 189.424 231.559 190.739 237.281 192.863C243.003 194.988 246.35 196.134 246.671 196.109C247.33 196.017 247.609 195.136 247.188 194.523C246.896 194.079 245.666 193.574 238.065 190.752C230.464 187.93 229.203 187.509 228.692 187.656Z" fill="black"/>
</g>
<g clip-path="url(#clip5_837_34)">
<path d="M253.551 59.4357L243.244 62.1932L230.462 84.1753C218.94 104.024 217.697 106.219 217.832 106.661C217.947 107.092 219.894 108.269 237.23 118.287L256.535 129.444L257.087 129.165C257.577 128.902 259.464 125.726 273.918 100.626C288.205 75.7682 290.138 72.3331 289.975 72.0306C289.867 71.8121 284.666 68.7027 276.827 64.1724L263.879 56.6896L253.551 59.4357ZM271.849 99.7946L256.184 126.9L238.244 116.532L220.304 106.165L232.305 85.3967L244.307 64.6288L250.313 68.0997C254.72 70.6466 256.412 71.546 256.689 71.4719C256.966 71.3978 257.971 69.7936 260.506 65.406C262.411 62.1104 264.058 59.3947 264.17 59.3812C264.274 59.3371 269.573 62.3213 275.949 66.0063L287.513 72.689L271.849 99.7946ZM258.808 64.2943L256.047 69.0719L251.367 66.3672C248.793 64.8797 246.72 63.6041 246.765 63.5261C246.844 63.3896 261.393 59.4152 261.51 59.4828C261.549 59.5054 260.329 61.6617 258.808 64.2943Z" fill="black"/>
<path d="M244.903 80.9715C244.061 81.2132 243.944 81.8217 244.396 83.6956L244.823 85.4772L242.912 86.0378C241.855 86.3371 240.948 86.6456 240.903 86.7236C240.869 86.7821 240.831 87.0725 240.805 87.3433C240.789 88.2707 241.704 88.4875 243.612 87.9772L245.366 87.508L245.894 89.2957C246.402 91.0721 246.804 91.5909 247.512 91.4015C248.281 91.1958 248.411 90.3862 248 88.6662L247.57 86.9348L249.285 86.4431C251.246 85.8856 251.819 85.2542 251.153 84.4269C250.767 83.9696 250.604 83.98 248.893 84.4214L247.016 84.9235L246.552 83.2507C246.022 81.3317 245.611 80.7822 244.903 80.9715Z" fill="black"/>
<path d="M259.334 89.3108C258.492 89.5525 258.374 90.1609 258.826 92.0349L259.253 93.8165L257.292 94.374C255.443 94.9182 255.348 94.9931 255.384 95.5604C255.452 96.6139 256.026 96.7899 257.992 96.3134L259.805 95.878L260.324 97.635C260.832 99.4114 261.235 99.9301 261.943 99.7408C262.712 99.535 262.842 98.7255 262.431 97.0055L262.001 95.2741L263.716 94.7824C265.677 94.2249 266.25 93.5935 265.583 92.7661C265.197 92.3089 265.035 92.3193 263.323 92.7607L261.446 93.2628L260.982 91.59C260.452 89.671 260.042 89.1215 259.334 89.3108Z" fill="black"/>
<path d="M238.988 95.5281C238.248 95.5944 237.747 96.3714 238.096 96.9374C238.282 97.2009 241.298 99.0482 246.583 102.102C251.868 105.156 254.974 106.847 255.295 106.877C255.96 106.897 256.383 106.075 256.071 105.4C255.858 104.913 254.73 104.209 247.71 100.152C240.69 96.0951 239.517 95.4693 238.988 95.5281Z" fill="black"/>
</g>
<g clip-path="url(#clip6_837_34)">
<path d="M121.345 144.811L110.769 146.232L95.2894 166.405C81.3303 184.622 79.8179 186.641 79.8952 187.097C79.9546 187.539 81.7356 188.954 97.6526 201.101L115.378 214.628L115.961 214.422C116.481 214.223 118.757 211.314 136.293 188.262C153.633 165.428 155.988 162.268 155.865 161.947C155.786 161.717 151.024 157.969 143.826 152.477L131.938 143.404L121.345 144.811ZM134.347 187.173L115.354 212.061L98.8823 199.49L82.4103 186.919L96.962 167.851L111.514 148.783L117.028 152.991C121.075 156.079 122.638 157.187 122.922 157.149C123.206 157.111 124.407 155.648 127.482 151.619C129.791 148.593 131.771 146.11 131.884 146.111C131.992 146.08 136.867 149.716 142.722 154.184L153.339 162.286L134.347 187.173ZM125.939 150.3L122.591 154.687L118.294 151.407C115.931 149.604 114.038 148.074 114.092 148.003C114.188 147.877 129.125 145.79 129.232 145.872C129.268 145.9 127.783 147.883 125.939 150.3Z" fill="black"/>
<path d="M110.022 165.068C109.156 165.201 108.962 165.789 109.171 167.706L109.368 169.527L107.401 169.839C106.314 170.002 105.376 170.192 105.321 170.264C105.28 170.317 105.206 170.6 105.145 170.866C105.011 171.784 105.891 172.115 107.848 171.852L109.648 171.611L109.943 173.451C110.221 175.278 110.554 175.844 111.28 175.746C112.069 175.64 112.301 174.854 112.113 173.095L111.907 171.323L113.67 171.054C115.687 170.751 116.335 170.198 115.78 169.292C115.455 168.79 115.293 168.779 113.539 168.999L111.613 169.258L111.366 167.539C111.086 165.568 110.748 164.971 110.022 165.068Z" fill="black"/>
<path d="M123.271 175.18C122.405 175.312 122.211 175.9 122.42 177.817L122.617 179.638L120.6 179.941C118.697 180.245 118.593 180.307 118.557 180.875C118.489 181.928 119.037 182.176 121.048 181.954L122.901 181.753L123.192 183.562C123.469 185.389 123.803 185.955 124.529 185.857C125.318 185.751 125.55 184.965 125.362 183.206L125.156 181.434L126.919 181.165C128.935 180.862 129.584 180.309 129.029 179.403C128.704 178.901 128.542 178.89 126.788 179.11L124.862 179.369L124.615 177.65C124.334 175.679 123.997 175.082 123.271 175.18Z" fill="black"/>
<path d="M102.299 178.752C101.556 178.723 100.96 179.43 101.234 180.036C101.385 180.321 104.141 182.538 108.993 186.241C113.845 189.944 116.711 192.017 117.026 192.087C117.683 192.192 118.207 191.431 117.983 190.721C117.834 190.211 116.805 189.369 110.36 184.45C103.914 179.531 102.83 178.761 102.299 178.752Z" fill="black"/>
</g>
<g clip-path="url(#clip7_837_34)">
<path d="M12.7971 161.783L10.6656 172.238L24.6356 193.485C37.2577 212.653 38.6679 214.745 39.1236 214.821C39.5606 214.91 41.4828 213.693 58.1836 202.648L76.7819 190.349L76.7779 189.731C76.7612 189.175 74.7613 186.069 58.747 161.935C42.8753 138.057 40.6636 134.795 40.32 134.806C40.0764 134.805 34.9732 138.072 27.4212 143.066L14.9473 151.315L12.7971 161.783ZM57.0799 163.415L74.3487 189.528L57.0655 200.958L39.7823 212.387L26.5511 192.38L13.32 172.373L19.1061 168.547C23.3517 165.739 24.9113 164.626 24.9685 164.346C25.0258 164.065 24.0386 162.449 21.2433 158.223C19.1437 155.048 17.4483 152.362 17.4862 152.256C17.4928 152.143 22.5278 148.732 28.6709 144.67L39.811 137.303L57.0799 163.415ZM19.4904 159.247L22.5342 163.849L18.0255 166.831C15.5458 168.471 13.4796 169.756 13.4299 169.681C13.3429 169.55 16.2775 154.756 16.3902 154.681C16.4278 154.657 17.8132 156.711 19.4904 159.247Z" fill="black"/>
<path d="M28.2123 179.131C28.0529 179.992 28.545 180.369 30.4236 180.801L32.2086 181.213L31.8578 183.174C31.6539 184.254 31.5254 185.203 31.5751 185.278C31.6124 185.334 31.8554 185.497 32.086 185.642C32.909 186.07 33.5113 185.347 33.9058 183.412L34.2685 181.633L36.1038 181.959C37.9203 182.297 38.5642 182.168 38.7105 181.45C38.8696 180.67 38.203 180.193 36.4804 179.793L34.739 179.405L35.0641 177.651C35.4401 175.647 35.1307 174.853 34.0929 175.08C33.5114 175.221 33.4484 175.371 33.0797 177.1L32.6916 179.004L30.9875 178.673C29.0337 178.291 28.3586 178.413 28.2123 179.131Z" fill="black"/>
<path d="M42.114 169.938C41.9546 170.799 42.4467 171.176 44.3254 171.607L46.1104 172.02L45.7344 174.024C45.3963 175.922 45.4208 176.04 45.9447 176.261C46.9177 176.671 47.3316 176.235 47.7824 174.263L48.2014 172.446L50.0055 172.765C51.8221 173.103 52.4659 172.974 52.6123 172.257C52.7713 171.476 52.1047 170.999 50.3821 170.599L48.6407 170.212L48.9658 168.458C49.3418 166.454 49.0324 165.659 47.9946 165.887C47.4132 166.028 47.3502 166.178 46.9814 167.907L46.5933 169.81L44.8892 169.479C42.9354 169.097 42.2603 169.22 42.114 169.938Z" fill="black"/>
<path d="M38.6 190.92C38.3288 191.612 38.8006 192.407 39.463 192.347C39.7818 192.298 42.7809 190.423 47.8719 187.056C52.9629 183.689 55.8627 181.664 56.0323 181.389C56.3468 180.803 55.7999 180.058 55.0566 180.036C54.5258 180.009 53.3925 180.705 46.6295 185.177C39.8665 189.65 38.783 190.42 38.6 190.92Z" fill="black"/>
</g>
<g clip-path="url(#clip8_837_34)">
<path d="M158.176 132.965L154.16 142.85L163.989 166.302C172.874 187.463 173.876 189.778 174.31 189.937C174.723 190.105 176.836 189.262 195.282 181.474L215.823 172.801L215.933 172.192C216.019 171.642 214.624 168.222 203.316 141.556C192.102 115.169 190.527 111.556 190.187 111.504C189.948 111.458 184.331 113.732 175.99 117.253L162.213 123.07L158.176 132.965ZM201.405 142.705L213.582 171.546L194.493 179.606L175.404 187.666L166.074 165.568L156.745 143.471L163.135 140.772C167.824 138.793 169.562 137.986 169.67 137.72C169.778 137.454 169.104 135.685 167.133 131.017C165.652 127.51 164.479 124.558 164.536 124.461C164.563 124.352 170.139 121.924 176.924 119.059L189.228 113.864L201.405 142.705ZM165.222 131.701L167.368 136.785L162.388 138.887C159.649 140.044 157.382 140.928 157.347 140.845C157.286 140.7 162.889 126.697 163.013 126.644C163.055 126.627 164.039 128.9 165.222 131.701Z" fill="black"/>
<path d="M170.141 152.85C169.826 153.667 170.241 154.128 172.008 154.897L173.687 155.631L172.982 157.493C172.583 158.517 172.282 159.427 172.317 159.51C172.344 159.572 172.553 159.777 172.753 159.961C173.483 160.533 174.208 159.934 174.951 158.104L175.634 156.422L177.379 157.079C179.102 157.745 179.759 157.737 180.035 157.058C180.334 156.32 179.767 155.729 178.147 155.019L176.506 154.318L177.148 152.654C177.886 150.753 177.728 149.915 176.666 149.948C176.068 149.98 175.979 150.116 175.299 151.748L174.568 153.548L172.953 152.909C171.103 152.175 170.417 152.171 170.141 152.85Z" fill="black"/>
<path d="M185.495 146.367C185.18 147.184 185.595 147.645 187.362 148.415L189.041 149.148L188.303 151.049C187.622 152.852 187.624 152.973 188.099 153.286C188.98 153.868 189.467 153.516 190.272 151.66L191.018 149.951L192.733 150.596C194.456 151.262 195.113 151.254 195.389 150.575C195.688 149.837 195.121 149.246 193.501 148.536L191.86 147.835L192.502 146.171C193.24 144.27 193.082 143.433 192.02 143.465C191.422 143.498 191.333 143.633 190.653 145.265L189.922 147.065L188.307 146.426C186.457 145.692 185.771 145.688 185.495 146.367Z" fill="black"/>
<path d="M178.187 166.346C177.793 166.977 178.111 167.845 178.773 167.908C179.095 167.918 182.388 166.626 188.011 164.252C193.634 161.878 196.856 160.419 197.074 160.181C197.49 159.663 197.09 158.83 196.363 158.672C195.846 158.548 194.605 159.023 187.135 162.177C179.665 165.331 178.459 165.889 178.187 166.346Z" fill="black"/>
</g>
<g clip-path="url(#clip9_837_34)">
<path d="M178.908 31.522L177.431 42.0895L192.694 62.427C206.483 80.7734 208.02 82.7734 208.48 82.8215C208.922 82.8833 210.765 81.549 226.747 69.4878L244.545 56.0564L244.502 55.4394C244.451 54.8855 242.262 51.91 224.779 28.8178C207.454 5.97289 205.044 2.85393 204.702 2.88648C204.458 2.90072 199.568 6.47836 192.341 11.9323L180.404 20.9409L178.908 31.522ZM223.207 30.3991L242.065 55.3881L225.526 67.8698L208.986 80.3516L194.537 61.2053L180.088 42.059L185.625 37.8804C189.688 34.8142 191.176 33.6071 191.216 33.3232C191.255 33.0393 190.17 31.4884 187.117 27.4435C184.824 24.4052 182.965 21.8297 182.996 21.7215C182.996 21.6088 187.809 17.8918 193.688 13.4554L204.349 5.41006L223.207 30.3991ZM185.431 28.5746L188.755 32.9791L184.44 36.2352C182.067 38.0261 180.085 39.4374 180.031 39.3655C179.936 39.2397 181.945 24.2922 182.053 24.2108C182.089 24.1836 183.6 26.1476 185.431 28.5746Z" fill="black"/>
<path d="M195.372 47.8784C195.266 48.7481 195.781 49.0934 197.683 49.4076L199.49 49.7085L199.262 51.6867C199.125 52.7772 199.056 53.7323 199.11 53.8043C199.151 53.8582 199.404 54.0061 199.643 54.136C200.491 54.5119 201.047 53.7534 201.321 51.7977L201.572 49.9996L203.424 50.2103C205.258 50.4346 205.893 50.266 205.994 49.5405C206.104 48.7519 205.409 48.317 203.665 48.0249L201.903 47.7464L202.118 45.9754C202.369 43.9522 202.011 43.1785 200.989 43.4698C200.418 43.6472 200.364 43.8005 200.104 45.549L199.835 47.4732L198.113 47.2486C196.14 46.9887 195.473 47.1529 195.372 47.8784Z" fill="black"/>
<path d="M208.675 37.8388C208.57 38.7084 209.084 39.0538 210.986 39.3679L212.793 39.6688L212.542 41.6921C212.323 43.6072 212.355 43.7242 212.891 43.9118C213.888 44.2602 214.274 43.7996 214.601 41.8031L214.907 39.9644L216.727 40.1706C218.561 40.3949 219.196 40.2264 219.297 39.5008C219.407 38.7122 218.712 38.2773 216.968 37.9852L215.206 37.7067L215.422 35.9358C215.672 33.9125 215.314 33.1388 214.293 33.4301C213.721 33.6075 213.667 33.7608 213.407 35.5093L213.138 37.4336L211.416 37.209C209.443 36.9491 208.776 37.1132 208.675 37.8388Z" fill="black"/>
<path d="M206.472 58.9986C206.244 59.7065 206.765 60.4707 207.422 60.3696C207.737 60.3011 210.614 58.243 215.486 54.5663C220.358 50.8896 223.126 48.6877 223.278 48.4035C223.556 47.799 222.964 47.0891 222.22 47.1138C221.689 47.1199 220.601 47.8844 214.129 52.7686C207.657 57.6527 206.624 58.4891 206.472 58.9986Z" fill="black"/>
</g>
<defs>
<clipPath id="clip0_837_34">
<rect width="50" height="69.5946" fill="white" transform="translate(25.4814 20) rotate(21.4776)"/>
</clipPath>
<clipPath id="clip1_837_34">
<rect width="50" height="69.5946" fill="white" transform="translate(68.999 17.6583) rotate(-14.6649)"/>
</clipPath>
<clipPath id="clip2_837_34">
<rect width="50" height="69.5946" fill="white" transform="translate(90.9639 76) rotate(50.8404)"/>
</clipPath>
<clipPath id="clip3_837_34">
<rect width="50" height="69.5946" fill="white" transform="translate(126.742 47.0178) rotate(-13.8723)"/>
</clipPath>
<clipPath id="clip4_837_34">
<rect width="50" height="69.5946" fill="white" transform="translate(231.224 138) rotate(20.3682)"/>
</clipPath>
<clipPath id="clip5_837_34">
<rect width="50" height="69.5946" fill="white" transform="translate(249.812 46.9999) rotate(30.0237)"/>
</clipPath>
<clipPath id="clip6_837_34">
<rect width="50" height="69.5946" fill="white" transform="translate(119.222 132) rotate(37.3488)"/>
</clipPath>
<clipPath id="clip7_837_34">
<rect width="50" height="69.5946" fill="white" transform="translate(0 159.58) rotate(-33.4775)"/>
</clipPath>
<clipPath id="clip8_837_34">
<rect width="50" height="69.5946" fill="white" transform="translate(146.001 128.448) rotate(-22.8903)"/>
</clipPath>
<clipPath id="clip9_837_34">
<rect width="50" height="69.5946" fill="white" transform="translate(165.999 30.119) rotate(-37.0405)"/>
</clipPath>
</defs>
</svg>
