<svg class="sucre" width="525" height="842" viewBox="0 0 525 842" fill="none" xmlns="http://www.w3.org/2000/svg">
<g clip-path="url(#clip0_793:4114)">
<path class="on" d="M151.168 232.247L153.38 228.845L154.916 222.57H157.622L160.676 227.326L166.454 231.9L165.778 235.815L168.667 238.047L170.843 239.053L171.081 243.133L175.03 245.895L179.126 244.578L184.521 245.419L183.881 247.194L189.056 249.243L187.227 252.005L187.702 254.878L188.781 256.195L189.275 259.561L187.446 261.738L190.445 265.818L190.555 270.849L188.726 273.501L188.836 276.374L190.409 277.215L190.171 283.106L188.342 288.484L183.917 288.997L180.809 291.521L178.048 290.68L175.524 292.601L174.08 291.521L175.396 288.027L176.713 286.344L174.555 284.313L172.873 284.185L172.763 282.868L167.424 280.124L164.425 276.758L164.059 273.867L162.029 273.392L164.187 270.739L164.553 264.025L161.06 261.5L157.696 262.104L156.379 260.659L158.537 251.658L156.708 249.609L160.365 245.035L162.194 244.322L163.145 242.639L160.274 240.809L159.433 238.285L156.544 239.73L151.625 239.968L148.754 236.126L147.986 231.772L151.168 232.247Z" fill="#DDE0E4" stroke="white" stroke-width="0.25" stroke-linejoin="round"/>
<path d="M147.894 317.847L143.652 315.688L140.397 315.304L138.294 311.096L140.013 309.175L140.397 301.858L141.549 300.888L141.165 296.479L137.344 296.863V295.034L135.808 293.497L133.888 289.838L135.99 288.887L137.344 285.813L136.96 283.325L138.678 280.252H141.165L143.268 278.148L143.085 275.459L144.036 271.635L146.34 271.251L149.412 265.507L146.34 266.074L145.005 264.738L146.34 261.482L142.902 261.098L140.982 255.609L142.518 254.841L142.134 251.182L138.477 252.133L134.637 248.877L130.048 247.542L131.382 246.005L131.584 245.236L135.241 243.133V239.474L137.728 237.553L136.374 235.723L136.576 231.936L140.562 229.265L141.421 230.29H143.451L145.28 231.644L148.059 231.882L148.772 236.309L151.643 240.151L156.562 239.913L159.451 238.468L160.292 240.992L163.163 242.822L162.212 244.505L160.383 245.218L156.726 249.792L158.555 251.841L156.397 260.842L157.714 262.287L161.078 261.683L164.571 264.208L164.205 270.94L161.938 273.41L163.967 273.885L164.333 276.776L167.423 280.124L172.909 282.758L173.019 284.075L174.701 284.204L176.859 286.234L175.542 287.917L174.226 291.412L175.67 292.491L178.194 290.57L180.955 291.412L184.063 288.887L188.434 288.393L187.062 291.283L185.636 291.174L181.979 292.729L181.138 295.491L183.186 297.65L182.271 303.029L178.267 301.986L174.61 302.699L174.482 305.096L173.403 305.828L170.057 306.541L167.881 308.938V310.767L164.534 311.371L164.169 312.926L163.199 311.609L161.773 311.371L159.835 312.322L156.726 312.56L156.964 314.975H154.678L152.85 317.243L151.277 316.402L150.436 317.371L147.894 317.847Z" fill="#DDE0E4" stroke="white" stroke-width="3" stroke-linejoin="round"/>
<path d="M249.709 335.666L251.794 335.3L254.043 336.306L256.182 334.294L256.639 335.519L259.785 335.867L261.01 333.946H262.473L263.369 335.629L266.02 335.922L265.398 333.946L263.826 331.696L265.051 328.037C265.051 328.037 266.879 327.799 266.879 326.793C266.879 325.787 266.989 323.756 266.989 323.756L265.417 321.396L265.983 319.567L269.11 317.371L264.356 316.365L261.174 316.2L256.548 313.493L256.073 312.066L249.215 310.785V309.395L253.348 307.95L255.743 306.523L255.195 305.736H250.422L243.711 301.272L242.925 299.443L241.005 299.132L236.909 302.205L235.629 301.254L228.772 303.321L227.346 305.718L225.261 306.687L219.355 303.651L216.649 297.577L211.712 295.345L209.152 295.18L207.871 295.821L204.836 295.674L201.965 293.442L197.814 295.674H195.108L193.682 293.442L189.531 293.278L186.861 291.338L185.472 291.192L181.814 292.747L180.973 295.51L183.021 297.668L182.144 303.065L181.76 305.206L180.845 306.23L182.217 307.346V309.834L181.193 311.078L184.85 311.974L185.069 315.03L186.989 316.164L189.019 315.359L190.592 316.951L190.372 318.981L192.292 322.146H193.408L193.298 324.616L195.328 325.183L196.918 325.073L199.387 327.214L198.838 329.354L199.844 330.031L199.954 332.19L196.297 337.495L195.62 341.154L196.516 342.984L196.406 345.581L193.024 347.813L198.509 350.868L199.753 350.74L202.166 353.85L201.837 355.442L199.698 355.094L197.668 355.881L193.718 353.173V355.131H191.195L188.032 357.271L192.219 357.381L195.474 359.211L198.418 360.455H201.581L201.691 361.132L204.964 361.918L206.793 360.692L209.846 362.266L212.662 360.692L212.9 358.204L217.179 355.149L222.665 353.576L226.322 349.734L229.485 348.49L230.838 346.459L232.667 344.63L234.916 344.52L237.403 339.562L240.219 337.861L243.254 337.642L245.741 333.233L248.447 332.336V334.934L249.636 335.702L249.709 335.666Z" fill="#DDE0E4" stroke="white" stroke-width="0.25" stroke-linejoin="round"/>
<path d="M355.455 424.43L332.562 418.832L332.214 419.271L333.677 421.101L335.25 421.887L335.707 423.223L340.077 423.9V425.729H338.504L337.938 424.814L336.712 424.942L334.792 426.955H332.781L329.636 428.985L324.68 428.638L323.675 429.772L319.067 429.425L317.494 427.595H314.678L310.052 422.985L308.918 424.229H306.559L301.074 428.162H298.605L291.401 426.022H287.378L285.549 427.266L284.086 425.235H282.057L282.733 426.808L281.727 427.595L281.618 430.065L279.588 432.663L279.259 438.956L277.686 440.291L278.802 441.883L278.582 442.542L277.686 442.779L277.119 444.005L278.363 444.902L275.657 448.176H274.084L272.731 449.859L275.218 452.658V453.793L279.369 458.055L279.478 462.336L278.363 463.69L282.111 467.989L281.161 468.867L279.807 471.227L278.674 471.337L276.095 469.654L274.962 467.385L272.475 469.087L271.231 472.746L266.953 473.203L264.575 471.849L261.869 473.423L260.754 471.959L261.869 470.605L264.137 470.386L263.679 468.135L267.337 464.971L265.855 460.562L263.497 459.098L263.149 455.933L256.054 451.872L253.897 452.091L253.567 450.866L254.463 449.384L255.03 444.078L257.627 440.419L256.731 439.523L254.244 441.554L252.653 441.316L250.294 438.608L249.398 436.139L248.173 436.248L247.497 435.462L248.393 434.895V433.449L245.138 432.772L244.351 431.419L240.969 431.748L240.073 430.742L239.067 431.638L237.238 431.419L235.995 432.425L234.422 430.065L232.283 429.736L231.606 430.961L229.65 431.437L225.773 429.736L224.42 424.778V420.844L226.34 420.625L227.455 418.375L229.138 419.161L232.63 417.917L233.069 416.911L231.844 415.082V412.502L231.058 410.472L231.954 409.337L229.961 408.185L230.857 405.386L229.284 404.709L227.821 401.434L228.498 399.861C228.498 399.861 229.741 400.428 229.741 399.751C229.545 398.428 229.283 397.115 228.955 395.818L227.273 395.251L226.029 393.238L228.607 391.317V389.89L230.436 388.207L230.765 389.232H232.685L234.258 391.244L238.079 391.592L235.94 388.884L235.044 384.164L236.507 381.347L235.154 374.157L236.836 372.017L237.055 368.541L234.148 366.51L235.263 365.284V363.455H236.726L242.34 360.766L243.236 360.656L247.625 356.832L252.452 355.479L251.099 353.795L252.233 351.088L253.238 349.258L252.562 348.362L251.227 348.143L252.562 345.106L251.227 344.539L252.013 343.185L252.123 340.038L249.874 338.465L249.727 335.647L251.775 335.208L254.025 336.215L256.164 334.202L256.621 335.428L259.766 335.776L260.991 333.855H262.454L263.35 335.538L266.166 336.013L265.599 340.825L268.068 342.965V347.118L266.953 347.905L269.641 351.051L272.127 350.942L274.358 352.515L269.531 355.899L269.421 362.083L270.774 363.089L268.415 366.565L265.819 366.913V369.492L263.46 374.102L266.166 373.096L269.531 368.376H272.676L273.243 369.273L274.358 368.266L273.133 367.022L274.706 366.345L276.278 364.662L278.308 364.205L281.325 361.058H282.788L286.061 361.973L287.506 363.089L289.938 364.278L292.424 363.601L296.575 364.388L297.471 365.852L301.129 365.961L305.517 367.663L306.194 368.559L308.662 368.449L312.319 370.498L314.367 373.608L317.622 375.31L319.871 378.676L319.743 384.402L321.316 386.652L323.894 386.433L324.132 389.012L327.167 392.671L329.855 394.025L332.104 397.501L331.538 398.855L334.134 401.782L334.354 409.758L337.115 409.886L340.955 407.49L342.162 408.569L342.637 413.014L346.002 414.844L347.08 419.418L350.445 419.052L352.109 416.527L353.316 417.003L355.364 420.259L358.125 421.064L355.455 424.43Z" fill="#DDE0E4" stroke="white" stroke-width="2.25" stroke-linejoin="round"/>
<path d="M229.796 431.181L225.919 429.626L224.566 424.668V420.735L226.486 420.515L227.602 418.265L229.284 419.052L232.777 417.808L233.215 416.801L231.99 414.972V412.393L231.204 410.362L232.1 409.228L229.961 408.185L230.857 405.386L229.284 404.709L227.821 401.434L228.498 399.861C228.498 399.861 229.741 400.428 229.741 399.751C229.545 398.428 229.283 397.115 228.955 395.818L227.273 395.251L226.029 393.238L228.607 391.317V389.89L230.436 388.189L230.765 389.214H232.685L234.258 391.226L238.079 391.573L235.94 388.866L235.044 384.146L236.507 381.329L235.154 374.139L236.836 371.998L237.055 368.523L234.148 366.492L235.263 365.266V363.437H236.726L242.34 360.747L243.236 360.638L247.625 356.814L252.452 355.46L251.099 353.777L252.233 351.07L253.238 349.24L252.562 348.344L251.227 348.124L252.562 345.087L251.227 344.52L252.013 343.167L252.123 340.02L249.874 338.447L249.709 335.648L248.502 334.788V332.19L245.796 333.086L243.309 337.495L240.274 337.715L237.458 339.416L235.081 344.484L232.831 344.593L231.003 346.423L229.595 348.545L226.431 349.789L222.774 353.631L217.289 355.204L213.01 358.259L212.772 360.747L210.121 362.321L208.493 364.919L207.25 365.595L205.001 368.083L203.977 368.413L203.52 369.09L206.464 372.017L204.635 374.852L204.525 376.316L203.739 377.103L205.092 379.133L205.878 380.707H202.038L198.765 379.024L195.602 380.158L194.249 381.512L195.712 383.085L194.596 384.219L192.329 384.896L189.056 389.177L191.104 391.884H193.024L193.353 394.482L195.51 396.751L195.382 398.58L194.029 399.605L194.706 403.776L193.024 405.807L193.7 407.947L196.059 409.978L195.51 415.283L197.65 417.661H201.6L206.098 422.857H208.365L211.071 426.004L215.917 424.32L216.703 424.997L217.727 429.736L220.763 431.565L223.597 433.596L228.095 432.919L229.924 431.236L229.796 431.181Z" fill="#DDE0E4" stroke="white" stroke-width="3" stroke-linejoin="round"/>
<path d="M191.652 452.091L190.281 448.78L188.726 447.81L189.202 445.524L188.726 444.92L190.409 443.365L188.726 442.158L186.441 436.889L184.758 436.047L183.314 434.602L183.68 433.523L183.076 432.681L181.888 433.157L180.315 433.029L178.633 429.79L176.95 429.919L174.921 428.309L174.683 425.436L175.634 424.467L175.158 422.637L173.714 422.528L171.19 419.033L170.587 419.765L170.477 421.796L169.252 422.82L168.905 425.473L169.618 426.315V427.632L167.789 428.473L166.838 431.602L165.156 432.077L166.985 433.285L166.857 436.633L168.301 438.554H169.984L169.252 439.889L167.094 439.651L165.046 436.998L164.096 433.34L163.492 433.102V430.138L162.779 428.583L161.334 427.742L160.859 424.613L160.128 423.881L161.444 422.326L160.859 421.375H158.701L156.178 419.802L157.494 417.405L160.256 417.277L161.7 415.009L160.018 414.405V414.167L160.969 411.661L159.926 410.033L160.493 406.685L163.273 406.977L163.565 406.502L166.235 406.118L164.406 403.995L164.973 401.324H166.326L166.601 396.421L163.638 393.458L164.406 390.677L162.962 388.28L164.114 386.652L166.601 388.866L167.753 387.805V386.085L164.297 385.024L164.406 382.829L167.753 382.06L168.045 380.432L166.601 379.188L164.425 374.066L167.241 372.602L172.288 372.492L175.945 370.279L176.457 368.925L179.254 368.834L183.424 366.547L184.448 362.211L185.965 363.071L188.342 362.815L188.946 360.436L187.922 359.503L188.214 357.29L192.237 357.418L195.492 359.247L198.436 360.491H201.6L201.709 361.168L204.982 361.955L206.811 360.729L209.993 362.43L208.402 364.9L207.158 365.577L204.909 368.065L203.885 368.394L203.428 369.071L206.372 371.998L204.544 374.834L204.434 376.298L203.648 377.084L205.001 379.115L205.787 380.688H201.947L198.674 379.005L195.51 380.139L194.157 381.493L195.62 383.067L194.505 384.201L192.237 384.878L188.964 389.159L191.012 391.866H193.024L193.353 394.464L195.492 396.732L195.382 398.562L194.029 399.586L194.706 403.758L193.024 405.788L193.7 407.929L196.059 409.959L195.492 415.265L197.65 417.643H201.6L206.098 422.839H208.365L211.071 425.985L215.917 424.302L216.703 424.979L217.727 429.717L220.763 431.547L223.597 433.577L228.095 432.901L229.924 431.364L231.753 430.888L232.429 429.662L234.569 429.992L236.141 432.352L237.385 431.346L239.213 431.565L240.219 430.669L241.115 431.675L244.498 431.346L245.284 432.699L248.539 433.376V434.821L247.643 435.389L248.319 436.175L249.545 436.065L250.441 438.535L246.052 443.347L246.399 445.176L244.827 446.768L245.613 450.152L243.913 451.506L243.455 452.969L244.589 455.567L245.723 455.458L247.643 453.976L249.106 456.921L253.842 459.738L257.225 466.05L257.334 471.026L255.762 472.27L254.518 471.355L251.245 473.734L251.465 474.758L256.219 476.331L256.767 477.228L251.922 480.722L249.892 480.96L249.106 482.533L247.753 482.881V484.454L249.581 485.479L248.338 487.308L248.228 488.79L244.717 486.412L244.041 484.948L238.189 482.241L237.732 478.179L240.438 473.093L240.548 469.032L237.842 465.867L235.245 467.001L234.569 468.008L233.215 467.001L232.649 463.946L223.506 464.056L221.348 464.971L220.909 467.898L219.775 468.812L213.906 468.922L211.876 470.496L210.633 470.038L210.742 467.459L208.036 465.757L202.971 457.067L202.514 453.683L204.342 450.738L202.514 449.274L196.315 450.628L195.291 451.305L193.609 450.628L191.78 452.146L191.652 452.091Z" fill="#DDE0E4" stroke="white" stroke-width="3" stroke-linejoin="round"/>
<path d="M188.141 357.217L191.195 355.131L193.682 355.241V353.21L197.631 355.918L199.661 355.131L201.801 355.479L202.148 353.887L199.881 350.722L198.637 350.85L193.023 347.813L196.406 345.673L196.516 343.075L195.62 341.246L196.297 337.587L199.954 332.281L199.844 330.123L198.838 329.446L199.387 327.305L196.918 325.165L195.327 325.275L193.298 324.707L193.407 322.238H192.292L190.372 319.073L190.591 317.042L189.019 315.45L186.989 316.255L185.069 315.121L184.85 312.066L181.193 311.17L182.217 309.925V307.437L180.845 306.322L181.759 305.297L182.143 303.138L178.102 302.095L174.445 302.809L174.317 305.206L173.238 305.937L169.892 306.651L167.716 309.047V310.877L164.37 311.481L164.004 313.036L163.035 311.718L161.609 311.481L159.67 312.432L156.562 312.67L156.8 315.085H154.514L152.685 317.353L151.113 316.512L150.272 317.481L148.004 317.993L148.845 320.609L140.672 323.957C140.497 324.956 140.375 325.964 140.306 326.976C140.306 327.817 138.989 327.324 138.989 327.324L140.672 330.324L138.642 334.294L137.746 338.648L138.24 341.575L141.494 344.063L140.544 345.6L140.726 346.935L142.555 347.118L144.274 345.289L145.426 345.673L145.225 350.942L146.194 351.71L148.297 350.466L148.772 352.954L149.924 354.381L147.145 356.21V356.96L148.589 357.912V360.217L147.62 361.26L149.741 361.168L151.076 358.204L152.996 359.631C152.996 359.631 152.704 363.949 152.612 364.333C152.192 364.989 151.708 365.602 151.168 366.163L151.369 366.821L154.715 367.407L156.141 370.078V374.688L154.422 377.084L158.08 378.328L162.194 374.395L164.169 374.066L167.186 372.584L172.196 372.492L175.853 370.279L176.365 368.925L179.181 368.834L183.332 366.547L184.356 362.211L185.874 363.071L188.251 362.815L188.854 360.436L187.83 359.503L188.086 357.29L188.141 357.217Z" fill="#DDE0E4" stroke="white" stroke-width="3" stroke-linejoin="round"/>
<path d="M147.913 317.884L143.597 315.688L140.343 315.304L138.24 311.096L139.959 309.175L140.343 301.858L141.495 300.888L141.111 296.479L137.289 296.863V295.034L135.753 293.497L133.833 289.838L135.936 288.887L137.289 285.813L136.905 283.325L138.624 280.252H141.111L143.213 278.148L143.031 275.459L143.981 271.635L146.285 271.251L149.357 265.507L146.285 266.074L144.951 264.738L146.285 261.482L142.848 261.098L140.928 255.609L142.464 254.841L142.08 251.182L138.423 252.133L134.583 248.877L129.993 247.542L131.328 246.005L131.529 245.236L135.186 243.133V239.474L137.673 237.553L136.32 235.723L136.503 231.699L133.723 231.131L131.181 232.668H126.939L125.111 235.211L122.386 236.4L121.362 235.211L113.902 231.644L110.244 228.497L108.8 230.327L105.746 230.656L104.228 230.327L105.911 233.729L106.258 237.114L111.012 238.943L112.53 236.236L114.743 237.754L114.231 241.669L113.719 243.883L111.689 243.023L108.471 243.37L106.77 244.56L107.447 248.218L109.476 250.048L109.988 252.774L112.201 253.103L113.902 254.292L114.578 258.207L116.791 260.421L117.979 261.098L116.279 262.452L113.719 261.939L112.366 262.799L111.524 261.61L109.824 262.964L105.911 262.287L103.534 263.293L101.705 266.952H100.864L99.5107 267.647L100.004 269.678L104.759 274.27L102.217 278.166V281.825L98.3221 284.021L95.3598 287.442L93.9884 292.198L92.1598 294.412L90.9713 293.552H89.4536L88.0821 297.632L90.1301 301.034L85.5404 305.608L85.0284 308.169L87.241 309.011L83.6753 315.304L85.5039 317.682L86.5279 322.951L85.5587 324.781L88.8319 330.269L91.721 331.239L92.4342 333.873L88.4844 336.763V339.892L91.3553 340.477L92.0867 341.922L95.7439 342.654L97.5724 340.477L97.6821 339.892L100.206 339.16L100.937 339.892L104.594 338.062L105.307 336.617L107.136 337.825V340.496L108.818 344.154L108.69 344.63H110.372L111.342 343.679L113.371 342.947L116.864 344.154L118.894 342.709L120.228 343.679L122.057 343.789L122.66 345.234L121.106 346.917L123.264 348.362L124.452 345.837L126.281 345.947L126.391 344.758L125.55 343.551L125.806 342.947L127.835 343.313L128.914 342.709L130.487 342.233H131.565L132.754 342.709L133.833 342.105L134.327 338.758L135.277 336.837L136.119 337.66L137.691 338.575L138.532 334.184L140.562 330.214L138.88 327.214C138.88 327.214 140.196 327.708 140.196 326.866C140.266 325.854 140.388 324.847 140.562 323.848L148.736 320.5L147.895 317.884H147.913Z" fill="#DDE0E4" stroke="white" stroke-width="3" stroke-linejoin="round"/>
<path d="M55.8809 226.32L57.8375 232.028L58.9164 238.925L59.7941 243.444L59.9038 252.591L58.1849 263.256L56.0272 272.074L52.5347 282.905L50.5598 289.271L47.0855 297.485L44.1781 303.724L42.7701 305.828L44.4524 306.834L42.4775 311.005L43.1176 313.712L41.8193 315.121L40.905 317.28L39.6616 319.201L39.4421 322.439L40.2833 325.933L39.3873 328.33L37.5587 329.208L36.8456 331.531L43.7758 331.257L45.4764 332.793L49.1335 332.281L52.3518 335.336L56.5941 334.495L58.1301 337.202L61.7872 337.715L63.3232 336.526L65.0055 336.708L67.7301 338.739L69.7598 337.55L75.2455 338.52L72.4112 335.977V332.318L69.3575 330.964L69.5403 328.769L71.7895 327.909L75.1358 328L79.0489 328.439L82.4866 325.439L85.6866 324.982L86.6923 323.006L85.6683 317.737L83.8397 315.359L87.4055 309.066L85.1929 308.224L85.7049 305.663L90.2946 301.089L88.2466 297.687L89.618 293.607H91.1357L92.3243 294.467L94.1528 292.253L95.5243 287.497L98.3951 284.094L102.308 281.898V278.24L104.85 274.343L100.096 269.751L99.5837 267.72L100.955 267.025H101.595L103.424 263.366L105.801 262.36L109.714 263.037L111.415 261.683L112.256 262.872L113.609 262.012L116.169 262.525L117.869 261.171L116.681 260.494L114.541 258.171L113.865 254.256L112.164 253.067L109.952 252.737L109.44 250.011L107.41 248.182L106.733 244.523L108.434 243.334L111.652 242.986L113.682 243.846L114.194 241.633L114.706 237.718L112.493 236.199L110.976 238.907L106.221 237.077L105.874 233.693L104.173 230.29L105.709 230.619L108.763 230.29L110.391 228.259L106.221 222.131L106.057 216.368L103.168 218.399L101.339 221.289L97.5906 221.124L95.5609 219.752L93.0191 219.588L88.082 222.314L87.7529 223.997L83.6752 224.857L82.322 222.478L78.5735 221.124L77.7323 224.783L75.9038 227.674H72.5026L69.4489 231.241L67.2364 230.217L65.7186 226.137L64.8592 225.625L63.8535 227.454L59.4284 226.777L58.7518 224.235L59.0992 222.204L57.9107 220.502H55.1861L53.3575 222.332L55.8809 226.32Z" fill="#DDE0E4" stroke="white" stroke-width="3" stroke-linejoin="round"/>
<path d="M24.393 350.082L25.3987 347.374L25.2341 344.996L31.3416 345.161L31.5244 343.459V339.8L32.6947 338.776L34.3953 338.959L36.2238 335.3L35.8947 332.739L36.7541 331.184L37.4856 328.988L39.3141 328.11L40.2101 325.714L39.369 322.219L39.5884 318.981L40.8318 317.06L41.7461 314.902L43.0444 313.493L42.4044 310.785L44.3793 306.614L42.7153 305.608L38.2535 313.731L35.7667 316.274L31.561 322.201L27.7759 325.86L26.5507 326.372L26.1484 327.269L24.7953 329.519L23.8993 330.068L19.913 333.178L16.713 334.788H14.7016L14.5005 335.099L11.9953 334.751L11.209 335.41L11.6479 334.44L8.7039 332.226V331.678L8.15533 331.019L2.94392 332.354L0.2742 334.788L0.950775 340.569L3.41934 342.398L4.16906 345.106L2.46849 349.478L7.95419 351.417L10.1302 354.418L12.5622 350.539L14.2627 351.015L15.7987 354.125L20.1142 352.734L20.3519 355.405L23.881 355.662L24.393 350.082ZM8.68562 331.165L8.95989 331.458V331.842L11.465 333.855L13.897 334.586L14.5187 334.275H16.1827L19.3644 333.013L22.3816 330.324L24.2102 329.098L24.649 328.147L25.2524 328L25.4719 326.647L24.3564 326.189L21.3759 328.293L19.5473 330.269L14.9942 332.794L12.2879 333.159L11.6845 332.373L9.50847 331.165H8.68562Z" fill="#DDE0E4" stroke="white" stroke-width="3" stroke-linejoin="round"/>
<path d="M89.234 391.537L89.9288 387.622L89.5814 386.268L90.9345 384.567L91.282 380.908L92.6351 378.859L93.1471 376.316L91.6111 374.615L91.282 370.956L90.258 368.907L91.282 366.528L91.4465 362.87L87.7894 356.759L84.5528 356.082L83.1814 353.978L86.1803 348.399L81.1334 346.972L80.2557 342.179L75.154 338.52L69.6683 337.532L67.6386 338.721L64.914 336.69L63.2317 336.507L61.6957 337.696L58.0386 337.184L56.5026 334.477L52.2603 335.318L49.042 332.263L45.3849 332.775L43.6844 331.239L36.6627 331.531L35.8764 332.94L36.2238 335.501L34.3952 339.16L32.713 338.977L31.5244 340.002V343.66L31.3415 345.362L25.2341 345.197L25.3987 347.575L24.393 350.283L23.8993 355.771L27.337 359.229L30.7381 357.052L30.9758 352.917L35.3827 356.576L37.2112 361.077L37.4489 363.254L40.8501 366.913H44.2329L44.4706 371.267L48.1278 378.054L54.1803 380.725L56.3563 379.755L57.3255 380.963L58.5323 387.988L57.0878 389.927L61.9334 394.775L65.0786 395.507L66.5232 398.178L69.6866 401.562L74.2763 402.532L76.7083 401.087L84.4614 399.623L89.5265 393.769L89.234 391.537Z" fill="#DDE0E4" stroke="white" stroke-width="3" stroke-linejoin="round"/>
<path d="M112.676 405.459L114.304 407.288L119.954 408.935H123.008L124.745 409.978L128.768 409.319L130.962 413.143L132.205 412.85L131.346 410.472L132.498 409.118H133.833L134.692 410.947L136.32 411.514L139.008 409.685L138.715 405.843L142.171 405.184L143.506 406.136L145.609 405.184L150.491 406.904L149.924 408.624L152.027 409.978H153.764L157.11 414.002L160.036 413.838L160.932 411.496L159.89 409.868L160.457 406.52L163.236 406.813L163.529 406.337L166.198 405.953L164.37 403.831L164.937 401.16H166.29L166.564 396.257L163.602 393.293L164.37 390.512L162.925 388.116L164.077 386.488L166.564 388.701L167.716 387.64V385.92L164.26 384.859L164.37 382.664L167.716 381.896L168.009 380.268L166.564 379.023L164.37 373.883L162.249 374.23L158.134 378.164L154.477 376.92L156.196 374.523V369.913L154.77 367.242L151.424 366.656L151.222 365.998C151.763 365.437 152.247 364.825 152.667 364.168C152.667 363.784 153.051 359.467 153.051 359.467L151.131 358.04L149.796 361.004L147.675 361.095L148.644 360.052V357.747L147.2 356.796V356.027L149.979 354.198L148.827 352.771L148.352 350.283L146.249 351.527L145.28 350.759L145.481 345.49L144.329 345.106L142.61 346.935L140.781 346.752L140.598 345.417L141.549 343.88L138.166 341.465L137.691 338.575L136.155 337.66L135.314 336.837L134.363 338.758L133.869 342.105L132.79 342.709L131.602 342.233H130.523L128.951 342.709L127.872 343.313L125.842 342.947L125.586 343.551L126.427 344.758L126.317 345.966L124.489 345.837L123.3 348.362L121.124 346.917L122.697 345.234L122.093 343.789L120.265 343.679L118.93 342.709L116.9 344.154L113.408 342.947L111.378 343.679L110.409 344.63H108.727L108.909 344.154L107.227 340.496V337.843L105.399 336.635L104.685 338.081L101.028 339.91L100.315 339.178L97.7917 339.91L97.682 340.514L95.8534 342.673L92.1963 341.941L91.4649 340.496L88.594 339.91V336.782L92.5437 333.891L91.8306 331.257L88.9414 330.287L85.7597 324.964L82.4317 325.421L78.994 328.421L75.0809 327.982L71.7346 327.891L69.4855 328.751L69.3026 330.946L72.3563 332.3V335.959L75.41 338.703L80.3106 342.142L81.1883 346.935L86.2352 348.362L83.2363 353.942L84.6077 356.046L87.8443 356.723L91.5014 362.833L91.3369 366.492L90.3129 368.87L91.3369 370.919L91.666 374.578L93.202 376.279L92.69 378.822L91.3369 380.871L90.9894 384.53L89.6363 386.231L89.9837 387.585L89.2889 391.5L89.5449 393.476L91.2454 395.397L89.0694 397.83L93.4397 402.422V406.081L95.8534 408.496L97.3163 404.617L101.193 404.38L101.906 403.172L109.659 402.202L110.098 406.996L112.676 405.459Z" fill="#DDE0E4" stroke="white" stroke-width="3" stroke-linejoin="round"/>
<path d="M201.636 483.942L202.221 480.027L203.135 479.039L203.373 476.277L199.058 471.959L198.93 464.275L200.85 462.94L194.852 459.574L193.883 457.177L194.614 454.177L191.707 452.256L190.281 448.78L188.726 447.811L189.202 445.524L188.726 444.92L190.409 443.365L188.726 442.158L186.441 436.889L184.758 436.047L183.314 434.602L183.679 433.523L183.076 432.681L181.887 433.157L180.315 433.029L178.633 429.791L176.95 429.919L174.921 428.309L174.683 425.436L175.634 424.467L175.158 422.637L173.714 422.528L171.19 419.033L170.587 419.765L170.477 421.796L169.252 422.82L168.905 425.473L169.618 426.315V427.632L167.789 428.473L166.838 431.602L165.156 432.077L166.985 433.285L166.857 436.633L168.301 438.554H169.983L169.252 439.889L167.094 439.651L165.046 436.999L164.095 433.34L163.492 433.102V430.138L162.779 428.583L161.334 427.742L160.859 424.613L160.128 423.881L161.444 422.326L160.859 421.375H158.701L156.178 419.802L157.494 417.405L160.256 417.277L161.7 415.009L160.018 414.405V413.966L157.147 414.167L153.801 410.142H152.064L149.961 408.789L150.528 407.069L145.645 405.349L143.542 406.301L142.208 405.349L138.752 406.008L139.044 409.85L136.356 411.679L134.729 411.112L133.869 409.283H132.534L131.382 410.636L132.242 413.015L130.998 413.307L128.804 409.484L124.781 410.142L123.044 409.1L119.99 408.99L114.395 407.27L112.768 405.441L110.116 407.032L108.489 410.929L108.726 415.777L105.252 421.119L106.697 422.82L104.758 425.235L106.697 428.144L105.014 430.083L105.49 432.516H108.16L110.573 434.218L113.243 436.87L115.419 437.602L120.502 442.926L125.842 443.42L126.08 444.865L123.666 447.774L122.697 453.592L125.11 456.994L128.987 454.323L131.894 453.354L134.07 457.013L137.728 454.104L145.042 453.134L146.011 451.195L147.474 450.701V452.402L152.32 460.397L155.465 461.605L159.122 457.946L162.267 458.677L168.082 463.507L171.739 464.239L178.779 471.557L180.223 475.673L183.625 474.941L187.007 476.88L187.977 482.204L185.307 485.863L186.77 488.296L192.255 483.686H195.163L197.595 486.101L201.636 483.942Z" fill="#DDE0E4" stroke="white" stroke-width="3" stroke-linejoin="round"/>
<path d="M222.975 498.651L226.633 499.09L227.638 501.23L233.252 507.194L228.315 510.341L232.466 514.603L233.38 514.841L234.953 512.353L235.739 512.81L237.567 512.481L237.677 510.231L244.754 507.414L248.137 508.877L248.575 510.121L250.404 510.908L247.881 516.744L253.055 518.884L255.524 515.628L255.634 511.969L257.992 512.298L260.808 508.639L259.455 507.633L260.351 506.609L262.381 506.846L262.948 508.53L263.734 508.749L264.74 506.17L262.381 504.706L261.924 502.877L262.71 502.218L266.093 502.438L266.312 500.754L269.348 498.157L270.573 498.394L272.036 497.608L273.17 497.827L272.383 499.657L273.846 501.23H276.754L278.674 501.907L281.142 507.651L284.068 507.761L284.744 505.621L286.573 507.194H289.279L290.852 502.803L286.92 498.193L291.967 497.644L294.216 493.254L299.044 490.894L300.507 492.028L309.394 493.144L310.143 493.839L311.076 491.571L306.12 483.247L307.035 481.417L305.681 480.173H302.866L302.646 479.167L300.068 478.271L297.819 474.1L294.564 477.027L292.644 475.344H289.608L286.811 472.654L284.434 472.416L283.318 468.483L282.02 467.751L281.179 468.611L279.826 470.971L278.692 471.081L276.114 469.398L274.98 467.129L272.493 468.831L271.25 472.49L266.971 472.947L264.594 471.593L261.887 473.166L260.772 471.703L261.887 470.349L264.155 470.13L263.698 467.879L267.355 464.714L265.874 460.306L263.515 458.842L263.167 455.677L256.072 451.616L253.915 451.835L253.586 450.61L254.482 449.128L255.048 443.822L257.645 440.163L256.749 439.267L254.262 441.298L252.69 441.06L250.313 438.352L246.052 443.347L246.399 445.176L244.809 446.768L245.613 450.152L243.913 451.506L243.455 452.969L244.589 455.567L245.723 455.458L247.643 453.976L249.106 456.921L253.842 459.738L257.224 466.05L257.334 471.026L255.762 472.27L254.518 471.355L251.245 473.734L251.465 474.758L256.219 476.331L256.767 477.228L251.922 480.722L249.892 480.96L249.106 482.533L247.752 482.881V484.454L249.581 485.479L248.338 487.308L248.228 488.79L244.717 486.412L244.041 484.948L238.189 482.241L237.732 478.179L240.438 473.093L240.548 469.032L237.842 465.867L235.245 467.001L234.569 468.007L233.215 467.001L232.649 463.946L223.506 464.056L221.348 464.971L220.909 467.898L219.775 468.812L213.906 468.922L211.876 470.496L210.633 470.038L210.742 467.44L208.036 465.757L202.971 457.067L202.514 453.683L204.342 450.738L202.514 449.274L196.315 450.628L195.291 451.305L193.609 450.628L191.78 452.11V452.347L194.651 454.177L193.92 457.177L194.889 459.574L200.886 462.94L198.966 464.275L199.094 471.959L203.41 476.277L203.172 479.039L202.276 480.045L201.691 483.905L205.074 485.826L208.95 486.796L212.607 489.705L214.546 494.553L217.947 496.492L222.537 496.986L222.975 498.651Z" fill="#DDE0E4" stroke="white" stroke-width="2.25" stroke-linejoin="round"/>
<path d="M222.043 551.979L224.511 552.857L225.462 552.381L224.511 550.863L225.865 550.387L228.26 552.381L231.039 552.93L233.819 556.589L237.476 559.297L241.133 558.656L245.906 559.205L251.154 561.602L252.58 565.261L255.359 565.736L258.066 568.919L262.911 569.944L267.355 569.541L269.421 570.182L272.84 574.957L279.204 581.872L281.343 582.988L284.909 587.909L285 592.208L287.378 595.227L288.493 598.41L289.682 598.081L295.478 593.562L296.356 596.251H299.373V597.294L298.514 597.696L299.3 598.648L301.677 597.459L303.03 597.77L304.072 600.624H306.376L307.492 599.672H308.205L307.967 601.502L309.704 600.788L312.008 601.026L312.246 603.496L314.404 606.277H315.592L316.616 608.106L315.83 609.698L315.19 610.009V613.668L315.903 615.113L314.075 616.778H312.411L311.771 616.137H311.222L310.582 616.778V620.912L309.467 621.717L307.638 624.333L306.047 624.168V625.687L307.876 626.4L306.212 627.919V629.346L307.803 630.846L307.565 632.675H304.219L302.884 633.773L303.908 635.602L309.302 637.286L310.984 641.658L307.73 645.463L306.687 648.573L308.516 649.195L313.27 647.366L314.075 649.195L312.246 650.787H310.418L310.18 651.976L311.222 652.781L314.642 652.543L316.708 656.11L317.805 656.586L321.864 653.165L324.644 653.019L328.776 654.61L329.179 656.44L327.35 659.147L324.955 658.58L324.004 657.556H322.815L321.627 658.416V660.245L325.522 661.032L327.35 663.593L325.851 665.422L322.194 663.593H317.988L314.02 666.685L313.764 670.508L309.558 675.027V678.21L308.68 679.326V682.985L311.862 685.144L311.972 686.973L311.094 687.211L310.198 690.248L309.522 688.565L306.047 688.455L304.914 685.638L302.445 687.467L300.982 682.4L298.166 679.582L295.807 682.509V683.863L294.125 685.693L289.298 683.442L288.621 680.405L287.835 679.18H284.178L284.854 675.356L283.958 674.112L283.739 670.453L286.994 668.423L287.999 663.245L286.427 661.672L288.255 659.202V656.989C288.255 656.421 290.084 654.976 290.084 654.976L287.835 654.299L281.892 645.152L278.07 645.829L276.15 647.658L272.493 645.975L270.664 648.335H269.549L267.08 645.518L266.294 643.945L263.917 645.079L259.437 644.622L258.76 643.158H257.865L255.268 645.408L250.898 645.756L246.509 643.835L243.474 645.189L241.645 644.622L236.927 640.121L234.678 639.572L232.429 640.688L231.076 640.121L228.827 640.908L226.815 639.682L223.158 639.115H221.33L220.653 636.865L219.538 635.035L220.434 633.352L219.757 632.456L218.294 633.627H216.74L215.935 635.218L213.156 633.791L214.363 632.675L213.394 631.962H210.541L209.023 632.913L209.115 630.132H206.335V631.084L204.178 629.016V628.23L202.751 628.376L202.111 629.254L200.283 627.736L201.325 626.071L199.497 623.528V621.132L200.356 620.253L203.062 620.016L203.227 617.948L206.482 613.905L205.842 612.552L207.524 613.027L208.31 611.673L211.492 611.198L212.041 612.552L213.229 612.314L214.436 609.844H215.935L216.502 609.039L214.436 607.941L214.911 607.447L217.124 607.685L217.929 604.904L219.995 602.526V599.819L221.202 598.465L222.299 598.154L222.463 597.129L219.757 594.66H218.422L214.765 591.568L212.534 590.452L211.254 588.147L205.22 586.866L203.721 587.671L204.105 584.012L203.391 582.823L204.909 581.396L205.074 577.737L207.451 577.499L207.853 576.548L209.993 578.689L215.076 575.121L214.911 573.127L215.954 572.176L217.782 573.53L223.03 572.962L223.506 571.7L225.499 570.584L227.949 564.456L227.803 562.315L223.341 558.656L218.898 558.986L216.795 557.138L220.306 554.686L222.975 555.912L222.043 551.979Z" fill="#DDE0E4" stroke="white" stroke-width="0.25" stroke-linejoin="round"/>
<path d="M214.729 558.528L213.759 561.437L206.975 568.224L204.799 569.688L200.685 564.84H194.395L193.901 568.718L189.366 574.042H185.983L180.406 578.89L177.919 576.493L176.219 577.463L178.157 582.567V587.159L174.281 590.068L167.99 586.683L161.444 586.189L154.898 588.129L149.412 585.476L139.958 588.129L136.301 592.007L138.496 595.885L145.28 597.587L148.169 600.733L147.035 603.642L147.675 608.801L152.667 613.796L152.356 616.467L153.289 618.955L156.269 618.497L161.115 622.559H162.834L163.931 623.345L163.456 625.376L165.796 627.407L173.311 628.815L170.953 630.645L167.99 630.004L163.766 632.712L169.746 633.133L174.208 635.767H181.833L184.374 634.249L184.685 636.792L187.062 639.097L186.916 642.28L188.269 642.92L189.933 638.932H190.719V635.273L190.079 634.249L191.03 633.919L193.499 635.749V637.103L197.467 641.877H205.805L209.7 644.091L209.298 641.548L209.865 640.597L213.906 639.646L218.13 636.938L218.77 633.865H216.941L216.137 635.456L213.357 634.029L214.564 632.913L213.595 632.2H210.742L209.225 633.151L209.316 630.37H206.537V631.322L204.379 629.254V628.468L202.953 628.614L202.313 629.492L200.484 627.974L201.526 626.309L199.698 623.766V621.132L200.557 620.254L203.263 620.016L203.428 617.948L206.683 613.905L206.043 612.552L207.725 613.027L208.511 611.673L211.693 611.198L212.242 612.552L213.43 612.314L214.637 609.844H216.137L216.703 609.039L214.637 607.923L215.113 607.447L217.325 607.685L218.13 604.905L220.196 602.526V599.819L221.403 598.465L222.5 598.154L222.665 597.129L219.958 594.66H218.623L214.966 591.568L212.735 590.452L211.455 588.147L205.421 586.866L203.922 587.671L204.306 584.012L203.593 582.823L205.11 581.396L205.275 577.737L207.652 577.499L208.054 576.548L210.194 578.689L215.277 575.121L215.113 573.127L216.155 572.176L217.983 573.53L223.231 572.963L223.707 571.7L225.7 570.584L228.15 564.456L228.004 562.315L223.542 558.656L219.099 558.986L216.795 557.12L214.729 558.528Z" fill="#DDE0E4" stroke="white" stroke-width="3" stroke-linejoin="round"/>
<path d="M166.363 636.133L165.595 640.67L161.206 647.384V651.043L164.644 654.482L163.565 657.446L159.652 662.148L160.438 671.533L163.876 674.185L167.771 673.874L168.082 674.661L165.595 677.405L165.119 679.765L167.935 680.698L166.363 682.253L165.595 688.986L167.314 693.834L172.306 701.645L173.257 708.524L172.159 709L169.801 715.421L168.868 716.354V717.598L171.373 718.86L173.567 723.068L175.597 723.544L176.365 729.325L177.938 730.276L176.219 731.52L175.433 733.715L177.627 736.99L178.724 740.649L177.151 741.582L178.559 744.399L180.278 742.57H187.318L191.999 746.009L192.95 747.418L201.234 747.729L203.574 747.583L208.566 750.089L210.139 752.906L213.796 754.15L214.418 751.187L216.923 750.711L217.709 752.431L217.087 754.937L222.573 759.145L225.06 758.998L225.224 757.279H226.779L227.419 759.108L224.914 760.517L224.127 762.09L224.914 764.121L223.085 767.871L218.879 768.347L215.222 773.506L217.416 778.189L217.252 783.202L218.495 783.678L219.446 780.22L224.127 776.945L226.779 777.11L225.535 778.5L227.73 780.074L229.138 785.708L231.624 788.983L234.294 787.428H236.47L237.11 789.148L242.596 790.081L243.382 788.526L245.869 790.355L247.698 788.946L247.844 785.196L250.514 784.885L252.854 786.294L257.389 784.72L258.011 783.001L261.924 782.854L270.518 777.842L269.275 775.189L270.829 773.616L274.578 774.713L277.083 773.158L275.675 770.341L274.888 768.621L277.394 766.792L281.142 767.432L288.018 763.352L290.047 759.126L292.644 757.681L294.619 760.535L299.867 758.706L302.28 753.675L300.744 748.644L303.14 742.954L305.554 742.076V744.271L312.557 752.138H315.611L317.823 750.601L317.512 747.327L314.696 744.637L316.708 744.07L319.304 737.448L316.598 735.764L315.812 733.167L313.709 730.349L314.715 728.886V725.739C314.715 725.739 317.64 724.843 317.75 724.385C317.848 723.339 317.891 722.289 317.878 721.239L320.109 717.982L317.878 716.519V714.598L320.785 712.018L321.023 711.341L323.144 709.768L323.382 708.085L321.553 706.841L321.334 705.725L323.016 704.152L323.912 701.572L321.316 699.066L323.894 697.236L319.633 692.736C319.633 692.736 319.414 690.596 319.286 690.156C319.158 689.717 315.483 691.986 315.483 691.986L314.349 691.199L315.592 688.62L312.776 688.51L312.209 687.376L311.313 687.595L310.418 690.632L309.741 688.949L306.267 688.839L305.133 686.022L302.664 687.851L301.202 682.784L298.385 679.966L296.027 682.894V684.247L294.344 686.077L289.517 683.827L288.84 680.808L288.054 679.564H284.397L285.074 675.74L284.178 674.496L283.958 670.838L287.213 668.807L288.219 663.63L286.646 662.056L288.475 659.587V656.989C288.475 656.422 290.303 654.976 290.303 654.976L288.054 654.299L282.111 645.152L278.29 645.829L276.37 647.659L272.712 645.975L270.884 648.335H269.768L267.3 645.518L266.514 643.945L264.136 645.079L259.656 644.622L258.98 643.158H258.084L255.487 645.408L251.117 645.756L246.728 643.835L243.693 645.189L241.864 644.622L237.147 640.121L234.898 639.572L232.648 640.688L231.295 640.121L229.046 640.908L227.035 639.682L223.378 639.115H221.549L220.872 636.865L219.757 635.035L220.653 633.352L219.977 632.456L218.77 633.462L218.075 636.7L213.851 639.408L209.81 640.359L209.243 641.31L209.645 643.853L205.823 641.731H197.485L193.517 636.956V635.603L191.049 633.773L190.098 634.102L190.738 635.127V638.786L189.951 638.877L188.287 642.847L186.934 642.207L187.081 639.024L184.703 636.719L184.393 634.176L181.851 635.694H174.226L169.691 633.206L163.858 632.749L166.363 636.133Z" fill="#DDE0E4" stroke="white" stroke-width="3" stroke-linejoin="round"/>
<path d="M391.862 790.648L389.668 791.526L392.502 796.337L394.916 795.459L400.822 798.532L403.016 800.929L401.7 801.588L401.48 804.222L403.674 805.301L403.016 808.155L404.314 811.43L402.577 813.406L404.534 814.943L404.753 819.973L404.095 823.029L402.577 823.468L403.894 825.297L404.095 827.932L401.7 829.23L404.973 832.084L405.156 840.28H406.692L407.185 841.049H409.197L409.581 841.817H410.897L411.793 841.158L413.622 841.067L413.896 841.927L415.158 841.726L415.359 839.512L422.106 836.713L422.692 833.621L426.257 830.163L426.733 828.133L428.47 827.932L429.622 830.548L430.792 831.901L431.176 834.499L437.448 837.975L439.076 837.298L439.752 836.713L440.045 836.146L438.893 835.945L438.125 834.408L439.953 833.53H443.044L444.013 834.499L446.902 834.682L447.286 833.438L449.316 833.054L449.882 833.621L453.265 834.024L456.063 832.469H461.823L465.206 834.298L467.235 839.219L468.479 840.006L468.68 839.036H470.326L471.953 837.298L471.569 828.7L472.63 823.779L474.367 823.486L479.194 819.425L482.961 816.626L488.557 808.247L490.093 794.343L488.648 792.312L488.447 790.19L490.275 788.269L490.55 785.086L492.287 784.025H492.909V785.562L494.554 787.592L494.646 790.391L496.383 791.068L506.275 791.27L512.054 790.117L512.163 789.641L511.194 789.147L510.81 786.44L511.487 785.781L511.395 782.305L515.052 777.274L515.93 777.183L520.264 771.402L522.001 763.865L522.44 760.37L523.793 756.602L524.762 756.035L524.854 754.864L523.884 754.004L522.056 749.76L518.399 745.021L518.033 737.704L517.832 736.368L516.68 736.075L516.113 737.027L512.547 736.222L511.962 736.807L510.609 737.191L508.525 735.197L506.44 737.612L504.611 738.399L499.126 738.252L498.486 739.679L495.304 743.338L490.696 743.649L489.434 744.93L490.531 746.192L490.056 749.211L493.238 752.394L491.025 753.345L489.91 755.577V757.608L487.514 757.443L485.923 755.376L484.826 757.205L482.12 758.632L479.889 756.565L478.463 756.254L477.512 755.467L474.641 756.089L472.429 758.632L472.575 762.767L474.641 763.096L476.47 766.115L475.043 769.298L473.215 769.133L472.575 769.92L470.509 767.542L468.936 768.017L465.901 774.53L464.072 776.451L461.859 777.567L464.072 778.043V782.488L462.81 783.604L464.547 786.623L463.908 787.263L465.827 792.184L466.614 792.349L466.138 794.416L434.522 801.094L433.572 802.045H429.274L429.439 805.539L430.536 807.369L430.225 807.844L427.848 806.582L423.551 806.747L423.076 803.874L421.485 803.088L423.313 799.429L421.741 795.77L423.002 793.538L418.705 788.288L419.51 785.745L419.345 784.171L415.377 781.391L414.408 778.683L410.605 776.305L408.776 773.762L406.564 774.073L403.693 777.585L398.299 780.128L395.592 785.214L397.969 787.757L393.526 788.068L391.697 787.867L391.862 790.648Z" fill="#DDE0E4" stroke="white" stroke-width="3" stroke-linejoin="round"/>
<path d="M391.752 787.83L393.581 788.068L398.024 787.757L395.647 785.214L398.353 780.128L403.748 777.585L406.619 774.073L408.831 773.762L410.66 776.305L414.463 778.683L415.432 781.391L419.236 784.263L419.4 785.836L418.596 788.397L422.893 793.63L421.631 795.861L423.204 799.52L421.375 803.179L422.966 803.966L423.441 806.838L427.738 806.673L430.116 807.936L430.426 807.46L429.329 805.631L429.165 802.136H433.462L434.413 801.185L466.029 794.508L466.504 792.44L465.718 792.276L463.652 787.281L464.292 786.641L462.554 783.623L463.816 782.507V778.061L461.604 777.585L463.816 776.469L465.645 774.549L468.68 768.036L470.253 767.56L472.319 769.938L472.959 769.152L474.788 769.316L476.214 766.133L474.385 763.115L472.319 762.785L472.173 758.651L474.385 756.108L477.256 755.486L478.207 756.272L479.633 756.583L481.864 758.651L484.57 757.224L485.668 755.394L487.258 757.462L489.654 757.626V755.394L490.769 753.162L492.982 752.211L489.8 749.028L490.276 746.009L489.178 744.747L490.44 743.466L495.048 743.155L498.23 739.496L498.87 738.069L504.356 738.216L506.184 737.429L508.232 735.051V732.856L507.556 729.105L505.928 727.166L505.635 723.031L504.666 722.446L504.483 719.738L506.696 718.11V717.049L507.281 716.665L507.556 715.604L505.928 713.866V712.896L505.343 712.512L505.16 710.573L506.221 709.713L506.696 707.682L507.464 706.914V705.56L503.514 701.609L499.565 701.316L496.566 697.968L495.981 697.675L495.706 696.614L496.858 695.846L498.778 691.108L498.961 684.869H499.747L499.93 683.424L498.285 681.302L496.072 673.984L494.628 672.649V670.124L495.304 670.033L497.425 666.666H498.102L498.285 665.788L496.072 662.129L495.871 657.391L496.84 656.623L496.95 654.116L493.951 650.073V648.244L492.324 643.524L489.526 640.341L489.124 638.895L490.568 638.017L489.709 637.231H484.223L481.041 630.242L475.318 628.962L474.056 624.187L472.228 623.876L471.752 622.284L466.029 621.644L463.652 618.424L460.964 620.491L459.044 620.821L455.551 624.79L459.373 627.022L460.324 625.742H462.554L463.652 627.974L464.292 627.022L466.12 626.693L466.266 625.906L470.564 627.333L471.99 627.663V630.517L469.613 632.749H467.784L465.718 635.602L463.012 631.779L459.354 633.608L457.526 635.2H456.264V638.219L453.393 637.578L451.967 639.81L449.279 638.365H448.164L444.342 641.072L442.276 639.957H437.668L437.192 636.298L433.224 632.474L429.092 632.639L427.501 634.468L428.616 635.731V641.219L433.06 648.207L435.126 647.732L438.143 649.964V652.031L435.93 654.885L436.552 656.714L434.961 660.519H433.535L432.42 662.111H428.909L427.318 664.178L428.269 667.051L430.5 667.691L431.304 669.52L429.073 670.307L427.483 673.015L428.433 674.295L431.14 673.655L433.371 676.984L431.542 679.857L429 680.003L428.36 682.546L424.228 682.875L422.399 682.07L418.742 682.4L415.889 689.077L414.445 689.223L412.854 690.815L409.526 690.504L406.966 693.157L407.917 696.98L406.088 701.115H404.516L401.48 704.444L398.463 703.804L395.592 705.725L396.708 707.298L392.337 709.695H386.12L383.816 710.719L382.628 713.189L385.645 717.635V721.019L389.156 722.446L388.991 726.416L386.12 728.813L385.023 728.008L385.169 731.191L386.998 733.423L386.687 736.112L385.407 737.704L385.883 741.051L382.39 739.935L380.561 741.051L374.673 739.771L373.083 739.295L372.132 742.954L373.96 745.186L371.419 747.253L370.139 750.436L370.779 752.504L366.171 753.766L364.342 756.62L362.276 757.59L358.308 755.522L356.132 760.7H357.869L362.038 763.535L363.117 767.487L365.969 769.444L372.095 781.263L370.998 784.556L374.289 788.708L377.124 789.587L380.415 787.391L381.713 787.611L383.688 789.44L387.839 790.318L389.156 788.489L391.752 787.83Z" fill="#DDE0E4" stroke="white" stroke-width="2.25" stroke-linejoin="round"/>
<path d="M413.128 503.316L409.471 502.639L408.118 504.468L405.192 502.456L404.516 504.029L406.106 507.395L402.34 510.633L398.518 518.738L393.343 526.605L387.053 531.105L384.584 530.428L385.48 534.087L386.833 537.014L386.157 540.673L379.866 546.747L380.305 550.79L378.952 553.936V560.907L372.662 561.126L373.796 564.273L378.513 567.419L378.056 578.67L381.713 586.756L377.709 589.153H368.566V593.416L371.272 598.136L372.388 603.093L373.741 605.325L369.243 609.606L369.462 603.093L367.633 601.063L362.148 601.959L361.471 607.136L364.397 612.753L360.74 615.9L362.769 619.266L365.019 624.9L367.268 626.73L361.873 630.553L364.123 633.48L361.873 635.95L364.781 640.213L362.312 642.243L364.561 645.902L367.926 646.799L365.695 649.268L368.602 651.299L367.487 657.135L370.632 662.751L375.13 661.416L378.276 662.093L382.993 669.063L380.086 675.283L382.116 675.722L380.086 680.9L375.88 684.705L372.973 685.382V686.498L376.794 687.394V690.321L373.869 693.248L374.545 697.511L378.367 698.188L375.204 700.657H379.025L378.129 706.731L382.847 708.762L383.816 710.591L386.212 709.622H392.337L396.616 707.225L395.501 705.634L398.372 703.804L401.389 704.444L404.57 701.097H406.161L407.898 696.962L406.948 693.157L409.489 690.614L412.836 690.925L414.408 689.333L415.853 689.187L418.705 682.509L422.362 682.18L424.191 682.985L428.323 682.656L428.964 680.113L431.505 679.966L433.334 677.094L431.103 673.765L428.397 674.387L427.446 673.124L429.037 670.417L431.268 669.63L430.463 667.709L428.25 667.087L427.281 664.215L428.872 662.148H432.383L433.48 660.556H434.925L436.497 656.751L435.875 654.921L438.088 652.068V650L435.071 647.842L433.005 648.317L428.561 641.329V635.84L427.446 634.578L429.037 632.749L433.169 632.584L437.137 636.389L437.613 640.048H442.221L444.287 641.164L448.109 638.456H449.224L451.912 639.902L453.357 637.67L456.209 638.31V635.292H457.489L459.226 633.7L462.883 631.87L465.59 635.694L467.656 632.84H469.485L471.862 630.608V627.718L470.435 627.407L466.157 625.98L465.992 626.766L464.163 627.096L463.542 628.047L462.426 625.815H460.195L459.245 627.096L455.423 624.864L458.915 620.894L460.835 620.565L463.542 618.497L465.919 621.681L471.642 622.321L472.118 623.912L473.946 624.223L475.226 628.998L480.931 630.261L484.113 637.267H489.599L490.495 638.054L492.689 636.316L493.201 630.187L490.129 627.718L489.654 623.748L489.452 623.071L491.866 622.01H497.352L498.906 622.906L500.076 621.461L499.199 620.876V619.632L500.076 618.278L500.844 619.522H501.704L502.673 618.278L504.995 617.125L505.727 615.515L503.094 614.033L503.953 612.588L504.447 611.143L507.299 611.454L507.391 610.118H508.36L509.695 607.704L511.34 607.21L513.169 605.289L519.02 605.472L520.172 603.441L519.313 602.087V600.733L516.424 598.337H515.455L508.799 592.538V591.568L502.819 584.762L502.344 580.518L501.283 580.042L501.082 578.689L501.96 578.122L503.496 575.322V572.834L502.344 571.188L497.041 569.852L495.395 565.7L495.304 560.211L495.121 556.79L490.824 554.54L490.111 551.54L490.477 547.094L487.222 544.46L484.351 547.222L481.699 546.747L483.382 544.57L483.034 541.094L476.671 531.489L475.464 525.726L467.656 519.854L463.469 517.695L461.293 513.433L458.001 511.603L458.678 509.774L451.711 510.176L448.054 512.298L439.222 510.469L433.041 507.377L427.885 503.078L425.654 499.657L425.252 496.894L419.766 497.443L417.462 499.145L415.322 498.815L413.128 503.316Z" fill="#DDE0E4" stroke="white" stroke-width="2.25" stroke-linejoin="round"/>
<path d="M319.451 750.821V753.217L328.411 759.565L329.727 758.907L328.63 755.413L331.483 752.998L332.36 748.186H333.823L336.017 750.016L338.431 748.479L341.265 748.699L342.582 750.894L348.488 755.266L350.317 755.486L352.054 756.803L352.273 759.858L354.907 760.736H356.004L358.18 755.632L362.148 757.699L364.214 756.73L366.043 753.876L370.651 752.595L370.011 750.528L371.291 747.363L373.832 745.296L372.004 743.064L372.955 739.405L374.545 739.881L380.433 741.161L382.262 740.045L385.754 741.161L385.279 737.813L386.559 736.222L386.87 733.533L385.041 731.301L385.023 727.971L386.138 728.776L388.991 726.379L389.156 722.41L385.645 720.983V717.635L382.628 713.189L383.816 710.738L382.774 708.762L378.056 706.731L378.952 700.657H375.131L378.294 698.188L374.472 697.511L373.796 693.248L376.703 690.321V687.394L372.9 686.498V685.382L375.807 684.705L380.086 680.881L382.097 675.704L380.086 675.265L383.231 668.972L378.513 662.001L375.368 661.324L370.87 662.66L367.725 656.989L368.84 651.153L365.933 649.122L368.164 646.652L364.799 645.756L362.55 642.097L365.019 640.066L362.111 635.804L364.36 633.334L362.111 630.407L367.505 626.583L365.256 624.754L363.08 619.266L361.051 615.899L364.708 612.753L361.782 607.136L362.459 601.959L367.944 601.063L369.773 603.093L369.553 609.606L374.052 605.325L372.699 603.093L371.583 598.136L368.566 593.416V589.153H377.709L381.75 586.665L378.093 578.579L378.55 567.328L373.832 564.181L372.699 561.035L378.989 560.815V553.845L380.342 550.698L379.903 546.655L386.193 540.581L386.87 536.923L385.517 533.995L384.621 530.337L387.089 531.013L393.38 526.513L398.554 518.646L402.376 510.542L406.18 507.176L404.607 503.81L405.284 502.236L408.209 504.249L409.562 502.419L413.22 503.096L415.396 498.614L411.885 497.992L411.482 495.98L408.41 493.711H404.442L397.988 492.321L392.868 489.083L392.173 484.308L389.741 476.789L385.572 469.471L384.968 468.081L379.738 469.123L376.703 469.014L373.905 470.367L370.395 467.514L367.816 468.977H364.671L363.885 468.739L362.203 470.569L359.844 469.434V467.751L358.71 468.428L355.345 466.398H353.517L352.84 466.965L353.389 467.642L353.169 470.221H351.158L351.597 473.258H349.915L347.995 474.154L347.665 475.984L346.093 476.88L343.405 479.13L341.375 480.246L339.693 479.13H336.2L333.622 480.704L328.685 480.466L327.441 479.917L326.655 481.747L324.516 481.966L323.839 484.454L321.48 489.613V494.9L325.302 501.651L324.973 504.798L321.718 502.657H319.743L318.847 500.974L313.892 497.937L314.459 496.108L310.143 493.803L309.412 493.181L300.525 492.065L299.062 490.93L294.235 493.29L291.986 497.681L286.939 498.248L290.87 502.84L289.298 507.231H286.591L284.763 505.657L284.086 507.798L281.16 507.688L278.692 501.944L276.772 501.267H273.864L272.402 499.693L273.188 497.864L272.054 497.644L270.591 498.431L269.366 498.193L266.331 500.791L266.111 502.474L262.728 502.255L261.942 502.913L262.399 504.743L264.758 506.206L263.752 508.786L262.966 508.566L262.399 506.883L260.37 506.645L259.474 507.67L260.827 508.676L258.011 512.335L255.652 512.006L255.542 515.664L253.074 518.921L247.88 516.744L250.587 510.908L248.758 510.121L248.301 508.877L244.936 507.414L237.86 510.231L237.75 512.481L235.922 512.81L235.135 512.353L233.563 514.841L232.649 514.603L228.498 510.341L233.435 507.194L227.766 501.23L226.761 499.09L222.975 498.651L221.33 500.132L216.959 507.633L214.07 508.859V510.633L217.161 512.463L226.303 520.952L229.961 522.653L235.775 531.379V534.032L234.806 535.258L231.698 532.587H228.297L226.121 534.764L224.42 535.002L222.281 541.569L222.025 551.961L224.548 552.857L225.499 552.381L224.548 550.863L225.901 550.387L228.297 552.381L231.076 552.93L233.855 556.589L237.513 559.297L241.17 558.656L245.942 559.205L251.19 561.602L252.616 565.261L255.396 565.736L258.102 568.919L262.948 569.944L267.391 569.541L269.458 570.182L272.877 574.957L279.24 581.872L281.38 582.988L284.946 587.909L285.037 592.208L287.414 595.227L288.53 598.41L289.718 598.081L295.515 593.562L296.392 596.251H299.41V597.294L298.532 597.697L299.336 598.648L301.714 597.459L303.067 597.77L304.109 600.624H306.413L307.51 599.672H308.242L308.004 601.502L309.741 600.788L312.045 601.026L312.283 603.496L314.422 606.277H315.629L316.653 608.106L315.867 609.698L315.227 610.009V613.668L315.94 615.113L314.111 616.778H312.447L311.807 616.137H311.259L310.619 616.778V620.912L309.503 621.717L307.675 624.333L306.084 624.169V625.687L307.912 626.4L306.248 627.919V629.346L307.839 630.846L307.602 632.675H304.255L302.902 633.773L303.944 635.603L309.339 637.286L311.021 641.658L307.748 645.463L306.724 648.573L308.552 649.195L313.307 647.366L314.111 649.195L312.283 650.787H310.454L310.216 651.976L311.259 652.781L314.66 652.543L316.726 656.111L317.842 656.586L321.901 653.165L324.68 653.019L328.813 654.61L329.215 656.44L327.387 659.147L324.991 658.58L324.04 657.556H322.852L321.663 658.416V660.245L325.558 661.032L327.387 663.593L325.887 665.422L322.23 663.593H318.024L314.038 666.685L313.8 670.508L309.595 675.027V678.21L308.717 679.326V682.985L311.899 685.144L312.027 686.973L312.594 688.144L315.409 688.254L314.166 690.833L315.281 691.62C315.281 691.62 318.939 689.37 319.103 689.791C319.268 690.211 319.451 692.37 319.451 692.37L323.711 696.87L321.133 698.7L323.711 701.298L322.815 703.877L321.133 705.451L321.352 706.567L323.181 707.811L322.943 709.494L320.822 711.067L320.584 711.744L317.659 714.323V716.244L319.908 717.708L317.659 720.964C317.659 720.964 317.659 723.654 317.549 724.111C317.439 724.568 314.513 725.465 314.513 725.465V728.611L313.508 730.075L315.757 732.874L316.543 735.472L319.231 737.155L316.653 743.777L314.642 744.344L317.457 747.052L317.787 750.309L319.451 750.821Z" fill="#DDE0E4" stroke="white" stroke-width="3.25" stroke-linejoin="round"/>
<path d="M332.562 418.832L332.214 419.271L333.677 421.101L335.25 421.887L335.707 423.223L340.077 423.9V425.729H338.504L337.938 424.814L336.712 424.942L334.792 426.955H332.781L329.636 428.985L324.68 428.638L323.675 429.772L319.067 429.425L317.494 427.595H314.678L310.052 422.985L308.918 424.229H306.559L301.074 428.162H298.605L291.4 426.022H287.378L285.549 427.266L284.086 425.235H282.056L282.733 426.808L281.727 427.595L281.618 430.065L279.588 432.663L279.259 438.956L277.686 440.291L278.802 441.883L278.582 442.542L277.686 442.779L277.119 444.005L278.363 444.902L275.656 448.176H274.084L272.731 449.859L275.218 452.658V453.793L279.368 458.055L279.478 462.336L278.363 463.69L282.02 467.953L283.263 468.739L284.379 472.673L286.738 472.91L289.554 475.6H292.589L294.418 477.283L297.691 474.356L299.94 478.527L302.518 479.423L302.738 480.429H305.554L306.907 481.673L305.992 483.503L310.948 491.827L309.997 494.077L314.312 496.327L313.746 498.157L318.701 501.194L319.597 502.877H321.627L324.882 505.017L325.211 501.87L321.389 495.12V489.833L323.748 484.674L324.424 482.186L326.564 481.966L327.35 480.137L328.594 480.686L333.531 480.923L336.109 479.35H339.602L341.284 480.466L343.313 479.35L346.001 477.1L347.574 476.203L347.921 474.374L349.75 473.478H351.432L350.994 470.441H353.005L353.243 467.861L352.676 467.184L353.352 466.617H355.181L358.545 468.648L359.679 467.971V469.654L362.038 470.788L363.72 468.959L364.507 469.178H367.652L370.23 467.733L373.613 470.752L376.411 469.416L379.446 469.526L384.694 468.465L381.037 459.555L382.372 453.793L380.196 450.628L375.423 450.518L373.156 448.432L371.181 445.011L366.646 443.182L362.404 445.194L358.875 442.761L357.777 437.273L356.223 434.401L357.32 430.852L355.492 424.558L332.562 418.832Z" fill="#DDE0E4" stroke="white" stroke-width="2.25" stroke-linejoin="round"/>
<path d="M355.364 420.314L353.316 417.058L352.127 416.582L350.445 419.107L347.08 419.472L346.001 414.899L342.637 413.069L342.161 408.624L340.955 407.544L337.115 409.941L334.353 409.813L334.134 401.837L331.537 398.91L332.104 397.556L329.855 394.08L327.167 392.726L324.132 389.067L323.894 386.488L321.316 386.707L319.743 384.402L319.853 378.676L317.604 375.255L314.349 373.554L312.319 370.443L315.702 368.504L315.921 365.797L317.055 364.79L318.628 366.035L320.456 364.571L318.207 360.912V358.79L322.248 356.668L322.705 357.454L325.393 356.668L326.18 355.204L330.349 353.741L331.921 352.387L332.36 353.521H333.933L334.719 354.18L335.853 352.35L334.719 351.234L334.847 347.74L336.072 345.49L334.847 337.514L333.147 335.83L335.396 332.172V329.702L331.464 324.762L331.574 322.622L333.403 320.994L334.92 322.567L344.173 317.92L343.46 315.048L346.715 314.024L348.543 314.682L350.609 316.823L353.828 317.829L356.296 321.799L364.232 322.476L365.549 324.689L361.252 328.092H358.6L353.499 329.318L352.109 334.275L348.854 339.361L351.103 341.483L346.312 346.752V350.246L340.827 355.552L341.284 357.784L336.091 359.613L337.023 362.705L342.856 365.431L345.398 368.358L344.575 372.017L342.417 375.365L344.246 384.329L347.775 386.543L347.629 389.799L346.294 394.007L347.629 395.543L345.27 400.19L347.263 403.282L352.182 404.032L356.826 409.978V416.801L358.271 421.101L355.364 420.314Z" fill="#DDE0E4" stroke="white" stroke-width="3" stroke-linejoin="round"/>
<path d="M343.533 315.176L341.906 311.298L336.511 312.889L341.997 306.431L338.779 304.602L333.037 310.09L328.758 315.579L323.272 316.694L321.078 314.7H315.775L310.29 310.273L308.15 308.023L303.048 307.053L299.263 302.626L300.671 299.571H299.556L298.093 300.687L295.167 301.034L294.162 300.467L291.583 300.577L288.548 302.827L286.189 303.065L285.366 305.736L282.66 306.413V308.242L283.794 310.712L280.63 314.993L279.972 318.817L280.758 322.293L280.868 328.257L279.624 328.824L278.052 328.257L276.479 326.116L273.663 325.439L271.652 322.64L271.762 320.5L271.652 317.81L269.348 317.225L266.166 319.457L265.599 321.286L267.172 323.646C267.172 323.646 267.172 325.677 267.062 326.683C266.953 327.689 265.234 327.927 265.234 327.927L264.009 331.586L265.581 333.836L266.367 336.013L265.801 340.806L268.269 342.947V347.1L267.154 347.886L269.842 351.033L272.329 350.923L274.559 352.497L269.732 355.881L269.622 362.065L270.975 363.071L268.617 366.547L266.02 366.894V369.474L263.661 374.084L266.367 373.078L269.732 368.358H272.877L273.444 369.254L274.559 368.248L273.334 367.004L274.907 366.327L276.479 364.644L278.509 364.187L281.526 361.04H282.989L286.262 361.955L287.707 363.071L289.938 364.278L292.424 363.601L296.575 364.388L297.471 365.852L301.128 365.961L305.517 367.663L306.194 368.559L308.662 368.449L312.191 370.517L315.629 368.559L315.848 365.852L316.964 364.845L318.555 366.089L320.383 364.626L318.134 360.967V358.79L322.175 356.668L322.632 357.454L325.32 356.668L326.107 355.204L330.276 353.741L331.848 352.387L332.287 353.503H333.86L334.646 354.18L335.78 352.35L334.646 351.234L334.774 347.74L335.999 345.49L334.774 337.513L333.074 335.83L335.323 332.172V329.702L331.391 324.762L331.501 322.622L333.33 320.994L334.847 322.622L344.136 317.902L343.533 315.176Z" fill="#DDE0E4" stroke="white" stroke-width="3" stroke-linejoin="round"/>
<path d="M168.722 238.047L170.843 239.053L171.081 243.133L175.03 245.895L179.126 244.578L184.521 245.419L183.881 247.194L189.056 249.243L187.227 252.005L187.702 254.878L188.781 256.213L189.275 259.561L187.446 261.738L190.445 265.818L190.555 270.849L188.726 273.501L188.836 276.374L190.409 277.215L190.171 283.106L188.342 288.594L186.898 291.357L189.622 293.278L193.773 293.442L195.2 295.674H197.906L202.057 293.442L204.928 295.674L207.963 295.821L209.243 295.18L211.803 295.345L216.74 297.577L219.446 303.651L225.353 306.687L227.437 305.718L228.864 303.321L235.721 301.254L237.001 302.205L241.152 299.187L243.071 299.498L243.858 301.327L250.569 305.791H255.195L255.835 306.596L253.439 308.023L249.307 309.468V310.749L256.164 312.029L256.639 313.456L261.266 316.164L264.447 316.329L269.183 317.335L271.579 317.957L271.689 320.646L271.579 322.787L273.609 325.586L276.406 326.262L277.979 328.403L279.551 328.97L280.795 328.403L280.685 322.439L279.899 318.963L280.575 315.139L283.721 310.859L282.587 308.389V306.559L285.293 305.882L286.079 303.303L288.438 303.065L291.474 300.815L294.052 300.705L295.058 301.272L297.983 300.925L299.446 299.809H300.525L301.586 297.485L302.189 294.814L304.255 293.9L302.994 291.485L303.78 287.826L302.61 284.515L307.035 280.764H309.485L311.003 277.215L303.378 277.709L300.141 274.16L294.546 272.111L290.633 276.191L287.25 275.514L283.41 276.264L279.753 276.392L276.772 272.806L277.247 270.318L271.177 264.83L268.635 261.83L263.716 260.805L261.339 256.048H256.749L255.396 254.695L256.42 248.749L254.043 246.041L244.553 246.261L243.09 242.437L242.559 241.193L239.762 240.187L236.909 242.858L234.075 244.797L232.74 241.944L234.166 238.669L231.424 234.626L232.301 232.43L234.349 233.29L242.157 228.278L242.962 225.899L241.023 224.546L239.414 225.991L235.428 227.82L231.771 226.668L224.804 224.454H222.153L221.074 226.009L216.795 222.771L212.626 222.972L211.529 225.497L207.872 221.326L202.806 220.813L200.978 217.155L200.466 214.099L197.083 217.758L195.894 217.246L196.9 214.868L195.712 212.672L194.87 206.215L192.658 207.074L189.787 207.751L186.861 212.124H184.246L180.772 215.965L180.461 220.631L172.8 223.942L170.02 235.449L168.722 238.047Z" fill="#DDE0E4" stroke="white" stroke-width="3" stroke-linejoin="round"/>
<path d="M1.95661 203.763H2.19432L2.72461 202.848H3.16346L3.29146 202.574L2.88917 201.952H2.65146L2.28576 203.159L2.02976 203.361V203.873L1.95661 203.763ZM11.3006 180.145L10.8435 180.328L10.4046 179.999L10.88 179.614L11.3006 180.145ZM148.023 231.754L145.261 231.516L143.433 230.162H141.403L140.562 229.137L136.905 231.68L133.851 231.003L131.31 232.54H127.067L125.239 235.083L122.514 236.272L121.49 235.083L114.03 231.516L110.372 228.442L110.555 228.003L106.423 222.003L106.258 216.24L103.369 218.271L101.54 221.161L97.7919 220.996L95.7621 219.624L93.2204 219.46L88.2833 222.167L87.9541 223.869L83.8764 224.729L82.5233 222.35L78.7748 220.996L77.9336 224.655L76.105 227.546H72.7039L69.6502 231.113L67.4376 230.089L65.9199 226.009L65.0605 225.497L64.0548 227.326L59.6296 226.649L58.9531 224.106L59.3005 222.076L58.1119 220.374H55.3874L53.4491 222.204L51.4742 220.704L50.1028 218.874L48.0914 213.99L47.4514 213.038L47.5977 211.977L44.8914 206.635L43.0628 203.47L41.1062 201.641L40.0274 201.238L39.424 201.549H38.3451L36.1874 202.958H35.456L35.1085 203.306L34.0297 202.812L33.6823 201.806L31.8537 201.147L29.8788 200.086V199.409L26.0571 196.445H22.4L21.2846 196.994L21.12 196.555L20.5897 197.195L16.64 196.921L12.8549 197.982L10.1669 197.525H7.29603L3.63889 199.116L2.32232 200.946L1.82861 201.11V200.159L2.7429 198.878L4.09603 196.921L6.38174 195.384L8.46631 192.86L8.3566 192.256L7.9726 191.927L8.3566 190.902L8.6126 192.11L9.47203 191.36L9.05145 190.079L8.6126 190.39V189.933L9.16116 189.256L9.54517 188.506L10.0389 188.396L10.4777 189.182L10.8617 189.512V190.006L11.7029 189.439V189.054L10.7337 188.835L10.5326 188.579L11.0446 188.195L12.16 188.048L13.1657 186.987V186.383L12.928 185.981L13.2754 185.487L13.5863 185.981H14.464L15.488 185.524L15.6343 185.085L15.2503 184.81L16.1646 184.517L17.2252 183.639L17.6823 182.816V181.645L19.7669 179.432L23.2777 178.078L25.3623 176.431L26.6057 174.766L28.0686 173.559L29.3851 171.309L29.696 170.998L29.8788 170.669L29.2206 170.065L28.2697 167.613L27.8674 167.321L27.5748 166.04L28.4526 165.363L30.0068 163.534L31.4331 162.637L32.512 160.808L34.8525 158.978L35.2 157.442L35.4743 157.149L35.6023 156.692L35.0903 156.344V155.374L35.712 154.88L37.1748 152.594L37.3211 151.844L37.5954 151.606L37.7234 151.002L37.2845 150.673L37.1748 149.319L38.1805 148.423L38.8023 145.331L39.1497 144.197L38.3268 143.593L38.144 140.885L38.7657 139.952L39.2228 136.751L39.9542 135.726V135.104L40.7954 134.299L41.1062 132.616H41.216V134.226L40.448 135.214V135.543H40.8685L41.216 136.037H41.2525L41.5634 134.208L41.2525 131.83L41.1428 129.762L39.424 127L38.8754 125.811L37.6137 125.244L37.5954 124.622L38.1257 124.073L38.5462 122.097L38.7291 122.481L38.4365 123.908L38.8937 123.377L39.0034 122.133L39.7531 120.688L40.2834 120.414V120.03H39.3874L38.8205 120.578L38.6194 121.859L38.3634 121.658L37.9794 121.127V120.231L38.656 119.92L40.1005 118.749L41.0514 117.048L41.472 115.84L43.0262 114.98L43.3554 114.871L43.6663 114.322L44.8365 113.389L45.5131 111.87L45.9702 111.486L47.5977 108.065L48.6217 107.535L48.4388 106.291L49.2799 105.504L49.9565 105.284L50.2857 104.571L49.8834 103.839L49.4994 104.113V104.918L49.2251 105.193V102.101L50.3588 100.144L50.6696 97.7104L49.8285 95.0577L49.2251 93.704L48.8959 93.2466L49.152 92.6612L50.9805 91.8379L53.3942 89.5145L54.8388 87.1729L55.8994 86.0203L56.7771 82.3614L56.9965 79.6173L56.5028 79.3063H57.1062L58.0571 77.3305L58.4411 71.3848L59.5748 70.653L60.6719 69.0248H62.9028L63.2136 69.2626L63.6342 68.8236L63.8536 67.7076L65.0605 66.8112H65.5176L67.1451 67.4698L67.2914 67.7442H71.1679L71.3873 67.232L71.5885 66.2989L71.0948 65.8416L71.2045 64.0121L72.7222 62.1827H73.4719L74.1485 61.5607V59.9325L75.977 58.7251H76.7816L77.0376 58.3409L76.7816 58.103L76.2513 57.9201L74.5325 56.6029L73.7096 56.4383L73.1793 55.7431L73.3988 55.4686V54.7369L72.4662 53.4929L72.0091 52.0476L69.9245 50.5292L68.553 49.029L68.6628 48.4253L69.6319 49.3583L71.4605 49.9071L71.8445 50.1267V49.5779L72.4845 49.1937V49.029L71.8993 48.8095L71.5153 49.1937L70.0708 48.6448L69.0468 47.7118L67.8216 47.4374L66.9622 45.608L67.0719 44.8396L68.3519 43.9615L68.0959 43.3578V42.9187L68.4616 42.8089L68.7359 41.6564L67.1268 41.4368L66.9622 40.5953L68.2056 39.8269V39.4427L66.7062 39.333L65.2068 38.5097L64.0731 38.8939L63.4879 39.3879L63.0125 38.6378V36.8084L63.4331 36.5339V36.8632L64.8776 37.3572L66.0113 38.4549H66.7611L67.3462 38.8939H67.8765L68.0959 38.7293H68.5165L68.8456 38.8939L70.0159 39.0586L70.2353 39.4427L69.9062 39.8269V41.5466L70.6559 43.0285L71.241 43.4126L70.9119 43.7968L71.3508 45.114L72.9599 46.9435L73.3256 47.9314L74.3496 49.1937L76.1782 48.4802L75.4285 48.0411L74.953 47.5472L74.569 47.9314H74.0387L73.3439 47.2179V47.0532L73.8193 47.163L74.6239 46.7788H75.2273L76.4525 47.4923L76.6719 46.7788L75.4833 46.1751L74.7885 46.5044L73.6182 46.6142L71.7896 44.7847L71.9542 43.3029L73.0331 42.6443L73.1793 41.9308L72.1188 41.4734V41.0892L73.1793 40.1562L73.929 40.0465L74.6788 39.4976L76.7816 38.8939L76.9645 37.8694L77.6228 37.3572L77.4582 36.4791L76.6719 35.8205L76.3428 35.9851L75.977 36.4242L75.3736 36.2046L75.0993 35.8022L74.6605 35.9119L74.2765 36.2229L74.5508 36.3693V37.4487L73.7279 37.7963L73.5267 38.1073H71.8445L70.5096 36.8084L69.1199 36.7169L68.041 36.2961H66.6148L66.0113 35.8022H64.4388L62.7382 36.7169L61.6594 36.8815L60.6536 37.3755H60.3062L59.8673 37.7231L59.2639 37.1011L59.5382 36.8084L60.4342 33.2958L62.2628 32.2165H63.2685L65.097 30.57L64.7862 30.259V30.0394L65.2068 29.8016L65.4262 30.1858L65.9565 30.4602L66.1759 31.2652H66.7062L67.4193 30.9907L67.6022 30.2224L66.8525 29.8565V29.637L67.7668 29.3991L69.4125 29.7833L69.8148 31.0639L70.3451 31.4115H70.8753L70.985 31.0639L70.729 30.7895L70.1988 29.6735L69.1382 29.3991H69.9428L70.1988 29.1247L71.4788 28.4844L70.7656 28.0453L71.0216 27.5148L71.4788 27.8258L71.625 27.6612V26.8562L70.6925 27.5148V27.277L70.3268 27.4416L69.8696 28.0087L68.1873 28.5576L67.5474 27.7892L67.2182 29.0515H66.8525L66.0662 28.1734L65.8468 28.7405H65.1702L63.9633 29.7467L64.2742 30.3687L63.4331 30.9176V31.2652L63.0125 31.8506L62.5188 31.7042V31.192L61.7325 30.6248L61.2388 30.7712L61.4399 31.0273V31.32H62.1896L62.3359 31.7042L61.0559 32.3994H60.4708L59.9954 31.3383H59.7942V29.1247L59.3919 28.5027L58.9714 26.6733V25.7402H59.2091L60.7085 24.7889H61.7691L62.0068 25.2829H61.4765L60.9279 25.8134V26.6001L61.4765 27.1489L62.5371 27.277L63.0673 27.0026L63.1771 26.5269H63.5611L63.7622 26.8745H64.5485L64.3291 26.655V25.8317H64.5851L64.9691 26.0695V26.5635L66.3953 26.8013V26.9111L67.1633 27.0757L68.0228 26.1061L68.4616 25.8866V25.4658H68.1691V25.1365H68.4616L68.7725 24.6243H69.3393L69.5405 24.8804V25.3012L70.3633 25.6122L70.6559 25.9964L70.8022 25.8317V24.8987L71.3142 24.423H71.625L71.8262 24.2218H72.4662L72.5576 24.5328L71.8993 24.6609V24.8804H71.5336V25.0085L71.9725 25.0999L72.1553 25.5024L72.5211 25.7037L72.7588 24.7341H73.0331L73.161 24.0937L72.4662 23.8925L71.6982 23.3986V22.9046H71.3325L70.8022 23.49L69.9428 23.362L68.8273 24.2218H68.6079L68.1142 25.0268H67.8765V24.7341H67.3645L67.1633 24.4048H67.4742L67.6753 24.1669H67.3645L66.1759 23.5815V23.3803H65.4993L64.9691 23.8559L64.6765 23.984H63.9451L63.4513 22.9961L63.1953 22.5387V23.3437L62.9028 23.7096H62.6834V23.3986H61.8239V23.5998H60.1782V23.7644L59.5382 24.0023V24.112L60.3062 24.2035L60.4525 24.6426L59.8308 24.7706L59.6845 25.1914L58.9531 24.8987H58.6057L89.9107 0.219543L91.0993 1.62821L77.7142 34.9789L73.3805 45.425L73.9473 48.6083L78.0616 47.9496L80.3473 49.7791L81.1336 53.3282L86.0525 54.8283L95.0307 48.5534L98.4501 49.651L100.681 48.8461L103.972 50.8402L102.601 52.944L101.211 60.2618L101.595 64.25L103.076 69.2809V73.8911L104.649 77.2939L106.624 78.483L108.452 84.5019L106.478 86.0935L105.252 92.0392L102.692 94.4357L100.864 98.0946L102.546 101.406L100.718 106.73L100.827 109.547L105.399 106.053L109.952 105.943L107.995 110.132L109.184 112.328L113.902 113.718L116.224 113.279L122.514 114.669L126.062 117.67L130.578 119.682L137.545 118.2L142.592 120.56L149.138 124.622L153.38 124.457L155.556 120.524L154.13 115.474L156.507 115.31L158.884 118.017L165.668 121.676L172.452 123.03V126.488L168.137 128.884L165.961 134.647L168.283 136.476L165.284 140.519L162.779 145.495L162.322 149.74L159.031 151.789L160.603 155.301L166.089 156.015L165.394 159.674L162.596 165.894L163.273 170.486L160.475 176.907L160.256 183.511L153.691 188.378V190.92L155.885 198.549L154.203 200.598L155.209 203.983L153.015 204.66L148.425 209.599L148.077 214.685L147.309 217.008L148.608 224.783L148.023 231.754ZM69.8513 51.0231L71.5336 52.4318L71.6799 53.127L72.2833 53.438L72.9965 54.8832V56.3834L71.9725 57.2432L71.5153 59.1824L70.9485 59.5666L69.6685 62.4205L69.2479 65.6952L67.8948 66.9758H67.3279L66.0662 66.0062H64.6216L63.7622 66.8478H63.3416L62.7016 66.0794L61.1474 65.7318L60.7999 64.6707H59.9039L59.4102 65.2196H58.4959L58.1119 64.9817H58.3497L58.5691 61.3229L58.9896 61.0119H59.9405L60.6902 60.4264L60.9096 60.0057L63.4879 59.841L63.9816 59.1824H64.2925V59.4202L65.1336 59.841L66.1028 61.6705L66.2673 62.9145L67.1268 63.6097L67.6571 63.2621V63.0059L66.8342 62.7315L66.3039 60.9021L66.1942 59.8593L65.7371 59.5117V58.9263L67.4011 58.3043L68.0776 57.3713V55.0845L68.8273 54.1515V52.9806L67.2731 51.3158L66.7794 51.1512L66.2491 51.4256L65.5176 50.4926L64.3108 50.3462V50.1084L63.0125 49.9986V50.9316L63.6159 51.0597L63.7439 51.7L64.9873 52.1757L65.2616 53.1453L66.5782 55.1211V56.9505L66.0479 57.8103L63.2868 58.0848L62.9394 58.4689L62.1531 58.1579L61.8056 57.2615L61.2388 57.4262V58.0116L62.0799 58.7433V59.4019H60.7451L60.4891 59.9508L60.1782 59.6764H59.3553L60.0685 60.4447L59.5016 60.646H58.6971L58.3314 60.2435L58.4776 58.4141L59.5382 54.8649L59.9588 51.4622L59.8491 48.6083L59.5748 48.1326L60.1051 47.5472L60.9645 48.1326L61.7325 48.2972L62.3908 47.9314L63.3234 47.7484L63.9268 46.669L64.5485 45.8824L64.3474 45.7177H64.1279L63.0125 46.7056L62.8479 47.0715L62.7016 46.669L63.3965 45.0591L63.7988 44.9311L64.1645 45.0957H65.2068V45.3336L64.7313 45.5714L64.8228 45.9922L66.6513 45.8824L66.9988 46.8703L67.7302 48.096L68.1873 49.9254L69.7416 51.4439L69.8513 51.0231ZM60.8548 46.9983H61.9154L62.2445 46.6507V45.5531L63.1953 44.1261L63.4696 43.3578L63.5976 42.6077H63.8354L64.0914 43.1931L64.3474 43.2846L64.7131 43.0285L64.8411 42.3516L65.4262 41.1807H65.6822V40.7234L65.3896 40.4855V39.9367H65.7188L66.1576 40.4672H66.3405L66.5965 39.461L66.4319 39.3147H65.9565L64.5119 39.9733L63.3599 40.1013L63.2136 39.6806L62.7748 39.4793L62.3542 38.4549L62.5371 37.2291L61.7508 37.4121L60.7999 37.9792H60.0685L59.2822 38.8756V39.7172L59.7211 40.2477V40.9246L59.9771 41.4917L60.2331 41.6198V43.1199L60.4891 43.3212L60.2696 43.559V44.8945H60.0868V45.7909L60.5256 46.5959L60.9462 46.6873L61.0377 46.9618L60.8548 46.9983ZM58.4959 70.5981L59.1359 70.1408L59.6296 68.9699L60.7268 68.4577L61.0742 68.6955H61.8605L62.2079 68.3845L62.4639 68.6589H63.0856L63.3416 67.3783L61.1108 66.4087L60.7634 65.8599L59.7759 65.311L59.4468 65.622L58.5691 65.7501L57.8925 66.5185L58.1851 66.6465L58.5325 67.9637V70.6347L58.4959 70.5981ZM61.6776 53.8222H62.2811L63.0673 52.5964H63.2502L63.4513 52.322L62.2811 51.883L62.0616 51.5171L62.6285 51.3707L61.7873 51.0963V50.8951L61.5496 51.0048L61.3668 52.7062L61.0559 52.9074L61.7142 53.8953L61.6776 53.8222ZM70.9302 42.8455H71.6616L71.9908 42.4064H72.3382L72.6308 41.9308L72.1553 41.6747L71.1313 41.8027L71.0399 41.199L71.3325 41.071V40.8697L70.7656 40.4855L70.8936 39.5159H71.1131L71.2959 38.4914L70.1439 37.3572L68.8456 37.2474L68.6811 37.0096H67.9862L66.4685 37.9609V38.2353L67.3462 38.7293L67.6022 38.5829H69.7782L69.9976 38.9122L70.3451 39.1134L70.6193 39.3147L70.4913 39.5708L70.2902 41.6381L70.7839 42.1869L70.9668 42.937L70.9302 42.8455Z" fill="#DDE0E4" stroke="white" stroke-width="4" stroke-linejoin="round"/>
</g>
<defs>
<clipPath id="clip0_793:4114">
<rect width="525" height="842" fill="white"/>
</clipPath>
</defs>
</svg>
