<svg width="69" height="56" viewBox="0 0 69 56" fill="none" xmlns="http://www.w3.org/2000/svg">
<path d="M61.9075 13.9562C61.9513 14.5687 61.9513 15.1813 61.9513 15.7937C61.9513 34.4749 47.7223 56 21.7158 56C13.7037 56 6.26083 53.6811 0 49.6563C1.13837 49.7875 2.23281 49.8313 3.41497 49.8313C10.0259 49.8313 16.1117 47.6001 20.9715 43.7938C14.7545 43.6625 9.54441 39.5938 7.74932 33.9937C8.62503 34.1249 9.50061 34.2124 10.4201 34.2124C11.6898 34.2124 12.9595 34.0374 14.1416 33.7313C7.66186 32.4187 2.80192 26.7312 2.80192 19.8625V19.6875C4.68447 20.7375 6.87375 21.3938 9.19402 21.4812C5.38499 18.9436 2.88952 14.6124 2.88952 9.7124C2.88952 7.08745 3.5899 4.6812 4.81587 2.58118C11.7772 11.1562 22.2411 16.7561 33.9745 17.3687C33.7557 16.3187 33.6243 15.225 33.6243 14.1313C33.6243 6.34368 39.9289 0 47.7658 0C51.8375 0 55.5152 1.70625 58.0984 4.4625C61.2943 3.85003 64.3591 2.66872 67.0737 1.05001C66.0228 4.33133 63.7899 7.08758 60.8566 8.83746C63.7025 8.53136 66.4607 7.74369 69 6.65005C67.0739 9.44993 64.6658 11.9436 61.9075 13.9562Z" fill="#3D3D4E"/>
</svg>
