<svg width="924" height="459" viewBox="0 0 924 459" fill="none" xmlns="http://www.w3.org/2000/svg">
<g clip-path="url(#clip0_1827_4246)">
<path d="M316.493 366.192C320.739 355.083 321.354 344.997 317.867 343.664C314.379 342.331 308.11 350.256 303.864 361.365C299.618 372.474 299.003 382.56 302.49 383.893C305.978 385.226 312.247 377.301 316.493 366.192Z" fill="#2F2E41"/>
<path d="M312.882 403.199C316.692 379.721 300.748 357.599 277.269 353.789C253.791 349.979 231.67 365.924 227.86 389.402C224.05 412.88 239.994 435.002 263.472 438.812C286.95 442.622 309.072 426.677 312.882 403.199Z" fill="#2F2E41"/>
<path d="M263.83 430.1H250.746V453.542H263.83V430.1Z" fill="#2F2E41"/>
<path d="M289.997 430.1H276.913V453.542H289.997V430.1Z" fill="#2F2E41"/>
<path d="M261.649 457.903C267.671 457.903 272.552 456.072 272.552 453.814C272.552 451.556 267.671 449.726 261.649 449.726C255.628 449.726 250.746 451.556 250.746 453.814C250.746 456.072 255.628 457.903 261.649 457.903Z" fill="#2F2E41"/>
<path d="M287.816 457.358C293.838 457.358 298.719 455.527 298.719 453.269C298.719 451.011 293.838 449.18 287.816 449.18C281.795 449.18 276.913 451.011 276.913 453.269C276.913 455.527 281.795 457.358 287.816 457.358Z" fill="#2F2E41"/>
<path d="M271.894 400.11C280.02 399.871 286.413 393.091 286.175 384.965C285.936 376.839 279.155 370.446 271.029 370.684C262.904 370.923 256.51 377.704 256.749 385.83C256.988 393.955 263.768 400.349 271.894 400.11Z" fill="white"/>
<path d="M271.461 390.304C274.171 390.304 276.368 388.107 276.368 385.397C276.368 382.687 274.171 380.491 271.461 380.491C268.751 380.491 266.555 382.687 266.555 385.397C266.555 388.107 268.751 390.304 271.461 390.304Z" fill="#3F3D56"/>
<path d="M228.595 356.249C225.117 340.675 236.233 324.939 253.423 321.1C270.613 317.262 287.368 326.775 290.845 342.349C294.322 357.923 282.93 363.667 265.74 367.505C248.55 371.343 232.072 371.823 228.595 356.249Z" fill="#E6E6E6"/>
<path d="M241.319 385.545C242.919 382.171 235.505 375.305 224.76 370.209C214.014 365.113 204.007 363.716 202.407 367.089C200.807 370.462 208.221 377.328 218.966 382.425C229.711 387.521 239.719 388.918 241.319 385.545Z" fill="#2F2E41"/>
<path d="M249.217 411.837C249.217 416.053 260.07 424.376 272.113 424.376C284.157 424.376 295.448 412.509 295.448 408.294C295.448 404.079 284.157 409.112 272.113 409.112C260.07 409.112 249.217 407.622 249.217 411.837Z" fill="white"/>
<path d="M573.26 279.264L526.48 325.434L420.76 429.754L418.62 431.864L406.7 443.624L381.71 418.934L379.51 416.764L333.82 371.634H333.81L319.17 357.164L310.52 348.614L284.76 323.174L281.28 319.734L240.22 279.174C232.063 271.019 225.149 261.71 219.7 251.544C219.2 250.634 218.73 249.714 218.27 248.794C208.533 229.38 204.367 207.647 206.234 186.009C208.101 164.371 215.929 143.673 228.848 126.215C241.767 108.756 259.272 95.2194 279.42 87.1079C299.567 78.9964 321.568 76.6274 342.98 80.2638H342.99C343.37 80.3238 343.74 80.3838 344.12 80.4638C348.137 81.1726 352.113 82.0973 356.03 83.2338C366.281 86.1969 376.078 90.5472 385.15 96.1638C386.1 96.7538 387.04 97.3538 387.97 97.9638C394.62 102.358 400.808 107.414 406.44 113.054L406.79 112.704L407.14 113.054C410.552 109.643 414.169 106.444 417.97 103.474C418.8 102.824 419.64 102.184 420.48 101.564C433.341 92.0813 448.001 85.3226 463.564 81.7014C479.127 78.0803 495.265 77.6727 510.99 80.5038C515.011 81.2123 518.991 82.1404 522.91 83.2838C524.22 83.6539 525.52 84.0539 526.81 84.4838C527.85 84.8238 528.89 85.1738 529.92 85.5538C538.495 88.6193 546.681 92.6804 554.31 97.6538C555.98 98.7437 557.627 99.8838 559.25 101.074C572.991 111.063 584.404 123.911 592.702 138.735C601.001 153.558 605.987 170.004 607.319 186.94C608.651 203.876 606.295 220.899 600.416 236.838C594.536 252.776 585.271 267.25 573.26 279.264V279.264Z" fill="#FF6584"/>
<path opacity="0.15" d="M526.48 325.434L420.76 429.754L418.621 431.864L406.701 443.624L381.711 418.934L379.51 416.764L333.82 371.634C341.161 369.924 352.44 372.274 356.57 374.314C366.36 379.144 374.411 387.074 384.351 391.594C393.227 395.601 403.144 396.697 412.681 394.724C430.5 390.984 444.291 377.204 456.451 363.644C468.61 350.074 481.041 335.514 498.13 329.224C507.141 325.904 516.82 325.154 526.48 325.434Z" fill="black"/>
<path d="M603.34 114.984C588.792 100.395 570.684 89.8633 550.81 84.4337C549.49 84.0637 548.18 83.7337 546.85 83.4237C541.132 82.0574 535.318 81.1248 529.46 80.6337C528.44 80.5337 527.42 80.4637 526.39 80.4137C521.251 80.0887 516.096 80.1087 510.96 80.4737C482.826 82.3562 456.288 94.2177 436.12 113.924L435.76 113.564L435.4 113.924C422.223 101.066 406.235 91.4527 388.7 85.8437C387.71 85.5237 386.71 85.2137 385.71 84.9237C372.206 81.0068 358.117 79.5005 344.09 80.4737C343.7 80.4937 343.31 80.5237 342.93 80.5637C317.21 82.5357 292.84 92.8598 273.53 109.964C271.71 111.564 269.92 113.244 268.18 114.984C251.833 131.361 240.609 152.144 235.878 174.794C231.147 197.445 233.115 220.983 241.54 242.534C241.89 243.474 242.27 244.404 242.67 245.334C248.621 259.524 257.286 272.416 268.18 283.284L307.1 321.704L310.16 324.734L394.38 407.864L396.549 410.014L418.67 431.854L435.759 448.724L603.34 283.274C625.624 260.94 638.14 230.679 638.14 199.129C638.14 167.579 625.624 137.317 603.34 114.984ZM601.23 281.144L435.76 444.504L420.81 429.744L399.16 408.374L396.99 406.234L314.41 324.704L311.4 321.734L270.3 281.154C259.749 270.63 251.34 258.16 245.54 244.434C245.14 243.504 244.759 242.574 244.41 241.644C236.143 220.617 234.189 197.635 238.788 175.514C243.386 153.393 254.337 133.094 270.3 117.104C272.16 115.244 274.063 113.464 276.01 111.764H276.02C294.597 95.507 317.898 85.637 342.5 83.6037C345.77 83.3237 349.043 83.1837 352.32 83.1837C353.55 83.1837 354.77 83.2037 356 83.2437C366.049 83.5531 376.016 85.1666 385.65 88.0437C386.64 88.3337 387.63 88.6437 388.61 88.9737C399.031 92.3705 408.909 97.2506 417.94 103.464C423.819 107.495 429.312 112.061 434.35 117.104L435.41 118.164L435.76 117.814L436.11 118.164L437.17 117.104C448.373 105.888 461.763 97.0945 476.507 91.2697C491.251 85.445 507.036 82.7131 522.88 83.2437C524.15 83.2837 525.42 83.3437 526.69 83.4337C527.71 83.4937 528.73 83.5637 529.74 83.6637C536.186 84.2418 542.572 85.3624 548.83 87.0137C550.17 87.3537 551.5 87.7237 552.82 88.1337C572.006 93.9357 589.36 104.612 603.19 119.121C617.02 133.63 626.853 151.476 631.729 170.918C636.606 190.36 636.359 210.734 631.014 230.052C625.668 249.371 615.407 266.974 601.23 281.144V281.144Z" fill="#3F3D56"/>
<path opacity="0.15" d="M368.88 87.7737C362.46 92.8437 355.57 97.5237 351.4 104.454C348.33 109.574 347 115.524 346.01 121.404C344.09 132.844 343.27 144.564 339.51 155.534C335.76 166.504 328.44 176.984 317.59 181.074C310.86 183.604 303.44 183.464 296.27 182.974C278.58 181.774 260.77 178.604 244.85 170.814C235.95 166.454 227.32 160.574 217.43 159.924C215.417 159.794 213.397 159.905 211.41 160.254C220.039 133.317 238.097 110.397 262.266 95.7025C286.435 81.0084 315.094 75.5266 342.98 80.2637H342.99C343.37 80.3237 343.74 80.3837 344.12 80.4637C348.137 81.1725 352.113 82.0972 356.03 83.2337C360.398 84.4971 364.688 86.013 368.88 87.7737Z" fill="black"/>
<path d="M86.7646 404.834C91.4223 406.471 96.4232 406.881 101.285 406.024C106.148 405.168 110.707 403.074 114.525 399.943C124.249 391.782 127.297 378.337 129.778 365.887L137.115 329.064L121.754 339.64C110.708 347.246 99.4127 355.096 91.7642 366.113C84.1157 377.13 80.7772 392.17 86.9225 404.091L86.7646 404.834Z" fill="#E6E6E6"/>
<path d="M88.077 449.416C86.5223 438.092 84.9237 426.622 86.0142 415.176C86.9827 405.011 90.0839 395.083 96.3976 386.942C99.7489 382.629 103.827 378.934 108.448 376.023C109.653 375.262 110.762 377.172 109.562 377.929C101.566 382.982 95.3818 390.445 91.9003 399.239C88.0551 409.02 87.4376 419.681 88.1002 430.071C88.5009 436.354 89.3502 442.596 90.206 448.829C90.2735 449.111 90.2314 449.408 90.0883 449.66C89.9452 449.912 89.7116 450.101 89.435 450.187C89.1527 450.263 88.8518 450.225 88.5976 450.081C88.3434 449.936 88.1563 449.698 88.077 449.416H88.077Z" fill="#F2F2F2"/>
<path d="M103.052 429.377C105.049 432.414 107.795 434.884 111.025 436.551C114.254 438.218 117.859 439.025 121.491 438.894C130.825 438.451 138.607 431.937 145.612 425.752L166.331 407.458L152.618 406.802C142.757 406.33 132.641 405.89 123.248 408.931C113.856 411.972 105.193 419.291 103.476 429.013L103.052 429.377Z" fill="#E6E6E6"/>
<path d="M83.6834 455.926C91.1664 442.686 99.8459 427.97 115.355 423.267C119.667 421.964 124.189 421.497 128.676 421.892C130.091 422.013 129.737 424.194 128.326 424.072C120.803 423.447 113.296 425.434 107.067 429.696C101.072 433.776 96.4053 439.449 92.455 445.464C90.0354 449.149 87.868 452.99 85.7002 456.825C85.0075 458.051 82.9825 457.166 83.6834 455.926H83.6834Z" fill="#F2F2F2"/>
<path d="M300.091 119.118C323.876 119.118 343.158 99.8362 343.158 76.0507C343.158 52.2653 323.876 32.9834 300.091 32.9834C276.305 32.9834 257.023 52.2653 257.023 76.0507C257.023 99.8362 276.305 119.118 300.091 119.118Z" fill="#2F2E41"/>
<path d="M293.549 109.851H280.465V133.292H293.549V109.851Z" fill="#2F2E41"/>
<path d="M319.717 109.851H306.633V133.292H319.717V109.851Z" fill="#2F2E41"/>
<path d="M291.368 137.653C297.39 137.653 302.271 135.823 302.271 133.565C302.271 131.307 297.39 129.476 291.368 129.476C285.346 129.476 280.465 131.307 280.465 133.565C280.465 135.823 285.346 137.653 291.368 137.653Z" fill="#2F2E41"/>
<path d="M317.536 137.108C323.558 137.108 328.439 135.278 328.439 133.02C328.439 130.761 323.558 128.931 317.536 128.931C311.514 128.931 306.633 130.761 306.633 133.02C306.633 135.278 311.514 137.108 317.536 137.108Z" fill="#2F2E41"/>
<path d="M301.181 79.8669C309.31 79.8669 315.9 73.2769 315.9 65.1477C315.9 57.0185 309.31 50.4285 301.181 50.4285C293.052 50.4285 286.462 57.0185 286.462 65.1477C286.462 73.2769 293.052 79.8669 301.181 79.8669Z" fill="white"/>
<path d="M309.66 71.6277C311.568 69.7201 311.558 66.6156 309.637 64.6935C307.716 62.7715 304.611 62.7598 302.703 64.6675C300.794 66.5751 300.804 69.6797 302.726 71.6017C304.647 73.5238 307.751 73.5354 309.66 71.6277Z" fill="#3F3D56"/>
<path d="M258.313 35.9994C254.836 20.4257 265.952 4.68901 283.142 0.850629C300.332 -2.98775 317.086 6.52575 320.564 22.0995C324.041 37.6733 312.649 43.4172 295.459 47.2556C278.269 51.0939 261.791 51.5733 258.313 35.9994Z" fill="#E6E6E6"/>
<path d="M646.411 369.491C649.291 367.115 645.492 357.752 637.925 348.577C630.359 339.402 621.89 333.889 619.009 336.265C616.129 338.64 619.928 348.004 627.495 357.179C635.061 366.354 643.53 371.866 646.411 369.491Z" fill="#2F2E41"/>
<path d="M677.1 438.373C700.578 434.563 716.522 412.441 712.712 388.963C708.902 365.484 686.781 349.54 663.302 353.35C639.824 357.16 623.88 379.282 627.69 402.76C631.5 426.238 653.621 442.183 677.1 438.373Z" fill="#2F2E41"/>
<path d="M689.827 429.661H676.743V453.103H689.827V429.661Z" fill="#2F2E41"/>
<path d="M663.66 429.661H650.576V453.103H663.66V429.661Z" fill="#2F2E41"/>
<path d="M678.924 457.464C684.945 457.464 689.827 455.633 689.827 453.375C689.827 451.117 684.945 449.287 678.924 449.287C672.902 449.287 668.021 451.117 668.021 453.375C668.021 455.633 672.902 457.464 678.924 457.464Z" fill="#2F2E41"/>
<path d="M652.757 456.919C658.778 456.919 663.66 455.088 663.66 452.83C663.66 450.572 658.778 448.741 652.757 448.741C646.735 448.741 641.854 450.572 641.854 452.83C641.854 455.088 646.735 456.919 652.757 456.919Z" fill="#2F2E41"/>
<path d="M685.28 372.883C671.702 361.664 664.155 351.376 674.32 339.075C684.485 326.774 703.731 325.897 717.309 337.117C730.887 348.336 733.654 367.403 723.489 379.704C713.324 392.005 698.857 384.102 685.28 372.883Z" fill="#26A5B8"/>
<path d="M655.744 388.226C663.869 387.987 670.263 381.207 670.024 373.081C669.785 364.955 663.005 358.562 654.879 358.801C646.753 359.039 640.36 365.82 640.598 373.946C640.837 382.071 647.618 388.465 655.744 388.226Z" fill="white"/>
<path d="M650.138 374.774C652.848 374.774 655.044 372.577 655.044 369.868C655.044 367.158 652.848 364.961 650.138 364.961C647.428 364.961 645.231 367.158 645.231 369.868C645.231 372.577 647.428 374.774 650.138 374.774Z" fill="#3F3D56"/>
<path d="M633.062 385.636C630.082 388.617 627.974 398.281 632.167 402.473C636.359 406.666 648.682 402.205 651.662 399.225C654.643 396.244 647.153 395.872 642.96 391.68C638.768 387.487 636.043 382.656 633.062 385.636Z" fill="white"/>
<path d="M711.082 453.454C714.57 452.121 713.955 442.035 709.709 430.926C705.463 419.817 699.194 411.892 695.706 413.225C692.219 414.558 692.834 424.644 697.08 435.753C701.326 446.862 707.595 454.787 711.082 453.454Z" fill="#2F2E41"/>
<path d="M923 458.127H1C0.734784 458.127 0.480429 458.022 0.292892 457.835C0.105356 457.647 0 457.393 0 457.127C0 456.862 0.105356 456.608 0.292892 456.42C0.480429 456.233 0.734784 456.127 1 456.127H923C923.265 456.127 923.52 456.233 923.707 456.42C923.895 456.608 924 456.862 924 457.127C924 457.393 923.895 457.647 923.707 457.835C923.52 458.022 923.265 458.127 923 458.127Z" fill="#CCCCCC"/>
</g>
<defs>
<clipPath id="clip0_1827_4246">
<rect width="924" height="458.128" fill="white"/>
</clipPath>
</defs>
</svg>
