<svg width="901" height="901" viewBox="0 0 901 901" fill="none" xmlns="http://www.w3.org/2000/svg">
<path d="M437.926 584.908L365.931 554.481C363.359 602.73 322.972 639.715 275.722 637.088C242.807 635.257 213.84 614.309 201.224 583.21C189.018 552.073 194.785 516.59 216.186 491.147L129.485 454.452L127.953 453.799L0.203125 769.426L310.179 900.012L358.388 778.958L362.095 769.949L363.12 774.129C377.195 808.653 415.956 825.059 449.821 810.824C464.667 804.278 476.764 792.573 483.964 777.785C495.938 742.485 477.624 703.955 443.054 691.727C427.722 686.302 410.973 686.816 395.984 693.168L391.89 694.866L394.321 688.858L437.926 584.908Z" fill="rgb(73, 73, 73)"/>
<path d="M470.277 121.718C436.753 133.046 418.567 169.982 429.661 204.217C440.754 238.451 476.924 257.02 510.448 245.693C523.185 241.39 534.274 233.103 542.144 222.008V339.535H619.765C619.206 335.206 618.904 330.844 618.872 326.476C618.872 268.779 664.673 222.008 721.173 222.008C777.674 222.008 823.475 268.779 823.475 326.476C823.475 330.844 823.139 335.204 822.581 339.535H900.202V0.0117188H542.146V143.656C540.72 141.652 539.183 139.732 537.545 137.91C536.856 136.573 536.042 135.304 535.114 134.125C519.998 119.344 498.444 113.654 478.208 119.107C476.033 119.107 473.988 120.415 471.942 121.067L470.277 121.718Z" fill="rgb(73, 73, 73)"/>
<path d="M311.968 339.798C309.982 341.274 308.102 342.889 306.341 344.631C304.945 345.173 303.678 346.022 302.634 347.113C286.916 364.315 281.711 388.938 289.08 411.231V413.19C300.962 447.148 337.551 464.839 370.804 452.705C404.058 440.57 421.381 403.206 409.499 369.248C405.43 357.62 398.218 347.41 388.696 339.801H503.786V286.26C499.542 286.784 495.272 287.042 490.998 287.042C434.498 287.042 388.696 240.27 388.696 182.573C388.696 124.877 434.498 78.1041 490.998 78.1041C495.276 78.1041 499.545 78.4535 503.786 79.0144V0.271484H171.305V339.795L311.968 339.798Z" fill="rgb(73, 73, 73)"/>
<path d="M542.145 609.064V744.612H900.201V378.971H759.536C775.636 366.639 785.111 347.288 785.111 326.736C785.111 290.677 756.485 261.443 721.173 261.443C685.861 261.443 657.234 290.677 657.234 326.736C657.234 347.288 666.71 366.639 682.81 378.971H542.145V513.213C569.648 486.859 612.468 486.859 639.97 513.213C665.89 539.064 666.38 581.477 641.063 607.946C640.727 608.341 640.34 608.696 639.97 609.061C612.468 635.414 569.648 635.414 542.145 609.061V609.064Z" fill="rgb(73, 73, 73)"/>
</svg>
