<svg width="366" height="309" viewBox="0 0 366 309" fill="none" xmlns="http://www.w3.org/2000/svg" style="border-bottom-left-radius: 50%;
    border-bottom-right-radius: 50%;">
<path d="M189.8 69.1623C190.675 59.8445 196.037 64.7506 195.733 64.6746C197.444 65.3211 198.814 73.3458 190.675 71.4822C190.675 71.4822 195.733 76.9588 200.145 71.3303C200.145 71.3303 203.682 66.8045 198.738 60.6434C198.738 60.6434 193.946 57.1445 190.447 60.3392C190.447 60.3392 186.225 64.2564 189.8 69.1625" stroke="white" stroke-width="0.608504" stroke-miterlimit="10" stroke-linejoin="round"/>
<path fill-rule="evenodd" clip-rule="evenodd" d="M223.719 217.32C222.236 217.814 221.741 220.248 222.616 222.72C223.491 225.154 225.392 226.752 226.876 226.219L238.247 222.188C239.73 221.655 240.225 219.259 239.35 216.787C238.475 214.315 236.574 212.756 235.091 213.289L223.719 217.32Z" fill="white"/>
<path fill-rule="evenodd" clip-rule="evenodd" d="M194.358 158.789C194.586 158.789 193.369 155.709 193.483 155.823C198.047 143.539 203.714 123.116 224.593 106.496C234.291 97.2165 227.103 121.595 228.51 119.997C229.917 118.438 236.193 102.921 233.226 97.1024C235.546 94.3641 241.137 88.203 240.909 87.7846C261.978 57.0932 252.812 39.2565 252.812 39.2565C254.372 67.8561 235.318 88.6213 235.318 88.6213C227.826 96.9122 210.902 112.505 205.463 120.111C201.926 124.257 198.998 128.516 193.293 139.888C191.392 114.331 196.792 90.5229 196.792 90.5229C197.895 94.0979 198.656 93.3372 201.166 92.6907C203.029 107.105 211.434 95.505 211.814 94.7444C202.04 100.525 205.882 90.3708 203.562 88.0509C198.541 93.9457 197.933 85.8831 197.933 85.8831C200.405 76.5654 204.703 67.7801 204.703 67.7801C204.246 76.6794 208.087 74.2074 210.407 73.5989C211.054 82.7645 217.633 77.8584 220.6 74.5117C213.792 76.2991 212.689 75.0061 212.385 70.138C204.779 74.6257 207.061 63.9389 207.061 63.9389C222.235 33.3996 250.949 37.8873 250.949 37.8873C236.497 30.8135 222.691 40.6256 222.691 40.6256C207.555 50.6659 199.796 69.1492 199.796 69.1492C184.926 70.138 178.803 83.6392 177.016 86.2254C183.709 82.3461 189.984 84.8182 190.098 84.8182C189.756 82.3461 187.55 81.2052 183.519 81.0911C186.143 77.326 192.951 71.9255 198.656 72.458C192.494 81.5475 185.611 109.957 187.779 155.557C186.333 159.93 184.888 164.304 184.888 164.304L194.358 158.789V158.789Z" fill="#D5CA76"/>
<path fill-rule="evenodd" clip-rule="evenodd" d="M229.917 57.3974C230.792 48.0797 236.155 52.9858 235.85 52.9097C237.562 53.5562 238.931 61.5809 230.792 59.7173C230.792 59.7173 235.85 65.1939 240.262 59.5654C240.262 59.5654 243.799 55.0396 238.855 48.8786C238.855 48.8786 234.063 45.3796 230.564 48.5743C230.564 48.5743 226.342 52.4915 229.917 57.3976V57.3974Z" fill="#D5CA76"/>
<path d="M229.917 57.3974C230.792 48.0797 236.155 52.9858 235.85 52.9097C237.562 53.5562 238.931 61.5809 230.792 59.7173C230.792 59.7173 235.85 65.1939 240.262 59.5654C240.262 59.5654 243.799 55.0396 238.855 48.8786C238.855 48.8786 234.063 45.3796 230.564 48.5743C230.564 48.5743 226.342 52.4915 229.917 57.3976" stroke="white" stroke-width="0.608504" stroke-miterlimit="10" stroke-linejoin="round"/>
<path fill-rule="evenodd" clip-rule="evenodd" d="M234.238 242.498C232.755 242.992 232.261 245.427 233.136 247.899C234.01 250.333 235.912 251.93 237.395 251.397L248.767 247.366C250.25 246.834 250.744 244.438 249.869 241.966C248.995 239.494 247.093 237.934 245.61 238.467L234.238 242.498Z" fill="white"/>
<path fill-rule="evenodd" clip-rule="evenodd" d="M240.437 156.576C241.312 147.258 246.674 152.164 246.37 152.088C248.081 152.735 249.45 160.759 241.312 158.896C241.312 158.896 246.37 164.372 250.782 158.744C250.782 158.744 254.318 154.218 249.374 148.057C249.374 148.057 244.582 144.558 241.084 147.753C241.084 147.753 236.862 151.67 240.437 156.576V156.576Z" fill="#D5CA76"/>
<path fill-rule="evenodd" clip-rule="evenodd" d="M204.878 259.968C205.106 259.968 203.889 256.887 204.003 257.001C208.567 244.717 214.233 224.294 235.113 207.674C244.811 198.395 237.623 222.773 239.03 221.176C240.437 219.616 246.712 204.099 243.746 198.281C246.066 195.542 251.656 189.381 251.428 188.963C272.498 158.271 263.332 140.435 263.332 140.435C264.891 169.034 245.837 189.8 245.837 189.8C238.345 198.09 221.421 213.683 215.983 221.29C212.446 225.435 209.517 229.695 203.813 241.066C201.911 215.509 207.312 191.701 207.312 191.701C208.414 195.276 209.175 194.515 211.685 193.869C213.549 208.283 221.954 196.683 222.334 195.923C212.56 201.703 216.401 191.549 214.081 189.229C209.061 195.124 208.452 187.061 208.452 187.061C210.925 177.744 215.222 168.958 215.222 168.958C214.766 177.858 218.607 175.386 220.927 174.777C221.573 183.943 228.153 179.037 231.119 175.69C224.312 177.477 223.209 176.184 222.904 171.316C215.298 175.804 217.58 165.117 217.58 165.117C232.755 134.578 261.468 139.066 261.468 139.066C247.016 131.992 233.211 141.804 233.211 141.804C218.074 151.844 210.316 170.327 210.316 170.327C195.446 171.316 189.323 184.817 187.535 187.404C194.229 183.524 200.504 185.996 200.618 185.996C200.276 183.524 198.07 182.383 194.039 182.269C196.663 178.504 203.47 173.104 209.175 173.636C203.014 182.726 196.13 211.135 198.298 256.735C196.853 261.109 195.408 265.482 195.408 265.482L204.878 259.968V259.968Z" fill="#D5CA76"/>
<path d="M240.437 156.576C241.312 147.258 246.674 152.164 246.37 152.088C248.081 152.735 249.45 160.759 241.312 158.896C241.312 158.896 246.37 164.372 250.782 158.744C250.782 158.744 254.318 154.218 249.374 148.057C249.374 148.057 244.582 144.558 241.084 147.753C241.084 147.753 236.862 151.67 240.437 156.576" stroke="white" stroke-width="0.608504" stroke-miterlimit="10" stroke-linejoin="round"/>
<path fill-rule="evenodd" clip-rule="evenodd" d="M264.748 187.173C263.186 187.106 261.856 189.204 261.793 191.826C261.742 194.411 262.95 196.582 264.525 196.613L276.587 196.899C278.162 196.93 279.478 194.868 279.542 192.247C279.606 189.625 278.385 187.491 276.809 187.459L264.748 187.173Z" fill="white"/>
<path fill-rule="evenodd" clip-rule="evenodd" d="M258.178 122.022C258.392 122.103 258.353 118.791 258.418 118.938C267.061 109.088 279.635 92.0261 305.067 83.94C317.435 78.7265 302.03 98.9415 303.914 97.9507C305.785 96.9953 317.179 84.7343 316.481 78.2404C319.625 76.5088 327.044 72.7451 326.98 72.2729C357.605 51.1072 355.399 31.175 355.399 31.175C346.662 58.452 321.458 71.0619 321.458 71.0619C311.503 76.1378 290.133 84.6742 282.34 89.8425C277.558 92.4549 273.304 95.3909 263.921 103.982C271.253 79.4257 284.785 59.1066 284.785 59.1066C284.541 62.8399 285.523 62.4003 288.099 62.6909C284.702 76.8224 296.69 68.9805 297.316 68.4054C286.124 70.3226 293.332 62.2043 291.991 59.2099C285.2 62.9282 287.505 55.1782 287.505 55.1782C293.136 47.3536 300.282 40.6771 300.282 40.6771C296.684 48.8293 301.154 47.8888 303.538 48.1471C300.876 56.9412 308.772 54.7025 312.736 52.6329C305.738 51.8765 305.169 50.2752 306.62 45.6185C297.913 47.1003 303.855 37.9287 303.855 37.9287C328.918 14.804 354.146 29.2316 354.146 29.2316C343.165 17.4711 326.769 21.718 326.769 21.718C309.048 25.7037 295.211 40.2076 295.211 40.2076C280.965 35.8312 270.431 46.2632 267.839 48.0423C275.476 46.8037 280.458 51.3501 280.565 51.3908C281.126 48.9591 279.472 47.1068 275.746 45.5633C279.54 42.9808 287.825 40.3616 292.965 42.8924C283.969 49.1889 267.411 73.2789 253.183 116.656C250.274 120.228 247.365 123.799 247.365 123.799L258.178 122.022V122.022Z" fill="#D5CA76"/>
<path fill-rule="evenodd" clip-rule="evenodd" d="M327.542 39.9639C331.681 31.5699 334.942 38.0651 334.685 37.8856C336.054 39.0997 334.473 47.0853 327.533 42.4432C327.533 42.4432 330.307 49.363 336.435 45.6766C336.435 45.6766 341.353 42.7088 338.929 35.1901C338.929 35.1901 335.699 30.213 331.291 31.9507C331.291 31.9507 325.951 34.1059 327.542 39.964V39.9639Z" fill="#D5CA76"/>
<path d="M327.542 39.9639C331.681 31.5699 334.942 38.0651 334.685 37.8856C336.054 39.0997 334.473 47.0853 327.533 42.4432C327.533 42.4432 330.307 49.363 336.435 45.6766C336.435 45.6766 341.353 42.7088 338.929 35.1901C338.929 35.1901 335.699 30.213 331.291 31.9507C331.291 31.9507 325.951 34.1059 327.542 39.964" stroke="white" stroke-width="0.608504" stroke-miterlimit="10" stroke-linejoin="round"/>
<path d="M326.709 123.415C319.138 123.415 313.002 128.509 313.002 134.792C313.002 141.076 319.138 146.169 326.709 146.169C334.279 146.169 340.415 141.076 340.415 134.792C340.415 128.509 334.279 123.415 326.709 123.415ZM335.143 133.917C334.561 133.917 334.089 133.525 334.089 133.042C334.089 130.625 331.729 128.666 328.817 128.666C328.235 128.666 327.763 128.274 327.763 127.791C327.763 127.307 328.235 126.915 328.817 126.915C332.894 126.915 336.198 129.658 336.198 133.042C336.198 133.525 335.726 133.917 335.143 133.917Z" fill="#AFDDE9"/>
<path d="M262.264 0C257.622 0 253.859 3.61742 253.859 8.0798C253.859 12.5421 257.622 16.1596 262.264 16.1596C266.906 16.1596 270.669 12.5421 270.669 8.0798C270.669 3.61742 266.906 0 262.264 0ZM267.436 7.4583C267.079 7.4583 266.79 7.17975 266.79 6.83675C266.79 5.12047 265.342 3.72912 263.557 3.72912C263.2 3.72912 262.911 3.45056 262.911 3.1076C262.911 2.76442 263.2 2.48608 263.557 2.48608C266.057 2.48608 268.083 4.43396 268.083 6.83675C268.083 7.17994 267.793 7.4583 267.436 7.4583Z" fill="#AFDDE9"/>
<path d="M149.581 123.799C138.767 123.799 130 133.986 130 146.553C130 159.121 138.767 169.308 149.581 169.308C160.396 169.308 169.162 159.121 169.162 146.553C169.162 133.986 160.396 123.799 149.581 123.799ZM159.372 145.803C158.111 145.795 157.091 144.605 157.081 143.14C157.081 140.212 155.038 137.838 152.518 137.838C151.253 137.838 150.227 136.646 150.227 135.176C150.227 133.706 151.253 132.514 152.518 132.514C157.564 132.521 161.652 137.277 161.663 143.14C161.655 144.605 160.633 145.79 159.372 145.803Z" fill="#AFDDE9"/>
<path d="M279.544 225.105C287.352 225.105 293.681 217.749 293.681 208.676C293.681 199.602 287.352 192.247 279.544 192.247C271.736 192.247 265.406 199.602 265.406 208.676C265.406 217.749 271.736 225.105 279.544 225.105Z" fill="#AFDDE9"/>
<path d="M177.017 53.8019C183.744 53.8019 189.197 47.4651 189.197 39.6483C189.197 31.8316 183.744 25.4949 177.017 25.4949C170.291 25.4949 164.838 31.8316 164.838 39.6483C164.838 47.4651 170.291 53.8019 177.017 53.8019Z" fill="#AFDDE9"/>
<!-- <g transform="translate(70,100) scale(1,-1) translate(-70,-180)"><linearGradient id="lg-0.7557057016594919"   x1="359.166" y1="298.381" x2="10.166" y2="298.381" gradientUnits="userSpaceOnUse">
  <stop stop-color="#26A5B8"/>
<stop offset="1" stop-color="#26A5B8"/>
</linearGradient><path d="" fill="url(#lg-0.7557057016594919)" opacity="0.4">
  <animate attributeName="d" dur="10s" repeatCount="indefinite" keyTimes="0;0.333;0.667;1" calcMode="spline" keySplines="0.5 0 0.5 1;0.5 0 0.5 1;0.5 0 0.5 1" begin="0s" values="M0 0L 0 69.89984718519877Q 29.083333333333332 114.45691360968746  58.166666666666664 95.3217303917409T 116.33333333333333 62.84220004133785T 174.5 63.08640325001532T 232.66666666666666 66.82837679826109T 290.8333333333333 58.28226437585743T 349 60.33784767815064L 349 0 Z;M0 0L 0 74.66103797618962Q 29.083333333333332 121.71134824328867  58.166666666666664 78.9667631161181T 116.33333333333333 95.90414287473901T 174.5 90.4301947534179T 232.66666666666666 93.06756119473602T 290.8333333333333 100.2606698613735T 349 90.77901730260734L 349 0 Z;M0 0L 0 99.17989046552219Q 29.083333333333332 92.06820840999274  58.166666666666664 72.67197451070338T 116.33333333333333 57.82432142144818T 174.5 57.24722489438999T 232.66666666666666 62.08616497172678T 290.8333333333333 82.75016213606054T 349 61.98560033501203L 349 0 Z;M0 0L 0 69.89984718519877Q 29.083333333333332 114.45691360968746  58.166666666666664 95.3217303917409T 116.33333333333333 62.84220004133785T 174.5 63.08640325001532T 232.66666666666666 66.82837679826109T 290.8333333333333 58.28226437585743T 349 60.33784767815064L 349 0 Z"></animate>
</path><path d="" fill="url(#lg-0.7557057016594919)" opacity="0.4">
  <animate attributeName="d" dur="10s" repeatCount="indefinite" keyTimes="0;0.333;0.667;1" calcMode="spline" keySplines="0.5 0 0.5 1;0.5 0 0.5 1;0.5 0 0.5 1" begin="-2.5s" values="M0 0L 0 101.35529114420041Q 29.083333333333332 132.73013939687536  58.166666666666664 90.12048448668777T 116.33333333333333 72.64887634394526T 174.5 99.00597860303985T 232.66666666666666 50.18460954518578T 290.8333333333333 84.43483483556325T 349 100.47254392890439L 349 0 Z;M0 0L 0 74.41083388002082Q 29.083333333333332 102.64287132780007  58.166666666666664 73.76614648569955T 116.33333333333333 90.79735165736462T 174.5 71.16391903449212T 232.66666666666666 60.99293563269173T 290.8333333333333 64.08710640376684T 349 56.00270572410106L 349 0 Z;M0 0L 0 75.94930541103693Q 29.083333333333332 105.49821653143184  58.166666666666664 87.75328962023907T 116.33333333333333 95.30461616475402T 174.5 96.58027362836614T 232.66666666666666 60.65594624255754T 290.8333333333333 70.3383585982676T 349 97.35609575216718L 349 0 Z;M0 0L 0 101.35529114420041Q 29.083333333333332 132.73013939687536  58.166666666666664 90.12048448668777T 116.33333333333333 72.64887634394526T 174.5 99.00597860303985T 232.66666666666666 50.18460954518578T 290.8333333333333 84.43483483556325T 349 100.47254392890439L 349 0 Z"></animate>
</path><path d="" fill="url(#lg-0.7557057016594919)" opacity="0.4">
  <animate attributeName="d" dur="10s" repeatCount="indefinite" keyTimes="0;0.333;0.667;1" calcMode="spline" keySplines="0.5 0 0.5 1;0.5 0 0.5 1;0.5 0 0.5 1" begin="-5s" values="M0 0L 0 72.51459851750309Q 29.083333333333332 132.5350949923292  58.166666666666664 96.67298195354209T 116.33333333333333 71.79127686019422T 174.5 101.80030840031725T 232.66666666666666 74.38777968380647T 290.8333333333333 60.06868790591079T 349 54.130739661758604L 349 0 Z;M0 0L 0 99.85909827421222Q 29.083333333333332 121.09126810850515  58.166666666666664 97.66626216795645T 116.33333333333333 101.17163931892705T 174.5 101.26280780559168T 232.66666666666666 92.32826979023093T 290.8333333333333 83.73153791569028T 349 76.46932874527297L 349 0 Z;M0 0L 0 70.78932266456036Q 29.083333333333332 117.95756435213663  58.166666666666664 103.53421876312096T 116.33333333333333 74.37351992207938T 174.5 57.29713192697093T 232.66666666666666 81.91610257319176T 290.8333333333333 58.81261781011898T 349 91.8124466449247L 349 0 Z;M0 0L 0 72.51459851750309Q 29.083333333333332 132.5350949923292  58.166666666666664 96.67298195354209T 116.33333333333333 71.79127686019422T 174.5 101.80030840031725T 232.66666666666666 74.38777968380647T 290.8333333333333 60.06868790591079T 349 54.130739661758604L 349 0 Z"></animate>
</path><path d="" fill="url(#lg-0.7557057016594919)" opacity="0.4">
  <animate attributeName="d" dur="10s" repeatCount="indefinite" keyTimes="0;0.333;0.667;1" calcMode="spline" keySplines="0.5 0 0.5 1;0.5 0 0.5 1;0.5 0 0.5 1" begin="-7.5s" values="M0 0L 0 61.26678837535949Q 29.083333333333332 101.81320116938372  58.166666666666664 86.86021224845418T 116.33333333333333 64.44569388869253T 174.5 63.75410313063106T 232.66666666666666 102.69000208274872T 290.8333333333333 88.89010176231541T 349 71.85623203536674L 349 0 Z;M0 0L 0 95.33631129805627Q 29.083333333333332 113.78170283736412  58.166666666666664 66.87088484892736T 116.33333333333333 98.65732967982936T 174.5 78.77379496737142T 232.66666666666666 92.65722481862524T 290.8333333333333 50.85841088748841T 349 54.41209113352065L 349 0 Z;M0 0L 0 101.82318163499998Q 29.083333333333332 120.99436079118561  58.166666666666664 85.31020606734006T 116.33333333333333 92.5243239628357T 174.5 81.91002182728194T 232.66666666666666 56.96416142244117T 290.8333333333333 91.06197863311955T 349 61.12565705843446L 349 0 Z;M0 0L 0 61.26678837535949Q 29.083333333333332 101.81320116938372  58.166666666666664 86.86021224845418T 116.33333333333333 64.44569388869253T 174.5 63.75410313063106T 232.66666666666666 102.69000208274872T 290.8333333333333 88.89010176231541T 349 71.85623203536674L 349 0 Z"></animate>
</path></g> -->
<g transform="translate(183,154.5) scale(1,-1) translate(-183,-154.5)"><linearGradient id="lg-0.8021952668764329" x1="359.166" y1="298.381" x2="10.166" y2="298.381" gradientUnits="userSpaceOnUse">
  <stop stop-color="#26a5b8" offset="0"></stop>
  <stop stop-color="#26a5b8" offset="1"></stop>
</linearGradient><path d="" fill="url(#lg-0.8021952668764329)" opacity="0.4">
  <animate attributeName="d" dur="10s" repeatCount="indefinite" keyTimes="0;0.333;0.667;1" calcMode="spline" keySplines="0.5 0 0.5 1;0.5 0 0.5 1;0.5 0 0.5 1" begin="0s" values="M0 0L 0 169.31666251546923Q 36.6 175.73260299058896  73.2 159.3630287178379T 146.4 168.64364285024294T 219.6 147.37522381600624T 292.8 131.08507965502918T 366 115.07984113909347L 366 0 Z;M0 0L 0 129.80126414059993Q 36.6 149.17906575075918  73.2 129.89466549893427T 146.4 131.0791400192688T 219.6 149.92646114082487T 292.8 109.49905911735014T 366 116.13918538941768L 366 0 Z;M0 0L 0 122.6082662525868Q 36.6 147.41726915249686  73.2 119.85934918309252T 146.4 112.84650843178008T 219.6 124.91014668082377T 292.8 171.30372828774662T 366 114.62744539800401L 366 0 Z;M0 0L 0 169.31666251546923Q 36.6 175.73260299058896  73.2 159.3630287178379T 146.4 168.64364285024294T 219.6 147.37522381600624T 292.8 131.08507965502918T 366 115.07984113909347L 366 0 Z"></animate>
</path><path d="" fill="url(#lg-0.8021952668764329)" opacity="0.4">
  <animate attributeName="d" dur="10s" repeatCount="indefinite" keyTimes="0;0.333;0.667;1" calcMode="spline" keySplines="0.5 0 0.5 1;0.5 0 0.5 1;0.5 0 0.5 1" begin="-3.3333333333333335s" values="M0 0L 0 148.6781041460227Q 36.6 141.31887616525242  73.2 103.0746662304482T 146.4 155.3535534035217T 219.6 124.955254360865T 292.8 114.06777602107393T 366 149.33023032658764L 366 0 Z;M0 0L 0 151.72100976856643Q 36.6 143.9074279156949  73.2 128.6235611430282T 146.4 131.41464595567794T 219.6 102.70062077689506T 292.8 131.32443991492573T 366 173.44151977560568L 366 0 Z;M0 0L 0 180.70280351176302Q 36.6 183.84227838489088  73.2 161.82693280990512T 146.4 127.7896746086824T 219.6 143.90493102305734T 292.8 97.04640403116517T 366 107.74540433036992L 366 0 Z;M0 0L 0 148.6781041460227Q 36.6 141.31887616525242  73.2 103.0746662304482T 146.4 155.3535534035217T 219.6 124.955254360865T 292.8 114.06777602107393T 366 149.33023032658764L 366 0 Z"></animate>
</path><path d="" fill="url(#lg-0.8021952668764329)" opacity="0.4">
  <animate attributeName="d" dur="10s" repeatCount="indefinite" keyTimes="0;0.333;0.667;1" calcMode="spline" keySplines="0.5 0 0.5 1;0.5 0 0.5 1;0.5 0 0.5 1" begin="-6.666666666666667s" values="M0 0L 0 107.48221370253438Q 36.6 167.61907248367612  73.2 126.47576309173373T 146.4 163.67495690290068T 219.6 86.25114724048316T 292.8 172.0827261561752T 366 132.9821659455916L 366 0 Z;M0 0L 0 162.33423956837515Q 36.6 140.52463483363857  73.2 119.18267843964966T 146.4 107.83532225296162T 219.6 170.28148753698983T 292.8 146.77424241646588T 366 156.6300701669963L 366 0 Z;M0 0L 0 141.45945118543492Q 36.6 182.17020706306505  73.2 140.01532624607398T 146.4 176.27430199738T 219.6 157.5269494975535T 292.8 128.23479285282153T 366 99.1920535088473L 366 0 Z;M0 0L 0 107.48221370253438Q 36.6 167.61907248367612  73.2 126.47576309173373T 146.4 163.67495690290068T 219.6 86.25114724048316T 292.8 172.0827261561752T 366 132.9821659455916L 366 0 Z"></animate>
</path></g>
</svg>

