<svg width="125" height="109" viewBox="0 0 125 109" fill="none" xmlns="http://www.w3.org/2000/svg">
<g clip-path="url(#clip0_384:5923)">
<path d="M123.329 88.5628C116.927 88.2435 110.807 86.0933 106.359 82.538C105.078 81.5161 103.255 81.5161 101.975 82.5593C92.4913 90.2021 74.4141 90.2872 64.6918 82.538C63.4115 81.5161 61.5885 81.5161 60.3082 82.5593C50.8247 90.2021 32.7474 90.2872 23.0252 82.538C21.7448 81.5161 19.9219 81.5374 18.6415 82.5593C14.2578 86.0933 8.13802 88.2435 1.67101 88.5628C0.737847 88.6054 0 89.3292 0 90.2446V93.6509C0 94.6089 0.824653 95.4179 1.80122 95.3753C8.81076 95.056 15.5382 92.9484 20.855 89.4357C32.5304 97.121 51.0634 97.0571 62.5217 89.4357C74.1754 97.121 92.73 97.0571 104.188 89.4357C109.527 92.9484 116.254 95.056 123.199 95.3753C124.175 95.4179 125 94.6089 125 93.6509V90.2446C125 89.3292 124.262 88.6054 123.329 88.5628V88.5628ZM123.329 65.8474C116.927 65.528 110.807 63.3778 106.359 59.8226C105.078 58.8007 103.255 58.8007 101.975 59.8439C92.4913 67.4866 74.4141 67.5718 64.6918 59.8226C63.4115 58.8007 61.5885 58.8007 60.3082 59.8439C50.8247 67.4866 32.7474 67.5718 23.0252 59.8226C21.7448 58.8007 19.9219 58.822 18.6415 59.8439C14.2578 63.3778 8.15972 65.528 1.69271 65.8474C0.759549 65.8899 0.0217014 66.6138 0.0217014 67.5292V70.9355C0.0217014 71.8935 0.846354 72.7024 1.82292 72.6599C8.83247 72.3405 15.5599 70.2329 20.8767 66.7202C32.5521 74.4056 51.0851 74.3417 62.5434 66.7202C74.1971 74.4056 92.7517 74.3417 104.21 66.7202C109.549 70.2329 116.276 72.3405 123.22 72.6599C124.197 72.7024 125.022 71.8935 125.022 70.9355V67.5292C125 66.6138 124.262 65.8899 123.329 65.8474ZM123.329 43.1319C116.927 42.8126 110.807 40.6624 106.359 37.1071C105.078 36.0853 103.255 36.0853 101.975 37.1284C92.4913 44.7712 74.4141 44.8564 64.6918 37.1071C63.4115 36.0853 61.5885 36.0853 60.3082 37.1284C50.8247 44.7712 32.7474 44.8564 23.0252 37.1071C21.7448 36.0853 19.9219 36.1065 18.6415 37.1284C14.2578 40.6624 8.13802 42.8126 1.67101 43.1319C0.737847 43.1745 0 43.8983 0 44.8138V48.22C0 49.178 0.824653 49.987 1.80122 49.9444C8.81076 49.6251 15.5382 47.5175 20.855 44.0048C32.5304 51.6901 51.0634 51.6263 62.5217 44.0048C74.1754 51.6901 92.73 51.6263 104.188 44.0048C109.527 47.5175 116.254 49.6251 123.199 49.9444C124.175 49.987 125 49.178 125 48.22V44.8138C125 43.8983 124.262 43.1745 123.329 43.1319V43.1319ZM123.329 20.4165C116.927 20.0972 110.807 17.947 106.359 14.3917C105.078 13.3698 103.255 13.3698 101.975 14.413C92.4913 22.0558 74.4141 22.1409 64.6918 14.3917C63.4115 13.3698 61.5885 13.3698 60.3082 14.413C50.8247 22.0558 32.7474 22.1409 23.0252 14.3917C21.7448 13.3698 19.9219 13.3911 18.6415 14.413C14.2578 17.947 8.13802 20.0972 1.67101 20.4165C0.737847 20.4591 0 21.1829 0 22.0983V25.5046C0 26.4626 0.824653 27.2716 1.80122 27.229C8.81076 26.9097 15.5382 24.802 20.855 21.2894C32.5304 28.9747 51.0634 28.9108 62.5217 21.2894C74.1754 28.9747 92.73 28.9108 104.188 21.2894C109.527 24.802 116.254 26.9097 123.199 27.229C124.175 27.2716 125 26.4626 125 25.5046V22.0983C125 21.1829 124.262 20.4591 123.329 20.4165V20.4165Z" fill="black"/>
</g>
<defs>
<clipPath id="clip0_384:5923">
<rect width="125" height="109" fill="white"/>
</clipPath>
</defs>
</svg>
