<svg width="133" height="133" viewBox="0 0 133 133" fill="none" xmlns="http://www.w3.org/2000/svg">
<g clip-path="url(#clip0_395:4499)">
<path d="M132.554 115.819L113.583 39.9338C112.596 35.9879 109.313 33.2526 105.564 33.2526H83.0322C85.6637 29.7691 87.282 25.4804 87.282 20.7812C87.282 9.3048 77.9772 0 66.5008 0C55.0243 0 45.7195 9.3048 45.7195 20.7812C45.7195 25.4804 47.3378 29.7691 49.9693 33.25H27.4372C23.6888 33.25 20.4028 35.9879 19.4182 39.9312L0.447556 115.819C-1.71629 124.472 4.25572 133 12.4773 133H120.527C128.746 133 134.718 124.472 132.554 115.819ZM54.032 20.7812C54.032 13.9053 59.6248 8.3125 66.5008 8.3125C73.3768 8.3125 78.9695 13.9053 78.9695 20.7812C78.9695 27.6572 73.3768 33.25 66.5008 33.25C59.6248 33.25 54.032 27.6572 54.032 20.7812ZM123.46 123.108C122.896 123.828 121.932 124.688 120.524 124.688H12.4773C11.0694 124.688 10.1056 123.83 9.54195 123.108C8.42756 121.682 8.0431 119.71 8.51328 117.835L27.484 41.9496C27.5385 41.7339 27.619 41.6067 27.5957 41.5651H105.346C105.398 41.6326 105.468 41.7521 105.518 41.9496L124.488 117.835C124.958 119.71 124.574 121.682 123.46 123.108Z" fill="black"/>
</g>
<defs>
<clipPath id="clip0_395:4499">
<rect width="133" height="133" fill="white"/>
</clipPath>
</defs>
</svg>
