<svg width="115" height="132" viewBox="0 0 115 132" fill="none" xmlns="http://www.w3.org/2000/svg">
<g clip-path="url(#clip0_383:5906)">
<path d="M80.5 90.75C73.1277 90.75 69.6032 94.875 57.5 94.875C45.3968 94.875 41.8723 90.75 34.5103 90.75C29.9788 90.7486 25.4915 91.6439 21.3045 93.3846C17.1176 95.1253 13.3132 97.6774 10.1084 100.895C6.90374 104.113 4.36157 107.933 2.62714 112.138C0.892709 116.342 -2.00692e-07 120.849 0 125.4C0 127.15 0.692345 128.829 1.92473 130.067C3.15711 131.305 4.82858 132 6.57143 132H108.429C110.171 132 111.843 131.305 113.075 130.067C114.308 128.829 115 127.15 115 125.4C115 116.21 111.365 107.397 104.895 100.899C98.4252 94.4006 89.65 90.75 80.5 90.75ZM8.26562 123.75C8.69207 117.048 11.6419 110.761 16.5162 106.164C21.3906 101.567 27.824 99.006 34.5103 99C39.598 99 44.5009 103.125 57.5 103.125C70.5915 103.125 75.3661 99 80.5 99C87.1847 99.008 93.6159 101.57 98.4882 106.167C103.36 110.763 106.309 117.05 106.734 123.75H8.26562ZM22.5893 41.25H25.8391C25.0844 43.936 24.6823 46.7094 24.6429 49.5C24.6429 58.2521 28.1046 66.6458 34.2665 72.8345C40.4284 79.0232 48.7857 82.5 57.5 82.5C66.2143 82.5 74.5716 79.0232 80.7335 72.8345C86.8954 66.6458 90.3571 58.2521 90.3571 49.5C90.3177 46.7094 89.9156 43.936 89.1609 41.25H92.4107C92.9554 41.25 93.4777 41.0327 93.8628 40.6459C94.2479 40.2591 94.4643 39.7345 94.4643 39.1875V35.0625C94.4643 34.5155 94.2479 33.9909 93.8628 33.6041C93.4777 33.2173 92.9554 33 92.4107 33H90.3571C90.3571 19.7175 81.3728 8.64703 69.2233 5.28C68.6324 3.73096 67.5887 2.39769 66.2294 1.45534C64.8701 0.513002 63.2588 0.00566943 61.6071 0L53.3929 0C51.7412 0.00566943 50.1299 0.513002 48.7706 1.45534C47.4113 2.39769 46.3676 3.73096 45.7767 5.28C33.6272 8.64703 24.6429 19.7175 24.6429 33H22.5893C22.0446 33 21.5223 33.2173 21.1372 33.6041C20.7521 33.9909 20.5357 34.5155 20.5357 35.0625V39.1875C20.5357 39.7345 20.7521 40.2591 21.1372 40.6459C21.5223 41.0327 22.0446 41.25 22.5893 41.25ZM69.8214 14.1565C73.4756 15.7561 76.5867 18.3899 78.7748 21.7362C80.963 25.0826 82.1333 28.9966 82.1429 33H69.8214V14.1565ZM53.3929 8.25H61.6071V33H53.3929V8.25ZM32.8571 33C32.8667 28.9966 34.0371 25.0826 36.2252 21.7362C38.4133 18.3899 41.5244 15.7561 45.1786 14.1565V33H32.8571ZM34.3973 41.25H80.6027C81.6003 43.8862 82.1219 46.6799 82.1429 49.5C82.1429 56.0641 79.5466 62.3594 74.9251 67.0009C70.3037 71.6424 64.0357 74.25 57.5 74.25C50.9643 74.25 44.6963 71.6424 40.0749 67.0009C35.4534 62.3594 32.8571 56.0641 32.8571 49.5C32.8781 46.6799 33.3997 43.8862 34.3973 41.25Z" fill="black"/>
</g>
<defs>
<clipPath id="clip0_383:5906">
<rect width="115" height="132" fill="white"/>
</clipPath>
</defs>
</svg>
