<svg width="69" height="56" viewBox="0 0 69 56" fill="none" xmlns="http://www.w3.org/2000/svg">
<g clip-path="url(#clip0_1502_2)">
<path d="M34.7199 6.99609H35.1038C38.6486 7.00659 56.6102 7.11159 61.4531 8.16859C62.9172 8.49118 64.2513 9.11997 65.3221 9.99212C66.393 10.8643 67.163 11.9492 67.5553 13.1386C67.9909 14.4686 68.2971 16.2291 68.5041 18.0456L68.5472 18.4096L68.6421 19.3196L68.6766 19.6836C68.9569 22.8826 68.9914 25.8786 68.9957 26.5331V26.7956C68.9914 27.4746 68.9526 30.6736 68.6421 34.0056L68.6076 34.3731L68.5687 34.7371C68.3531 36.7391 68.034 38.7271 67.5553 40.1901C67.1642 41.3799 66.3946 42.4654 65.3235 43.3377C64.2525 44.21 62.9178 44.8385 61.4531 45.1601C56.4506 46.2521 37.4368 46.3291 34.8019 46.3326H34.1895C32.8569 46.3326 27.3456 46.3116 21.5668 46.1506L20.8337 46.1296L20.4585 46.1156L19.7211 46.0911L18.9836 46.0666C14.1968 45.8951 9.63844 45.6186 7.53825 45.1566C6.07411 44.8353 4.73972 44.2073 3.66875 43.3357C2.59778 42.464 1.82784 41.3793 1.43606 40.1901C0.957375 38.7306 0.63825 36.7391 0.422625 34.7371L0.388125 34.3696L0.353625 34.0056C0.140793 31.634 0.0228557 29.2574 0 26.8796L0 26.4491C0.008625 25.6966 0.043125 23.0961 0.276 20.2261L0.306188 19.8656L0.319125 19.6836L0.353625 19.3196L0.4485 18.4096L0.491625 18.0456C0.698625 16.2291 1.00481 14.4651 1.44037 13.1386C1.83149 11.9488 2.60114 10.8633 3.67215 9.99098C4.74316 9.11868 6.07791 8.49022 7.54256 8.16859C9.64275 7.71359 14.2011 7.43359 18.9879 7.25859L19.7211 7.23409L20.4628 7.21309L20.8337 7.20259L21.5711 7.17809C25.6754 7.07091 29.7813 7.0114 33.8876 6.99959H34.7199V6.99609ZM27.6 18.2311V35.0941L45.5271 26.6661L27.6 18.2311Z" fill="white"/>
</g>
<defs>
<clipPath id="clip0_1502_2">
<rect width="69" height="56" fill="white"/>
</clipPath>
</defs>
</svg>
