<svg width="24" height="17" viewBox="0 0 24 17" fill="none" xmlns="http://www.w3.org/2000/svg">
<g clip-path="url(#clip0_1708_55)">
<path d="M22.4517 4.9326C22.4517 8.18191 22.4517 11.3944 22.4517 14.6308C15.5362 14.6308 8.63721 14.6308 1.7168 14.6308C1.7168 10.3354 1.7168 6.03615 1.7168 1.71289C8.61088 1.71289 15.5099 1.71289 22.4517 1.71289C22.4517 2.77093 22.4517 3.83336 22.4517 4.9326ZM20.3125 6.01912C20.4126 5.79607 20.5808 5.57847 20.5992 5.34886C20.6421 4.81405 20.6167 4.27342 20.6117 3.73521C20.6072 3.26374 20.3425 2.9785 19.8672 2.96564C19.2805 2.94976 18.6928 2.95256 18.1059 2.96458C17.644 2.97404 17.3231 3.27681 17.3227 3.67145C17.3223 4.0708 17.6342 4.35212 18.1077 4.36373C18.4708 4.37264 18.8342 4.36551 19.2209 4.36551C19.2209 4.72351 19.2414 5.04161 19.2164 5.35608C19.1725 5.90696 19.7566 6.34179 20.3125 6.01912ZM4.14724 13.3685C4.75851 13.3731 5.36981 13.384 5.98103 13.3804C6.49093 13.3774 6.83427 13.0754 6.82397 12.6593C6.81376 12.2468 6.49947 11.9869 5.98995 11.979C5.64044 11.9736 5.29077 11.978 4.92572 11.978C4.92572 11.5974 4.93298 11.2676 4.92394 10.9382C4.91184 10.4973 4.62503 10.2039 4.22385 10.2059C3.82096 10.208 3.54062 10.503 3.53581 10.9462C3.52985 11.4966 3.53955 12.0471 3.53245 12.5974C3.52731 12.995 3.70838 13.2442 4.14724 13.3685ZM5.49035 4.36584C5.6865 4.36524 5.88299 4.37174 6.07874 4.3626C6.52483 4.34177 6.8289 4.05399 6.82457 3.6662C6.82028 3.28258 6.51102 2.97782 6.07013 2.96635C5.4698 2.95072 4.86836 2.94875 4.26815 2.96646C3.79478 2.98043 3.53893 3.26872 3.53518 3.74964C3.53097 4.28905 3.53099 4.82855 3.53519 5.36796C3.53886 5.83864 3.81771 6.14154 4.23397 6.13834C4.64684 6.13516 4.91793 5.83184 4.92527 5.35574C4.93026 5.03134 4.92622 4.70681 4.92622 4.36584C5.12769 4.36584 5.27354 4.36584 5.49035 4.36584ZM18.3029 11.9779C18.2538 11.9779 18.2047 11.9765 18.1557 11.9782C17.6404 11.9962 17.3296 12.2522 17.323 12.6637C17.3163 13.0804 17.6601 13.3758 18.1734 13.3811C18.7251 13.3867 19.277 13.3908 19.8285 13.3796C20.3466 13.3691 20.6091 13.0909 20.6122 12.571C20.6154 12.0438 20.6156 11.5166 20.6121 10.9894C20.609 10.5116 20.3418 10.2101 19.9267 10.2061C19.5116 10.2022 19.2307 10.5043 19.2221 10.9745C19.2161 11.3007 19.2209 11.6271 19.2209 11.9779C18.9087 11.9779 18.641 11.9779 18.3029 11.9779Z" fill="#F7F9FA"/>
<rect x="1" y="1" width="22" height="14" fill="#26A5B8"/>
<path d="M23.8511 10.7486C23.8511 12.2451 23.8518 13.7048 23.8507 15.1645C23.8502 15.8158 23.6133 16.0587 22.9745 16.0587C15.7129 16.0594 8.4513 16.0594 1.18968 16.0588C0.537444 16.0588 0.296927 15.8231 0.296806 15.1813C0.295925 10.5079 0.295914 5.83445 0.296819 1.16101C0.296944 0.520004 0.537653 0.285116 1.19125 0.285068C8.4406 0.284533 15.69 0.284565 22.9393 0.284982C23.6252 0.285022 23.8508 0.516526 23.8509 1.21777C23.8513 4.38246 23.8511 7.54714 23.8511 10.7486ZM22.4518 4.89588C22.4518 3.83345 22.4518 2.77102 22.4518 1.71298C15.51 1.71298 8.61103 1.71298 1.71694 1.71298C1.71694 6.03624 1.71694 10.3355 1.71694 14.6309C8.63735 14.6309 15.5364 14.6309 22.4518 14.6309C22.4518 11.3945 22.4518 8.18201 22.4518 4.89588Z" fill="#4A4A4B"/>
<path d="M19.7066 3.02012C20.1157 3.13706 20.2968 3.38622 20.2916 3.78383C20.2845 4.33414 20.2942 4.88465 20.2883 5.43499C20.2835 5.87823 20.0031 6.1732 19.6002 6.17528C19.1991 6.17735 18.9123 5.88395 18.9002 5.44302C18.8911 5.11362 18.8984 4.78378 18.8984 4.40325C18.5333 4.40325 18.1836 4.40764 17.8341 4.4022C17.3246 4.39429 17.0103 4.13446 17.0001 3.72188C16.9898 3.30577 17.3332 3.00377 17.8431 3.00081C18.4543 2.99726 19.0656 3.00813 19.7066 3.02012Z" fill="white"/>
<path d="M4.11758 13.3612C3.70852 13.2443 3.52744 12.9951 3.53258 12.5975C3.53968 12.0472 3.52998 11.4967 3.53595 10.9464C3.54075 10.5031 3.82109 10.2081 4.22398 10.2061C4.62516 10.204 4.91197 10.4974 4.92407 10.9383C4.93311 11.2677 4.92585 11.5976 4.92585 11.9781C5.29091 11.9781 5.64057 11.9737 5.99008 11.9791C6.4996 11.9871 6.81389 12.2469 6.8241 12.6595C6.8344 13.0756 6.49106 13.3776 5.98116 13.3805C5.36994 13.3841 4.75864 13.3732 4.11758 13.3612Z" fill="white"/>
<path d="M5.45483 4.36556C5.27349 4.36556 5.12764 4.36556 4.92617 4.36556C4.92617 4.70653 4.93022 5.03106 4.92522 5.35546C4.91789 5.83156 4.64679 6.13488 4.23392 6.13806C3.81767 6.14126 3.53881 5.83836 3.53515 5.36768C3.53094 4.82827 3.53092 4.28877 3.53513 3.74936C3.53888 3.26844 3.79473 2.98015 4.2681 2.96618C4.86831 2.94847 5.46975 2.95044 6.07009 2.96607C6.51097 2.97754 6.82023 3.2823 6.82452 3.66592C6.82885 4.05371 6.52478 4.34149 6.07869 4.36232C5.88294 4.37146 5.68646 4.36496 5.45483 4.36556Z" fill="white"/>
<path d="M18.3382 11.9778C18.6411 11.9778 18.9088 11.9778 19.221 11.9778C19.221 11.627 19.2162 11.3006 19.2222 10.9744C19.2308 10.5042 19.5117 10.2021 19.9268 10.2061C20.3419 10.21 20.6091 10.5116 20.6122 10.9893C20.6157 11.5165 20.6155 12.0438 20.6123 12.5709C20.6092 13.0909 20.3467 13.369 19.8286 13.3795C19.2771 13.3908 18.7252 13.3867 18.1735 13.381C17.6602 13.3758 17.3164 13.0804 17.3231 12.6636C17.3297 12.2522 17.6405 11.9962 18.1558 11.9782C18.2048 11.9764 18.2539 11.9779 18.3382 11.9778Z" fill="white"/>
<g clip-path="url(#clip1_1708_55)">
<path fill-rule="evenodd" clip-rule="evenodd" d="M11.8438 10.25C12.1597 10.25 12.4726 10.1878 12.7646 10.0668C13.0565 9.94591 13.3218 9.76867 13.5452 9.54523C13.7687 9.32178 13.9459 9.05652 14.0668 8.76458C14.1878 8.47264 14.25 8.15974 14.25 7.84375C14.25 7.52776 14.1878 7.21486 14.0668 6.92292C13.9459 6.63098 13.7687 6.36572 13.5452 6.14227C13.3218 5.91883 13.0565 5.74159 12.7646 5.62066C12.4726 5.49974 12.1597 5.4375 11.8438 5.4375C11.2056 5.4375 10.5935 5.69101 10.1423 6.14227C9.69101 6.59353 9.4375 7.20557 9.4375 7.84375C9.4375 8.48193 9.69101 9.09397 10.1423 9.54523C10.5935 9.99649 11.2056 10.25 11.8438 10.25ZM14.6875 7.84375C14.6875 8.59796 14.3879 9.32128 13.8546 9.85458C13.3213 10.3879 12.598 10.6875 11.8438 10.6875C11.0895 10.6875 10.3662 10.3879 9.83292 9.85458C9.29961 9.32128 9 8.59796 9 7.84375C9 7.08954 9.29961 6.36622 9.83292 5.83292C10.3662 5.29961 11.0895 5 11.8438 5C12.598 5 13.3213 5.29961 13.8546 5.83292C14.3879 6.36622 14.6875 7.08954 14.6875 7.84375Z" fill="white"/>
<path d="M13.5254 10.137C13.5385 10.1545 13.5525 10.1711 13.5683 10.1873L15.2526 11.8717C15.3347 11.9537 15.446 11.9999 15.562 11.9999C15.6781 12 15.7894 11.9539 15.8715 11.8719C15.9536 11.7898 15.9997 11.6786 15.9998 11.5625C15.9998 11.4464 15.9537 11.3351 15.8717 11.253L14.1873 9.56865C14.1717 9.55282 14.1549 9.53819 14.137 9.5249C13.9654 9.75891 13.7592 9.96544 13.5254 10.1374V10.137Z" fill="white"/>
<path fill-rule="evenodd" clip-rule="evenodd" d="M11.8438 6.3125C11.9018 6.3125 11.9574 6.33555 11.9984 6.37657C12.0395 6.41759 12.0625 6.47323 12.0625 6.53125V7.625H13.1562C13.2143 7.625 13.2699 7.64805 13.3109 7.68907C13.352 7.73009 13.375 7.78573 13.375 7.84375C13.375 7.90177 13.352 7.95741 13.3109 7.99843C13.2699 8.03945 13.2143 8.0625 13.1562 8.0625H12.0625V9.15625C12.0625 9.21427 12.0395 9.26991 11.9984 9.31093C11.9574 9.35195 11.9018 9.375 11.8438 9.375C11.7857 9.375 11.7301 9.35195 11.6891 9.31093C11.648 9.26991 11.625 9.21427 11.625 9.15625V8.0625H10.5312C10.4732 8.0625 10.4176 8.03945 10.3766 7.99843C10.3355 7.95741 10.3125 7.90177 10.3125 7.84375C10.3125 7.78573 10.3355 7.73009 10.3766 7.68907C10.4176 7.64805 10.4732 7.625 10.5312 7.625H11.625V6.53125C11.625 6.47323 11.648 6.41759 11.6891 6.37657C11.7301 6.33555 11.7857 6.3125 11.8438 6.3125Z" fill="white"/>
</g>
</g>
<defs>
<clipPath id="clip0_1708_55">
<rect width="24" height="16.1227" fill="white"/>
</clipPath>
<clipPath id="clip1_1708_55">
<rect width="7" height="7" fill="white" transform="translate(9 5)"/>
</clipPath>
</defs>
</svg>
