<svg width="24" height="24" viewBox="0 0 24 24" fill="none" xmlns="http://www.w3.org/2000/svg">
<path d="M3.01875 0.0700705C2.46094 0.191945 2.2125 0.365383 1.21875 1.31226C0.0890625 2.39507 0.0234375 2.48413 0.0234375 2.90601C0.0234375 3.16851 0.0421875 3.2482 0.15 3.40288C0.403125 3.76382 0.796875 3.90913 1.21406 3.79663C1.38281 3.75445 1.52812 3.63726 1.97812 3.20132L2.53125 2.65757L2.54062 10.5044L2.55469 18.3513L2.68594 18.7732C3.06094 19.9873 4.0125 20.9388 5.22656 21.3138L5.64844 21.4451L13.4719 21.4591L21.2906 21.4685L20.7516 22.0263C20.3203 22.4716 20.1984 22.6263 20.1562 22.7904C19.9594 23.5169 20.5969 24.1498 21.3281 23.9529C21.5062 23.906 21.6703 23.7607 22.5375 22.9076C23.4562 21.9935 23.5547 21.8857 23.7234 21.5388C24.075 20.8169 24.075 20.1279 23.7141 19.4107C23.5547 19.0919 23.4328 18.9513 22.5375 18.0607C21.6703 17.2076 21.5062 17.0623 21.3281 17.0154C20.9109 16.9029 20.4937 17.0623 20.25 17.4232C20.1562 17.5638 20.1328 17.6529 20.1328 17.9013C20.1328 18.2857 20.175 18.356 20.8781 19.0685L21.3984 19.5935L13.6406 19.5841L5.88281 19.5701L5.62969 19.4669C5.10469 19.2513 4.74375 18.8951 4.5375 18.3888L4.42969 18.1169L4.41562 10.3357L4.40625 2.55445L4.93125 3.07476C5.64375 3.7732 5.71406 3.82007 6.09375 3.82007C6.34687 3.82007 6.43125 3.79663 6.58594 3.68882C6.95156 3.44038 7.09687 3.05132 6.98437 2.62476C6.9375 2.43726 6.81562 2.30132 5.93906 1.43882C4.84687 0.374758 4.59844 0.196633 3.99844 0.0700705C3.61406 -0.0143045 3.39375 -0.0143045 3.01875 0.0700705Z" fill="#fff"/>
<path d="M8.79346 0.0325277C8.57783 0.0887777 8.34346 0.299715 8.22158 0.548153C8.00596 0.98409 8.13252 1.43409 8.5544 1.72472L8.7419 1.85128L15.1169 1.87472L21.4919 1.89815L21.67 2.01065C21.7685 2.07159 21.9044 2.20753 21.9747 2.31065L22.1013 2.50284L22.1247 8.90128L22.1481 15.3044L22.2747 15.4919C22.4528 15.745 22.6731 15.8857 22.9591 15.9232C23.2825 15.9607 23.6481 15.7872 23.8403 15.5013L23.9763 15.3044L23.9903 8.94346C24.0044 1.87003 24.0185 2.2169 23.6903 1.54659C23.4513 1.06378 22.9356 0.548153 22.4528 0.30909C21.7919 -0.0143473 22.1294 -0.000284771 15.1638 0.00440273C11.7091 0.00909023 8.84033 0.0231527 8.79346 0.0325277Z" fill="#fff"/>
<path d="M17.5832 5.11387C16.9738 5.23106 16.3785 5.69512 16.0972 6.25762C15.9144 6.62324 15.8113 7.14356 15.8629 7.41543C15.9379 7.82324 16.3504 8.15606 16.7816 8.15606C17.2129 8.15606 17.6347 7.81387 17.6957 7.41074C17.7519 7.07324 17.7707 7.02637 17.8832 6.97481C18.0332 6.90918 18.2066 6.95606 18.2769 7.09668C18.3332 7.19512 18.3238 7.23731 18.2066 7.44824C18.0051 7.82324 17.3722 8.57793 16.6269 9.33731C16.0644 9.90918 15.9426 10.0592 15.891 10.2373C15.741 10.7764 16.1066 11.3342 16.6597 11.4139C16.7629 11.4326 17.4754 11.4373 18.2347 11.4279C19.5941 11.4139 19.6222 11.4139 19.7957 11.3014C19.8941 11.2404 20.0301 11.1045 20.1004 11.0014C20.2035 10.842 20.2269 10.7576 20.2269 10.5045C20.2269 9.95605 19.9082 9.61855 19.3363 9.57637C19.1676 9.5623 19.0316 9.53887 19.0316 9.52949C19.0316 9.51543 19.1347 9.37481 19.2613 9.21543C19.7863 8.55449 20.1191 7.90762 20.1801 7.42949C20.1988 7.29824 20.1894 7.05918 20.1613 6.89512C19.9644 5.68574 18.7926 4.87481 17.5832 5.11387Z" fill="#fff"/>
<path d="M6.90031 8.39512C6.68469 8.46074 6.38937 8.77012 6.32844 8.99512C6.29562 9.12168 6.28156 10.1811 6.29094 12.3186L6.305 15.4498L6.43156 15.642C6.62375 15.9326 6.85344 16.0545 7.21906 16.0545C7.58469 16.0545 7.81437 15.9326 8.00656 15.642L8.13312 15.4498L8.15656 13.0826C8.18 10.7201 8.18 10.7107 8.28312 10.5654C8.55969 10.1764 9.15969 10.1764 9.43625 10.5654C9.53937 10.7107 9.53937 10.7201 9.56281 13.0826L9.58625 15.4498L9.71281 15.642C9.905 15.9326 10.1347 16.0545 10.5003 16.0545C10.8659 16.0545 11.0956 15.9326 11.2878 15.642L11.4144 15.4498L11.4378 13.0826C11.4612 10.7201 11.4612 10.7107 11.5644 10.5654C11.8691 10.1389 12.5487 10.1904 12.7691 10.6592C12.8347 10.7998 12.8441 11.0904 12.8441 13.0686V15.3186L12.9753 15.567C13.0784 15.7686 13.1534 15.8436 13.355 15.9467C13.6737 16.1154 13.8894 16.1154 14.2081 15.9467C14.4097 15.8436 14.4847 15.7686 14.5878 15.567L14.7191 15.3186V13.0357C14.7191 11.6107 14.7003 10.6451 14.6675 10.4717C14.4894 9.49668 13.6175 8.62481 12.6191 8.43262C12.0191 8.32012 11.3206 8.45137 10.7816 8.78418L10.5003 8.95762L10.1909 8.77012C9.73156 8.49356 9.44562 8.41856 8.83625 8.41856C8.46125 8.41856 8.25969 8.44199 8.09562 8.50293C7.87531 8.58262 7.86594 8.58262 7.71125 8.48418C7.52375 8.36699 7.12531 8.32481 6.90031 8.39512Z" fill="#fff"/>
</svg>
