<svg width="24" height="24" viewBox="0 0 24 24" fill="none" xmlns="http://www.w3.org/2000/svg">
<path d="M11.1246 3.08565C10.1971 3.33492 9.32174 4.1871 9.03188 5.12043C8.87536 5.63057 8.87536 6.43637 9.03188 6.94652C9.31594 7.86826 10.1275 8.67985 11.0551 8.96391C11.5536 9.12043 12.3652 9.12043 12.8638 8.96391C13.7913 8.67985 14.6029 7.86826 14.887 6.94652C15.0435 6.43637 15.0435 5.63057 14.887 5.12043C14.5913 4.1755 13.7159 3.32913 12.771 3.07985C12.3478 2.9697 11.542 2.9755 11.1246 3.08565Z" fill="#a7cfcf"/>
<path d="M6.20868 4.44786C5.73331 4.50583 5.10723 4.83047 4.78839 5.18989C4.66085 5.33482 4.46955 5.62467 4.37099 5.83337C4.20288 6.18699 4.19128 6.25655 4.19128 6.84786C4.19128 7.44496 4.20288 7.50873 4.37679 7.87395C4.9565 9.09713 6.42897 9.61887 7.63476 9.03337C7.99998 8.85945 8.5623 8.32612 8.67824 8.05366C8.74201 7.89713 8.73621 7.84496 8.60288 7.58989C8.31302 7.01018 8.18549 6.07105 8.31302 5.40438C8.3594 5.15511 8.28404 5.05655 7.87824 4.79569C7.39708 4.48844 6.84056 4.3725 6.20868 4.44786Z" fill="#a7cfcf"/>
<path d="M16.9623 4.45366C16.5797 4.50003 16.1102 4.70873 15.8145 4.958L15.6116 5.12612L15.629 5.83916C15.6522 6.63337 15.571 7.07974 15.316 7.58989C15.1826 7.84496 15.1768 7.89713 15.2406 8.05366C15.3565 8.32612 15.9189 8.85945 16.2841 9.03337C17.4899 9.61887 18.9623 9.09713 19.5421 7.87395C19.716 7.50873 19.7276 7.44496 19.7276 6.84786C19.7276 6.27395 19.7102 6.1754 19.5652 5.86815C19.0783 4.81887 18.116 4.29713 16.9623 4.45366Z" fill="#a7cfcf"/>
<path d="M9.56519 9.66532C8.06954 9.97836 7.12462 10.5755 6.63766 11.503C6.27824 12.1871 6.23766 12.4247 6.20867 14.0479L6.17969 15.503L6.41737 15.6537C6.5449 15.7349 6.79998 15.874 6.97389 15.961L7.29273 16.1175V16.4189C7.29273 17.4972 7.84925 18.8015 8.65505 19.6015C9.09563 20.0421 9.43186 20.2798 10.0348 20.5581C10.6666 20.8537 11.2058 20.9639 11.9768 20.9639C13.5884 20.9639 15.0493 20.1639 15.884 18.8189C16.3246 18.1117 16.6203 17.1726 16.6319 16.4537V16.1813L17.1652 15.9204L17.6985 15.6537V14.0943C17.6927 12.7726 17.6753 12.4711 17.5884 12.1523C17.3217 11.19 16.8232 10.5697 15.9652 10.1523C15.4145 9.87401 14.5565 9.63053 13.9362 9.56677C13.629 9.53778 13.5072 9.55517 13.113 9.6943C12.7246 9.83343 12.5681 9.85662 12.0464 9.85662C11.5362 9.85662 11.3623 9.82764 10.9855 9.7001C10.4579 9.51459 10.2898 9.51459 9.56519 9.66532ZM13.1246 12.5813C14.3362 12.9697 15.2985 13.9204 15.7043 15.1378C15.8261 15.4856 15.8435 15.6595 15.8435 16.3262C15.8435 16.9929 15.8261 17.1668 15.7043 17.5146C15.4145 18.3842 14.742 19.2363 14 19.6769C13.2695 20.1117 12.2898 20.3262 11.4956 20.216C10.5913 20.0885 9.86085 19.7407 9.23476 19.1378C8.78838 18.7088 8.49273 18.2508 8.26085 17.6363C8.09273 17.1958 8.08114 17.1204 8.08114 16.3552C8.07534 15.4856 8.12172 15.2595 8.42317 14.6218C8.9507 13.5088 10.0637 12.674 11.3391 12.4421C11.7971 12.3552 12.6145 12.4247 13.1246 12.5813Z" fill="#a7cfcf"/>
<path d="M4.95072 9.66531C3.66957 9.85081 2.73043 10.3899 2.36522 11.1378C2.11594 11.6537 2.06957 11.961 2.03478 13.2305L2 14.4537L2.31304 14.6276C2.63768 14.8073 3.35072 15.1088 3.46087 15.1088C3.50145 15.1088 3.52464 14.8305 3.53043 14.2798L3.53623 13.4566L3.69275 14.3262L3.84348 15.1957L4.05797 15.2653C4.31304 15.3465 5.44928 15.5146 5.51304 15.474C5.53623 15.4624 5.55362 14.8711 5.55362 14.1639C5.55362 12.6218 5.64058 12.0769 6.01159 11.3117C6.24928 10.8247 6.76522 10.2102 7.2058 9.90299L7.37971 9.78125L7.14783 9.84502C6.8 9.93777 5.97681 9.874 5.64638 9.72328C5.48986 9.65951 5.35072 9.60734 5.32754 9.60734C5.31015 9.61313 5.13623 9.63632 4.95072 9.66531Z" fill="#a7cfcf"/>
<path d="M18.2493 9.73481C18.0406 9.83336 17.8667 9.85655 17.4087 9.85655L16.829 9.86235L17.2406 10.2681C17.7043 10.7261 18 11.2595 18.2029 11.9783C18.3014 12.3493 18.3246 12.6276 18.3478 13.9551L18.3768 15.5029L18.6203 15.4739C19.113 15.416 19.8898 15.2768 19.9826 15.2305C20.0464 15.1899 20.1159 14.9348 20.2261 14.3145L20.3826 13.4566L20.3884 14.2797C20.3942 14.8305 20.4174 15.1087 20.458 15.1087C20.5681 15.1087 21.2812 14.8073 21.6058 14.6276L21.9188 14.4537L21.8841 13.2305C21.8493 11.9609 21.8029 11.6537 21.5536 11.1377C21.2464 10.5058 20.4985 10.0015 19.542 9.78699C18.742 9.60728 18.5449 9.59568 18.2493 9.73481Z" fill="#a7cfcf"/>
<path d="M11.2215 14.5234C11.2215 14.5265 11.2387 14.5766 11.2606 14.6346C11.3123 14.7693 11.3421 14.8915 11.3703 15.0889C11.4063 15.3379 11.4157 15.316 11.2418 15.4319C11.057 15.5541 10.8941 15.6872 10.6857 15.8893L10.5291 16.0397L10.4555 15.9692C10.197 15.7201 9.90252 15.5807 9.62369 15.576L9.50621 15.5745L9.50151 15.6575C9.49055 15.858 9.57513 16.1525 9.70045 16.3389L9.75997 16.4297L9.69262 16.5331C9.57357 16.7133 9.48741 17.0203 9.50151 17.2114L9.50621 17.2819L9.59863 17.2866C9.85553 17.3007 10.2471 17.1143 10.4758 16.8699L10.5213 16.8213L10.6951 16.9842C11.0037 17.274 11.3076 17.4933 11.5849 17.6265L11.7321 17.6985L11.7211 17.8348C11.7149 17.91 11.7149 18.0447 11.7196 18.1356L11.7305 18.3L11.776 18.2953C11.9514 18.2766 12.2459 18.1293 12.437 17.968L12.5514 17.8693H12.6594C12.968 17.8693 13.344 17.7455 13.6541 17.5403C13.8233 17.4275 14.0551 17.2035 14.1945 17.0156C14.3199 16.8464 14.5 16.5002 14.5 16.4282C14.5 16.3686 14.3606 16.0882 14.2462 15.9175C14.1272 15.7374 13.9173 15.5149 13.745 15.3849C13.4912 15.1922 13.1372 15.0466 12.8192 15.0011C12.7096 14.9855 12.6751 14.9729 12.6187 14.9307C12.473 14.8194 12.1958 14.6973 11.9389 14.6283C11.7196 14.5704 11.2215 14.4967 11.2215 14.5234ZM13.438 15.8079C13.4975 15.8329 13.5398 15.9018 13.5398 15.9755C13.5398 16.0099 13.5241 16.0397 13.4865 16.0773C13.4427 16.1211 13.4223 16.1305 13.3659 16.1305C13.1795 16.129 13.1262 15.8815 13.2954 15.8079C13.3581 15.7812 13.3722 15.7812 13.438 15.8079Z" fill="#a7cfcf"/>
</svg>
