<svg width="100" height="100" viewBox="0 0 100 100" fill="none" xmlns="http://www.w3.org/2000/svg">
<g clip-path="url(#clip0_1207_9)">
<path d="M100 50C100 22.3858 77.6142 0 50 0C22.3858 0 0 22.3858 0 50C0 77.6142 22.3858 100 50 100C77.6142 100 100 77.6142 100 50Z" fill="#DDE0E4"/>
<g clip-path="url(#clip1_1207_9)">
<path d="M57.7793 74.2903C57.2017 74.1154 56.7865 74.2199 56.344 74.5788C55.2738 75.447 53.9521 75.6038 52.7595 75.1214C51.1713 74.479 49.7267 74.7016 48.1693 75.1278C46.3823 75.6168 43.5679 75.2599 42.5162 72.8289C42.3614 72.471 42.0651 72.4819 41.7466 72.4559C40.582 72.3606 39.433 72.2406 38.5057 71.3776C37.8083 70.7285 37.4713 69.9234 37.3076 68.9961C36.6608 69.0108 36.0449 69.1178 35.4354 69.0087C33.8118 68.7183 32.3727 67.3102 32.1274 65.5902C31.9878 64.6114 31.7897 64.1034 30.6126 63.9093C27.9804 63.475 26.9152 61.0833 28.0843 58.5676C28.3438 58.0092 28.2466 57.7257 27.7966 57.3879C26.8837 56.7027 25.9975 55.9816 25.1087 55.2649C24.255 54.5764 24.1524 54.2396 24.5255 53.2357C26.844 46.9966 29.1729 40.7614 31.4864 34.5205C31.7443 33.8251 32.1796 33.5148 32.931 33.5095C35.9546 33.4883 38.9554 33.8375 41.9647 34.039C44.5057 34.2091 47.0466 34.3291 49.5903 34.2198C50.5199 34.1798 51.4015 33.8223 52.2445 33.4375C54.1434 32.5707 55.96 32.6128 57.8545 33.5647C61.0631 35.177 64.3298 36.7062 67.8419 37.5301C69.0603 37.8159 69.6112 38.3866 70.0016 39.5163C72.1751 45.8048 74.4056 52.0738 76.6615 58.3333C76.957 59.1532 76.8098 59.7212 76.2604 60.3248C75.5479 61.1077 74.7452 61.7687 73.8379 62.3005C73.4637 62.5199 73.3384 62.722 73.4268 63.2045C73.9464 66.0411 72.4638 67.879 69.5821 68.0457C69.2983 68.0621 68.9722 68.0156 68.9212 68.4166C68.6608 70.4634 67.2204 71.3205 65.4605 71.8426C64.9361 71.9982 64.3807 72.1344 63.8416 72.0081C63.3206 71.8859 63.0007 72.0709 62.6653 72.4327C61.3656 73.8345 59.7117 74.3555 57.7793 74.2903ZM53.2534 73.2402C53.7512 73.2943 54.2681 73.5468 54.7777 73.0789C53.5234 71.8718 52.1861 70.7647 51.3684 69.212C52.2015 69.6597 52.9479 70.2155 53.7575 70.6551C55.1084 71.3887 56.4245 72.2367 58.0445 72.2896C59.1497 72.3257 60.1314 72.0718 61.027 71.2083C57.9344 68.9432 55.3501 66.3004 53.0463 63.158C53.5021 63.2233 53.6743 63.4267 53.8664 63.5847C54.5648 64.1592 55.2448 64.7566 55.9548 65.3162C57.936 66.8778 59.8911 68.4854 62.1811 69.5909C63.584 70.2681 64.9893 70.2845 66.2895 69.3103C67.1892 68.6362 67.1518 67.7863 66.2574 67.14C62.9 64.7141 60.0953 61.7624 57.9203 58.2338C57.4925 57.5397 57.0242 56.8399 56.8653 56.003C57.824 56.9431 58.7083 57.9323 59.6254 58.8901C61.7836 61.1437 63.9923 63.3446 66.5807 65.1172C67.6693 65.8626 68.8105 66.3583 70.1922 65.9641C71.5542 65.5754 72.0579 64.0409 71.08 63.0021C69.4489 61.2694 67.75 59.6 66.139 57.8493C64.676 56.2596 63.0628 55.0422 60.9845 54.227C57.5338 52.8736 54.889 50.4702 53.43 46.9433C52.7451 45.2877 52.7426 45.3053 50.9769 45.3289C50.5258 45.335 50.2798 45.4992 50.104 45.8931C49.7231 46.7466 49.184 47.5027 48.5803 48.2111C46.922 50.1571 44.8529 51.3046 42.2585 51.3107C40.3063 51.3152 39.1551 50.3625 39.0045 48.6287C38.9303 47.7748 39.1736 46.938 39.482 46.1301C39.7271 45.4881 40.0028 44.8584 40.1222 44.1686C40.3929 42.6037 40.4393 41.0099 40.8001 39.4547C41.1205 38.0733 41.8803 37.1026 43.164 36.5218C43.325 36.449 43.5361 36.4248 43.6081 36.2099C43.2882 36.0637 42.9561 36.066 42.623 36.0449C41.5791 35.9788 40.5368 35.8867 39.493 35.8191C37.6208 35.6978 35.7478 35.5896 33.8755 35.4696C33.4882 35.4448 33.2655 35.5884 33.1329 35.9711C32.8606 36.7573 32.5381 37.5259 32.2456 38.3053C30.3824 43.2703 28.5254 48.2377 26.6536 53.1995C26.494 53.6227 26.5563 53.8857 26.9295 54.1614C27.7139 54.7409 28.4837 55.3448 29.2147 55.9895C29.5509 56.2859 29.7606 56.2831 30.128 56.0419C31.9139 54.8697 33.8639 54.9218 35.6004 56.1469C36.5978 56.8505 37.039 57.8496 36.9898 59.0354C36.9525 59.9374 36.8997 59.9352 37.7718 59.9217C39.8445 59.8894 41.3181 61.1164 41.6438 63.1402C41.6534 63.1999 41.7166 63.2508 41.7839 63.3477C43.0604 62.7677 44.3559 62.5438 45.5591 63.4667C46.8247 64.4374 46.6619 65.818 46.4263 67.2081C49.9276 67.4521 50.4703 69.5658 49.7212 72.4885C50.4735 72.2903 51.0295 72.4591 51.5885 72.6901C52.0923 72.8984 52.6204 73.0482 53.2534 73.2402ZM52.9307 35.3125C51.8814 35.6924 50.8288 36.0567 49.7536 36.3647C47.9508 36.8811 46.1415 37.3789 44.4031 38.1057C43.3246 38.5566 42.7498 39.3126 42.6123 40.4605C42.4462 41.8477 42.2431 43.2305 42.0561 44.6153C41.9174 45.6426 41.3706 46.5383 41.1157 47.5277C40.7615 48.9029 41.2175 49.4559 42.632 49.3758C42.7032 49.3718 42.7756 49.3733 42.8454 49.3608C45.6286 48.8602 47.4159 47.1604 48.4597 44.6186C48.8506 43.6667 49.0846 43.412 50.1254 43.3917C51.1958 43.3709 52.2672 43.3714 53.3378 43.3882C54.1805 43.4013 54.5343 43.6982 54.7409 44.5223C54.8737 45.052 55.0024 45.58 55.2162 46.0865C56.7671 49.761 59.7219 51.8224 63.3384 53.072C64.8968 53.6104 66.5312 53.7603 68.1849 53.5543C68.5167 53.513 68.867 53.4547 69.3071 53.6745C68.2985 54.3877 67.2342 54.651 66.0744 54.8803C66.3249 55.1791 66.4785 55.3877 66.6574 55.5715C68.0012 56.9524 69.3476 58.3308 70.698 59.7052C72.1237 61.1562 72.3169 61.1572 73.8306 59.7429C73.9865 59.5972 74.1251 59.4326 74.2689 59.2742C74.5989 58.9107 74.6856 58.538 74.5039 58.0387C73.7238 55.8957 72.9927 53.7348 72.2312 51.585C70.8987 47.823 69.5561 44.0645 68.2204 40.3037C68.0897 39.9356 67.945 39.6301 67.4992 39.513C63.8481 38.5542 60.4008 37.0592 57.0418 35.3733C55.6667 34.6831 54.3899 34.5682 52.9307 35.3125ZM34.9524 63.4548C34.6244 63.8819 34.1171 64.2062 34.0376 64.7794C33.8924 65.8268 34.9471 67.0918 36.0173 67.0701C37.2647 67.0448 38.4277 66.7543 39.0196 65.4458C39.2156 65.0126 39.4264 64.5901 39.5534 64.1276C39.896 62.8811 39.221 61.9541 37.9213 61.9039C36.6793 61.856 35.863 62.6412 34.9524 63.4548ZM30.8342 61.9764C31.605 62.207 32.3938 62.0761 33.1752 62.0925C33.356 62.0963 33.4935 62.0141 33.5972 61.8682C34.1076 61.1496 34.6404 60.4363 34.8814 59.5757C35.0288 59.0494 35.1082 58.4888 34.7046 58.0125C34.1415 57.348 32.8607 57.0174 32.0104 57.3091C30.7459 57.7429 30.0643 58.7364 29.6761 59.9206C29.3626 60.8768 29.7619 61.5335 30.8342 61.9764ZM39.3482 69.0124C39.7685 70.1623 41.0951 70.836 42.2281 70.4775C42.3951 70.4247 42.5246 70.3274 42.6174 70.1834C43.3904 68.984 44.1535 67.7799 44.5209 66.377C44.6441 65.9062 44.7656 65.4153 44.3242 65.0612C43.8802 64.705 43.3648 64.8302 42.905 65.0485C41.8114 65.5677 40.9015 66.3343 40.2145 67.3239C39.8742 67.814 39.2987 68.1969 39.3482 69.0124ZM47.1871 73.179C47.6382 72.5212 47.8083 71.7647 47.9838 71.0029C48.121 70.4072 48.143 69.8606 47.5814 69.4805C47.0961 69.1521 46.1702 69.2209 45.6982 69.6076C45.0816 70.1128 44.7158 70.8183 44.2765 71.4631C44.1126 71.7036 44.2642 71.9224 44.3814 72.1242C44.9967 73.1843 45.9728 73.3736 47.1871 73.179Z" fill="#26A5B8"/>
<path d="M24.1969 50.4642C23.5771 52.1178 22.9561 53.712 22.3789 55.3219C22.1816 55.8722 21.9908 56.057 21.3609 55.8121C18.0621 54.5295 14.7476 53.2865 11.4227 52.0729C10.7853 51.8403 10.6487 51.6189 10.8993 50.9571C13.9784 42.8243 17.0249 34.6793 20.0817 26.538C20.4067 25.6724 20.4167 25.662 21.2815 25.983C24.6222 27.2233 27.9569 28.4796 31.3012 29.71C31.8097 29.8971 31.7881 30.1631 31.6294 30.586C29.1508 37.192 26.6832 43.802 24.1969 50.4642ZM17.0904 50.4675C17.0777 50.6331 17.0451 50.7999 17.0554 50.9641C17.1228 52.0356 17.6373 52.8228 18.6364 53.2193C19.632 53.6145 20.5659 53.4362 21.3329 52.6735C22.0724 51.9382 22.2927 51.0542 21.925 50.0562C21.5594 49.0644 20.618 48.4224 19.5539 48.4293C18.377 48.437 17.555 49.0886 17.0904 50.4675Z" fill="#26A5B8"/>
<path d="M81.9761 33.7544C84.6022 41.1785 87.2058 48.5514 89.8124 55.9232C90.1277 56.815 90.1333 56.8064 89.2339 57.1225C85.938 58.2809 82.6374 59.4266 79.3535 60.6185C78.6865 60.8606 78.4542 60.6809 78.2347 60.0528C75.8988 53.3681 73.5328 46.6939 71.1818 40.0144C70.6137 38.4003 70.0763 36.7755 69.5107 35.1605C69.3855 34.8031 69.3283 34.5429 69.7888 34.3818C73.3561 33.1331 76.9182 31.8694 80.483 30.6131C80.569 30.5828 80.6667 30.5854 80.8394 30.5615C81.2112 31.6091 81.5828 32.656 81.9761 33.7544ZM82.2465 58.3541C82.4467 58.2265 82.662 58.1174 82.8445 57.968C83.7279 57.245 84.0169 56.1024 83.5886 55.0807C83.1903 54.1304 82.0863 53.386 81.1648 53.5083C80.1391 53.6444 79.3008 54.0969 78.9237 55.1347C78.5791 56.0828 78.7025 56.9722 79.4051 57.7209C80.1624 58.5279 81.0923 58.7278 82.2465 58.3541Z" fill="#26A5B8"/>
</g>
</g>
<defs>
<clipPath id="clip0_1207_9">
<rect width="100" height="100" fill="white"/>
</clipPath>
<clipPath id="clip1_1207_9">
<rect width="80" height="50.2857" fill="white" transform="translate(10 25)"/>
</clipPath>
</defs>
</svg>
