<svg width="80" height="80" viewBox="0 0 80 80" fill="none" xmlns="http://www.w3.org/2000/svg">
<circle cx="40" cy="40" r="40" fill="#F6F4F3"/>
<path d="M35.725 46.75H33.475C33.1021 46.75 32.8 47.0542 32.8 47.4297V49.6953C32.8 50.0708 33.1021 50.375 33.475 50.375H35.725C36.0979 50.375 36.4 50.0708 36.4 49.6953V47.4297C36.4 47.0542 36.0979 46.75 35.725 46.75ZM35.725 35.875H33.475C33.1021 35.875 32.8 36.1792 32.8 36.5547V38.8203C32.8 39.1958 33.1021 39.5 33.475 39.5H35.725C36.0979 39.5 36.4 39.1958 36.4 38.8203V36.5547C36.4 36.1792 36.0979 35.875 35.725 35.875ZM30.325 35.875H28.075C27.7021 35.875 27.4 36.1792 27.4 36.5547V38.8203C27.4 39.1958 27.7021 39.5 28.075 39.5H30.325C30.6979 39.5 31 39.1958 31 38.8203V36.5547C31 36.1792 30.6979 35.875 30.325 35.875ZM30.325 46.75H28.075C27.7021 46.75 27.4 47.0542 27.4 47.4297V49.6953C27.4 50.0708 27.7021 50.375 28.075 50.375H30.325C30.6979 50.375 31 50.0708 31 49.6953V47.4297C31 47.0542 30.6979 46.75 30.325 46.75ZM30.325 41.3125H28.075C27.7021 41.3125 27.4 41.6167 27.4 41.9922V44.2578C27.4 44.6333 27.7021 44.9375 28.075 44.9375H30.325C30.6979 44.9375 31 44.6333 31 44.2578V41.9922C31 41.6167 30.6979 41.3125 30.325 41.3125ZM35.725 41.3125H33.475C33.1021 41.3125 32.8 41.6167 32.8 41.9922V44.2578C32.8 44.6333 33.1021 44.9375 33.475 44.9375H35.725C36.0979 44.9375 36.4 44.6333 36.4 44.2578V41.9922C36.4 41.6167 36.0979 41.3125 35.725 41.3125ZM51.925 46.75H49.675C49.3021 46.75 49 47.0542 49 47.4297V49.6953C49 50.0708 49.3021 50.375 49.675 50.375H51.925C52.2979 50.375 52.6 50.0708 52.6 49.6953V47.4297C52.6 47.0542 52.2979 46.75 51.925 46.75ZM51.925 41.3125H49.675C49.3021 41.3125 49 41.6167 49 41.9922V44.2578C49 44.6333 49.3021 44.9375 49.675 44.9375H51.925C52.2979 44.9375 52.6 44.6333 52.6 44.2578V41.9922C52.6 41.6167 52.2979 41.3125 51.925 41.3125ZM56.65 35.875H50.8V26.3594C50.8 25.6083 50.1959 25 49.45 25H37.75C37.0041 25 36.4 25.6083 36.4 26.3594V30.4375H34.6V25.9062C34.6 25.4055 34.1972 25 33.7 25H32.8C32.3027 25 31.9 25.4055 31.9 25.9062V30.4375H28.3V25.9062C28.3 25.4055 27.8972 25 27.4 25H26.5C26.0027 25 25.6 25.4055 25.6 25.9062V30.4375H23.35C22.6041 30.4375 22 31.0458 22 31.7969V53.0938C22 53.5945 22.4027 54 22.9 54H23.8C24.2972 54 24.7 53.5945 24.7 53.0938V33.1562H39.1V27.7188H48.1V38.5938H55.3V53.0938C55.3 53.5945 55.7027 54 56.2 54H57.1C57.5972 54 58 53.5945 58 53.0938V37.2344C58 36.4833 57.3953 35.875 56.65 35.875ZM44.725 30.4375H42.475C42.1021 30.4375 41.8 30.7417 41.8 31.1172V33.3828C41.8 33.7583 42.1021 34.0625 42.475 34.0625H44.725C45.0979 34.0625 45.4 33.7583 45.4 33.3828V31.1172C45.4 30.7417 45.0979 30.4375 44.725 30.4375ZM44.725 41.3125H42.475C42.1021 41.3125 41.8 41.6167 41.8 41.9922V44.2578C41.8 44.6333 42.1021 44.9375 42.475 44.9375H44.725C45.0979 44.9375 45.4 44.6333 45.4 44.2578V41.9922C45.4 41.6167 45.0979 41.3125 44.725 41.3125ZM44.725 35.875H42.475C42.1021 35.875 41.8 36.1792 41.8 36.5547V38.8203C41.8 39.1958 42.1021 39.5 42.475 39.5H44.725C45.0979 39.5 45.4 39.1958 45.4 38.8203V36.5547C45.4 36.1792 45.0979 35.875 44.725 35.875Z" fill="#26A5B8"/>
</svg>
