<svg width="408" height="408" viewBox="0 0 408 408" fill="none" xmlns="http://www.w3.org/2000/svg">
<circle cx="204" cy="204" r="204" fill="white"/>
<path d="M240.117 85.7143C241.838 85.7143 243.403 86.8112 244.029 88.4304L255.553 119.143H312.969C317.558 119.143 321.312 122.904 321.312 127.5V277.929C321.312 282.525 317.558 286.286 312.969 286.286H96.0312C91.4422 286.286 87.6875 282.525 87.6875 277.929V127.5C87.6875 122.904 91.4422 119.143 96.0312 119.143H153.499L163.981 91.1464C165.18 87.908 168.309 85.7143 171.803 85.7143H240.117V85.7143ZM240.117 69H171.803C161.373 69 152.039 75.4768 148.388 85.2442L141.922 102.429H96.0312C82.2119 102.429 71 113.658 71 127.5V277.929C71 291.77 82.2119 303 96.0312 303H312.969C326.788 303 338 291.77 338 277.929V127.5C338 113.658 326.788 102.429 312.969 102.429H267.078L259.621 82.5804C256.596 74.3799 248.826 69 240.117 69V69ZM204.5 265.393C169.978 265.393 141.922 237.292 141.922 202.714C141.922 168.137 169.978 140.036 204.5 140.036C239.022 140.036 267.078 168.137 267.078 202.714C267.078 237.292 239.022 265.393 204.5 265.393ZM204.5 156.75C179.208 156.75 158.609 177.382 158.609 202.714C158.609 228.047 179.208 248.679 204.5 248.679C229.792 248.679 250.391 228.047 250.391 202.714C250.391 177.382 229.792 156.75 204.5 156.75Z" fill="black"/>
</svg>
