<?xml version="1.0" encoding="utf-8"?>
<svg xmlns="http://www.w3.org/2000/svg" style="margin: auto; display: block; shape-rendering: auto; background: none;" width="280" height="100" preserveAspectRatio="xMidYMid">
<style type="text/css">
  text {
    text-anchor: middle; font-size: 30px; opacity: 0;
  }
</style>
<g style="transform-origin: 140px 50px; transform: scale(0.652174);">
<g transform="translate(140,50)">
  <g transform="translate(0,0)"><g class="path" style="transform: scale(0.91); transform-origin: -102.165px -3.39155px; animation: 1s linear -0.6s infinite normal forwards running breath-9018745c-e7d4-4f21-9764-e8ff3d37fba9;"><path d="M32.02-6.81L32.02-6.81L32.02-6.81Q32.80-6.30 33.21-5.06L33.21-5.06L33.21-5.06Q26.82 0.92 20.24 0.92L20.24 0.92L20.24 0.92Q15.73 0.92 12.37-0.71L12.37-0.71L12.37-0.71Q9.02-2.35 6.81-5.04L6.81-5.04L6.81-5.04Q4.60-7.73 3.52-11.15L3.52-11.15L3.52-11.15Q2.44-14.58 2.44-18.17L2.44-18.17L2.44-18.17Q2.44-21.80 3.68-25.28L3.68-25.28L3.68-25.28Q4.92-28.75 7.31-31.49L7.31-31.49L7.31-31.49Q9.71-34.22 13.22-35.88L13.22-35.88L13.22-35.88Q16.74-37.54 21.25-37.54L21.25-37.54L21.25-37.54Q27.19-37.54 32.29-34.78L32.29-34.78L32.29-25.94L32.29-25.94Q31.46-25.81 30.82-25.81L30.82-25.81L30.82-25.81Q30.13-25.81 29.67-25.94L29.67-25.94L28.20-33.63L28.20-33.63Q25.39-35.47 20.70-35.47L20.70-35.47L20.70-35.47Q17.80-35.47 15.48-34.16L15.48-34.16L15.48-34.16Q13.16-32.84 11.52-30.61L11.52-30.61L11.52-30.61Q9.89-28.38 9.02-25.37L9.02-25.37L9.02-25.37Q8.14-22.36 8.14-18.95L8.14-18.95L8.14-18.95Q8.14-15.32 8.99-12.24L8.99-12.24L8.99-12.24Q9.84-9.15 11.41-6.90L11.41-6.90L11.41-6.90Q12.97-4.65 15.20-3.38L15.20-3.38L15.20-3.38Q17.43-2.12 20.19-2.12L20.19-2.12L20.19-2.12Q23.51-2.12 26.59-3.40L26.59-3.40L26.59-3.40Q29.67-4.69 32.02-6.81" fill="#26a5b8" stroke="none" stroke-width="none" transform="translate(-119.98994755744934,14.918453619696876)" style="fill: rgb(38, 165, 184);"></path></g><g class="path" style="transform: scale(0.91); transform-origin: -71.9399px 2.63845px; animation: 1s linear -0.54s infinite normal forwards running breath-9018745c-e7d4-4f21-9764-e8ff3d37fba9;"><path d="M41.22-6.12L41.22-6.12L41.22-6.12Q41.22-3.73 42.09-2.74L42.09-2.74L42.09-2.74Q42.96-1.75 44.85-1.75L44.85-1.75L44.85-1.75Q46.23-1.75 47.91-2.60L47.91-2.60L47.91-2.60Q49.59-3.45 51.01-5.06L51.01-5.06L51.01-12.24L51.01-12.24Q46.28-11.96 43.75-10.56L43.75-10.56L43.75-10.56Q41.22-9.15 41.22-6.12zM51.01-13.89L51.01-13.89L51.01-16.24L51.01-16.24Q51.01-20.15 50.12-21.92L50.12-21.92L50.12-21.92Q49.22-23.69 47.15-23.69L47.15-23.69L47.15-23.69Q45.03-23.69 43.75-22.33L43.75-22.33L43.75-22.33Q42.46-20.98 42.00-17.71L42.00-17.71L42.00-17.71Q40.53-17.39 39.84-17.39L39.84-17.39L39.84-17.39Q38.04-17.39 37.72-18.68L37.72-18.68L37.72-18.68Q37.72-21.80 40.43-23.64L40.43-23.64L40.43-23.64Q43.15-25.48 47.20-25.48L47.20-25.48L47.20-25.48Q51.66-25.48 53.52-23.67L53.52-23.67L53.52-23.67Q55.38-21.85 55.38-17.16L55.38-17.16L55.38-4.19L55.38-4.19Q55.38-3.04 55.52-2.21L55.52-2.21L59.16-1.75L59.16-1.75Q59.34-1.06 59.16 0L59.16 0L59.16 0Q55.89 0.14 52.21 0.64L52.21 0.64L52.21 0.64Q51.84 0.28 51.75-0.28L51.75-0.28L51.52-3.45L51.52-3.45Q47.70 0.92 43.01 0.92L43.01 0.92L43.01 0.92Q40.11 0.92 38.48-0.74L38.48-0.74L38.48-0.74Q36.85-2.39 36.85-5.20L36.85-5.20L36.85-5.20Q36.85-9.43 40.69-11.59L40.69-11.59L40.69-11.59Q44.53-13.75 51.01-13.89" fill="#26a5b8" stroke="none" stroke-width="none" transform="translate(-119.98994755744934,14.918453619696876)" style="fill: rgb(38, 165, 184);"></path></g><g class="path" style="transform: scale(0.91); transform-origin: -49.9549px 2.26845px; animation: 1s linear -0.48s infinite normal forwards running breath-9018745c-e7d4-4f21-9764-e8ff3d37fba9;"><path d="M69.37-24.56L69.37-24.56L69.28-19.83L69.28-19.83Q70.43-21.94 72.47-23.71L72.47-23.71L72.47-23.71Q74.52-25.48 76.36-25.48L76.36-25.48L76.36-25.48Q77.79-25.48 78.89-25.16L78.89-25.16L78.89-25.16Q79.26-24.56 79.26-23.60L79.26-23.60L79.26-23.60Q79.26-22.08 78.61-20.56L78.61-20.56L78.61-20.56Q76.96-21.02 75.44-21.02L75.44-21.02L75.44-21.02Q71.67-21.02 69.23-17.34L69.23-17.34L69.14-9.29L69.14-2.35L74.24-1.66L74.24-1.66Q74.43-0.92 74.24 0.18L74.24 0.18L74.24 0.18Q71.35 0.05 67.62 0.05L67.62 0.05L67.62 0.05Q64.81 0.05 60.95 0.14L60.95 0.14L60.95 0.14Q60.67-0.74 60.95-1.66L60.95-1.66L64.58-2.16L64.58-2.16Q64.77-4.69 64.77-8.00L64.77-8.00L64.77-20.61L64.77-20.61Q64.77-21.53 64.63-22.31L64.63-22.31L61.00-22.77L61.00-22.77Q60.81-23.46 61.00-24.52L61.00-24.52L61.00-24.52Q64.17-24.75 68.91-25.48L68.91-25.48L68.91-25.48Q69.32-25.02 69.37-24.56" fill="#26a5b8" stroke="none" stroke-width="none" transform="translate(-119.98994755744934,14.918453619696876)" style="fill: rgb(38, 165, 184);"></path></g><g class="path" style="transform: scale(0.91); transform-origin: -27.7799px 5.92845px; animation: 1s linear -0.42s infinite normal forwards running breath-9018745c-e7d4-4f21-9764-e8ff3d37fba9;"><path d="M85.10 0.51L85.10 0.51L85.10 0.51Q85.51 0.69 85.79 1.29L85.79 1.29L85.79 1.29Q84.27 2.53 84.27 5.01L84.27 5.01L84.27 5.01Q84.27 7.22 86.30 8.56L86.30 8.56L86.30 8.56Q88.32 9.89 91.54 9.89L91.54 9.89L91.54 9.89Q94.85 9.89 97.06 8.67L97.06 8.67L97.06 8.67Q99.27 7.45 99.27 5.24L99.27 5.24L99.27 5.24Q99.27 2.85 98.39 1.72L98.39 1.72L98.39 1.72Q97.52 0.60 94.90 0.37L94.90 0.37L86.30-0.41L86.30-0.41Q84.87-0.60 83.93-1.91L83.93-1.91L83.93-1.91Q82.98-3.22 82.98-4.46L82.98-4.46L86.07-9.57L86.07-9.57Q83.95-10.76 82.87-12.74L82.87-12.74L82.87-12.74Q81.79-14.72 81.79-16.79L81.79-16.79L81.79-16.79Q81.79-20.70 84.69-23.09L84.69-23.09L84.69-23.09Q87.58-25.48 91.36-25.48L91.36-25.48L91.36-25.48Q94.99-25.48 97.75-23.55L97.75-23.55L97.75-23.55Q97.98-29.85 102.44-30.08L102.44-30.08L102.44-30.08Q103.64-29.81 103.64-28.11L103.64-28.11L103.64-28.11Q103.64-27.19 103.45-26.08L103.45-26.08L103.45-26.08Q101.66-25.94 100.51-24.91L100.51-24.91L100.51-24.91Q99.36-23.87 98.85-22.54L98.85-22.54L98.85-22.54Q101.15-20.24 101.15-16.79L101.15-16.79L101.15-16.79Q101.15-13.16 98.21-10.74L98.21-10.74L98.21-10.74Q95.27-8.33 91.36-8.33L91.36-8.33L91.36-8.33Q89.29-8.33 87.63-8.88L87.63-8.88L86.07-4.78L97.52-3.63L97.52-3.63Q100.19-3.31 101.59-1.68L101.59-1.68L101.59-1.68Q102.99-0.05 102.99 2.58L102.99 2.58L102.99 2.58Q102.99 7.18 99.68 9.64L99.68 9.64L99.68 9.64Q96.37 12.10 90.71 12.10L90.71 12.10L90.71 12.10Q86.02 12.10 83.40 10.40L83.40 10.40L83.40 10.40Q80.78 8.69 80.78 5.84L80.78 5.84L80.78 5.84Q80.78 3.91 82.02 2.42L82.02 2.42L82.02 2.42Q83.26 0.92 85.10 0.51zM85.93-16.79L85.93-16.79L85.93-16.79Q85.93-14.12 87.42-12.24L87.42-12.24L87.42-12.24Q88.92-10.35 91.40-10.35L91.40-10.35L91.40-10.35Q93.84-10.35 95.40-12.21L95.40-12.21L95.40-12.21Q96.97-14.08 96.97-16.79L96.97-16.79L96.97-16.79Q96.97-19.73 95.43-21.69L95.43-21.69L95.43-21.69Q93.89-23.64 91.40-23.64L91.40-23.64L91.40-23.64Q89.06-23.64 87.49-21.67L87.49-21.67L87.49-21.67Q85.93-19.69 85.93-16.79" fill="#26a5b8" stroke="none" stroke-width="none" transform="translate(-119.98994755744934,14.918453619696876)" style="fill: rgb(38, 165, 184);"></path></g><g class="path" style="transform: scale(0.91); transform-origin: -3.26744px 2.63845px; animation: 1s linear -0.36s infinite normal forwards running breath-9018745c-e7d4-4f21-9764-e8ff3d37fba9;"><path d="M109.89-6.12L109.89-6.12L109.89-6.12Q109.89-3.73 110.77-2.74L110.77-2.74L110.77-2.74Q111.64-1.75 113.53-1.75L113.53-1.75L113.53-1.75Q114.91-1.75 116.59-2.60L116.59-2.60L116.59-2.60Q118.27-3.45 119.69-5.06L119.69-5.06L119.69-12.24L119.69-12.24Q114.95-11.96 112.42-10.56L112.42-10.56L112.42-10.56Q109.89-9.15 109.89-6.12zM119.69-13.89L119.69-13.89L119.69-16.24L119.69-16.24Q119.69-20.15 118.80-21.92L118.80-21.92L118.80-21.92Q117.90-23.69 115.83-23.69L115.83-23.69L115.83-23.69Q113.71-23.69 112.42-22.33L112.42-22.33L112.42-22.33Q111.14-20.98 110.68-17.71L110.68-17.71L110.68-17.71Q109.20-17.39 108.51-17.39L108.51-17.39L108.51-17.39Q106.72-17.39 106.40-18.68L106.40-18.68L106.40-18.68Q106.40-21.80 109.11-23.64L109.11-23.64L109.11-23.64Q111.83-25.48 115.87-25.48L115.87-25.48L115.87-25.48Q120.34-25.48 122.20-23.67L122.20-23.67L122.20-23.67Q124.06-21.85 124.06-17.16L124.06-17.16L124.06-4.19L124.06-4.19Q124.06-3.04 124.20-2.21L124.20-2.21L127.83-1.75L127.83-1.75Q128.02-1.06 127.83 0L127.83 0L127.83 0Q124.57 0.14 120.89 0.64L120.89 0.64L120.89 0.64Q120.52 0.28 120.43-0.28L120.43-0.28L120.20-3.45L120.20-3.45Q116.38 0.92 111.69 0.92L111.69 0.92L111.69 0.92Q108.79 0.92 107.16-0.74L107.16-0.74L107.16-0.74Q105.52-2.39 105.52-5.20L105.52-5.20L105.52-5.20Q105.52-9.43 109.36-11.59L109.36-11.59L109.36-11.59Q113.21-13.75 119.69-13.89" fill="#26a5b8" stroke="none" stroke-width="none" transform="translate(-119.98994755744934,14.918453619696876)" style="fill: rgb(38, 165, 184);"></path></g><g class="path" style="transform: scale(0.91); transform-origin: 23.2301px 2.26845px; animation: 1s linear -0.3s infinite normal forwards running breath-9018745c-e7d4-4f21-9764-e8ff3d37fba9;"><path d="M148.76-8.00L148.76-16.42L148.76-16.42Q148.76-19.96 147.82-21.39L147.82-21.39L147.82-21.39Q146.88-22.82 144.67-22.82L144.67-22.82L144.67-22.82Q141.27-22.82 137.82-17.71L137.82-17.71L137.82-2.35L141.54-1.66L141.54-1.66Q141.73-0.92 141.54 0.18L141.54 0.18L141.54 0.18Q138.64 0.05 135.61 0.05L135.61 0.05L135.61 0.05Q133.49 0.05 129.63 0.14L129.63 0.14L129.63 0.14Q129.35-0.74 129.63-1.66L129.63-1.66L133.26-2.16L133.26-2.16Q133.45-4.69 133.45-8.00L133.45-8.00L133.45-20.61L133.45-20.61Q133.45-21.53 133.31-22.31L133.31-22.31L129.67-22.77L129.67-22.77Q129.49-23.46 129.67-24.52L129.67-24.52L129.67-24.52Q132.85-24.75 137.59-25.48L137.59-25.48L137.59-25.48Q138-25.02 138.05-24.56L138.05-24.56L138.05-24.56Q137.82-23.37 137.82-20.47L137.82-20.47L137.82-20.47Q141.45-25.48 146.00-25.48L146.00-25.48L146.00-25.48Q153.13-25.48 153.13-18.72L153.13-18.72L153.13-2.35L156.86-1.66L156.86-1.66Q157.04-0.92 156.86 0.18L156.86 0.18L156.86 0.18Q153.96 0.05 150.93 0.05L150.93 0.05L150.93 0.05Q148.81 0.05 144.95 0.14L144.95 0.14L144.95 0.14Q144.67-0.74 144.95-1.66L144.95-1.66L148.58-2.16L148.58-2.16Q148.76-4.69 148.76-8.00L148.76-8.00" fill="#26a5b8" stroke="none" stroke-width="none" transform="translate(-119.98994755744934,14.918453619696876)" style="fill: rgb(38, 165, 184);"></path></g><g class="path" style="transform: scale(0.91); transform-origin: 52.5901px -3.36655px; animation: 1s linear -0.24s infinite normal forwards running breath-9018745c-e7d4-4f21-9764-e8ff3d37fba9;"><path d="M181.75-29.16L181.75-6.53L181.75-6.53Q181.75-3.45 181.88-2.21L181.88-2.21L185.52-1.75L185.52-1.75Q185.66-1.01 185.52 0L185.52 0L185.52 0Q182.16 0.14 178.53 0.64L178.53 0.64L178.53 0.64Q178.20 0.32 178.07-0.23L178.07-0.23L177.84-3.17L177.84-3.17Q176.23-1.29 173.83-0.16L173.83-0.16L173.83-0.16Q171.44 0.97 168.82 0.97L168.82 0.97L168.82 0.97Q164.82 0.97 162.20-2.37L162.20-2.37L162.20-2.37Q159.57-5.70 159.57-11.27L159.57-11.27L159.57-11.27Q159.57-17.71 163.00-21.60L163.00-21.60L163.00-21.60Q166.43-25.48 171.21-25.48L171.21-25.48L171.21-25.48Q174.98-25.48 177.38-23.69L177.38-23.69L177.38-29.85L177.38-29.85Q177.38-32.89 177.24-34.36L177.24-34.36L173.60-34.82L173.60-34.82Q173.42-35.51 173.60-36.57L173.60-36.57L173.60-36.57Q176.78-36.80 181.52-37.54L181.52-37.54L181.52-37.54Q181.93-37.08 181.98-36.62L181.98-36.62L181.98-36.62Q181.75-35.42 181.75-29.16L181.75-29.16zM170.84-23L170.84-23L170.84-23Q167.85-23 166.06-19.85L166.06-19.85L166.06-19.85Q164.27-16.70 164.27-11.13L164.27-11.13L164.27-11.13Q164.27-6.58 165.94-4.19L165.94-4.19L165.94-4.19Q167.62-1.79 170.38-1.79L170.38-1.79L170.38-1.79Q172.04-1.79 174.02-2.83L174.02-2.83L174.02-2.83Q176.00-3.86 177.38-5.70L177.38-5.70L177.38-20.42L177.38-20.42Q175.12-23 170.84-23" fill="#26a5b8" stroke="none" stroke-width="none" transform="translate(-119.98994755744934,14.918453619696876)" style="fill: rgb(38, 165, 184);"></path></g><g class="path" style="transform: scale(0.91); transform-origin: 79.9251px 2.63845px; animation: 1s linear -0.18s infinite normal forwards running breath-9018745c-e7d4-4f21-9764-e8ff3d37fba9;"><path d="M188.28-12.24L188.28-12.24L188.28-12.24Q188.28-15.00 189.08-17.41L189.08-17.41L189.08-17.41Q189.89-19.83 191.41-21.62L191.41-21.62L191.41-21.62Q192.92-23.41 195.06-24.45L195.06-24.45L195.06-24.45Q197.20-25.48 199.87-25.48L199.87-25.48L199.87-25.48Q202.49-25.48 204.65-24.45L204.65-24.45L204.65-24.45Q206.82-23.41 208.36-21.62L208.36-21.62L208.36-21.62Q209.90-19.83 210.73-17.41L210.73-17.41L210.73-17.41Q211.55-15.00 211.55-12.24L211.55-12.24L211.55-12.24Q211.55-9.38 210.70-6.99L210.70-6.99L210.70-6.99Q209.85-4.60 208.31-2.83L208.31-2.83L208.31-2.83Q206.77-1.06 204.61-0.07L204.61-0.07L204.61-0.07Q202.45 0.92 199.87 0.92L199.87 0.92L199.87 0.92Q197.16 0.92 195.02-0.05L195.02-0.05L195.02-0.05Q192.88-1.01 191.38-2.76L191.38-2.76L191.38-2.76Q189.89-4.51 189.08-6.92L189.08-6.92L189.08-6.92Q188.28-9.34 188.28-12.24zM194.99-20.70L194.99-20.70L194.99-20.70Q193.02-17.89 193.02-12.24L193.02-12.24L193.02-12.24Q193.02-9.43 193.54-7.31L193.54-7.31L193.54-7.31Q194.07-5.20 194.99-3.79L194.99-3.79L194.99-3.79Q195.91-2.39 197.16-1.70L197.16-1.70L197.16-1.70Q198.40-1.01 199.87-1.01L199.87-1.01L199.87-1.01Q201.30-1.01 202.58-1.70L202.58-1.70L202.58-1.70Q203.87-2.39 204.79-3.79L204.79-3.79L204.79-3.79Q205.71-5.20 206.26-7.31L206.26-7.31L206.26-7.31Q206.82-9.43 206.82-12.24L206.82-12.24L206.82-12.24Q206.82-15.04 206.26-17.18L206.26-17.18L206.26-17.18Q205.71-19.32 204.77-20.72L204.77-20.72L204.77-20.72Q203.83-22.13 202.56-22.84L202.56-22.84L202.56-22.84Q201.30-23.55 199.87-23.55L199.87-23.55L199.87-23.55Q197.02-23.55 194.99-20.70" fill="#26a5b8" stroke="none" stroke-width="none" transform="translate(-119.98994755744934,14.918453619696876)" style="fill: rgb(38, 165, 184);"></path></g><g class="path" style="transform: scale(0.91); transform-origin: 98.7401px 12.6635px; animation: 1s linear -0.12s infinite normal forwards running breath-9018745c-e7d4-4f21-9764-e8ff3d37fba9;"><path d="M218.68-5.11L218.68-5.11L218.68-5.11Q219.93-5.11 220.78-4.30L220.78-4.30L220.78-4.30Q221.63-3.50 221.63-2.30L221.63-2.30L221.63-2.30Q221.63-1.10 220.78-0.25L220.78-0.25L220.78-0.25Q219.93 0.60 218.73 0.60L218.73 0.60L218.73 0.60Q217.53 0.60 216.68-0.25L216.68-0.25L216.68-0.25Q215.83-1.10 215.83-2.30L215.83-2.30L215.83-2.30Q215.83-3.50 216.66-4.30L216.66-4.30L216.66-4.30Q217.49-5.11 218.68-5.11" fill="#26a5b8" stroke="none" stroke-width="none" transform="translate(-119.98994755744934,14.918453619696876)" style="fill: rgb(38, 165, 184);"></path></g><g class="path" style="transform: scale(0.91); transform-origin: 109.135px 12.6635px; animation: 1s linear -0.06s infinite normal forwards running breath-9018745c-e7d4-4f21-9764-e8ff3d37fba9;"><path d="M229.08-5.11L229.08-5.11L229.08-5.11Q230.32-5.11 231.17-4.30L231.17-4.30L231.17-4.30Q232.02-3.50 232.02-2.30L232.02-2.30L232.02-2.30Q232.02-1.10 231.17-0.25L231.17-0.25L231.17-0.25Q230.32 0.60 229.13 0.60L229.13 0.60L229.13 0.60Q227.93 0.60 227.08-0.25L227.08-0.25L227.08-0.25Q226.23-1.10 226.23-2.30L226.23-2.30L226.23-2.30Q226.23-3.50 227.06-4.30L227.06-4.30L227.06-4.30Q227.88-5.11 229.08-5.11" fill="#26a5b8" stroke="none" stroke-width="none" transform="translate(-119.98994755744934,14.918453619696876)" style="fill: rgb(38, 165, 184);"></path></g><g class="path" style="transform: scale(0.91); transform-origin: 119.53px 12.6635px; animation: 1s linear 0s infinite normal forwards running breath-9018745c-e7d4-4f21-9764-e8ff3d37fba9;"><path d="M239.48-5.11L239.48-5.11L239.48-5.11Q240.72-5.11 241.57-4.30L241.57-4.30L241.57-4.30Q242.42-3.50 242.42-2.30L242.42-2.30L242.42-2.30Q242.42-1.10 241.57-0.25L241.57-0.25L241.57-0.25Q240.72 0.60 239.52 0.60L239.52 0.60L239.52 0.60Q238.33 0.60 237.47-0.25L237.47-0.25L237.47-0.25Q236.62-1.10 236.62-2.30L236.62-2.30L236.62-2.30Q236.62-3.50 237.45-4.30L237.45-4.30L237.45-4.30Q238.28-5.11 239.48-5.11" fill="#26a5b8" stroke="none" stroke-width="none" transform="translate(-119.98994755744934,14.918453619696876)" style="fill: rgb(38, 165, 184);"></path></g></g>
</g>
</g>
<style id="breath-9018745c-e7d4-4f21-9764-e8ff3d37fba9" data-anikit="">@keyframes breath-9018745c-e7d4-4f21-9764-e8ff3d37fba9
{
  0% {
    animation-timing-function: cubic-bezier(0.9647,0.2413,-0.0705,0.7911);
    transform: scale(0.9099999999999999);
  }
  51% {
    animation-timing-function: cubic-bezier(0.9226,0.2631,-0.0308,0.7628);
    transform: scale(1.02994);
  }
  100% {
    transform: scale(0.9099999999999999);
  }
}</style></svg>
