<svg width="24" height="24" viewBox="0 0 24 24" fill="none" xmlns="http://www.w3.org/2000/svg">
<path d="M6.75 9.75V7.5C6.75 6.70435 7.06607 5.94129 7.62868 5.37868C8.19129 4.81607 8.95435 4.5 9.75 4.5C10.5456 4.5 11.3087 4.81607 11.8713 5.37868C12.4339 5.94129 12.75 6.70435 12.75 7.5V9.75H14.25V7.5C14.25 5.01562 12.2344 3 9.75 3C7.26562 3 5.25 5.01562 5.25 7.5V9.75H6.75ZM12 16.5H10.5V15L19.5 6L21 7.5L12 16.5Z" fill="#A6A6A6"/>
<path d="M12.75 17.25H9.75V14.25L13.5 10.5H4.5C4.10254 10.5012 3.72169 10.6596 3.44064 10.9406C3.15959 11.2217 3.00117 11.6025 3 12V19.5C3.00117 19.8975 3.15959 20.2783 3.44064 20.5594C3.72169 20.8404 4.10254 20.9988 4.5 21H15C15.3975 20.9988 15.7783 20.8404 16.0594 20.5594C16.3404 20.2783 16.4988 19.8975 16.5 19.5V13.5L12.75 17.25Z" fill="#A6A6A6"/>
</svg>
