<svg width="100" height="100" viewBox="0 0 100 100" fill="none" xmlns="http://www.w3.org/2000/svg">
<rect width="100" height="100" rx="50" fill="#DDE0E4"/>
<g clip-path="url(#clip0_421:5296)">
<path d="M75.5093 51.125H53.6996L68.2244 66.5576C68.5082 66.8578 68.892 67.0266 69.2924 67.0273C69.6435 67.0273 69.9928 66.8955 70.2639 66.624C73.8209 63.0635 76.2676 58.2637 76.9854 52.8682C77.1086 51.9443 76.3871 51.125 75.5093 51.125ZM69.2676 63.2461L60.8007 54.25H73.7492C73.0029 57.5859 71.4551 60.6953 69.2676 63.2461ZM47.5875 51.125V27.9521C47.5875 27.0898 46.9275 26.3691 46.1408 26.3691C46.0774 26.3691 46.0121 26.374 45.9468 26.3838C34.9946 28.0283 26.6224 38.1953 27.0121 50.3799C27.4101 62.7979 37.4018 73 49.07 73C49.1601 73 49.2474 72.999 49.3375 72.998C53.9698 72.9365 58.2501 71.3506 61.7694 68.6982C62.4955 68.1514 62.5433 67.0156 61.9137 66.3467L47.5875 51.125ZM49.2998 69.873L49.0691 69.875C39.047 69.875 30.2915 60.8984 29.9514 50.2734C29.6389 40.4951 35.8531 32.0088 44.6463 29.8193V52.4189L45.5075 53.334L58.5443 67.1855C55.7354 68.9062 52.5737 69.8301 49.2998 69.873ZM74.0544 44.7969C73.297 33.1309 64.5231 23.8086 53.5433 23.0039C53.5112 23.001 53.479 23 53.4478 23C52.6518 23 51.9992 23.7275 51.9992 24.585V46.4375H72.5663C73.4064 46.4375 74.1123 45.6875 74.0544 44.7969ZM54.9404 43.3125V26.3105C63.1435 27.6592 69.672 34.5967 70.9422 43.3125H54.9404Z" fill="#26A5B8"/>
</g>
<defs>
<clipPath id="clip0_421:5296">
<rect width="50" height="50" fill="white" transform="translate(27 23)"/>
</clipPath>
</defs>
</svg>
