<svg width="20" height="20" viewBox="0 0 24 24" fill="none" xmlns="http://www.w3.org/2000/svg">
<path d="M2.62039 14.6199C1.17535 14.6199 0 13.4451 0 11.9999C0 10.5554 1.17535 9.37988 2.62039 9.37988C4.06543 9.37988 5.24078 10.5554 5.24078 11.9999C5.24071 13.4451 4.06543 14.6199 2.62039 14.6199Z" fill="black"/>
<path d="M11.8528 14.6199C10.4078 14.6199 9.23242 13.4451 9.23242 11.9999C9.23242 10.5554 10.4078 9.37988 11.8528 9.37988C13.2976 9.37988 14.4732 10.5554 14.4732 11.9999C14.4731 13.4451 13.2976 14.6199 11.8528 14.6199Z" fill="black"/>
<path d="M21.3797 14.6199C19.9349 14.6199 18.7593 13.4451 18.7593 11.9999C18.7593 10.5554 19.9348 9.37988 21.3797 9.37988C22.8245 9.37988 24.0001 10.5554 24.0001 11.9999C24.0001 13.4451 22.8245 14.6199 21.3797 14.6199Z" fill="black"/>
</svg>
