<svg width="37" height="39" viewBox="0 0 37 39" fill="none" xmlns="http://www.w3.org/2000/svg">
<path d="M22.4243 19.4159L34.2828 7.22321L36.7282 4.70882C37.089 4.3379 37.089 3.73516 36.7282 3.36425L34.1116 0.673908C33.7509 0.302991 33.1647 0.302991 32.8039 0.673908L18.5 15.381L4.19602 0.672719C3.83527 0.301802 3.24906 0.301802 2.88831 0.672719L0.270562 3.36306C-0.0901873 3.73398 -0.0901873 4.33672 0.270562 4.70763L14.5757 19.4159L0.270562 34.123C-0.0901873 34.4939 -0.0901873 35.0967 0.270562 35.4676L2.88715 38.1579C3.2479 38.5289 3.83412 38.5289 4.19487 38.1579L18.5 23.4508L30.3584 35.6436L32.8039 38.1579C33.1647 38.5289 33.7509 38.5289 34.1116 38.1579L36.7282 35.4676C37.089 35.0967 37.089 34.4939 36.7282 34.123L22.4243 19.4159Z" fill="white"/>
</svg>
