<svg width="30" height="30" viewBox="0 0 30 30" fill="none" xmlns="http://www.w3.org/2000/svg">
<g clip-path="url(#clip0_1227_2)">
<path d="M25.0763 4.92375C22.4978 2.34525 18.9353 0.75 15 0.75V15L25.0763 4.92375Z" fill="#B53838"/>
<path d="M29.25 15.0001C29.25 11.3528 27.8588 7.70633 25.0763 4.92383L15 15.0001H29.25Z" fill="#B86E3E"/>
<path d="M25.0763 25.0763C27.6548 22.4978 29.25 18.9353 29.25 15H15L25.0763 25.0763Z" fill="#B88F28"/>
<path d="M15 29.25C18.6472 29.25 22.2938 27.8588 25.0763 25.0763L15 15V29.25Z" fill="#51966C"/>
<path d="M4.92188 25.0763C7.50038 27.6548 11.0629 29.25 14.9981 29.25V15L4.92188 25.0763Z" fill="#5682BA"/>
<path d="M0.75 15C0.75 18.6472 2.14125 22.2938 4.92375 25.0763L15 15H0.75Z" fill="#4965A8"/>
<path d="M4.92375 4.92383C2.34525 7.50233 0.75 11.0648 0.75 15.0001H15L4.92375 4.92383Z" fill="#7E5D9E"/>
<path d="M14.9981 0.75C11.3509 0.75 7.70438 2.14125 4.92188 4.92375L14.9981 15V0.75Z" fill="#914683"/>
<path d="M24.546 5.454C22.1033 3.01125 18.7283 1.5 15 1.5V15L24.546 5.454Z" fill="#EB8D8D"/>
<path d="M28.5 15.0001C28.5 11.5449 27.1823 8.09035 24.546 5.4541L15 15.0001H28.5Z" fill="#F0A371"/>
<path d="M24.546 24.546C26.9888 22.1033 28.5 18.7283 28.5 15H15L24.546 24.546Z" fill="#F2DC7E"/>
<path d="M15 28.5C18.4552 28.5 21.9098 27.1823 24.546 24.546L15 15V28.5Z" fill="#96D69B"/>
<path d="M5.45312 24.546C7.89587 26.9888 11.2709 28.5 14.9991 28.5V15L5.45312 24.546Z" fill="#80B1F2"/>
<path d="M1.5 15C1.5 18.4552 2.81775 21.9098 5.454 24.546L15 15H1.5Z" fill="#7D91E8"/>
<path d="M5.454 5.4541C3.01125 7.89685 1.5 11.2719 1.5 15.0001H15L5.454 5.4541Z" fill="#C185E6"/>
<path d="M14.9991 1.5C11.5439 1.5 8.08938 2.81775 5.45312 5.454L14.9991 15V1.5Z" fill="#DB84E0"/>
</g>
<defs>
<clipPath id="clip0_1227_2">
<rect width="30" height="30" fill="white"/>
</clipPath>
</defs>
</svg>
