<svg width="24" height="24" viewBox="0 0 24 24" fill="none" xmlns="http://www.w3.org/2000/svg">
<path d="M1.9 3.5H22.1C22.8732 3.5 23.5 4.1268 23.5 4.9V19.1C23.5 19.8732 22.8732 20.5 22.1 20.5H1.9C1.1268 20.5 0.5 19.8732 0.5 19.1V4.9C0.5 4.1268 1.1268 3.5 1.9 3.5Z"  stroke="black"/>
<path d="M21 8V7L18 9L15 7V8L18 10L21 8ZM22 3H2C0.9 3 0 3.9 0 5V19C0 20.1 0.9 21 2 21H22C23.1 21 23.99 20.1 23.99 19L24 5C24 3.9 23.1 3 22 3ZM8 6C9.66 6 11 7.34 11 9C11 10.66 9.66 12 8 12C6.34 12 5 10.66 5 9C5 7.34 6.34 6 8 6ZM14 18H2V17C2 15 6 13.9 8 13.9C10 13.9 14 15 14 17V18ZM22 12H14V6H22V12Z" fill="black"/>
</svg>
