<svg width="24" height="24" viewBox="0 0 24 24" fill="none" xmlns="http://www.w3.org/2000/svg">
<path d="M9.69187 10.2896C9.14558 10.6209 8.94572 11.3497 9.01234 12.8403L9.05231 13.9169L9.85176 14.3144C10.5313 14.6623 10.8777 14.7285 12.0502 14.7285C13.2227 14.7285 13.5692 14.6623 14.2487 14.3144L15.0481 13.9169L15.0881 12.8403C15.1547 11.3 14.9416 10.5546 14.3819 10.2565C14.1288 10.124 13.889 10.0246 13.8357 10.0246C13.7957 10.0246 13.3693 10.4884 12.903 11.0515L12.0502 12.0619L11.1975 11.0515C10.7311 10.4884 10.2915 10.0246 10.2248 10.0246C10.1715 10.0246 9.91838 10.1571 9.69187 10.2896Z" fill="#A6A6A6"/>
<rect x="6" y="17.0801" width="8" height="0.904062" rx="0.452031" fill="#A6A6A6"/>
<path d="M13.7 8.61279C13.7 9.50351 12.9837 10.2256 12.1 10.2256C11.2163 10.2256 10.5 9.50351 10.5 8.61279C10.5 7.72207 11.2163 7 12.1 7C12.9837 7 13.7 7.72207 13.7 8.61279Z" fill="#A6A6A6"/>
<rect x="6" y="19.0957" width="5.09091" height="0.904062" rx="0.452031" fill="#A6A6A6"/>
<rect x="6" y="15.0635" width="10.9091" height="0.904062" rx="0.452031" fill="#A6A6A6"/>
<rect x="4.5" y="2.5" width="15" height="20" rx="0.5" stroke="#A6A6A6"/>
<rect x="4.72729" y="2.77734" width="14.5455" height="2.33333" fill="#A6A6A6"/>
</svg>
