<svg width="85" height="98" viewBox="0 0 85 98" fill="none" xmlns="http://www.w3.org/2000/svg">
<path d="M75.8929 12.25H66.7857V1.53125C66.7857 0.689062 66.1027 0 65.2679 0H62.2321C61.3973 0 60.7143 0.689062 60.7143 1.53125V12.25H24.2857V1.53125C24.2857 0.689062 23.6027 0 22.7679 0H19.7321C18.8973 0 18.2143 0.689062 18.2143 1.53125V12.25H9.10714C4.07924 12.25 0 16.3652 0 21.4375V88.8125C0 93.8848 4.07924 98 9.10714 98H75.8929C80.9208 98 85 93.8848 85 88.8125V21.4375C85 16.3652 80.9208 12.25 75.8929 12.25ZM78.9286 88.8125C78.9286 90.4969 77.5625 91.875 75.8929 91.875H9.10714C7.4375 91.875 6.07143 90.4969 6.07143 88.8125V36.75H78.9286V88.8125ZM78.9286 30.625H6.07143V21.4375C6.07143 19.7531 7.4375 18.375 9.10714 18.375H75.8929C77.5625 18.375 78.9286 19.7531 78.9286 21.4375V30.625ZM21.25 73.5H39.4643C41.1339 73.5 42.5 72.1219 42.5 70.4375V52.0625C42.5 50.3781 41.1339 49 39.4643 49H21.25C19.5804 49 18.2143 50.3781 18.2143 52.0625V70.4375C18.2143 72.1219 19.5804 73.5 21.25 73.5ZM24.2857 55.125H36.4286V67.375H24.2857V55.125Z" fill="#26A5B8"/>
</svg>
