<svg width="53" height="94" viewBox="0 0 53 94" fill="none" xmlns="http://www.w3.org/2000/svg">
<g clip-path="url(#clip0_911_4161)">
<path d="M38.9955 44.448L17.5931 38.3527C14.6854 37.5266 12.3299 35.1949 11.8698 32.2023C11.1521 27.5391 14.7774 23.5 19.3229 23.5H32.9042C35.8302 23.5 38.7011 24.418 41.075 26.0887C42.2528 26.9148 43.8354 26.7863 44.8476 25.7766L49.0618 21.5723C50.3132 20.3238 50.1844 18.2309 48.7858 17.1477C44.2403 13.641 38.7195 11.75 32.9042 11.75H32.3889V2.9375C32.3889 1.32187 31.0639 0 29.4445 0H23.5556C21.9361 0 20.6111 1.32187 20.6111 2.9375V11.75H20.151C11.0969 11.75 2.74202 17.5883 0.57049 26.3641C-1.9875 36.682 4.28785 46.7797 14.0045 49.552L35.407 55.6473C38.3146 56.4734 40.6701 58.8051 41.1302 61.7977C41.8479 66.4609 38.2226 70.5 33.6771 70.5H20.0958C17.1698 70.5 14.299 69.582 11.925 67.9113C10.7472 67.0852 9.16459 67.2137 8.15244 68.2234L3.9382 72.4277C2.68681 73.6762 2.81563 75.7691 4.21424 76.8523C8.74132 80.359 14.2622 82.25 20.0958 82.25H20.6111V91.0625C20.6111 92.6781 21.9361 94 23.5556 94H29.4445C31.0639 94 32.3889 92.6781 32.3889 91.0625V82.25H32.849C41.9031 82.25 50.258 76.4117 52.4295 67.6359C54.9875 57.318 48.7122 47.2203 38.9955 44.448V44.448Z" fill="#26A5B8"/>
</g>
<defs>
<clipPath id="clip0_911_4161">
<rect width="53" height="94" fill="white"/>
</clipPath>
</defs>
</svg>
