<svg width="241" height="241" viewBox="0 0 241 241" fill="none" xmlns="http://www.w3.org/2000/svg">
<path d="M164.298 63.5127C159.606 62.4362 154.063 67.1759 153.758 70.3731C186.357 99.1485 187.353 130.527 184.253 149.485L180.236 148.843C185.699 119.617 175.095 96.6903 159.381 81.6198C150.239 71.6745 136.727 63.352 127.778 58.9819C118.395 55.2544 110.025 52.8765 99.8704 53.4549C107.1 59.7852 106.94 73.3937 99.3884 81.9251C104.321 67.3044 98.328 57.5841 92.8653 52.6677C86.053 53.3264 71.1271 57.1021 65.6162 61.2794C65.6323 61.9863 65.9054 64.4124 66.4356 66.0351C70.3238 69.3127 72.9587 70.9515 78.9516 74.6629C75.5294 74.438 73.6978 73.8596 70.0185 73.1366C96.2714 114.123 156.682 89.0587 176.91 121.674C161.518 110.106 134.896 104.611 126.075 105.27C128.244 107.616 131.49 110.427 134.189 112.452C117.817 110.058 110.892 110.17 103.678 106.218C98.7296 103.969 96.5124 99.3574 88.7362 95.8067C78.0679 90.9706 64.347 80.6397 62.3386 60.0423C78.7266 50.8039 110.892 39.7822 164.298 63.5127Z" fill="#9CC0AC" stroke="#001010" stroke-width="0.0022078" stroke-linecap="square"/>
<path d="M160.972 146.61C157.63 146.288 150.111 146.288 148.536 145.903C160.345 143.814 168.427 139.492 175.577 128.583C176.091 135.765 169.584 141.356 160.972 146.61Z" fill="#9CC0AC" stroke="#001010" stroke-width="0.0022078" stroke-linecap="square"/>
<path d="M175.127 178.968C171.849 186.503 166.949 193.99 164.073 198.762C163.762 198.73 163.264 198.612 162.579 198.409C163.253 185.523 162.932 177.136 162.659 173.184C165.615 174.341 170.564 176.526 175.127 178.968Z" fill="#9CC0AC" stroke="#001010" stroke-width="0.0022078" stroke-linecap="square"/>
<path d="M220.242 156.7C219.278 165.328 208.079 181.491 198.022 192.384C185.699 183.579 160.345 170.228 132.791 162.195C104.224 154.965 85.4746 153.551 56.8117 159.029C71.4002 153.053 92.2869 144.361 143.154 145.903C170.564 146.128 193.089 150.546 220.242 156.7Z" fill="#18A2A6" stroke="#001010" stroke-width="0.0022078" stroke-linecap="square"/>
<path d="M181.409 206.121C164.121 193.878 98.3923 184.608 58.1453 202.876C96.3357 231.635 141.692 229.803 181.409 206.121Z" fill="#18A2A6" stroke="#001010" stroke-width="0.0022078" stroke-linecap="square"/>
<path d="M50.867 197.123C46.7861 194.986 35.5555 183.483 31.587 174.758C57.7918 168.765 99.2759 163.351 132.984 184.141C90.7284 179.289 70.388 183.242 50.867 197.123Z" fill="#18A2A6" stroke="#001010" stroke-width="0.0022078" stroke-linecap="square"/>
<path d="M25.9155 163.127C23.5216 157.857 18.2356 147.381 16.7736 130.27C25.1764 127.266 77.2646 118.654 113.672 133.114C81.0242 133.934 47.959 147.092 25.9155 163.127Z" fill="#C6C183" stroke="#001010" stroke-width="0.0022078" stroke-linecap="square"/>
<path d="M225.769 138.4C235.569 -8.54621 38.56 -27.6173 16.0667 115.922L22.4933 116.452C46.4487 -17.6078 225.592 0.16192 219.278 137.837L225.769 138.4Z" fill="#C6C183" stroke="#001010" stroke-width="0.0022078" stroke-linecap="square"/>
<path d="M81.6187 60.396C83.7555 60.396 85.4907 61.9063 85.4907 63.77C85.4907 65.6177 83.7555 67.1279 81.6187 67.1279C79.4818 67.1279 77.7466 65.6177 77.7466 63.77C77.7466 61.9063 79.4818 60.396 81.6187 60.396Z" fill="#9AC1AB" stroke="#001010" stroke-width="0.0022078" stroke-linecap="square"/>
</svg>
