<svg width="106" height="94" viewBox="0 0 106 94" fill="none" xmlns="http://www.w3.org/2000/svg">
<path d="M97.1667 52.875H80.2177L88.7014 44.4113C94.2406 38.8852 90.3208 29.375 82.4628 29.375H70.6851V8.8125C70.6851 3.94727 66.7285 0 61.8517 0H44.1851C39.3083 0 35.3517 3.94727 35.3517 8.8125V29.375H23.574C15.7344 29.375 11.7594 38.8668 17.3354 44.4113L25.8191 52.875H8.83333C3.9566 52.875 0 56.8223 0 61.6875V85.1875C0 90.0527 3.9566 94 8.83333 94H97.1667C102.043 94 106 90.0527 106 85.1875V61.6875C106 56.8223 102.043 52.875 97.1667 52.875ZM23.5556 38.1875H44.1667V8.8125H61.8333V38.1875H82.4444L53 67.5625L23.5556 38.1875ZM97.1667 85.1875H8.83333V61.6875H34.6156L46.7431 73.7863C50.2028 77.2379 55.7788 77.2195 59.2385 73.7863L71.366 61.6875H97.1667V85.1875ZM80.9722 73.4375C80.9722 70.9957 82.9413 69.0312 85.3889 69.0312C87.8365 69.0312 89.8056 70.9957 89.8056 73.4375C89.8056 75.8793 87.8365 77.8438 85.3889 77.8438C82.9413 77.8438 80.9722 75.8793 80.9722 73.4375Z" fill="#6685B4"/>
</svg>
