<svg width="300" height="400" viewBox="0 0 256 256" fill="none" xmlns="http://www.w3.org/2000/svg">
<style>
      .slide {
	animation: slide-right 0.5s cubic-bezier(1,-0.43, 0.68, 0.57) infinite alternate both;
}
@keyframes slide-right {
  0% {
    transform: translateY(0);
  }
  100% {
    transform: translateY(50px);
  }
}
</style>
<path d="M32.6387 123.961C32.6387 127.034 35.2238 129.526 38.4111 129.526H149.244C152.432 129.526 155.017 127.034 155.017 123.961V71.0962C155.017 68.0237 152.432 65.531 149.244 65.531H38.4111C35.2238 65.531 32.6387 68.0237 32.6387 71.0962V123.961Z" fill="#EA5440"/>
<path d="M62.8062 103.544H50.449C48.9114 103.544 47.665 102.297 47.665 100.76V80.2745C47.665 78.7368 48.9114 77.4905 50.449 77.4905H62.8062C67.5955 77.4905 71.4914 81.3864 71.4914 86.1758V94.8582C71.4914 99.6476 67.5927 103.544 62.8062 103.544ZM53.233 97.9727H62.8062C64.5231 97.9727 65.9207 96.5751 65.9207 94.8582V86.1758C65.9207 84.4589 64.5231 83.0613 62.8062 83.0613H53.233V97.9727Z" fill="white"/>
<path d="M50.449 117.57C48.9114 117.57 47.665 116.324 47.665 114.786V100.76C47.665 99.2219 48.9114 97.9756 50.449 97.9756C51.9867 97.9756 53.233 99.2219 53.233 100.76V114.786C53.233 116.324 51.9867 117.57 50.449 117.57Z" fill="white"/>
<path d="M96.8019 117.57H85.0525C83.5149 117.57 82.2686 116.324 82.2686 114.786V80.2745C82.2686 78.7368 83.5149 77.4905 85.0525 77.4905H96.8019C101.925 77.4905 106.095 81.6581 106.095 86.7835V108.28C106.095 113.402 101.927 117.57 96.8019 117.57ZM87.8365 111.999H96.8019C98.8549 111.999 100.524 110.33 100.524 108.277V86.7807C100.524 84.7277 98.8549 83.0585 96.8019 83.0585H87.8365V111.999Z" fill="white"/>
<path d="M120.287 117.57C118.749 117.57 117.503 116.324 117.503 114.786V80.2745C117.503 78.7368 118.749 77.4905 120.287 77.4905C121.825 77.4905 123.071 78.7368 123.071 80.2745V114.783C123.074 116.324 121.827 117.57 120.287 117.57Z" fill="white"/>
<path d="M138.543 83.0612H120.287C118.749 83.0612 117.503 81.8148 117.503 80.2772C117.503 78.7395 118.749 77.4932 120.287 77.4932H138.543C140.083 77.4932 141.327 78.7395 141.327 80.2772C141.329 81.8148 140.083 83.0612 138.543 83.0612Z" fill="white"/>
<path d="M132.244 100.314H120.287C118.749 100.314 117.503 99.0677 117.503 97.5301C117.503 95.9924 118.749 94.7461 120.287 94.7461H132.244C133.784 94.7461 135.028 95.9924 135.028 97.5301C135.028 99.0677 133.784 100.314 132.244 100.314Z" fill="white"/>
<path class="slide"  d="M168.265 215.643H155.454V169.978C155.454 167.892 153.824 166.2 151.813 166.2H117.218C115.207 166.2 113.577 167.892 113.577 169.978V215.643H100.766C98.3318 215.643 97.1135 218.586 98.8332 220.306L131.185 252.658C133.025 254.498 136.005 254.498 137.846 252.658L170.198 220.306C171.917 218.584 170.699 215.643 168.265 215.643Z" fill="#EA5440"/>
<path d="M218.452 56.7981H179.986C173.67 56.7981 168.53 51.6587 168.53 45.3401V6.87948C168.53 4.57162 170.401 2.70068 172.709 2.70068C175.017 2.70068 176.888 4.57162 176.888 6.87948V45.3401C176.888 47.0486 178.277 48.4405 179.986 48.4405H218.452C220.76 48.4405 222.631 50.3115 222.631 52.6193C222.631 54.9272 220.76 56.7981 218.452 56.7981Z" fill="#26A5B8"/>
<path d="M90.9428 238.338H57.8317C51.1238 238.338 45.665 232.879 45.665 226.171V143.615C45.665 141.307 47.536 139.436 49.8438 139.436C52.1517 139.436 54.0226 141.307 54.0226 143.615V226.174C54.0226 228.277 55.7311 229.986 57.8345 229.986H90.9456C93.2534 229.986 95.1244 231.857 95.1244 234.164C95.1216 236.467 93.2506 238.338 90.9428 238.338Z" fill="#26A5B8"/>
<path d="M211.198 238.338H177.204C174.897 238.338 173.026 236.467 173.026 234.159C173.026 231.851 174.897 229.98 177.204 229.98H211.201C213.301 229.98 215.01 228.272 215.01 226.168V55.9271C215.01 54.9076 214.612 53.9498 213.895 53.2328L172.096 11.4364C171.376 10.7194 170.418 10.3217 169.401 10.3217H57.8316C55.731 10.3217 54.0197 12.0302 54.0197 14.1336V51.4486C54.0197 53.7565 52.1488 55.6274 49.8409 55.6274C47.533 55.6274 45.6621 53.7565 45.6621 51.4486V14.1308C45.6649 7.42287 51.1237 1.96411 57.8316 1.96411H169.399C172.648 1.96411 175.7 3.23007 178.003 5.52673L219.799 47.3259C222.098 49.6225 223.362 52.6782 223.362 55.9299V226.174C223.362 232.879 217.906 238.338 211.198 238.338Z" fill="#26A5B8"/>
</svg>
