<svg width="50" height="50" viewBox="0 0 50 50" fill="none" xmlns="http://www.w3.org/2000/svg">
<g clip-path="url(#clip0_1302_113)">
<path d="M40.1681 0.456502C39.8751 0.163579 39.4778 -0.000976562 39.0635 -0.000976562C38.6491 -0.000976562 38.2518 0.163579 37.9588 0.456502L32.8119 5.60338L44.3963 17.1878L49.5431 12.044C49.6887 11.8989 49.8041 11.7264 49.8829 11.5366C49.9616 11.3468 50.0022 11.1433 50.0022 10.9378C50.0022 10.7322 49.9616 10.5287 49.8829 10.3389C49.8041 10.1491 49.6887 9.97664 49.5431 9.8315L40.1681 0.456502V0.456502ZM42.1869 19.3971L30.6025 7.81275L10.29 28.1253H10.9369C11.3513 28.1253 11.7487 28.2899 12.0417 28.5829C12.3348 28.8759 12.4994 29.2734 12.4994 29.6878V31.2503H14.0619C14.4763 31.2503 14.8737 31.4149 15.1667 31.7079C15.4598 32.0009 15.6244 32.3984 15.6244 32.8128V34.3753H17.1869C17.6013 34.3753 17.9987 34.5399 18.2917 34.8329C18.5848 35.1259 18.7494 35.5234 18.7494 35.9378V37.5003H20.3119C20.7263 37.5003 21.1237 37.6649 21.4167 37.9579C21.7098 38.2509 21.8744 38.6484 21.8744 39.0628V39.7096L42.1869 19.3971V19.3971ZM18.8494 42.7346C18.7836 42.5598 18.7498 42.3746 18.7494 42.1878V40.6253H17.1869C16.7725 40.6253 16.3751 40.4606 16.082 40.1676C15.789 39.8746 15.6244 39.4772 15.6244 39.0628V37.5003H14.0619C13.6475 37.5003 13.2501 37.3356 12.957 37.0426C12.664 36.7496 12.4994 36.3522 12.4994 35.9378V34.3753H10.9369C10.5225 34.3753 10.1251 34.2106 9.83204 33.9176C9.53901 33.6246 9.37439 33.2272 9.37439 32.8128V31.2503H7.81189C7.62508 31.2499 7.43985 31.2161 7.26502 31.1503L6.70564 31.7065C6.55674 31.8565 6.4398 32.0351 6.36189 32.2315L0.111894 47.8565C-0.00176436 48.1405 -0.0295878 48.4515 0.031873 48.7511C0.0933338 49.0507 0.241376 49.3257 0.457646 49.542C0.673916 49.7583 0.948904 49.9063 1.24852 49.9678C1.54813 50.0292 1.85919 50.0014 2.14314 49.8878L17.7681 43.6378C17.9646 43.5598 18.1432 43.4429 18.2931 43.294L18.8494 42.7378V42.7346Z" fill="#26A5B8"/>
</g>
<defs>
<clipPath id="clip0_1302_113">
<rect width="50" height="50" fill="white"/>
</clipPath>
</defs>
</svg>
