
<svg width="24" height="24" viewBox="0 0 24 24" fill="none" xmlns="http://www.w3.org/2000/svg">
<g clip-path="url(#clip0_1111_2)">
<path d="M21.9998 19.0872C21.8187 17.3579 20.3775 16 18.6507 16C17.5707 16 16.5522 16.5415 15.9227 17.4324C15.7998 17.4109 15.6752 17.4004 15.5505 17.4004C14.5737 17.4004 13.7059 18.0644 13.4175 19.0059C12.6145 19.4821 12.1055 20.3705 12.1055 21.3229C12.1055 22.7992 13.2781 24 14.7194 24H19.2558C19.2823 24 19.308 23.9983 19.3282 23.9966C19.3539 23.9983 19.38 24 19.4069 24H21.2217C22.5796 24 23.6844 22.8686 23.6844 21.4783C23.684 20.3836 22.9926 19.4265 21.9998 19.0872ZM21.2213 23.1579L19.3888 23.1566L19.3105 23.1541L14.7189 23.1579C13.7421 23.1579 12.9472 22.3347 12.9472 21.3229C12.9472 20.6215 13.3463 19.9714 13.9648 19.6661L14.148 19.576L14.1909 19.376C14.3303 18.7192 14.9021 18.2425 15.5505 18.2425C15.6954 18.2425 15.8398 18.2665 15.9796 18.3137L16.3067 18.4236L16.4789 18.1242C16.94 17.3217 17.7518 16.8421 18.6507 16.8421C20.0255 16.8421 21.1581 17.9987 21.1766 19.4202L21.1813 19.7625L21.5177 19.8278C22.2848 19.9768 22.8423 20.6707 22.8423 21.4779C22.8419 22.4042 22.1147 23.1579 21.2213 23.1579Z" fill="black"/>
<path d="M11.6847 5.05261C11.4519 5.05261 11.2637 5.24082 11.2637 5.47366C11.2637 5.70651 11.4519 5.89472 11.6847 5.89472H19.2637C19.4965 5.89472 19.6847 5.70651 19.6847 5.47366C19.6847 5.24082 19.4965 5.05261 19.2637 5.05261H11.6847Z" fill="black"/>
<path d="M19.6847 11.3684C19.6847 11.1356 19.4965 10.9474 19.2637 10.9474H11.6847C11.4519 10.9474 11.2637 11.1356 11.2637 11.3684C11.2637 11.6013 11.4519 11.7895 11.6847 11.7895H19.2637C19.4965 11.7895 19.6847 11.6013 19.6847 11.3684Z" fill="black"/>
<path d="M8.9813 3.04887C8.8053 2.89771 8.53919 2.9175 8.38803 3.09434L5.7573 6.16297L4.14803 4.95623C3.96235 4.81729 3.69835 4.85392 3.55898 5.04045C3.41919 5.22613 3.45708 5.49013 3.64319 5.6295L5.56782 7.07329C5.64319 7.13013 5.73203 7.1575 5.82003 7.1575C5.93919 7.1575 6.05709 7.10739 6.14003 7.01013L9.02719 3.64171C9.17877 3.46571 9.15814 3.20045 8.9813 3.04887Z" fill="black"/>
<path d="M8.9813 8.94352C8.8053 8.79236 8.53919 8.81215 8.38803 8.98899L5.7573 12.0576L4.14803 10.8509C3.96235 10.7119 3.69835 10.7486 3.55898 10.9351C3.41919 11.1208 3.45708 11.3848 3.64319 11.5242L5.56782 12.9679C5.64319 13.0248 5.73203 13.0522 5.82003 13.0522C5.93919 13.0522 6.05709 13.002 6.14003 12.9048L9.02719 9.53636C9.17877 9.36036 9.15814 9.0951 8.9813 8.94352Z" fill="black"/>
<path d="M8.38803 15.3053L5.7573 18.3735L4.14803 17.1667C3.96235 17.0274 3.69835 17.0644 3.55898 17.251C3.41919 17.4366 3.45708 17.7006 3.64319 17.84L5.56782 19.2838C5.64319 19.3406 5.73203 19.368 5.82003 19.368C5.93919 19.368 6.05709 19.3179 6.14003 19.2206L9.02719 15.8526C9.17877 15.6762 9.15856 15.4105 8.98172 15.2594C8.8053 15.1082 8.53919 15.1284 8.38803 15.3053Z" fill="black"/>
<path d="M9.15851 21.8947H5.44314C3.0802 21.8947 1.15851 19.9731 1.15851 17.6101V5.12674C1.15851 2.76379 3.0802 0.842105 5.44314 0.842105H17.9265C20.2895 0.842105 22.2111 2.76379 22.2111 5.12674V15.192C22.2111 15.4248 22.3994 15.6131 22.6322 15.6131C22.865 15.6131 23.0532 15.4248 23.0532 15.192V5.12674C23.0532 2.29979 20.7535 0 17.9265 0H5.44314C2.6162 0 0.316406 2.29979 0.316406 5.12674V17.6101C0.316406 20.4371 2.6162 22.7368 5.44314 22.7368H9.15851C9.39135 22.7368 9.57956 22.5486 9.57956 22.3158C9.57956 22.0829 9.39135 21.8947 9.15851 21.8947Z" fill="black"/>
</g>
<defs>
<clipPath id="clip0_1111_2">
<rect width="24" height="24" fill="white"/>
</clipPath>
</defs>
</svg>
