<svg width="24" height="24" viewBox="0 0 24 24" fill="none" xmlns="http://www.w3.org/2000/svg">
<path d="M20.1685 7.04908C19.8842 5.70805 18.6523 5.50731 17.5589 5.4857C15.3956 5.44295 13.2674 5.16372 11.1239 4.98048C9.16735 4.81322 8.76428 5.12566 8.52829 7.05032C8.13648 10.2458 7.77025 13.4455 7.50367 16.6513C7.42409 17.6082 8.01565 18.3221 9.21165 18.4126C11.8793 18.6146 14.5427 18.8722 17.2131 19.033C18.4645 19.1083 19.0119 18.4274 19.1357 17.1299C19.4514 13.8207 19.8207 10.5157 20.1685 7.20908" stroke="#A6A6A6" stroke-linecap="round" stroke-linejoin="round"/>
<path d="M7.29889 4.96891C7.12498 4.96891 6.94796 4.94916 6.77761 4.97182C3.20297 5.44735 3.30345 5.57846 3.75022 8.97675C4.08413 11.5166 4.34873 14.0861 4.48373 16.6504C4.53664 17.6555 4.86387 18.2846 5.90759 18.5689" stroke="#A6A6A6" stroke-linecap="round" stroke-linejoin="round"/>
<path d="M13.1801 15.5909L12.6892 15.0184C10.9446 12.9919 9.79272 11.6551 9.97302 10.214C10.1199 9.0398 11.1598 8.23284 12.3364 8.38004C13.001 8.4632 13.6004 8.85182 13.9557 9.3919C14.4331 8.956 15.1097 8.72701 15.7744 8.81017C16.9509 8.95736 17.76 9.99563 17.6131 11.1699C17.4328 12.611 15.987 13.6227 13.7965 15.1608L13.1801 15.5909Z" fill="#26A5B8"/>
</svg>
