<svg width="60" height="54" viewBox="0 0 60 54" fill="none" xmlns="http://www.w3.org/2000/svg">
<g clip-path="url(#clip0_1302_128)">
<path d="M34.073 10C24.7012 10 16.5168 15.7052 11.9616 20.5865L2.86471 13.7063C1.60117 12.75 -0.285286 13.7688 0.0376304 15.2333L2.55638 26.6667L0.0365887 38.101C-0.286328 39.5656 1.60013 40.5833 2.86367 39.6281L11.9605 32.7479C16.5158 37.6281 24.7012 43.3333 34.073 43.3333C48.3918 43.3333 60.0001 30 60.0001 26.6667C60.0001 23.3333 48.3918 10 34.073 10ZM43.1803 29.1667C41.8001 29.1667 40.6803 28.0469 40.6803 26.6667C40.6803 25.2854 41.8001 24.1667 43.1803 24.1667C44.5616 24.1667 45.6803 25.2854 45.6803 26.6667C45.6803 28.0469 44.5605 29.1667 43.1803 29.1667Z" fill="#26A5B8"/>
</g>
<defs>
<clipPath id="clip0_1302_128">
<rect width="60" height="53.3333" fill="white"/>
</clipPath>
</defs>
</svg>
