<svg width="30" height="30" viewBox="0 0 30 30" fill="none" xmlns="http://www.w3.org/2000/svg">
<circle cx="15" cy="15" r="14" fill="white" stroke="#6685B4" stroke-width="2"/>
<g clip-path="url(#clip0_0_1)">
<path d="M16.2556 7.5C13.025 7.5 10.5212 9.96641 9.3687 11.3543L7.0912 9.15508C6.65651 8.73516 6.05214 8.69961 5.58433 9.06797C5.13714 9.4207 4.91839 10.0598 5.02776 10.6957L5.76995 15L5.02776 19.3043C4.91839 19.9402 5.13714 20.5793 5.58433 20.932C6.05214 21.3 6.65651 21.2641 7.0912 20.8453L9.3687 18.6457C10.5212 20.0336 13.025 22.5 16.2556 22.5C21.0653 22.5 25 16.8379 25 15C25 13.1621 21.0653 7.5 16.2556 7.5ZM16.2556 20.625C13.7184 20.625 11.3559 18.6293 9.99183 16.7613L9.52589 16.1242L6.62839 18.9223L7.30526 15L6.62839 11.0777L9.52589 13.8758L9.99183 13.2387C11.3562 11.3707 13.7184 9.375 16.2556 9.375C20.1687 9.375 23.3796 14.0578 23.5009 14.9687C23.3796 15.9426 20.1687 20.625 16.2556 20.625ZM19 13.75C18.4478 13.75 18 14.3098 18 15C18 15.6902 18.4478 16.25 19 16.25C19.5521 16.25 20 15.6902 20 15C20 14.3098 19.5521 13.75 19 13.75Z" fill="#6685B4"/>
</g>
<defs>
<clipPath id="clip0_0_1">
<rect width="20" height="20" fill="white" transform="translate(5 5)"/>
</clipPath>
</defs>
</svg>
