<svg width="82" height="82" viewBox="0 0 82 82" fill="none" xmlns="http://www.w3.org/2000/svg">
<circle cx="41" cy="41" r="41" fill="#F6F4F3"/>
<g clip-path="url(#clip0_0:1)">
<path d="M46.8274 24.25C38.2663 24.25 31.6313 29.4295 28.5772 32.344L22.5418 27.7257C21.3899 26.8438 19.7883 26.7692 18.5486 27.5427C17.3636 28.2835 16.7839 29.6255 17.0737 30.961L19.0405 40L17.0737 49.039C16.7839 50.3745 17.3636 51.7165 18.5486 52.4573C19.7883 53.23 21.3899 53.1545 22.5418 52.2752L28.5772 47.656C31.6313 50.5705 38.2663 55.75 46.8274 55.75C59.5731 55.75 70 43.8596 70 40C70 36.1404 59.5731 24.25 46.8274 24.25ZM46.8274 51.8125C40.1039 51.8125 33.8433 47.6215 30.2285 43.6988L28.9938 42.3609L21.3154 48.2368L23.1091 40L21.3154 31.7632L28.9938 37.6391L30.2285 36.3012C33.8441 32.3785 40.1039 28.1875 46.8274 28.1875C57.1972 28.1875 65.7062 38.0214 66.0275 39.9344C65.7062 41.9794 57.1972 51.8125 46.8274 51.8125ZM54.1 37.375C52.6367 37.375 51.45 38.5505 51.45 40C51.45 41.4495 52.6367 42.625 54.1 42.625C55.5633 42.625 56.75 41.4495 56.75 40C56.75 38.5505 55.5633 37.375 54.1 37.375Z" fill="#A7CFCF"/>
</g>
<defs>
<clipPath id="clip0_0:1">
<rect width="53" height="42" fill="white" transform="translate(17 19)"/>
</clipPath>
</defs>
</svg>
