<svg width="16" height="16" viewBox="0 0 16 16" fill="none" xmlns="http://www.w3.org/2000/svg">
<g clip-path="url(#clip0_1610_7)">
<path d="M7.64565 10.0094C7.7471 10.0986 7.87375 10.1433 8.00051 10.1433C8.12727 10.1433 8.25398 10.0986 8.35537 10.0094C8.48385 9.89619 11.501 7.20689 11.501 4.41782C11.501 2.48693 9.93075 0.916016 8.00056 0.916016C6.07032 0.916016 4.5 2.48693 4.5 4.41782C4.49989 7.20689 7.51717 9.89619 7.64565 10.0094ZM8.00051 3.50285C8.50163 3.50285 8.90799 3.91239 8.90799 4.41782C8.90799 4.92319 8.50163 5.33278 8.00051 5.33278C7.49923 5.33278 7.09292 4.92314 7.09292 4.41782C7.09292 3.91239 7.49923 3.50285 8.00051 3.50285Z" fill="#26A5B8"/>
<path d="M14.7258 10.0079L14.3203 8.58687C14.2544 8.35624 14.0437 8.19727 13.804 8.19727H10.91C10.8054 8.35279 10.695 8.50892 10.5783 8.6659C9.76714 9.75574 8.94252 10.4929 8.8511 10.5735C8.61567 10.7808 8.31329 10.895 7.99948 10.895C7.68589 10.895 7.38351 10.7809 7.14776 10.5734C7.05645 10.4929 6.23172 9.75563 5.42062 8.6659C5.30388 8.50892 5.19349 8.35274 5.08887 8.19727H2.19486C1.95513 8.19727 1.74443 8.35624 1.6786 8.58687L1.19531 10.2804L11.9983 12.2591L14.7258 10.0079Z" fill="#26A5B8"/>
<path d="M15.9788 14.4003L14.9428 10.7695L9.80273 15.0846H15.4626C15.631 15.0846 15.7897 15.0056 15.8911 14.8711C15.9925 14.7366 16.0249 14.5622 15.9788 14.4003Z" fill="#26A5B8"/>
<path d="M2.62855 11.3063L0.988683 11.0059L0.020599 14.3987C-0.0255695 14.5606 0.00680768 14.7349 0.108303 14.8694C0.209744 15.0039 0.368398 15.0829 0.536857 15.0829H2.62855V11.3063Z" fill="#26A5B8"/>
<path d="M3.38086 11.4453V15.0842H8.63486L11.2522 12.887L3.38086 11.4453Z" fill="#26A5B8"/>
</g>
<defs>
<clipPath id="clip0_1610_7">
<rect width="16" height="16" fill="white"/>
</clipPath>
</defs>
</svg>
