<svg width="16" height="16" viewBox="0 0 16 16" fill="none" xmlns="http://www.w3.org/2000/svg">
<g clip-path="url(#clip0_1714_14)">
<mask id="mask0_1714_14" style="mask-type:luminance" maskUnits="userSpaceOnUse" x="0" y="0" width="16" height="16">
<path d="M16 0H0V16H16V0Z" fill="white"/>
</mask>
<g mask="url(#mask0_1714_14)">
<path d="M7.64565 11.0934C7.7471 11.1826 7.87375 11.2273 8.00051 11.2273C8.12727 11.2273 8.25398 11.1826 8.35537 11.0934C8.48385 10.9802 11.501 8.29087 11.501 5.5018C11.501 3.57091 9.93075 2 8.00056 2C6.07032 2 4.5 3.57091 4.5 5.5018C4.49989 8.29087 7.51717 10.9802 7.64565 11.0934ZM8.00051 4.58683C8.50163 4.58683 8.90799 4.99637 8.90799 5.5018C8.90799 6.00717 8.50163 6.41676 8.00051 6.41676C7.49923 6.41676 7.09292 6.00712 7.09292 5.5018C7.09292 4.99637 7.49923 4.58683 8.00051 4.58683Z" fill="#26A5B8"/>
<path d="M14.7258 11.0919L14.3203 9.67085C14.2544 9.44022 14.0437 9.28125 13.804 9.28125H10.91C10.8054 9.43677 10.695 9.5929 10.5783 9.74988C9.76714 10.8397 8.94252 11.5769 8.8511 11.6575C8.61567 11.8648 8.31329 11.979 7.99948 11.979C7.68589 11.979 7.38351 11.8649 7.14776 11.6574C7.05645 11.5769 6.23172 10.8396 5.42062 9.74988C5.30388 9.5929 5.19349 9.43672 5.08887 9.28125H2.19486C1.95513 9.28125 1.74443 9.44022 1.6786 9.67085L1.19531 11.3644L11.9983 13.3431L14.7258 11.0919Z" fill="#26A5B8"/>
<path d="M15.9788 15.4843L14.9428 11.8535L9.80273 16.1686H15.4626C15.631 16.1686 15.7897 16.0896 15.8911 15.9551C15.9925 15.8206 16.0249 15.6462 15.9788 15.4843Z" fill="#26A5B8"/>
<path d="M2.62855 12.3902L0.988683 12.0898L0.020599 15.4826C-0.0255695 15.6445 0.00680766 15.8188 0.108303 15.9533C0.209744 16.0878 0.368398 16.1668 0.536857 16.1668H2.62855V12.3902Z" fill="#26A5B8"/>
<path d="M3.38086 12.5293V16.1682H8.63486L11.2522 13.971L3.38086 12.5293Z" fill="#26A5B8"/>
</g>
</g>
<defs>
<clipPath id="clip0_1714_14">
<rect width="16" height="16" fill="white"/>
</clipPath>
</defs>
</svg>
