<svg width="100" height="100" viewBox="0 0 100 100" fill="none" xmlns="http://www.w3.org/2000/svg">
<g clip-path="url(#clip0_1207_21)">
<path d="M100 50C100 22.3858 77.6142 0 50 0C22.3858 0 0 22.3858 0 50C0 77.6142 22.3858 100 50 100C77.6142 100 100 77.6142 100 50Z" fill="#DDE0E4"/>
<path d="M53.7669 32C44.0751 32 36.5637 37.8636 33.1063 41.163L26.2737 35.9348C24.9697 34.9364 23.1566 34.8519 21.7531 35.7276C20.4116 36.5662 19.7554 38.0855 20.0834 39.5974L22.31 49.8302L20.0834 60.063C19.7554 61.5749 20.4116 63.0941 21.7531 63.9328C23.1566 64.8075 24.9697 64.7221 26.2737 63.7266L33.1063 58.4973C36.5637 61.7968 44.0751 67.6604 53.7669 67.6604C68.196 67.6604 80 54.1995 80 49.8302C80 45.4608 68.196 32 53.7669 32ZM53.7669 63.2028C46.1554 63.2028 39.0679 58.4583 34.9757 54.0175L33.5779 52.5029L24.8854 59.1549L26.916 49.8302L24.8854 40.5055L33.5779 47.1575L34.9757 45.6429C39.0688 41.2021 46.1554 36.4575 53.7669 36.4575C65.5063 36.4575 75.1391 47.5903 75.5028 49.7559C75.1391 52.071 65.5063 63.2028 53.7669 63.2028ZM62 46.8585C60.3434 46.8585 59 48.1892 59 49.8302C59 51.4711 60.3434 52.8019 62 52.8019C63.6566 52.8019 65 51.4711 65 49.8302C65 48.1892 63.6566 46.8585 62 46.8585Z" fill="#26A5B8"/>
</g>
<defs>
<clipPath id="clip0_1207_21">
<rect width="100" height="100" fill="white"/>
</clipPath>
</defs>
</svg>
