<svg width="80" height="80" viewBox="0 0 80 80" fill="none" xmlns="http://www.w3.org/2000/svg">
<circle cx="40" cy="40" r="40" fill="#F6F4F3"/>
<path d="M22.65 36.9375C23.6587 36.9375 24.6447 36.6369 25.4834 36.0738C26.3221 35.5106 26.9758 34.7102 27.3618 33.7738C27.7478 32.8373 27.8488 31.8068 27.652 30.8127C27.4552 29.8185 26.9695 28.9053 26.2562 28.1886C25.543 27.4718 24.6343 26.9837 23.645 26.786C22.6557 26.5882 21.6302 26.6897 20.6983 27.0776C19.7664 27.4655 18.9699 28.1224 18.4095 28.9652C17.8491 29.808 17.55 30.7989 17.55 31.8125C17.5513 33.1713 18.089 34.4742 19.0452 35.435C20.0013 36.3959 21.2978 36.9362 22.65 36.9375ZM60.9 39.5H55.8C54.453 39.4985 53.1605 40.0342 52.2061 40.9895C53.8202 41.8722 55.2038 43.126 56.2438 44.6485C57.2839 46.171 57.951 47.9191 58.1906 49.75H63.45C64.1263 49.75 64.7749 49.48 65.2531 48.9995C65.7313 48.5189 66 47.8671 66 47.1875V44.625C65.9987 43.2662 65.461 41.9633 64.5048 41.0025C63.5487 40.0416 62.2522 39.5013 60.9 39.5ZM20.1 39.5C18.7478 39.5013 17.4513 40.0416 16.4952 41.0025C15.539 41.9633 15.0013 43.2662 15 44.625V47.1875C15 47.8671 15.2687 48.5189 15.7469 48.9995C16.2251 49.48 16.8737 49.75 17.55 49.75H22.8014C23.0442 47.919 23.7134 46.1715 24.7546 44.6493C25.7959 43.1271 27.1798 41.8732 28.7939 40.9895C27.8395 40.0342 26.547 39.4985 25.2 39.5H20.1ZM58.35 36.9375C59.3587 36.9375 60.3447 36.6369 61.1834 36.0738C62.0221 35.5106 62.6758 34.7102 63.0618 33.7738C63.4478 32.8373 63.5488 31.8068 63.352 30.8127C63.1552 29.8185 62.6695 28.9053 61.9562 28.1886C61.243 27.4718 60.3343 26.9837 59.345 26.786C58.3557 26.5882 57.3302 26.6897 56.3983 27.0776C55.4664 27.4655 54.6699 28.1224 54.1095 28.9652C53.5491 29.808 53.25 30.7989 53.25 31.8125C53.2513 33.1713 53.789 34.4742 54.7452 35.435C55.7013 36.3959 56.9978 36.9362 58.35 36.9375Z" fill="#6685B4"/>
<path d="M46.6199 42.0625H45.9585C44.2584 42.8976 42.3923 43.3356 40.5 43.3438C38.5396 43.3438 36.7068 42.8633 35.0414 42.0625H34.38C31.9455 42.0631 29.6109 43.0353 27.8894 44.7652C26.168 46.495 25.2006 48.8411 25.2 51.2875V53.5938C25.2 54.6132 25.6029 55.5909 26.3203 56.3117C27.0376 57.0325 28.0105 57.4375 29.025 57.4375H51.975C52.9894 57.4375 53.9623 57.0325 54.6796 56.3117C55.397 55.5909 55.7999 54.6132 55.7999 53.5938V51.2875C55.7993 48.8411 54.8319 46.495 53.1105 44.7652C51.389 43.0353 49.0544 42.0631 46.6199 42.0625ZM40.5 39.5C42.2652 39.5 43.9907 38.974 45.4584 37.9885C46.9261 37.003 48.0701 35.6023 48.7456 33.9634C49.4211 32.3246 49.5978 30.5213 49.2535 28.7815C48.9091 27.0418 48.0591 25.4437 46.8109 24.1894C45.5627 22.9351 43.9724 22.0809 42.2411 21.7348C40.5099 21.3888 38.7153 21.5664 37.0845 22.2452C35.4537 22.924 34.0598 24.0736 33.0791 25.5485C32.0984 27.0234 31.575 28.7574 31.575 30.5313C31.5743 31.7092 31.8047 32.8758 32.253 33.9642C32.7013 35.0526 33.3587 36.0416 34.1876 36.8745C35.0165 37.7075 36.0006 38.3681 37.0838 38.8186C38.1669 39.2691 39.3277 39.5006 40.5 39.5Z" fill="#6685B4"/>
</svg>
