<svg width="100" height="100" viewBox="0 0 100 100" fill="none" xmlns="http://www.w3.org/2000/svg">
<rect width="100" height="100" rx="50" fill="#DDE0E4"/>
<path d="M70.85 41.4375C75.0628 41.4375 78.475 38.0113 78.475 33.7812C78.475 29.5512 75.0628 26.125 70.85 26.125C66.6372 26.125 63.225 29.5512 63.225 33.7812C63.225 38.0113 66.6372 41.4375 70.85 41.4375ZM70.85 29.1875C73.3758 29.1875 75.425 31.2451 75.425 33.7812C75.425 36.3174 73.3758 38.375 70.85 38.375C68.3242 38.375 66.275 36.3174 66.275 33.7812C66.275 31.2451 68.3242 29.1875 70.85 29.1875ZM49.5 44.5C55.3998 44.5 60.175 39.7053 60.175 33.7812C60.175 27.8572 55.3998 23.0625 49.5 23.0625C43.6002 23.0625 38.825 27.8572 38.825 33.7812C38.825 39.7053 43.6002 44.5 49.5 44.5ZM49.5 26.125C53.7033 26.125 57.125 29.5607 57.125 33.7812C57.125 38.0018 53.7033 41.4375 49.5 41.4375C45.2967 41.4375 41.875 38.0018 41.875 33.7812C41.875 29.5607 45.2967 26.125 49.5 26.125ZM72.7562 44.5H68.9437C67.495 44.5 66.1511 44.9594 65.0264 45.7346C65.9223 46.3471 66.7325 47.0648 67.4473 47.8783C67.9144 47.6773 68.4195 47.5625 68.9437 47.5625H72.7562C75.0628 47.5625 76.95 49.6201 76.95 52.1562C76.95 52.9984 77.6362 53.6875 78.475 53.6875C79.3137 53.6875 80 52.9984 80 52.1562C80 47.9357 76.7498 44.5 72.7562 44.5ZM28.15 41.4375C32.3628 41.4375 35.775 38.0113 35.775 33.7812C35.775 29.5512 32.3628 26.125 28.15 26.125C23.9372 26.125 20.525 29.5512 20.525 33.7812C20.525 38.0113 23.9372 41.4375 28.15 41.4375ZM28.15 29.1875C30.6758 29.1875 32.725 31.2451 32.725 33.7812C32.725 36.3174 30.6758 38.375 28.15 38.375C25.6242 38.375 23.575 36.3174 23.575 33.7812C23.575 31.2451 25.6242 29.1875 28.15 29.1875ZM57.1345 46.4141C53.9511 46.4141 53.16 47.5625 49.5 47.5625C45.84 47.5625 45.0489 46.4141 41.8655 46.4141C38.4056 46.4141 35.0411 47.9645 33.0681 50.9025C31.8863 52.6635 31.2 54.7785 31.2 57.0563V61.3438C31.2 63.8799 33.2492 65.9375 35.775 65.9375H63.225C65.7508 65.9375 67.8 63.8799 67.8 61.3438V57.0563C67.8 54.7785 67.1137 52.6635 65.9319 50.9025C63.9589 47.9645 60.5944 46.4141 57.1345 46.4141ZM64.75 61.3438C64.75 62.1859 64.0637 62.875 63.225 62.875H35.775C34.9362 62.875 34.25 62.1859 34.25 61.3438V57.0563C34.25 55.4676 34.717 53.9268 35.5939 52.6156C36.9092 50.6537 39.2539 49.4766 41.8559 49.4766C44.4675 49.4766 45.4016 50.625 49.5 50.625C53.5984 50.625 54.5325 49.4766 57.1345 49.4766C59.7366 49.4766 62.0812 50.6537 63.3966 52.6156C64.2734 53.9268 64.7405 55.4676 64.7405 57.0563V61.3438H64.75ZM33.9736 45.7346C32.8394 44.9594 31.4955 44.5 30.0562 44.5H26.2438C22.2502 44.5 19 47.9357 19 52.1562C19 52.9984 19.6862 53.6875 20.525 53.6875C21.3637 53.6875 22.05 52.9984 22.05 52.1562C22.05 49.6201 23.9372 47.5625 26.2438 47.5625H30.0562C30.5805 47.5625 31.0856 47.6773 31.5527 47.8783C32.2675 47.0648 33.0872 46.3471 33.9736 45.7346Z" fill="#26A5B8"/>
</svg>
