<svg width="37" height="32" viewBox="0 0 37 32" fill="none" xmlns="http://www.w3.org/2000/svg">
<path d="M17.4383 3.77583L17.7315 4.06457C17.9361 4.26628 18.2119 4.37936 18.4992 4.37936C18.7866 4.37936 19.0624 4.26628 19.267 4.06457L19.5579 3.77583C21.3773 1.99277 23.8243 0.99588 26.3717 1.00001C27.636 1.00001 28.8872 1.245 30.0553 1.72186C31.2213 2.19603 32.2831 2.8938 33.1811 3.77583C34.0736 4.65517 34.7845 5.70075 35.2679 6.85132C35.7511 7.99938 36 9.23243 36 10.478C36 11.7236 35.7511 12.9567 35.2679 14.1048C34.7819 15.2569 34.0727 16.3014 33.1811 17.1781L19.2692 30.869C19.0646 31.0707 18.7888 31.1838 18.5014 31.1838C18.2141 31.1838 17.9383 31.0707 17.7336 30.869L3.82175 17.1781C2.9302 16.3045 2.22152 15.2622 1.73705 14.1118C1.25258 12.9615 1.00203 11.7262 1 10.478C1 7.96252 2.01496 5.552 3.82175 3.77583C5.63878 1.99469 8.08235 0.99794 10.6268 1.00001C13.1817 1.00001 15.6316 1.99747 17.4383 3.77583Z" fill="white" stroke="#6685B4"/>
<path d="M20.037 6C16.7257 6 14.1593 8.52121 12.978 9.93993L10.6435 7.69185C10.198 7.2626 9.5785 7.22626 9.099 7.60281C8.64063 7.96337 8.41641 8.61667 8.52852 9.2667L9.28926 13.6666L8.52852 18.0666C8.41641 18.7166 8.64063 19.3699 9.099 19.7304C9.5785 20.1066 10.198 20.0699 10.6435 19.6418L12.978 17.3933C14.1593 18.8121 16.7257 21.3333 20.037 21.3333C24.967 21.3333 29 15.5454 29 13.6666C29 11.7879 24.967 6 20.037 6ZM20.037 19.4166C17.4364 19.4166 15.0149 17.3766 13.6167 15.4671L13.1391 14.8158L10.1692 17.6761L10.863 13.6666L10.1692 9.65718L13.1391 12.5174L13.6167 11.8662C15.0152 9.95669 17.4364 7.91666 20.037 7.91666C24.048 7.91666 27.3391 12.7035 27.4635 13.6346C27.3391 14.6302 24.048 19.4166 20.037 19.4166ZM22.85 12.3889C22.284 12.3889 21.825 12.9611 21.825 13.6666C21.825 14.3722 22.284 14.9444 22.85 14.9444C23.4159 14.9444 23.875 14.3722 23.875 13.6666C23.875 12.9611 23.4159 12.3889 22.85 12.3889Z" fill="#6685B4"/>
</svg>
