<svg width="46" height="47" viewBox="0 0 46 47" fill="none" xmlns="http://www.w3.org/2000/svg">
<path d="M23 0.734375C10.2944 0.734375 0 10.9238 0 23.5C0 36.0762 10.2944 46.2656 23 46.2656C35.7056 46.2656 46 36.0762 46 23.5C46 10.9238 35.7056 0.734375 23 0.734375ZM23 43.3281C11.9544 43.3281 2.96774 34.433 2.96774 23.5C2.96774 12.567 11.9544 3.67188 23 3.67188C34.0456 3.67188 43.0323 12.567 43.0323 23.5C43.0323 34.433 34.0456 43.3281 23 43.3281ZM31.3653 29.9074C29.2879 32.3676 26.2367 33.7812 23 33.7812C19.7633 33.7812 16.7121 32.3676 14.6347 29.9074C14.106 29.2832 13.1694 29.2006 12.548 29.7238C11.9173 30.2471 11.8339 31.165 12.3625 31.7893C14.9964 34.9195 18.8823 36.7188 23 36.7188C27.1177 36.7188 31.0036 34.9195 33.6468 31.7801C34.1754 31.1559 34.0919 30.2287 33.4613 29.7146C32.8306 29.2006 31.894 29.2832 31.3653 29.9074ZM15.5806 22.0312C17.2222 22.0312 18.5484 20.7186 18.5484 19.0938C18.5484 17.4689 17.2222 16.1562 15.5806 16.1562C13.9391 16.1562 12.6129 17.4689 12.6129 19.0938C12.6129 20.7186 13.9391 22.0312 15.5806 22.0312ZM30.4194 22.0312C32.0609 22.0312 33.3871 20.7186 33.3871 19.0938C33.3871 17.4689 32.0609 16.1562 30.4194 16.1562C28.7778 16.1562 27.4516 17.4689 27.4516 19.0938C27.4516 20.7186 28.7778 22.0312 30.4194 22.0312Z" fill="#6685B4"/>
</svg>
