<svg width="23" height="20" viewBox="0 0 23 20" fill="none" xmlns="http://www.w3.org/2000/svg">
<g clip-path="url(#clip0_1234_4217)">
<path d="M22.7675 9.2293L20.426 7.20469V1.875C20.426 1.70924 20.3588 1.55027 20.2391 1.43306C20.1194 1.31585 19.957 1.25 19.7877 1.25H17.2344C17.0651 1.25 16.9027 1.31585 16.783 1.43306C16.6633 1.55027 16.596 1.70924 16.596 1.875V3.89336L12.557 0.402344C12.3064 0.180078 11.8289 0 11.4894 0C11.1498 0 10.6735 0.180078 10.4229 0.402344L0.20961 9.23047C0.147249 9.28535 0.0965419 9.35172 0.0603849 9.42579C0.024228 9.49986 0.00332966 9.58018 -0.00111619 9.66216C-0.00556204 9.74415 0.00653167 9.82618 0.0344741 9.90358C0.0624166 9.98099 0.10566 10.0522 0.161735 10.1133L1.01551 11.043C1.14299 11.1671 1.31274 11.2408 1.49226 11.25C1.64818 11.242 1.79749 11.1858 1.91875 11.0895L2.55309 10.5426V18.75C2.55309 19.0815 2.6876 19.3995 2.92702 19.6339C3.16644 19.8683 3.49117 20 3.82976 20H19.1494C19.488 20 19.8127 19.8683 20.0521 19.6339C20.2915 19.3995 20.426 19.0815 20.426 18.75V10.5418L21.0608 11.0887C21.1824 11.1852 21.3321 11.2417 21.4885 11.25C21.6671 11.2406 21.8358 11.1667 21.962 11.0426L22.8162 10.1125C22.9141 9.99344 22.9712 9.84719 22.9794 9.69453C22.9698 9.51917 22.8944 9.35345 22.7675 9.2293V9.2293ZM14.0427 11.6664C14.0422 11.8875 13.9522 12.0993 13.7925 12.2556C13.6327 12.4118 13.4163 12.4997 13.1905 12.5H9.7874C9.56177 12.4995 9.34552 12.4115 9.18597 12.2553C9.02642 12.0991 8.93655 11.8873 8.93603 11.6664V8.33281C8.93676 8.11202 9.02672 7.9005 9.18625 7.74445C9.34578 7.5884 9.5619 7.50051 9.7874 7.5H13.1905C13.4162 7.50031 13.6325 7.5881 13.7922 7.74417C13.9519 7.90024 14.042 8.11189 14.0427 8.33281V11.6664Z" fill="#F53838"/>
</g>
<defs>
<clipPath id="clip0_1234_4217">
<rect width="22.98" height="20" fill="white"/>
</clipPath>
</defs>
</svg>
