<svg width="23" height="20" viewBox="0 0 23 20" fill="none" xmlns="http://www.w3.org/2000/svg">
<path d="M22.7815 9.45131L20.4443 7.44935V1.87318C20.4443 1.70742 20.377 1.54845 20.2572 1.43124C20.1374 1.31403 19.9749 1.24818 19.8054 1.24818H15.9721C15.8027 1.24818 15.6402 1.31403 15.5204 1.43124C15.4005 1.54845 15.3332 1.70742 15.3332 1.87318V3.07435L11.9204 0.154432C11.8039 0.0548703 11.6545 0 11.4999 0C11.3452 0 11.1959 0.0548703 11.0794 0.154432L0.218307 9.45131C0.0907474 9.56045 0.0127327 9.71469 0.00142519 9.88011C-0.00988234 10.0455 0.0464435 10.2086 0.158012 10.3333C0.26958 10.4581 0.427252 10.5344 0.59634 10.5455C0.765429 10.5566 0.932085 10.5015 1.05964 10.3923L2.55544 9.11029V18.1232C2.55597 18.6203 2.75808 19.0969 3.11741 19.4484C3.47674 19.8 3.96394 19.9977 4.47211 19.9982H18.5277C19.0358 19.9977 19.523 19.8 19.8824 19.4484C20.2417 19.0969 20.4438 18.6203 20.4443 18.1232V9.11029L21.9401 10.3912C22.0684 10.4938 22.2324 10.5436 22.3976 10.5301C22.5627 10.5167 22.716 10.441 22.8252 10.3191C22.9344 10.1971 22.9908 10.0384 22.9827 9.87654C22.9745 9.71464 22.9024 9.56217 22.7815 9.45131ZM19.1666 18.1232C19.1666 18.2889 19.0992 18.4479 18.9794 18.5651C18.8596 18.6823 18.6971 18.7482 18.5277 18.7482H4.47211C4.30267 18.7482 4.14016 18.6823 4.02035 18.5651C3.90053 18.4479 3.83322 18.2889 3.83322 18.1232V8.01654L11.4999 1.45404L19.1666 8.01654V18.1232ZM19.1666 6.3556L16.611 4.1681V2.49818H19.1666V6.3556ZM8.30544 8.53998V12.7068C8.30639 12.9827 8.41885 13.247 8.61829 13.4421C8.81773 13.6372 9.08795 13.7473 9.36999 13.7482H13.6282C13.9105 13.7476 14.181 13.6377 14.3808 13.4426C14.5806 13.2475 14.6933 12.9829 14.6943 12.7068V8.53998C14.6935 8.26373 14.5809 7.99905 14.3811 7.80382C14.1813 7.60859 13.9106 7.4987 13.6282 7.49818H9.36999C9.08785 7.49901 8.8175 7.60905 8.61803 7.80425C8.41856 7.99946 8.30618 8.26397 8.30544 8.53998ZM9.58322 8.74818H13.4166V12.4982H9.58322V8.74818Z" fill="#6685B4"/>
</svg>
