<svg width="16" height="30.05" viewBox="0 0 115 92" fill="none" xmlns="http://www.w3.org/2000/svg">
<path d="M47.4567 28.1047C46.8256 26.7616 46.7538 25.2229 47.2571 23.8269C47.7605 22.4309 48.7978 21.2921 50.1408 20.6609C51.4839 20.0297 53.0226 19.9579 54.4186 20.4613C55.8146 20.9646 56.9535 22.0019 57.5846 23.345L75.0368 60.4805C75.668 61.8236 75.7398 63.3623 75.2364 64.7583C74.733 66.1543 73.6957 67.2931 72.3527 67.9243C71.0097 68.5555 69.4709 68.6273 68.0749 68.1239C66.6789 67.6205 65.5401 66.5832 64.9089 65.2402L64.5694 64.5177C55.3017 63.7583 46.4873 65.4195 37.93 68.4519L43.6 76.965C43.921 77.4096 44.1401 77.9195 44.2416 78.4585C44.3431 78.9974 44.3245 79.5521 44.1871 80.083C44.0497 80.6139 43.797 81.108 43.4469 81.5301C43.0968 81.9522 42.6579 82.292 42.1615 82.5251L40.3115 83.3945C39.6552 83.7029 38.9234 83.8133 38.2054 83.7122C37.4874 83.6112 36.8144 83.3031 36.2687 82.8256L24.4861 73.9786C24.2571 74.0818 24.0282 74.1852 23.7994 74.289C22.003 75.1116 19.955 75.1933 18.0987 74.5167C16.2425 73.84 14.7275 72.4593 13.8819 70.6737L10.7088 63.9218C9.87443 62.1307 9.77698 60.0835 10.4375 58.2212C11.098 56.359 12.4635 54.8306 14.24 53.9655C17.0175 52.6139 19.7724 51.2162 22.5035 49.7729C32.5322 44.4251 41.9119 37.1525 47.7947 28.8237L47.4567 28.1047ZM50.8327 26.5181L68.2849 63.6536C68.4953 64.1013 68.8749 64.4471 69.3402 64.6149C69.8055 64.7827 70.3185 64.7587 70.7661 64.5483C71.2138 64.3379 71.5596 63.9583 71.7274 63.493C71.8952 63.0277 71.8712 62.5148 71.6608 62.0671L54.2087 24.9315C53.9983 24.4839 53.6187 24.1381 53.1533 23.9703C52.688 23.8025 52.1751 23.8264 51.7274 24.0368C51.2797 24.2472 50.934 24.6268 50.7662 25.0922C50.5984 25.5575 50.6223 26.0704 50.8327 26.5181ZM49.5986 32.6622C43.5972 40.4491 34.9357 47.1451 25.8164 52.218L32.5323 66.5084C33.1559 66.2566 33.7792 66.0131 34.4023 65.778C43.3717 62.3418 52.7765 60.2094 62.7591 60.6658L49.5986 32.6622ZM29.0755 67.9228L22.523 53.9801C20.3205 55.1153 18.1063 56.2273 15.8806 57.3161C14.9834 57.7507 14.2926 58.52 13.9568 59.4586C13.621 60.3972 13.6669 61.4301 14.0848 62.3352L17.2579 69.0871C18.1305 70.9439 20.3601 71.7591 22.255 70.8974C24.512 69.8684 26.7858 68.8768 29.0755 67.9228ZM28.4044 72.2568L38.6547 79.9568L38.7265 80.0219L40.5765 79.1525L40.5476 79.1084L34.3463 69.7982C32.3548 70.5914 30.3735 71.4099 28.4028 72.2534L28.4044 72.2568Z" fill="#26A5B8"/>
<path d="M66.1544 33.2472C66.2398 32.334 66.519 31.4803 66.6815 30.6021C66.7304 30.3381 66.9429 30.4165 67.1158 30.4546C69.0744 30.8858 70.8492 31.7112 72.3798 33.0098C75.338 35.5193 76.829 38.7329 76.859 42.6091C76.8741 44.5707 76.3581 46.4145 75.5032 48.1713C75.371 48.4432 75.2242 48.5071 74.9432 48.3578C74.3239 48.029 73.6943 47.7182 73.0586 47.4221C72.7396 47.2735 72.6605 47.1327 72.8351 46.7803C73.9872 44.4544 74.2212 42.0214 73.381 39.5676C72.4489 36.8453 70.6281 34.8905 67.9177 33.8301C67.3505 33.6082 66.7564 33.4553 66.1544 33.2472Z" fill="#9CC0AC"/>
<path d="M69.9996 25.7915C70.1419 24.2695 70.6072 22.8468 70.8781 21.3831C70.9595 20.9431 71.3137 21.0737 71.6018 21.1371C74.8662 21.856 77.8242 23.2316 80.3753 25.3958C85.3056 29.5785 87.7904 34.9344 87.8405 41.3948C87.8658 44.6641 87.0056 47.7371 85.5809 50.6651C85.3605 51.1182 85.1159 51.2247 84.6474 50.976C83.6153 50.4278 82.5659 49.91 81.5065 49.4164C80.9749 49.1687 80.843 48.9341 81.134 48.3466C83.0541 44.4702 83.4441 40.4153 82.0439 36.3255C80.4904 31.7884 77.4557 28.5303 72.9383 26.7631C71.993 26.3933 71.0028 26.1384 69.9996 25.7915Z" fill="#9CC0AC"/>
<path d="M77.2692 13.902C77.4969 11.4668 78.2415 9.19039 78.6748 6.84845C78.8051 6.14453 79.3718 6.35348 79.8328 6.45498C85.0559 7.60507 89.7886 9.80616 93.8703 13.2689C101.759 19.9611 105.735 28.5306 105.815 38.8672C105.855 44.098 104.479 49.0149 102.199 53.6997C101.847 54.4246 101.455 54.5951 100.706 54.1971C99.0544 53.3201 97.3754 52.4915 95.6804 51.7017C94.8298 51.3054 94.6187 50.9301 95.0843 49.9902C98.1565 43.7879 98.7805 37.3 96.5401 30.7564C94.0545 23.497 89.199 18.2841 81.9712 15.4565C80.4588 14.8648 78.8745 14.4569 77.2692 13.902Z" fill="#9CC0AC"/>
</svg>
