<svg width="60" height="38" viewBox="0 0 60 38" fill="none" xmlns="http://www.w3.org/2000/svg">
<g clip-path="url(#clip0_1206_2)">
<path d="M35.8344 36.9678C35.4013 36.8366 35.0898 36.915 34.758 37.1842C33.9553 37.8353 32.9641 37.9529 32.0696 37.5911C30.8784 37.1093 29.795 37.2763 28.627 37.5959C27.2868 37.9627 25.1759 37.695 24.3872 35.8718C24.271 35.6033 24.0488 35.6115 23.81 35.592C22.9365 35.5205 22.0747 35.4305 21.3793 34.7833C20.8562 34.2964 20.6034 33.6926 20.4807 32.9971C19.9956 33.0082 19.5337 33.0884 19.0765 33.0066C17.8588 32.7888 16.7795 31.7327 16.5955 30.4427C16.4908 29.7086 16.3423 29.3276 15.4595 29.182C13.4853 28.8563 12.6864 27.0625 13.5632 25.1757C13.7579 24.757 13.6849 24.5443 13.3474 24.291C12.6628 23.7771 11.9981 23.2363 11.3315 22.6987C10.6912 22.1824 10.6143 21.9298 10.8941 21.1768C12.633 16.4975 14.3797 11.8211 16.1148 7.14047C16.3082 6.61889 16.6347 6.38615 17.1982 6.3822C19.466 6.36632 21.7166 6.62819 23.9735 6.77928C25.8793 6.90686 27.7849 6.99688 29.6928 6.91488C30.3899 6.88491 31.0511 6.61676 31.6833 6.32818C33.1076 5.67812 34.47 5.70965 35.8909 6.42361C38.2974 7.63283 40.7474 8.77972 43.3814 9.39763C44.2953 9.61201 44.7084 10.04 45.0012 10.8873C46.6313 15.6037 48.3042 20.3054 49.9961 25C50.2177 25.615 50.1073 26.041 49.6953 26.4936C49.1609 27.0808 48.5589 27.5766 47.8784 27.9754C47.5978 28.14 47.5038 28.2915 47.5701 28.6534C47.9598 30.7809 46.8478 32.1593 44.6866 32.2843C44.4737 32.2966 44.2292 32.2618 44.1909 32.5625C43.9956 34.0976 42.9153 34.7405 41.5954 35.132C41.2021 35.2487 40.7855 35.3509 40.3812 35.2561C39.9905 35.1645 39.7506 35.3032 39.499 35.5746C38.5242 36.626 37.2838 37.0167 35.8344 36.9678ZM32.4401 36.1802C32.8134 36.2208 33.2011 36.4102 33.5832 36.0593C32.6425 35.1539 31.6396 34.3236 31.0263 33.1591C31.6511 33.4948 32.211 33.9117 32.8181 34.2414C33.8313 34.7916 34.8184 35.4276 36.0333 35.4673C36.8622 35.4943 37.5986 35.3039 38.2702 34.6563C35.9508 32.9574 34.0126 30.9753 32.2847 28.6185C32.6266 28.6676 32.7557 28.8201 32.8998 28.9386C33.4236 29.3694 33.9336 29.8175 34.4661 30.2372C35.952 31.4084 37.4183 32.6141 39.1358 33.4432C40.188 33.9512 41.242 33.9635 42.2171 33.2328C42.8919 32.7272 42.8639 32.0898 42.193 31.605C39.675 29.7856 37.5715 27.5719 35.9402 24.9254C35.6193 24.4048 35.2682 23.88 35.149 23.2523C35.868 23.9574 36.5312 24.6993 37.2191 25.4176C38.8377 27.1078 40.4942 28.7585 42.4355 30.0879C43.252 30.647 44.1079 31.0188 45.1441 30.7231C46.1657 30.4316 46.5435 29.2808 45.81 28.5016C44.5867 27.2021 43.3125 25.95 42.1042 24.6371C41.007 23.4447 39.7971 22.5317 38.2384 21.9203C35.6504 20.9052 33.6667 19.1027 32.5725 16.4575C32.0588 15.2158 32.057 15.229 30.7327 15.2467C30.3943 15.2513 30.2099 15.3745 30.078 15.6699C29.7923 16.31 29.388 16.8771 28.9353 17.4084C27.6915 18.8679 26.1396 19.7285 24.1938 19.7331C22.7297 19.7365 21.8664 19.022 21.7534 17.7216C21.6977 17.0811 21.8802 16.4536 22.1115 15.8476C22.2953 15.3661 22.5021 14.8939 22.5916 14.3765C22.7946 13.2028 22.8295 12.0075 23.1001 10.8411C23.3404 9.80502 23.9102 9.07704 24.873 8.64144C24.9938 8.5868 25.1521 8.56868 25.2061 8.40746C24.9662 8.29784 24.7171 8.29958 24.4673 8.28376C23.6843 8.23419 22.9026 8.16511 22.1197 8.11438C20.7156 8.0234 19.3108 7.94225 17.9066 7.85225C17.6161 7.83364 17.4491 7.94138 17.3497 8.22841C17.1454 8.81803 16.9036 9.39451 16.6842 9.97904C15.2868 13.7028 13.8941 17.4284 12.4902 21.1497C12.3705 21.4671 12.4172 21.6644 12.6971 21.8711C13.2854 22.3057 13.8628 22.7587 14.4111 23.2422C14.6632 23.4645 14.8204 23.4624 15.096 23.2815C16.4354 22.4023 17.8979 22.4414 19.2003 23.3602C19.9483 23.888 20.2792 24.6373 20.2424 25.5266C20.2143 26.2031 20.1747 26.2015 20.8289 26.1913C22.3833 26.1671 23.4886 27.0874 23.7329 28.6052C23.7401 28.6499 23.7875 28.6882 23.8379 28.7608C24.7953 28.3259 25.7669 28.1579 26.6693 28.8501C27.6185 29.5781 27.4964 30.6135 27.3197 31.6561C29.9457 31.8391 30.3527 33.4244 29.7909 35.6165C30.3552 35.4678 30.7721 35.5944 31.1913 35.7676C31.5693 35.9238 31.9653 36.0362 32.4401 36.1802ZM32.198 7.73441C31.411 8.01937 30.6216 8.29262 29.8152 8.52358C28.4631 8.91086 27.1061 9.2842 25.8023 9.82931C24.9934 10.1675 24.5624 10.7345 24.4593 11.5954C24.3346 12.6358 24.1823 13.6729 24.0421 14.7115C23.9381 15.482 23.5279 16.1537 23.3368 16.8959C23.0711 17.9272 23.4131 18.342 24.474 18.2819C24.5274 18.2789 24.5817 18.28 24.634 18.2706C26.7215 17.8952 28.062 16.6203 28.8448 14.714C29.1379 14.0001 29.3134 13.809 30.094 13.7938C30.8969 13.7782 31.7004 13.7786 32.5033 13.7912C33.1353 13.8011 33.4007 14.0237 33.5557 14.6418C33.6553 15.0391 33.7518 15.4351 33.9121 15.8149C35.0753 18.5708 37.2914 20.1169 40.0038 21.054C41.1726 21.4579 42.3984 21.5703 43.6387 21.4158C43.8875 21.3848 44.1502 21.3411 44.4803 21.5059C43.7238 22.0408 42.9256 22.2383 42.0558 22.4103C42.2437 22.6344 42.3589 22.7908 42.493 22.9287C43.5009 23.9643 44.5107 24.9982 45.5235 26.029C46.5927 27.1172 46.7376 27.1179 47.8729 26.0573C47.9899 25.948 48.0938 25.8245 48.2017 25.7057C48.4492 25.4331 48.5142 25.1535 48.3779 24.7791C47.7928 23.1718 47.2445 21.5512 46.6734 19.9388C45.674 17.1173 44.6671 14.2985 43.6653 11.4778C43.5673 11.2017 43.4587 10.9726 43.1244 10.8848C40.3861 10.1657 37.8006 9.04446 35.2813 7.78001C34.25 7.26238 33.2925 7.17624 32.198 7.73441ZM18.7143 28.8412C18.4683 29.1615 18.0878 29.4047 18.0282 29.8346C17.9193 30.6202 18.7103 31.5689 19.5129 31.5526C20.4485 31.5337 21.3208 31.3158 21.7647 30.3344C21.9117 30.0095 22.0698 29.6926 22.1651 29.3458C22.422 28.4109 21.9157 27.7156 20.941 27.678C20.0095 27.642 19.3972 28.231 18.7143 28.8412ZM15.6257 27.7324C16.2037 27.9053 16.7953 27.8071 17.3814 27.8195C17.517 27.8223 17.6201 27.7606 17.6979 27.6512C18.0807 27.1122 18.4803 26.5773 18.661 25.9318C18.7716 25.5371 18.8311 25.1166 18.5284 24.7594C18.1061 24.2611 17.1455 24.0131 16.5078 24.2319C15.5594 24.5572 15.0483 25.3024 14.7571 26.1905C14.5219 26.9076 14.8214 27.4002 15.6257 27.7324ZM22.0112 33.0094C22.3263 33.8718 23.3213 34.3771 24.1711 34.1082C24.2963 34.0686 24.3934 33.9956 24.4631 33.8876C25.0428 32.988 25.6151 32.085 25.8906 31.0328C25.9831 30.6797 26.0742 30.3116 25.7432 30.046C25.4101 29.7788 25.0236 29.8727 24.6788 30.0364C23.8586 30.4259 23.1761 31.0008 22.6608 31.743C22.4056 32.1106 21.974 32.3977 22.0112 33.0094ZM27.8903 36.1343C28.2286 35.641 28.3562 35.0736 28.4878 34.5022C28.5908 34.0555 28.6072 33.6455 28.186 33.3604C27.8221 33.1141 27.1277 33.1657 26.7736 33.4558C26.3112 33.8346 26.0368 34.3638 25.7074 34.8474C25.5844 35.0278 25.6982 35.1919 25.786 35.3432C26.2475 36.1383 26.9796 36.2802 27.8903 36.1343Z" fill="#26A5B8"/>
<path d="M10.6477 19.0982C10.1828 20.3384 9.71707 21.5341 9.28416 22.7415C9.1362 23.1542 8.99314 23.2928 8.52067 23.1091C6.0466 22.1472 3.56067 21.2149 1.06704 20.3047C0.589005 20.1303 0.48652 19.9643 0.674449 19.4679C2.98376 13.3683 5.2687 7.25951 7.56129 1.1536C7.80505 0.504393 7.81251 0.496527 8.46114 0.737337C10.9666 1.66753 13.4677 2.60978 15.9759 3.53259C16.3573 3.67291 16.3411 3.87238 16.2221 4.18959C14.3631 9.14403 12.5124 14.1015 10.6477 19.0982ZM5.31781 19.1007C5.30826 19.2249 5.28384 19.35 5.29157 19.4731C5.34208 20.2768 5.72801 20.8672 6.47733 21.1646C7.22399 21.4609 7.92446 21.3272 8.49971 20.7552C9.05427 20.2037 9.21955 19.5407 8.94371 18.7922C8.66958 18.0483 7.96347 17.5669 7.16539 17.5721C6.28272 17.5778 5.66628 18.0665 5.31781 19.1007Z" fill="#26A5B8"/>
<path d="M53.982 6.56578C55.9517 12.1339 57.9043 17.6635 59.8593 23.1924C60.0958 23.8613 60.1 23.8548 59.4255 24.0919C56.9535 24.9606 54.478 25.82 52.0152 26.7139C51.5148 26.8955 51.3407 26.7607 51.176 26.2896C49.4241 21.2761 47.6496 16.2704 45.8863 11.2608C45.4603 10.0502 45.0572 8.8316 44.633 7.62038C44.5391 7.35233 44.4962 7.15721 44.8416 7.03632C47.5171 6.09979 50.1887 5.15202 52.8622 4.20986C52.9268 4.18711 53 4.18906 53.1296 4.17114C53.4084 4.95685 53.6871 5.74198 53.982 6.56578ZM54.1849 25.0156C54.335 24.9199 54.4965 24.838 54.6333 24.726C55.2959 24.1837 55.5127 23.3268 55.1915 22.5606C54.8927 21.8478 54.0647 21.2895 53.3736 21.3812C52.6043 21.4833 51.9756 21.8227 51.6927 22.601C51.4343 23.3121 51.5269 23.9791 52.0538 24.5407C52.6218 25.146 53.3192 25.2958 54.1849 25.0156Z" fill="#26A5B8"/>
</g>
<defs>
<clipPath id="clip0_1206_2">
<rect width="60" height="37.7143" fill="white"/>
</clipPath>
</defs>
</svg>
