<svg width="24" height="24" viewBox="0 0 24 24" fill="none" xmlns="http://www.w3.org/2000/svg">
<g clip-path="url(#clip0_966_5)">
<path d="M11.2031 0.046875C11.2835 0.046875 11.3639 0.046875 11.4681 0.0648824C11.6225 0.116411 11.7514 0.160299 11.8839 0.181864C13.3505 0.420563 14.6071 1.09152 15.6905 2.08325C16.4436 2.77266 17.0107 3.60557 17.4391 4.53872C18.0697 5.91229 18.2224 7.35187 18.0354 8.82746C17.8918 9.96023 17.5232 11.0359 17.0296 12.0673C16.581 13.0047 16.0722 13.9087 15.4354 14.7294C14.769 15.5882 14.0793 16.4303 13.3684 17.2526C12.9607 17.7241 12.4976 18.1488 12.0461 18.5806C11.8055 18.8107 11.5365 19.0111 11.2659 19.2211C9.99468 18.1481 8.8616 16.9601 7.83358 15.6703C7.63708 15.4237 7.42502 15.1896 7.21917 14.9331C6.69695 14.0722 6.12807 13.2528 5.66955 12.3757C5.30448 11.6774 5.02802 10.9227 4.79866 10.1667C4.61583 9.5642 4.50988 8.9256 4.46848 8.29652C4.42863 7.69078 4.50411 7.07588 4.54942 6.46652C4.6016 5.76454 4.83361 5.10497 5.12625 4.47507C5.61528 3.42245 6.30024 2.51149 7.20383 1.77008C8.11174 1.02515 9.12939 0.504759 10.2728 0.235668C10.5807 0.163218 10.8929 0.1093 11.2031 0.046875ZM14.8134 7.14785C14.8096 7.1016 14.8131 7.0533 14.8009 7.00941C14.635 6.41541 14.3432 5.90466 13.8676 5.49485C13.1827 4.90477 12.3899 4.68474 11.5199 4.84407C10.5672 5.01855 9.87714 5.57976 9.45251 6.45771C8.94732 7.50223 9.13737 8.7962 9.96677 9.65729C10.4188 10.1266 10.9714 10.4061 11.627 10.5111C12.2656 10.6134 12.8567 10.4929 13.3999 10.1894C14.1038 9.79622 14.6037 9.20135 14.7694 8.40017C14.85 8.00995 14.8056 7.59386 14.8134 7.14785Z" fill="#FF4A4A"/>
<path d="M12.8218 0.046875C13.1535 0.109529 13.4652 0.163724 13.7725 0.236347C14.9132 0.50586 15.9309 1.02066 16.8374 1.76507C17.7768 2.53648 18.4876 3.48263 18.9755 4.58767C19.2777 5.27195 19.4948 5.99187 19.5429 6.74547C19.5785 7.30301 19.6278 7.86736 19.579 8.42054C19.5262 9.01786 19.4225 9.62373 19.2397 10.1933C18.9893 10.9735 18.6965 11.7501 18.324 12.4782C17.9158 13.2763 17.3962 14.0175 16.925 14.7834C16.8972 14.8286 16.8676 14.8728 16.8173 14.938C15.9939 15.892 15.1921 16.8252 14.3759 17.7657C14.2563 17.8772 14.155 17.9861 14.0449 18.0853C13.4655 18.6077 12.8843 19.1281 12.3027 19.6481C12.1795 19.7582 12.0312 19.8439 11.8807 19.7343C11.6692 19.5803 11.4794 19.3962 11.2803 19.225C11.5365 19.0111 11.8055 18.8107 12.0461 18.5806C12.4976 18.1488 12.9607 17.7241 13.3684 17.2526C14.0793 16.4303 14.769 15.5882 15.4354 14.7294C16.0722 13.9087 16.581 13.0047 17.0296 12.0673C17.5232 11.0359 17.8918 9.96023 18.0354 8.82746C18.2224 7.35187 18.0696 5.91229 17.4391 4.53872C17.0107 3.60557 16.4436 2.77266 15.6905 2.08325C14.6071 1.09152 13.3505 0.420563 11.8839 0.181864C11.7514 0.160299 11.6225 0.116411 11.4882 0.0648824C11.9229 0.046875 12.3613 0.046875 12.8218 0.046875Z" fill="#E7353F"/>
<path d="M22.5469 24.0468C21.5615 24.0468 20.5762 24.0468 19.5637 24.034C19.5087 23.9986 19.4808 23.976 19.4448 23.9401C18.0866 22.7459 16.7365 21.5649 15.3391 20.3426C15.7402 20.3426 16.0669 20.3431 16.3936 20.3425C17.9301 20.3397 19.4667 20.3366 21.0145 20.3376C21.0332 20.3447 21.0406 20.3477 21.0552 20.3656C21.3984 21.1909 21.7377 22 22.0691 22.8123C22.2358 23.2208 22.3881 23.6351 22.5469 24.0468Z" fill="#A8EEFC"/>
<path d="M0.046875 23.5069C0.230317 23.0697 0.420277 22.6578 0.595664 22.2397C0.855297 21.6207 1.10459 20.9974 1.38263 20.3594C2.43285 20.3428 3.45872 20.3428 4.52369 20.3428C4.36858 20.7187 4.22606 21.0608 4.08606 21.404C3.73366 22.2679 3.38241 23.1322 3.02256 24.0026C3.00735 24.0207 3.00254 24.0334 3 24.047C2.01562 24.047 1.03124 24.047 0.046875 24.047C0.046875 23.871 0.046875 23.7002 0.046875 23.5069Z" fill="#A8EEFC"/>
<path d="M22.5688 24.0468C22.3881 23.6352 22.2358 23.2208 22.0691 22.8124C21.7377 22 21.3984 21.1909 21.0769 20.3627C21.6158 20.3416 22.1402 20.3383 22.6645 20.335C22.7186 20.4247 22.7848 20.5094 22.8249 20.605C23.225 21.5586 23.6207 22.514 24.0323 23.4766C24.0469 23.6699 24.0469 23.8556 24.0469 24.0468C23.5615 24.0468 23.0762 24.0468 22.5688 24.0468Z" fill="#7FE5F2"/>
<path d="M15.375 24.0469C12.2178 24.0469 9.06053 24.0469 5.88111 24.0347C5.85779 24.0145 5.85666 24.0065 5.86194 23.9885C5.8801 23.9683 5.89186 23.9581 5.91691 23.9628C5.99911 23.9852 6.06802 23.9991 6.13693 23.9991C9.11107 24.0002 12.0852 24.0004 15.0593 23.9981C15.1325 23.9981 15.2057 23.9696 15.291 23.958C15.3241 23.9753 15.3451 23.9891 15.3685 24.0139C15.3709 24.0248 15.375 24.0469 15.375 24.0469Z" fill="#5BE37D"/>
<path d="M15.397 24.047C15.375 24.047 15.3709 24.0249 15.3912 24.013C16.6704 24.0008 17.9291 24.0014 19.1879 23.9982C19.2763 23.9979 19.3646 23.9691 19.4529 23.9536C19.4808 23.9762 19.5087 23.9989 19.5417 24.0343C18.1709 24.047 16.7949 24.047 15.397 24.047Z" fill="#F2DE6F"/>
<path d="M5.85553 23.9985C5.85666 24.0066 5.8578 24.0146 5.85915 24.0348C4.92089 24.047 3.98241 24.047 3.02196 24.047C3.00253 24.0334 3.00735 24.0207 3.04593 24.0038C4.00347 23.9987 4.9295 23.9986 5.85553 23.9985Z" fill="#F1DE70"/>
<path d="M5.86196 23.9883C4.92952 23.9983 4.00349 23.9984 3.05408 23.9973C3.38242 23.1319 3.73368 22.2676 4.08608 21.4037C4.22607 21.0606 4.3686 20.7184 4.52371 20.3425C3.45873 20.3425 2.43286 20.3425 1.38547 20.3418C1.60369 19.7497 1.84293 19.1583 2.08341 18.5673C2.19077 18.3034 2.30062 18.0406 2.44562 17.7706C3.44815 17.7644 4.41444 17.7609 5.38061 17.7694C5.54063 17.7709 5.61277 17.7168 5.67131 17.5724C6.0251 16.7 6.38856 15.8316 6.74879 14.9618C6.89167 14.9592 7.03456 14.9565 7.1988 14.9517C7.42504 15.1894 7.63709 15.4235 7.83359 15.6701C8.86161 16.9599 9.99469 18.1479 11.2659 19.2209C11.4794 19.396 11.6692 19.5801 11.8808 19.7342C12.0312 19.8437 12.1796 19.758 12.3028 19.6479C12.8843 19.1279 13.4655 18.6075 14.0449 18.0851C14.155 17.9859 14.2563 17.877 14.3979 17.7681C16.2789 17.7616 18.1239 17.7596 19.969 17.7616C19.9692 17.7655 19.9671 17.773 19.97 17.7894C20.1086 18.1288 20.2476 18.4504 20.3794 18.775C20.5899 19.2934 20.7955 19.8139 21.0032 20.3334C19.4667 20.3364 17.9302 20.3396 16.3936 20.3424C16.0669 20.3429 15.7402 20.3424 15.3391 20.3424C16.7365 21.5648 18.0866 22.7457 19.4448 23.94C19.3646 23.9688 19.2763 23.9976 19.1879 23.9978C17.9292 24.0011 16.6704 24.0005 15.3889 24.0017C15.3451 23.9889 15.3242 23.9751 15.2829 23.9447C12.9519 21.9661 10.6412 20.0041 8.31712 18.0307C8.2843 18.0969 8.26515 18.1301 8.25077 18.1653C7.82635 19.2041 7.40096 20.2425 6.97883 21.2822C6.61844 22.1699 6.26189 23.0591 5.90364 23.9476C5.89188 23.9579 5.88013 23.9681 5.86196 23.9883Z" fill="#FFDB56"/>
<path d="M19.9688 17.7576C18.1239 17.7596 16.2789 17.7616 14.4121 17.761C15.1921 16.825 15.994 15.8917 16.8109 14.9527C17.4839 14.9496 18.1418 14.9524 18.822 14.9756C19.2191 15.9166 19.5939 16.8371 19.9688 17.7576Z" fill="#4CE166"/>
<path d="M19.969 17.7618C19.5939 16.8373 19.2191 15.9168 18.8438 14.9786C19.3037 14.9585 19.7641 14.958 20.2245 14.9527C20.411 14.9505 20.5088 15.0589 20.5724 15.213C20.9208 16.0561 21.2678 16.8997 21.592 17.7558C21.0348 17.7701 20.501 17.7717 19.9671 17.7732C19.9671 17.7732 19.9692 17.7657 19.969 17.7618Z" fill="#45C869"/>
<path d="M19.9699 17.7897C20.501 17.7718 21.0349 17.7702 21.5903 17.7744C21.9593 18.6205 22.3068 19.4609 22.6594 20.3181C22.1402 20.3384 21.6158 20.3418 21.0697 20.348C21.0406 20.3479 21.0332 20.3449 21.0145 20.3378C20.7955 19.8142 20.5899 19.2937 20.3794 18.7753C20.2476 18.4507 20.1086 18.1291 19.9699 17.7897Z" fill="#FFBB25"/>
<path d="M6.72692 14.9592C6.38854 15.8315 6.02507 16.7 5.67129 17.5724C5.61274 17.7167 5.54061 17.7708 5.38059 17.7694C4.41442 17.7609 3.44813 17.7644 2.46008 17.7613C2.68788 17.1367 2.93673 16.5142 3.18748 15.8926C3.27878 15.6663 3.37286 15.441 3.46899 15.2167C3.54058 15.0496 3.6493 14.9501 3.85264 14.9517C4.8034 14.9593 5.75425 14.956 6.72692 14.9592Z" fill="#4DE166"/>
<path d="M5.91693 23.9626C6.26189 23.0591 6.61844 22.1699 6.97883 21.2823C7.40096 20.2426 7.82635 19.2042 8.25077 18.1654C8.26515 18.1302 8.2843 18.097 8.31712 18.0308C10.6412 20.0042 12.9519 21.9662 15.2707 23.9412C15.2057 23.9695 15.1325 23.9979 15.0594 23.998C12.0852 24.0002 9.11109 24 6.13695 23.9989C6.06804 23.9989 5.99914 23.985 5.91693 23.9626Z" fill="#4DE166"/>
</g>
<defs>
<clipPath id="clip0_966_5">
<rect width="24" height="24" fill="white"/>
</clipPath>
</defs>
</svg>
