<svg width="14" height="12" viewBox="0 0 14 12" fill="none" xmlns="http://www.w3.org/2000/svg">
<path d="M5.60265 3.53537C5.51484 3.3485 5.50485 3.13442 5.57488 2.9402C5.64492 2.74597 5.78924 2.58753 5.97609 2.49971C6.16296 2.41189 6.37704 2.4019 6.57126 2.47194C6.76549 2.54196 6.92394 2.68628 7.01175 2.87315L9.43988 8.03983C9.5277 8.22669 9.53769 8.44077 9.46765 8.635C9.39761 8.82923 9.25329 8.98767 9.06644 9.07549C8.87959 9.16331 8.66549 9.1733 8.47127 9.10326C8.27704 9.03322 8.1186 8.8889 8.03078 8.70205L7.98355 8.60152C6.69413 8.49587 5.46778 8.72699 4.2772 9.14889L5.06607 10.3333C5.11073 10.3952 5.14121 10.4661 5.15533 10.5411C5.16945 10.6161 5.16687 10.6933 5.14775 10.7671C5.12863 10.841 5.09347 10.9097 5.04476 10.9685C4.99605 11.0272 4.93499 11.0745 4.86593 11.1069L4.60854 11.2279C4.51722 11.2708 4.41541 11.2861 4.31551 11.2721C4.21562 11.258 4.12198 11.2151 4.04606 11.1487L2.40674 9.91782C2.37488 9.93218 2.34303 9.94657 2.3112 9.96101C2.06127 10.0755 1.77633 10.0868 1.51806 9.99269C1.2598 9.89854 1.04902 9.70644 0.931373 9.45801L0.489899 8.51862C0.373813 8.26942 0.360254 7.98459 0.452153 7.72549C0.544048 7.4664 0.734031 7.25375 0.981196 7.13339C1.36763 6.94534 1.75092 6.75088 2.1309 6.55007C3.5262 5.80603 4.8312 4.79419 5.64968 3.6354L5.60265 3.53537ZM6.07235 3.31462L8.50049 8.4813C8.52976 8.54359 8.58257 8.5917 8.64731 8.61505C8.71205 8.63839 8.78342 8.63506 8.8457 8.60578C8.90799 8.57651 8.9561 8.52369 8.97944 8.45896C9.00279 8.39422 8.99945 8.32286 8.97018 8.26057L6.54206 3.09388C6.51279 3.0316 6.45997 2.98349 6.39522 2.96015C6.33048 2.9368 6.25912 2.94013 6.19683 2.9694C6.13455 2.99867 6.08645 3.05149 6.0631 3.11624C6.03976 3.18098 6.04308 3.25234 6.07235 3.31462ZM5.90065 4.16946C5.06568 5.25285 3.8606 6.18447 2.59183 6.89026L3.52621 8.87849C3.61297 8.84346 3.69969 8.80958 3.78639 8.77687C5.0343 8.29879 6.3428 8.00211 7.73168 8.06561L5.90065 4.16946ZM3.04527 9.07528L2.13361 7.13542C1.82718 7.29336 1.51912 7.44808 1.20945 7.59956C1.08463 7.66003 0.988514 7.76706 0.941794 7.89765C0.895074 8.02824 0.90146 8.17195 0.959603 8.29787L1.40108 9.23727C1.52248 9.4956 1.83269 9.60902 2.09633 9.48913C2.41034 9.34597 2.7267 9.20801 3.04527 9.07528ZM2.9519 9.67827L4.37802 10.7496L4.38801 10.7586L4.6454 10.6377L4.64138 10.6315L3.77859 9.3362C3.50152 9.44656 3.22586 9.56044 2.95167 9.6778L2.9519 9.67827Z" fill="#26A5B8"/>
<path d="M8.2041 4.2507C8.21598 4.12365 8.25483 4.00487 8.27744 3.88269C8.28424 3.84595 8.31381 3.85686 8.33786 3.86216C8.61036 3.92216 8.85729 4.03699 9.07024 4.21767C9.48182 4.56682 9.68926 5.01393 9.69344 5.55322C9.69554 5.82614 9.62375 6.08267 9.5048 6.3271C9.48641 6.36493 9.46599 6.37382 9.42689 6.35304C9.34073 6.3073 9.25313 6.26406 9.16469 6.22286C9.1203 6.20218 9.1093 6.18259 9.13359 6.13357C9.29388 5.80996 9.32644 5.47146 9.20954 5.13006C9.07986 4.7513 8.82653 4.47933 8.44943 4.3318C8.37052 4.30093 8.28786 4.27965 8.2041 4.2507Z" fill="#9CC0AC"/>
<path d="M8.73901 3.21324C8.75881 3.00148 8.82355 2.80354 8.86124 2.59989C8.87256 2.53868 8.92184 2.55685 8.96193 2.56567C9.41611 2.66569 9.82765 2.85708 10.1826 3.15818C10.8685 3.74012 11.2143 4.48529 11.2212 5.38413C11.2247 5.83899 11.1051 6.26654 10.9068 6.67391C10.8762 6.73695 10.8422 6.75177 10.777 6.71717C10.6334 6.6409 10.4874 6.56885 10.34 6.50018C10.266 6.46572 10.2477 6.43308 10.2881 6.35134C10.5553 5.81201 10.6096 5.24785 10.4147 4.67884C10.1986 4.04759 9.77638 3.59429 9.14788 3.34842C9.01636 3.29696 8.87859 3.2615 8.73901 3.21324Z" fill="#9CC0AC"/>
<path d="M9.75049 1.55915C9.78217 1.22034 9.88576 0.903623 9.94605 0.577788C9.96418 0.479851 10.043 0.508922 10.1072 0.523044C10.8339 0.683057 11.4923 0.989295 12.0602 1.47107C13.1578 2.40216 13.7109 3.59443 13.7221 5.03257C13.7276 5.76033 13.5362 6.44442 13.219 7.09622C13.17 7.19708 13.1155 7.2208 13.0113 7.16543C12.7815 7.04341 12.5479 6.92812 12.312 6.81824C12.1937 6.7631 12.1643 6.71089 12.2291 6.58012C12.6565 5.71719 12.7434 4.81452 12.4317 3.90411C12.0858 2.89411 11.4103 2.16883 10.4047 1.77543C10.1943 1.69311 9.97383 1.63635 9.75049 1.55915Z" fill="#9CC0AC"/>
</svg>
