<svg width="24" height="24" viewBox="0 0 24 24" fill="none" xmlns="http://www.w3.org/2000/svg">
<path d="M10.0641 0.645309C9.83936 0.717817 9.54208 0.84833 9.40432 0.935339C9.01277 1.17461 8.49072 1.77643 8.28045 2.23322C8.10643 2.61026 8.08468 2.74078 8.06293 3.66162C8.03392 4.86525 8.10643 5.04652 8.65749 5.25679C8.97652 5.38005 9.00552 5.38005 9.32456 5.25679C9.81761 5.06827 9.93362 4.83625 9.93362 3.98791C9.93362 3.46585 9.96987 3.22658 10.0714 2.99455C10.3107 2.4725 10.3397 2.46525 12.9572 2.46525C15.2629 2.46525 15.2629 2.46525 14.9656 2.60301C14.6176 2.76253 14.2043 3.16857 14.0158 3.53836C13.8925 3.79214 13.8853 4.20543 13.8635 11.3257L13.849 18.852H12.2466C10.7602 18.852 10.6224 18.8375 10.4049 18.7069C10.0134 18.4677 9.93362 18.1486 9.93362 16.8507C9.93362 15.5964 9.88287 15.4006 9.47682 15.1541C9.02003 14.8713 8.40371 15.0453 8.15719 15.5166C8.05568 15.7124 8.04117 15.9734 8.06293 17.2133L8.08468 18.6779L8.32395 19.1565C8.62123 19.7656 9.25205 20.3674 9.83936 20.5994C10.2309 20.7589 10.3759 20.7734 12.0581 20.7952L13.849 20.8169V21.5202C13.849 22.1075 13.878 22.2816 14.023 22.5933C14.3203 23.2387 15.0599 23.71 15.7632 23.71C16.0605 23.71 22.0351 21.7668 22.5209 21.513C22.6514 21.4477 22.869 21.2592 23.0067 21.0924C23.5215 20.4979 23.4925 21.1142 23.4925 11.1879C23.4925 5.13353 23.4708 2.13896 23.4128 1.93594C23.304 1.47915 22.9197 1.00785 22.4702 0.761321L22.0786 0.543798L16.278 0.529297C10.84 0.514795 10.4484 0.522046 10.0641 0.645309Z" fill="#A6A6A6"/>
<path d="M2 10L9.99996 9.99988" stroke="#A6A6A6" stroke-width="2.5" stroke-linecap="round" stroke-linejoin="round"/>
<path d="M12.3441 9.1175C13.0503 9.49389 13.0503 10.5061 12.3441 10.8825L5.72032 14.4126C5.05422 14.7676 4.25 14.2849 4.25 13.5301V6.46993C4.25 5.71515 5.05422 5.23245 5.72032 5.58744L12.3441 9.1175Z" fill="#A6A6A6"/>
</svg>
