<svg width="34" height="34" viewBox="0 0 34 34" fill="none" xmlns="http://www.w3.org/2000/svg">
<circle cx="17" cy="17" r="17" fill="#E4E6EB"/>
<path d="M21.476 12.1144V8.1496C21.476 7.516 20.9576 7 20.3264 7H6.1496C5.5184 7 5 7.516 5 8.1496V24.3928C5 24.8128 5.2496 25.216 5.612 25.408L14.348 29.9296C14.732 30.1192 15.1904 29.8528 15.1904 29.4112V25.0072H20.324C20.9576 25.0072 21.4736 24.4888 21.4736 23.8576V17.5744H19.1744V22.1344C19.1744 22.4608 18.9272 22.7104 18.6008 22.7104H15.212V12.9568C15.212 12.5368 14.9624 12.1336 14.5976 11.9416L9.4448 9.2968H18.6032C18.9296 9.2968 19.1768 9.5464 19.1768 9.8728V12.1336H21.476V12.1144Z" fill="black"/>
<path d="M24.4256 10.2348L28.1624 13.9716C28.64 14.4516 28.64 15.1596 28.1624 15.6372L24.4256 19.374C23.9456 19.8516 23.2184 19.8708 22.7384 19.3932C22.28 18.9324 22.3352 18.1668 22.7768 17.706L24.4616 16.0404H17.9312C17.6048 16.0404 17.2784 15.906 17.0696 15.6564C16.532 15.0828 16.6664 14.0652 17.3576 13.6836C17.5304 13.5876 17.7416 13.53 17.9336 13.53H24.464C24.464 13.53 22.7984 11.862 22.7792 11.862C22.3376 11.4228 22.2824 10.6356 22.7408 10.1964C23.1992 9.73799 23.9456 9.75719 24.4256 10.2348Z" fill="black"/>
</svg>
