<svg width="89" height="89" viewBox="0 0 89 89" fill="none" xmlns="http://www.w3.org/2000/svg">
<path d="M86.775 63.9688H80.1V16.6875C80.1 10.5514 76.1061 5.5625 71.2 5.5625H17.8C12.8939 5.5625 8.9 10.5514 8.9 16.6875V63.9688H2.225C0.995687 63.9688 0 65.2134 0 66.75V75.0938C0 82.7613 4.98956 89 11.125 89H77.875C84.0104 89 89 82.7613 89 75.0938V66.75C89 65.2134 88.0043 63.9688 86.775 63.9688ZM13.35 16.6875C13.35 13.616 15.3428 11.125 17.8 11.125H71.2C73.6572 11.125 75.65 13.616 75.65 16.6875V63.9688H54.3915C53.8269 63.9688 53.4153 64.5128 53.2901 65.2012C52.841 67.68 51.0679 69.5312 48.95 69.5312H40.05C37.9321 69.5312 36.159 67.68 35.7099 65.2012C35.5847 64.5128 35.1731 63.9688 34.6085 63.9688H13.35V16.6875ZM84.55 75.0938C84.55 79.695 81.556 83.4375 77.875 83.4375H11.125C7.44402 83.4375 4.45 79.695 4.45 75.0938V69.5312H31.5324C32.4488 72.7679 34.9228 75.0938 37.825 75.0938H51.175C54.0786 75.0938 56.5512 72.7679 57.4676 69.5312H84.55V75.0938Z" fill="#26A5B8"/>
</svg>
