<svg width="24" height="24" viewBox="0 0 24 24" fill="none" xmlns="http://www.w3.org/2000/svg">
<g clip-path="url(#clip0_831_2)">
<path d="M6.64727 2.37192H11.602C11.7613 2.37192 11.8879 2.24067 11.8879 2.08599C11.8879 1.9313 11.7566 1.80005 11.602 1.80005H6.64727C6.48789 1.80005 6.36133 1.9313 6.36133 2.08599C6.36133 2.24067 6.48789 2.37192 6.64727 2.37192Z" fill="black"/>
<path d="M6.42168 4.19065H11.5967C11.7561 4.19065 11.8826 4.0594 11.8826 3.90471C11.8826 3.74534 11.7514 3.61877 11.5967 3.61877H6.42168C6.2623 3.61877 6.13574 3.75002 6.13574 3.90471C6.13574 4.06409 6.2623 4.19065 6.42168 4.19065Z" fill="black"/>
<path d="M6.42168 6.01401H17.9764C18.1357 6.01401 18.2623 5.88276 18.2623 5.72808C18.2623 5.5687 18.1311 5.44214 17.9764 5.44214H6.42168C6.2623 5.44214 6.13574 5.57339 6.13574 5.72808C6.13574 5.88745 6.2623 6.01401 6.42168 6.01401Z" fill="black"/>
<path d="M17.9764 7.8375C18.1357 7.8375 18.2623 7.70625 18.2623 7.55156C18.2623 7.39688 18.1311 7.26562 17.9764 7.26562H6.42168C6.2623 7.26562 6.13574 7.39688 6.13574 7.55156C6.13574 7.70625 6.26699 7.8375 6.42168 7.8375H17.9764Z" fill="black"/>
<path d="M17.653 18.8532C17.7701 19.0172 17.9576 19.1157 18.1639 19.1157C18.2483 19.1157 18.3373 19.0969 18.417 19.0641L19.5092 18.5953C19.8233 18.4594 19.9733 18.0938 19.8373 17.775C19.8326 17.7657 19.8326 17.761 19.828 17.7516L19.4483 16.9547L19.3592 1.1016C19.3545 0.487533 18.8576 3.32057e-05 18.2436 3.32057e-05H6.10296C5.4889 -0.00465429 4.99202 0.487533 4.98734 1.1016V16.2563L4.18577 17.775C4.0264 18.075 4.1389 18.45 4.43421 18.6094L5.46546 19.186C5.55921 19.2375 5.66702 19.2657 5.77015 19.2657C5.83109 19.2657 5.88734 19.2563 5.95296 19.2422C6.11702 19.1953 6.25296 19.0828 6.33265 18.9328L6.44046 18.7219L6.81546 19.0266L6.16859 19.9313C5.84515 20.3766 5.94359 20.9953 6.3889 21.3235C6.56234 21.45 6.76859 21.5157 6.97484 21.5157C7.03109 21.5157 7.08734 21.511 7.14827 21.5016V21.5063C7.19046 21.7688 7.33577 22.0032 7.55609 22.1578C7.72484 22.275 7.93109 22.3453 8.13265 22.3453C8.1889 22.3453 8.24515 22.3407 8.30609 22.3313V22.336C8.38109 22.8188 8.80296 23.1703 9.29046 23.1703C9.34671 23.1703 9.40296 23.1657 9.4639 23.1563V23.161C9.5389 23.6438 9.96077 23.9953 10.4483 23.9953C10.767 23.9953 11.0717 23.8407 11.2592 23.5828L11.4655 23.2969L11.8545 23.6016C12.3045 23.9813 12.9701 23.925 13.3545 23.4891C13.4951 23.3297 13.5795 23.1375 13.6076 22.9313C14.0108 23.0485 14.442 22.9266 14.7233 22.6125C14.8639 22.4532 14.9483 22.261 14.9764 22.0547C15.3795 22.1719 15.8108 22.05 16.092 21.736C16.2233 21.586 16.3076 21.4078 16.3358 21.2157C16.7576 21.3797 17.2405 21.2578 17.5358 20.9203L17.5498 20.9063C17.9295 20.475 17.878 19.8188 17.4514 19.4438C17.4467 19.4391 17.4467 19.4391 17.442 19.4344L17.2076 19.2328C17.3717 19.125 17.5217 18.9938 17.653 18.8532ZM19.2983 18.0328C19.2936 18.0469 19.2842 18.0563 19.2701 18.061L18.178 18.5297C18.1498 18.5438 18.117 18.5297 18.103 18.5016L17.9623 18.211C17.953 18.1735 17.9342 18.136 17.9108 18.1032L15.4311 12.8907C15.4264 12.8766 15.4264 12.8625 15.4311 12.8532C15.4358 12.8391 15.4498 12.8297 15.4639 12.825L16.5842 12.3891C16.6123 12.3797 16.6405 12.3891 16.6545 12.4172L19.2936 17.9953C19.303 18.0047 19.303 18.0188 19.2983 18.0328ZM5.56859 1.1016C5.57327 0.810971 5.81234 0.576596 6.10765 0.576596H18.2483C18.5389 0.571908 18.7826 0.810971 18.7873 1.1016L18.8623 15.7219L17.1842 12.1688C17.0389 11.8735 16.692 11.7328 16.3873 11.8547L15.267 12.2907C14.9483 12.4172 14.7842 12.7782 14.9108 13.0969C14.9155 13.111 14.9201 13.125 14.9295 13.1391L15.042 13.3828L15.0092 13.3969C14.5826 13.4813 14.2826 13.4719 13.842 13.35L12.7217 13.0407C12.3936 12.9516 12.0373 12.9563 11.7139 13.0547L10.6311 13.3922C10.4155 13.4578 10.2139 13.5703 10.0405 13.711C9.75452 13.6266 9.45452 13.5985 9.15452 13.6266L9.22952 13.4766C9.38421 13.186 9.28109 12.8203 8.99984 12.6516L7.97327 12.0282C7.67796 11.8453 7.28421 11.9438 7.10609 12.2438C7.1014 12.2532 7.09671 12.2625 7.08734 12.2719L5.56859 15.1594V1.1016ZM5.83109 18.6703C5.8264 18.6844 5.81234 18.6938 5.79827 18.6985C5.78421 18.7032 5.76546 18.7032 5.75609 18.6938L4.72484 18.1172C4.7014 18.1032 4.69202 18.075 4.7014 18.0516L7.59827 12.5532C7.60296 12.5391 7.61702 12.5297 7.63109 12.525C7.63577 12.525 7.64046 12.525 7.64515 12.525C7.65452 12.525 7.6639 12.5297 7.67327 12.5344L8.69984 13.1578C8.72327 13.1719 8.73265 13.2 8.71859 13.2235L5.83109 18.6703ZM6.73109 20.8688C6.5389 20.7328 6.49671 20.4657 6.63265 20.2828C6.63265 20.2828 6.63265 20.2828 6.63265 20.2782L7.70609 18.8016C7.84671 18.6094 8.10921 18.5672 8.29671 18.7078C8.4889 18.8438 8.53109 19.111 8.39515 19.2938C8.39515 19.2938 8.39515 19.2938 8.39515 19.2985L8.10452 19.7016L7.3264 20.7703L7.32171 20.775C7.18577 20.9578 6.92327 21.0047 6.73109 20.8688ZM7.8889 21.6938C7.69671 21.5578 7.65452 21.2907 7.79046 21.1078C7.79046 21.1078 7.79046 21.1078 7.79046 21.1032L8.56859 20.0344C8.70921 19.8469 8.97171 19.8047 9.15921 19.9407C9.3514 20.0766 9.39359 20.3438 9.25765 20.5266C9.25765 20.5266 9.25765 20.5266 9.25765 20.5313L9.0139 20.8688L8.4889 21.5953L8.48421 21.6C8.34827 21.7875 8.08109 21.8297 7.8889 21.6938ZM9.0514 22.5235C8.85921 22.3875 8.81702 22.1203 8.95296 21.9375C8.95296 21.9375 8.95296 21.9375 8.95296 21.9328L9.48734 21.1969C9.62796 21.0047 9.89046 20.9625 10.078 21.1032C10.2701 21.2391 10.3123 21.5063 10.1764 21.6891C10.1764 21.6891 10.1764 21.6891 10.1764 21.6938L9.82484 22.1813L9.64671 22.425L9.64202 22.4297C9.50609 22.6125 9.24359 22.6547 9.0514 22.5235ZM10.7998 23.25C10.6592 23.4422 10.3967 23.4844 10.2092 23.3438C10.017 23.2078 9.97484 22.9407 10.1108 22.7578C10.1108 22.7578 10.1108 22.7578 10.1108 22.7532L10.4061 22.3453C10.5467 22.1532 10.8092 22.111 10.9967 22.2516C11.1889 22.3875 11.2311 22.6547 11.0951 22.8375C11.0951 22.8375 11.0951 22.8375 11.0951 22.8422L10.7998 23.25ZM17.1233 20.5313L17.1092 20.5453C16.9264 20.7516 16.617 20.775 16.4061 20.5969L15.9889 20.2407L14.878 19.2891C14.7608 19.186 14.578 19.1953 14.4701 19.3125C14.367 19.4297 14.3764 19.6125 14.4936 19.7203C14.4983 19.725 14.4983 19.725 14.503 19.7297L14.5076 19.7344L14.517 19.7438C14.6061 19.8188 15.1217 20.2594 15.6139 20.6813C15.8155 20.8547 15.8389 21.1594 15.6655 21.3657C15.6655 21.3657 15.6655 21.3703 15.6608 21.3703C15.478 21.5766 15.1686 21.6 14.9576 21.4219L13.8467 20.4657C13.7295 20.3625 13.5467 20.3766 13.4389 20.4985C13.3967 20.55 13.3733 20.611 13.3733 20.6813C13.3733 20.7657 13.4061 20.85 13.4717 20.9063L14.2358 21.5625C14.442 21.736 14.4655 22.0407 14.292 22.2469L14.2873 22.2516C14.1045 22.4578 13.7951 22.4813 13.5842 22.3032L13.242 22.0078L12.8201 21.6516C12.6936 21.5532 12.5201 21.5719 12.417 21.6891C12.3233 21.8063 12.3326 21.9797 12.4451 22.0875L12.8108 22.3969L12.8623 22.4438C13.0686 22.6172 13.092 22.9219 12.9186 23.1282L12.9139 23.1328C12.7311 23.3391 12.4217 23.3625 12.2108 23.1844C12.2061 23.1844 12.2061 23.1797 12.2014 23.1797L11.7139 22.7907C11.8123 22.2516 11.4561 21.736 10.917 21.6328C10.8795 21.6235 10.842 21.6188 10.7998 21.6188C10.8936 21.0797 10.5326 20.5641 9.99359 20.4703C9.96077 20.4657 9.92327 20.461 9.89046 20.4563C9.98421 19.9172 9.62327 19.4016 9.08421 19.3078C9.06077 19.3032 9.04202 19.3032 9.01859 19.2985C9.15452 18.7641 8.8264 18.225 8.29202 18.0891C7.89359 17.9907 7.48109 18.1407 7.24202 18.4735L7.16234 18.586L6.7264 18.2297L8.81702 14.2922C9.07952 14.2219 9.3514 14.1985 9.62327 14.2313C9.59046 14.2875 9.56234 14.3485 9.53421 14.4141L9.20609 15.211C9.12171 15.4172 9.04202 15.6282 8.97171 15.8344L8.64359 16.8282C8.59671 16.9688 8.66234 17.1188 8.80296 17.1797L8.87327 17.2125C9.40765 17.4563 10.0311 17.4094 10.5233 17.086C10.9451 16.8094 11.2217 16.3594 11.2686 15.8578C11.2686 15.8438 11.2733 15.825 11.2733 15.811C11.2873 15.7407 11.3858 15.3235 11.667 15.2907L12.1264 15.4219C12.2998 15.4688 12.4498 15.5625 12.5811 15.6844L15.5248 18.5672C15.5295 18.5719 15.5342 18.5766 15.5389 18.5813L17.0811 19.9078C17.278 20.0766 17.3014 20.3672 17.1326 20.5594C17.128 20.5266 17.128 20.5313 17.1233 20.5313ZM15.9092 18.1172L12.9748 15.2391C12.778 15.0469 12.5389 14.911 12.2717 14.8313L11.7655 14.686C11.742 14.6766 11.7139 14.6766 11.6905 14.6766C11.3483 14.6766 11.053 14.8688 10.8701 15.211C10.7905 15.361 10.7295 15.5203 10.7014 15.6844C10.7014 15.6938 10.6967 15.7032 10.6967 15.7125C10.6967 15.7313 10.692 15.7453 10.692 15.7641C10.6592 16.0922 10.4764 16.3922 10.1998 16.5703C9.92327 16.7485 9.58577 16.8 9.27171 16.711L9.51546 15.9844C9.58109 15.7875 9.65609 15.5907 9.73109 15.4032L10.0592 14.611C10.1998 14.2922 10.467 14.0485 10.7998 13.9407L11.8826 13.6032C12.1076 13.5328 12.342 13.5328 12.567 13.5938L13.6873 13.9032C14.2311 14.0578 14.6155 14.0719 15.1545 13.9547C15.1733 13.95 15.1873 13.9453 15.2061 13.9407L15.2905 13.9078L17.3717 18.2766C17.217 18.511 17.0061 18.7078 16.7623 18.8438L15.9092 18.1172Z" fill="black"/>
<path d="M7.41138 11.3344C7.58013 11.4094 7.76294 11.4469 7.95044 11.4469C8.21763 11.4469 8.48013 11.3766 8.70982 11.2359C8.87388 11.1281 9.0145 10.9875 9.127 10.8234C9.14575 10.8 9.16919 10.7672 9.18794 10.7437C9.26294 10.8094 9.352 10.875 9.44107 10.9219C9.68013 11.0484 9.94263 11.1141 10.2098 11.1187C10.5286 11.1234 10.852 11.0437 11.1286 10.8797C11.2692 10.8047 11.3161 10.6266 11.2317 10.4859C11.1567 10.3453 10.9786 10.2984 10.8379 10.3828C10.8379 10.3828 10.8333 10.3828 10.8333 10.3875C10.6458 10.4953 10.4348 10.5562 10.2145 10.5516C10.0364 10.5516 9.86294 10.5047 9.70825 10.4203C9.64732 10.3875 9.59107 10.35 9.5395 10.3031C9.45044 10.2094 9.32857 10.1531 9.202 10.1437C8.92544 10.1344 8.77544 10.3359 8.66763 10.4812C8.59732 10.5844 8.50825 10.6781 8.40513 10.7484C8.19419 10.8844 7.86607 10.9125 7.65982 10.8094C7.59419 10.7766 7.52857 10.7297 7.477 10.6641C7.702 10.6312 7.91294 10.5375 8.09575 10.4016C8.26919 10.2609 8.40982 10.0875 8.50357 9.88593C8.63013 9.61875 8.62075 9.36562 8.49888 9.16875C8.39575 9.00468 8.20357 8.89218 7.95982 8.85468C7.64107 8.80312 7.28482 8.88281 7.05513 9.06093C6.80669 9.25781 6.66607 9.6 6.67075 9.99375H6.66607C6.52075 9.93281 6.352 9.99843 6.28638 10.1484C6.22544 10.2937 6.29107 10.4625 6.43638 10.5281C6.54888 10.575 6.67075 10.6172 6.79263 10.6406C6.92857 10.9641 7.14419 11.2078 7.41138 11.3344ZM7.41607 9.525C7.5145 9.45937 7.64107 9.42187 7.75825 9.42656C7.79107 9.42656 7.82857 9.43125 7.86138 9.43593C7.95982 9.45468 8.00669 9.4875 8.01138 9.49687C8.0395 9.54375 7.95044 9.79687 7.73482 9.96562C7.59419 10.0687 7.42544 10.1297 7.252 10.1297C7.22388 9.8625 7.2895 9.61875 7.41607 9.525Z" fill="black"/>
<path d="M17.9766 10.0593H13.6688C13.5094 10.0593 13.3828 10.1906 13.3828 10.3453C13.3828 10.5046 13.5141 10.6312 13.6688 10.6312H17.9766C18.1359 10.6312 18.2625 10.5 18.2625 10.3453C18.2625 10.1859 18.1359 10.0593 17.9766 10.0593Z" fill="black"/>
</g>
<defs>
<clipPath id="clip0_831_2">
<rect width="24" height="24" fill="white"/>
</clipPath>
</defs>
</svg>
