<svg width="24" height="24" viewBox="0 0 24 24" fill="none" xmlns="http://www.w3.org/2000/svg">
<path d="M16.716 5.61831V1.65351C16.716 1.01991 16.1976 0.503906 15.5664 0.503906H1.38959C0.75839 0.503906 0.23999 1.01991 0.23999 1.65351V17.8967C0.23999 18.3167 0.48959 18.7199 0.85199 18.9119L9.58799 23.4335C9.97199 23.6231 10.4304 23.3567 10.4304 22.9151V18.5111H15.564C16.1976 18.5111 16.7136 17.9927 16.7136 17.3615V11.0783H14.4144V15.6383C14.4144 15.9647 14.1672 16.2143 13.8408 16.2143H10.452V6.46071C10.452 6.04071 10.2024 5.63751 9.83759 5.44551L4.68479 2.80071H13.8432C14.1696 2.80071 14.4168 3.05031 14.4168 3.37671V5.63751H16.716V5.61831Z" fill="#A6A6A6"/>
<path d="M19.6656 3.7387L23.4024 7.4755C23.88 7.9555 23.88 8.6635 23.4024 9.1411L19.6656 12.8779C19.1856 13.3555 18.4584 13.3747 17.9784 12.8971C17.52 12.4363 17.5752 11.6707 18.0168 11.2099L19.7016 9.5443H13.1712C12.8448 9.5443 12.5184 9.4099 12.3096 9.1603C11.772 8.5867 11.9064 7.5691 12.5976 7.1875C12.7704 7.0915 12.9816 7.0339 13.1736 7.0339H19.704C19.704 7.0339 18.0384 5.3659 18.0192 5.3659C17.5776 4.9267 17.5224 4.1395 17.9808 3.7003C18.4392 3.2419 19.1856 3.2611 19.6656 3.7387Z" fill="#A6A6A6"/>
</svg>
