<svg width="104" height="123" viewBox="0 0 104 123" fill="none" xmlns="http://www.w3.org/2000/svg">
<g clip-path="url(#clip0_1331_6)">
<path fill-rule="evenodd" clip-rule="evenodd" d="M17.16 0H99.88C101.7 0 103.19 1.49 103.19 3.31V95.63C103.04 98.21 99.71 98.27 96.11 98.11H15.94C10.96 98.11 6.89 102.18 6.89 107.16C6.89 112.14 10.96 116.21 15.94 116.21H96.11V106.58H103.19V118.82C103.19 121.05 101.37 122.87 99.14 122.87H16.29C7.33 122.88 0 115.55 0 106.59V17.16C0 7.72 7.72 0 17.16 0ZM54.53 14.05C74.58 14.05 90.83 30.3 90.83 50.35C90.83 70.4 74.58 86.65 54.53 86.65C34.48 86.65 18.23 70.4 18.23 50.35C18.23 30.3 34.48 14.05 54.53 14.05Z" fill="#26A5B8"/>
<path d="M68.8531 31.4378C67.2957 31.0805 65.4558 32.6538 65.3545 33.7151C76.1758 43.2671 76.5066 53.6831 75.4772 59.9768L74.1436 59.763C75.9574 50.0618 72.4369 42.4511 67.2213 37.4485C64.1865 34.1471 59.7012 31.3844 56.7305 29.9338C53.6158 28.6964 50.8371 27.9071 47.4665 28.0991C49.8665 30.2005 49.8132 34.7178 47.3065 37.5498C48.9438 32.6964 46.9545 29.4698 45.1412 27.8378C42.8799 28.0564 37.9252 29.3098 36.0958 30.6964C36.1012 30.9311 36.1918 31.7364 36.3678 32.2751C37.6585 33.3631 38.5332 33.9071 40.5225 35.1391C39.3865 35.0644 38.7785 34.8725 37.5571 34.6325C46.2718 48.2378 66.3252 39.9178 73.0398 50.7444C67.9303 46.9044 59.0932 45.0805 56.1652 45.2991C56.8852 46.0778 57.9625 47.0111 58.8585 47.6831C53.4238 46.8885 51.1252 46.9258 48.7305 45.6138C47.0878 44.8671 46.3518 43.3364 43.7705 42.1578C40.2292 40.5525 35.6745 37.1231 35.0078 30.2858C40.4478 27.2191 51.1252 23.5605 68.8531 31.4378Z" fill="#C3C4BE" stroke="#001010" stroke-width="0.0022078" stroke-linecap="square"/>
<path d="M67.7492 59.0221C66.6397 58.9154 64.1438 58.9154 63.6211 58.7875C67.5411 58.0941 70.2236 56.6594 72.5971 53.0381C72.7677 55.4221 70.6075 57.2781 67.7492 59.0221Z" fill="#9CC0AC" stroke="#001010" stroke-width="0.0022078" stroke-linecap="square"/>
<path d="M72.4506 69.7636C71.3624 72.2651 69.7359 74.7504 68.7814 76.3343C68.6784 76.3239 68.513 76.2848 68.2852 76.2172C68.5093 71.94 68.4027 69.1556 68.3117 67.8438C69.2932 68.2276 70.9359 68.9532 72.4506 69.7636Z" fill="#9CC0AC" stroke="#001010" stroke-width="0.0022078" stroke-linecap="square"/>
<path d="M87.4263 62.3712C87.1064 65.2353 83.3888 70.6007 80.0505 74.2168C75.96 71.2941 67.5438 66.8624 58.3971 64.1955C48.9145 61.7954 42.6904 61.3262 33.1758 63.1448C38.0184 61.1608 44.9518 58.2755 61.8371 58.7874C70.9358 58.8623 78.413 60.3286 87.4263 62.3712Z" fill="#26A5B8" stroke="#001010" stroke-width="0.0022078" stroke-linecap="square"/>
<path d="M74.5345 78.7771C68.7956 74.7126 46.9772 71.6353 33.6172 77.6993C46.2945 87.2463 61.3505 86.6382 74.5345 78.7771Z" fill="#26A5B8" stroke="#001010" stroke-width="0.0022078" stroke-linecap="square"/>
<path d="M31.2008 75.79C29.8461 75.0806 26.1181 71.2621 24.8008 68.3659C33.4995 66.3763 47.2701 64.5791 58.4595 71.4806C44.4328 69.8696 37.6808 71.182 31.2008 75.79Z" fill="#26A5B8" stroke="#001010" stroke-width="0.0022078" stroke-linecap="square"/>
<path d="M22.9175 64.5055C22.1228 62.7557 20.3682 59.2783 19.8828 53.5986C22.6721 52.6012 39.9628 49.7426 52.0482 54.5426C41.2108 54.8146 30.2349 59.1826 22.9175 64.5055Z" fill="#C8BAA0" stroke="#001010" stroke-width="0.0022078" stroke-linecap="square"/>
<path d="M89.2588 56.2968C92.5124 7.51809 27.1151 1.1874 19.6484 48.8355L21.7818 49.0115C29.7337 4.51011 89.2006 10.4088 87.1043 56.1102L89.2588 56.2968Z" fill="#C8BAA0" stroke="#001010" stroke-width="0.0022078" stroke-linecap="square"/>
<path d="M41.4103 30.4033C42.1196 30.4033 42.6957 30.9046 42.6957 31.5233C42.6957 32.1366 42.1196 32.638 41.4103 32.638C40.701 32.638 40.125 32.1366 40.125 31.5233C40.125 30.9046 40.701 30.4033 41.4103 30.4033Z" fill="#C3C4BE" stroke="#001010" stroke-width="0.0022078" stroke-linecap="square"/>
</g>
<defs>
<clipPath id="clip0_1331_6">
<rect width="103.19" height="122.88" fill="white"/>
</clipPath>
</defs>
</svg>
