<svg width="104" height="123" viewBox="0 0 104 123" fill="none" xmlns="http://www.w3.org/2000/svg">
<g clip-path="url(#clip0_1331_6)">
<path d="M98.61 116.21V109.08H100.69V118.82C100.69 119.669 99.9893 120.37 99.14 120.37H16.29H16.2872C8.71065 120.378 2.5 114.17 2.5 106.59V17.16C2.5 9.10071 9.10071 2.5 17.16 2.5H99.88C100.319 2.5 100.69 2.87072 100.69 3.31V95.3635C100.616 95.3936 100.506 95.4309 100.351 95.4688C99.4509 95.6884 98.0719 95.6947 96.221 95.6125L96.1655 95.61H96.11H15.94C9.57929 95.61 4.39 100.799 4.39 107.16C4.39 113.521 9.57929 118.71 15.94 118.71H96.11H98.61V116.21Z" stroke="#C8BAA0" stroke-width="5"/>
<path d="M66.3531 29.9378C64.7957 29.5805 62.9558 31.1538 62.8545 32.2151C73.6758 41.7671 74.0066 52.1831 72.9772 58.4768L71.6436 58.263C73.4574 48.5618 69.9369 40.9511 64.7213 35.9485C61.6865 32.6471 57.2012 29.8844 54.2305 28.4338C51.1158 27.1964 48.3371 26.4071 44.9665 26.5991C47.3665 28.7005 47.3132 33.2178 44.8065 36.0498C46.4438 31.1964 44.4545 27.9698 42.6412 26.3378C40.3799 26.5564 35.4252 27.8098 33.5958 29.1964C33.6012 29.4311 33.6918 30.2364 33.8678 30.7751C35.1585 31.8631 36.0332 32.4071 38.0225 33.6391C36.8865 33.5644 36.2785 33.3725 35.0571 33.1325C43.7718 46.7378 63.8252 38.4178 70.5398 49.2444C65.4303 45.4044 56.5932 43.5805 53.6652 43.7991C54.3852 44.5778 55.4625 45.5111 56.3585 46.1831C50.9238 45.3885 48.6252 45.4258 46.2305 44.1138C44.5878 43.3671 43.8518 41.8364 41.2705 40.6578C37.7292 39.0525 33.1745 35.6231 32.5078 28.7858C37.9478 25.7191 48.6252 22.0605 66.3531 29.9378Z" fill="#C3C4BE" stroke="#001010" stroke-width="0.0022078" stroke-linecap="square"/>
<path d="M65.2492 57.5221C64.1397 57.4154 61.6438 57.4154 61.1211 57.2875C65.0411 56.5941 67.7236 55.1594 70.0971 51.5381C70.2677 53.9221 68.1075 55.7781 65.2492 57.5221Z" fill="#9CC0AC" stroke="#001010" stroke-width="0.0022078" stroke-linecap="square"/>
<path d="M69.9506 68.2636C68.8624 70.7651 67.2359 73.2504 66.2814 74.8343C66.1784 74.8239 66.013 74.7848 65.7852 74.7172C66.0093 70.44 65.9027 67.6556 65.8117 66.3438C66.7932 66.7276 68.4359 67.4532 69.9506 68.2636Z" fill="#9CC0AC" stroke="#001010" stroke-width="0.0022078" stroke-linecap="square"/>
<path d="M84.9263 60.8712C84.6064 63.7353 80.8888 69.1007 77.5505 72.7169C73.46 69.7941 65.0438 65.3624 55.8971 62.6955C46.4145 60.2954 40.1904 59.8262 30.6758 61.6448C35.5184 59.6608 42.4518 56.7755 59.3371 57.2874C68.4358 57.3623 75.913 58.8286 84.9263 60.8712Z" fill="#26A5B8" stroke="#001010" stroke-width="0.0022078" stroke-linecap="square"/>
<path d="M72.0345 77.2771C66.2956 73.2126 44.4772 70.1353 31.1172 76.1993C43.7945 85.7463 58.8505 85.1382 72.0345 77.2771Z" fill="#26A5B8" stroke="#001010" stroke-width="0.0022078" stroke-linecap="square"/>
<path d="M28.7008 74.29C27.3461 73.5806 23.6181 69.7621 22.3008 66.8659C30.9995 64.8763 44.7701 63.0791 55.9595 69.9806C41.9328 68.3696 35.1808 69.682 28.7008 74.29Z" fill="#26A5B8" stroke="#001010" stroke-width="0.0022078" stroke-linecap="square"/>
<path d="M20.4175 63.0055C19.6228 61.2557 17.8682 57.7783 17.3828 52.0986C20.1721 51.1012 37.4628 48.2426 49.5482 53.0426C38.7108 53.3146 27.7349 57.6826 20.4175 63.0055Z" fill="#C8BAA0" stroke="#001010" stroke-width="0.0022078" stroke-linecap="square"/>
<path d="M86.7588 54.7968C90.0124 6.01809 24.6151 -0.312596 17.1484 47.3355L19.2818 47.5115C27.2337 3.01011 86.7006 8.90876 84.6043 54.6102L86.7588 54.7968Z" fill="#C8BAA0" stroke="#001010" stroke-width="0.0022078" stroke-linecap="square"/>
<path d="M38.9103 28.9033C39.6196 28.9033 40.1957 29.4046 40.1957 30.0233C40.1957 30.6366 39.6196 31.138 38.9103 31.138C38.201 31.138 37.625 30.6366 37.625 30.0233C37.625 29.4046 38.201 28.9033 38.9103 28.9033Z" fill="#C3C4BE" stroke="#001010" stroke-width="0.0022078" stroke-linecap="square"/>
</g>
<defs>
<clipPath id="clip0_1331_6">
<rect width="103.19" height="122.88" fill="white"/>
</clipPath>
</defs>
</svg>
