<svg width="384" height="512" viewBox="0 0 384 512" fill="none" xmlns="http://www.w3.org/2000/svg">
<path d="M192 0C85.903 0 0 86.014 0 192C0 263.117 23.991 285.341 151.271 489.424C170.056 519.543 213.965 519.507 232.728 489.424C360.075 285.234 384 263.103 384 192C384 85.903 297.986 0 192 0ZM192 464C64.576 259.686 48 246.788 48 192C48 112.471 112.471 48 192 48C271.529 48 336 112.471 336 192C336 246.553 320.834 257.425 192 464ZM112 192C112 147.817 147.817 112 192 112C236.183 112 272 147.817 272 192C272 236.183 236.183 272 192 272C147.817 272 112 236.183 112 192Z" fill="#FF0F00"/>
</svg>
