<svg width="100" height="100" viewBox="0 0 100 100" fill="none" xmlns="http://www.w3.org/2000/svg">
<rect width="100" height="100" rx="50" fill="#DDE0E4"/>
<path fill-rule="evenodd" clip-rule="evenodd" d="M50 47.818C51.736 47.818 53.4008 47.1284 54.6284 45.9008C55.8559 44.6733 56.5455 43.0085 56.5455 41.2725C56.5455 39.5365 55.8559 37.8717 54.6284 36.6442C53.4008 35.4167 51.736 34.7271 50 34.7271C48.2641 34.7271 46.5992 35.4167 45.3717 36.6442C44.1442 37.8717 43.4546 39.5365 43.4546 41.2725C43.4546 43.0085 44.1442 44.6733 45.3717 45.9008C46.5992 47.1284 48.2641 47.818 50 47.818ZM40.7248 67.4543C37.4125 67.4543 34.6223 64.6699 35.8899 61.6097C36.6574 59.7567 37.7824 58.0731 39.2006 56.6549C40.6188 55.2367 42.3024 54.1117 44.1554 53.3442C46.0084 52.5766 47.9944 52.1816 50 52.1816C52.0057 52.1816 53.9917 52.5766 55.8446 53.3442C57.6976 54.1117 59.3813 55.2367 60.7995 56.6549C62.2177 58.0731 63.3427 59.7567 64.1102 61.6097C65.3778 64.6699 62.5876 67.4543 59.2752 67.4543H40.7248Z" fill="#26A5B8"/>
</svg>
