<svg width="20" height="30" viewBox="0 0 20 30" fill="none" xmlns="http://www.w3.org/2000/svg">
<path d="M10 0C13.6819 0 16.6667 1.67895 16.6667 3.75C16.6667 5.82105 13.6819 7.5 10 7.5C6.31812 7.5 3.33333 5.82105 3.33333 3.75C3.33333 1.67895 6.31812 0 10 0ZM15 8.4375H13.8167C11.4509 9.04939 8.65104 9.07582 6.18333 8.4375H5C2.23854 8.4375 0 9.69668 0 11.25V19.2188C0 19.9954 1.11927 20.625 2.5 20.625H4.16667V28.5938C4.16667 29.3704 5.28594 30 6.66667 30H13.3333C14.7141 30 15.8333 29.3704 15.8333 28.5938V20.625H17.5C18.8807 20.625 20 19.9954 20 19.2188V11.25C20 9.69668 17.7615 8.4375 15 8.4375Z" fill="#F53838"/>
</svg>
