<svg width="20" height="30" viewBox="0 0 20 30" fill="none" xmlns="http://www.w3.org/2000/svg">
<path d="M16.5173 9.08666C17.3353 8.16053 17.8125 7.05105 17.8125 5.85938C17.8125 2.62852 14.3078 0 10 0C5.69219 0 2.1875 2.62852 2.1875 5.85938C2.1875 7.05105 2.66469 8.16053 3.48273 9.08666C1.40664 9.96006 0 11.6264 0 13.5352V18.75C0 20.2757 1.22102 21.5914 2.96875 22.1765V26.25C2.96875 28.3178 5.21172 30 7.96875 30H12.0312C14.7883 30 17.0312 28.3178 17.0312 26.25V22.1765C18.779 21.5915 20 20.2757 20 18.75V13.5352C20 11.6264 18.5934 9.96006 16.5173 9.08666ZM10 2.8125C12.2437 2.8125 14.0625 4.17662 14.0625 5.85938C14.0625 7.54213 12.2437 8.90625 10 8.90625C7.75633 8.90625 5.9375 7.54213 5.9375 5.85938C5.9375 4.17662 7.75633 2.8125 10 2.8125ZM16.25 18.75C16.25 19.2656 15.6875 19.6875 15 19.6875H13.2812V26.25C13.2812 26.7678 12.7216 27.1875 12.0312 27.1875H7.96875C7.27836 27.1875 6.71875 26.7678 6.71875 26.25V19.6875H5C4.30961 19.6875 3.75 19.2678 3.75 18.75V13.5352C3.75 12.3754 4.92766 11.25 6.93891 11.25C8.88898 11.8753 11.1108 11.8753 13.0611 11.25C15.0431 11.25 16.25 12.3565 16.25 13.5352V18.75Z" fill="#6685B4"/>
</svg>
