<svg width="25" height="25" viewBox="0 0 25 25" fill="none" xmlns="http://www.w3.org/2000/svg">
<rect width="25" height="25" rx="12.5" fill="#231F20"/>
<path d="M12.0086 16.5465C11.8791 16.4535 11.6998 16.4801 11.6069 16.6095L11.5704 16.6593C11.4774 16.7888 11.504 16.9681 11.6301 17.0611C11.6799 17.0976 11.7397 17.1175 11.7994 17.1175C11.8891 17.1175 11.9754 17.0777 12.0318 17.0013L12.0684 16.9515C12.1647 16.8187 12.1381 16.6394 12.0086 16.5465Z" fill="white"/>
<path d="M12.0853 19.2788L11.3449 17.9342L12.0355 16.9946C12.1284 16.8651 12.1019 16.6858 11.9724 16.5928C11.8429 16.4999 11.6636 16.5264 11.5707 16.6559L10.7738 17.7449C10.7074 17.8346 10.7008 17.9541 10.7539 18.0537L11.5806 19.5577C11.6337 19.654 11.73 19.7071 11.833 19.7071C11.8794 19.7071 11.9259 19.6971 11.9724 19.6706C12.1118 19.5942 12.1616 19.4183 12.0853 19.2788Z" fill="white"/>
<path d="M14.2266 17.7452L13.4298 16.6628C13.3633 16.5732 13.2505 16.53 13.1442 16.55C13.0347 16.5699 12.9483 16.6529 12.9218 16.7624C12.9019 16.8454 12.9185 16.9318 12.9683 17.0015L13.6555 17.9378L12.9218 19.2724C12.8985 19.3156 12.8853 19.3621 12.8853 19.4119C12.8853 19.5447 12.9749 19.6576 13.1011 19.6908C13.1243 19.6974 13.1475 19.7007 13.1741 19.7007C13.277 19.7007 13.3733 19.6443 13.4264 19.5513L14.2498 18.0573C14.2996 17.9544 14.293 17.8348 14.2266 17.7452Z" fill="white"/>
<path d="M14.6813 13.2266C14.5883 13.1768 14.4721 13.1834 14.3858 13.2432C14.2165 13.3594 14.0571 13.4856 13.9143 13.6151C13.1407 14.3156 12.407 14.2193 12.3771 14.216C12.3605 14.2127 12.3406 14.2127 12.324 14.2127C12.0185 14.2193 11.4674 13.9404 10.8831 13.4823C10.7934 13.4125 10.7038 13.3461 10.6108 13.283C10.5212 13.2233 10.4083 13.2166 10.3153 13.2664C10.2224 13.3163 10.1626 13.4125 10.1626 13.5188V14.5048C10.1626 14.5912 10.2024 14.6742 10.2688 14.7306C10.2755 14.7373 10.2854 14.7439 10.2954 14.7472L12.3339 16.1085L12.3406 16.1118C12.3871 16.145 12.4435 16.1583 12.5 16.1583C12.5464 16.1583 12.5929 16.1483 12.6361 16.1251C12.646 16.1217 12.6527 16.1151 12.6626 16.1085C12.6626 16.1085 12.666 16.1085 12.666 16.1051C12.666 16.1051 12.6693 16.1051 12.6693 16.1018L14.7012 14.7439C14.7078 14.7373 14.7178 14.7339 14.7244 14.7273C14.7942 14.6742 14.834 14.5879 14.834 14.5015V13.4723C14.8373 13.376 14.7776 13.2764 14.6813 13.2266ZM14.2596 14.3554L12.5 15.5308L10.7403 14.3554V14.0932C11.1686 14.4052 11.7994 14.7871 12.314 14.7871H12.3173C12.49 14.807 13.3698 14.8568 14.2629 14.0766L14.2596 14.3554Z" fill="white"/>
<path d="M12.7821 15.8295C12.7622 15.7166 12.6792 15.6236 12.5663 15.5971C12.4534 15.5705 12.3372 15.6137 12.2675 15.7067L11.6068 16.6064C11.5138 16.7359 11.5404 16.9152 11.6698 17.0081C11.7196 17.0447 11.7794 17.0646 11.8392 17.0646C11.9288 17.0646 12.0151 17.0247 12.0716 16.9484L12.729 16.0519C12.7655 16.0021 12.7887 15.9424 12.7887 15.876C12.7887 15.8627 12.7854 15.8461 12.7821 15.8295Z" fill="white"/>
<path d="M16.8791 6.56645C16.8725 6.51996 16.7397 5.55049 15.8233 5.16536C15.8499 4.99603 15.8466 4.77691 15.7403 4.5611C15.5942 4.27557 15.3087 4.08632 14.887 4.00664C14.8704 4.00332 14.8505 4 14.8306 4H10.9726C9.40554 4 8.13062 5.27492 8.13062 6.84201V8.35598C8.13062 8.75108 8.26342 9.13621 8.50911 9.43834C8.62863 9.58775 8.77804 9.85335 8.80128 10.2484C8.81124 10.4045 8.94072 10.524 9.09677 10.5207C9.25281 10.5174 9.37566 10.3879 9.37566 10.2318V8.2597C9.57154 7.45291 10.2356 7.29687 10.3518 7.27363H11.6001C11.7462 7.27363 11.8923 7.25039 12.0284 7.20723C12.2642 7.13086 12.6426 6.99142 12.9149 6.8885C13.0975 6.81877 13.3 6.81545 13.486 6.88186L14.8206 7.34999C15.488 7.59568 15.6075 8.18334 15.6208 8.2763V10.6435C15.6208 10.7929 15.737 10.9191 15.8864 10.9291C15.893 10.9291 15.8997 10.9291 15.9096 10.9291C16.0491 10.9291 16.1719 10.8261 16.1952 10.6834C16.1952 10.6767 16.3114 9.93304 16.6799 9.34206C16.8094 9.13621 16.8758 8.90048 16.8758 8.66143V6.60297C16.8824 6.58969 16.8791 6.57641 16.8791 6.56645ZM16.3047 8.66143C16.3047 8.79092 16.2682 8.91708 16.1985 9.02997V8.25306C16.1985 8.2431 16.1985 8.23314 16.1952 8.22318C16.1918 8.18002 16.0723 7.19727 15.0165 6.80881H15.0132L13.6752 6.34068C13.5258 6.28756 13.3664 6.261 13.2104 6.261C13.0411 6.261 12.8717 6.29088 12.7124 6.35396C12.3272 6.50004 12.0317 6.60629 11.8525 6.66273C11.7728 6.68929 11.6865 6.70257 11.6001 6.70257H10.3285C10.3152 6.70257 10.3053 6.70257 10.292 6.70589C10.2422 6.71253 9.09677 6.87522 8.80792 8.16674C8.8046 8.18666 8.80128 8.2099 8.80128 8.22982V8.8208C8.7382 8.67472 8.70499 8.51867 8.70499 8.35598V6.84201C8.70499 5.59365 9.72095 4.5777 10.9693 4.5777H14.7974C14.9568 4.6109 15.1493 4.68062 15.2224 4.82339C15.312 4.99603 15.2091 5.23508 15.2091 5.23508C15.1726 5.31476 15.1726 5.40441 15.2091 5.48077C15.2456 5.55713 15.3153 5.61689 15.4017 5.63681C16.1321 5.81278 16.2815 6.51332 16.3014 6.62953L16.3047 8.66143Z" fill="white"/>
<path d="M16.1985 8.22311C16.1952 8.17995 16.0756 7.1972 15.0198 6.80875H15.0165L13.6785 6.34061C13.3664 6.23105 13.0211 6.23437 12.7124 6.35389C12.3272 6.49998 12.0317 6.60622 11.8525 6.66266C11.7728 6.68922 11.6864 6.7025 11.6001 6.7025H10.3285C10.3152 6.7025 10.3053 6.7025 10.292 6.70582C10.2422 6.71246 9.09676 6.87515 8.80791 8.16667C8.80459 8.18659 8.80127 8.20983 8.80127 8.22975V10.6999C8.80127 10.7032 8.80127 10.7032 8.80127 10.7066C8.80459 10.7929 8.86435 12.8181 10.2654 13.7478L10.2721 13.7544C10.2787 13.7577 10.2854 13.7644 10.292 13.7677C10.3717 13.8208 10.4514 13.8806 10.531 13.9403C10.9394 14.2591 11.7064 14.7936 12.3139 14.7936H12.3173C12.3505 14.7969 12.4102 14.8036 12.4899 14.8036C12.8352 14.8036 13.5656 14.7139 14.3027 14.0499C14.4255 13.937 14.565 13.8308 14.7144 13.7245L14.7343 13.7079C14.7409 13.7046 14.7476 13.698 14.7542 13.6947C15.2224 13.3792 16.0292 12.5725 16.2018 10.6734C16.2018 10.6634 16.2018 10.6568 16.2018 10.6468V8.25963C16.2018 8.24303 16.2018 8.23307 16.1985 8.22311ZM15.6274 10.6302C15.4714 12.3434 14.7409 13.0074 14.4355 13.2132C14.4255 13.2199 14.4123 13.2265 14.4023 13.2365L14.3857 13.2464C14.2164 13.3626 14.057 13.4888 13.9142 13.6183C13.144 14.3155 12.4102 14.2226 12.3737 14.2192C12.3571 14.2159 12.3405 14.2159 12.3239 14.2159C12.0185 14.2226 11.4673 13.9437 10.883 13.4855C10.7933 13.4158 10.7037 13.3494 10.6107 13.2863L10.6041 13.283C10.5974 13.2796 10.5908 13.273 10.5808 13.2664C9.45201 12.5193 9.37565 10.7663 9.37565 10.6966V8.26295C9.57153 7.45285 10.2422 7.2968 10.3518 7.27688H11.6001C11.7462 7.27688 11.8923 7.25364 12.0284 7.21048C12.2641 7.13412 12.6426 6.99467 12.9149 6.89175C13.0975 6.82203 13.3 6.81871 13.4859 6.88511L14.8206 7.35324C15.488 7.59893 15.6075 8.18659 15.6208 8.27956L15.6274 10.6302Z" fill="white"/>
<path d="M12.7557 15.7499C12.7125 15.6602 12.6229 15.6005 12.5233 15.5905C12.4237 15.5839 12.3274 15.627 12.2676 15.7067L11.5804 16.643C11.4874 16.7725 11.514 16.9518 11.6401 17.0447C11.6899 17.0812 11.7497 17.1012 11.8095 17.1012C11.8991 17.1012 11.9854 17.0613 12.0419 16.985L12.7324 16.052C12.769 16.0022 12.7889 15.9391 12.7889 15.8794C12.7889 15.8329 12.7756 15.7897 12.7557 15.7499Z" fill="white"/>
<path d="M12.7756 20.3783C12.666 20.2654 12.49 20.2588 12.3738 20.365L12.3074 20.4248C12.2078 20.5144 12.1846 20.6605 12.251 20.7767L12.2543 20.78C12.2975 20.8597 12.3771 20.9128 12.4668 20.9261C12.4801 20.9294 12.4933 20.9294 12.5066 20.9294C12.583 20.9294 12.656 20.8995 12.7091 20.8464L12.7722 20.7833C12.8818 20.6705 12.8818 20.4912 12.7756 20.3783Z" fill="white"/>
<path d="M12.6925 20.4248L12.6261 20.365C12.5099 20.2588 12.3339 20.2654 12.2243 20.3783C12.1148 20.4912 12.1181 20.6705 12.2277 20.78L12.2907 20.8431C12.3439 20.8962 12.4169 20.9261 12.4933 20.9261C12.5065 20.9261 12.5198 20.9261 12.5331 20.9228C12.6227 20.9095 12.7024 20.8564 12.7456 20.7767L12.7489 20.7734C12.812 20.6572 12.7887 20.5144 12.6925 20.4248Z" fill="white"/>
<path d="M12.6959 20.4281C12.6527 20.3849 12.593 20.3584 12.5299 20.3517C12.4436 20.3418 12.3639 20.3717 12.3041 20.4281C12.2444 20.4812 12.2112 20.5543 12.2112 20.634C12.2078 20.7136 12.241 20.79 12.2975 20.8431L12.3008 20.8464C12.3572 20.9029 12.4303 20.9294 12.5033 20.9294C12.5764 20.9294 12.6494 20.9029 12.7059 20.8464L12.7092 20.8431C12.7656 20.7867 12.7955 20.7103 12.7922 20.634C12.7889 20.5543 12.7557 20.4812 12.6959 20.4281Z" fill="white"/>
<path d="M12.5928 15.6005C12.4733 15.5639 12.3438 15.6071 12.2708 15.71C12.1911 15.8229 12.2044 15.9789 12.3007 16.0785C12.3571 16.135 12.4302 16.1615 12.5032 16.1615C12.5596 16.1615 12.6194 16.1449 12.6692 16.1084C12.7456 16.0553 12.792 15.9657 12.792 15.8727C12.792 15.7465 12.7124 15.637 12.5928 15.6005Z" fill="white"/>
<path d="M12.7324 15.7067L12.7291 15.7034C12.6561 15.6038 12.5266 15.564 12.4071 15.6005C12.2909 15.6403 12.2112 15.7499 12.2112 15.8727V15.8761C12.2112 15.9823 12.2709 16.0786 12.3639 16.1284C12.4071 16.1516 12.4535 16.1616 12.5 16.1616C12.5565 16.1616 12.6129 16.145 12.6594 16.1118C12.7258 16.0686 12.769 15.9989 12.7822 15.9225C12.7988 15.8495 12.7789 15.7698 12.7324 15.7067Z" fill="white"/>
<path d="M15.9194 14.8036C15.8896 14.7239 15.8265 14.6641 15.7468 14.6342L14.6445 14.2391C14.6346 14.2358 14.6279 14.2325 14.618 14.2292C14.5383 14.2093 14.4553 14.2225 14.3889 14.269L12.347 15.6336C12.347 15.6336 12.347 15.6336 12.3437 15.6336L12.503 15.8726L12.3404 15.6369C12.2806 15.6767 12.2374 15.7365 12.2208 15.8062C12.2109 15.8461 12.2109 15.8859 12.2175 15.9224C12.2242 15.9656 12.2441 16.0088 12.2706 16.0453L13.7647 18.0805C13.8178 18.1535 13.9041 18.1967 13.9971 18.1967C14.0037 18.1967 14.0104 18.1967 14.017 18.1967C14.1133 18.1901 14.2029 18.1336 14.2494 18.0473L15.9062 15.0393C15.9427 14.9696 15.9493 14.8799 15.9194 14.8036ZM13.9606 17.38L12.9114 15.949L14.5881 14.8268L15.2355 15.0592L13.9606 17.38Z" fill="white"/>
<path d="M12.782 15.8298C12.7687 15.7534 12.7256 15.6837 12.6592 15.6405L10.6107 14.2726C10.5443 14.2295 10.4646 14.2129 10.3882 14.2295C10.3749 14.2328 10.365 14.2361 10.355 14.2394L9.25274 14.6345C9.17306 14.6644 9.10997 14.7242 9.08009 14.8039C9.05021 14.8835 9.05685 14.9699 9.09669 15.0429L10.7534 18.0509C10.7999 18.1372 10.8896 18.1937 10.9858 18.2003C10.9925 18.2003 10.9991 18.2003 11.0058 18.2003C11.0954 18.2003 11.1817 18.1572 11.2382 18.0841L12.0383 16.9951C12.0383 16.9951 12.0383 16.9918 12.0416 16.9918L12.7355 16.0456C12.7787 15.9858 12.7953 15.9061 12.782 15.8298ZM11.5735 16.6565C11.5702 16.6565 11.5702 16.6598 11.5735 16.6565L11.039 17.3803L9.76404 15.0595L10.4115 14.8271L12.0881 15.9493L11.5735 16.6565Z" fill="white"/>
<path d="M20.9861 19.7106L20.6143 17.4728C20.4981 16.7656 20.0067 16.178 19.336 15.9356L15.7503 14.6374C15.6407 14.5976 15.5146 14.6275 15.4382 14.7171C15.3585 14.8034 15.3419 14.9329 15.3951 15.0358L16.1454 16.5365L15.4117 16.5465C15.3121 16.5465 15.2191 16.5996 15.1693 16.6859C15.1195 16.7723 15.1162 16.8785 15.1626 16.9648L15.4648 17.5392L12.3804 20.3613C12.3771 20.3646 12.3738 20.3679 12.3704 20.3713L12.3074 20.4343C12.2177 20.524 12.1978 20.6634 12.2575 20.7763L12.2609 20.7796C12.3107 20.8726 12.407 20.929 12.5132 20.929H19.9569C20.2657 20.929 20.5578 20.7929 20.757 20.5572C20.9496 20.3248 21.0359 20.0127 20.9861 19.7106ZM20.3121 20.1887C20.2225 20.2949 20.0897 20.358 19.9502 20.358H13.2337L16.0093 17.8181C16.1056 17.7285 16.1288 17.589 16.069 17.4728L15.8831 17.1142L16.6069 17.1043C16.7065 17.1043 16.7961 17.0512 16.8493 16.9648C16.8991 16.8818 16.9057 16.7756 16.8625 16.6859L16.2317 15.4177L19.1435 16.4701C19.6216 16.6428 19.9702 17.0611 20.0532 17.5624L20.425 19.8002C20.4416 19.9396 20.4018 20.0824 20.3121 20.1887Z" fill="white"/>
<path d="M12.699 20.4314L12.6957 20.4281C12.5828 20.3251 12.4068 20.3284 12.3006 20.438L12.2972 20.4413C12.2142 20.5243 12.191 20.6472 12.2342 20.7534C12.2773 20.8597 12.3836 20.9294 12.4998 20.9294H12.5064C12.6259 20.9294 12.7322 20.8563 12.7753 20.7468C12.8185 20.6372 12.7886 20.5111 12.699 20.4314Z" fill="white"/>
<path d="M12.6889 20.421C12.6225 20.3612 12.5362 20.338 12.4499 20.3513C12.3635 20.3646 12.2872 20.421 12.2473 20.4974L12.244 20.5007C12.1843 20.6102 12.2009 20.7497 12.2905 20.8393C12.3469 20.8991 12.4233 20.9257 12.4963 20.9257C12.5661 20.9257 12.6358 20.8991 12.6889 20.8493L12.6922 20.846C12.7188 20.8227 12.7387 20.7929 12.7553 20.763C12.8151 20.6501 12.7852 20.5073 12.6889 20.421Z" fill="white"/>
<path d="M12.7025 20.4412C12.6992 20.4379 12.6992 20.4379 12.6992 20.4379L12.6361 20.3748C12.6328 20.3715 12.6295 20.3682 12.6262 20.3649L9.54179 17.5428L9.84392 16.9684C9.89041 16.8787 9.88709 16.7725 9.83728 16.6895C9.78748 16.6032 9.69452 16.5501 9.59492 16.5501L8.86117 16.5401L9.61152 15.0394C9.66464 14.9332 9.64804 14.807 9.56836 14.7207C9.48867 14.6344 9.36583 14.6012 9.25626 14.641L5.67055 15.9392C4.99656 16.1815 4.50851 16.7725 4.3923 17.4764L4.01381 19.7108C3.96401 20.0163 4.05033 20.325 4.24954 20.5608C4.44875 20.7965 4.74091 20.9326 5.04969 20.9326H12.5C12.6162 20.9326 12.7225 20.8629 12.7656 20.7533C12.8088 20.6471 12.7855 20.5209 12.7025 20.4412ZM5.04969 20.3549C4.91024 20.3549 4.77744 20.2951 4.68779 20.1856C4.59815 20.0793 4.55831 19.9399 4.58155 19.8004L4.9534 17.5627C5.0364 17.0614 5.38502 16.643 5.86311 16.4704L8.77485 15.4179L8.14403 16.6862C8.10087 16.7758 8.10419 16.8787 8.15731 16.9651C8.20711 17.0481 8.30007 17.1012 8.39968 17.1045L9.12346 17.1145L8.93753 17.473C8.87777 17.5893 8.90101 17.732 8.9973 17.8183L11.7729 20.3582H5.04969V20.3549Z" fill="white"/>
<path d="M13.4793 16.9019C13.4992 16.8189 13.4826 16.7326 13.4328 16.6629L12.7323 15.7067C12.6592 15.6071 12.5298 15.5672 12.4102 15.6071C12.3472 15.627 12.294 15.6701 12.2575 15.7233L11.5702 16.6562C11.5603 16.6695 11.5503 16.6828 11.5437 16.6994C11.4972 16.7923 11.5038 16.9052 11.5636 16.9915L11.8558 17.4099L11.5437 19.3721C11.5337 19.4352 11.5437 19.4982 11.5769 19.5547L12.2442 20.7665C12.294 20.8595 12.3903 20.9159 12.4966 20.9159C12.6028 20.9159 12.6991 20.8595 12.7489 20.7665L13.4195 19.5447C13.4428 19.5016 13.4561 19.4551 13.4561 19.4053C13.4561 19.3887 13.4561 19.3754 13.4528 19.3588L13.144 17.4032L13.4328 16.9882C13.4561 16.965 13.4694 16.9351 13.4793 16.9019ZM12.4999 20.0361L12.1313 19.3654L12.4468 17.3866C12.46 17.3136 12.4401 17.2372 12.4003 17.1775L12.1579 16.8322L12.4999 16.3674L12.8452 16.8388L12.6061 17.1808C12.563 17.2406 12.5464 17.3169 12.5596 17.39L12.8717 19.3621L12.4999 20.0361Z" fill="white"/>
</svg>
