<svg width="40" height="40" viewBox="0 0 35 35" fill="none" xmlns="http://www.w3.org/2000/svg">
  <style>
    @keyframes pulsate {

      0%,
      to {
        transform: scale(1)
      }

      50% {
        transform: scale(.9)
      }
    }
  </style>
  <g style="animation:pulsate .5s ease-in-out infinite both;transform-origin:center center">
  <path d="M17.5 2.91675C11.8709 2.91675 7.29169 7.49591 7.29169 13.1251C7.29169 20.7813 17.5 32.0834 17.5 32.0834C17.5 32.0834 27.7084 20.7813 27.7084 13.1251C27.7084 7.49591 23.1292 2.91675 17.5 2.91675ZM17.5 5.83341C19.1042 5.83341 20.4167 7.14591 20.4167 8.75008C20.4167 10.3688 19.1042 11.6667 17.5 11.6667C15.8959 11.6667 14.5834 10.3688 14.5834 8.75008C14.5834 7.14591 15.8959 5.83341 17.5 5.83341ZM17.5 20.4167C15.0646 20.4167 12.9209 19.1772 11.6667 17.2813C11.6959 15.3563 15.5604 14.2917 17.5 14.2917C19.4396 14.2917 23.3042 15.3563 23.3334 17.2813C22.0792 19.1772 19.9354 20.4167 17.5 20.4167Z" fill="#26A5B8"/>
   </g>
</svg>
