<svg width="25" height="24" viewBox="0 0 25 24" fill="none" xmlns="http://www.w3.org/2000/svg">
<g clip-path="url(#clip0_850_64)">
<path d="M23.6524 0.0309773C23.608 0.0502855 22.5016 1.14119 20.4279 3.21489L17.271 6.37177L17.1841 6.33701C17.105 6.30805 16.9775 6.30419 15.8326 6.29839L14.5679 6.2926L13.2994 5.02406C12.6004 4.32704 12.0289 3.74972 12.0289 3.742C12.0289 3.73428 12.052 3.73814 12.0829 3.74972C12.1158 3.76517 12.2509 3.77289 12.444 3.77289C12.724 3.77289 12.7684 3.7671 12.9228 3.72076C13.5214 3.53733 13.9558 3.09132 14.118 2.49469C14.1779 2.27458 14.1779 1.86332 14.118 1.65479C13.9635 1.11609 13.6623 0.74924 13.1854 0.521404C12.9383 0.403624 12.7587 0.363077 12.473 0.359215C11.998 0.355354 11.6118 0.504026 11.2817 0.818749C11.0403 1.04658 10.9032 1.26863 10.8009 1.593C10.7507 1.75326 10.7449 1.78995 10.7449 2.06605C10.7449 2.31899 10.7526 2.3885 10.7893 2.51979C10.8511 2.73605 10.965 2.95809 11.1098 3.13959L11.2314 3.29598L11.104 3.2593C10.9322 3.21103 10.6696 3.21296 10.4746 3.26316C10.1714 3.34039 10.1714 3.34039 8.98785 4.51625C5.96805 7.51674 6.12831 7.35455 6.06073 7.49743C6.02212 7.58238 5.99509 7.68086 5.9835 7.7774C5.97385 7.85849 5.96805 8.51883 5.96999 9.24481L5.97578 10.5616H3.36532H0.75293V10.9961V11.4305H3.35953H5.96419L5.96999 14.5719L5.97578 17.7153L6.01826 17.8659C6.13024 18.2598 6.39476 18.5861 6.73845 18.756C6.9547 18.8622 7.12654 18.9027 7.36789 18.9027C7.99348 18.9027 8.53797 18.4857 8.71367 17.8659L8.75615 17.7153L8.76194 14.5719L8.76773 11.4305H10.8607H12.9557V15.4659V19.5013H6.8543H0.75293V20.2447V20.988H7.28873H13.8245V16.2093V11.4305H14.5775H15.3306V10.9961V10.5616H12.0443H8.75615L8.76194 10.1697L8.76773 9.77772L10.4939 8.05157L12.222 6.3235L12.9692 7.06879C13.3824 7.47812 13.7454 7.83146 13.7763 7.8527C13.8091 7.87394 13.8863 7.91255 13.95 7.93765L14.0659 7.98399L15.4734 7.98979C16.2998 7.99365 16.9447 7.98786 17.0355 7.97627C17.4255 7.92993 17.717 7.65576 17.7827 7.27345C17.8059 7.14795 17.8001 7.09389 17.7537 6.87378C17.7441 6.8313 18.0472 6.52044 20.592 3.97756L23.44 1.12961V11.0694V21.0073H23.7682H24.0965V10.6253V0.245298L24.0501 0.166134C23.9652 0.0213233 23.803 -0.0327395 23.6524 0.0309773Z" fill="black"/>
<path d="M2.70314 21.0672C2.32084 21.1096 1.99839 21.1985 1.57361 21.3742C1.09091 21.575 0.658407 21.6812 0.18922 21.714L0 21.7275V22.8667V24.0059L0.206597 23.9923C0.625583 23.9672 1.00788 23.8804 1.39019 23.7259C1.87482 23.5309 1.98294 23.4923 2.20113 23.4382C2.60274 23.3359 3.06999 23.3011 3.4716 23.3455C3.85969 23.3861 4.20531 23.4826 4.66291 23.6757C5.3078 23.9479 5.90636 24.0445 6.54739 23.9808C6.94513 23.9402 7.28303 23.8495 7.69429 23.6757C8.14996 23.4845 8.43572 23.4034 8.83347 23.3532C9.12502 23.3166 9.38568 23.3166 9.69268 23.3532C10.0962 23.4015 10.38 23.4826 10.8994 23.7008C11.7162 24.0445 12.6101 24.0908 13.4539 23.834C13.5466 23.8051 13.7339 23.7355 13.8729 23.6757C14.1895 23.5425 14.344 23.4884 14.5873 23.4285C15.153 23.2895 15.767 23.2934 16.3366 23.4382C16.5529 23.4923 16.6687 23.5328 17.1456 23.7259C17.6206 23.919 17.9855 23.9885 18.5261 23.9885C19.1112 23.9904 19.4935 23.9112 20.0438 23.6796C20.3681 23.5425 20.5226 23.4884 20.7659 23.4285C21.3297 23.2915 21.9495 23.2934 22.5133 23.4382C22.7315 23.4923 22.8396 23.5309 23.3242 23.7259C23.7065 23.8804 24.0888 23.9672 24.5078 23.9923L24.7144 24.0059V22.8667V21.7294L24.4499 21.7063C23.971 21.6638 23.5868 21.5634 23.0249 21.3298C22.7643 21.2216 22.5345 21.154 22.243 21.1C22.0634 21.0672 21.9456 21.0594 21.6251 21.0594C21.0323 21.0594 20.7427 21.1193 20.0805 21.3838C19.5379 21.6001 19.2656 21.6676 18.8003 21.7063C18.1883 21.7565 17.6032 21.6445 16.8463 21.3298C16.5857 21.2216 16.3559 21.154 16.0644 21.1C15.8848 21.0672 15.767 21.0594 15.4465 21.0594C14.8537 21.0594 14.5622 21.1193 13.9019 21.3838C13.4964 21.546 13.2821 21.6097 12.9673 21.6638C12.2047 21.7931 11.5656 21.7005 10.6677 21.3298C10.4071 21.2197 10.1754 21.1521 9.88576 21.1C9.70619 21.0672 9.58842 21.0594 9.2679 21.0594C8.67514 21.0594 8.38552 21.1193 7.72325 21.3838C7.32743 21.5402 7.18455 21.5866 6.90845 21.6425C6.46822 21.7333 6.02027 21.741 5.56846 21.6638C5.2576 21.6097 4.99694 21.5325 4.63009 21.3819C4.45825 21.3124 4.2671 21.239 4.20145 21.2197C3.72068 21.071 3.16846 21.015 2.70314 21.0672Z" fill="black"/>
</g>
<defs>
<clipPath id="clip0_850_64">
<rect width="24.7144" height="24" fill="white"/>
</clipPath>
</defs>
</svg>
