<svg width="100" height="100" viewBox="0 0 100 100" fill="none" xmlns="http://www.w3.org/2000/svg">
<g clip-path="url(#clip0_1208_24)">
<path d="M100 50C100 22.3858 77.6142 0 50 0C22.3858 0 0 22.3858 0 50C0 77.6142 22.3858 100 50 100C77.6142 100 100 77.6142 100 50Z" fill="#DDE0E4"/>
<g clip-path="url(#clip1_1208_24)">
<path d="M26.2515 65.196C25.8547 64.6564 25.4431 64.127 25.0652 63.5746C24.6377 62.9498 24.0781 62.9328 23.6693 63.5631C23.4038 63.9725 23.1485 64.3886 22.7365 65.0437C22.0153 62.9688 21.3832 61.1501 20.6895 59.1543C38.7133 56.9011 56.5715 54.6686 74.5821 52.4171C73.4084 56.9399 70.9126 60.5429 68.1204 64.1082C67.9798 63.8901 67.9076 63.7728 67.8302 63.659C67.3012 62.8806 66.8287 62.9432 66.2941 63.6986C65.8316 64.3521 65.2074 64.8913 64.5631 65.5259C64.3866 65.6255 64.3017 65.6804 64.2168 65.7352C63.0436 66.0548 61.9021 66.0587 60.7351 65.3367C60.4877 65.1779 60.333 65.0771 60.1784 64.9764C59.911 64.6024 59.6685 64.2068 59.3684 63.8612C59.1245 63.5804 58.8071 63.1612 58.5302 63.1672C58.2451 63.1734 57.964 63.6143 57.6932 63.8774C57.6135 63.9549 57.5749 64.0746 57.4525 64.2629C55.3072 66.6851 52.3514 66.4176 50.7929 63.7795C50.6241 63.4939 50.2487 63.1487 49.9776 63.1557C49.7014 63.1629 49.3472 63.5205 49.1802 63.8122C48.3958 65.1827 47.2469 65.929 45.6703 65.9239C44.1201 65.919 43.0228 65.143 42.2607 63.8092C42.0945 63.5184 41.74 63.1615 41.4653 63.1556C41.1964 63.1498 40.8307 63.5008 40.6611 63.7865C40.1308 64.6798 39.4541 65.374 38.4598 65.7162C36.566 66.368 34.7485 65.6102 33.7131 63.7465C33.2357 62.8872 32.6389 62.8569 32.1499 63.6672C30.8156 65.878 29.1754 66.423 26.6958 65.4796C26.6958 65.4796 26.6788 65.4789 26.6471 65.4281C26.4941 65.3168 26.3728 65.2564 26.2515 65.196Z" fill="#26A5B8"/>
<path d="M79.5109 35.5364C79.5109 33.4791 79.5109 31.5101 79.5109 29.3616C79.2203 29.5801 79.0383 29.6906 78.8878 29.834C75.4865 33.0753 72.9135 36.9237 70.7194 41.0433C70.5945 41.2777 70.6209 41.6484 70.6959 41.9233C70.9557 42.8757 70.6566 43.4709 69.7513 43.9108C69.4227 44.0704 69.0577 44.3812 68.9401 44.7065C68.5881 45.6801 68.3517 46.6954 68.0665 47.6933C68.0184 47.8615 67.9975 48.068 67.8871 48.183C66.9829 49.1242 66.7964 50.3639 66.4551 51.5402C66.0699 52.8676 66.0693 52.8675 64.5478 52.8349C64.5478 52.6213 64.5478 52.4066 64.5478 52.1072C64.3848 52.1853 64.273 52.2112 64.1986 52.2786C63.1483 53.2293 62.4773 53.227 61.4799 52.2332C60.9805 51.7356 60.5082 51.2108 59.8388 50.5029C59.7283 51.6509 59.6409 52.5586 59.5468 53.5361C57.5283 53.7895 55.5309 54.0403 53.3965 54.3084C53.6146 52.6284 53.8129 51.036 54.0307 49.4462C54.1661 48.4575 54.3113 47.4693 54.4874 46.4872C54.7202 45.1893 55.5281 44.4262 56.7919 44.1136C60.6954 43.1482 64.5956 42.1693 68.5042 41.2252C69.0629 41.0903 69.4117 40.842 69.7017 40.3367C72.1589 36.0565 75.0046 32.0758 78.7746 28.8292C79.2196 28.446 79.6803 28.0738 80.1722 27.7562C80.3423 27.6464 80.6295 27.718 80.8632 27.7067C80.8063 27.9057 80.7579 28.1076 80.6908 28.3031C80.5585 28.6885 80.2958 29.0701 80.2951 29.4537C80.2731 41.253 80.2764 53.0523 80.2757 64.8516C80.2757 65.173 80.2757 65.4945 80.2757 65.8071C79.5081 66.1785 79.5057 65.7246 79.5065 65.1964C79.514 60.5179 79.5109 55.8394 79.5109 51.1608C79.5109 45.9821 79.5109 40.8034 79.5109 35.5364ZM63.612 45.7978C62.7389 46.0777 61.8658 46.3576 60.8816 46.673C61.6283 47.5228 62.2722 48.2557 63.0783 49.1731C63.7243 48.4425 64.263 47.7849 64.8557 47.1803C65.2397 46.7885 65.6564 46.3769 66.1404 46.1465C67.0095 45.7329 67.0353 45.7871 67.2858 44.675C66.085 45.0425 64.9162 45.4001 63.612 45.7978Z" fill="#26A5B8"/>
<path d="M44.3063 55.4609C43.9244 55.1859 43.5743 54.9371 43.31 54.6174C42.8102 54.0127 42.3597 53.3672 41.7472 52.5497C41.6117 53.7546 41.5016 54.7333 41.3813 55.8031C38.5434 56.161 35.6977 56.5198 32.7188 56.8954C32.8649 55.7209 32.9938 54.5975 33.1464 53.4773C33.432 51.381 33.7314 49.2865 34.0248 47.1912C34.0289 47.1621 34.0285 47.1322 34.0344 47.1035C34.419 45.2365 35.0741 43.5594 37.1944 43.0801C39.3884 42.5842 41.6625 43.5567 42.8608 45.442C43.6748 46.7227 44.4857 48.0053 45.3733 49.406C46.1769 47.778 46.9004 46.3077 47.628 44.8396C48.2749 43.5343 49.3805 43.0479 50.5018 43.5697C51.6183 44.0892 51.963 45.2537 51.3855 46.5724C50.2546 49.1547 49.1053 51.7291 48.0017 54.323C47.7765 54.8525 47.4929 55.0972 46.9132 55.1361C46.0644 55.193 45.222 55.3442 44.3063 55.4609Z" fill="#26A5B8"/>
<path d="M58.5422 68.9523C60.1839 71.3968 62.5459 72.2958 64.7496 71.1327C65.6688 70.6476 66.3868 69.7814 67.2139 69.0734C68.0307 70.5486 69.3741 71.5459 71.3128 71.5737C73.2909 71.602 74.6342 70.5944 75.6081 68.8581C76.5787 70.5321 77.9217 71.5818 79.9024 71.5737C81.8499 71.5658 83.209 70.5779 84.171 68.8284C85.0808 70.5177 86.3903 71.4385 88.209 71.6043C88.209 72.2487 88.209 72.8541 88.209 73.5028C86.6611 73.5256 85.3876 72.9232 84.1912 72.038C81.3271 74.0658 78.4641 74.0644 75.6131 72.0495C72.7847 74.0658 69.9551 74.0723 67.0917 72.0566C64.2583 74.063 61.3932 74.084 58.5345 72.0552C55.6881 74.0673 52.8551 74.0686 49.9991 72.053C47.17 74.0739 44.3094 74.0724 41.4468 72.0593C38.6078 74.0602 35.7717 74.0653 32.908 72.0589C30.1026 74.0491 27.2689 74.0748 24.4981 72.1415C23.5064 72.5626 22.5788 73.087 21.5822 73.3512C19.7642 73.8332 18.0065 73.5139 16.4552 72.431C15.948 72.0769 15.6435 72.1152 15.1644 72.4551C14.1389 73.1828 12.9701 73.5381 11.6465 73.524C11.6465 72.8723 11.6465 72.2687 11.6465 71.6165C13.4953 71.486 14.864 70.6091 15.782 68.8732C16.7996 70.5169 18.1173 71.5942 20.1104 71.5806C22.0917 71.567 23.4043 70.5246 24.3564 68.8767C26.5052 72.7229 31.2345 72.2424 32.8929 68.8312C33.8368 70.4907 35.1538 71.5545 37.1191 71.5757C39.0837 71.5968 40.4377 70.5928 41.4399 68.8585C42.4454 70.5541 43.792 71.6081 45.7808 71.572C47.7467 71.5362 49.0752 70.5023 49.9892 68.83C51.511 71.3005 53.7022 72.166 56.0241 71.2302C57.1405 70.7803 57.905 69.9559 58.5422 68.9523Z" fill="#26A5B8"/>
<path d="M57.7345 65.0457C57.9959 64.7079 58.2572 64.3701 58.5156 64.036C60.9578 68.0614 65.4966 67.1027 67.0925 63.9448C68.0343 65.6569 69.4135 66.6796 71.3639 66.6832C73.319 66.6868 74.6896 65.6849 75.6119 63.9197C76.5308 65.6438 77.9049 66.6568 79.8355 66.6794C81.7741 66.7022 83.1788 65.7345 84.1584 63.9404C85.0539 65.5593 86.3361 66.5257 88.1894 66.6936C88.1894 67.3186 88.1894 67.9201 88.1894 68.5852C86.6675 68.665 85.4216 68.0031 84.171 67.122C82.9197 68.0663 81.5095 68.6572 79.8872 68.6463C78.2976 68.6356 76.8955 68.1086 75.6509 67.1262C72.801 69.1567 69.9693 69.1875 67.0891 67.1479C64.2747 69.1661 61.4131 69.1905 58.5368 67.1477C55.7254 69.1574 52.8954 69.1815 49.9854 67.1363C48.7575 68.0766 47.3495 68.6522 45.7327 68.6515C44.138 68.6508 42.7454 68.1065 41.4761 67.133C38.6174 69.1801 35.7555 69.1831 32.9062 67.1479C30.0655 69.1689 27.2334 69.1715 24.3996 67.1697C20.698 69.1884 19.2265 69.1884 15.8144 67.1702C13.8641 68.3834 13.0405 68.6607 11.6367 68.561C11.6367 67.9848 11.6367 67.4043 11.6367 66.7398C13.4562 66.5638 14.8945 65.7297 15.7878 63.9306C16.7753 65.6518 18.1415 66.711 20.124 66.689C22.0739 66.6674 23.426 65.6279 24.2906 64.0958C24.8927 64.7106 25.4818 65.3121 26.1631 65.9811C28.814 67.4057 31.1171 66.7038 32.9053 64.0219C34.5611 67.1829 39.0048 68.0005 41.4595 64.0977C43.8769 67.9798 48.3335 67.2044 49.9897 63.9991C52.1045 67.1544 55.6757 67.637 57.7345 65.0457Z" fill="#26A5B8"/>
<path d="M36.1638 40.2667C34.6252 38.0391 34.8212 35.5407 36.6247 33.8182C38.2714 32.2454 40.8753 32.0733 42.6952 33.4449C44.2389 34.6083 44.9052 36.1931 44.5866 38.0816C44.2616 40.008 43.0847 41.3399 41.2006 41.8667C39.251 42.4118 37.5484 41.8691 36.1638 40.2667Z" fill="#26A5B8"/>
<path d="M56.0763 42.2994C54.0338 40.7903 53.674 38.3321 55.1894 36.6049C56.6386 34.9532 59.2208 34.9014 60.7434 36.4936C61.9791 37.7859 62.1215 39.8216 61.0769 41.2633C59.9391 42.8336 58.0158 43.2492 56.0763 42.2994Z" fill="#26A5B8"/>
</g>
</g>
<defs>
<clipPath id="clip0_1208_24">
<rect width="100" height="100" fill="white"/>
</clipPath>
<clipPath id="clip1_1208_24">
<rect width="80" height="48.5651" fill="white" transform="translate(10 26)"/>
</clipPath>
</defs>
</svg>
