<svg width="100" height="100" viewBox="0 0 100 100" fill="none" xmlns="http://www.w3.org/2000/svg">
<g clip-path="url(#clip0_1208_46)">
<path d="M100 50C100 22.3858 77.6142 0 50 0C22.3858 0 0 22.3858 0 50C0 77.6142 22.3858 100 50 100C77.6142 100 100 77.6142 100 50Z" fill="#DDE0E4"/>
<path d="M47.8124 27.7142C45.4936 28.3373 43.3052 30.4678 42.5806 32.8011C42.1893 34.0765 42.1893 36.091 42.5806 37.3663C43.2907 39.6707 45.3196 41.6997 47.6386 42.4098C48.8849 42.8011 50.9139 42.8011 52.1604 42.4098C54.4791 41.6997 56.5081 39.6707 57.2184 37.3663C57.6096 36.091 57.6096 34.0765 57.2184 32.8011C56.4791 30.4388 54.2906 28.3229 51.9284 27.6997C50.8704 27.4243 48.8559 27.4388 47.8124 27.7142Z" fill="#26A5B8"/>
<path d="M35.522 31.1196C34.3336 31.2646 32.7684 32.0762 31.9713 32.9747C31.6524 33.337 31.1742 34.0617 30.9278 34.5834C30.5075 35.4675 30.4785 35.6414 30.4785 37.1196C30.4785 38.6124 30.5075 38.7718 30.9423 39.6849C32.3916 42.7428 36.0727 44.0472 39.0872 42.5834C40.0003 42.1486 41.4061 40.8153 41.6959 40.1341C41.8553 39.7428 41.8408 39.6124 41.5075 38.9747C40.7829 37.5254 40.464 35.1776 40.7829 33.5109C40.8988 32.8878 40.7104 32.6414 39.6959 31.9892C38.493 31.2211 37.1017 30.9312 35.522 31.1196Z" fill="#26A5B8"/>
<path d="M62.4048 31.1341C61.4483 31.25 60.2746 31.7718 59.5353 32.395L59.0281 32.8153L59.0716 34.5979C59.1296 36.5834 58.9266 37.6993 58.2891 38.9747C57.9556 39.6124 57.9411 39.7428 58.1006 40.1341C58.3903 40.8153 59.7963 42.1486 60.7093 42.5834C63.7238 44.0471 67.4048 42.7428 68.8543 39.6848C69.2891 38.7718 69.3181 38.6124 69.3181 37.1196C69.3181 35.6848 69.2746 35.4385 68.9121 34.6703C67.6948 32.0471 65.2891 30.7428 62.4048 31.1341Z" fill="#26A5B8"/>
<path d="M43.913 44.1633C40.1738 44.9459 37.8115 46.4387 36.5941 48.7575C35.6956 50.4677 35.5941 51.0617 35.5217 55.1197L35.4492 58.7575L36.0434 59.1342C36.3622 59.3372 36.9999 59.685 37.4347 59.9025L38.2318 60.2937V61.0472C38.2318 63.743 39.6231 67.0037 41.6376 69.0037C42.7391 70.1052 43.5796 70.6995 45.087 71.3952C46.6665 72.1342 48.0145 72.4097 49.942 72.4097C53.971 72.4097 57.6232 70.4097 59.71 67.0472C60.8115 65.2792 61.5507 62.9315 61.5797 61.1342V60.4532L62.913 59.801L64.2462 59.1342V55.2357C64.2317 51.9315 64.1882 51.1777 63.971 50.3807C63.3042 47.975 62.058 46.4242 59.913 45.3807C58.5362 44.685 56.3912 44.0763 54.8405 43.9169C54.0725 43.8444 53.768 43.8879 52.7825 44.2357C51.8115 44.5836 51.4202 44.6415 50.116 44.6415C48.8405 44.6415 48.4057 44.5691 47.4637 44.2502C46.1447 43.7865 45.7245 43.7865 43.913 44.1633ZM52.8115 51.4532C55.8405 52.4242 58.2462 54.801 59.2607 57.8445C59.5652 58.714 59.6087 59.1487 59.6087 60.8155C59.6087 62.4822 59.5652 62.917 59.2607 63.7865C58.5362 65.9605 56.855 68.0907 55 69.1922C53.1737 70.2792 50.7245 70.8155 48.739 70.54C46.4782 70.2212 44.6521 69.3517 43.0869 67.8445C41.9709 66.772 41.2318 65.627 40.6521 64.0907C40.2318 62.9895 40.2028 62.801 40.2028 60.888C40.1883 58.714 40.3043 58.1487 41.0579 56.5545C42.3767 53.772 45.1592 51.685 48.3477 51.1052C49.4927 50.888 51.5362 51.0617 52.8115 51.4532Z" fill="#26A5B8"/>
<path d="M32.3768 44.1632C29.1739 44.627 26.8261 45.9747 25.9131 47.8445C25.2899 49.1342 25.1739 49.9025 25.087 53.0762L25 56.1342L25.7826 56.569C26.5942 57.0182 28.3768 57.772 28.6522 57.772C28.7536 57.772 28.8116 57.0762 28.8261 55.6995L28.8406 53.6415L29.2319 55.8155L29.6087 57.9892L30.1449 58.1632C30.7826 58.3662 33.6232 58.7865 33.7826 58.685C33.8406 58.656 33.884 57.1777 33.884 55.4097C33.884 51.5545 34.1014 50.1922 35.029 48.2792C35.6232 47.0617 36.9131 45.5255 38.0145 44.7574L38.4493 44.4531L37.8696 44.6125C37 44.8444 34.942 44.685 34.1159 44.3082C33.7246 44.1487 33.3768 44.0183 33.3188 44.0183C33.2754 44.0328 32.8406 44.0908 32.3768 44.1632Z" fill="#26A5B8"/>
<path d="M65.623 44.337C65.1013 44.5834 64.6665 44.6414 63.5215 44.6414L62.0723 44.6559L63.1013 45.6702C64.2605 46.8152 64.9998 48.1488 65.507 49.9458C65.7533 50.8733 65.8113 51.569 65.8693 54.8878L65.9418 58.7573L66.5505 58.6847C67.7823 58.54 69.7243 58.192 69.9563 58.0763C70.1158 57.9748 70.2895 57.337 70.565 55.7862L70.9563 53.6415L70.9708 55.6993C70.9853 57.0763 71.0433 57.7717 71.1448 57.7717C71.42 57.7717 73.2028 57.0182 74.0143 56.569L74.7968 56.1343L74.71 53.0763C74.623 49.9023 74.507 49.1343 73.8838 47.8443C73.1158 46.2645 71.246 45.0038 68.8548 44.4675C66.8548 44.0182 66.362 43.9892 65.623 44.337Z" fill="#26A5B8"/>
<path d="M48.0538 56.3085C48.0538 56.3163 48.0968 56.4415 48.1515 56.5865C48.2808 56.9233 48.3553 57.2288 48.4258 57.7223C48.5158 58.3448 48.5393 58.29 48.1045 58.5798C47.6425 58.8853 47.2353 59.218 46.7143 59.7233L46.3228 60.0993L46.1388 59.923C45.4925 59.3003 44.7563 58.9518 44.0592 58.94L43.7655 58.9363L43.7538 59.1438C43.7264 59.645 43.9378 60.3813 44.2511 60.8473L44.3999 61.0743L44.2316 61.3328C43.9339 61.7833 43.7185 62.5508 43.7538 63.0285L43.7655 63.2048L43.9966 63.2165C44.6388 63.2518 45.6178 62.7858 46.1895 62.1748L46.3033 62.0533L46.7378 62.4605C47.5093 63.185 48.269 63.7333 48.9623 64.0663L49.3303 64.2463L49.3028 64.587C49.2873 64.775 49.2873 65.1118 49.299 65.339L49.3263 65.75L49.44 65.7383C49.8785 65.6915 50.6148 65.3233 51.0925 64.92L51.3785 64.6733H51.6485C52.42 64.6733 53.36 64.3638 54.1353 63.8508C54.5583 63.5688 55.1378 63.0088 55.4863 62.539C55.7998 62.116 56.25 61.2505 56.25 61.0705C56.25 60.9215 55.9015 60.2205 55.6155 59.7938C55.318 59.3435 54.7933 58.7873 54.3625 58.4623C53.728 57.9805 52.843 57.6165 52.048 57.5028C51.774 57.4638 51.6878 57.4323 51.5468 57.3268C51.1825 57.0485 50.4895 56.7433 49.8473 56.5708C49.299 56.426 48.0538 56.2418 48.0538 56.3085ZM53.595 59.5198C53.7438 59.5823 53.8495 59.7545 53.8495 59.9388C53.8495 60.0248 53.8103 60.0993 53.7163 60.1933C53.6068 60.3028 53.5558 60.3263 53.4148 60.3263C52.9488 60.3225 52.8155 59.7038 53.2385 59.5198C53.3953 59.453 53.4305 59.453 53.595 59.5198Z" fill="#26A5B8"/>
</g>
<defs>
<clipPath id="clip0_1208_46">
<rect width="100" height="100" fill="white"/>
</clipPath>
</defs>
</svg>
