<svg width="24" height="24" viewBox="0 0 24 24" fill="none" xmlns="http://www.w3.org/2000/svg">
<path d="M13.217 19.7041H2.67383C2.22743 19.7041 1.86263 19.3417 1.86263 18.8929V5.91847C1.86263 5.47207 2.22743 5.10727 2.67383 5.10727H5.10743C5.55623 5.10727 5.91863 4.74487 5.91863 4.29607C5.91863 3.84967 5.55623 3.48487 5.10743 3.48487H2.67383C1.33223 3.48487 0.240234 4.57687 0.240234 5.91847V18.8953C0.240234 20.2369 1.33223 21.3289 2.67383 21.3289H13.217C13.6658 21.3289 14.0282 20.9665 14.0282 20.5177C14.0282 20.0665 13.6658 19.7041 13.217 19.7041ZM11.5946 5.10727H19.7042C20.153 5.10727 20.5154 5.47207 20.5154 5.91847V12.4057C20.5154 12.8545 20.8778 13.2169 21.3266 13.2169C21.7754 13.2169 22.1378 12.8545 22.1378 12.4057V5.91847C22.1378 4.57687 21.0458 3.48487 19.7042 3.48487H11.5946C11.1458 3.48487 10.7834 3.84727 10.7834 4.29607C10.7834 4.74247 11.1482 5.10727 11.5946 5.10727ZM17.273 7.13287C17.273 6.81367 17.405 6.49687 17.6282 6.27367C17.8538 6.04807 18.1706 5.91847 18.4874 5.91847C18.8042 5.91847 19.1234 6.05047 19.3466 6.27367C19.5722 6.49927 19.7018 6.81607 19.7018 7.13287C19.7018 7.45207 19.5698 7.76887 19.3466 7.99207C19.121 8.21767 18.8042 8.34727 18.4874 8.34727C18.1706 8.34727 17.8514 8.21527 17.6282 7.99207C17.4026 7.76887 17.273 7.45207 17.273 7.13287ZM6.72743 2.67367H9.97223C10.421 2.67367 10.7834 2.31127 10.7834 1.86247C10.7834 1.41367 10.421 1.05127 9.97223 1.05127H6.72743C6.27863 1.05127 5.91623 1.41367 5.91623 1.86247C5.91863 2.31127 6.28103 2.67367 6.72743 2.67367ZM22.949 18.0841H20.5154V15.6505C20.5154 15.2017 20.153 14.8393 19.7042 14.8393C19.2554 14.8393 18.893 15.2017 18.893 15.6505V18.0841H16.4618C16.013 18.0841 15.6506 18.4465 15.6506 18.8953C15.6506 19.3441 16.013 19.7065 16.4618 19.7065H18.8954V22.1401C18.8954 22.5889 19.2578 22.9513 19.7066 22.9513C20.1554 22.9513 20.5178 22.5889 20.5178 22.1401V19.7041H22.9514C23.4002 19.7041 23.7626 19.3417 23.7626 18.8929C23.7602 18.4465 23.3978 18.0841 22.949 18.0841Z" fill="black"/>
<path d="M17.2692 15.4659C17.1422 15.484 17.0048 15.534 16.8422 15.6215C16.6697 15.714 16.5797 15.7519 16.4555 15.7828C16.3172 15.8175 16.1653 15.819 16.0242 15.7869C15.9075 15.7606 15.8034 15.7187 15.6511 15.6372C15.6136 15.6169 15.5597 15.59 15.5316 15.5772C15.2658 15.4556 15.0103 15.4309 14.7459 15.5019C14.6428 15.5294 14.5458 15.5697 14.4164 15.639C14.273 15.7159 14.153 15.764 14.0437 15.7887C13.9167 15.8172 13.7822 15.8169 13.6561 15.7872C13.5441 15.7606 13.44 15.7175 13.268 15.6253C13.0912 15.5309 12.9487 15.4828 12.7945 15.4665C12.7331 15.46 12.6197 15.4625 12.562 15.4715C12.435 15.4909 12.2892 15.5412 12.1575 15.6109C12.1355 15.6228 12.1172 15.6334 12.1172 15.635C12.1172 15.6384 12.2484 15.7687 12.2522 15.7687C12.2531 15.7687 12.2747 15.7584 12.2995 15.7456C12.5372 15.6244 12.713 15.6025 12.9159 15.6681C12.9909 15.6925 13.0523 15.72 13.1602 15.7778C13.2708 15.8372 13.3617 15.8778 13.4541 15.9094C13.5586 15.945 13.6387 15.9631 13.7437 15.9753C13.7934 15.9812 13.9233 15.9803 13.9781 15.974C14.1586 15.9534 14.3358 15.8928 14.5477 15.7797C14.6456 15.7272 14.7098 15.6984 14.7773 15.6765C14.8725 15.6456 14.9423 15.6344 15.0361 15.6344C15.1931 15.6344 15.3244 15.6728 15.5156 15.7753C15.7144 15.8815 15.8662 15.9375 16.0336 15.9656C16.1105 15.9787 16.1648 15.9822 16.26 15.9806C16.3941 15.9781 16.492 15.9606 16.6336 15.914C16.7302 15.8825 16.8262 15.8403 16.9312 15.784C17.0377 15.7269 17.0934 15.6997 17.1445 15.6794C17.2814 15.6259 17.3878 15.6162 17.513 15.6469C17.5805 15.6631 17.6691 15.6994 17.7577 15.7469C17.7802 15.7587 17.8003 15.7687 17.8022 15.7687C17.8041 15.7687 17.8359 15.7384 17.8734 15.7012L17.9414 15.634L17.9297 15.6278C17.7591 15.5372 17.6461 15.494 17.5148 15.4697C17.4544 15.4584 17.3334 15.4565 17.2692 15.4659Z" fill="black"/>
<path d="M17.2857 15.9269C17.1831 15.9394 17.0607 15.9775 16.9384 16.0356C16.9206 16.0444 16.87 16.0703 16.8259 16.0937C16.6553 16.1844 16.5536 16.225 16.4317 16.2519C16.3576 16.2678 16.3103 16.2731 16.2329 16.2731C16.1261 16.2731 16.0436 16.26 15.9329 16.2247C15.8387 16.1944 15.7754 16.1669 15.6564 16.1031C15.5401 16.0412 15.4839 16.0162 15.3887 15.9847C15.1506 15.9056 14.9232 15.9053 14.6837 15.984C14.6017 16.0109 14.5262 16.044 14.4353 16.0925C14.2965 16.1665 14.2365 16.1934 14.1447 16.2234C14.0331 16.26 13.9539 16.2731 13.8493 16.2728C13.75 16.2725 13.6736 16.2597 13.5681 16.225C13.48 16.1962 13.4073 16.1631 13.2704 16.0897C13.1106 16.0034 12.9667 15.9534 12.8204 15.9325C12.7651 15.9244 12.6381 15.9244 12.5795 15.9322C12.4792 15.9456 12.3629 15.9797 12.2579 16.0265C12.1797 16.0612 12.1197 16.0931 12.1201 16.0994C12.1201 16.1025 12.1501 16.134 12.1862 16.1697L12.2523 16.2347L12.2682 16.2256C12.2767 16.2206 12.3039 16.2069 12.3282 16.1947C12.5518 16.0856 12.7225 16.0678 12.9217 16.1328C12.9897 16.155 13.0529 16.1837 13.1509 16.2359C13.2437 16.2856 13.315 16.3197 13.3806 16.3459C13.6618 16.4584 13.9248 16.4731 14.2014 16.3912C14.3129 16.3581 14.4212 16.3112 14.5707 16.2306C14.6617 16.1815 14.7578 16.1422 14.8361 16.1222C14.9561 16.0912 15.0868 16.089 15.2087 16.1159C15.3034 16.1369 15.392 16.1725 15.5228 16.2425C15.6737 16.3231 15.8209 16.3819 15.947 16.4115C16.2789 16.49 16.5911 16.435 16.9572 16.2337C17.0884 16.1615 17.1793 16.124 17.2689 16.1047C17.3265 16.0922 17.4015 16.0903 17.4634 16.0997C17.5417 16.1119 17.6439 16.15 17.7536 16.2081L17.8028 16.234L17.8712 16.1669C17.9514 16.0881 17.9518 16.1015 17.8675 16.0587C17.6809 15.964 17.5272 15.9212 17.3748 15.9222C17.3462 15.9222 17.3059 15.9244 17.2857 15.9269Z" fill="black"/>
<path d="M17.2969 16.3891C17.1567 16.4044 17.0011 16.46 16.8211 16.5594C16.6505 16.6538 16.4958 16.7094 16.35 16.73C16.3308 16.7325 16.2886 16.7357 16.2563 16.7366C16.072 16.7422 15.8888 16.691 15.6656 16.5719C15.5358 16.5025 15.4622 16.4697 15.3722 16.4419C15.0586 16.345 14.7614 16.3804 14.4394 16.5538C14.3236 16.616 14.2781 16.6375 14.197 16.6688C14.0288 16.7332 13.8703 16.7519 13.7147 16.7254C13.5858 16.7038 13.4681 16.6594 13.3031 16.5704C13.1095 16.466 12.9788 16.4185 12.8231 16.3963C12.7561 16.3869 12.6408 16.3869 12.5752 16.3963C12.4673 16.4119 12.3609 16.4438 12.2531 16.4919C12.188 16.5213 12.1172 16.5579 12.1172 16.5622C12.1172 16.5641 12.2442 16.6919 12.2508 16.6963C12.2517 16.6969 12.2723 16.6869 12.2967 16.6741C12.4177 16.611 12.5231 16.5754 12.6272 16.5622C12.645 16.56 12.6797 16.5591 12.7186 16.5604C12.7936 16.5622 12.8391 16.57 12.9188 16.5957C12.9881 16.6179 13.0467 16.6441 13.147 16.6975C13.2384 16.7466 13.2928 16.7732 13.3491 16.7966C13.4944 16.8572 13.627 16.8916 13.7611 16.9035C13.8225 16.9088 13.9481 16.9054 14.0086 16.8969C14.1816 16.8725 14.3489 16.8132 14.55 16.705C14.6995 16.6244 14.8069 16.5854 14.9306 16.5669C14.978 16.5597 15.0923 16.5597 15.1406 16.5669C15.1964 16.575 15.2325 16.5838 15.293 16.6032C15.3614 16.625 15.4219 16.6519 15.5086 16.6982C15.6647 16.7816 15.7622 16.8232 15.8841 16.8582C16.1358 16.931 16.3744 16.926 16.6289 16.8422C16.7419 16.8054 16.815 16.7729 16.958 16.6966C17.1253 16.6072 17.2219 16.571 17.3241 16.5591C17.3648 16.5544 17.4356 16.5572 17.4797 16.5657C17.5533 16.5797 17.6531 16.6182 17.7539 16.6713C17.7797 16.685 17.8022 16.6957 17.8041 16.695C17.8055 16.6944 17.8369 16.6641 17.8734 16.6279C17.9381 16.5638 17.94 16.5616 17.9316 16.5563C17.9105 16.5429 17.8242 16.5 17.7727 16.4772C17.7094 16.4494 17.6123 16.4166 17.5594 16.405C17.4759 16.3869 17.3738 16.3807 17.2969 16.3891Z" fill="black"/>
<path d="M15.2409 9.00817C15.1883 9.02296 15.134 9.06406 15.1077 9.11337C15.0897 9.14954 15.0847 9.24981 15.0847 9.61804V10.0767L14.917 10.1556C14.7132 10.2509 14.4387 10.4219 14.2661 10.5616C14.197 10.6175 14.0359 10.7638 13.9094 10.8887C13.574 11.2159 13.5395 11.2192 13.2683 10.9463C12.8326 10.5074 12.4332 10.3068 12.1767 10.4005C12.0945 10.4301 12.0304 10.5172 12.0091 10.629C11.9713 10.8148 12.0518 11.0844 12.2491 11.423C12.3806 11.6482 12.3822 11.6745 12.2803 11.8323C12.1241 12.074 12.0419 12.2926 12.0304 12.503C12.0173 12.7496 12.0847 12.8597 12.2491 12.8597C12.5466 12.8597 12.9444 12.6099 13.2502 12.2301C13.3307 12.1299 13.431 12.0707 13.5165 12.0707C13.6299 12.0723 13.7121 12.1249 13.8962 12.3173C14.2217 12.6575 14.6228 12.9403 15.0239 13.1129L15.0847 13.1392V13.6011C15.0847 14.0367 15.0864 14.068 15.1176 14.1173C15.1554 14.1781 15.2277 14.2143 15.3066 14.211C15.3642 14.2093 15.5286 14.1436 15.5286 14.1239C15.5286 14.1173 15.545 14.1091 15.5664 14.1025C15.614 14.091 15.8919 13.9069 16.0464 13.7836C16.1105 13.7326 16.2387 13.6126 16.3341 13.5156L16.5067 13.3397L16.6053 13.3299C16.6842 13.3216 16.9554 13.2707 17.0327 13.2477C17.2349 13.1901 17.5078 13.0816 17.6656 12.9962C17.8645 12.8877 18.0305 12.7825 18.0404 12.7562C18.0437 12.7496 18.0535 12.7447 18.0617 12.7447C18.0946 12.7447 18.4201 12.4504 18.5796 12.2745C18.7012 12.1414 18.9281 11.8389 18.9807 11.7435C19.0053 11.6959 19.007 11.5266 18.9823 11.4805C18.882 11.2931 18.4678 10.7967 18.2985 10.6602C17.945 10.3742 17.6837 10.2148 17.3516 10.0816C17.2349 10.0356 17.1247 9.99448 17.1067 9.98955C17.031 9.97311 17.013 9.96982 16.9439 9.9501C16.8815 9.93366 16.7713 9.91229 16.6546 9.89256C16.6365 9.88927 16.5971 9.88599 16.5658 9.88599C16.5165 9.88434 16.4919 9.86626 16.3932 9.75941C16.122 9.4668 15.6502 9.12159 15.3954 9.02954C15.305 8.99502 15.2968 8.99502 15.2409 9.00817ZM17.6228 11.257C17.7001 11.2931 17.7856 11.377 17.8234 11.4493C17.8596 11.5183 17.8711 11.6827 17.848 11.7698C17.8201 11.8718 17.7363 11.972 17.6327 12.0263C17.5505 12.069 17.5308 12.0723 17.419 12.0674C17.2826 12.0592 17.2168 12.0329 17.1346 11.949C17.0574 11.8734 17.0195 11.783 17.0113 11.6646C17.0064 11.5824 17.0113 11.5479 17.0442 11.4756C17.1247 11.303 17.2711 11.2109 17.4519 11.2208C17.5127 11.2224 17.5867 11.2389 17.6228 11.257Z" fill="black"/>
<path d="M7.24089 13.0082C7.18829 13.023 7.13404 13.0641 7.10774 13.1134C7.08965 13.1495 7.08472 13.2498 7.08472 13.618V14.0767L6.91705 14.1556C6.71321 14.2509 6.43869 14.4219 6.26608 14.5616C6.19704 14.6175 6.03594 14.7638 5.90936 14.8887C5.57402 15.2159 5.5395 15.2192 5.26826 14.9463C4.83264 14.5074 4.43318 14.3068 4.17674 14.4005C4.09455 14.4301 4.03044 14.5172 4.00907 14.629C3.97126 14.8148 4.05181 15.0844 4.24907 15.423C4.38058 15.6482 4.38222 15.6745 4.2803 15.8323C4.12414 16.074 4.04194 16.2926 4.03044 16.503C4.01728 16.7496 4.08468 16.8597 4.24907 16.8597C4.54661 16.8597 4.94442 16.6099 5.25018 16.2301C5.33073 16.1299 5.431 16.0707 5.51648 16.0707C5.62991 16.0723 5.7121 16.1249 5.89621 16.3173C6.2217 16.6575 6.6228 16.9403 7.0239 17.1129L7.08472 17.1392V17.6011C7.08472 18.0367 7.08637 18.068 7.1176 18.1173C7.15541 18.1781 7.22774 18.2143 7.30664 18.211C7.36418 18.2093 7.52856 18.1436 7.52856 18.1239C7.52856 18.1173 7.545 18.1091 7.56637 18.1025C7.61404 18.091 7.89186 17.9069 8.04638 17.7836C8.11049 17.7326 8.23871 17.6126 8.33405 17.5156L8.50666 17.3397L8.60529 17.3299C8.6842 17.3216 8.95543 17.2707 9.03269 17.2477C9.23489 17.1901 9.50777 17.0816 9.66558 16.9962C9.86449 16.8877 10.0305 16.7825 10.0404 16.7562C10.0437 16.7496 10.0535 16.7447 10.0617 16.7447C10.0946 16.7447 10.4201 16.4504 10.5796 16.2745C10.7012 16.1414 10.9281 15.8389 10.9807 15.7435C11.0053 15.6959 11.007 15.5266 10.9823 15.4805C10.882 15.2931 10.4678 14.7967 10.2985 14.6602C9.94503 14.3742 9.68366 14.2148 9.3516 14.0816C9.23489 14.0356 9.12475 13.9945 9.10667 13.9895C9.03105 13.9731 9.01297 13.9698 8.94392 13.9501C8.88146 13.9337 8.77132 13.9123 8.65461 13.8926C8.63652 13.8893 8.59707 13.886 8.56584 13.886C8.51652 13.8843 8.49186 13.8663 8.39323 13.7594C8.122 13.4668 7.65021 13.1216 7.39541 13.0295C7.305 12.995 7.29678 12.995 7.24089 13.0082ZM9.62284 15.257C9.7001 15.2931 9.78558 15.377 9.82339 15.4493C9.85955 15.5183 9.87106 15.6827 9.84805 15.7698C9.8201 15.8718 9.73626 15.972 9.6327 16.0263C9.55051 16.069 9.53078 16.0723 9.419 16.0674C9.28256 16.0592 9.21681 16.0329 9.13461 15.949C9.05735 15.8734 9.01954 15.783 9.01132 15.6646C9.00639 15.5824 9.01132 15.5479 9.0442 15.4756C9.12475 15.303 9.27105 15.2109 9.45188 15.2208C9.5127 15.2224 9.58667 15.2389 9.62284 15.257Z" fill="black"/>
<path d="M7.24089 6.00817C7.18829 6.02296 7.13404 6.06406 7.10774 6.11337C7.08965 6.14954 7.08472 6.24981 7.08472 6.61804V7.07667L6.91705 7.15558C6.71321 7.25092 6.43869 7.42188 6.26608 7.56161C6.19704 7.6175 6.03594 7.76381 5.90936 7.88874C5.57402 8.21587 5.5395 8.21915 5.26826 7.94627C4.83264 7.50736 4.43318 7.30681 4.17674 7.40051C4.09455 7.4301 4.03044 7.51723 4.00907 7.62901C3.97126 7.81477 4.05181 8.08436 4.24907 8.42299C4.38058 8.6482 4.38222 8.6745 4.2803 8.83231C4.12414 9.07396 4.04194 9.29259 4.03044 9.50301C4.01728 9.74959 4.08468 9.85972 4.24907 9.85972C4.54661 9.85972 4.94442 9.60986 5.25018 9.23013C5.33073 9.12985 5.431 9.07067 5.51648 9.07067C5.62991 9.07232 5.7121 9.12492 5.89621 9.31725C6.2217 9.65753 6.6228 9.94027 7.0239 10.1129L7.08472 10.1392V10.6011C7.08472 11.0367 7.08637 11.068 7.1176 11.1173C7.15541 11.1781 7.22774 11.2143 7.30664 11.211C7.36418 11.2093 7.52856 11.1436 7.52856 11.1239C7.52856 11.1173 7.545 11.1091 7.56637 11.1025C7.61404 11.091 7.89186 10.9069 8.04638 10.7836C8.11049 10.7326 8.23871 10.6126 8.33405 10.5156L8.50666 10.3397L8.60529 10.3299C8.6842 10.3216 8.95543 10.2707 9.03269 10.2477C9.23489 10.1901 9.50777 10.0816 9.66558 9.99616C9.86449 9.88767 10.0305 9.78246 10.0404 9.75616C10.0437 9.74959 10.0535 9.74465 10.0617 9.74465C10.0946 9.74465 10.4201 9.4504 10.5796 9.27451C10.7012 9.14136 10.9281 8.83889 10.9807 8.74355C11.0053 8.69587 11.007 8.52656 10.9823 8.48053C10.882 8.29313 10.4678 7.79668 10.2985 7.66024C9.94503 7.37421 9.68366 7.21476 9.3516 7.08161C9.23489 7.03558 9.12475 6.99448 9.10667 6.98955C9.03105 6.97311 9.01297 6.96982 8.94392 6.9501C8.88146 6.93366 8.77132 6.91229 8.65461 6.89256C8.63652 6.88927 8.59707 6.88599 8.56584 6.88599C8.51652 6.88434 8.49186 6.86626 8.39323 6.75941C8.122 6.4668 7.65021 6.12159 7.39541 6.02954C7.305 5.99502 7.29678 5.99502 7.24089 6.00817ZM9.62284 8.25696C9.7001 8.29313 9.78558 8.37697 9.82339 8.44929C9.85955 8.51834 9.87106 8.68272 9.84805 8.76985C9.8201 8.87177 9.73626 8.97204 9.6327 9.02629C9.55051 9.06903 9.53078 9.07232 9.419 9.06739C9.28256 9.05917 9.21681 9.03286 9.13461 8.94903C9.05735 8.87341 9.01954 8.783 9.01132 8.66464C9.00639 8.58245 9.01132 8.54793 9.0442 8.4756C9.12475 8.30299 9.27105 8.21094 9.45188 8.2208C9.5127 8.22244 9.58667 8.23888 9.62284 8.25696Z" fill="black"/>
</svg>
