<svg width="24" height="24" viewBox="0 0 24 24" fill="none" xmlns="http://www.w3.org/2000/svg">
<path d="M8.0098 3.37032C7.9273 3.38382 7.7728 3.43932 7.6948 3.48282C7.4173 3.63882 7.2058 3.88332 6.8083 4.50732C6.5428 4.92432 6.4303 5.08332 6.3193 5.19282L6.2338 5.27982H4.0213C2.5618 5.27982 1.7743 5.28582 1.7098 5.29632C1.3603 5.35182 1.0423 5.53182 0.814305 5.80482C0.698805 5.94132 0.568305 6.19482 0.520305 6.37482L0.487305 6.50232V12.9598V19.4173L0.521805 19.5448C0.539805 19.6153 0.592305 19.7458 0.637305 19.8373C0.782805 20.1313 0.989805 20.3368 1.2823 20.4823C1.3738 20.5273 1.5043 20.5798 1.5748 20.5978L1.7023 20.6323H11.9998H22.2973L22.4248 20.5978C22.8583 20.4778 23.1988 20.1943 23.3848 19.7938C23.4163 19.7278 23.4583 19.6153 23.4778 19.5448L23.5123 19.4173V12.9598V6.50232L23.4778 6.37482C23.3218 5.80182 22.8658 5.38782 22.2898 5.29632C22.2253 5.28582 21.4378 5.27982 19.9783 5.27982H17.7658L17.6803 5.19282C17.5708 5.08332 17.4598 4.92732 17.1898 4.50432C16.7233 3.77382 16.4923 3.53382 16.1248 3.40182L16.0273 3.36732L12.0373 3.36582C9.8428 3.36432 8.0308 3.36732 8.0098 3.37032ZM15.9238 4.39782C16.0423 4.50882 16.1428 4.64832 16.4143 5.07582C16.6948 5.51532 16.8178 5.68632 16.9768 5.85282C17.1418 6.02532 17.2828 6.12132 17.4898 6.20082L17.5723 6.23232L19.8898 6.23982L22.2073 6.24732L22.2928 6.28932C22.3903 6.33732 22.4743 6.42282 22.5208 6.52332L22.5523 6.59232V12.9598V19.3273L22.5103 19.4128C22.4638 19.5073 22.3813 19.5868 22.2763 19.6378L22.2073 19.6723H11.9998H1.7923L1.7233 19.6378C1.6183 19.5868 1.5358 19.5073 1.4893 19.4128L1.4473 19.3273V12.9598V6.59232L1.4893 6.50682C1.5373 6.40932 1.6228 6.32532 1.7233 6.27882L1.7923 6.24732L4.1098 6.23982L6.4273 6.23232L6.5098 6.20082C6.7168 6.12132 6.8578 6.02532 7.0228 5.85282C7.1818 5.68632 7.3048 5.51532 7.5853 5.07582C7.8568 4.64832 7.9573 4.50882 8.0758 4.39782L8.1583 4.31982H11.9998H15.8413L15.9238 4.39782Z" fill="#fff"/>
<path d="M11.6773 8.1704C10.9258 8.2184 10.1203 8.4764 9.4813 8.8739C9.1768 9.0629 9.1123 9.1469 9.1123 9.3599C9.1123 9.4694 9.1183 9.4994 9.1543 9.5729C9.2068 9.6794 9.3328 9.7979 9.4288 9.8309C9.5173 9.8609 9.6508 9.8624 9.7333 9.8324C9.7678 9.8204 9.8413 9.7814 9.8968 9.7454C10.3918 9.4259 10.9168 9.2339 11.5273 9.1469C11.7073 9.1214 12.2968 9.1229 12.4798 9.1484C13.5328 9.2939 14.4358 9.8174 15.0598 10.6424C15.4813 11.2019 15.7618 11.9249 15.8173 12.6014L15.8278 12.7274L15.4183 12.3209C14.9398 11.8484 14.9323 11.8424 14.7223 11.8424C14.6053 11.8424 14.5768 11.8484 14.5108 11.8829C14.2948 11.9969 14.1958 12.2579 14.2813 12.4904C14.3113 12.5729 14.3668 12.6299 15.3163 13.5824L16.3198 14.5874L17.3218 13.5824C18.4378 12.4649 18.3958 12.5144 18.3973 12.3149C18.3973 12.1739 18.3493 12.0659 18.2398 11.9639C18.1318 11.8619 18.0478 11.8274 17.9098 11.8274C17.7253 11.8274 17.7058 11.8409 17.2183 12.3254L16.7893 12.7514L16.7788 12.5969C16.7143 11.6369 16.3168 10.6559 15.6838 9.8924C15.5533 9.7364 15.2503 9.4304 15.0973 9.3014C14.1418 8.4929 12.9253 8.0894 11.6773 8.1704Z" fill="#fff"/>
<path d="M6.67352 11.8453C5.88152 12.6388 5.66702 12.8623 5.63852 12.9223C5.59052 13.0243 5.58902 13.1908 5.63552 13.2928C5.68052 13.3918 5.79302 13.5073 5.89352 13.5553C5.96252 13.5898 5.99702 13.5973 6.09002 13.5973C6.27452 13.5973 6.29402 13.5838 6.78002 13.1008L7.20752 12.6763L7.20902 13.0168C7.20902 13.4503 7.24202 13.7128 7.35002 14.1448C7.67702 15.4543 8.59652 16.6063 9.80552 17.2243C10.2765 17.4643 10.701 17.6053 11.211 17.6923C12.4545 17.9023 13.743 17.6068 14.7795 16.8718C14.9445 16.7548 15.1605 16.5778 15.2475 16.4893C15.435 16.3003 15.423 16.0048 15.222 15.8158C15.117 15.7168 15.033 15.6823 14.895 15.6823C14.754 15.6823 14.691 15.7108 14.5185 15.8578C14.2425 16.0918 14.0085 16.2478 13.695 16.4038C12.5145 16.9918 11.064 16.9168 9.95252 16.2088C8.88002 15.5278 8.22752 14.4058 8.16602 13.1398C8.16002 13.0288 8.16002 12.8848 8.16752 12.8188L8.17802 12.7018L8.59202 13.1128C9.06452 13.5823 9.08552 13.5973 9.27002 13.5973C9.36302 13.5973 9.39752 13.5898 9.46652 13.5553C9.56702 13.5073 9.67952 13.3918 9.72452 13.2928C9.77102 13.1908 9.76952 13.0243 9.72152 12.9223C9.69302 12.8623 9.48152 12.6433 8.68652 11.8453C8.13752 11.2948 7.68452 10.8448 7.68002 10.8448C7.67552 10.8448 7.22252 11.2948 6.67352 11.8453Z" fill="#fff"/>
</svg>
