<svg width="20" height="17" viewBox="0 0 20 17" fill="none" xmlns="http://www.w3.org/2000/svg">
<path d="M2.5 5H8.125V3.75H2.5V5ZM9.375 12.5H13.75V11.25H9.375V12.5ZM9.375 10H15V8.75H9.375V10ZM9.375 7.5H15V6.25H9.375V7.5ZM2.5 12.5H8.125V6.25H2.5V12.5ZM17.5 2.5V0H0V13.75C0 13.75 0 16.25 2.5 16.25H18.125C18.125 16.25 20 16.2113 20 13.75V2.5H17.5ZM2.5 15C1.25 15 1.25 13.75 1.25 13.75V1.25H16.25V13.75C16.25 14.3256 16.4275 14.7237 16.6725 15H2.5Z" fill="#26A5B8"/>
<path d="M4.61111 8.13082C4.30672 8.15309 4.02655 8.22733 3.75811 8.35706C3.55101 8.45709 3.37713 8.579 3.22747 8.72866C3.00318 8.95295 2.86486 9.21592 2.82188 9.50038C2.81133 9.56877 2.80937 9.71178 2.81758 9.77586C2.8379 9.92864 2.89104 10.0783 2.97544 10.2198C3.24271 10.6679 3.76788 10.9837 4.38916 11.0708C4.64198 11.1064 4.90729 11.1009 5.15894 11.0556C5.59774 10.9758 5.99787 10.7797 6.33704 10.4769C6.38823 10.4311 6.49685 10.3217 6.54062 10.2721C6.57344 10.2346 6.64221 10.1498 6.66917 10.1127C6.67972 10.0982 6.68949 10.0877 6.69106 10.0892C6.69262 10.0912 6.70278 10.1127 6.71411 10.1373C6.75318 10.2248 6.81922 10.3389 6.87979 10.4245C7.06305 10.6836 7.31899 10.893 7.6097 11.0216C7.67769 11.0517 7.79179 11.0946 7.80351 11.0946C7.81836 11.0946 7.82227 11.1071 7.7281 10.8426C7.67574 10.6957 7.55969 10.3686 7.53859 10.3092C7.52608 10.2737 7.47841 10.14 7.43308 10.0123C7.38737 9.88449 7.34556 9.76648 7.34048 9.75046L7.33032 9.72116L7.36001 9.62933C7.3987 9.50937 7.49052 9.22335 7.53663 9.08033C7.58626 8.92677 7.70739 8.55048 7.76522 8.37034L7.8125 8.22342L7.81133 8.18279L7.81016 8.14176L7.71989 8.20662C7.58079 8.30665 7.49209 8.37542 7.38229 8.46842C7.15761 8.65832 6.91886 8.90215 6.74146 9.12214C6.70747 9.16512 6.69848 9.17372 6.69848 9.16473C6.69848 9.16278 6.6809 9.1366 6.6594 9.10651C6.31945 8.62785 5.81344 8.29376 5.24685 8.17419C5.04679 8.13199 4.81547 8.11597 4.61111 8.13082Z" fill="white"/>
<circle cx="4.0625" cy="9.6875" r="0.3125" fill="#26A5B8"/>
</svg>
