<svg width="24" height="24" viewBox="0 0 24 24" fill="none" xmlns="http://www.w3.org/2000/svg">
<path d="M8.74823 17.9808C8.74823 16.776 7.76663 15.792 6.55943 15.792C5.35223 15.792 4.37063 16.7736 4.37063 17.9808V18.5928H1.74503V2.66398H20.4026V12.264H21.9074V1.91278C21.9074 1.49758 21.5714 1.15918 21.1562 1.15918H0.991434C0.576234 1.15918 0.240234 1.49518 0.240234 1.91278V19.344C0.240234 19.7592 0.576234 20.0976 0.991434 20.0976H5.12183C5.53703 20.0976 5.87303 19.7616 5.87303 19.344V17.9808C5.87303 17.604 6.18023 17.2992 6.55703 17.2992C6.93383 17.2992 7.24103 17.6064 7.24103 17.9808V19.344C7.24103 19.7592 7.57703 20.0976 7.99223 20.0976H12.581V18.5928H8.74823V17.9808Z" fill="#A6A6A6"/>
<path d="M5.5752 8.16196C5.5752 8.34916 5.7192 8.50276 5.8968 8.50276C5.8992 8.50276 5.9016 8.50276 5.904 8.50276C5.9712 9.40276 6.6792 10.3052 7.5456 10.3052C8.412 10.3052 9.11999 9.40276 9.18719 8.50276C9.18959 8.50276 9.1896 8.50276 9.192 8.50276C9.372 8.50276 9.5136 8.34916 9.5136 8.16196C9.5136 8.02276 9.4344 7.90276 9.324 7.84996C9.3888 7.64836 9.4248 7.43236 9.4248 7.20436C9.4248 6.10276 8.5824 5.20996 7.5456 5.20996C6.5088 5.20996 5.6664 6.10276 5.6664 7.20436C5.6664 7.42996 5.7024 7.64596 5.7672 7.84996C5.6544 7.90276 5.5752 8.02276 5.5752 8.16196Z" fill="#A6A6A6"/>
<path d="M3.37695 12.6987V13.3251C3.37695 13.4235 3.45615 13.5003 3.55215 13.5003H11.5394C11.6354 13.5003 11.7146 13.4235 11.7146 13.3251V12.6987C11.7146 12.6507 11.6954 12.6051 11.6618 12.5715C10.8938 11.8275 9.95775 11.2995 8.94975 11.0499C8.92335 11.0355 8.89455 11.0283 8.86575 11.0283H8.77455C8.74575 11.0283 8.71695 11.0355 8.69295 11.0499C8.38815 11.2131 7.97055 11.3067 7.54815 11.3067C7.12575 11.3067 6.70815 11.2131 6.40335 11.0499C6.37695 11.0355 6.35055 11.0283 6.31935 11.0283H6.25215C6.23775 11.0283 6.22575 11.0307 6.21135 11.0331C5.17695 11.2779 4.21695 11.8107 3.42975 12.5715C3.39615 12.6051 3.37695 12.6507 3.37695 12.6987Z" fill="#A6A6A6"/>
<path d="M12.886 8.28209H18.4852C18.6508 8.28209 18.7852 8.14769 18.7852 7.97969C18.7852 7.81409 18.6508 7.67969 18.4852 7.67969H12.886C12.7204 7.67969 12.586 7.81409 12.586 7.97969C12.5836 8.14529 12.718 8.28209 12.886 8.28209Z" fill="#A6A6A6"/>
<path d="M12.8859 5.29883C12.7203 5.29883 12.5859 5.43323 12.5859 5.59883C12.5859 5.76683 12.7203 5.90123 12.8859 5.90123H18.4851C18.6507 5.90123 18.7851 5.76683 18.7851 5.59883C18.7851 5.43323 18.6507 5.29883 18.4851 5.29883H12.8859Z" fill="#A6A6A6"/>
<path d="M17.5561 10.4326C14.1361 10.4326 11.3521 13.2166 11.3521 16.6366C11.3521 20.0566 14.1361 22.8406 17.5561 22.8406C20.9761 22.8406 23.7601 20.0566 23.7601 16.6366C23.7601 13.2166 20.9761 10.4326 17.5561 10.4326ZM17.5561 21.883C14.6617 21.883 12.3097 19.5286 12.3097 16.6366C12.3097 13.7446 14.6641 11.3902 17.5561 11.3902C20.4481 11.3902 22.8025 13.7446 22.8025 16.6366C22.8025 19.531 20.4505 21.883 17.5561 21.883Z" fill="#A6A6A6"/>
<path d="M20.6548 15.914H18.3604V13.514C18.3604 13.3052 18.19 13.1348 17.9812 13.1348H17.2252C17.0164 13.1348 16.846 13.3052 16.846 13.514V15.914H14.5516C14.3428 15.914 14.1724 16.0844 14.1724 16.2932V17.0036C14.1724 17.2124 14.3428 17.3828 14.5516 17.3828H16.846V19.8068C16.846 20.0156 17.0164 20.186 17.2252 20.186H17.9812C18.19 20.186 18.3604 20.0156 18.3604 19.8068V17.3828H20.6548C20.8636 17.3828 21.034 17.2124 21.034 17.0036V16.2932C21.034 16.0844 20.8636 15.914 20.6548 15.914Z" fill="#A6A6A6"/>
</svg>
