<svg width="33" height="30" viewBox="0 0 33 30" fill="none" xmlns="http://www.w3.org/2000/svg">
<g clip-path="url(#clip0_1450_4237)">
<path d="M13.4062 4.6875C15.3149 4.68751 17.1646 5.28916 18.64 6.38995C20.1154 7.49073 21.1253 9.02253 21.4977 10.7244C21.8701 12.4262 21.5818 14.1927 20.682 15.723C19.7823 17.2533 18.3267 18.4526 16.5633 19.1166C14.7999 19.7806 12.8378 19.8682 11.0113 19.3645C9.18483 18.8608 7.60696 17.797 6.54656 16.3543C5.48616 14.9115 5.00885 13.1792 5.19594 11.4523C5.38303 9.72553 6.22295 8.11112 7.5726 6.88418C8.33688 6.18553 9.24601 5.63163 10.2474 5.25457C11.2487 4.87751 12.3224 4.68476 13.4062 4.6875ZM13.4062 0C6.00188 0 0 5.45625 0 12.1875C0 18.9188 6.00188 24.375 13.4062 24.375C20.8106 24.375 26.8125 18.9188 26.8125 12.1875C26.8125 5.45625 20.8106 0 13.4062 0Z" fill="#9E9EA7"/>
<path d="M32.5424 27.9317L30.7184 29.5899C30.5752 29.7208 30.405 29.8247 30.2175 29.8956C30.03 29.9665 29.8289 30.003 29.6259 30.003C29.4228 30.003 29.2218 29.9665 29.0343 29.8956C28.8468 29.8247 28.6766 29.7208 28.5334 29.5899L22.1074 23.7481C21.9639 23.6171 21.8502 23.4618 21.7728 23.2908C21.6953 23.1199 21.6558 22.9368 21.6563 22.752V21.7969L23.9766 19.6875H25.0272C25.2305 19.6871 25.4319 19.723 25.6199 19.7934C25.8079 19.8638 25.9788 19.9672 26.1229 20.0977L32.5488 25.9395C32.8375 26.2049 32.9989 26.5635 32.9977 26.9368C32.9964 27.31 32.8328 27.6677 32.5424 27.9317Z" fill="#9E9EA7"/>
</g>
<defs>
<clipPath id="clip0_1450_4237">
<rect width="33" height="30" fill="white"/>
</clipPath>
</defs>
</svg>
