<svg width="24" height="28" viewBox="0 0 24 28" fill="none" xmlns="http://www.w3.org/2000/svg">
<g clip-path="url(#clip0_404:4647)">
<path d="M18.8571 17.8599C17.325 17.8599 15.9536 18.519 15.0107 19.5632L9.89464 16.4149C10.4089 15.181 10.4143 13.7888 9.89464 12.5548L15.0107 9.40654C15.9536 10.4507 17.325 11.1099 18.8571 11.1099C21.6964 11.1099 24 8.84229 24 6.04736C24 3.25244 21.6964 0.984863 18.8571 0.984863C16.0179 0.984863 13.7143 3.25244 13.7143 6.04736C13.7143 6.73291 13.8536 7.38154 14.1 7.97744L8.98393 11.1257C8.04643 10.0815 6.675 9.42236 5.14286 9.42236C2.30357 9.42236 0 11.6899 0 14.4849C0 17.2798 2.30357 19.5474 5.14286 19.5474C6.675 19.5474 8.04643 18.8882 8.98928 17.844L14.1054 20.9923C13.8536 21.5882 13.7196 22.2368 13.7196 22.9224C13.7196 25.7173 16.0232 27.9849 18.8625 27.9849C21.7018 27.9849 24.0054 25.7173 24.0054 22.9224C24 20.1274 21.6964 17.8599 18.8571 17.8599ZM18.8571 2.67236C20.7482 2.67236 22.2857 4.18584 22.2857 6.04736C22.2857 7.90889 20.7482 9.42236 18.8571 9.42236C16.9661 9.42236 15.4286 7.90889 15.4286 6.04736C15.4286 4.18584 16.9661 2.67236 18.8571 2.67236ZM5.14286 17.8599C3.25178 17.8599 1.71429 16.3464 1.71429 14.4849C1.71429 12.6233 3.25178 11.1099 5.14286 11.1099C7.03393 11.1099 8.57143 12.6233 8.57143 14.4849C8.57143 16.3464 7.03393 17.8599 5.14286 17.8599ZM18.8571 26.2974C16.9661 26.2974 15.4286 24.7839 15.4286 22.9224C15.4286 21.0608 16.9661 19.5474 18.8571 19.5474C20.7482 19.5474 22.2857 21.0608 22.2857 22.9224C22.2857 24.7839 20.7482 26.2974 18.8571 26.2974Z" fill="black"/>
</g>
<defs>
<clipPath id="clip0_404:4647">
<rect width="24" height="27" fill="white" transform="translate(0 0.984863)"/>
</clipPath>
</defs>
</svg>
