
<svg width="32" height="30" viewBox="0 0 32 30" fill="none" xmlns="http://www.w3.org/2000/svg">
<path fill-rule="evenodd" clip-rule="evenodd" d="M15.0794 0.577267L10.8939 9.43767L0.886845 10.7042C0.693965 10.7283 0.512192 10.8063 0.363148 10.929C0.214105 11.0517 0.104066 11.2139 0.0461195 11.3962C-0.0118267 11.5786 -0.0152404 11.7735 0.0362844 11.9577C0.0878092 12.1419 0.192104 12.3077 0.336762 12.4353L7.73853 18.9822L5.74422 28.8069C5.70583 28.9952 5.7236 29.1904 5.79537 29.369C5.86714 29.5476 5.98988 29.7021 6.14883 29.8138C6.30778 29.9255 6.49618 29.9898 6.6914 29.9989C6.88663 30.008 7.08036 29.9615 7.24934 29.865L15.9989 24.8818L24.7525 29.865C24.9214 29.9611 25.1149 30.0073 25.3098 29.9981C25.5047 29.9889 25.6928 29.9246 25.8516 29.8131C26.0103 29.7015 26.1329 29.5474 26.2048 29.3691C26.2766 29.1908 26.2946 28.996 26.2566 28.8079L24.2623 18.9822L31.6641 12.4353C31.8084 12.3077 31.9124 12.1421 31.9638 11.9581C32.0152 11.7741 32.0118 11.5795 31.954 11.3973C31.8962 11.2152 31.7864 11.0532 31.6377 10.9305C31.489 10.8078 31.3076 10.7296 31.115 10.7052L21.108 9.43767L16.9194 0.577267C16.838 0.40484 16.708 0.25889 16.5449 0.156615C16.3818 0.0543393 16.1924 0 15.9989 0C15.8054 0 15.616 0.0543393 15.4529 0.156615C15.2898 0.25889 15.1599 0.40484 15.0784 0.577267H15.0794Z" fill="#6685B4"/>
</svg>
