<svg width="32" height="30" viewBox="0 0 32 30" fill="none" xmlns="http://www.w3.org/2000/svg">
<path d="M15.544 0.764251L15.5315 0.790829L11.346 9.65123L11.2288 9.89927L10.9567 9.93371L0.949624 11.2002L0.948856 11.2003C0.849245 11.2127 0.75632 11.253 0.68092 11.315C0.605605 11.377 0.551122 11.458 0.522642 11.5476C0.494186 11.6372 0.492529 11.7326 0.517804 11.823C0.543099 11.9134 0.594636 11.9961 0.667595 12.0605L0.668024 12.0608L8.06979 18.6077L8.28594 18.7988L8.22853 19.0816L6.23423 28.9064L6.23414 28.9068C6.21535 28.999 6.22397 29.0946 6.25931 29.1826C6.29469 29.2706 6.35572 29.3481 6.43638 29.4048C6.51711 29.4615 6.61372 29.4947 6.71462 29.4994C6.81553 29.5041 6.91516 29.48 7.00139 29.4308L7.00189 29.4305L15.7515 24.4473L15.9988 24.3064L16.2463 24.4473L24.9998 29.4304C24.9998 29.4304 24.9999 29.4304 24.9999 29.4304C25.0861 29.4794 25.1855 29.5034 25.2863 29.4986C25.387 29.4939 25.4834 29.4607 25.5641 29.404C25.6446 29.3474 25.7056 29.2701 25.741 29.1822C25.7763 29.0946 25.7851 28.9993 25.7666 28.9074L15.544 0.764251ZM15.544 0.764251C15.5846 0.690385 15.6443 0.626743 15.7185 0.580213C15.8016 0.528126 15.8989 0.5 15.9989 0.5C16.0989 0.5 16.1962 0.528126 16.2793 0.580213C16.3623 0.632249 16.4271 0.705686 16.4674 0.790889L16.4674 0.790956L20.6559 9.65136L20.7731 9.89925L21.0452 9.93371L31.0521 11.2012C31.1516 11.2138 31.2443 11.2541 31.3195 11.3161C31.3947 11.3781 31.449 11.459 31.4774 11.5486C31.5058 11.638 31.5075 11.7333 31.4822 11.8236C31.457 11.9139 31.4056 11.9965 31.3328 12.0608L23.9311 18.6077L23.7149 18.7988L23.7723 19.0816L25.7665 28.9069L15.544 0.764251Z" fill="white" stroke="black"/>
</svg>