<svg width="24" height="24" viewBox="0 0 24 24" fill="none" xmlns="http://www.w3.org/2000/svg">
<path d="M18.6938 17.3281C18.6074 17.0833 18.0266 15.4177 16.4426 15.4177H13.1066L13.4378 14.2729C14.885 13.9057 16.1522 13.5841 17.081 12.4729H21.1106C22.2194 12.4729 22.5626 13.5937 22.5626 13.5937L23.7602 17.3281H18.6938ZM18.0842 11.4529C17.8898 11.4529 17.7026 11.4361 17.513 11.4121C18.2642 10.2985 18.7034 8.95455 18.7034 7.50975C18.7034 4.46175 17.2322 3.94815 16.0394 2.69535C12.797 3.68655 22.5602 -0.24705 22.5602 6.97455C22.5602 9.44655 20.5562 11.4529 18.0842 11.4529ZM17.3402 7.88175C17.3402 10.9801 14.8274 13.4905 11.7314 13.4905C8.63303 13.4881 6.12023 10.9777 6.12023 7.88175C6.12023 4.78335 8.63063 2.27295 11.729 2.27295C14.8274 2.27295 17.3402 4.78335 17.3402 7.88175ZM10.8098 3.79695C9.09143 4.41135 11.1962 6.60015 7.42823 7.87935C7.42823 10.2553 9.35543 12.1825 11.7314 12.1825C14.1074 12.1825 16.0346 10.2553 16.0346 7.87935C13.841 6.07455 10.1618 6.90735 10.8098 3.79695ZM7.62263 2.58975C6.36983 3.85215 4.73783 4.77615 4.73783 7.50975C4.73783 8.97135 5.18903 10.8145 5.95703 11.9377C5.92823 11.9401 5.90183 11.9425 5.87303 11.9425C3.40103 11.9425 1.39703 9.44895 1.39703 6.97695C1.39943 0.15135 11.261 3.32655 7.62263 2.58975ZM3.09623 12.4729H6.36503C7.45463 13.7761 8.30903 14.1817 10.073 14.4193L10.301 15.4153H7.38503C5.80103 15.4153 5.26583 17.0833 5.18663 17.3257H0.240234L1.67783 13.5913C1.67783 13.5913 1.98743 12.4729 3.09623 12.4729ZM8.24663 15.8737H15.521C16.9082 15.8737 17.3402 17.2753 17.3402 17.2753L18.8402 21.7273H4.66823L6.47063 17.2753C6.47063 17.2753 6.85943 15.8737 8.24663 15.8737Z" fill="black"/>
</svg>
