<svg width="24" height="24" viewBox="0 0 24 24" fill="none" xmlns="http://www.w3.org/2000/svg">
<path d="M12 20V22C6.48 22 2 17.52 2 12C2 6.48 6.48 2 12 2C16.84 2 20.87 5.44 21.8 10H19.73C19.09 7.54 17.33 5.53 15 4.59V5C15 6.1 14.1 7 13 7H11V9C11 9.55 10.55 10 10 10H8V12H10V15H9L4.21 10.21C4.08 10.79 4 11.38 4 12C4 16.41 7.59 20 12 20Z" fill="black"/>
<path d="M14.9167 9C13.3083 9 12 10.3083 12 11.9167C12 14.1042 14.9167 17.3333 14.9167 17.3333C14.9167 17.3333 17.8333 14.1042 17.8333 11.9167C17.8333 10.3083 16.525 9 14.9167 9ZM14.9167 9.83333C15.375 9.83333 15.75 10.2083 15.75 10.6667C15.75 11.1292 15.375 11.5 14.9167 11.5C14.4583 11.5 14.0833 11.1292 14.0833 10.6667C14.0833 10.2083 14.4583 9.83333 14.9167 9.83333ZM14.9167 14C14.2208 14 13.6083 13.6458 13.25 13.1042C13.2583 12.5542 14.3625 12.25 14.9167 12.25C15.4708 12.25 16.575 12.5542 16.5833 13.1042C16.225 13.6458 15.6125 14 14.9167 14Z" fill="black"/>
</svg>
