<svg width="25" height="25" viewBox="0 0 25 25" fill="none" xmlns="http://www.w3.org/2000/svg">
<path d="M10.5482 0.97759C8.79521 1.26239 7.18416 1.90739 5.64823 2.92933C4.77175 3.51568 3.26086 5.01509 2.61811 5.93651C0.806717 8.53324 0.0971846 11.5739 0.564641 14.6732C1.19905 18.9202 4.17908 22.6058 8.15246 24.0801C9.79691 24.6916 11.408 24.9513 12.994 24.8675C18.2362 24.5659 22.5267 21.0981 23.9709 16.0051C24.1628 15.3434 24.1378 15.0753 23.8874 14.9748C23.6453 14.8827 23.47 15.0669 23.3531 15.5277C23.0443 16.7674 22.3264 18.3422 21.6169 19.339C20.298 21.1986 18.2362 22.765 16.166 23.4854C14.9556 23.9126 14.1376 24.0634 12.7435 24.1136C11.6 24.1555 11.3245 24.1387 10.4897 23.9712C7.76013 23.4267 5.66492 22.254 3.9537 20.3023C2.67654 18.8448 1.80006 17.1108 1.34095 15.134C1.10722 14.1036 1.12392 11.4818 1.37434 10.4347C2.66819 4.98996 7.35111 1.34616 12.7853 1.5472C15.7904 1.65609 18.5283 2.91257 20.6402 5.14911C21.1494 5.68521 21.9257 6.69877 21.9257 6.8328C21.9257 6.85793 21.1244 6.88306 20.1394 6.89981C19.1544 6.91656 18.3196 6.95007 18.2946 6.98358C18.1861 7.08409 18.2278 7.48617 18.3447 7.56156C18.4115 7.60344 19.4465 7.63695 20.6569 7.63695H22.8439L22.9274 7.41916C23.0359 7.14273 23.0359 3.35653 22.9274 3.0801C22.869 2.91257 22.7939 2.86231 22.5935 2.86231C22.46 2.86231 22.3348 2.87069 22.3264 2.87907C22.3181 2.89582 22.293 3.59945 22.268 4.44548L22.2179 5.98677L21.909 5.53443C21.5084 4.95645 20.3063 3.77536 19.505 3.16387C18.2779 2.24245 16.4832 1.42992 14.8304 1.06136C13.9539 0.868695 11.5248 0.818436 10.5482 0.97759Z" fill="black"/>
<path d="M10.9904 6.50618C9.89688 6.7491 9.01205 7.18468 8.21905 7.86318C5.83168 9.89868 5.26405 13.2744 6.83337 15.9717C7.35091 16.868 8.44443 17.8983 9.32091 18.3422C11.2241 19.2972 13.3527 19.2972 15.1474 18.359C17.1508 17.3119 18.4196 15.3602 18.5615 13.0985C18.7368 10.1332 16.8336 7.44435 13.9788 6.63183C13.1691 6.39729 11.725 6.33865 10.9904 6.50618ZM13.4946 7.25169C15.4312 7.72078 16.9672 9.11966 17.5515 10.9374C18.1358 12.7383 17.7936 14.7487 16.6667 16.1727C16.3077 16.6251 16.2994 16.6251 16.2242 16.424C15.7317 15.201 15.3227 14.6063 14.6382 14.1372L14.1791 13.8189L13.7284 14.0283C12.7684 14.489 11.8168 14.489 10.8485 14.0451C10.4144 13.844 10.381 13.844 10.1306 13.9781C9.62976 14.2377 8.91188 15.0503 8.60303 15.712C8.45277 16.0554 8.31921 16.4073 8.31921 16.491C8.31087 16.7088 7.70985 16.0219 7.35926 15.3937C6.7332 14.2629 6.52452 12.5708 6.85007 11.3227C7.25074 9.81492 8.39434 8.40766 9.74663 7.73753C10.139 7.5365 10.7066 7.32708 10.9987 7.26007C11.6916 7.11767 12.9103 7.10929 13.4946 7.25169Z" fill="black"/>
<path d="M11.5915 9.73091C10.3561 10.2335 10.089 11.9088 11.1074 12.8051C11.483 13.1402 11.9087 13.2742 12.4596 13.2323C13.5949 13.1402 14.3712 11.8669 13.9622 10.778C13.8119 10.3927 13.3027 9.86494 12.9438 9.73091C12.6767 9.63039 11.8503 9.63039 11.5915 9.73091Z" fill="black"/>
<path d="M23.0274 9.24544C22.8438 9.42973 22.9106 9.80667 23.136 9.91557C23.5533 10.0999 23.9457 9.59726 23.6285 9.27895C23.4782 9.1198 23.1694 9.10304 23.0274 9.24544Z" fill="black"/>
<path d="M23.4782 11.1216C23.2278 11.3729 23.4031 11.8252 23.7537 11.8252C23.9373 11.8252 24.1794 11.5739 24.1794 11.3812C24.1794 11.2053 23.954 10.9875 23.762 10.9875C23.6785 10.9875 23.545 11.0462 23.4782 11.1216Z" fill="black"/>
<path d="M23.7789 13.467C23.5452 13.6262 23.5452 13.9528 23.7705 14.1204C24.0043 14.2795 24.2797 14.179 24.3883 13.8775C24.455 13.6848 24.4383 13.6262 24.2714 13.4921C24.0377 13.2995 24.0126 13.2995 23.7789 13.467Z" fill="black"/>
</svg>
