<svg width="25" height="25" viewBox="0 0 25 25" fill="none" xmlns="http://www.w3.org/2000/svg">
<g clip-path="url(#clip0_1614_2)">
<path d="M10.5492 0.97759C8.79619 1.26239 7.18514 1.90739 5.64921 2.92933C4.77273 3.51568 3.26184 5.01509 2.61909 5.93651C0.807693 8.53324 0.0981611 11.5739 0.565618 14.6732C1.20003 18.9202 4.18006 22.6058 8.15344 24.0801C9.79789 24.6916 11.409 24.9513 12.995 24.8675C18.2372 24.5659 22.5277 21.0981 23.9719 16.0051C24.1638 15.3434 24.1388 15.0753 23.8884 14.9748C23.6463 14.8827 23.471 15.0669 23.3541 15.5277C23.0453 16.7674 22.3274 18.3422 21.6179 19.339C20.299 21.1986 18.2372 22.765 16.167 23.4854C14.9566 23.9126 14.1386 24.0634 12.7445 24.1136C11.601 24.1555 11.3255 24.1387 10.4907 23.9712C7.76111 23.4267 5.6659 22.254 3.95468 20.3023C2.67752 18.8448 1.80104 17.1108 1.34193 15.134C1.1082 14.1036 1.1249 11.4818 1.37532 10.4347C2.66917 4.98996 7.35209 1.34616 12.7863 1.5472C15.7914 1.65609 18.5293 2.91257 20.6412 5.14911C21.1504 5.68521 21.9267 6.69877 21.9267 6.8328C21.9267 6.85793 21.1254 6.88306 20.1404 6.89981C19.1554 6.91656 18.3206 6.95007 18.2956 6.98358C18.1871 7.08409 18.2288 7.48617 18.3457 7.56156C18.4125 7.60344 19.4475 7.63695 20.6579 7.63695H22.8449L22.9284 7.41916C23.0369 7.14273 23.0369 3.35653 22.9284 3.0801C22.87 2.91257 22.7949 2.86231 22.5945 2.86231C22.461 2.86231 22.3358 2.87069 22.3274 2.87907C22.3191 2.89582 22.294 3.59945 22.269 4.44548L22.2189 5.98677L21.91 5.53443C21.5094 4.95645 20.3073 3.77536 19.506 3.16387C18.2789 2.24245 16.4842 1.42992 14.8314 1.06136C13.9549 0.868695 11.5258 0.818436 10.5492 0.97759Z" fill="#4A4A4B"/>
<path d="M23.0279 9.24555C22.8443 9.42984 22.9111 9.80678 23.1365 9.91568C23.5538 10.1 23.9462 9.59737 23.629 9.27906C23.4787 9.11991 23.1699 9.10315 23.0279 9.24555Z" fill="#4A4A4B"/>
<path d="M23.4792 11.1224C23.2288 11.3737 23.4041 11.826 23.7547 11.826C23.9383 11.826 24.1804 11.5747 24.1804 11.382C24.1804 11.2061 23.955 10.9883 23.763 10.9883C23.6795 10.9883 23.546 11.047 23.4792 11.1224Z" fill="#4A4A4B"/>
<path d="M23.7799 13.4664C23.5462 13.6256 23.5462 13.9522 23.7715 14.1198C24.0053 14.2789 24.2807 14.1784 24.3893 13.8769C24.456 13.6842 24.4393 13.6256 24.2724 13.4915C24.0387 13.2989 24.0136 13.2989 23.7799 13.4664Z" fill="#4A4A4B"/>
<path d="M12.0938 11.4688C12.0938 11.361 12.0509 11.2577 11.9748 11.1815C11.8986 11.1053 11.7952 11.0625 11.6875 11.0625C11.5798 11.0625 11.4764 11.1053 11.4002 11.1815C11.3241 11.2577 11.2812 11.361 11.2812 11.4688V11.9839L10.8352 11.7263C10.789 11.6992 10.7378 11.6815 10.6848 11.6743C10.6317 11.667 10.5777 11.6703 10.5259 11.684C10.4741 11.6977 10.4255 11.7215 10.383 11.7541C10.3404 11.7866 10.3047 11.8273 10.2779 11.8736C10.2511 11.92 10.2338 11.9713 10.2269 12.0244C10.22 12.0775 10.2236 12.1315 10.2377 12.1832C10.2517 12.2349 10.2758 12.2833 10.3087 12.3257C10.3415 12.368 10.3824 12.4035 10.4289 12.4299L10.875 12.6875L10.4289 12.9451C10.3824 12.9715 10.3415 13.007 10.3087 13.0493C10.2758 13.0917 10.2517 13.1401 10.2377 13.1918C10.2236 13.2435 10.22 13.2975 10.2269 13.3506C10.2338 13.4037 10.2511 13.455 10.2779 13.5014C10.3047 13.5478 10.3404 13.5884 10.383 13.6209C10.4255 13.6535 10.4741 13.6773 10.5259 13.691C10.5777 13.7047 10.6317 13.708 10.6848 13.7007C10.7378 13.6935 10.789 13.6758 10.8352 13.6487L11.2812 13.3911V13.9062C11.2812 14.014 11.3241 14.1173 11.4002 14.1935C11.4764 14.2697 11.5798 14.3125 11.6875 14.3125C11.7952 14.3125 11.8986 14.2697 11.9748 14.1935C12.0509 14.1173 12.0938 14.014 12.0938 13.9062V13.3911L12.5398 13.6487C12.586 13.6758 12.6372 13.6935 12.6902 13.7007C12.7433 13.708 12.7973 13.7047 12.8491 13.691C12.9009 13.6773 12.9495 13.6535 12.992 13.6209C13.0346 13.5884 13.0703 13.5478 13.0971 13.5014C13.1239 13.455 13.1412 13.4037 13.1481 13.3506C13.155 13.2975 13.1514 13.2435 13.1373 13.1918C13.1233 13.1401 13.0992 13.0917 13.0663 13.0493C13.0335 13.007 12.9926 12.9715 12.9461 12.9451L12.5 12.6875L12.9461 12.4299C12.9926 12.4035 13.0335 12.368 13.0663 12.3257C13.0992 12.2833 13.1233 12.2349 13.1373 12.1832C13.1514 12.1315 13.155 12.0775 13.1481 12.0244C13.1412 11.9713 13.1239 11.92 13.0971 11.8736C13.0703 11.8273 13.0346 11.7866 12.992 11.7541C12.9495 11.7215 12.9009 11.6977 12.8491 11.684C12.7973 11.6703 12.7433 11.667 12.6902 11.6743C12.6372 11.6815 12.586 11.6992 12.5398 11.7263L12.0938 11.9839V11.4688ZM10.4688 15.125C10.361 15.125 10.2577 15.1678 10.1815 15.244C10.1053 15.3202 10.0625 15.4235 10.0625 15.5312C10.0625 15.639 10.1053 15.7423 10.1815 15.8185C10.2577 15.8947 10.361 15.9375 10.4688 15.9375H14.5312C14.639 15.9375 14.7423 15.8947 14.8185 15.8185C14.8947 15.7423 14.9375 15.639 14.9375 15.5312C14.9375 15.4235 14.8947 15.3202 14.8185 15.244C14.7423 15.1678 14.639 15.125 14.5312 15.125H10.4688ZM10.4688 16.75C10.361 16.75 10.2577 16.7928 10.1815 16.869C10.1053 16.9452 10.0625 17.0485 10.0625 17.1562C10.0625 17.264 10.1053 17.3673 10.1815 17.4435C10.2577 17.5197 10.361 17.5625 10.4688 17.5625H14.5312C14.639 17.5625 14.7423 17.5197 14.8185 17.4435C14.8947 17.3673 14.9375 17.264 14.9375 17.1562C14.9375 17.0485 14.8947 16.9452 14.8185 16.869C14.7423 16.7928 14.639 16.75 14.5312 16.75H10.4688Z" fill="#4A4A4B"/>
<path d="M17.375 18.375V10.6562L13.7188 7H9.25C8.81902 7 8.4057 7.1712 8.10095 7.47595C7.7962 7.7807 7.625 8.19402 7.625 8.625V18.375C7.625 18.806 7.7962 19.2193 8.10095 19.524C8.4057 19.8288 8.81902 20 9.25 20H15.75C16.181 20 16.5943 19.8288 16.899 19.524C17.2038 19.2193 17.375 18.806 17.375 18.375ZM13.7188 9.4375C13.7188 9.76073 13.8472 10.0707 14.0757 10.2993C14.3043 10.5278 14.6143 10.6562 14.9375 10.6562H16.5625V18.375C16.5625 18.5905 16.4769 18.7972 16.3245 18.9495C16.1722 19.1019 15.9655 19.1875 15.75 19.1875H9.25C9.03451 19.1875 8.82785 19.1019 8.67548 18.9495C8.5231 18.7972 8.4375 18.5905 8.4375 18.375V8.625C8.4375 8.40951 8.5231 8.20285 8.67548 8.05048C8.82785 7.8981 9.03451 7.8125 9.25 7.8125H13.7188V9.4375Z" fill="#4A4A4B"/>
</g>
<defs>
<clipPath id="clip0_1614_2">
<rect width="25" height="25" fill="white"/>
</clipPath>
</defs>
</svg>
