<svg width="25" height="25" viewBox="0 0 25 25" fill="none" xmlns="http://www.w3.org/2000/svg">
<g clip-path="url(#clip0_1614_29)">
<path d="M10.5492 0.97759C8.79619 1.26239 7.18514 1.90739 5.64921 2.92933C4.77273 3.51568 3.26184 5.01509 2.61909 5.93651C0.807693 8.53324 0.0981611 11.5739 0.565618 14.6732C1.20003 18.9202 4.18006 22.6058 8.15344 24.0801C9.79789 24.6916 11.409 24.9513 12.995 24.8675C18.2372 24.5659 22.5277 21.0981 23.9719 16.0051C24.1638 15.3434 24.1388 15.0753 23.8884 14.9748C23.6463 14.8827 23.471 15.0669 23.3541 15.5277C23.0453 16.7674 22.3274 18.3422 21.6179 19.339C20.299 21.1986 18.2372 22.765 16.167 23.4854C14.9566 23.9126 14.1386 24.0634 12.7445 24.1136C11.601 24.1555 11.3255 24.1387 10.4907 23.9712C7.76111 23.4267 5.6659 22.254 3.95468 20.3023C2.67752 18.8448 1.80104 17.1108 1.34193 15.134C1.1082 14.1036 1.1249 11.4818 1.37532 10.4347C2.66917 4.98996 7.35209 1.34616 12.7863 1.5472C15.7914 1.65609 18.5293 2.91257 20.6412 5.14911C21.1504 5.68521 21.9267 6.69877 21.9267 6.8328C21.9267 6.85793 21.1254 6.88306 20.1404 6.89981C19.1554 6.91656 18.3206 6.95007 18.2956 6.98358C18.1871 7.08409 18.2288 7.48617 18.3457 7.56156C18.4125 7.60344 19.4475 7.63695 20.6579 7.63695H22.8449L22.9284 7.41916C23.0369 7.14273 23.0369 3.35653 22.9284 3.0801C22.87 2.91257 22.7949 2.86231 22.5945 2.86231C22.461 2.86231 22.3358 2.87069 22.3274 2.87907C22.3191 2.89582 22.294 3.59945 22.269 4.44548L22.2189 5.98677L21.91 5.53443C21.5094 4.95645 20.3073 3.77536 19.506 3.16387C18.2789 2.24245 16.4842 1.42992 14.8314 1.06136C13.9549 0.868695 11.5258 0.818436 10.5492 0.97759Z" fill="#4A4A4B"/>
<path d="M23.0279 9.24555C22.8443 9.42984 22.9111 9.80678 23.1365 9.91568C23.5538 10.1 23.9462 9.59737 23.629 9.27906C23.4787 9.11991 23.1699 9.10315 23.0279 9.24555Z" fill="#4A4A4B"/>
<path d="M23.4792 11.1224C23.2288 11.3737 23.4041 11.826 23.7547 11.826C23.9383 11.826 24.1804 11.5747 24.1804 11.382C24.1804 11.2061 23.955 10.9883 23.763 10.9883C23.6795 10.9883 23.546 11.047 23.4792 11.1224Z" fill="#4A4A4B"/>
<path d="M23.7799 13.4664C23.5462 13.6256 23.5462 13.9522 23.7715 14.1198C24.0053 14.2789 24.2807 14.1784 24.3893 13.8769C24.456 13.6842 24.4393 13.6256 24.2724 13.4915C24.0387 13.2989 24.0136 13.2989 23.7799 13.4664Z" fill="#4A4A4B"/>
<path d="M17.375 8.86667C17.5905 8.86667 17.7972 8.95798 17.9495 9.12051C18.1019 9.28304 18.1875 9.50348 18.1875 9.73333V16.6667C18.1875 16.8965 18.1019 17.117 17.9495 17.2795C17.7972 17.442 17.5905 17.5333 17.375 17.5333H7.625C7.40951 17.5333 7.20285 17.442 7.05048 17.2795C6.8981 17.117 6.8125 16.8965 6.8125 16.6667V9.73333C6.8125 9.50348 6.8981 9.28304 7.05048 9.12051C7.20285 8.95798 7.40951 8.86667 7.625 8.86667H17.375ZM7.625 8C7.19402 8 6.7807 8.18262 6.47595 8.50768C6.1712 8.83274 6 9.27362 6 9.73333V16.6667C6 17.1264 6.1712 17.5673 6.47595 17.8923C6.7807 18.2174 7.19402 18.4 7.625 18.4H17.375C17.806 18.4 18.2193 18.2174 18.524 17.8923C18.8288 17.5673 19 17.1264 19 16.6667V9.73333C19 9.27362 18.8288 8.83274 18.524 8.50768C18.2193 8.18262 17.806 8 17.375 8H7.625Z" fill="#4A4A4B"/>
<path d="M7.73242 11.0329C7.73242 10.918 7.77808 10.8078 7.85934 10.7265C7.94061 10.6453 8.05083 10.5996 8.16576 10.5996H9.89909C10.014 10.5996 10.1242 10.6453 10.2055 10.7265C10.2868 10.8078 10.3324 10.918 10.3324 11.0329V11.8996C10.3324 12.0145 10.2868 12.1248 10.2055 12.206C10.1242 12.2873 10.014 12.3329 9.89909 12.3329H8.16576C8.05083 12.3329 7.94061 12.2873 7.85934 12.206C7.77808 12.1248 7.73242 12.0145 7.73242 11.8996V11.0329ZM7.73242 13.6329C7.73242 13.518 7.77808 13.4078 7.85934 13.3265C7.94061 13.2453 8.05083 13.1996 8.16576 13.1996H12.4991C12.614 13.1996 12.7242 13.2453 12.8055 13.3265C12.8868 13.4078 12.9324 13.518 12.9324 13.6329C12.9324 13.7479 12.8868 13.8581 12.8055 13.9394C12.7242 14.0206 12.614 14.0663 12.4991 14.0663H8.16576C8.05083 14.0663 7.94061 14.0206 7.85934 13.9394C7.77808 13.8581 7.73242 13.7479 7.73242 13.6329ZM7.73242 15.3663C7.73242 15.2513 7.77808 15.1411 7.85934 15.0599C7.94061 14.9786 8.05083 14.9329 8.16576 14.9329H9.03242C9.14735 14.9329 9.25757 14.9786 9.33883 15.0599C9.4201 15.1411 9.46576 15.2513 9.46576 15.3663C9.46576 15.4812 9.4201 15.5914 9.33883 15.6727C9.25757 15.754 9.14735 15.7996 9.03242 15.7996H8.16576C8.05083 15.7996 7.94061 15.754 7.85934 15.6727C7.77808 15.5914 7.73242 15.4812 7.73242 15.3663ZM10.3324 15.3663C10.3324 15.2513 10.3781 15.1411 10.4593 15.0599C10.5406 14.9786 10.6508 14.9329 10.7658 14.9329H11.6324C11.7473 14.9329 11.8576 14.9786 11.9388 15.0599C12.0201 15.1411 12.0658 15.2513 12.0658 15.3663C12.0658 15.4812 12.0201 15.5914 11.9388 15.6727C11.8576 15.754 11.7473 15.7996 11.6324 15.7996H10.7658C10.6508 15.7996 10.5406 15.754 10.4593 15.6727C10.3781 15.5914 10.3324 15.4812 10.3324 15.3663ZM12.9324 15.3663C12.9324 15.2513 12.9781 15.1411 13.0593 15.0599C13.1406 14.9786 13.2508 14.9329 13.3658 14.9329H14.2324C14.3473 14.9329 14.4576 14.9786 14.5388 15.0599C14.6201 15.1411 14.6658 15.2513 14.6658 15.3663C14.6658 15.4812 14.6201 15.5914 14.5388 15.6727C14.4576 15.754 14.3473 15.7996 14.2324 15.7996H13.3658C13.2508 15.7996 13.1406 15.754 13.0593 15.6727C12.9781 15.5914 12.9324 15.4812 12.9324 15.3663ZM15.5324 15.3663C15.5324 15.2513 15.5781 15.1411 15.6593 15.0599C15.7406 14.9786 15.8508 14.9329 15.9658 14.9329H16.8324C16.9473 14.9329 17.0576 14.9786 17.1388 15.0599C17.2201 15.1411 17.2658 15.2513 17.2658 15.3663C17.2658 15.4812 17.2201 15.5914 17.1388 15.6727C17.0576 15.754 16.9473 15.7996 16.8324 15.7996H15.9658C15.8508 15.7996 15.7406 15.754 15.6593 15.6727C15.5781 15.5914 15.5324 15.4812 15.5324 15.3663Z" fill="#4A4A4B"/>
<g clip-path="url(#clip1_1614_29)">
<path d="M14.2344 11.1562C14.2137 11.1562 14.1938 11.1645 14.1791 11.1791C14.1645 11.1938 14.1562 11.2137 14.1562 11.2344V11.7031C14.1562 11.7238 14.148 11.7437 14.1334 11.7584C14.1187 11.773 14.0988 11.7812 14.0781 11.7812C14.0574 11.7812 14.0375 11.773 14.0229 11.7584C14.0082 11.7437 14 11.7238 14 11.7031V11.2344C14 11.1722 14.0247 11.1126 14.0686 11.0686C14.1126 11.0247 14.1722 11 14.2344 11H14.7031C14.7238 11 14.7437 11.0082 14.7584 11.0229C14.773 11.0375 14.7812 11.0574 14.7812 11.0781C14.7812 11.0988 14.773 11.1187 14.7584 11.1334C14.7437 11.148 14.7238 11.1562 14.7031 11.1562H14.2344ZM15.7188 11.0781C15.7188 11.0574 15.727 11.0375 15.7416 11.0229C15.7563 11.0082 15.7762 11 15.7969 11H16.2656C16.3278 11 16.3874 11.0247 16.4314 11.0686C16.4753 11.1126 16.5 11.1722 16.5 11.2344V11.7031C16.5 11.7238 16.4918 11.7437 16.4771 11.7584C16.4625 11.773 16.4426 11.7812 16.4219 11.7812C16.4012 11.7812 16.3813 11.773 16.3666 11.7584C16.352 11.7437 16.3438 11.7238 16.3438 11.7031V11.2344C16.3438 11.2137 16.3355 11.1938 16.3209 11.1791C16.3062 11.1645 16.2863 11.1562 16.2656 11.1562H15.7969C15.7762 11.1562 15.7563 11.148 15.7416 11.1334C15.727 11.1187 15.7188 11.0988 15.7188 11.0781ZM14.0781 12.7188C14.0988 12.7188 14.1187 12.727 14.1334 12.7416C14.148 12.7563 14.1562 12.7762 14.1562 12.7969V13.2656C14.1562 13.2863 14.1645 13.3062 14.1791 13.3209C14.1938 13.3355 14.2137 13.3438 14.2344 13.3438H14.7031C14.7238 13.3438 14.7437 13.352 14.7584 13.3666C14.773 13.3813 14.7812 13.4012 14.7812 13.4219C14.7812 13.4426 14.773 13.4625 14.7584 13.4771C14.7437 13.4918 14.7238 13.5 14.7031 13.5H14.2344C14.1722 13.5 14.1126 13.4753 14.0686 13.4314C14.0247 13.3874 14 13.3278 14 13.2656V12.7969C14 12.7762 14.0082 12.7563 14.0229 12.7416C14.0375 12.727 14.0574 12.7188 14.0781 12.7188ZM16.4219 12.7188C16.4426 12.7188 16.4625 12.727 16.4771 12.7416C16.4918 12.7563 16.5 12.7762 16.5 12.7969V13.2656C16.5 13.3278 16.4753 13.3874 16.4314 13.4314C16.3874 13.4753 16.3278 13.5 16.2656 13.5H15.7969C15.7762 13.5 15.7563 13.4918 15.7416 13.4771C15.727 13.4625 15.7188 13.4426 15.7188 13.4219C15.7188 13.4012 15.727 13.3813 15.7416 13.3666C15.7563 13.352 15.7762 13.3438 15.7969 13.3438H16.2656C16.2863 13.3438 16.3062 13.3355 16.3209 13.3209C16.3355 13.3062 16.3438 13.2863 16.3438 13.2656V12.7969C16.3438 12.7762 16.352 12.7563 16.3666 12.7416C16.3813 12.727 16.4012 12.7188 16.4219 12.7188Z" fill="#4A4A4B"/>
<path d="M14.4688 13.1875C14.4688 13.1875 14.3125 13.1875 14.3125 13.0312C14.3125 12.875 14.4688 12.4062 15.25 12.4062C16.0312 12.4062 16.1875 12.875 16.1875 13.0312C16.1875 13.1875 16.0312 13.1875 16.0312 13.1875H14.4688ZM15.7188 11.7812C15.7188 11.9056 15.6694 12.0248 15.5815 12.1127C15.4935 12.2006 15.3743 12.25 15.25 12.25C15.1257 12.25 15.0065 12.2006 14.9185 12.1127C14.8306 12.0248 14.7812 11.9056 14.7812 11.7812C14.7812 11.6569 14.8306 11.5377 14.9185 11.4498C15.0065 11.3619 15.1257 11.3125 15.25 11.3125C15.3743 11.3125 15.4935 11.3619 15.5815 11.4498C15.6694 11.5377 15.7188 11.6569 15.7188 11.7812Z" fill="#4A4A4B"/>
</g>
</g>
<defs>
<clipPath id="clip0_1614_29">
<rect width="25" height="25" fill="white"/>
</clipPath>
<clipPath id="clip1_1614_29">
<rect width="2.5" height="2.5" fill="white" transform="translate(14 11)"/>
</clipPath>
</defs>
</svg>
