<svg width="55" height="63" viewBox="0 0 55 63" fill="none" xmlns="http://www.w3.org/2000/svg">
<path d="M46.7623 11.9479C41.6183 6.77988 34.7679 3.9375 27.4877 3.9375C12.4609 3.9375 0.233259 16.193 0.233259 31.2539C0.233259 36.065 1.48549 40.7654 3.86719 44.9121L0 59.0625L14.4498 55.2604C18.4275 57.4383 22.9085 58.5826 27.4754 58.5826H27.4877C42.5022 58.5826 55 46.3271 55 31.2662C55 23.9695 51.9062 17.1158 46.7623 11.9479ZM27.4877 53.9807C23.4118 53.9807 19.4219 52.8855 15.9475 50.8184L15.125 50.3262L6.5558 52.5779L8.83929 44.1984L8.29911 43.3371C6.0279 39.7195 4.83705 35.5482 4.83705 31.2539C4.83705 18.74 15.0022 8.55176 27.5 8.55176C33.5525 8.55176 39.2366 10.9143 43.5089 15.2086C47.7812 19.5029 50.4085 25.2 50.3962 31.2662C50.3962 43.7924 39.9732 53.9807 27.4877 53.9807ZM39.9118 36.9756C39.2366 36.6311 35.885 34.9822 35.2589 34.7607C34.6328 34.527 34.1786 34.4162 33.7243 35.1053C33.2701 35.7943 31.9688 37.3201 31.5636 37.7877C31.1708 38.243 30.7656 38.3045 30.0904 37.96C26.0882 35.9543 23.4609 34.3793 20.8214 29.8389C20.1217 28.633 21.5212 28.7191 22.8225 26.1105C23.0435 25.6553 22.933 25.2615 22.7612 24.917C22.5893 24.5725 21.2266 21.2133 20.6618 19.8475C20.1094 18.5186 19.5446 18.7031 19.1272 18.6785C18.7344 18.6539 18.2801 18.6539 17.8259 18.6539C17.3717 18.6539 16.635 18.8262 16.0089 19.5029C15.3828 20.192 13.6272 21.8408 13.6272 25.2C13.6272 28.5592 16.0703 31.8076 16.4018 32.2629C16.7455 32.7182 21.202 39.6088 28.0402 42.5742C32.3616 44.4445 34.0558 44.6045 36.2165 44.2846C37.5301 44.0877 40.2433 42.6357 40.808 41.0361C41.3728 39.4365 41.3728 38.0707 41.2009 37.7877C41.0413 37.4801 40.5871 37.3078 39.9118 36.9756Z" fill="#48C857"/>
</svg>
